G04 EAGLE Gerber RS-274X export*
G75*
%MOMM*%
%FSLAX34Y34*%
%LPD*%
%INTop Copper*%
%IPPOS*%
%AMOC8*
5,1,8,0,0,1.08239X$1,22.5*%
G01*
%ADD10R,1.600000X1.800000*%
%ADD11R,3.400000X1.900000*%
%ADD12R,1.520000X0.600000*%
%ADD13R,2.540000X2.540000*%
%ADD14R,1.114600X1.361200*%
%ADD15R,3.810000X2.082800*%
%ADD16R,8.890000X11.430000*%
%ADD17R,1.803000X1.600000*%
%ADD18R,1.600000X1.803000*%
%ADD19R,1.850000X5.500000*%
%ADD20R,1.361200X1.114600*%
%ADD21R,2.540000X2.540000*%
%ADD22R,1.500000X1.500000*%
%ADD23C,2.760000*%
%ADD24C,1.879600*%
%ADD25R,1.300000X1.500000*%
%ADD26C,6.000000*%
%ADD27C,0.812800*%
%ADD28C,0.508000*%
%ADD29C,0.656400*%
%ADD30C,0.756400*%
%ADD31C,0.406400*%
%ADD32C,0.304800*%
%ADD33C,1.206400*%
%ADD34C,1.156400*%
%ADD35C,0.200000*%
%ADD36C,0.150000*%
%ADD37C,0.152400*%

G36*
X360050Y121631D02*
X360050Y121631D01*
X360101Y121633D01*
X360133Y121651D01*
X360169Y121659D01*
X360208Y121692D01*
X360253Y121716D01*
X360274Y121746D01*
X360302Y121769D01*
X360323Y121816D01*
X360353Y121858D01*
X360361Y121900D01*
X360373Y121928D01*
X360372Y121958D01*
X360380Y122000D01*
X360380Y138919D01*
X360369Y138969D01*
X360367Y139020D01*
X360349Y139052D01*
X360341Y139088D01*
X360308Y139127D01*
X360284Y139172D01*
X360254Y139193D01*
X360231Y139221D01*
X360184Y139242D01*
X360142Y139272D01*
X360100Y139280D01*
X360072Y139292D01*
X360042Y139291D01*
X360000Y139299D01*
X350724Y139299D01*
X347794Y142229D01*
X347794Y171771D01*
X350724Y174701D01*
X360000Y174701D01*
X360050Y174712D01*
X360101Y174714D01*
X360133Y174732D01*
X360169Y174740D01*
X360208Y174773D01*
X360253Y174797D01*
X360274Y174827D01*
X360302Y174850D01*
X360323Y174897D01*
X360353Y174939D01*
X360361Y174981D01*
X360373Y175009D01*
X360372Y175039D01*
X360380Y175081D01*
X360380Y189620D01*
X374619Y189620D01*
X374669Y189631D01*
X374720Y189633D01*
X374752Y189651D01*
X374788Y189659D01*
X374827Y189692D01*
X374872Y189716D01*
X374893Y189746D01*
X374921Y189769D01*
X374942Y189816D01*
X374972Y189858D01*
X374980Y189900D01*
X374992Y189928D01*
X374991Y189958D01*
X374999Y190000D01*
X374999Y192989D01*
X376522Y196665D01*
X379335Y199478D01*
X383011Y201001D01*
X402989Y201001D01*
X406665Y199478D01*
X406731Y199412D01*
X406775Y199385D01*
X406812Y199350D01*
X406847Y199340D01*
X406878Y199321D01*
X406929Y199316D01*
X406978Y199301D01*
X407014Y199308D01*
X407051Y199304D01*
X407098Y199322D01*
X407149Y199331D01*
X407184Y199355D01*
X407213Y199366D01*
X407234Y199388D01*
X407269Y199412D01*
X407335Y199478D01*
X411011Y201001D01*
X430989Y201001D01*
X434665Y199478D01*
X437478Y196665D01*
X439001Y192989D01*
X439001Y192475D01*
X439001Y192473D01*
X439001Y192471D01*
X439030Y192329D01*
X440055Y189855D01*
X440092Y189803D01*
X440122Y189747D01*
X440142Y189733D01*
X440156Y189714D01*
X440212Y189684D01*
X440264Y189647D01*
X440290Y189642D01*
X440309Y189632D01*
X440346Y189631D01*
X440406Y189620D01*
X467000Y189620D01*
X467050Y189631D01*
X467101Y189633D01*
X467133Y189651D01*
X467169Y189659D01*
X467208Y189692D01*
X467253Y189716D01*
X467274Y189746D01*
X467302Y189769D01*
X467323Y189816D01*
X467353Y189858D01*
X467361Y189900D01*
X467373Y189928D01*
X467372Y189958D01*
X467380Y190000D01*
X467380Y481160D01*
X467371Y481197D01*
X467373Y481235D01*
X467352Y481280D01*
X467341Y481328D01*
X467316Y481358D01*
X467300Y481393D01*
X467262Y481424D01*
X467231Y481462D01*
X467195Y481478D01*
X467166Y481502D01*
X467117Y481513D01*
X467072Y481533D01*
X467034Y481531D01*
X466996Y481540D01*
X466937Y481528D01*
X466899Y481526D01*
X466881Y481516D01*
X466854Y481511D01*
X464659Y480601D01*
X456941Y480601D01*
X449811Y483555D01*
X444355Y489011D01*
X441401Y496141D01*
X441401Y503859D01*
X444355Y510989D01*
X445797Y512431D01*
X445824Y512474D01*
X445859Y512512D01*
X445869Y512547D01*
X445889Y512578D01*
X445893Y512629D01*
X445908Y512678D01*
X445902Y512714D01*
X445905Y512751D01*
X445887Y512798D01*
X445878Y512849D01*
X445854Y512884D01*
X445843Y512913D01*
X445821Y512934D01*
X445797Y512969D01*
X444355Y514411D01*
X441401Y521541D01*
X441401Y529259D01*
X444355Y536389D01*
X449811Y541845D01*
X450445Y542108D01*
X450455Y542115D01*
X450468Y542118D01*
X450525Y542166D01*
X450585Y542209D01*
X450592Y542220D01*
X450602Y542228D01*
X450632Y542296D01*
X450667Y542362D01*
X450667Y542375D01*
X450672Y542387D01*
X450670Y542461D01*
X450672Y542535D01*
X450666Y542547D01*
X450666Y542560D01*
X450630Y542625D01*
X450599Y542692D01*
X450589Y542701D01*
X450583Y542712D01*
X450523Y542755D01*
X450465Y542801D01*
X450452Y542804D01*
X450441Y542812D01*
X450299Y542839D01*
X230762Y542839D01*
X230712Y542828D01*
X230661Y542826D01*
X230629Y542808D01*
X230593Y542800D01*
X230554Y542767D01*
X230509Y542743D01*
X230488Y542713D01*
X230460Y542690D01*
X230439Y542643D01*
X230409Y542601D01*
X230401Y542559D01*
X230389Y542531D01*
X230390Y542501D01*
X230382Y542459D01*
X230382Y219666D01*
X230399Y219592D01*
X230401Y219579D01*
X230402Y219559D01*
X230406Y219551D01*
X230412Y219518D01*
X230419Y219507D01*
X230421Y219498D01*
X230445Y219469D01*
X230476Y219422D01*
X230485Y219407D01*
X230489Y219404D01*
X230493Y219397D01*
X231923Y217967D01*
X234065Y212798D01*
X234065Y200576D01*
X234076Y200526D01*
X234078Y200475D01*
X234096Y200443D01*
X234104Y200407D01*
X234137Y200368D01*
X234161Y200323D01*
X234191Y200302D01*
X234214Y200274D01*
X234261Y200253D01*
X234303Y200223D01*
X234345Y200215D01*
X234373Y200203D01*
X234403Y200204D01*
X234445Y200196D01*
X235689Y200196D01*
X239365Y198673D01*
X242178Y195860D01*
X243701Y192184D01*
X243701Y190000D01*
X243712Y189950D01*
X243714Y189899D01*
X243732Y189867D01*
X243740Y189831D01*
X243773Y189792D01*
X243797Y189747D01*
X243827Y189726D01*
X243850Y189698D01*
X243897Y189677D01*
X243939Y189647D01*
X243981Y189639D01*
X244009Y189627D01*
X244039Y189628D01*
X244081Y189620D01*
X274238Y189620D01*
X274288Y189631D01*
X274339Y189633D01*
X274371Y189651D01*
X274407Y189659D01*
X274446Y189692D01*
X274491Y189716D01*
X274512Y189746D01*
X274540Y189769D01*
X274561Y189816D01*
X274591Y189858D01*
X274599Y189900D01*
X274611Y189928D01*
X274610Y189958D01*
X274618Y190000D01*
X274618Y195738D01*
X274605Y195794D01*
X274605Y195804D01*
X274603Y195808D01*
X274597Y195863D01*
X274584Y195883D01*
X274579Y195907D01*
X274538Y195956D01*
X274504Y196009D01*
X274482Y196024D01*
X274469Y196040D01*
X274434Y196056D01*
X274384Y196089D01*
X274119Y196199D01*
X271199Y199119D01*
X269618Y202935D01*
X269618Y222105D01*
X269607Y222155D01*
X269605Y222206D01*
X269587Y222238D01*
X269579Y222274D01*
X269546Y222313D01*
X269522Y222358D01*
X269492Y222379D01*
X269469Y222407D01*
X269422Y222428D01*
X269380Y222458D01*
X269338Y222466D01*
X269310Y222478D01*
X269280Y222477D01*
X269238Y222485D01*
X259361Y222485D01*
X255685Y224008D01*
X252872Y226821D01*
X251349Y230497D01*
X251349Y255303D01*
X252872Y258979D01*
X255685Y261792D01*
X259361Y263315D01*
X273475Y263315D01*
X273549Y263332D01*
X273624Y263345D01*
X273634Y263352D01*
X273644Y263354D01*
X273673Y263378D01*
X273744Y263426D01*
X274119Y263801D01*
X277935Y265382D01*
X332065Y265382D01*
X335881Y263801D01*
X338801Y260881D01*
X340382Y257065D01*
X340382Y232935D01*
X340262Y232646D01*
X340249Y232570D01*
X340233Y232496D01*
X340235Y232484D01*
X340234Y232475D01*
X340245Y232439D01*
X340262Y232354D01*
X340382Y232065D01*
X340382Y210380D01*
X335762Y210380D01*
X335712Y210369D01*
X335661Y210367D01*
X335629Y210349D01*
X335593Y210341D01*
X335554Y210308D01*
X335509Y210284D01*
X335488Y210254D01*
X335460Y210231D01*
X335439Y210184D01*
X335409Y210142D01*
X335401Y210100D01*
X335389Y210072D01*
X335390Y210042D01*
X335382Y210000D01*
X335382Y198189D01*
X335382Y198187D01*
X335382Y198185D01*
X335411Y198043D01*
X335783Y197145D01*
X335783Y192855D01*
X335411Y191957D01*
X335410Y191955D01*
X335409Y191954D01*
X335382Y191811D01*
X335382Y172753D01*
X335399Y172679D01*
X335412Y172604D01*
X335419Y172594D01*
X335421Y172584D01*
X335445Y172555D01*
X335493Y172484D01*
X336206Y171771D01*
X336206Y142229D01*
X333276Y139299D01*
X312921Y139299D01*
X312871Y139288D01*
X312820Y139286D01*
X312788Y139268D01*
X312752Y139260D01*
X312713Y139227D01*
X312668Y139203D01*
X312647Y139173D01*
X312619Y139150D01*
X312598Y139103D01*
X312568Y139061D01*
X312560Y139019D01*
X312548Y138991D01*
X312549Y138961D01*
X312541Y138919D01*
X312541Y122000D01*
X312552Y121950D01*
X312554Y121899D01*
X312572Y121867D01*
X312580Y121831D01*
X312613Y121792D01*
X312637Y121747D01*
X312667Y121726D01*
X312690Y121698D01*
X312737Y121677D01*
X312779Y121647D01*
X312821Y121639D01*
X312849Y121627D01*
X312879Y121628D01*
X312921Y121620D01*
X360000Y121620D01*
X360050Y121631D01*
G37*
G36*
X83376Y16001D02*
X83376Y16001D01*
X86000Y16001D01*
X86064Y16010D01*
X86128Y16009D01*
X86203Y16030D01*
X86279Y16041D01*
X86338Y16067D01*
X86400Y16084D01*
X86466Y16125D01*
X86536Y16157D01*
X86585Y16199D01*
X86640Y16232D01*
X86692Y16290D01*
X86750Y16340D01*
X86786Y16394D01*
X86829Y16442D01*
X86862Y16511D01*
X86905Y16576D01*
X86924Y16638D01*
X86952Y16695D01*
X86963Y16765D01*
X86987Y16846D01*
X86988Y16931D01*
X86999Y17000D01*
X86999Y34334D01*
X86993Y34375D01*
X86996Y34417D01*
X86975Y34501D01*
X86959Y34613D01*
X86935Y34667D01*
X86923Y34717D01*
X86877Y34827D01*
X86877Y39173D01*
X86923Y39283D01*
X86934Y39324D01*
X86952Y39361D01*
X86965Y39446D01*
X86993Y39557D01*
X86991Y39615D01*
X86999Y39666D01*
X86999Y59734D01*
X86993Y59775D01*
X86996Y59817D01*
X86975Y59901D01*
X86959Y60013D01*
X86935Y60067D01*
X86923Y60117D01*
X86877Y60227D01*
X86877Y64573D01*
X86923Y64683D01*
X86934Y64724D01*
X86952Y64761D01*
X86965Y64846D01*
X86993Y64957D01*
X86991Y65015D01*
X86999Y65066D01*
X86999Y77586D01*
X114033Y104620D01*
X144158Y104620D01*
X144232Y104637D01*
X144307Y104650D01*
X144317Y104657D01*
X144327Y104659D01*
X144355Y104683D01*
X144427Y104731D01*
X157420Y117725D01*
X157460Y117789D01*
X157504Y117851D01*
X157506Y117863D01*
X157512Y117872D01*
X157515Y117909D01*
X157532Y117994D01*
X157532Y152764D01*
X157526Y152789D01*
X157528Y152814D01*
X157506Y152872D01*
X157492Y152932D01*
X157476Y152952D01*
X157467Y152976D01*
X157421Y153018D01*
X157382Y153066D01*
X157359Y153076D01*
X157340Y153094D01*
X157280Y153112D01*
X157224Y153137D01*
X157198Y153136D01*
X157173Y153143D01*
X157113Y153133D01*
X157051Y153130D01*
X157028Y153118D01*
X157003Y153113D01*
X156931Y153065D01*
X156899Y153047D01*
X156893Y153039D01*
X156883Y153032D01*
X153233Y149382D01*
X150747Y149382D01*
X138382Y161747D01*
X138382Y164233D01*
X149332Y175183D01*
X151437Y175183D01*
X151487Y175194D01*
X151538Y175196D01*
X151570Y175214D01*
X151606Y175222D01*
X151645Y175255D01*
X151690Y175279D01*
X151711Y175309D01*
X151739Y175332D01*
X151760Y175379D01*
X151790Y175421D01*
X151798Y175463D01*
X151810Y175490D01*
X151809Y175521D01*
X151817Y175563D01*
X151817Y177668D01*
X162767Y188618D01*
X165253Y188618D01*
X174731Y179140D01*
X174753Y179126D01*
X174769Y179106D01*
X174826Y179081D01*
X174878Y179049D01*
X174904Y179046D01*
X174928Y179036D01*
X174989Y179038D01*
X175051Y179032D01*
X175075Y179041D01*
X175101Y179042D01*
X175155Y179072D01*
X175213Y179094D01*
X175230Y179113D01*
X175253Y179125D01*
X175288Y179175D01*
X175330Y179221D01*
X175338Y179245D01*
X175353Y179267D01*
X175369Y179351D01*
X175380Y179387D01*
X175378Y179397D01*
X175380Y179409D01*
X175380Y189620D01*
X180023Y189620D01*
X180025Y189620D01*
X180027Y189620D01*
X180169Y189649D01*
X181205Y190078D01*
X198795Y190078D01*
X199831Y189649D01*
X199833Y189648D01*
X199834Y189647D01*
X199977Y189620D01*
X220000Y189620D01*
X220050Y189631D01*
X220101Y189633D01*
X220133Y189651D01*
X220169Y189659D01*
X220208Y189692D01*
X220253Y189716D01*
X220274Y189746D01*
X220302Y189769D01*
X220323Y189816D01*
X220353Y189858D01*
X220361Y189900D01*
X220373Y189928D01*
X220372Y189958D01*
X220380Y190000D01*
X220380Y288638D01*
X220380Y288640D01*
X220380Y288642D01*
X220351Y288784D01*
X218935Y292202D01*
X218935Y357178D01*
X220351Y360596D01*
X220352Y360598D01*
X220353Y360599D01*
X220361Y360640D01*
X220369Y360660D01*
X220369Y360681D01*
X220380Y360742D01*
X220380Y542459D01*
X220369Y542509D01*
X220367Y542560D01*
X220349Y542592D01*
X220341Y542628D01*
X220308Y542667D01*
X220284Y542712D01*
X220254Y542733D01*
X220231Y542761D01*
X220184Y542782D01*
X220142Y542812D01*
X220100Y542820D01*
X220072Y542832D01*
X220042Y542831D01*
X220000Y542839D01*
X69648Y542839D01*
X69623Y542833D01*
X69597Y542836D01*
X69540Y542814D01*
X69480Y542800D01*
X69460Y542783D01*
X69436Y542774D01*
X69394Y542729D01*
X69346Y542690D01*
X69335Y542666D01*
X69318Y542647D01*
X69300Y542588D01*
X69275Y542531D01*
X69276Y542506D01*
X69269Y542481D01*
X69279Y542420D01*
X69282Y542358D01*
X69294Y542336D01*
X69298Y542310D01*
X69347Y542239D01*
X69364Y542206D01*
X69373Y542200D01*
X69379Y542190D01*
X72009Y539561D01*
X77275Y530440D01*
X78148Y527181D01*
X79371Y522618D01*
X80001Y520266D01*
X80001Y509734D01*
X77275Y499560D01*
X72009Y490439D01*
X64731Y483162D01*
X64691Y483097D01*
X64647Y483035D01*
X64645Y483023D01*
X64640Y483014D01*
X64636Y482977D01*
X64620Y482893D01*
X64620Y180380D01*
X45663Y180380D01*
X45625Y180371D01*
X45587Y180373D01*
X45542Y180352D01*
X45494Y180341D01*
X45465Y180316D01*
X45430Y180300D01*
X45399Y180262D01*
X45361Y180231D01*
X45345Y180195D01*
X45321Y180166D01*
X45310Y180118D01*
X45290Y180072D01*
X45291Y180034D01*
X45283Y179996D01*
X45295Y179937D01*
X45296Y179899D01*
X45306Y179881D01*
X45312Y179854D01*
X46501Y176984D01*
X46501Y160937D01*
X46501Y160935D01*
X46501Y160933D01*
X46530Y160792D01*
X48016Y157204D01*
X48016Y135236D01*
X45732Y129723D01*
X41512Y125503D01*
X35999Y123219D01*
X16381Y123219D01*
X16331Y123208D01*
X16280Y123206D01*
X16248Y123188D01*
X16212Y123180D01*
X16173Y123147D01*
X16128Y123123D01*
X16107Y123093D01*
X16079Y123070D01*
X16058Y123023D01*
X16028Y122981D01*
X16020Y122939D01*
X16008Y122911D01*
X16009Y122881D01*
X16001Y122839D01*
X16001Y20000D01*
X16001Y19000D01*
X16011Y18927D01*
X16010Y18871D01*
X16017Y18846D01*
X16019Y18809D01*
X16034Y18766D01*
X16041Y18721D01*
X16070Y18656D01*
X16086Y18599D01*
X16100Y18575D01*
X16112Y18542D01*
X16137Y18508D01*
X16157Y18464D01*
X16201Y18413D01*
X16234Y18359D01*
X16269Y18327D01*
X16293Y18293D01*
X16553Y18034D01*
X16800Y17607D01*
X16826Y17579D01*
X16860Y17528D01*
X17528Y16860D01*
X17560Y16840D01*
X17607Y16800D01*
X18034Y16553D01*
X18293Y16293D01*
X18370Y16236D01*
X18442Y16171D01*
X18483Y16151D01*
X18519Y16124D01*
X18609Y16090D01*
X18695Y16048D01*
X18737Y16042D01*
X18783Y16025D01*
X18911Y16015D01*
X19000Y16001D01*
X20000Y16001D01*
X83376Y16001D01*
X83376Y16001D01*
G37*
G36*
X420460Y114634D02*
X420460Y114634D01*
X420524Y114641D01*
X420544Y114654D01*
X420567Y114659D01*
X420616Y114700D01*
X420670Y114734D01*
X420685Y114756D01*
X420701Y114769D01*
X420716Y114804D01*
X420750Y114855D01*
X421065Y115616D01*
X422069Y116620D01*
X424740Y116620D01*
X424814Y116637D01*
X424889Y116650D01*
X424890Y116651D01*
X430000Y116651D01*
X430050Y116662D01*
X430101Y116664D01*
X430133Y116682D01*
X430169Y116690D01*
X430208Y116723D01*
X430253Y116747D01*
X430274Y116777D01*
X430302Y116800D01*
X430323Y116847D01*
X430353Y116889D01*
X430361Y116931D01*
X430373Y116959D01*
X430372Y116989D01*
X430380Y117031D01*
X430380Y118651D01*
X443593Y118651D01*
X446166Y117585D01*
X447638Y116112D01*
X447703Y116072D01*
X447765Y116028D01*
X447777Y116026D01*
X447786Y116021D01*
X447823Y116017D01*
X447907Y116001D01*
X455591Y116001D01*
X458532Y114783D01*
X458584Y114731D01*
X458648Y114691D01*
X458710Y114647D01*
X458722Y114645D01*
X458731Y114640D01*
X458768Y114636D01*
X458852Y114620D01*
X505422Y114620D01*
X505484Y114634D01*
X505547Y114641D01*
X505568Y114654D01*
X505591Y114659D01*
X505640Y114700D01*
X505694Y114734D01*
X505709Y114756D01*
X505725Y114769D01*
X505740Y114804D01*
X505774Y114855D01*
X506199Y115881D01*
X509119Y118801D01*
X512935Y120382D01*
X527065Y120382D01*
X530263Y119057D01*
X530326Y119047D01*
X530386Y119029D01*
X530410Y119033D01*
X530434Y119029D01*
X530495Y119048D01*
X530557Y119058D01*
X530580Y119074D01*
X530600Y119080D01*
X530627Y119106D01*
X530677Y119140D01*
X598314Y186776D01*
X598354Y186841D01*
X598398Y186903D01*
X598400Y186915D01*
X598405Y186923D01*
X598409Y186960D01*
X598425Y187045D01*
X598425Y189779D01*
X599491Y192352D01*
X600269Y193130D01*
X600309Y193195D01*
X600353Y193257D01*
X600355Y193269D01*
X600360Y193277D01*
X600364Y193314D01*
X600380Y193399D01*
X600380Y197484D01*
X616573Y213677D01*
X616574Y213679D01*
X616576Y213680D01*
X616600Y213716D01*
X616611Y213725D01*
X616621Y213748D01*
X616656Y213800D01*
X618316Y217807D01*
X622193Y221684D01*
X627258Y223783D01*
X628473Y223783D01*
X628535Y223797D01*
X628598Y223804D01*
X628618Y223817D01*
X628641Y223822D01*
X628691Y223863D01*
X628744Y223897D01*
X628759Y223919D01*
X628775Y223932D01*
X628791Y223967D01*
X628824Y224017D01*
X630175Y227278D01*
X650948Y248052D01*
X654624Y249575D01*
X658603Y249575D01*
X659854Y249056D01*
X659892Y249050D01*
X659928Y249034D01*
X659977Y249036D01*
X660025Y249028D01*
X660062Y249039D01*
X660101Y249041D01*
X660144Y249064D01*
X660191Y249079D01*
X660219Y249105D01*
X660253Y249124D01*
X660281Y249164D01*
X660317Y249198D01*
X660330Y249234D01*
X660353Y249265D01*
X660364Y249325D01*
X660377Y249360D01*
X660375Y249381D01*
X660380Y249408D01*
X660380Y475874D01*
X660377Y475887D01*
X660379Y475901D01*
X660358Y475971D01*
X660341Y476043D01*
X660332Y476053D01*
X660328Y476066D01*
X660277Y476120D01*
X660231Y476176D01*
X660218Y476182D01*
X660209Y476192D01*
X660140Y476217D01*
X660072Y476247D01*
X660059Y476247D01*
X660046Y476251D01*
X659902Y476241D01*
X659899Y476241D01*
X655266Y474999D01*
X644734Y474999D01*
X634560Y477725D01*
X625439Y482991D01*
X617991Y490439D01*
X612725Y499560D01*
X610568Y507609D01*
X610568Y507610D01*
X609999Y509734D01*
X609999Y520266D01*
X612725Y530440D01*
X617991Y539561D01*
X620621Y542190D01*
X620634Y542212D01*
X620654Y542228D01*
X620679Y542285D01*
X620712Y542337D01*
X620714Y542363D01*
X620725Y542387D01*
X620723Y542448D01*
X620729Y542510D01*
X620719Y542534D01*
X620718Y542560D01*
X620689Y542614D01*
X620667Y542672D01*
X620648Y542689D01*
X620636Y542712D01*
X620585Y542747D01*
X620540Y542789D01*
X620515Y542797D01*
X620494Y542812D01*
X620409Y542828D01*
X620374Y542839D01*
X620364Y542837D01*
X620352Y542839D01*
X496701Y542839D01*
X496688Y542836D01*
X496675Y542838D01*
X496604Y542817D01*
X496532Y542800D01*
X496522Y542792D01*
X496510Y542788D01*
X496456Y542737D01*
X496398Y542690D01*
X496393Y542678D01*
X496384Y542669D01*
X496358Y542599D01*
X496328Y542531D01*
X496328Y542519D01*
X496324Y542506D01*
X496331Y542432D01*
X496334Y542358D01*
X496340Y542347D01*
X496342Y542334D01*
X496382Y542271D01*
X496417Y542206D01*
X496427Y542199D01*
X496434Y542188D01*
X496555Y542108D01*
X497189Y541845D01*
X502645Y536389D01*
X505599Y529259D01*
X505599Y521541D01*
X502645Y514411D01*
X501203Y512969D01*
X501176Y512926D01*
X501141Y512888D01*
X501131Y512853D01*
X501111Y512822D01*
X501107Y512771D01*
X501092Y512722D01*
X501098Y512686D01*
X501095Y512649D01*
X501113Y512601D01*
X501122Y512551D01*
X501146Y512516D01*
X501157Y512487D01*
X501179Y512466D01*
X501203Y512431D01*
X502645Y510989D01*
X505599Y503859D01*
X505599Y496141D01*
X502645Y489011D01*
X497189Y483555D01*
X490059Y480601D01*
X482341Y480601D01*
X480146Y481511D01*
X480108Y481517D01*
X480072Y481533D01*
X480023Y481531D01*
X479975Y481539D01*
X479938Y481528D01*
X479899Y481526D01*
X479856Y481503D01*
X479809Y481488D01*
X479781Y481462D01*
X479747Y481443D01*
X479719Y481403D01*
X479683Y481369D01*
X479670Y481333D01*
X479647Y481302D01*
X479636Y481242D01*
X479623Y481207D01*
X479625Y481186D01*
X479620Y481160D01*
X479620Y150380D01*
X477762Y150380D01*
X477712Y150369D01*
X477661Y150367D01*
X477629Y150349D01*
X477593Y150341D01*
X477554Y150308D01*
X477509Y150284D01*
X477488Y150254D01*
X477460Y150231D01*
X477439Y150184D01*
X477409Y150142D01*
X477401Y150100D01*
X477389Y150072D01*
X477389Y150057D01*
X477389Y150055D01*
X477389Y150039D01*
X477382Y150000D01*
X477382Y145532D01*
X476258Y142819D01*
X459181Y125742D01*
X456468Y124618D01*
X453586Y124618D01*
X453585Y124618D01*
X453583Y124618D01*
X453441Y124589D01*
X452543Y124217D01*
X447457Y124217D01*
X446559Y124589D01*
X446557Y124590D01*
X446556Y124591D01*
X446414Y124618D01*
X445042Y124618D01*
X445040Y124618D01*
X445038Y124618D01*
X444896Y124589D01*
X443593Y124049D01*
X430380Y124049D01*
X430380Y125669D01*
X430369Y125719D01*
X430367Y125770D01*
X430349Y125802D01*
X430341Y125838D01*
X430308Y125877D01*
X430284Y125922D01*
X430254Y125943D01*
X430231Y125971D01*
X430184Y125992D01*
X430142Y126022D01*
X430100Y126030D01*
X430072Y126042D01*
X430042Y126041D01*
X430000Y126049D01*
X424929Y126049D01*
X421999Y128979D01*
X421999Y132000D01*
X421988Y132050D01*
X421986Y132101D01*
X421968Y132133D01*
X421960Y132169D01*
X421927Y132208D01*
X421903Y132253D01*
X421873Y132274D01*
X421850Y132302D01*
X421803Y132323D01*
X421761Y132353D01*
X421719Y132361D01*
X421691Y132373D01*
X421661Y132372D01*
X421619Y132380D01*
X420380Y132380D01*
X420380Y139362D01*
X421065Y141016D01*
X423034Y142985D01*
X425607Y144051D01*
X427238Y144051D01*
X427288Y144062D01*
X427339Y144064D01*
X427371Y144082D01*
X427407Y144090D01*
X427446Y144123D01*
X427491Y144147D01*
X427512Y144177D01*
X427540Y144200D01*
X427561Y144247D01*
X427591Y144289D01*
X427599Y144331D01*
X427611Y144359D01*
X427610Y144389D01*
X427618Y144431D01*
X427618Y146620D01*
X430000Y146620D01*
X430050Y146631D01*
X430101Y146633D01*
X430133Y146651D01*
X430169Y146659D01*
X430208Y146692D01*
X430253Y146716D01*
X430274Y146746D01*
X430302Y146769D01*
X430323Y146816D01*
X430353Y146858D01*
X430361Y146900D01*
X430373Y146928D01*
X430372Y146958D01*
X430380Y147000D01*
X430380Y187000D01*
X430369Y187050D01*
X430367Y187101D01*
X430349Y187133D01*
X430341Y187169D01*
X430308Y187208D01*
X430284Y187253D01*
X430254Y187274D01*
X430231Y187302D01*
X430184Y187323D01*
X430142Y187353D01*
X430100Y187361D01*
X430072Y187373D01*
X430042Y187372D01*
X430000Y187380D01*
X410000Y187380D01*
X409950Y187369D01*
X409899Y187367D01*
X409867Y187349D01*
X409831Y187341D01*
X409792Y187308D01*
X409747Y187284D01*
X409726Y187254D01*
X409698Y187231D01*
X409677Y187184D01*
X409647Y187142D01*
X409639Y187100D01*
X409627Y187072D01*
X409628Y187042D01*
X409628Y187040D01*
X409627Y187038D01*
X409627Y187036D01*
X409620Y187000D01*
X409620Y117000D01*
X409631Y116950D01*
X409633Y116899D01*
X409651Y116867D01*
X409659Y116831D01*
X409692Y116792D01*
X409716Y116747D01*
X409746Y116726D01*
X409769Y116698D01*
X409816Y116677D01*
X409858Y116647D01*
X409900Y116639D01*
X409928Y116627D01*
X409958Y116628D01*
X410000Y116620D01*
X411065Y116620D01*
X411065Y115000D01*
X411076Y114950D01*
X411078Y114899D01*
X411096Y114867D01*
X411104Y114831D01*
X411137Y114792D01*
X411161Y114747D01*
X411191Y114726D01*
X411214Y114698D01*
X411261Y114677D01*
X411303Y114647D01*
X411345Y114639D01*
X411373Y114627D01*
X411403Y114628D01*
X411445Y114620D01*
X420399Y114620D01*
X420460Y114634D01*
G37*
G36*
X50050Y189631D02*
X50050Y189631D01*
X50101Y189633D01*
X50133Y189651D01*
X50169Y189659D01*
X50208Y189692D01*
X50253Y189716D01*
X50274Y189746D01*
X50302Y189769D01*
X50323Y189816D01*
X50353Y189858D01*
X50361Y189900D01*
X50373Y189928D01*
X50372Y189958D01*
X50380Y190000D01*
X50380Y470000D01*
X50369Y470050D01*
X50367Y470101D01*
X50349Y470133D01*
X50341Y470169D01*
X50308Y470208D01*
X50284Y470253D01*
X50254Y470274D01*
X50231Y470302D01*
X50184Y470323D01*
X50142Y470353D01*
X50100Y470361D01*
X50072Y470373D01*
X50042Y470372D01*
X50000Y470380D01*
X11541Y470380D01*
X11491Y470369D01*
X11440Y470367D01*
X11408Y470349D01*
X11372Y470341D01*
X11333Y470308D01*
X11288Y470284D01*
X11267Y470254D01*
X11239Y470231D01*
X11218Y470184D01*
X11188Y470142D01*
X11180Y470100D01*
X11168Y470072D01*
X11169Y470042D01*
X11161Y470000D01*
X11161Y190000D01*
X11172Y189950D01*
X11174Y189899D01*
X11192Y189867D01*
X11200Y189831D01*
X11233Y189792D01*
X11257Y189747D01*
X11287Y189726D01*
X11310Y189698D01*
X11357Y189677D01*
X11399Y189647D01*
X11441Y189639D01*
X11469Y189627D01*
X11499Y189628D01*
X11541Y189620D01*
X50000Y189620D01*
X50050Y189631D01*
G37*
%LPC*%
G36*
X315266Y291199D02*
X315266Y291199D01*
X306518Y294823D01*
X299823Y301518D01*
X296199Y310266D01*
X296199Y319734D01*
X297386Y322600D01*
X297392Y322633D01*
X297392Y322635D01*
X297392Y322637D01*
X297397Y322663D01*
X297415Y322723D01*
X297410Y322747D01*
X297414Y322771D01*
X297396Y322832D01*
X297385Y322894D01*
X297370Y322916D01*
X297364Y322936D01*
X297338Y322964D01*
X297304Y323014D01*
X296199Y324119D01*
X294618Y327935D01*
X294618Y330817D01*
X294618Y330819D01*
X294618Y330820D01*
X294589Y330962D01*
X294217Y331861D01*
X294217Y334238D01*
X294206Y334288D01*
X294204Y334339D01*
X294186Y334371D01*
X294178Y334407D01*
X294145Y334446D01*
X294121Y334491D01*
X294091Y334512D01*
X294068Y334540D01*
X294021Y334561D01*
X293979Y334591D01*
X293937Y334599D01*
X293909Y334611D01*
X293879Y334610D01*
X293837Y334618D01*
X277935Y334618D01*
X274119Y336199D01*
X271199Y339119D01*
X269618Y342935D01*
X269618Y362105D01*
X269607Y362155D01*
X269605Y362206D01*
X269587Y362238D01*
X269579Y362274D01*
X269546Y362313D01*
X269522Y362358D01*
X269492Y362379D01*
X269469Y362407D01*
X269422Y362428D01*
X269380Y362458D01*
X269338Y362466D01*
X269310Y362478D01*
X269280Y362477D01*
X269238Y362485D01*
X259361Y362485D01*
X255685Y364008D01*
X252872Y366821D01*
X251349Y370497D01*
X251349Y395303D01*
X252872Y398979D01*
X255685Y401792D01*
X259361Y403315D01*
X273475Y403315D01*
X273549Y403332D01*
X273624Y403345D01*
X273634Y403352D01*
X273644Y403354D01*
X273673Y403378D01*
X273744Y403426D01*
X274119Y403801D01*
X277935Y405382D01*
X332065Y405382D01*
X335881Y403801D01*
X338801Y400881D01*
X340382Y397065D01*
X340382Y372935D01*
X340262Y372646D01*
X340256Y372610D01*
X340248Y372592D01*
X340249Y372568D01*
X340233Y372496D01*
X340235Y372484D01*
X340234Y372475D01*
X340245Y372439D01*
X340262Y372354D01*
X340382Y372065D01*
X340382Y343008D01*
X340389Y342975D01*
X340388Y342941D01*
X340412Y342877D01*
X340421Y342839D01*
X340432Y342826D01*
X340440Y342806D01*
X341083Y341780D01*
X341276Y340634D01*
X341290Y340602D01*
X341300Y340552D01*
X341745Y339478D01*
X341745Y337891D01*
X341751Y337864D01*
X341750Y337827D01*
X342014Y336263D01*
X341754Y335130D01*
X341755Y335095D01*
X341745Y335045D01*
X341745Y333882D01*
X341137Y332416D01*
X341133Y332389D01*
X341118Y332356D01*
X341042Y332025D01*
X341043Y331991D01*
X341033Y331940D01*
X341033Y331811D01*
X340956Y331626D01*
X340952Y331599D01*
X340937Y331566D01*
X340763Y330809D01*
X340452Y330371D01*
X340435Y330330D01*
X340409Y330293D01*
X340400Y330243D01*
X340387Y330211D01*
X340388Y330185D01*
X340382Y330151D01*
X340382Y328064D01*
X340382Y328062D01*
X340382Y328061D01*
X340411Y327919D01*
X343801Y319734D01*
X343801Y310266D01*
X340177Y301518D01*
X333482Y294823D01*
X324734Y291199D01*
X315266Y291199D01*
G37*
%LPD*%
%LPC*%
G36*
X525266Y301199D02*
X525266Y301199D01*
X516518Y304823D01*
X509823Y311518D01*
X506199Y320266D01*
X506199Y329734D01*
X508851Y336135D01*
X508861Y336198D01*
X508879Y336259D01*
X508875Y336283D01*
X508879Y336306D01*
X508860Y336367D01*
X508849Y336430D01*
X508834Y336452D01*
X508828Y336472D01*
X508802Y336499D01*
X508768Y336550D01*
X506199Y339119D01*
X504618Y342935D01*
X504618Y362105D01*
X504607Y362155D01*
X504605Y362206D01*
X504587Y362238D01*
X504579Y362274D01*
X504546Y362313D01*
X504522Y362358D01*
X504492Y362379D01*
X504469Y362407D01*
X504422Y362428D01*
X504380Y362458D01*
X504338Y362466D01*
X504310Y362478D01*
X504280Y362477D01*
X504238Y362485D01*
X499361Y362485D01*
X495685Y364008D01*
X492872Y366821D01*
X491349Y370497D01*
X491349Y395303D01*
X492872Y398979D01*
X495685Y401792D01*
X499361Y403315D01*
X508475Y403315D01*
X508549Y403332D01*
X508624Y403345D01*
X508634Y403352D01*
X508644Y403354D01*
X508673Y403378D01*
X508744Y403426D01*
X509119Y403801D01*
X512935Y405382D01*
X567065Y405382D01*
X570881Y403801D01*
X573801Y400881D01*
X575382Y397065D01*
X575382Y372935D01*
X575262Y372646D01*
X575256Y372610D01*
X575248Y372592D01*
X575249Y372568D01*
X575233Y372496D01*
X575235Y372484D01*
X575234Y372475D01*
X575245Y372439D01*
X575262Y372354D01*
X575382Y372065D01*
X575382Y339183D01*
X575382Y339181D01*
X575382Y339180D01*
X575411Y339038D01*
X575783Y338139D01*
X575783Y331861D01*
X575411Y330962D01*
X575410Y330961D01*
X575409Y330959D01*
X575382Y330817D01*
X575382Y327935D01*
X573801Y324119D01*
X570881Y321199D01*
X567065Y319618D01*
X564183Y319618D01*
X564181Y319618D01*
X564180Y319618D01*
X564038Y319589D01*
X563139Y319217D01*
X556861Y319217D01*
X555962Y319589D01*
X555961Y319590D01*
X555959Y319591D01*
X555817Y319618D01*
X553787Y319618D01*
X553725Y319604D01*
X553662Y319597D01*
X553641Y319584D01*
X553618Y319579D01*
X553569Y319538D01*
X553515Y319504D01*
X553500Y319482D01*
X553484Y319469D01*
X553469Y319434D01*
X553435Y319384D01*
X550177Y311518D01*
X543482Y304823D01*
X534734Y301199D01*
X525266Y301199D01*
G37*
%LPD*%
%LPC*%
G36*
X542457Y182217D02*
X542457Y182217D01*
X541559Y182589D01*
X541557Y182590D01*
X541556Y182591D01*
X541414Y182618D01*
X540380Y182618D01*
X540380Y184238D01*
X540369Y184288D01*
X540367Y184339D01*
X540349Y184371D01*
X540341Y184407D01*
X540308Y184446D01*
X540284Y184491D01*
X540254Y184512D01*
X540231Y184540D01*
X540184Y184561D01*
X540142Y184591D01*
X540100Y184599D01*
X540072Y184611D01*
X540042Y184610D01*
X540000Y184618D01*
X537771Y184618D01*
X534618Y187771D01*
X534618Y191811D01*
X534618Y191813D01*
X534618Y191815D01*
X534589Y191957D01*
X534217Y192855D01*
X534217Y197145D01*
X534589Y198043D01*
X534590Y198045D01*
X534591Y198046D01*
X534598Y198087D01*
X534607Y198106D01*
X534606Y198127D01*
X534618Y198189D01*
X534618Y199238D01*
X534607Y199288D01*
X534605Y199339D01*
X534587Y199371D01*
X534579Y199407D01*
X534546Y199446D01*
X534522Y199491D01*
X534492Y199512D01*
X534469Y199540D01*
X534422Y199561D01*
X534380Y199591D01*
X534338Y199599D01*
X534310Y199611D01*
X534280Y199610D01*
X534238Y199618D01*
X512771Y199618D01*
X512120Y200269D01*
X512056Y200309D01*
X511994Y200353D01*
X511982Y200355D01*
X511973Y200360D01*
X511936Y200364D01*
X511851Y200380D01*
X505676Y200380D01*
X504618Y202935D01*
X504618Y222105D01*
X504607Y222155D01*
X504605Y222206D01*
X504587Y222238D01*
X504579Y222274D01*
X504546Y222313D01*
X504522Y222358D01*
X504492Y222379D01*
X504469Y222407D01*
X504422Y222428D01*
X504380Y222458D01*
X504338Y222466D01*
X504310Y222478D01*
X504280Y222477D01*
X504238Y222485D01*
X499361Y222485D01*
X495685Y224008D01*
X492872Y226821D01*
X491349Y230497D01*
X491349Y255303D01*
X492872Y258979D01*
X495685Y261792D01*
X499361Y263315D01*
X508475Y263315D01*
X508549Y263332D01*
X508624Y263345D01*
X508634Y263352D01*
X508644Y263354D01*
X508673Y263378D01*
X508744Y263426D01*
X509119Y263801D01*
X512935Y265382D01*
X539620Y265382D01*
X539620Y262762D01*
X539631Y262712D01*
X539633Y262661D01*
X539651Y262629D01*
X539659Y262593D01*
X539692Y262554D01*
X539716Y262509D01*
X539746Y262488D01*
X539769Y262460D01*
X539816Y262439D01*
X539858Y262409D01*
X539900Y262401D01*
X539928Y262389D01*
X539958Y262390D01*
X540000Y262382D01*
X566468Y262382D01*
X569181Y261258D01*
X571258Y259181D01*
X572382Y256468D01*
X572382Y233532D01*
X572015Y232646D01*
X572007Y232599D01*
X571994Y232570D01*
X571995Y232538D01*
X571986Y232496D01*
X571988Y232484D01*
X571987Y232475D01*
X571997Y232439D01*
X571999Y232431D01*
X572000Y232397D01*
X572009Y232380D01*
X572015Y232354D01*
X572382Y231468D01*
X572382Y198586D01*
X572382Y198585D01*
X572382Y198583D01*
X572411Y198441D01*
X572783Y197543D01*
X572783Y192457D01*
X572411Y191559D01*
X572410Y191557D01*
X572409Y191556D01*
X572402Y191516D01*
X572396Y191503D01*
X572396Y191488D01*
X572382Y191414D01*
X572382Y188532D01*
X571258Y185819D01*
X569181Y183742D01*
X566468Y182618D01*
X563586Y182618D01*
X563585Y182618D01*
X563583Y182618D01*
X563441Y182589D01*
X562543Y182217D01*
X557457Y182217D01*
X556559Y182589D01*
X556557Y182590D01*
X556556Y182591D01*
X556414Y182618D01*
X548586Y182618D01*
X548585Y182618D01*
X548583Y182618D01*
X548441Y182589D01*
X547543Y182217D01*
X542457Y182217D01*
G37*
%LPD*%
G36*
X300050Y159631D02*
X300050Y159631D01*
X300101Y159633D01*
X300133Y159651D01*
X300169Y159659D01*
X300208Y159692D01*
X300253Y159716D01*
X300274Y159746D01*
X300302Y159769D01*
X300323Y159816D01*
X300353Y159858D01*
X300361Y159900D01*
X300373Y159928D01*
X300372Y159958D01*
X300380Y160000D01*
X300380Y164620D01*
X302884Y164620D01*
X302934Y164631D01*
X302985Y164633D01*
X303017Y164651D01*
X303053Y164659D01*
X303092Y164692D01*
X303137Y164716D01*
X303158Y164746D01*
X303186Y164769D01*
X303207Y164816D01*
X303237Y164858D01*
X303245Y164900D01*
X303257Y164928D01*
X303256Y164958D01*
X303264Y165000D01*
X303264Y170752D01*
X304753Y172241D01*
X330000Y172241D01*
X330050Y172252D01*
X330101Y172254D01*
X330133Y172272D01*
X330169Y172280D01*
X330208Y172313D01*
X330253Y172337D01*
X330274Y172367D01*
X330302Y172390D01*
X330323Y172437D01*
X330353Y172479D01*
X330361Y172521D01*
X330373Y172549D01*
X330372Y172579D01*
X330380Y172621D01*
X330380Y230000D01*
X330369Y230050D01*
X330367Y230101D01*
X330349Y230133D01*
X330341Y230169D01*
X330308Y230208D01*
X330284Y230253D01*
X330254Y230274D01*
X330231Y230302D01*
X330184Y230323D01*
X330142Y230353D01*
X330100Y230361D01*
X330072Y230373D01*
X330042Y230372D01*
X330000Y230380D01*
X305000Y230380D01*
X304950Y230369D01*
X304899Y230367D01*
X304867Y230349D01*
X304831Y230341D01*
X304792Y230308D01*
X304747Y230284D01*
X304726Y230254D01*
X304698Y230231D01*
X304677Y230184D01*
X304647Y230142D01*
X304639Y230100D01*
X304627Y230072D01*
X304628Y230042D01*
X304620Y230000D01*
X304620Y200380D01*
X285000Y200380D01*
X284950Y200369D01*
X284899Y200367D01*
X284867Y200349D01*
X284831Y200341D01*
X284792Y200308D01*
X284747Y200284D01*
X284726Y200254D01*
X284698Y200231D01*
X284677Y200184D01*
X284647Y200142D01*
X284639Y200100D01*
X284627Y200072D01*
X284628Y200042D01*
X284620Y200000D01*
X284620Y160000D01*
X284631Y159950D01*
X284633Y159899D01*
X284651Y159867D01*
X284659Y159831D01*
X284692Y159792D01*
X284716Y159747D01*
X284746Y159726D01*
X284769Y159698D01*
X284816Y159677D01*
X284858Y159647D01*
X284900Y159639D01*
X284928Y159627D01*
X284958Y159628D01*
X285000Y159620D01*
X300000Y159620D01*
X300050Y159631D01*
G37*
G36*
X535050Y344631D02*
X535050Y344631D01*
X535101Y344633D01*
X535133Y344651D01*
X535169Y344659D01*
X535208Y344692D01*
X535253Y344716D01*
X535274Y344746D01*
X535302Y344769D01*
X535323Y344816D01*
X535353Y344858D01*
X535361Y344900D01*
X535373Y344928D01*
X535372Y344958D01*
X535380Y345000D01*
X535380Y374620D01*
X565000Y374620D01*
X565050Y374631D01*
X565101Y374633D01*
X565133Y374651D01*
X565169Y374659D01*
X565208Y374692D01*
X565253Y374716D01*
X565274Y374746D01*
X565302Y374769D01*
X565323Y374816D01*
X565353Y374858D01*
X565361Y374900D01*
X565373Y374928D01*
X565372Y374958D01*
X565380Y375000D01*
X565380Y395000D01*
X565369Y395050D01*
X565367Y395101D01*
X565349Y395133D01*
X565341Y395169D01*
X565308Y395208D01*
X565284Y395253D01*
X565254Y395274D01*
X565231Y395302D01*
X565184Y395323D01*
X565142Y395353D01*
X565100Y395361D01*
X565072Y395373D01*
X565042Y395372D01*
X565000Y395380D01*
X515000Y395380D01*
X514950Y395369D01*
X514899Y395367D01*
X514867Y395349D01*
X514831Y395341D01*
X514792Y395308D01*
X514747Y395284D01*
X514726Y395254D01*
X514698Y395231D01*
X514677Y395184D01*
X514647Y395142D01*
X514639Y395100D01*
X514627Y395072D01*
X514628Y395042D01*
X514620Y395000D01*
X514620Y345000D01*
X514631Y344950D01*
X514633Y344899D01*
X514651Y344867D01*
X514659Y344831D01*
X514692Y344792D01*
X514716Y344747D01*
X514746Y344726D01*
X514769Y344698D01*
X514816Y344677D01*
X514858Y344647D01*
X514900Y344639D01*
X514928Y344627D01*
X514958Y344628D01*
X515000Y344620D01*
X535000Y344620D01*
X535050Y344631D01*
G37*
G36*
X300050Y344631D02*
X300050Y344631D01*
X300101Y344633D01*
X300133Y344651D01*
X300169Y344659D01*
X300208Y344692D01*
X300253Y344716D01*
X300274Y344746D01*
X300302Y344769D01*
X300323Y344816D01*
X300353Y344858D01*
X300361Y344900D01*
X300373Y344928D01*
X300372Y344958D01*
X300380Y345000D01*
X300380Y374620D01*
X330000Y374620D01*
X330050Y374631D01*
X330101Y374633D01*
X330133Y374651D01*
X330169Y374659D01*
X330208Y374692D01*
X330253Y374716D01*
X330274Y374746D01*
X330302Y374769D01*
X330323Y374816D01*
X330353Y374858D01*
X330361Y374900D01*
X330373Y374928D01*
X330372Y374958D01*
X330380Y375000D01*
X330380Y395000D01*
X330369Y395050D01*
X330367Y395101D01*
X330349Y395133D01*
X330341Y395169D01*
X330308Y395208D01*
X330284Y395253D01*
X330254Y395274D01*
X330231Y395302D01*
X330184Y395323D01*
X330142Y395353D01*
X330100Y395361D01*
X330072Y395373D01*
X330042Y395372D01*
X330000Y395380D01*
X280000Y395380D01*
X279950Y395369D01*
X279899Y395367D01*
X279867Y395349D01*
X279831Y395341D01*
X279792Y395308D01*
X279747Y395284D01*
X279726Y395254D01*
X279698Y395231D01*
X279677Y395184D01*
X279647Y395142D01*
X279639Y395100D01*
X279627Y395072D01*
X279628Y395042D01*
X279620Y395000D01*
X279620Y345000D01*
X279631Y344950D01*
X279633Y344899D01*
X279651Y344867D01*
X279659Y344831D01*
X279692Y344792D01*
X279716Y344747D01*
X279746Y344726D01*
X279769Y344698D01*
X279816Y344677D01*
X279858Y344647D01*
X279900Y344639D01*
X279928Y344627D01*
X279958Y344628D01*
X280000Y344620D01*
X300000Y344620D01*
X300050Y344631D01*
G37*
G36*
X535050Y204631D02*
X535050Y204631D01*
X535101Y204633D01*
X535133Y204651D01*
X535169Y204659D01*
X535208Y204692D01*
X535253Y204716D01*
X535274Y204746D01*
X535302Y204769D01*
X535323Y204816D01*
X535353Y204858D01*
X535361Y204900D01*
X535373Y204928D01*
X535372Y204958D01*
X535380Y205000D01*
X535380Y234620D01*
X565000Y234620D01*
X565050Y234631D01*
X565101Y234633D01*
X565133Y234651D01*
X565169Y234659D01*
X565208Y234692D01*
X565253Y234716D01*
X565274Y234746D01*
X565302Y234769D01*
X565323Y234816D01*
X565353Y234858D01*
X565361Y234900D01*
X565373Y234928D01*
X565372Y234958D01*
X565380Y235000D01*
X565380Y255000D01*
X565369Y255050D01*
X565367Y255101D01*
X565349Y255133D01*
X565341Y255169D01*
X565308Y255208D01*
X565284Y255253D01*
X565254Y255274D01*
X565231Y255302D01*
X565184Y255323D01*
X565142Y255353D01*
X565100Y255361D01*
X565072Y255373D01*
X565042Y255372D01*
X565000Y255380D01*
X515000Y255380D01*
X514950Y255369D01*
X514899Y255367D01*
X514867Y255349D01*
X514831Y255341D01*
X514792Y255308D01*
X514747Y255284D01*
X514726Y255254D01*
X514698Y255231D01*
X514677Y255184D01*
X514647Y255142D01*
X514639Y255100D01*
X514627Y255072D01*
X514628Y255042D01*
X514620Y255000D01*
X514620Y205000D01*
X514631Y204950D01*
X514633Y204899D01*
X514651Y204867D01*
X514659Y204831D01*
X514692Y204792D01*
X514716Y204747D01*
X514746Y204726D01*
X514769Y204698D01*
X514816Y204677D01*
X514858Y204647D01*
X514900Y204639D01*
X514928Y204627D01*
X514958Y204628D01*
X515000Y204620D01*
X535000Y204620D01*
X535050Y204631D01*
G37*
G36*
X300050Y204631D02*
X300050Y204631D01*
X300101Y204633D01*
X300133Y204651D01*
X300169Y204659D01*
X300208Y204692D01*
X300253Y204716D01*
X300274Y204746D01*
X300302Y204769D01*
X300323Y204816D01*
X300353Y204858D01*
X300361Y204900D01*
X300373Y204928D01*
X300372Y204958D01*
X300380Y205000D01*
X300380Y234620D01*
X330000Y234620D01*
X330050Y234631D01*
X330101Y234633D01*
X330133Y234651D01*
X330169Y234659D01*
X330208Y234692D01*
X330253Y234716D01*
X330274Y234746D01*
X330302Y234769D01*
X330323Y234816D01*
X330353Y234858D01*
X330361Y234900D01*
X330373Y234928D01*
X330372Y234958D01*
X330380Y235000D01*
X330380Y255000D01*
X330369Y255050D01*
X330367Y255101D01*
X330349Y255133D01*
X330341Y255169D01*
X330308Y255208D01*
X330284Y255253D01*
X330254Y255274D01*
X330231Y255302D01*
X330184Y255323D01*
X330142Y255353D01*
X330100Y255361D01*
X330072Y255373D01*
X330042Y255372D01*
X330000Y255380D01*
X280000Y255380D01*
X279950Y255369D01*
X279899Y255367D01*
X279867Y255349D01*
X279831Y255341D01*
X279792Y255308D01*
X279747Y255284D01*
X279726Y255254D01*
X279698Y255231D01*
X279677Y255184D01*
X279647Y255142D01*
X279639Y255100D01*
X279627Y255072D01*
X279628Y255042D01*
X279620Y255000D01*
X279620Y208038D01*
X279632Y207988D01*
X279633Y207941D01*
X279645Y207920D01*
X279650Y207889D01*
X279657Y207879D01*
X279659Y207870D01*
X279683Y207841D01*
X279709Y207802D01*
X279716Y207789D01*
X279719Y207787D01*
X279731Y207769D01*
X280599Y206901D01*
X281447Y204854D01*
X281484Y204803D01*
X281514Y204747D01*
X281534Y204733D01*
X281548Y204714D01*
X281604Y204684D01*
X281656Y204647D01*
X281683Y204642D01*
X281701Y204632D01*
X281739Y204631D01*
X281798Y204620D01*
X300000Y204620D01*
X300050Y204631D01*
G37*
G36*
X565050Y329631D02*
X565050Y329631D01*
X565101Y329633D01*
X565133Y329651D01*
X565169Y329659D01*
X565208Y329692D01*
X565253Y329716D01*
X565274Y329746D01*
X565302Y329769D01*
X565323Y329816D01*
X565353Y329858D01*
X565361Y329900D01*
X565373Y329928D01*
X565372Y329958D01*
X565380Y330000D01*
X565380Y370000D01*
X565369Y370050D01*
X565367Y370101D01*
X565349Y370133D01*
X565341Y370169D01*
X565308Y370208D01*
X565284Y370253D01*
X565254Y370274D01*
X565231Y370302D01*
X565184Y370323D01*
X565142Y370353D01*
X565100Y370361D01*
X565072Y370373D01*
X565042Y370372D01*
X565000Y370380D01*
X541095Y370380D01*
X541021Y370363D01*
X540946Y370350D01*
X540936Y370343D01*
X540926Y370341D01*
X540897Y370317D01*
X540826Y370269D01*
X540502Y369945D01*
X540000Y369945D01*
X539950Y369934D01*
X539899Y369932D01*
X539867Y369914D01*
X539831Y369906D01*
X539792Y369873D01*
X539747Y369849D01*
X539726Y369819D01*
X539698Y369796D01*
X539677Y369749D01*
X539647Y369707D01*
X539639Y369665D01*
X539627Y369637D01*
X539627Y369620D01*
X539627Y369618D01*
X539627Y369604D01*
X539620Y369565D01*
X539620Y365746D01*
X539634Y365685D01*
X539636Y365643D01*
X539645Y365625D01*
X539650Y365597D01*
X539657Y365587D01*
X539659Y365577D01*
X539683Y365548D01*
X539704Y365517D01*
X539718Y365491D01*
X539725Y365486D01*
X539731Y365477D01*
X539761Y365447D01*
X539761Y345313D01*
X539731Y345283D01*
X539691Y345218D01*
X539647Y345156D01*
X539645Y345144D01*
X539640Y345136D01*
X539636Y345099D01*
X539620Y345014D01*
X539620Y330000D01*
X539631Y329950D01*
X539633Y329899D01*
X539651Y329867D01*
X539659Y329831D01*
X539692Y329792D01*
X539716Y329747D01*
X539746Y329726D01*
X539769Y329698D01*
X539816Y329677D01*
X539858Y329647D01*
X539900Y329639D01*
X539928Y329627D01*
X539958Y329628D01*
X540000Y329620D01*
X565000Y329620D01*
X565050Y329631D01*
G37*
G36*
X565050Y189631D02*
X565050Y189631D01*
X565101Y189633D01*
X565133Y189651D01*
X565169Y189659D01*
X565208Y189692D01*
X565253Y189716D01*
X565274Y189746D01*
X565302Y189769D01*
X565323Y189816D01*
X565353Y189858D01*
X565361Y189900D01*
X565373Y189928D01*
X565372Y189958D01*
X565380Y190000D01*
X565380Y230000D01*
X565369Y230050D01*
X565367Y230101D01*
X565349Y230133D01*
X565341Y230169D01*
X565308Y230208D01*
X565284Y230253D01*
X565254Y230274D01*
X565231Y230302D01*
X565184Y230323D01*
X565142Y230353D01*
X565100Y230361D01*
X565072Y230373D01*
X565042Y230372D01*
X565000Y230380D01*
X541095Y230380D01*
X541021Y230363D01*
X540946Y230350D01*
X540936Y230343D01*
X540926Y230341D01*
X540897Y230317D01*
X540826Y230269D01*
X540502Y229945D01*
X540000Y229945D01*
X539950Y229934D01*
X539899Y229932D01*
X539867Y229914D01*
X539831Y229906D01*
X539792Y229873D01*
X539747Y229849D01*
X539726Y229819D01*
X539698Y229796D01*
X539677Y229749D01*
X539647Y229707D01*
X539639Y229665D01*
X539627Y229637D01*
X539627Y229620D01*
X539627Y229618D01*
X539627Y229604D01*
X539620Y229565D01*
X539620Y226746D01*
X539637Y226672D01*
X539650Y226597D01*
X539657Y226587D01*
X539659Y226577D01*
X539683Y226548D01*
X539731Y226477D01*
X539761Y226447D01*
X539761Y206313D01*
X539731Y206283D01*
X539691Y206218D01*
X539647Y206156D01*
X539645Y206144D01*
X539640Y206136D01*
X539636Y206099D01*
X539620Y206014D01*
X539620Y190000D01*
X539631Y189950D01*
X539633Y189899D01*
X539651Y189867D01*
X539659Y189831D01*
X539692Y189792D01*
X539716Y189747D01*
X539746Y189726D01*
X539769Y189698D01*
X539816Y189677D01*
X539858Y189647D01*
X539900Y189639D01*
X539928Y189627D01*
X539958Y189628D01*
X540000Y189620D01*
X565000Y189620D01*
X565050Y189631D01*
G37*
G36*
X330050Y329631D02*
X330050Y329631D01*
X330101Y329633D01*
X330133Y329651D01*
X330169Y329659D01*
X330208Y329692D01*
X330253Y329716D01*
X330274Y329746D01*
X330302Y329769D01*
X330323Y329816D01*
X330353Y329858D01*
X330361Y329900D01*
X330373Y329928D01*
X330372Y329958D01*
X330380Y330000D01*
X330380Y370000D01*
X330369Y370050D01*
X330367Y370101D01*
X330349Y370133D01*
X330341Y370169D01*
X330308Y370208D01*
X330284Y370253D01*
X330254Y370274D01*
X330231Y370302D01*
X330184Y370323D01*
X330142Y370353D01*
X330100Y370361D01*
X330072Y370373D01*
X330042Y370372D01*
X330000Y370380D01*
X305000Y370380D01*
X304950Y370369D01*
X304899Y370367D01*
X304867Y370349D01*
X304831Y370341D01*
X304792Y370308D01*
X304747Y370284D01*
X304726Y370254D01*
X304698Y370231D01*
X304677Y370184D01*
X304647Y370142D01*
X304639Y370100D01*
X304627Y370072D01*
X304628Y370042D01*
X304620Y370000D01*
X304620Y364886D01*
X304637Y364812D01*
X304650Y364737D01*
X304657Y364727D01*
X304659Y364717D01*
X304683Y364688D01*
X304731Y364617D01*
X304901Y364447D01*
X304901Y344313D01*
X304731Y344143D01*
X304691Y344078D01*
X304647Y344016D01*
X304645Y344004D01*
X304640Y343996D01*
X304636Y343959D01*
X304620Y343874D01*
X304620Y330000D01*
X304631Y329950D01*
X304633Y329899D01*
X304651Y329867D01*
X304659Y329831D01*
X304692Y329792D01*
X304716Y329747D01*
X304746Y329726D01*
X304769Y329698D01*
X304816Y329677D01*
X304858Y329647D01*
X304900Y329639D01*
X304928Y329627D01*
X304958Y329628D01*
X305000Y329620D01*
X330000Y329620D01*
X330050Y329631D01*
G37*
G36*
X455074Y131637D02*
X455074Y131637D01*
X455149Y131650D01*
X455159Y131657D01*
X455169Y131659D01*
X455198Y131683D01*
X455269Y131731D01*
X470269Y146731D01*
X470309Y146796D01*
X470353Y146858D01*
X470355Y146870D01*
X470360Y146878D01*
X470364Y146915D01*
X470380Y147000D01*
X470380Y152000D01*
X470369Y152050D01*
X470367Y152101D01*
X470349Y152133D01*
X470341Y152169D01*
X470308Y152208D01*
X470284Y152253D01*
X470254Y152274D01*
X470231Y152302D01*
X470184Y152323D01*
X470142Y152353D01*
X470100Y152361D01*
X470072Y152373D01*
X470042Y152372D01*
X470000Y152380D01*
X435000Y152380D01*
X434950Y152369D01*
X434899Y152367D01*
X434867Y152349D01*
X434831Y152341D01*
X434792Y152308D01*
X434747Y152284D01*
X434726Y152254D01*
X434698Y152231D01*
X434677Y152184D01*
X434647Y152142D01*
X434639Y152100D01*
X434627Y152072D01*
X434628Y152042D01*
X434620Y152000D01*
X434620Y132000D01*
X434631Y131950D01*
X434633Y131899D01*
X434651Y131867D01*
X434659Y131831D01*
X434692Y131792D01*
X434716Y131747D01*
X434746Y131726D01*
X434769Y131698D01*
X434816Y131677D01*
X434858Y131647D01*
X434900Y131639D01*
X434928Y131627D01*
X434958Y131628D01*
X435000Y131620D01*
X455000Y131620D01*
X455074Y131637D01*
G37*
G36*
X525050Y84631D02*
X525050Y84631D01*
X525101Y84633D01*
X525133Y84651D01*
X525169Y84659D01*
X525208Y84692D01*
X525253Y84716D01*
X525274Y84746D01*
X525302Y84769D01*
X525323Y84816D01*
X525353Y84858D01*
X525361Y84900D01*
X525373Y84928D01*
X525372Y84958D01*
X525380Y85000D01*
X525380Y110000D01*
X525369Y110050D01*
X525367Y110101D01*
X525349Y110133D01*
X525341Y110169D01*
X525308Y110208D01*
X525284Y110253D01*
X525254Y110274D01*
X525231Y110302D01*
X525184Y110323D01*
X525142Y110353D01*
X525100Y110361D01*
X525072Y110373D01*
X525042Y110372D01*
X525000Y110380D01*
X515000Y110380D01*
X514950Y110369D01*
X514899Y110367D01*
X514867Y110349D01*
X514831Y110341D01*
X514792Y110308D01*
X514747Y110284D01*
X514726Y110254D01*
X514698Y110231D01*
X514677Y110184D01*
X514647Y110142D01*
X514639Y110100D01*
X514627Y110072D01*
X514628Y110042D01*
X514620Y110000D01*
X514620Y89271D01*
X514634Y89210D01*
X514641Y89146D01*
X514654Y89126D01*
X514659Y89103D01*
X514700Y89054D01*
X514734Y89000D01*
X514756Y88985D01*
X514769Y88969D01*
X514804Y88954D01*
X514855Y88920D01*
X515885Y88493D01*
X518698Y85680D01*
X519040Y84855D01*
X519077Y84803D01*
X519107Y84747D01*
X519127Y84733D01*
X519141Y84714D01*
X519197Y84684D01*
X519249Y84647D01*
X519276Y84642D01*
X519294Y84632D01*
X519332Y84631D01*
X519391Y84620D01*
X525000Y84620D01*
X525050Y84631D01*
G37*
G36*
X369185Y103508D02*
X369185Y103508D01*
X369260Y103521D01*
X369270Y103528D01*
X369280Y103530D01*
X369309Y103554D01*
X369380Y103602D01*
X369729Y103951D01*
X370000Y103951D01*
X370050Y103962D01*
X370101Y103964D01*
X370133Y103982D01*
X370169Y103990D01*
X370208Y104023D01*
X370253Y104047D01*
X370274Y104077D01*
X370302Y104100D01*
X370323Y104147D01*
X370353Y104189D01*
X370361Y104231D01*
X370373Y104259D01*
X370372Y104289D01*
X370380Y104331D01*
X370380Y112969D01*
X370369Y113019D01*
X370367Y113070D01*
X370349Y113102D01*
X370341Y113138D01*
X370308Y113177D01*
X370284Y113222D01*
X370254Y113243D01*
X370231Y113271D01*
X370184Y113292D01*
X370142Y113322D01*
X370100Y113330D01*
X370072Y113342D01*
X370042Y113341D01*
X370000Y113349D01*
X369729Y113349D01*
X369380Y113698D01*
X369315Y113738D01*
X369253Y113782D01*
X369241Y113784D01*
X369233Y113789D01*
X369196Y113793D01*
X369111Y113809D01*
X350039Y113809D01*
X349965Y113792D01*
X349890Y113779D01*
X349880Y113772D01*
X349870Y113770D01*
X349841Y113746D01*
X349770Y113698D01*
X349071Y112999D01*
X345000Y112999D01*
X344950Y112988D01*
X344899Y112986D01*
X344867Y112968D01*
X344831Y112960D01*
X344792Y112927D01*
X344747Y112903D01*
X344726Y112873D01*
X344698Y112850D01*
X344677Y112803D01*
X344647Y112761D01*
X344639Y112719D01*
X344627Y112691D01*
X344627Y112689D01*
X344628Y112661D01*
X344620Y112619D01*
X344620Y103871D01*
X344631Y103821D01*
X344633Y103770D01*
X344651Y103738D01*
X344659Y103702D01*
X344692Y103663D01*
X344716Y103618D01*
X344746Y103597D01*
X344769Y103569D01*
X344816Y103548D01*
X344858Y103518D01*
X344900Y103510D01*
X344928Y103498D01*
X344958Y103499D01*
X345000Y103491D01*
X369111Y103491D01*
X369185Y103508D01*
G37*
D10*
X393000Y182000D03*
X421000Y182000D03*
X393000Y159000D03*
X421000Y159000D03*
D11*
X330000Y88500D03*
X330000Y127500D03*
D12*
X379400Y108650D03*
X379400Y121350D03*
X379400Y134050D03*
X379400Y95950D03*
X434600Y108650D03*
X434600Y121350D03*
X434600Y134050D03*
X434600Y95950D03*
D13*
X318505Y157000D03*
X365495Y157000D03*
D14*
G36*
X537564Y87188D02*
X545446Y95070D01*
X555070Y85446D01*
X547188Y77564D01*
X537564Y87188D01*
G37*
G36*
X514930Y64554D02*
X522812Y72436D01*
X532436Y62812D01*
X524554Y54930D01*
X514930Y64554D01*
G37*
G36*
X557564Y67188D02*
X565446Y75070D01*
X575070Y65446D01*
X567188Y57564D01*
X557564Y67188D01*
G37*
G36*
X534930Y44554D02*
X542812Y52436D01*
X552436Y42812D01*
X544554Y34930D01*
X534930Y44554D01*
G37*
D15*
X520400Y242900D03*
X520400Y293700D03*
D16*
X406100Y268300D03*
D17*
X553000Y216840D03*
X553000Y245280D03*
D18*
X500780Y216380D03*
X529220Y216380D03*
D15*
X520400Y382900D03*
X520400Y433700D03*
D16*
X406100Y408300D03*
D17*
X553000Y355840D03*
X553000Y384280D03*
D18*
X500780Y355380D03*
X529220Y355380D03*
D14*
X260996Y165000D03*
X293004Y165000D03*
X260996Y140000D03*
X293004Y140000D03*
D15*
X280400Y242900D03*
X280400Y293700D03*
D16*
X166100Y268300D03*
D17*
X315680Y213840D03*
X315680Y242280D03*
D18*
X264780Y213380D03*
X293220Y213380D03*
D15*
X280400Y382900D03*
X280400Y433700D03*
D16*
X166100Y408300D03*
D17*
X317680Y354840D03*
X317680Y383280D03*
D18*
X265920Y354380D03*
X294360Y354380D03*
D19*
X87000Y369000D03*
X36000Y369000D03*
X87000Y433000D03*
X36000Y433000D03*
X87000Y305000D03*
X36000Y305000D03*
X87000Y241000D03*
X36000Y241000D03*
D20*
X215000Y101004D03*
X215000Y68996D03*
X190000Y124504D03*
X190000Y92496D03*
X190000Y174504D03*
X190000Y142496D03*
D13*
X221000Y130505D03*
X221000Y177495D03*
D14*
G36*
X617564Y147188D02*
X625446Y155070D01*
X635070Y145446D01*
X627188Y137564D01*
X617564Y147188D01*
G37*
G36*
X594930Y124554D02*
X602812Y132436D01*
X612436Y122812D01*
X604554Y114930D01*
X594930Y124554D01*
G37*
G36*
X592564Y167188D02*
X600446Y175070D01*
X610070Y165446D01*
X602188Y157564D01*
X592564Y167188D01*
G37*
G36*
X569930Y144554D02*
X577812Y152436D01*
X587436Y142812D01*
X579554Y134930D01*
X569930Y144554D01*
G37*
G36*
X652564Y182188D02*
X660446Y190070D01*
X670070Y180446D01*
X662188Y172564D01*
X652564Y182188D01*
G37*
G36*
X629930Y159554D02*
X637812Y167436D01*
X647436Y157812D01*
X639554Y149930D01*
X629930Y159554D01*
G37*
D21*
G36*
X638653Y221613D02*
X656613Y239573D01*
X674573Y221613D01*
X656613Y203653D01*
X638653Y221613D01*
G37*
G36*
X641347Y188387D02*
X623387Y170427D01*
X605427Y188387D01*
X623387Y206347D01*
X641347Y188387D01*
G37*
D13*
X413495Y50000D03*
X366505Y50000D03*
D17*
X24000Y117780D03*
X24000Y146220D03*
D18*
X473780Y71000D03*
X502220Y71000D03*
D22*
X24000Y201500D03*
X24000Y166500D03*
X505500Y50000D03*
X470500Y50000D03*
D23*
X320000Y315000D03*
X530000Y325000D03*
X556000Y458000D03*
X652000Y121000D03*
D24*
X47000Y37000D03*
X47000Y62400D03*
X72400Y37000D03*
X72400Y62400D03*
X97800Y37000D03*
X97800Y62400D03*
X123200Y37000D03*
X123200Y62400D03*
X148600Y37000D03*
X148600Y62400D03*
X174000Y37000D03*
X174000Y62400D03*
X410000Y500000D03*
X410000Y525400D03*
X435400Y500000D03*
X435400Y525400D03*
X460800Y500000D03*
X460800Y525400D03*
X486200Y500000D03*
X486200Y525400D03*
X511600Y500000D03*
X511600Y525400D03*
X537000Y500000D03*
X537000Y525400D03*
D25*
G36*
X161181Y161575D02*
X151989Y152383D01*
X141383Y162989D01*
X150575Y172181D01*
X161181Y161575D01*
G37*
G36*
X174617Y175011D02*
X165425Y165819D01*
X154819Y176425D01*
X164011Y185617D01*
X174617Y175011D01*
G37*
D26*
X650000Y40000D03*
X40000Y515000D03*
X650000Y515000D03*
D14*
X263996Y50000D03*
X296004Y50000D03*
D20*
X290000Y101004D03*
X290000Y68996D03*
X265000Y101004D03*
X265000Y68996D03*
X240000Y101004D03*
X240000Y68996D03*
D14*
G36*
X577564Y47188D02*
X585446Y55070D01*
X595070Y45446D01*
X587188Y37564D01*
X577564Y47188D01*
G37*
G36*
X554930Y24554D02*
X562812Y32436D01*
X572436Y22812D01*
X564554Y14930D01*
X554930Y24554D01*
G37*
G36*
X612564Y82188D02*
X620446Y90070D01*
X630070Y80446D01*
X622188Y72564D01*
X612564Y82188D01*
G37*
G36*
X589930Y59554D02*
X597812Y67436D01*
X607436Y57812D01*
X599554Y49930D01*
X589930Y59554D01*
G37*
G36*
X592564Y102188D02*
X600446Y110070D01*
X610070Y100446D01*
X602188Y92564D01*
X592564Y102188D01*
G37*
G36*
X569930Y79554D02*
X577812Y87436D01*
X587436Y77812D01*
X579554Y69930D01*
X569930Y79554D01*
G37*
G36*
X572564Y122188D02*
X580446Y130070D01*
X590070Y120446D01*
X582188Y112564D01*
X572564Y122188D01*
G37*
G36*
X549930Y99554D02*
X557812Y107436D01*
X567436Y97812D01*
X559554Y89930D01*
X549930Y99554D01*
G37*
D27*
X415000Y275000D02*
X411000Y275000D01*
X415000Y275000D02*
X415000Y271000D01*
X411000Y281000D02*
X398300Y293700D01*
X411000Y281000D02*
X411000Y275000D01*
X233000Y295000D02*
X233000Y347000D01*
X233000Y354380D01*
X234300Y293700D02*
X280400Y293700D01*
X234300Y293700D02*
X233000Y295000D01*
X233000Y354380D02*
X265920Y354380D01*
X233080Y347080D02*
X233000Y347000D01*
D28*
X330650Y121350D02*
X379400Y121350D01*
X330650Y121350D02*
X330000Y127500D01*
D27*
X293004Y140000D02*
X275000Y140000D01*
X275000Y203160D02*
X264780Y213380D01*
X275000Y203160D02*
X275000Y140000D01*
D29*
X360000Y460000D03*
X360000Y450000D03*
X360000Y440000D03*
X360000Y430000D03*
X360000Y420000D03*
X360000Y410000D03*
X360000Y400000D03*
X360000Y390000D03*
X360000Y380000D03*
X360000Y370000D03*
X360000Y360000D03*
X360000Y350000D03*
X370000Y360000D03*
X370000Y370000D03*
X370000Y380000D03*
X370000Y390000D03*
X370000Y400000D03*
X370000Y410000D03*
X370000Y420000D03*
X370000Y430000D03*
X370000Y440000D03*
X370000Y450000D03*
X370000Y460000D03*
X380000Y460000D03*
X380000Y450000D03*
X380000Y440000D03*
X380000Y430000D03*
X380000Y420000D03*
X380000Y410000D03*
X380000Y400000D03*
X380000Y390000D03*
X380000Y380000D03*
X380000Y370000D03*
X380000Y360000D03*
X380000Y350000D03*
X390000Y460000D03*
X390000Y450000D03*
X390000Y440000D03*
X390000Y430000D03*
X390000Y420000D03*
X390000Y410000D03*
X390000Y400000D03*
X390000Y390000D03*
X390000Y380000D03*
X390000Y370000D03*
X390000Y360000D03*
X390000Y350000D03*
X390000Y340000D03*
X400000Y340000D03*
X400000Y350000D03*
X400000Y360000D03*
X400000Y370000D03*
X400000Y380000D03*
X400000Y390000D03*
X400000Y400000D03*
X400000Y410000D03*
X400000Y420000D03*
X400000Y430000D03*
X400000Y440000D03*
X400000Y450000D03*
X400000Y460000D03*
X410000Y460000D03*
X410000Y450000D03*
X410000Y440000D03*
X410000Y430000D03*
X410000Y420000D03*
X410000Y410000D03*
X410000Y400000D03*
X410000Y390000D03*
X410000Y380000D03*
X410000Y370000D03*
X410000Y360000D03*
X410000Y350000D03*
X410000Y340000D03*
X420000Y460000D03*
X420000Y450000D03*
X420000Y440000D03*
X420000Y430000D03*
X420000Y420000D03*
X420000Y410000D03*
X420000Y400000D03*
X420000Y390000D03*
X420000Y380000D03*
X420000Y370000D03*
X420000Y360000D03*
X420000Y350000D03*
X420000Y340000D03*
X430000Y340000D03*
X430000Y350000D03*
X430000Y360000D03*
X430000Y370000D03*
X430000Y380000D03*
X430000Y390000D03*
X430000Y400000D03*
X430000Y410000D03*
X430000Y420000D03*
X430000Y430000D03*
X430000Y440000D03*
X430000Y450000D03*
X430000Y460000D03*
X440000Y460000D03*
X440000Y450000D03*
X440000Y440000D03*
X440000Y430000D03*
X440000Y420000D03*
X440000Y410000D03*
X440000Y400000D03*
X440000Y390000D03*
X440000Y380000D03*
X440000Y370000D03*
X440000Y360000D03*
X440000Y350000D03*
X440000Y340000D03*
X360000Y320000D03*
X360000Y310000D03*
X360000Y300000D03*
X360000Y290000D03*
X360000Y280000D03*
X360000Y270000D03*
X360000Y260000D03*
X360000Y250000D03*
X360000Y240000D03*
X360000Y230000D03*
X360000Y220000D03*
X360000Y210000D03*
X370000Y210000D03*
X370000Y220000D03*
X370000Y230000D03*
X370000Y240000D03*
X370000Y250000D03*
X370000Y260000D03*
X370000Y270000D03*
X370000Y280000D03*
X370000Y290000D03*
X370000Y300000D03*
X370000Y310000D03*
X380000Y320000D03*
X380000Y310000D03*
X380000Y300000D03*
X380000Y290000D03*
X380000Y280000D03*
X380000Y270000D03*
X380000Y260000D03*
X380000Y250000D03*
X380000Y240000D03*
X380000Y230000D03*
X380000Y220000D03*
X380000Y210000D03*
X390000Y330000D03*
X390000Y320000D03*
X390000Y310000D03*
X390000Y300000D03*
X390000Y290000D03*
X390000Y280000D03*
X390000Y270000D03*
X390000Y260000D03*
X390000Y250000D03*
X390000Y240000D03*
X390000Y230000D03*
X390000Y220000D03*
X390000Y210000D03*
X400000Y210000D03*
X400000Y220000D03*
X400000Y230000D03*
X400000Y240000D03*
X400000Y250000D03*
X400000Y260000D03*
X400000Y270000D03*
X400000Y280000D03*
X400000Y290000D03*
X400000Y300000D03*
X400000Y310000D03*
X400000Y320000D03*
X400000Y330000D03*
X410000Y330000D03*
X410000Y320000D03*
X410000Y310000D03*
X410000Y300000D03*
X410000Y290000D03*
X410000Y280000D03*
X410000Y270000D03*
X410000Y260000D03*
X410000Y250000D03*
X410000Y240000D03*
X410000Y230000D03*
X410000Y220000D03*
X410000Y210000D03*
X420000Y330000D03*
X420000Y320000D03*
X420000Y310000D03*
X420000Y300000D03*
X420000Y290000D03*
X420000Y280000D03*
X420000Y270000D03*
X420000Y260000D03*
X420000Y250000D03*
X420000Y240000D03*
X420000Y230000D03*
X420000Y220000D03*
X420000Y210000D03*
X430000Y210000D03*
X430000Y220000D03*
X430000Y230000D03*
X430000Y240000D03*
X430000Y250000D03*
X430000Y260000D03*
X430000Y270000D03*
X430000Y280000D03*
X430000Y290000D03*
X430000Y300000D03*
X430000Y310000D03*
X430000Y320000D03*
X430000Y330000D03*
X440000Y330000D03*
X440000Y320000D03*
X440000Y310000D03*
X440000Y300000D03*
X440000Y290000D03*
X440000Y280000D03*
X440000Y270000D03*
X440000Y260000D03*
X440000Y250000D03*
X440000Y240000D03*
X440000Y230000D03*
X440000Y220000D03*
X440000Y210000D03*
D30*
X630000Y210000D03*
D31*
X630000Y195000D01*
X623387Y188387D01*
D28*
X379400Y95950D02*
X331950Y95950D01*
X330000Y88500D01*
X315000Y155500D02*
X318505Y157000D01*
D27*
X317000Y157000D02*
X310000Y150000D01*
X317000Y157000D02*
X318505Y157000D01*
D28*
X305000Y143495D01*
X311500Y88500D02*
X330000Y88500D01*
X305000Y120000D02*
X305000Y143495D01*
X305000Y130000D02*
X305000Y95000D01*
X311500Y88500D01*
D27*
X177000Y259000D02*
X167700Y268300D01*
X166100Y268300D01*
X177000Y259000D02*
X154000Y259000D01*
X129200Y234200D01*
D29*
X120000Y460000D03*
X120000Y450000D03*
X120000Y440000D03*
X120000Y430000D03*
X120000Y420000D03*
X120000Y410000D03*
X120000Y400000D03*
X120000Y390000D03*
X120000Y380000D03*
X120000Y370000D03*
X120000Y360000D03*
X130000Y340000D03*
X130000Y350000D03*
X130000Y360000D03*
X130000Y370000D03*
X130000Y380000D03*
X130000Y390000D03*
X130000Y400000D03*
X130000Y410000D03*
X130000Y420000D03*
X130000Y430000D03*
X130000Y440000D03*
X130000Y450000D03*
X130000Y460000D03*
X140000Y460000D03*
X140000Y450000D03*
X140000Y440000D03*
X140000Y430000D03*
X140000Y420000D03*
X140000Y410000D03*
X140000Y400000D03*
X140000Y390000D03*
X140000Y380000D03*
X140000Y370000D03*
X140000Y360000D03*
X140000Y350000D03*
X140000Y340000D03*
X150000Y460000D03*
X150000Y450000D03*
X150000Y440000D03*
X150000Y430000D03*
X150000Y420000D03*
X150000Y410000D03*
X150000Y400000D03*
X150000Y390000D03*
X150000Y380000D03*
X150000Y370000D03*
X150000Y360000D03*
X150000Y350000D03*
X150000Y340000D03*
X160000Y340000D03*
X160000Y350000D03*
X160000Y360000D03*
X160000Y370000D03*
X160000Y380000D03*
X160000Y390000D03*
X160000Y400000D03*
X160000Y410000D03*
X160000Y420000D03*
X160000Y430000D03*
X160000Y440000D03*
X160000Y450000D03*
X160000Y460000D03*
X170000Y460000D03*
X170000Y450000D03*
X170000Y440000D03*
X170000Y430000D03*
X170000Y420000D03*
X170000Y410000D03*
X170000Y400000D03*
X170000Y390000D03*
X170000Y380000D03*
X170000Y370000D03*
X170000Y360000D03*
X170000Y350000D03*
X170000Y340000D03*
X180000Y460000D03*
X180000Y450000D03*
X180000Y440000D03*
X180000Y430000D03*
X180000Y420000D03*
X180000Y410000D03*
X180000Y400000D03*
X180000Y390000D03*
X180000Y380000D03*
X180000Y370000D03*
X180000Y360000D03*
X180000Y350000D03*
X180000Y340000D03*
X190000Y340000D03*
X190000Y350000D03*
X190000Y360000D03*
X190000Y370000D03*
X190000Y380000D03*
X190000Y390000D03*
X190000Y400000D03*
X190000Y410000D03*
X190000Y420000D03*
X190000Y430000D03*
X190000Y440000D03*
X190000Y450000D03*
X190000Y460000D03*
X200000Y460000D03*
X200000Y450000D03*
X200000Y440000D03*
X200000Y430000D03*
X200000Y420000D03*
X200000Y410000D03*
X200000Y400000D03*
X200000Y390000D03*
X200000Y380000D03*
X200000Y370000D03*
X200000Y360000D03*
X200000Y350000D03*
X200000Y340000D03*
X120000Y320000D03*
X120000Y310000D03*
X120000Y300000D03*
X120000Y290000D03*
X120000Y280000D03*
X120000Y270000D03*
X120000Y260000D03*
X120000Y250000D03*
X120000Y240000D03*
X120000Y230000D03*
X120000Y220000D03*
X120000Y210000D03*
X130000Y210000D03*
X130000Y220000D03*
X130000Y230000D03*
X130000Y240000D03*
X130000Y250000D03*
X130000Y260000D03*
X130000Y270000D03*
X130000Y280000D03*
X130000Y290000D03*
X130000Y300000D03*
X130000Y310000D03*
X130000Y320000D03*
X130000Y330000D03*
X140000Y330000D03*
X140000Y320000D03*
X140000Y310000D03*
X140000Y300000D03*
X140000Y290000D03*
X140000Y280000D03*
X140000Y270000D03*
X140000Y260000D03*
X140000Y250000D03*
X140000Y240000D03*
X140000Y230000D03*
X140000Y220000D03*
X140000Y210000D03*
X150000Y330000D03*
X150000Y320000D03*
X150000Y310000D03*
X150000Y300000D03*
X150000Y290000D03*
X150000Y280000D03*
X150000Y270000D03*
X150000Y260000D03*
X150000Y250000D03*
X150000Y240000D03*
X150000Y230000D03*
X150000Y220000D03*
X150000Y210000D03*
X160000Y210000D03*
X160000Y220000D03*
X160000Y230000D03*
X160000Y240000D03*
X160000Y250000D03*
X160000Y260000D03*
X160000Y270000D03*
X160000Y280000D03*
X160000Y290000D03*
X160000Y300000D03*
X160000Y310000D03*
X160000Y320000D03*
X160000Y330000D03*
X170000Y330000D03*
X170000Y320000D03*
X170000Y310000D03*
X170000Y300000D03*
X170000Y290000D03*
X170000Y280000D03*
X170000Y270000D03*
X170000Y260000D03*
X170000Y250000D03*
X170000Y240000D03*
X170000Y230000D03*
X170000Y220000D03*
X170000Y210000D03*
X180000Y330000D03*
X180000Y320000D03*
X180000Y310000D03*
X180000Y300000D03*
X180000Y290000D03*
X180000Y280000D03*
X180000Y270000D03*
X180000Y260000D03*
X180000Y250000D03*
X180000Y240000D03*
X180000Y230000D03*
X180000Y220000D03*
X180000Y210000D03*
X190000Y210000D03*
X190000Y220000D03*
X190000Y230000D03*
X190000Y240000D03*
X190000Y250000D03*
X190000Y260000D03*
X190000Y270000D03*
X190000Y280000D03*
X190000Y290000D03*
X190000Y300000D03*
X190000Y310000D03*
X190000Y320000D03*
X190000Y330000D03*
X200000Y330000D03*
X200000Y320000D03*
X200000Y310000D03*
X200000Y300000D03*
X200000Y290000D03*
X200000Y280000D03*
X200000Y270000D03*
X200000Y260000D03*
X200000Y250000D03*
X200000Y240000D03*
X200000Y230000D03*
X200000Y220000D03*
X200000Y210000D03*
D32*
X24220Y117780D02*
X24000Y117780D01*
X24220Y117780D02*
X36000Y106000D01*
D30*
X36000Y106000D03*
D27*
X220000Y178495D02*
X221000Y177495D01*
X220000Y178495D02*
X220000Y210000D01*
X200000Y210000D01*
D31*
X245000Y120000D02*
X305000Y120000D01*
X245000Y120000D02*
X245000Y165000D01*
X232505Y177495D01*
X221000Y177495D01*
D27*
X313836Y211996D02*
X315680Y213840D01*
D33*
X325000Y335000D03*
D28*
X364350Y108650D02*
X379400Y108650D01*
X364350Y108650D02*
X364166Y108834D01*
D34*
X364166Y108834D03*
X352166Y108834D03*
X310000Y195000D03*
X310000Y335000D03*
X325000Y195000D03*
D27*
X310000Y335000D02*
X322000Y349000D01*
X317680Y354840D02*
X317680Y336680D01*
X325000Y335000D02*
X327680Y336680D01*
X310000Y335000D02*
X309680Y336680D01*
X317680Y336680D01*
X327680Y336680D01*
X352166Y108834D02*
X364166Y108834D01*
X293004Y165000D02*
X293004Y187000D01*
X301004Y195000D01*
X325000Y195000D01*
D30*
X355000Y79000D03*
D31*
X316004Y70000D02*
X296004Y50000D01*
X346000Y70000D02*
X355000Y79000D01*
X346000Y70000D02*
X316004Y70000D01*
D34*
X450000Y137000D03*
X460000Y147000D03*
X545000Y195000D03*
X560000Y195000D03*
X560000Y335000D03*
X545000Y335000D03*
X520000Y90000D03*
X520000Y105000D03*
D27*
X518004Y103004D01*
X520000Y105000D02*
X520000Y90000D01*
D31*
X535000Y75000D01*
X563683Y46317D02*
X563683Y23683D01*
X563683Y46317D02*
X535000Y75000D01*
X523683Y63683D01*
D29*
X500000Y170000D03*
D27*
X500780Y216380D02*
X500300Y217000D01*
D31*
X434600Y121350D02*
X418350Y121350D01*
X416220Y119220D01*
D30*
X25000Y268000D03*
X25000Y278000D03*
X25000Y334000D03*
X25000Y344000D03*
X25000Y397000D03*
X25000Y407000D03*
X25000Y460000D03*
X24000Y213000D03*
D27*
X505500Y50000D02*
X510000Y50000D01*
X515000Y45000D01*
D30*
X515000Y45000D03*
D31*
X545000Y42367D02*
X545000Y25000D01*
X545000Y42367D02*
X543683Y43683D01*
D30*
X545000Y25000D03*
D28*
X380000Y157000D02*
X365495Y157000D01*
X380000Y134650D02*
X379400Y134050D01*
X380000Y134650D02*
X380000Y157000D01*
D35*
X377000Y168505D02*
X365495Y157000D01*
D27*
X400000Y63495D02*
X413495Y50000D01*
X400000Y175000D02*
X393000Y182000D01*
X400000Y70000D02*
X400000Y63495D01*
X400000Y70000D02*
X400000Y160000D01*
X400000Y175000D01*
X393000Y182000D02*
X393000Y159000D01*
X368495Y160000D02*
X365495Y157000D01*
X368495Y160000D02*
X400000Y160000D01*
D35*
X466356Y74356D02*
X473780Y71000D01*
X466356Y74356D02*
X462000Y70000D01*
D30*
X462000Y70000D03*
X400000Y70000D03*
D31*
X546317Y86317D02*
X551317Y86317D01*
X546317Y86317D02*
X566317Y66317D01*
D27*
X260996Y140000D02*
X260996Y165000D01*
X294360Y368940D02*
X280400Y382900D01*
X294360Y368940D02*
X294360Y354380D01*
X280400Y242900D02*
X283360Y239940D01*
X524400Y221340D02*
X529220Y216380D01*
D31*
X198508Y101004D02*
X190000Y92496D01*
X198508Y101004D02*
X215000Y101004D01*
X190000Y124504D02*
X190000Y142496D01*
X221000Y143504D02*
X190000Y174504D01*
X221000Y143504D02*
X221000Y130505D01*
X581317Y146317D02*
X626317Y146317D01*
X581317Y146317D02*
X578683Y143683D01*
X631050Y166317D02*
X638683Y158683D01*
X631050Y166317D02*
X601317Y166317D01*
X656613Y186020D02*
X656613Y221613D01*
X656613Y186020D02*
X661317Y181317D01*
D32*
X24000Y166500D02*
X24000Y146220D01*
X489620Y50000D02*
X502220Y71000D01*
X489620Y50000D02*
X470500Y50000D01*
D35*
X148600Y37000D02*
X148600Y13560D01*
X150000Y12160D01*
X433160Y12160D01*
X435250Y108000D02*
X434600Y108650D01*
X435250Y108000D02*
X454000Y108000D01*
X454000Y33000D01*
X433160Y12160D01*
X160522Y32062D02*
X160000Y31540D01*
X160000Y19000D01*
X160522Y50478D02*
X148600Y62400D01*
X160522Y50478D02*
X160522Y32062D01*
X160000Y19000D02*
X426000Y19000D01*
X434600Y95950D02*
X442000Y95950D01*
X442000Y35000D01*
X426000Y19000D01*
D27*
X366505Y50000D02*
X346093Y29588D01*
X181412Y29588D02*
X174000Y37000D01*
X181412Y29588D02*
X346093Y29588D01*
D36*
X123200Y37000D02*
X111000Y49200D01*
D35*
X110000Y50200D01*
D36*
X110000Y90000D01*
X151282Y162282D02*
X156282Y162282D01*
X161282Y157282D01*
X161282Y116282D01*
X135000Y90000D01*
X110000Y90000D01*
D37*
X164944Y174983D02*
X164718Y175718D01*
D36*
X123200Y80000D02*
X123200Y62400D01*
X123200Y80000D02*
X137000Y80000D01*
X168944Y111944D01*
X168944Y165983D01*
X164944Y169983D01*
D31*
X164944Y174983D01*
X265000Y68996D02*
X290000Y93996D01*
X290000Y101004D01*
X265000Y93996D02*
X240000Y68996D01*
X265000Y93996D02*
X265000Y101004D01*
X263996Y50000D02*
X270000Y50000D01*
X288996Y68996D02*
X290000Y68996D01*
X288996Y68996D02*
X270000Y50000D01*
X240000Y93996D02*
X215000Y68996D01*
X240000Y93996D02*
X240000Y101004D01*
X578683Y78683D02*
X618683Y78683D01*
X621317Y81317D01*
X601317Y101317D02*
X598683Y98683D01*
X558683Y98683D01*
X596317Y58683D02*
X598683Y58683D01*
X586317Y46317D01*
X601317Y121317D02*
X603683Y123683D01*
X601317Y121317D02*
X581317Y121317D01*
M02*
