G04 EAGLE Gerber RS-274X export*
G75*
%MOMM*%
%FSLAX34Y34*%
%LPD*%
%INSoldermask Bottom*%
%IPPOS*%
%AMOC8*
5,1,8,0,0,1.08239X$1,22.5*%
G01*
%ADD10C,2.963200*%
%ADD11C,2.082800*%
%ADD12C,3.903200*%
%ADD13C,0.859600*%
%ADD14C,0.959600*%
%ADD15C,1.409600*%
%ADD16C,1.359600*%


D10*
X320000Y315000D03*
X530000Y325000D03*
X556000Y458000D03*
X652000Y121000D03*
D11*
X47000Y37000D03*
X47000Y62400D03*
X72400Y37000D03*
X72400Y62400D03*
X97800Y37000D03*
X97800Y62400D03*
X123200Y37000D03*
X123200Y62400D03*
X148600Y37000D03*
X148600Y62400D03*
X174000Y37000D03*
X174000Y62400D03*
X410000Y500000D03*
X410000Y525400D03*
X435400Y500000D03*
X435400Y525400D03*
X460800Y500000D03*
X460800Y525400D03*
X486200Y500000D03*
X486200Y525400D03*
X511600Y500000D03*
X511600Y525400D03*
X537000Y500000D03*
X537000Y525400D03*
D12*
X650000Y40000D03*
X40000Y515000D03*
X650000Y515000D03*
D13*
X360000Y460000D03*
X360000Y450000D03*
X360000Y440000D03*
X360000Y430000D03*
X360000Y420000D03*
X360000Y410000D03*
X360000Y400000D03*
X360000Y390000D03*
X360000Y380000D03*
X360000Y370000D03*
X360000Y360000D03*
X360000Y350000D03*
X370000Y360000D03*
X370000Y370000D03*
X370000Y380000D03*
X370000Y390000D03*
X370000Y400000D03*
X370000Y410000D03*
X370000Y420000D03*
X370000Y430000D03*
X370000Y440000D03*
X370000Y450000D03*
X370000Y460000D03*
X380000Y460000D03*
X380000Y450000D03*
X380000Y440000D03*
X380000Y430000D03*
X380000Y420000D03*
X380000Y410000D03*
X380000Y400000D03*
X380000Y390000D03*
X380000Y380000D03*
X380000Y370000D03*
X380000Y360000D03*
X380000Y350000D03*
X390000Y460000D03*
X390000Y450000D03*
X390000Y440000D03*
X390000Y430000D03*
X390000Y420000D03*
X390000Y410000D03*
X390000Y400000D03*
X390000Y390000D03*
X390000Y380000D03*
X390000Y370000D03*
X390000Y360000D03*
X390000Y350000D03*
X390000Y340000D03*
X400000Y340000D03*
X400000Y350000D03*
X400000Y360000D03*
X400000Y370000D03*
X400000Y380000D03*
X400000Y390000D03*
X400000Y400000D03*
X400000Y410000D03*
X400000Y420000D03*
X400000Y430000D03*
X400000Y440000D03*
X400000Y450000D03*
X400000Y460000D03*
X410000Y460000D03*
X410000Y450000D03*
X410000Y440000D03*
X410000Y430000D03*
X410000Y420000D03*
X410000Y410000D03*
X410000Y400000D03*
X410000Y390000D03*
X410000Y380000D03*
X410000Y370000D03*
X410000Y360000D03*
X410000Y350000D03*
X410000Y340000D03*
X420000Y460000D03*
X420000Y450000D03*
X420000Y440000D03*
X420000Y430000D03*
X420000Y420000D03*
X420000Y410000D03*
X420000Y400000D03*
X420000Y390000D03*
X420000Y380000D03*
X420000Y370000D03*
X420000Y360000D03*
X420000Y350000D03*
X420000Y340000D03*
X430000Y340000D03*
X430000Y350000D03*
X430000Y360000D03*
X430000Y370000D03*
X430000Y380000D03*
X430000Y390000D03*
X430000Y400000D03*
X430000Y410000D03*
X430000Y420000D03*
X430000Y430000D03*
X430000Y440000D03*
X430000Y450000D03*
X430000Y460000D03*
X440000Y460000D03*
X440000Y450000D03*
X440000Y440000D03*
X440000Y430000D03*
X440000Y420000D03*
X440000Y410000D03*
X440000Y400000D03*
X440000Y390000D03*
X440000Y380000D03*
X440000Y370000D03*
X440000Y360000D03*
X440000Y350000D03*
X440000Y340000D03*
X360000Y320000D03*
X360000Y310000D03*
X360000Y300000D03*
X360000Y290000D03*
X360000Y280000D03*
X360000Y270000D03*
X360000Y260000D03*
X360000Y250000D03*
X360000Y240000D03*
X360000Y230000D03*
X360000Y220000D03*
X360000Y210000D03*
X370000Y210000D03*
X370000Y220000D03*
X370000Y230000D03*
X370000Y240000D03*
X370000Y250000D03*
X370000Y260000D03*
X370000Y270000D03*
X370000Y280000D03*
X370000Y290000D03*
X370000Y300000D03*
X370000Y310000D03*
X380000Y320000D03*
X380000Y310000D03*
X380000Y300000D03*
X380000Y290000D03*
X380000Y280000D03*
X380000Y270000D03*
X380000Y260000D03*
X380000Y250000D03*
X380000Y240000D03*
X380000Y230000D03*
X380000Y220000D03*
X380000Y210000D03*
X390000Y330000D03*
X390000Y320000D03*
X390000Y310000D03*
X390000Y300000D03*
X390000Y290000D03*
X390000Y280000D03*
X390000Y270000D03*
X390000Y260000D03*
X390000Y250000D03*
X390000Y240000D03*
X390000Y230000D03*
X390000Y220000D03*
X390000Y210000D03*
X400000Y210000D03*
X400000Y220000D03*
X400000Y230000D03*
X400000Y240000D03*
X400000Y250000D03*
X400000Y260000D03*
X400000Y270000D03*
X400000Y280000D03*
X400000Y290000D03*
X400000Y300000D03*
X400000Y310000D03*
X400000Y320000D03*
X400000Y330000D03*
X410000Y330000D03*
X410000Y320000D03*
X410000Y310000D03*
X410000Y300000D03*
X410000Y290000D03*
X410000Y280000D03*
X410000Y270000D03*
X410000Y260000D03*
X410000Y250000D03*
X410000Y240000D03*
X410000Y230000D03*
X410000Y220000D03*
X410000Y210000D03*
X420000Y330000D03*
X420000Y320000D03*
X420000Y310000D03*
X420000Y300000D03*
X420000Y290000D03*
X420000Y280000D03*
X420000Y270000D03*
X420000Y260000D03*
X420000Y250000D03*
X420000Y240000D03*
X420000Y230000D03*
X420000Y220000D03*
X420000Y210000D03*
X430000Y210000D03*
X430000Y220000D03*
X430000Y230000D03*
X430000Y240000D03*
X430000Y250000D03*
X430000Y260000D03*
X430000Y270000D03*
X430000Y280000D03*
X430000Y290000D03*
X430000Y300000D03*
X430000Y310000D03*
X430000Y320000D03*
X430000Y330000D03*
X440000Y330000D03*
X440000Y320000D03*
X440000Y310000D03*
X440000Y300000D03*
X440000Y290000D03*
X440000Y280000D03*
X440000Y270000D03*
X440000Y260000D03*
X440000Y250000D03*
X440000Y240000D03*
X440000Y230000D03*
X440000Y220000D03*
X440000Y210000D03*
D14*
X630000Y210000D03*
D13*
X120000Y460000D03*
X120000Y450000D03*
X120000Y440000D03*
X120000Y430000D03*
X120000Y420000D03*
X120000Y410000D03*
X120000Y400000D03*
X120000Y390000D03*
X120000Y380000D03*
X120000Y370000D03*
X120000Y360000D03*
X130000Y340000D03*
X130000Y350000D03*
X130000Y360000D03*
X130000Y370000D03*
X130000Y380000D03*
X130000Y390000D03*
X130000Y400000D03*
X130000Y410000D03*
X130000Y420000D03*
X130000Y430000D03*
X130000Y440000D03*
X130000Y450000D03*
X130000Y460000D03*
X140000Y460000D03*
X140000Y450000D03*
X140000Y440000D03*
X140000Y430000D03*
X140000Y420000D03*
X140000Y410000D03*
X140000Y400000D03*
X140000Y390000D03*
X140000Y380000D03*
X140000Y370000D03*
X140000Y360000D03*
X140000Y350000D03*
X140000Y340000D03*
X150000Y460000D03*
X150000Y450000D03*
X150000Y440000D03*
X150000Y430000D03*
X150000Y420000D03*
X150000Y410000D03*
X150000Y400000D03*
X150000Y390000D03*
X150000Y380000D03*
X150000Y370000D03*
X150000Y360000D03*
X150000Y350000D03*
X150000Y340000D03*
X160000Y340000D03*
X160000Y350000D03*
X160000Y360000D03*
X160000Y370000D03*
X160000Y380000D03*
X160000Y390000D03*
X160000Y400000D03*
X160000Y410000D03*
X160000Y420000D03*
X160000Y430000D03*
X160000Y440000D03*
X160000Y450000D03*
X160000Y460000D03*
X170000Y460000D03*
X170000Y450000D03*
X170000Y440000D03*
X170000Y430000D03*
X170000Y420000D03*
X170000Y410000D03*
X170000Y400000D03*
X170000Y390000D03*
X170000Y380000D03*
X170000Y370000D03*
X170000Y360000D03*
X170000Y350000D03*
X170000Y340000D03*
X180000Y460000D03*
X180000Y450000D03*
X180000Y440000D03*
X180000Y430000D03*
X180000Y420000D03*
X180000Y410000D03*
X180000Y400000D03*
X180000Y390000D03*
X180000Y380000D03*
X180000Y370000D03*
X180000Y360000D03*
X180000Y350000D03*
X180000Y340000D03*
X190000Y340000D03*
X190000Y350000D03*
X190000Y360000D03*
X190000Y370000D03*
X190000Y380000D03*
X190000Y390000D03*
X190000Y400000D03*
X190000Y410000D03*
X190000Y420000D03*
X190000Y430000D03*
X190000Y440000D03*
X190000Y450000D03*
X190000Y460000D03*
X200000Y460000D03*
X200000Y450000D03*
X200000Y440000D03*
X200000Y430000D03*
X200000Y420000D03*
X200000Y410000D03*
X200000Y400000D03*
X200000Y390000D03*
X200000Y380000D03*
X200000Y370000D03*
X200000Y360000D03*
X200000Y350000D03*
X200000Y340000D03*
X120000Y320000D03*
X120000Y310000D03*
X120000Y300000D03*
X120000Y290000D03*
X120000Y280000D03*
X120000Y270000D03*
X120000Y260000D03*
X120000Y250000D03*
X120000Y240000D03*
X120000Y230000D03*
X120000Y220000D03*
X120000Y210000D03*
X130000Y210000D03*
X130000Y220000D03*
X130000Y230000D03*
X130000Y240000D03*
X130000Y250000D03*
X130000Y260000D03*
X130000Y270000D03*
X130000Y280000D03*
X130000Y290000D03*
X130000Y300000D03*
X130000Y310000D03*
X130000Y320000D03*
X130000Y330000D03*
X140000Y330000D03*
X140000Y320000D03*
X140000Y310000D03*
X140000Y300000D03*
X140000Y290000D03*
X140000Y280000D03*
X140000Y270000D03*
X140000Y260000D03*
X140000Y250000D03*
X140000Y240000D03*
X140000Y230000D03*
X140000Y220000D03*
X140000Y210000D03*
X150000Y330000D03*
X150000Y320000D03*
X150000Y310000D03*
X150000Y300000D03*
X150000Y290000D03*
X150000Y280000D03*
X150000Y270000D03*
X150000Y260000D03*
X150000Y250000D03*
X150000Y240000D03*
X150000Y230000D03*
X150000Y220000D03*
X150000Y210000D03*
X160000Y210000D03*
X160000Y220000D03*
X160000Y230000D03*
X160000Y240000D03*
X160000Y250000D03*
X160000Y260000D03*
X160000Y270000D03*
X160000Y280000D03*
X160000Y290000D03*
X160000Y300000D03*
X160000Y310000D03*
X160000Y320000D03*
X160000Y330000D03*
X170000Y330000D03*
X170000Y320000D03*
X170000Y310000D03*
X170000Y300000D03*
X170000Y290000D03*
X170000Y280000D03*
X170000Y270000D03*
X170000Y260000D03*
X170000Y250000D03*
X170000Y240000D03*
X170000Y230000D03*
X170000Y220000D03*
X170000Y210000D03*
X180000Y330000D03*
X180000Y320000D03*
X180000Y310000D03*
X180000Y300000D03*
X180000Y290000D03*
X180000Y280000D03*
X180000Y270000D03*
X180000Y260000D03*
X180000Y250000D03*
X180000Y240000D03*
X180000Y230000D03*
X180000Y220000D03*
X180000Y210000D03*
X190000Y210000D03*
X190000Y220000D03*
X190000Y230000D03*
X190000Y240000D03*
X190000Y250000D03*
X190000Y260000D03*
X190000Y270000D03*
X190000Y280000D03*
X190000Y290000D03*
X190000Y300000D03*
X190000Y310000D03*
X190000Y320000D03*
X190000Y330000D03*
X200000Y330000D03*
X200000Y320000D03*
X200000Y310000D03*
X200000Y300000D03*
X200000Y290000D03*
X200000Y280000D03*
X200000Y270000D03*
X200000Y260000D03*
X200000Y250000D03*
X200000Y240000D03*
X200000Y230000D03*
X200000Y220000D03*
X200000Y210000D03*
D14*
X36000Y106000D03*
D15*
X325000Y335000D03*
D16*
X364166Y108834D03*
X352166Y108834D03*
X310000Y195000D03*
X310000Y335000D03*
X325000Y195000D03*
D14*
X355000Y79000D03*
D16*
X450000Y137000D03*
X460000Y147000D03*
X545000Y195000D03*
X560000Y195000D03*
X560000Y335000D03*
X545000Y335000D03*
X520000Y90000D03*
X520000Y105000D03*
D13*
X500000Y170000D03*
D14*
X25000Y268000D03*
X25000Y278000D03*
X25000Y334000D03*
X25000Y344000D03*
X25000Y397000D03*
X25000Y407000D03*
X25000Y460000D03*
X24000Y213000D03*
X515000Y45000D03*
X545000Y25000D03*
X462000Y70000D03*
X400000Y70000D03*
M02*
