G04 EAGLE Gerber RS-274X export*
G75*
%MOMM*%
%FSLAX34Y34*%
%LPD*%
%INSolderpaste Top*%
%IPPOS*%
%AMOC8*
5,1,8,0,0,1.08239X$1,22.5*%
G01*
%ADD10R,1.600000X1.800000*%
%ADD11R,3.400000X1.900000*%
%ADD12R,1.520000X0.600000*%
%ADD13R,2.540000X2.540000*%
%ADD14R,1.114600X1.361200*%
%ADD15R,3.810000X2.082800*%
%ADD16R,8.890000X11.430000*%
%ADD17R,1.803000X1.600000*%
%ADD18R,1.600000X1.803000*%
%ADD19R,1.850000X5.500000*%
%ADD20R,1.361200X1.114600*%
%ADD21R,2.540000X2.540000*%
%ADD22R,1.500000X1.500000*%
%ADD23R,1.300000X1.500000*%

G36*
X43504Y485954D02*
X43504Y485954D01*
X43506Y485951D01*
X44306Y486051D01*
X44308Y486053D01*
X44309Y486052D01*
X45159Y486202D01*
X45959Y486352D01*
X45960Y486353D01*
X45961Y486352D01*
X46811Y486552D01*
X46812Y486552D01*
X48012Y486852D01*
X48013Y486854D01*
X48015Y486853D01*
X48815Y487103D01*
X48815Y487104D01*
X48816Y487103D01*
X49566Y487353D01*
X49566Y487354D01*
X50566Y487704D01*
X50568Y487706D01*
X50569Y487705D01*
X52319Y488455D01*
X52320Y488456D01*
X52321Y488455D01*
X53171Y488855D01*
X53172Y488858D01*
X53174Y488857D01*
X53874Y489257D01*
X54723Y489706D01*
X54724Y489709D01*
X54726Y489708D01*
X55276Y490058D01*
X56076Y490558D01*
X56077Y490560D01*
X56078Y490560D01*
X56728Y491010D01*
X56729Y491010D01*
X57429Y491510D01*
X57429Y491511D01*
X57430Y491511D01*
X58030Y491961D01*
X58030Y491962D01*
X58031Y491962D01*
X58531Y492362D01*
X58531Y492363D01*
X58532Y492362D01*
X59182Y492912D01*
X59182Y492913D01*
X59183Y492913D01*
X60083Y493713D01*
X60083Y493715D01*
X60085Y493715D01*
X61185Y494815D01*
X61185Y494817D01*
X61186Y494817D01*
X61786Y495467D01*
X61786Y495468D01*
X61787Y495468D01*
X62137Y495868D01*
X62138Y495868D01*
X62688Y496518D01*
X62688Y496520D01*
X62689Y496520D01*
X63189Y497170D01*
X63539Y497620D01*
X63539Y497622D01*
X63540Y497622D01*
X63890Y498122D01*
X63891Y498122D01*
X64341Y498772D01*
X64340Y498774D01*
X64342Y498774D01*
X64591Y499173D01*
X65041Y499873D01*
X65041Y499875D01*
X65043Y499876D01*
X65843Y501276D01*
X65842Y501278D01*
X65844Y501278D01*
X66444Y502478D01*
X66444Y502479D01*
X66445Y502479D01*
X66795Y503229D01*
X66794Y503231D01*
X66796Y503231D01*
X67146Y504081D01*
X67145Y504082D01*
X67146Y504083D01*
X67446Y504883D01*
X67696Y505583D01*
X67696Y505584D01*
X67697Y505584D01*
X67997Y506484D01*
X67996Y506486D01*
X67997Y506486D01*
X68247Y507336D01*
X68247Y507338D01*
X68248Y507338D01*
X68498Y508338D01*
X68497Y508340D01*
X68498Y508340D01*
X68648Y509090D01*
X68648Y509091D01*
X68798Y509891D01*
X68798Y509892D01*
X68799Y509892D01*
X68949Y510792D01*
X68948Y510793D01*
X68949Y510793D01*
X69049Y511492D01*
X69098Y511740D01*
X69072Y511794D01*
X69059Y511787D01*
X69050Y511799D01*
X58700Y511799D01*
X58653Y511763D01*
X58658Y511756D01*
X58651Y511750D01*
X58651Y511605D01*
X58502Y510861D01*
X58302Y510062D01*
X58103Y509314D01*
X57854Y508567D01*
X57505Y507720D01*
X57155Y506921D01*
X56756Y506123D01*
X56358Y505425D01*
X55958Y504776D01*
X55609Y504228D01*
X55211Y503680D01*
X54861Y503231D01*
X54413Y502683D01*
X53664Y501884D01*
X53664Y501882D01*
X53663Y501882D01*
X53315Y501485D01*
X52867Y501087D01*
X52867Y501086D01*
X52318Y500588D01*
X51569Y499988D01*
X51121Y499640D01*
X50473Y499191D01*
X49326Y498493D01*
X48577Y498094D01*
X47630Y497645D01*
X47132Y497446D01*
X46233Y497096D01*
X45486Y496847D01*
X44338Y496548D01*
X43691Y496398D01*
X43347Y496349D01*
X43250Y496349D01*
X43203Y496313D01*
X43206Y496309D01*
X43203Y496307D01*
X43205Y496303D01*
X43201Y496300D01*
X43201Y486000D01*
X43237Y485953D01*
X43244Y485958D01*
X43250Y485951D01*
X43500Y485951D01*
X43504Y485954D01*
G37*
G36*
X36794Y485928D02*
X36794Y485928D01*
X36787Y485941D01*
X36799Y485950D01*
X36799Y496300D01*
X36763Y496347D01*
X36756Y496342D01*
X36750Y496349D01*
X36605Y496349D01*
X35861Y496498D01*
X35063Y496698D01*
X34314Y496897D01*
X33567Y497146D01*
X32720Y497495D01*
X31921Y497845D01*
X31123Y498244D01*
X30425Y498642D01*
X29776Y499042D01*
X29228Y499391D01*
X28680Y499789D01*
X28231Y500139D01*
X27683Y500587D01*
X26884Y501336D01*
X26882Y501336D01*
X26882Y501337D01*
X26485Y501685D01*
X26087Y502133D01*
X26086Y502133D01*
X25588Y502682D01*
X24988Y503431D01*
X24640Y503879D01*
X24191Y504527D01*
X23493Y505674D01*
X23094Y506423D01*
X22645Y507370D01*
X22446Y507868D01*
X22096Y508767D01*
X21847Y509514D01*
X21548Y510661D01*
X21398Y511309D01*
X21349Y511653D01*
X21349Y511750D01*
X21313Y511797D01*
X21306Y511792D01*
X21300Y511799D01*
X11000Y511799D01*
X10953Y511763D01*
X10958Y511756D01*
X10951Y511750D01*
X10951Y511500D01*
X10954Y511496D01*
X10951Y511494D01*
X11051Y510694D01*
X11053Y510693D01*
X11052Y510691D01*
X11202Y509841D01*
X11352Y509041D01*
X11353Y509040D01*
X11352Y509039D01*
X11552Y508189D01*
X11552Y508188D01*
X11852Y506988D01*
X11854Y506987D01*
X11853Y506985D01*
X12103Y506185D01*
X12104Y506185D01*
X12103Y506184D01*
X12353Y505434D01*
X12354Y505434D01*
X12704Y504434D01*
X12706Y504432D01*
X12705Y504431D01*
X13455Y502681D01*
X13456Y502680D01*
X13455Y502679D01*
X13855Y501829D01*
X13858Y501828D01*
X13857Y501826D01*
X14257Y501126D01*
X14706Y500277D01*
X14709Y500276D01*
X14708Y500274D01*
X15058Y499724D01*
X15558Y498924D01*
X15560Y498923D01*
X15560Y498922D01*
X16010Y498272D01*
X16010Y498271D01*
X16510Y497571D01*
X16511Y497571D01*
X16511Y497570D01*
X16961Y496970D01*
X16962Y496970D01*
X16962Y496969D01*
X17362Y496469D01*
X17363Y496469D01*
X17362Y496468D01*
X17912Y495818D01*
X17913Y495818D01*
X17913Y495817D01*
X18713Y494917D01*
X18715Y494917D01*
X18715Y494915D01*
X19815Y493815D01*
X19817Y493815D01*
X19817Y493814D01*
X20467Y493214D01*
X20468Y493214D01*
X20468Y493213D01*
X20868Y492863D01*
X20868Y492862D01*
X21518Y492312D01*
X21520Y492312D01*
X21520Y492311D01*
X22170Y491811D01*
X22620Y491461D01*
X22622Y491461D01*
X22622Y491460D01*
X23122Y491110D01*
X23772Y490660D01*
X23774Y490660D01*
X23774Y490658D01*
X24173Y490409D01*
X24873Y489959D01*
X24875Y489959D01*
X24876Y489957D01*
X26276Y489157D01*
X26278Y489158D01*
X26278Y489156D01*
X27478Y488556D01*
X27479Y488556D01*
X27479Y488555D01*
X28229Y488205D01*
X28231Y488206D01*
X28231Y488204D01*
X29081Y487854D01*
X29082Y487855D01*
X29083Y487854D01*
X29883Y487554D01*
X30583Y487304D01*
X30584Y487304D01*
X30584Y487303D01*
X31484Y487003D01*
X31486Y487004D01*
X31486Y487003D01*
X32336Y486753D01*
X32338Y486753D01*
X32338Y486752D01*
X33338Y486502D01*
X33340Y486503D01*
X33340Y486502D01*
X34090Y486352D01*
X34091Y486352D01*
X34891Y486202D01*
X34892Y486202D01*
X34892Y486201D01*
X35792Y486051D01*
X35793Y486052D01*
X35793Y486051D01*
X36492Y485951D01*
X36740Y485902D01*
X36794Y485928D01*
G37*
G36*
X646794Y485928D02*
X646794Y485928D01*
X646787Y485941D01*
X646799Y485950D01*
X646799Y496300D01*
X646763Y496347D01*
X646756Y496342D01*
X646750Y496349D01*
X646605Y496349D01*
X645861Y496498D01*
X645063Y496698D01*
X644314Y496897D01*
X643567Y497146D01*
X642720Y497495D01*
X641921Y497845D01*
X641123Y498244D01*
X640425Y498642D01*
X639776Y499042D01*
X639228Y499391D01*
X638680Y499789D01*
X638231Y500139D01*
X637683Y500587D01*
X636884Y501336D01*
X636882Y501336D01*
X636882Y501337D01*
X636485Y501685D01*
X636087Y502133D01*
X636086Y502133D01*
X635588Y502682D01*
X634988Y503431D01*
X634640Y503879D01*
X634191Y504527D01*
X633493Y505674D01*
X633094Y506423D01*
X632645Y507370D01*
X632446Y507868D01*
X632096Y508767D01*
X631847Y509514D01*
X631548Y510661D01*
X631398Y511309D01*
X631349Y511653D01*
X631349Y511750D01*
X631313Y511797D01*
X631306Y511792D01*
X631300Y511799D01*
X621000Y511799D01*
X620953Y511763D01*
X620958Y511756D01*
X620951Y511750D01*
X620951Y511500D01*
X620954Y511496D01*
X620951Y511494D01*
X621051Y510694D01*
X621053Y510693D01*
X621052Y510691D01*
X621202Y509841D01*
X621352Y509041D01*
X621353Y509040D01*
X621352Y509039D01*
X621552Y508189D01*
X621552Y508188D01*
X621852Y506988D01*
X621854Y506987D01*
X621853Y506985D01*
X622103Y506185D01*
X622104Y506185D01*
X622103Y506184D01*
X622353Y505434D01*
X622354Y505434D01*
X622704Y504434D01*
X622706Y504432D01*
X622705Y504431D01*
X623455Y502681D01*
X623456Y502680D01*
X623455Y502679D01*
X623855Y501829D01*
X623858Y501828D01*
X623857Y501826D01*
X624257Y501126D01*
X624706Y500277D01*
X624709Y500276D01*
X624708Y500274D01*
X625058Y499724D01*
X625558Y498924D01*
X625560Y498923D01*
X625560Y498922D01*
X626010Y498272D01*
X626010Y498271D01*
X626510Y497571D01*
X626511Y497571D01*
X626511Y497570D01*
X626961Y496970D01*
X626962Y496970D01*
X626962Y496969D01*
X627362Y496469D01*
X627363Y496469D01*
X627362Y496468D01*
X627912Y495818D01*
X627913Y495818D01*
X627913Y495817D01*
X628713Y494917D01*
X628715Y494917D01*
X628715Y494915D01*
X629815Y493815D01*
X629817Y493815D01*
X629817Y493814D01*
X630467Y493214D01*
X630468Y493214D01*
X630468Y493213D01*
X630868Y492863D01*
X630868Y492862D01*
X631518Y492312D01*
X631520Y492312D01*
X631520Y492311D01*
X632170Y491811D01*
X632620Y491461D01*
X632622Y491461D01*
X632622Y491460D01*
X633122Y491110D01*
X633772Y490660D01*
X633774Y490660D01*
X633774Y490658D01*
X634173Y490409D01*
X634873Y489959D01*
X634875Y489959D01*
X634876Y489957D01*
X636276Y489157D01*
X636278Y489158D01*
X636278Y489156D01*
X637478Y488556D01*
X637479Y488556D01*
X637479Y488555D01*
X638229Y488205D01*
X638231Y488206D01*
X638231Y488204D01*
X639081Y487854D01*
X639082Y487855D01*
X639083Y487854D01*
X639883Y487554D01*
X640583Y487304D01*
X640584Y487304D01*
X640584Y487303D01*
X641484Y487003D01*
X641486Y487004D01*
X641486Y487003D01*
X642336Y486753D01*
X642338Y486753D01*
X642338Y486752D01*
X643338Y486502D01*
X643340Y486503D01*
X643340Y486502D01*
X644090Y486352D01*
X644091Y486352D01*
X644891Y486202D01*
X644892Y486202D01*
X644892Y486201D01*
X645792Y486051D01*
X645793Y486052D01*
X645793Y486051D01*
X646492Y485951D01*
X646740Y485902D01*
X646794Y485928D01*
G37*
G36*
X653504Y485954D02*
X653504Y485954D01*
X653506Y485951D01*
X654306Y486051D01*
X654308Y486053D01*
X654309Y486052D01*
X655159Y486202D01*
X655959Y486352D01*
X655960Y486353D01*
X655961Y486352D01*
X656811Y486552D01*
X656812Y486552D01*
X658012Y486852D01*
X658013Y486854D01*
X658015Y486853D01*
X658815Y487103D01*
X658815Y487104D01*
X658816Y487103D01*
X659566Y487353D01*
X659566Y487354D01*
X660566Y487704D01*
X660568Y487706D01*
X660569Y487705D01*
X662319Y488455D01*
X662320Y488456D01*
X662321Y488455D01*
X663171Y488855D01*
X663172Y488858D01*
X663174Y488857D01*
X663874Y489257D01*
X664723Y489706D01*
X664724Y489709D01*
X664726Y489708D01*
X665276Y490058D01*
X666076Y490558D01*
X666077Y490560D01*
X666078Y490560D01*
X666728Y491010D01*
X666729Y491010D01*
X667429Y491510D01*
X667429Y491511D01*
X667430Y491511D01*
X668030Y491961D01*
X668030Y491962D01*
X668031Y491962D01*
X668531Y492362D01*
X668531Y492363D01*
X668532Y492362D01*
X669182Y492912D01*
X669182Y492913D01*
X669183Y492913D01*
X670083Y493713D01*
X670083Y493715D01*
X670085Y493715D01*
X671185Y494815D01*
X671185Y494817D01*
X671186Y494817D01*
X671786Y495467D01*
X671786Y495468D01*
X671787Y495468D01*
X672137Y495868D01*
X672138Y495868D01*
X672688Y496518D01*
X672688Y496520D01*
X672689Y496520D01*
X673189Y497170D01*
X673539Y497620D01*
X673539Y497622D01*
X673540Y497622D01*
X673890Y498122D01*
X673891Y498122D01*
X674341Y498772D01*
X674340Y498774D01*
X674342Y498774D01*
X674591Y499173D01*
X675041Y499873D01*
X675041Y499875D01*
X675043Y499876D01*
X675843Y501276D01*
X675842Y501278D01*
X675844Y501278D01*
X676444Y502478D01*
X676444Y502479D01*
X676445Y502479D01*
X676795Y503229D01*
X676794Y503231D01*
X676796Y503231D01*
X677146Y504081D01*
X677145Y504082D01*
X677146Y504083D01*
X677446Y504883D01*
X677696Y505583D01*
X677696Y505584D01*
X677697Y505584D01*
X677997Y506484D01*
X677996Y506486D01*
X677997Y506486D01*
X678247Y507336D01*
X678247Y507338D01*
X678248Y507338D01*
X678498Y508338D01*
X678497Y508340D01*
X678498Y508340D01*
X678648Y509090D01*
X678648Y509091D01*
X678798Y509891D01*
X678798Y509892D01*
X678799Y509892D01*
X678949Y510792D01*
X678948Y510793D01*
X678949Y510793D01*
X679049Y511492D01*
X679098Y511740D01*
X679072Y511794D01*
X679059Y511787D01*
X679050Y511799D01*
X668700Y511799D01*
X668653Y511763D01*
X668658Y511756D01*
X668651Y511750D01*
X668651Y511605D01*
X668502Y510861D01*
X668302Y510062D01*
X668103Y509314D01*
X667854Y508567D01*
X667505Y507720D01*
X667155Y506921D01*
X666756Y506123D01*
X666358Y505425D01*
X665958Y504776D01*
X665609Y504228D01*
X665211Y503680D01*
X664861Y503231D01*
X664413Y502683D01*
X663664Y501884D01*
X663664Y501882D01*
X663663Y501882D01*
X663315Y501485D01*
X662867Y501087D01*
X662867Y501086D01*
X662318Y500588D01*
X661569Y499988D01*
X661121Y499640D01*
X660473Y499191D01*
X659326Y498493D01*
X658577Y498094D01*
X657630Y497645D01*
X657132Y497446D01*
X656233Y497096D01*
X655486Y496847D01*
X654338Y496548D01*
X653691Y496398D01*
X653347Y496349D01*
X653250Y496349D01*
X653203Y496313D01*
X653206Y496309D01*
X653203Y496307D01*
X653205Y496303D01*
X653201Y496300D01*
X653201Y486000D01*
X653237Y485953D01*
X653244Y485958D01*
X653250Y485951D01*
X653500Y485951D01*
X653504Y485954D01*
G37*
G36*
X631347Y43237D02*
X631347Y43237D01*
X631342Y43244D01*
X631349Y43250D01*
X631349Y43395D01*
X631498Y44139D01*
X631698Y44937D01*
X631897Y45686D01*
X632146Y46433D01*
X632495Y47280D01*
X632845Y48079D01*
X633244Y48877D01*
X633642Y49575D01*
X634042Y50224D01*
X634391Y50772D01*
X634789Y51320D01*
X635139Y51769D01*
X635587Y52318D01*
X636336Y53116D01*
X636336Y53118D01*
X636337Y53118D01*
X636685Y53515D01*
X637133Y53913D01*
X637133Y53914D01*
X637682Y54412D01*
X638431Y55012D01*
X638879Y55360D01*
X639527Y55809D01*
X640674Y56507D01*
X641423Y56906D01*
X642370Y57355D01*
X642868Y57554D01*
X643767Y57904D01*
X644514Y58153D01*
X645662Y58452D01*
X646309Y58602D01*
X646653Y58651D01*
X646750Y58651D01*
X646797Y58687D01*
X646792Y58694D01*
X646799Y58700D01*
X646799Y69000D01*
X646763Y69047D01*
X646756Y69042D01*
X646750Y69049D01*
X646500Y69049D01*
X646496Y69046D01*
X646494Y69049D01*
X645694Y68949D01*
X645693Y68948D01*
X645691Y68949D01*
X644841Y68799D01*
X644841Y68798D01*
X644041Y68648D01*
X644040Y68647D01*
X644039Y68648D01*
X643189Y68448D01*
X643188Y68448D01*
X641988Y68148D01*
X641987Y68146D01*
X641985Y68147D01*
X641185Y67897D01*
X641185Y67896D01*
X641184Y67897D01*
X640434Y67647D01*
X640434Y67646D01*
X640434Y67647D01*
X639434Y67297D01*
X639432Y67294D01*
X639431Y67295D01*
X637681Y66545D01*
X637680Y66544D01*
X637679Y66545D01*
X636829Y66145D01*
X636828Y66142D01*
X636826Y66143D01*
X636126Y65743D01*
X635277Y65294D01*
X635276Y65291D01*
X635274Y65292D01*
X634724Y64942D01*
X633924Y64442D01*
X633923Y64440D01*
X633922Y64441D01*
X633272Y63991D01*
X633272Y63990D01*
X633271Y63990D01*
X632571Y63490D01*
X632571Y63489D01*
X632570Y63489D01*
X631970Y63039D01*
X631970Y63038D01*
X631969Y63038D01*
X631469Y62638D01*
X631469Y62637D01*
X631468Y62638D01*
X630818Y62088D01*
X630818Y62087D01*
X630817Y62087D01*
X629917Y61287D01*
X629917Y61285D01*
X629915Y61285D01*
X628815Y60185D01*
X628815Y60183D01*
X628814Y60183D01*
X628214Y59533D01*
X628214Y59532D01*
X628213Y59532D01*
X627863Y59132D01*
X627862Y59132D01*
X627312Y58482D01*
X627312Y58480D01*
X627311Y58480D01*
X626811Y57830D01*
X626461Y57380D01*
X626461Y57378D01*
X626460Y57378D01*
X626110Y56878D01*
X625660Y56228D01*
X625660Y56226D01*
X625658Y56226D01*
X625409Y55827D01*
X624959Y55127D01*
X624959Y55125D01*
X624957Y55124D01*
X624157Y53724D01*
X624158Y53722D01*
X624156Y53722D01*
X623556Y52522D01*
X623556Y52521D01*
X623555Y52521D01*
X623205Y51771D01*
X623206Y51769D01*
X623204Y51769D01*
X622854Y50919D01*
X622855Y50918D01*
X622854Y50917D01*
X622554Y50117D01*
X622304Y49417D01*
X622304Y49416D01*
X622303Y49416D01*
X622003Y48516D01*
X622004Y48514D01*
X622003Y48514D01*
X621753Y47664D01*
X621753Y47662D01*
X621752Y47662D01*
X621502Y46662D01*
X621503Y46661D01*
X621503Y46660D01*
X621502Y46660D01*
X621352Y45910D01*
X621352Y45909D01*
X621202Y45109D01*
X621202Y45108D01*
X621201Y45108D01*
X621051Y44208D01*
X621052Y44207D01*
X621051Y44207D01*
X620951Y43508D01*
X620902Y43260D01*
X620928Y43206D01*
X620941Y43213D01*
X620950Y43201D01*
X631300Y43201D01*
X631347Y43237D01*
G37*
G36*
X631347Y518237D02*
X631347Y518237D01*
X631342Y518244D01*
X631349Y518250D01*
X631349Y518395D01*
X631498Y519139D01*
X631698Y519937D01*
X631897Y520686D01*
X632146Y521433D01*
X632495Y522280D01*
X632845Y523079D01*
X633244Y523877D01*
X633642Y524575D01*
X634042Y525224D01*
X634391Y525772D01*
X634789Y526320D01*
X635139Y526769D01*
X635587Y527318D01*
X636336Y528116D01*
X636336Y528118D01*
X636337Y528118D01*
X636685Y528515D01*
X637133Y528913D01*
X637133Y528914D01*
X637682Y529412D01*
X638431Y530012D01*
X638879Y530360D01*
X639527Y530809D01*
X640674Y531507D01*
X641423Y531906D01*
X642370Y532355D01*
X642868Y532554D01*
X643767Y532904D01*
X644514Y533153D01*
X645662Y533452D01*
X646309Y533602D01*
X646653Y533651D01*
X646750Y533651D01*
X646797Y533687D01*
X646792Y533694D01*
X646799Y533700D01*
X646799Y544000D01*
X646763Y544047D01*
X646756Y544042D01*
X646750Y544049D01*
X646500Y544049D01*
X646496Y544046D01*
X646494Y544049D01*
X645694Y543949D01*
X645693Y543948D01*
X645691Y543949D01*
X644841Y543799D01*
X644841Y543798D01*
X644041Y543648D01*
X644040Y543647D01*
X644039Y543648D01*
X643189Y543448D01*
X643188Y543448D01*
X641988Y543148D01*
X641987Y543146D01*
X641985Y543147D01*
X641185Y542897D01*
X641185Y542896D01*
X641184Y542897D01*
X640434Y542647D01*
X640434Y542646D01*
X640434Y542647D01*
X639434Y542297D01*
X639432Y542294D01*
X639431Y542295D01*
X637681Y541545D01*
X637680Y541544D01*
X637679Y541545D01*
X636829Y541145D01*
X636828Y541142D01*
X636826Y541143D01*
X636126Y540743D01*
X635277Y540294D01*
X635276Y540291D01*
X635274Y540292D01*
X634724Y539942D01*
X633924Y539442D01*
X633923Y539440D01*
X633922Y539441D01*
X633272Y538991D01*
X633272Y538990D01*
X633271Y538990D01*
X632571Y538490D01*
X632571Y538489D01*
X632570Y538489D01*
X631970Y538039D01*
X631970Y538038D01*
X631969Y538038D01*
X631469Y537638D01*
X631469Y537637D01*
X631468Y537638D01*
X630818Y537088D01*
X630818Y537087D01*
X630817Y537087D01*
X629917Y536287D01*
X629917Y536285D01*
X629915Y536285D01*
X628815Y535185D01*
X628815Y535183D01*
X628814Y535183D01*
X628214Y534533D01*
X628214Y534532D01*
X628213Y534532D01*
X627863Y534132D01*
X627862Y534132D01*
X627312Y533482D01*
X627312Y533480D01*
X627311Y533480D01*
X626811Y532830D01*
X626461Y532380D01*
X626461Y532378D01*
X626460Y532378D01*
X626110Y531878D01*
X625660Y531228D01*
X625660Y531226D01*
X625658Y531226D01*
X625409Y530827D01*
X624959Y530127D01*
X624959Y530125D01*
X624957Y530124D01*
X624157Y528724D01*
X624158Y528722D01*
X624156Y528722D01*
X623556Y527522D01*
X623556Y527521D01*
X623555Y527521D01*
X623205Y526771D01*
X623206Y526769D01*
X623204Y526769D01*
X622854Y525919D01*
X622855Y525918D01*
X622854Y525917D01*
X622554Y525117D01*
X622304Y524417D01*
X622304Y524416D01*
X622303Y524416D01*
X622003Y523516D01*
X622004Y523514D01*
X622003Y523514D01*
X621753Y522664D01*
X621753Y522662D01*
X621752Y522662D01*
X621502Y521662D01*
X621503Y521661D01*
X621503Y521660D01*
X621502Y521660D01*
X621352Y520910D01*
X621352Y520909D01*
X621202Y520109D01*
X621202Y520108D01*
X621201Y520108D01*
X621051Y519208D01*
X621052Y519207D01*
X621051Y519207D01*
X620951Y518508D01*
X620902Y518260D01*
X620928Y518206D01*
X620941Y518213D01*
X620950Y518201D01*
X631300Y518201D01*
X631347Y518237D01*
G37*
G36*
X21347Y518237D02*
X21347Y518237D01*
X21342Y518244D01*
X21349Y518250D01*
X21349Y518395D01*
X21498Y519139D01*
X21698Y519937D01*
X21897Y520686D01*
X22146Y521433D01*
X22495Y522280D01*
X22845Y523079D01*
X23244Y523877D01*
X23642Y524575D01*
X24042Y525224D01*
X24391Y525772D01*
X24789Y526320D01*
X25139Y526769D01*
X25587Y527318D01*
X26336Y528116D01*
X26336Y528118D01*
X26337Y528118D01*
X26685Y528515D01*
X27133Y528913D01*
X27133Y528914D01*
X27682Y529412D01*
X28431Y530012D01*
X28879Y530360D01*
X29527Y530809D01*
X30674Y531507D01*
X31423Y531906D01*
X32370Y532355D01*
X32868Y532554D01*
X33767Y532904D01*
X34514Y533153D01*
X35662Y533452D01*
X36309Y533602D01*
X36653Y533651D01*
X36750Y533651D01*
X36797Y533687D01*
X36792Y533694D01*
X36799Y533700D01*
X36799Y544000D01*
X36763Y544047D01*
X36756Y544042D01*
X36750Y544049D01*
X36500Y544049D01*
X36496Y544046D01*
X36494Y544049D01*
X35694Y543949D01*
X35693Y543948D01*
X35691Y543949D01*
X34841Y543799D01*
X34841Y543798D01*
X34041Y543648D01*
X34040Y543647D01*
X34039Y543648D01*
X33189Y543448D01*
X33188Y543448D01*
X31988Y543148D01*
X31987Y543146D01*
X31985Y543147D01*
X31185Y542897D01*
X31185Y542896D01*
X31184Y542897D01*
X30434Y542647D01*
X30434Y542646D01*
X30434Y542647D01*
X29434Y542297D01*
X29432Y542294D01*
X29431Y542295D01*
X27681Y541545D01*
X27680Y541544D01*
X27679Y541545D01*
X26829Y541145D01*
X26828Y541142D01*
X26826Y541143D01*
X26126Y540743D01*
X25277Y540294D01*
X25276Y540291D01*
X25274Y540292D01*
X24724Y539942D01*
X23924Y539442D01*
X23923Y539440D01*
X23922Y539441D01*
X23272Y538991D01*
X23272Y538990D01*
X23271Y538990D01*
X22571Y538490D01*
X22571Y538489D01*
X22570Y538489D01*
X21970Y538039D01*
X21970Y538038D01*
X21969Y538038D01*
X21469Y537638D01*
X21469Y537637D01*
X21468Y537638D01*
X20818Y537088D01*
X20818Y537087D01*
X20817Y537087D01*
X19917Y536287D01*
X19917Y536285D01*
X19915Y536285D01*
X18815Y535185D01*
X18815Y535183D01*
X18814Y535183D01*
X18214Y534533D01*
X18214Y534532D01*
X18213Y534532D01*
X17863Y534132D01*
X17862Y534132D01*
X17312Y533482D01*
X17312Y533480D01*
X17311Y533480D01*
X16811Y532830D01*
X16461Y532380D01*
X16461Y532378D01*
X16460Y532378D01*
X16110Y531878D01*
X15660Y531228D01*
X15660Y531226D01*
X15658Y531226D01*
X15409Y530827D01*
X14959Y530127D01*
X14959Y530125D01*
X14957Y530124D01*
X14157Y528724D01*
X14158Y528722D01*
X14156Y528722D01*
X13556Y527522D01*
X13556Y527521D01*
X13555Y527521D01*
X13205Y526771D01*
X13206Y526769D01*
X13204Y526769D01*
X12854Y525919D01*
X12855Y525918D01*
X12854Y525917D01*
X12554Y525117D01*
X12304Y524417D01*
X12304Y524416D01*
X12303Y524416D01*
X12003Y523516D01*
X12004Y523514D01*
X12003Y523514D01*
X11753Y522664D01*
X11753Y522662D01*
X11752Y522662D01*
X11502Y521662D01*
X11503Y521661D01*
X11503Y521660D01*
X11502Y521660D01*
X11352Y520910D01*
X11352Y520909D01*
X11202Y520109D01*
X11202Y520108D01*
X11201Y520108D01*
X11051Y519208D01*
X11052Y519207D01*
X11051Y519207D01*
X10951Y518508D01*
X10902Y518260D01*
X10928Y518206D01*
X10941Y518213D01*
X10950Y518201D01*
X21300Y518201D01*
X21347Y518237D01*
G37*
G36*
X679047Y518237D02*
X679047Y518237D01*
X679042Y518244D01*
X679049Y518250D01*
X679049Y518500D01*
X679046Y518504D01*
X679049Y518506D01*
X678949Y519306D01*
X678948Y519308D01*
X678949Y519309D01*
X678799Y520159D01*
X678798Y520159D01*
X678648Y520959D01*
X678647Y520960D01*
X678648Y520961D01*
X678448Y521811D01*
X678448Y521812D01*
X678148Y523012D01*
X678146Y523013D01*
X678147Y523015D01*
X677897Y523815D01*
X677896Y523815D01*
X677897Y523816D01*
X677647Y524566D01*
X677646Y524566D01*
X677647Y524566D01*
X677297Y525566D01*
X677294Y525568D01*
X677295Y525569D01*
X676545Y527319D01*
X676544Y527320D01*
X676545Y527321D01*
X676145Y528171D01*
X676142Y528172D01*
X676143Y528174D01*
X675743Y528874D01*
X675294Y529723D01*
X675291Y529724D01*
X675292Y529726D01*
X674942Y530276D01*
X674442Y531076D01*
X674440Y531077D01*
X674441Y531078D01*
X673991Y531728D01*
X673990Y531728D01*
X673990Y531729D01*
X673490Y532429D01*
X673489Y532429D01*
X673489Y532430D01*
X673039Y533030D01*
X673038Y533030D01*
X673038Y533031D01*
X672638Y533531D01*
X672637Y533531D01*
X672638Y533532D01*
X672088Y534182D01*
X672087Y534182D01*
X672087Y534183D01*
X671287Y535083D01*
X671285Y535083D01*
X671285Y535085D01*
X670185Y536185D01*
X670183Y536185D01*
X670183Y536186D01*
X669533Y536786D01*
X669532Y536786D01*
X669532Y536787D01*
X669132Y537137D01*
X669132Y537138D01*
X668482Y537688D01*
X668480Y537688D01*
X668480Y537689D01*
X667830Y538189D01*
X667380Y538539D01*
X667378Y538539D01*
X667378Y538540D01*
X666878Y538890D01*
X666878Y538891D01*
X666228Y539341D01*
X666226Y539340D01*
X666226Y539342D01*
X665827Y539591D01*
X665127Y540041D01*
X665125Y540041D01*
X665124Y540043D01*
X663724Y540843D01*
X663722Y540842D01*
X663722Y540844D01*
X662522Y541444D01*
X662521Y541444D01*
X662521Y541445D01*
X661771Y541795D01*
X661769Y541794D01*
X661769Y541796D01*
X660919Y542146D01*
X660918Y542145D01*
X660917Y542146D01*
X660117Y542446D01*
X659417Y542696D01*
X659416Y542696D01*
X659416Y542697D01*
X658516Y542997D01*
X658514Y542996D01*
X658514Y542997D01*
X657664Y543247D01*
X657662Y543247D01*
X657662Y543248D01*
X656662Y543498D01*
X656660Y543497D01*
X656660Y543498D01*
X655910Y543648D01*
X655909Y543648D01*
X655109Y543798D01*
X655108Y543798D01*
X655108Y543799D01*
X654208Y543949D01*
X654207Y543948D01*
X654207Y543949D01*
X653508Y544049D01*
X653260Y544098D01*
X653206Y544072D01*
X653213Y544059D01*
X653201Y544050D01*
X653201Y533700D01*
X653237Y533653D01*
X653244Y533658D01*
X653250Y533651D01*
X653395Y533651D01*
X654139Y533502D01*
X654937Y533302D01*
X655686Y533103D01*
X656433Y532854D01*
X657280Y532505D01*
X658079Y532155D01*
X658877Y531756D01*
X659575Y531358D01*
X660224Y530958D01*
X660772Y530609D01*
X661320Y530211D01*
X661769Y529861D01*
X662318Y529413D01*
X663116Y528664D01*
X663118Y528664D01*
X663118Y528663D01*
X663515Y528315D01*
X663913Y527867D01*
X663914Y527867D01*
X664412Y527318D01*
X665012Y526569D01*
X665360Y526121D01*
X665809Y525473D01*
X666507Y524326D01*
X666906Y523577D01*
X667355Y522630D01*
X667554Y522132D01*
X667904Y521233D01*
X668153Y520486D01*
X668452Y519338D01*
X668602Y518691D01*
X668651Y518347D01*
X668651Y518250D01*
X668687Y518203D01*
X668694Y518208D01*
X668700Y518201D01*
X679000Y518201D01*
X679047Y518237D01*
G37*
G36*
X653504Y10954D02*
X653504Y10954D01*
X653506Y10951D01*
X654306Y11051D01*
X654308Y11053D01*
X654309Y11052D01*
X655159Y11202D01*
X655959Y11352D01*
X655960Y11353D01*
X655961Y11352D01*
X656811Y11552D01*
X656812Y11552D01*
X658012Y11852D01*
X658013Y11854D01*
X658015Y11853D01*
X658815Y12103D01*
X658815Y12104D01*
X658816Y12103D01*
X659566Y12353D01*
X659566Y12354D01*
X660566Y12704D01*
X660568Y12706D01*
X660569Y12705D01*
X662319Y13455D01*
X662320Y13456D01*
X662321Y13455D01*
X663171Y13855D01*
X663172Y13858D01*
X663174Y13857D01*
X663874Y14257D01*
X664723Y14706D01*
X664724Y14709D01*
X664726Y14708D01*
X665276Y15058D01*
X666076Y15558D01*
X666077Y15560D01*
X666078Y15560D01*
X666728Y16010D01*
X666729Y16010D01*
X667429Y16510D01*
X667429Y16511D01*
X667430Y16511D01*
X668030Y16961D01*
X668030Y16962D01*
X668031Y16962D01*
X668531Y17362D01*
X668531Y17363D01*
X668532Y17362D01*
X669182Y17912D01*
X669182Y17913D01*
X669183Y17913D01*
X670083Y18713D01*
X670083Y18715D01*
X670085Y18715D01*
X671185Y19815D01*
X671185Y19817D01*
X671186Y19817D01*
X671786Y20467D01*
X671786Y20468D01*
X671787Y20468D01*
X672137Y20868D01*
X672138Y20868D01*
X672688Y21518D01*
X672688Y21520D01*
X672689Y21520D01*
X673189Y22170D01*
X673539Y22620D01*
X673539Y22622D01*
X673540Y22622D01*
X673890Y23122D01*
X673891Y23122D01*
X674341Y23772D01*
X674340Y23774D01*
X674342Y23774D01*
X674591Y24173D01*
X675041Y24873D01*
X675041Y24875D01*
X675043Y24876D01*
X675843Y26276D01*
X675842Y26278D01*
X675844Y26278D01*
X676444Y27478D01*
X676444Y27479D01*
X676445Y27479D01*
X676795Y28229D01*
X676794Y28231D01*
X676796Y28231D01*
X677146Y29081D01*
X677145Y29082D01*
X677146Y29083D01*
X677446Y29883D01*
X677696Y30583D01*
X677696Y30584D01*
X677697Y30584D01*
X677997Y31484D01*
X677996Y31486D01*
X677997Y31486D01*
X678247Y32336D01*
X678247Y32338D01*
X678248Y32338D01*
X678498Y33338D01*
X678497Y33340D01*
X678498Y33340D01*
X678648Y34090D01*
X678648Y34091D01*
X678798Y34891D01*
X678798Y34892D01*
X678799Y34892D01*
X678949Y35792D01*
X678948Y35793D01*
X678949Y35793D01*
X679049Y36492D01*
X679098Y36740D01*
X679072Y36794D01*
X679059Y36787D01*
X679050Y36799D01*
X668700Y36799D01*
X668653Y36763D01*
X668658Y36756D01*
X668651Y36750D01*
X668651Y36605D01*
X668502Y35861D01*
X668302Y35062D01*
X668103Y34314D01*
X667854Y33567D01*
X667505Y32720D01*
X667155Y31921D01*
X666756Y31123D01*
X666358Y30425D01*
X665958Y29776D01*
X665609Y29228D01*
X665211Y28680D01*
X664861Y28231D01*
X664413Y27683D01*
X663664Y26884D01*
X663664Y26882D01*
X663663Y26882D01*
X663315Y26485D01*
X662867Y26087D01*
X662867Y26086D01*
X662318Y25588D01*
X661569Y24988D01*
X661121Y24640D01*
X660473Y24191D01*
X659326Y23493D01*
X658577Y23094D01*
X657630Y22645D01*
X657132Y22446D01*
X656233Y22096D01*
X655486Y21847D01*
X654338Y21548D01*
X653691Y21398D01*
X653347Y21349D01*
X653250Y21349D01*
X653203Y21313D01*
X653206Y21309D01*
X653203Y21307D01*
X653205Y21303D01*
X653201Y21300D01*
X653201Y11000D01*
X653237Y10953D01*
X653244Y10958D01*
X653250Y10951D01*
X653500Y10951D01*
X653504Y10954D01*
G37*
G36*
X679047Y43237D02*
X679047Y43237D01*
X679042Y43244D01*
X679049Y43250D01*
X679049Y43500D01*
X679046Y43504D01*
X679049Y43506D01*
X678949Y44306D01*
X678948Y44308D01*
X678949Y44309D01*
X678799Y45159D01*
X678798Y45159D01*
X678648Y45959D01*
X678647Y45960D01*
X678648Y45961D01*
X678448Y46811D01*
X678448Y46812D01*
X678148Y48012D01*
X678146Y48013D01*
X678147Y48015D01*
X677897Y48815D01*
X677896Y48815D01*
X677897Y48816D01*
X677647Y49566D01*
X677646Y49566D01*
X677647Y49566D01*
X677297Y50566D01*
X677294Y50568D01*
X677295Y50569D01*
X676545Y52319D01*
X676544Y52320D01*
X676545Y52321D01*
X676145Y53171D01*
X676142Y53172D01*
X676143Y53174D01*
X675743Y53874D01*
X675294Y54723D01*
X675291Y54724D01*
X675292Y54726D01*
X674942Y55276D01*
X674442Y56076D01*
X674440Y56077D01*
X674441Y56078D01*
X673991Y56728D01*
X673990Y56728D01*
X673990Y56729D01*
X673490Y57429D01*
X673489Y57429D01*
X673489Y57430D01*
X673039Y58030D01*
X673038Y58030D01*
X673038Y58031D01*
X672638Y58531D01*
X672637Y58531D01*
X672638Y58532D01*
X672088Y59182D01*
X672087Y59182D01*
X672087Y59183D01*
X671287Y60083D01*
X671285Y60083D01*
X671285Y60085D01*
X670185Y61185D01*
X670183Y61185D01*
X670183Y61186D01*
X669533Y61786D01*
X669532Y61786D01*
X669532Y61787D01*
X669132Y62137D01*
X669132Y62138D01*
X668482Y62688D01*
X668480Y62688D01*
X668480Y62689D01*
X667830Y63189D01*
X667380Y63539D01*
X667378Y63539D01*
X667378Y63540D01*
X666878Y63890D01*
X666878Y63891D01*
X666228Y64341D01*
X666226Y64340D01*
X666226Y64342D01*
X665827Y64591D01*
X665127Y65041D01*
X665125Y65041D01*
X665124Y65043D01*
X663724Y65843D01*
X663722Y65842D01*
X663722Y65844D01*
X662522Y66444D01*
X662521Y66444D01*
X662521Y66445D01*
X661771Y66795D01*
X661769Y66794D01*
X661769Y66796D01*
X660919Y67146D01*
X660918Y67145D01*
X660917Y67146D01*
X660117Y67446D01*
X659417Y67696D01*
X659416Y67696D01*
X659416Y67697D01*
X658516Y67997D01*
X658514Y67996D01*
X658514Y67997D01*
X657664Y68247D01*
X657662Y68247D01*
X657662Y68248D01*
X656662Y68498D01*
X656660Y68497D01*
X656660Y68498D01*
X655910Y68648D01*
X655909Y68648D01*
X655109Y68798D01*
X655108Y68798D01*
X655108Y68799D01*
X654208Y68949D01*
X654207Y68948D01*
X654207Y68949D01*
X653508Y69049D01*
X653260Y69098D01*
X653206Y69072D01*
X653213Y69059D01*
X653201Y69050D01*
X653201Y58700D01*
X653237Y58653D01*
X653244Y58658D01*
X653250Y58651D01*
X653395Y58651D01*
X654139Y58502D01*
X654937Y58302D01*
X655686Y58103D01*
X656433Y57854D01*
X657280Y57505D01*
X658079Y57155D01*
X658877Y56756D01*
X659575Y56358D01*
X660224Y55958D01*
X660772Y55609D01*
X661320Y55211D01*
X661769Y54861D01*
X662318Y54413D01*
X663116Y53664D01*
X663118Y53664D01*
X663118Y53663D01*
X663515Y53315D01*
X663913Y52867D01*
X663914Y52867D01*
X664412Y52318D01*
X665012Y51569D01*
X665360Y51121D01*
X665809Y50473D01*
X666507Y49326D01*
X666906Y48577D01*
X667355Y47630D01*
X667554Y47132D01*
X667904Y46233D01*
X668153Y45486D01*
X668452Y44338D01*
X668602Y43691D01*
X668651Y43347D01*
X668651Y43250D01*
X668687Y43203D01*
X668694Y43208D01*
X668700Y43201D01*
X679000Y43201D01*
X679047Y43237D01*
G37*
G36*
X69047Y518237D02*
X69047Y518237D01*
X69042Y518244D01*
X69049Y518250D01*
X69049Y518500D01*
X69046Y518504D01*
X69049Y518506D01*
X68949Y519306D01*
X68948Y519308D01*
X68949Y519309D01*
X68799Y520159D01*
X68798Y520159D01*
X68648Y520959D01*
X68647Y520960D01*
X68648Y520961D01*
X68448Y521811D01*
X68448Y521812D01*
X68148Y523012D01*
X68146Y523013D01*
X68147Y523015D01*
X67897Y523815D01*
X67896Y523815D01*
X67897Y523816D01*
X67647Y524566D01*
X67646Y524566D01*
X67647Y524566D01*
X67297Y525566D01*
X67294Y525568D01*
X67295Y525569D01*
X66545Y527319D01*
X66544Y527320D01*
X66545Y527321D01*
X66145Y528171D01*
X66142Y528172D01*
X66143Y528174D01*
X65743Y528874D01*
X65294Y529723D01*
X65291Y529724D01*
X65292Y529726D01*
X64942Y530276D01*
X64442Y531076D01*
X64440Y531077D01*
X64441Y531078D01*
X63991Y531728D01*
X63990Y531728D01*
X63990Y531729D01*
X63490Y532429D01*
X63489Y532429D01*
X63489Y532430D01*
X63039Y533030D01*
X63038Y533030D01*
X63038Y533031D01*
X62638Y533531D01*
X62637Y533531D01*
X62638Y533532D01*
X62088Y534182D01*
X62087Y534182D01*
X62087Y534183D01*
X61287Y535083D01*
X61285Y535083D01*
X61285Y535085D01*
X60185Y536185D01*
X60183Y536185D01*
X60183Y536186D01*
X59533Y536786D01*
X59532Y536786D01*
X59532Y536787D01*
X59132Y537137D01*
X59132Y537138D01*
X58482Y537688D01*
X58480Y537688D01*
X58480Y537689D01*
X57830Y538189D01*
X57380Y538539D01*
X57378Y538539D01*
X57378Y538540D01*
X56878Y538890D01*
X56878Y538891D01*
X56228Y539341D01*
X56226Y539340D01*
X56226Y539342D01*
X55827Y539591D01*
X55127Y540041D01*
X55125Y540041D01*
X55124Y540043D01*
X53724Y540843D01*
X53722Y540842D01*
X53722Y540844D01*
X52522Y541444D01*
X52521Y541444D01*
X52521Y541445D01*
X51771Y541795D01*
X51769Y541794D01*
X51769Y541796D01*
X50919Y542146D01*
X50918Y542145D01*
X50917Y542146D01*
X50117Y542446D01*
X49417Y542696D01*
X49416Y542696D01*
X49416Y542697D01*
X48516Y542997D01*
X48514Y542996D01*
X48514Y542997D01*
X47664Y543247D01*
X47662Y543247D01*
X47662Y543248D01*
X46662Y543498D01*
X46660Y543497D01*
X46660Y543498D01*
X45910Y543648D01*
X45909Y543648D01*
X45109Y543798D01*
X45108Y543798D01*
X45108Y543799D01*
X44208Y543949D01*
X44207Y543948D01*
X44207Y543949D01*
X43508Y544049D01*
X43260Y544098D01*
X43206Y544072D01*
X43213Y544059D01*
X43201Y544050D01*
X43201Y533700D01*
X43237Y533653D01*
X43244Y533658D01*
X43250Y533651D01*
X43395Y533651D01*
X44139Y533502D01*
X44937Y533302D01*
X45686Y533103D01*
X46433Y532854D01*
X47280Y532505D01*
X48079Y532155D01*
X48877Y531756D01*
X49575Y531358D01*
X50224Y530958D01*
X50772Y530609D01*
X51320Y530211D01*
X51769Y529861D01*
X52318Y529413D01*
X53116Y528664D01*
X53118Y528664D01*
X53118Y528663D01*
X53515Y528315D01*
X53913Y527867D01*
X53914Y527867D01*
X54412Y527318D01*
X55012Y526569D01*
X55360Y526121D01*
X55809Y525473D01*
X56507Y524326D01*
X56906Y523577D01*
X57355Y522630D01*
X57554Y522132D01*
X57904Y521233D01*
X58153Y520486D01*
X58452Y519338D01*
X58602Y518691D01*
X58651Y518347D01*
X58651Y518250D01*
X58687Y518203D01*
X58694Y518208D01*
X58700Y518201D01*
X69000Y518201D01*
X69047Y518237D01*
G37*
G36*
X646794Y10928D02*
X646794Y10928D01*
X646787Y10941D01*
X646799Y10950D01*
X646799Y21300D01*
X646763Y21347D01*
X646756Y21342D01*
X646750Y21349D01*
X646605Y21349D01*
X645861Y21498D01*
X645063Y21698D01*
X644314Y21897D01*
X643567Y22146D01*
X642720Y22495D01*
X641921Y22845D01*
X641123Y23244D01*
X640425Y23642D01*
X639776Y24042D01*
X639228Y24391D01*
X638680Y24789D01*
X638231Y25139D01*
X637683Y25587D01*
X636884Y26336D01*
X636882Y26336D01*
X636882Y26337D01*
X636485Y26685D01*
X636087Y27133D01*
X636086Y27133D01*
X635588Y27682D01*
X634988Y28431D01*
X634640Y28879D01*
X634191Y29527D01*
X633493Y30674D01*
X633094Y31423D01*
X632645Y32370D01*
X632446Y32868D01*
X632096Y33767D01*
X631847Y34514D01*
X631548Y35661D01*
X631398Y36309D01*
X631349Y36653D01*
X631349Y36750D01*
X631313Y36797D01*
X631306Y36792D01*
X631300Y36799D01*
X621000Y36799D01*
X620953Y36763D01*
X620958Y36756D01*
X620951Y36750D01*
X620951Y36500D01*
X620954Y36496D01*
X620951Y36494D01*
X621051Y35694D01*
X621053Y35693D01*
X621052Y35691D01*
X621202Y34841D01*
X621352Y34041D01*
X621353Y34040D01*
X621352Y34039D01*
X621552Y33189D01*
X621552Y33188D01*
X621852Y31988D01*
X621854Y31987D01*
X621853Y31985D01*
X622103Y31185D01*
X622104Y31185D01*
X622103Y31184D01*
X622353Y30434D01*
X622354Y30434D01*
X622704Y29434D01*
X622706Y29432D01*
X622705Y29431D01*
X623455Y27681D01*
X623456Y27680D01*
X623455Y27679D01*
X623855Y26829D01*
X623858Y26828D01*
X623857Y26826D01*
X624257Y26126D01*
X624706Y25277D01*
X624709Y25276D01*
X624708Y25274D01*
X625058Y24724D01*
X625558Y23924D01*
X625560Y23923D01*
X625560Y23922D01*
X626010Y23272D01*
X626010Y23271D01*
X626510Y22571D01*
X626511Y22571D01*
X626511Y22570D01*
X626961Y21970D01*
X626962Y21970D01*
X626962Y21969D01*
X627362Y21469D01*
X627363Y21469D01*
X627362Y21468D01*
X627912Y20818D01*
X627913Y20818D01*
X627913Y20817D01*
X628713Y19917D01*
X628715Y19917D01*
X628715Y19915D01*
X629815Y18815D01*
X629817Y18815D01*
X629817Y18814D01*
X630467Y18214D01*
X630468Y18214D01*
X630468Y18213D01*
X630868Y17863D01*
X630868Y17862D01*
X631518Y17312D01*
X631520Y17312D01*
X631520Y17311D01*
X632170Y16811D01*
X632620Y16461D01*
X632622Y16461D01*
X632622Y16460D01*
X633122Y16110D01*
X633772Y15660D01*
X633774Y15660D01*
X633774Y15658D01*
X634173Y15409D01*
X634873Y14959D01*
X634875Y14959D01*
X634876Y14957D01*
X636276Y14157D01*
X636278Y14158D01*
X636278Y14156D01*
X637478Y13556D01*
X637479Y13556D01*
X637479Y13555D01*
X638229Y13205D01*
X638231Y13206D01*
X638231Y13204D01*
X639081Y12854D01*
X639082Y12855D01*
X639083Y12854D01*
X639883Y12554D01*
X640583Y12304D01*
X640584Y12304D01*
X640584Y12303D01*
X641484Y12003D01*
X641486Y12004D01*
X641486Y12003D01*
X642336Y11753D01*
X642338Y11753D01*
X642338Y11752D01*
X643338Y11502D01*
X643340Y11503D01*
X643340Y11502D01*
X644090Y11352D01*
X644091Y11352D01*
X644891Y11202D01*
X644892Y11202D01*
X644892Y11201D01*
X645792Y11051D01*
X645793Y11052D01*
X645793Y11051D01*
X646492Y10951D01*
X646740Y10902D01*
X646794Y10928D01*
G37*
D10*
X393000Y182000D03*
X421000Y182000D03*
X393000Y159000D03*
X421000Y159000D03*
D11*
X330000Y88500D03*
X330000Y127500D03*
D12*
X379400Y108650D03*
X379400Y121350D03*
X379400Y134050D03*
X379400Y95950D03*
X434600Y108650D03*
X434600Y121350D03*
X434600Y134050D03*
X434600Y95950D03*
D13*
X318505Y157000D03*
X365495Y157000D03*
D14*
G36*
X537564Y87188D02*
X545446Y95070D01*
X555070Y85446D01*
X547188Y77564D01*
X537564Y87188D01*
G37*
G36*
X514930Y64554D02*
X522812Y72436D01*
X532436Y62812D01*
X524554Y54930D01*
X514930Y64554D01*
G37*
G36*
X557564Y67188D02*
X565446Y75070D01*
X575070Y65446D01*
X567188Y57564D01*
X557564Y67188D01*
G37*
G36*
X534930Y44554D02*
X542812Y52436D01*
X552436Y42812D01*
X544554Y34930D01*
X534930Y44554D01*
G37*
D15*
X520400Y242900D03*
X520400Y293700D03*
D16*
X406100Y268300D03*
D17*
X553000Y216840D03*
X553000Y245280D03*
D18*
X500780Y216380D03*
X529220Y216380D03*
D15*
X520400Y382900D03*
X520400Y433700D03*
D16*
X406100Y408300D03*
D17*
X553000Y355840D03*
X553000Y384280D03*
D18*
X500780Y355380D03*
X529220Y355380D03*
D14*
X260996Y165000D03*
X293004Y165000D03*
X260996Y140000D03*
X293004Y140000D03*
D15*
X280400Y242900D03*
X280400Y293700D03*
D16*
X166100Y268300D03*
D17*
X315680Y213840D03*
X315680Y242280D03*
D18*
X264780Y213380D03*
X293220Y213380D03*
D15*
X280400Y382900D03*
X280400Y433700D03*
D16*
X166100Y408300D03*
D17*
X317680Y354840D03*
X317680Y383280D03*
D18*
X265920Y354380D03*
X294360Y354380D03*
D19*
X87000Y369000D03*
X36000Y369000D03*
X87000Y433000D03*
X36000Y433000D03*
X87000Y305000D03*
X36000Y305000D03*
X87000Y241000D03*
X36000Y241000D03*
D20*
X215000Y101004D03*
X215000Y68996D03*
X190000Y124504D03*
X190000Y92496D03*
X190000Y174504D03*
X190000Y142496D03*
D13*
X221000Y130505D03*
X221000Y177495D03*
D14*
G36*
X617564Y147188D02*
X625446Y155070D01*
X635070Y145446D01*
X627188Y137564D01*
X617564Y147188D01*
G37*
G36*
X594930Y124554D02*
X602812Y132436D01*
X612436Y122812D01*
X604554Y114930D01*
X594930Y124554D01*
G37*
G36*
X592564Y167188D02*
X600446Y175070D01*
X610070Y165446D01*
X602188Y157564D01*
X592564Y167188D01*
G37*
G36*
X569930Y144554D02*
X577812Y152436D01*
X587436Y142812D01*
X579554Y134930D01*
X569930Y144554D01*
G37*
G36*
X652564Y182188D02*
X660446Y190070D01*
X670070Y180446D01*
X662188Y172564D01*
X652564Y182188D01*
G37*
G36*
X629930Y159554D02*
X637812Y167436D01*
X647436Y157812D01*
X639554Y149930D01*
X629930Y159554D01*
G37*
D21*
G36*
X638653Y221613D02*
X656613Y239573D01*
X674573Y221613D01*
X656613Y203653D01*
X638653Y221613D01*
G37*
G36*
X641347Y188387D02*
X623387Y170427D01*
X605427Y188387D01*
X623387Y206347D01*
X641347Y188387D01*
G37*
D13*
X413495Y50000D03*
X366505Y50000D03*
D17*
X24000Y117780D03*
X24000Y146220D03*
D18*
X473780Y71000D03*
X502220Y71000D03*
D22*
X24000Y201500D03*
X24000Y166500D03*
X505500Y50000D03*
X470500Y50000D03*
D23*
G36*
X161181Y161575D02*
X151989Y152383D01*
X141383Y162989D01*
X150575Y172181D01*
X161181Y161575D01*
G37*
G36*
X174617Y175011D02*
X165425Y165819D01*
X154819Y176425D01*
X164011Y185617D01*
X174617Y175011D01*
G37*
D14*
X263996Y50000D03*
X296004Y50000D03*
D20*
X290000Y101004D03*
X290000Y68996D03*
X265000Y101004D03*
X265000Y68996D03*
X240000Y101004D03*
X240000Y68996D03*
D14*
G36*
X577564Y47188D02*
X585446Y55070D01*
X595070Y45446D01*
X587188Y37564D01*
X577564Y47188D01*
G37*
G36*
X554930Y24554D02*
X562812Y32436D01*
X572436Y22812D01*
X564554Y14930D01*
X554930Y24554D01*
G37*
G36*
X612564Y82188D02*
X620446Y90070D01*
X630070Y80446D01*
X622188Y72564D01*
X612564Y82188D01*
G37*
G36*
X589930Y59554D02*
X597812Y67436D01*
X607436Y57812D01*
X599554Y49930D01*
X589930Y59554D01*
G37*
G36*
X592564Y102188D02*
X600446Y110070D01*
X610070Y100446D01*
X602188Y92564D01*
X592564Y102188D01*
G37*
G36*
X569930Y79554D02*
X577812Y87436D01*
X587436Y77812D01*
X579554Y69930D01*
X569930Y79554D01*
G37*
G36*
X572564Y122188D02*
X580446Y130070D01*
X590070Y120446D01*
X582188Y112564D01*
X572564Y122188D01*
G37*
G36*
X549930Y99554D02*
X557812Y107436D01*
X567436Y97812D01*
X559554Y89930D01*
X549930Y99554D01*
G37*
M02*
