M48
;GenerationSoftware,Autodesk,EAGLE,9.6.2*%
;CreationDate,2022-02-02T23:22:18Z*%
FMAT,2
ICI,OFF
METRIC,TZ,000.000
T7C0.350
T6C0.900
T5C1.020
T4C1.840
T3C1.854
T2C3.000
T1C4.400
%
G90
M71
T1
X96000Y74000
X62000Y5000
X67000Y20000
X92000Y45000
X106000Y5000
X153500Y5000
X153500Y66000
X5000Y5000
X52500Y5000
X52500Y66000
T2
X147560Y92950
X167240Y92950
T3
X63880Y88000
X33000Y88000
X25380Y88000
X91000Y88000
X83380Y88000
X14000Y88000
X6380Y88000
X110000Y88000
X102380Y88000
X52000Y88000
X44380Y88000
X129000Y88000
X121380Y88000
X163900Y54300
X163900Y61920
X71500Y88000
T4
X169000Y70500
X62500Y80125
X42000Y80000
X82000Y80000
X23000Y80000
X67750Y80125
X73000Y80125
X4000Y80000
T5
X145400Y88650
X145400Y85650
X148400Y88650
X148400Y85650
X151400Y88650
X151400Y85650
X154400Y88650
X154400Y85650
X169400Y88650
X157400Y85650
X160400Y88650
X160400Y85650
X163400Y88650
X163400Y85650
X166400Y88650
X166400Y85650
X169400Y85650
X157400Y88650
T6
X81700Y75540
X51000Y23920
X81700Y73000
X79160Y75540
X79160Y73000
X76620Y75540
X76620Y73000
X74080Y75540
X74080Y73000
X71540Y75540
X71540Y73000
X69000Y75540
X69000Y73000
X81700Y5540
X81700Y3000
X79160Y5540
X79160Y3000
X76620Y5540
X76620Y3000
X74080Y5540
X74080Y3000
X71540Y5540
X71540Y3000
X69000Y5540
X69000Y3000
X65460Y26200
X68000Y26200
X65460Y28740
X68000Y28740
X65460Y31280
X68000Y31280
X65460Y33820
X68000Y33820
X65460Y36360
X68000Y36360
X65460Y38900
X68000Y38900
X93540Y36900
X91000Y36900
X93540Y34360
X91000Y34360
X93540Y31820
X91000Y31820
X93540Y29280
X91000Y29280
X93540Y26740
X91000Y26740
X93540Y24200
X91000Y24200
X154540Y16300
X154540Y18840
X154540Y21380
X154540Y23920
X154540Y26460
X154540Y29000
X152000Y16300
X152000Y18840
X152000Y21380
X152000Y23920
X152000Y26460
X152000Y29000
X108240Y52600
X108240Y55140
X108240Y57680
X108240Y60220
X108240Y62760
X108240Y65300
X105700Y52600
X105700Y55140
X105700Y57680
X105700Y60220
X105700Y62760
X105700Y65300
X53540Y16300
X53540Y18840
X4700Y65300
X4700Y62760
X4700Y60220
X4700Y57680
X4700Y55140
X4700Y52600
X7240Y65300
X7240Y62760
X7240Y60220
X7240Y57680
X7240Y55140
X7240Y52600
X51000Y29000
X51000Y26460
X53540Y21380
X51000Y21380
X51000Y18840
X51000Y16300
X53540Y29000
X53540Y26460
X53540Y23920
T7
X16000Y55000
X33000Y20000
X35000Y20000
X33000Y18000
X31000Y18000
X31000Y20000
X35000Y18000
X37000Y18000
X37000Y20000
X39000Y20000
X39000Y18000
X39000Y16000
X37000Y16000
X35000Y16000
X33000Y16000
X31000Y16000
X18000Y55000
X31000Y14000
X33000Y14000
X35000Y14000
X37000Y14000
X39000Y14000
X31000Y12000
X33000Y12000
X35000Y12000
X37000Y12000
X39000Y12000
X31000Y10000
X33000Y10000
X35000Y10000
X37000Y10000
X39000Y10000
X39000Y8000
X37000Y8000
X35000Y8000
X33000Y8000
X31000Y8000
X31000Y6000
X33000Y6000
X35000Y6000
X37000Y6000
X39000Y6000
X39000Y4000
X37000Y4000
X35000Y4000
X33000Y4000
X31000Y4000
X12000Y52000
X14000Y52000
X16000Y52000
X18000Y52000
X139300Y58146
X118000Y58146
X139300Y59054
X97000Y22000
X164000Y11000
X164000Y12000
X164000Y13000
X118000Y59054
X117700Y67700
X116600Y82600
X117700Y68609
X117700Y81900
X77900Y55700
X77900Y59200
X170000Y50000
X18000Y58000
X16000Y58000
X14000Y58000
X12000Y58000
X2000Y47000
X4000Y47000
X6000Y47000
X8000Y47000
X10000Y47000
X18000Y47000
X16000Y47000
X14000Y47000
X12000Y47000
X12000Y55000
X14000Y55000
X164000Y14000
M30