G04 EAGLE Gerber RS-274X export*
G75*
%MOMM*%
%FSLAX34Y34*%
%LPD*%
%INCopper Layer 15*%
%IPPOS*%
%AMOC8*
5,1,8,0,0,1.08239X$1,22.5*%
G01*
%ADD10C,2.781300*%
%ADD11C,1.530000*%
%ADD12C,2.760000*%
%ADD13C,5.416000*%
%ADD14C,1.408000*%
%ADD15C,0.756400*%
%ADD16C,0.406400*%
%ADD17C,0.152400*%

G36*
X850050Y11172D02*
X850050Y11172D01*
X850101Y11174D01*
X850133Y11192D01*
X850169Y11200D01*
X850208Y11233D01*
X850253Y11257D01*
X850274Y11287D01*
X850302Y11310D01*
X850323Y11357D01*
X850353Y11399D01*
X850361Y11441D01*
X850373Y11469D01*
X850372Y11499D01*
X850380Y11541D01*
X850380Y26001D01*
X1013060Y26001D01*
X1013121Y26015D01*
X1013184Y26021D01*
X1013204Y26035D01*
X1013228Y26040D01*
X1013277Y26080D01*
X1013330Y26114D01*
X1013343Y26135D01*
X1013362Y26150D01*
X1013388Y26208D01*
X1013421Y26262D01*
X1013423Y26286D01*
X1013433Y26309D01*
X1013431Y26371D01*
X1013436Y26434D01*
X1013427Y26460D01*
X1013426Y26482D01*
X1013409Y26515D01*
X1013389Y26571D01*
X1011468Y29898D01*
X1011059Y31425D01*
X1010550Y33326D01*
X1010040Y35227D01*
X1009531Y37129D01*
X1007919Y43143D01*
X1007919Y56857D01*
X1011468Y70102D01*
X1018325Y81978D01*
X1028022Y91675D01*
X1039898Y98532D01*
X1053143Y102081D01*
X1066857Y102081D01*
X1080102Y98532D01*
X1091978Y91675D01*
X1101675Y81978D01*
X1108532Y70102D01*
X1109270Y67347D01*
X1109779Y65446D01*
X1110289Y63545D01*
X1110798Y61644D01*
X1110798Y61643D01*
X1111308Y59742D01*
X1111817Y57841D01*
X1112081Y56857D01*
X1112081Y43143D01*
X1108532Y29898D01*
X1106611Y26571D01*
X1106593Y26511D01*
X1106567Y26453D01*
X1106568Y26429D01*
X1106561Y26405D01*
X1106571Y26343D01*
X1106574Y26280D01*
X1106585Y26259D01*
X1106589Y26234D01*
X1106626Y26183D01*
X1106656Y26128D01*
X1106676Y26114D01*
X1106691Y26094D01*
X1106747Y26065D01*
X1106798Y26028D01*
X1106825Y26023D01*
X1106844Y26013D01*
X1106882Y26012D01*
X1106940Y26001D01*
X1488060Y26001D01*
X1488121Y26015D01*
X1488184Y26021D01*
X1488204Y26035D01*
X1488228Y26040D01*
X1488277Y26080D01*
X1488330Y26114D01*
X1488343Y26135D01*
X1488362Y26150D01*
X1488388Y26208D01*
X1488421Y26262D01*
X1488423Y26286D01*
X1488433Y26309D01*
X1488431Y26371D01*
X1488436Y26434D01*
X1488427Y26460D01*
X1488426Y26482D01*
X1488409Y26515D01*
X1488389Y26571D01*
X1486468Y29898D01*
X1486059Y31425D01*
X1485550Y33326D01*
X1485040Y35227D01*
X1484531Y37129D01*
X1482919Y43143D01*
X1482919Y56857D01*
X1486468Y70102D01*
X1493325Y81978D01*
X1503022Y91675D01*
X1514898Y98532D01*
X1528143Y102081D01*
X1541857Y102081D01*
X1555102Y98532D01*
X1566978Y91675D01*
X1576675Y81978D01*
X1583532Y70102D01*
X1584270Y67347D01*
X1584779Y65446D01*
X1585289Y63545D01*
X1585798Y61644D01*
X1585798Y61643D01*
X1586308Y59742D01*
X1586817Y57841D01*
X1587081Y56857D01*
X1587081Y43143D01*
X1583532Y29898D01*
X1581611Y26571D01*
X1581593Y26511D01*
X1581567Y26453D01*
X1581568Y26429D01*
X1581561Y26405D01*
X1581571Y26343D01*
X1581574Y26280D01*
X1581585Y26259D01*
X1581589Y26234D01*
X1581626Y26183D01*
X1581656Y26128D01*
X1581676Y26114D01*
X1581691Y26094D01*
X1581747Y26065D01*
X1581798Y26028D01*
X1581825Y26023D01*
X1581844Y26013D01*
X1581882Y26012D01*
X1581940Y26001D01*
X1713619Y26001D01*
X1713669Y26012D01*
X1713720Y26014D01*
X1713752Y26032D01*
X1713788Y26040D01*
X1713827Y26073D01*
X1713872Y26097D01*
X1713893Y26127D01*
X1713921Y26150D01*
X1713942Y26197D01*
X1713972Y26239D01*
X1713980Y26281D01*
X1713992Y26309D01*
X1713991Y26339D01*
X1713999Y26381D01*
X1713999Y319620D01*
X1728459Y319620D01*
X1728509Y319631D01*
X1728560Y319633D01*
X1728592Y319651D01*
X1728628Y319659D01*
X1728667Y319692D01*
X1728712Y319716D01*
X1728733Y319746D01*
X1728761Y319769D01*
X1728782Y319816D01*
X1728812Y319858D01*
X1728820Y319900D01*
X1728832Y319928D01*
X1728831Y319958D01*
X1728839Y320000D01*
X1728839Y975000D01*
X1728836Y975013D01*
X1728838Y975030D01*
X1728746Y976197D01*
X1728735Y976231D01*
X1728729Y976284D01*
X1728008Y978504D01*
X1727988Y978537D01*
X1727954Y978610D01*
X1726582Y980498D01*
X1726553Y980523D01*
X1726498Y980582D01*
X1724610Y981954D01*
X1724574Y981969D01*
X1724558Y981978D01*
X1724544Y981988D01*
X1724538Y981989D01*
X1724504Y982008D01*
X1722284Y982729D01*
X1722249Y982732D01*
X1722197Y982746D01*
X1721030Y982838D01*
X1721017Y982836D01*
X1721000Y982839D01*
X1410000Y982839D01*
X1409950Y982828D01*
X1409899Y982826D01*
X1409867Y982808D01*
X1409831Y982800D01*
X1409792Y982767D01*
X1409747Y982743D01*
X1409726Y982713D01*
X1409698Y982690D01*
X1409677Y982643D01*
X1409647Y982601D01*
X1409639Y982559D01*
X1409627Y982531D01*
X1409628Y982501D01*
X1409620Y982459D01*
X1409620Y967999D01*
X26381Y967999D01*
X26331Y967988D01*
X26280Y967986D01*
X26248Y967968D01*
X26212Y967960D01*
X26173Y967927D01*
X26128Y967903D01*
X26107Y967873D01*
X26079Y967850D01*
X26058Y967803D01*
X26028Y967761D01*
X26020Y967719D01*
X26008Y967691D01*
X26009Y967661D01*
X26001Y967619D01*
X26001Y892145D01*
X26009Y892108D01*
X26008Y892071D01*
X26029Y892025D01*
X26040Y891977D01*
X26064Y891947D01*
X26080Y891913D01*
X26119Y891882D01*
X26150Y891843D01*
X26185Y891828D01*
X26214Y891804D01*
X26263Y891793D01*
X26309Y891772D01*
X26346Y891774D01*
X26383Y891765D01*
X26432Y891777D01*
X26482Y891779D01*
X26515Y891797D01*
X26552Y891806D01*
X26590Y891838D01*
X26634Y891861D01*
X26656Y891892D01*
X26685Y891917D01*
X26712Y891972D01*
X26734Y892003D01*
X26738Y892026D01*
X26748Y892047D01*
X27544Y895018D01*
X32666Y903890D01*
X39910Y911134D01*
X48782Y916256D01*
X58678Y918907D01*
X68922Y918907D01*
X78818Y916256D01*
X87690Y911134D01*
X94934Y903890D01*
X100056Y895018D01*
X101243Y890589D01*
X101243Y890588D01*
X101533Y889506D01*
X101568Y889440D01*
X101599Y889372D01*
X101609Y889364D01*
X101615Y889353D01*
X101675Y889309D01*
X101733Y889262D01*
X101745Y889259D01*
X101756Y889252D01*
X101829Y889240D01*
X101902Y889224D01*
X101914Y889227D01*
X101927Y889225D01*
X101998Y889247D01*
X102071Y889264D01*
X102080Y889272D01*
X102092Y889276D01*
X102146Y889327D01*
X102204Y889375D01*
X102210Y889388D01*
X102218Y889395D01*
X102231Y889431D01*
X102267Y889506D01*
X103744Y895018D01*
X108866Y903890D01*
X116110Y911134D01*
X124982Y916256D01*
X134878Y918907D01*
X145122Y918907D01*
X155018Y916256D01*
X163890Y911134D01*
X171134Y903890D01*
X176256Y895018D01*
X178907Y885122D01*
X178907Y874878D01*
X176256Y864982D01*
X171134Y856110D01*
X163890Y848866D01*
X155018Y843744D01*
X145122Y841093D01*
X134878Y841093D01*
X124982Y843744D01*
X116110Y848866D01*
X108866Y856110D01*
X103744Y864982D01*
X103146Y867214D01*
X102267Y870494D01*
X102232Y870560D01*
X102201Y870628D01*
X102191Y870636D01*
X102186Y870647D01*
X102125Y870691D01*
X102067Y870738D01*
X102055Y870741D01*
X102044Y870748D01*
X101971Y870760D01*
X101898Y870776D01*
X101886Y870773D01*
X101873Y870775D01*
X101802Y870753D01*
X101729Y870736D01*
X101720Y870728D01*
X101708Y870724D01*
X101654Y870673D01*
X101596Y870625D01*
X101590Y870612D01*
X101582Y870605D01*
X101569Y870569D01*
X101533Y870494D01*
X100056Y864982D01*
X94934Y856110D01*
X87690Y848866D01*
X78818Y843744D01*
X68922Y841093D01*
X58678Y841093D01*
X48782Y843744D01*
X39910Y848866D01*
X32666Y856110D01*
X27544Y864982D01*
X26844Y867595D01*
X26748Y867953D01*
X26730Y867986D01*
X26722Y868023D01*
X26690Y868062D01*
X26666Y868106D01*
X26636Y868128D01*
X26612Y868157D01*
X26566Y868177D01*
X26525Y868206D01*
X26488Y868212D01*
X26453Y868228D01*
X26404Y868226D01*
X26354Y868234D01*
X26318Y868223D01*
X26280Y868221D01*
X26236Y868197D01*
X26189Y868183D01*
X26161Y868157D01*
X26128Y868139D01*
X26099Y868098D01*
X26063Y868063D01*
X26050Y868028D01*
X26028Y867997D01*
X26017Y867936D01*
X26004Y867901D01*
X26005Y867877D01*
X26001Y867855D01*
X26001Y836914D01*
X26004Y836901D01*
X26002Y836887D01*
X26023Y836817D01*
X26040Y836745D01*
X26049Y836735D01*
X26053Y836722D01*
X26104Y836668D01*
X26150Y836612D01*
X26163Y836606D01*
X26172Y836596D01*
X26241Y836571D01*
X26309Y836541D01*
X26322Y836541D01*
X26335Y836536D01*
X26479Y836547D01*
X26482Y836547D01*
X34892Y838801D01*
X45108Y838801D01*
X54976Y836157D01*
X63824Y831048D01*
X71048Y823824D01*
X76157Y814976D01*
X78006Y808074D01*
X78801Y805108D01*
X78801Y794892D01*
X76157Y785024D01*
X71048Y776176D01*
X63824Y768952D01*
X54976Y763843D01*
X45108Y761199D01*
X34892Y761199D01*
X26479Y763453D01*
X26466Y763454D01*
X26453Y763459D01*
X26380Y763457D01*
X26306Y763459D01*
X26294Y763453D01*
X26280Y763453D01*
X26216Y763418D01*
X26149Y763387D01*
X26140Y763376D01*
X26128Y763370D01*
X26086Y763310D01*
X26039Y763253D01*
X26036Y763239D01*
X26028Y763228D01*
X26001Y763086D01*
X26001Y678231D01*
X26007Y678206D01*
X26004Y678180D01*
X26026Y678123D01*
X26040Y678062D01*
X26057Y678043D01*
X26066Y678018D01*
X26111Y677976D01*
X26150Y677929D01*
X26174Y677918D01*
X26193Y677901D01*
X26252Y677883D01*
X26309Y677858D01*
X26334Y677859D01*
X26359Y677852D01*
X26420Y677862D01*
X26482Y677864D01*
X26504Y677877D01*
X26530Y677881D01*
X26601Y677929D01*
X26634Y677947D01*
X26640Y677955D01*
X26650Y677962D01*
X27327Y678639D01*
X34633Y682857D01*
X42782Y685041D01*
X51218Y685041D01*
X59367Y682857D01*
X59510Y682775D01*
X59547Y682764D01*
X59581Y682743D01*
X59629Y682739D01*
X59676Y682725D01*
X59714Y682731D01*
X59753Y682728D01*
X59810Y682747D01*
X59847Y682753D01*
X59864Y682766D01*
X59890Y682775D01*
X60033Y682857D01*
X68182Y685041D01*
X76618Y685041D01*
X84767Y682857D01*
X92074Y678639D01*
X98039Y672674D01*
X102257Y665367D01*
X102431Y664720D01*
X104163Y658256D01*
X104441Y657218D01*
X104441Y648782D01*
X102257Y640633D01*
X102175Y640490D01*
X102164Y640453D01*
X102143Y640419D01*
X102139Y640371D01*
X102125Y640324D01*
X102131Y640286D01*
X102128Y640247D01*
X102147Y640190D01*
X102153Y640153D01*
X102166Y640136D01*
X102175Y640110D01*
X102257Y639967D01*
X103164Y636582D01*
X103164Y636581D01*
X104441Y631818D01*
X104441Y623382D01*
X102257Y615233D01*
X102175Y615090D01*
X102164Y615053D01*
X102143Y615019D01*
X102139Y614971D01*
X102125Y614924D01*
X102131Y614886D01*
X102128Y614847D01*
X102147Y614790D01*
X102153Y614753D01*
X102166Y614736D01*
X102175Y614710D01*
X102257Y614567D01*
X102676Y613006D01*
X104408Y606542D01*
X104441Y606418D01*
X104441Y597982D01*
X102257Y589833D01*
X102175Y589690D01*
X102164Y589653D01*
X102143Y589619D01*
X102139Y589571D01*
X102125Y589524D01*
X102131Y589486D01*
X102128Y589447D01*
X102147Y589390D01*
X102153Y589353D01*
X102166Y589336D01*
X102175Y589310D01*
X102257Y589167D01*
X103409Y584868D01*
X103409Y584867D01*
X104441Y581018D01*
X104441Y572582D01*
X102257Y564433D01*
X102175Y564290D01*
X102164Y564253D01*
X102143Y564219D01*
X102139Y564171D01*
X102125Y564124D01*
X102131Y564086D01*
X102128Y564047D01*
X102147Y563990D01*
X102153Y563953D01*
X102166Y563936D01*
X102175Y563910D01*
X102257Y563767D01*
X102920Y561292D01*
X104441Y555618D01*
X104441Y547182D01*
X102257Y539033D01*
X102175Y538890D01*
X102164Y538853D01*
X102143Y538819D01*
X102139Y538771D01*
X102125Y538724D01*
X102131Y538686D01*
X102128Y538647D01*
X102147Y538590D01*
X102153Y538553D01*
X102166Y538536D01*
X102175Y538510D01*
X102257Y538367D01*
X103654Y533154D01*
X103654Y533153D01*
X104441Y530218D01*
X104441Y521782D01*
X102257Y513633D01*
X98039Y506326D01*
X92074Y500361D01*
X84767Y496143D01*
X76618Y493959D01*
X68182Y493959D01*
X60033Y496143D01*
X59890Y496225D01*
X59853Y496236D01*
X59819Y496257D01*
X59771Y496261D01*
X59724Y496275D01*
X59686Y496269D01*
X59647Y496272D01*
X59590Y496253D01*
X59553Y496247D01*
X59536Y496234D01*
X59510Y496225D01*
X59367Y496143D01*
X51218Y493959D01*
X42782Y493959D01*
X34633Y496143D01*
X27327Y500361D01*
X26650Y501038D01*
X26628Y501051D01*
X26612Y501071D01*
X26555Y501097D01*
X26503Y501129D01*
X26477Y501132D01*
X26453Y501142D01*
X26392Y501140D01*
X26330Y501146D01*
X26306Y501137D01*
X26280Y501136D01*
X26226Y501106D01*
X26168Y501084D01*
X26151Y501065D01*
X26128Y501053D01*
X26093Y501002D01*
X26051Y500957D01*
X26043Y500932D01*
X26028Y500911D01*
X26012Y500827D01*
X26001Y500791D01*
X26003Y500781D01*
X26001Y500769D01*
X26001Y96940D01*
X26015Y96879D01*
X26021Y96816D01*
X26035Y96796D01*
X26040Y96772D01*
X26080Y96723D01*
X26114Y96670D01*
X26135Y96657D01*
X26150Y96638D01*
X26208Y96612D01*
X26262Y96579D01*
X26286Y96577D01*
X26309Y96567D01*
X26371Y96569D01*
X26434Y96564D01*
X26460Y96573D01*
X26482Y96574D01*
X26515Y96591D01*
X26571Y96611D01*
X29898Y98532D01*
X43143Y102081D01*
X56857Y102081D01*
X70102Y98532D01*
X81978Y91675D01*
X91675Y81978D01*
X98532Y70102D01*
X99270Y67347D01*
X99779Y65446D01*
X100289Y63545D01*
X100798Y61644D01*
X100798Y61643D01*
X101308Y59742D01*
X101817Y57841D01*
X102081Y56857D01*
X102081Y43143D01*
X98532Y29898D01*
X96611Y26571D01*
X96593Y26511D01*
X96567Y26453D01*
X96568Y26429D01*
X96561Y26405D01*
X96571Y26343D01*
X96574Y26280D01*
X96585Y26259D01*
X96589Y26234D01*
X96626Y26183D01*
X96656Y26128D01*
X96676Y26114D01*
X96691Y26094D01*
X96747Y26065D01*
X96798Y26028D01*
X96825Y26023D01*
X96844Y26013D01*
X96882Y26012D01*
X96940Y26001D01*
X284188Y26001D01*
X284250Y26015D01*
X284312Y26021D01*
X284333Y26035D01*
X284357Y26040D01*
X284406Y26080D01*
X284459Y26114D01*
X284472Y26135D01*
X284491Y26150D01*
X284517Y26208D01*
X284549Y26262D01*
X284552Y26286D01*
X284562Y26309D01*
X284559Y26371D01*
X284565Y26434D01*
X284556Y26460D01*
X284555Y26482D01*
X284537Y26515D01*
X284518Y26571D01*
X283179Y28890D01*
X282500Y31425D01*
X281990Y33326D01*
X281217Y36211D01*
X281217Y43789D01*
X282855Y49902D01*
X282856Y49929D01*
X282865Y49954D01*
X282859Y50037D01*
X282861Y50075D01*
X282856Y50085D01*
X282855Y50098D01*
X281643Y54620D01*
X281217Y56211D01*
X281217Y63789D01*
X282855Y69902D01*
X282856Y69929D01*
X282865Y69954D01*
X282859Y70037D01*
X282861Y70075D01*
X282856Y70085D01*
X282855Y70098D01*
X281399Y75534D01*
X281217Y76211D01*
X281217Y83789D01*
X282855Y89902D01*
X282856Y89929D01*
X282865Y89954D01*
X282859Y90037D01*
X282861Y90075D01*
X282856Y90085D01*
X282855Y90098D01*
X281561Y94927D01*
X281217Y96211D01*
X281217Y103789D01*
X282855Y109902D01*
X282856Y109929D01*
X282865Y109954D01*
X282859Y110037D01*
X282861Y110075D01*
X282856Y110085D01*
X282855Y110098D01*
X282437Y111658D01*
X281316Y115840D01*
X281217Y116211D01*
X281217Y123789D01*
X282855Y129902D01*
X282856Y129929D01*
X282865Y129954D01*
X282859Y130037D01*
X282861Y130075D01*
X282856Y130085D01*
X282855Y130098D01*
X282396Y131811D01*
X281275Y135994D01*
X281217Y136211D01*
X281217Y143789D01*
X282855Y149902D01*
X282856Y149929D01*
X282865Y149954D01*
X282859Y150037D01*
X282861Y150075D01*
X282856Y150085D01*
X282855Y150098D01*
X282151Y152725D01*
X281217Y156211D01*
X281217Y163789D01*
X282855Y169902D01*
X282856Y169929D01*
X282865Y169954D01*
X282859Y170037D01*
X282861Y170075D01*
X282856Y170085D01*
X282855Y170098D01*
X282620Y170977D01*
X281217Y176211D01*
X281217Y183789D01*
X282855Y189902D01*
X282856Y189929D01*
X282865Y189954D01*
X282859Y190037D01*
X282861Y190075D01*
X282856Y190085D01*
X282855Y190098D01*
X282477Y191510D01*
X281967Y193411D01*
X281217Y196211D01*
X281217Y203789D01*
X283179Y211110D01*
X286968Y217673D01*
X292327Y223032D01*
X298890Y226821D01*
X306211Y228783D01*
X313789Y228783D01*
X319902Y227145D01*
X319928Y227144D01*
X319954Y227135D01*
X320037Y227141D01*
X320075Y227139D01*
X320085Y227144D01*
X320098Y227145D01*
X326211Y228783D01*
X333789Y228783D01*
X339902Y227145D01*
X339928Y227144D01*
X339954Y227135D01*
X340037Y227141D01*
X340075Y227139D01*
X340085Y227144D01*
X340098Y227145D01*
X346211Y228783D01*
X353789Y228783D01*
X359902Y227145D01*
X359929Y227144D01*
X359954Y227135D01*
X360037Y227141D01*
X360075Y227139D01*
X360085Y227144D01*
X360098Y227145D01*
X366211Y228783D01*
X373789Y228783D01*
X379902Y227145D01*
X379929Y227144D01*
X379954Y227135D01*
X380037Y227141D01*
X380075Y227139D01*
X380085Y227144D01*
X380098Y227145D01*
X386211Y228783D01*
X393789Y228783D01*
X401110Y226821D01*
X407673Y223032D01*
X413032Y217673D01*
X416821Y211110D01*
X417848Y207279D01*
X418357Y205378D01*
X418783Y203789D01*
X418783Y196211D01*
X417145Y190098D01*
X417144Y190071D01*
X417135Y190046D01*
X417141Y189963D01*
X417139Y189925D01*
X417144Y189915D01*
X417145Y189902D01*
X418194Y185985D01*
X418783Y183789D01*
X418783Y176211D01*
X417145Y170098D01*
X417144Y170071D01*
X417135Y170046D01*
X417141Y169963D01*
X417139Y169925D01*
X417144Y169915D01*
X417145Y169902D01*
X418235Y165832D01*
X418783Y163789D01*
X418783Y156211D01*
X417145Y150098D01*
X417144Y150071D01*
X417135Y150046D01*
X417141Y149963D01*
X417139Y149925D01*
X417144Y149915D01*
X417145Y149902D01*
X417563Y148341D01*
X417563Y148340D01*
X418783Y143789D01*
X418783Y136211D01*
X417145Y130098D01*
X417144Y130071D01*
X417135Y130046D01*
X417141Y129963D01*
X417139Y129925D01*
X417144Y129915D01*
X417145Y129902D01*
X418783Y123789D01*
X418783Y116211D01*
X417145Y110098D01*
X417144Y110071D01*
X417135Y110046D01*
X417141Y109963D01*
X417139Y109925D01*
X417144Y109915D01*
X417145Y109902D01*
X418562Y104612D01*
X418783Y103789D01*
X418783Y96211D01*
X417145Y90098D01*
X417144Y90071D01*
X417135Y90046D01*
X417141Y89963D01*
X417139Y89925D01*
X417144Y89915D01*
X417145Y89902D01*
X417890Y87120D01*
X418783Y83789D01*
X418783Y76211D01*
X417145Y70098D01*
X417144Y70072D01*
X417135Y70046D01*
X417141Y69963D01*
X417139Y69925D01*
X417144Y69915D01*
X417145Y69902D01*
X418783Y63789D01*
X418783Y56211D01*
X417145Y50098D01*
X417144Y50072D01*
X417135Y50046D01*
X417141Y49963D01*
X417139Y49925D01*
X417144Y49915D01*
X417145Y49902D01*
X418783Y43789D01*
X418783Y36211D01*
X416821Y28890D01*
X415482Y26571D01*
X415464Y26511D01*
X415438Y26453D01*
X415439Y26429D01*
X415432Y26405D01*
X415442Y26343D01*
X415445Y26280D01*
X415457Y26259D01*
X415461Y26234D01*
X415498Y26183D01*
X415528Y26128D01*
X415548Y26114D01*
X415562Y26094D01*
X415618Y26065D01*
X415669Y26028D01*
X415696Y26023D01*
X415715Y26013D01*
X415753Y26012D01*
X415812Y26001D01*
X478060Y26001D01*
X478121Y26015D01*
X478184Y26021D01*
X478204Y26035D01*
X478228Y26040D01*
X478277Y26080D01*
X478330Y26114D01*
X478343Y26135D01*
X478362Y26150D01*
X478388Y26208D01*
X478421Y26262D01*
X478423Y26286D01*
X478433Y26309D01*
X478431Y26371D01*
X478436Y26434D01*
X478427Y26460D01*
X478426Y26482D01*
X478409Y26515D01*
X478389Y26571D01*
X476468Y29898D01*
X476059Y31425D01*
X475550Y33326D01*
X475040Y35227D01*
X474531Y37129D01*
X472919Y43143D01*
X472919Y56857D01*
X476468Y70102D01*
X483325Y81978D01*
X493022Y91675D01*
X504898Y98532D01*
X518143Y102081D01*
X531857Y102081D01*
X545102Y98532D01*
X556978Y91675D01*
X566675Y81978D01*
X572171Y72459D01*
X572214Y72413D01*
X572251Y72363D01*
X572272Y72351D01*
X572289Y72333D01*
X572348Y72311D01*
X572404Y72282D01*
X572428Y72281D01*
X572452Y72272D01*
X572514Y72279D01*
X572577Y72277D01*
X572599Y72288D01*
X572624Y72290D01*
X572677Y72324D01*
X572734Y72350D01*
X572752Y72371D01*
X572771Y72382D01*
X572790Y72414D01*
X572829Y72459D01*
X578325Y81978D01*
X588022Y91675D01*
X599898Y98532D01*
X613143Y102081D01*
X626857Y102081D01*
X640102Y98532D01*
X651978Y91675D01*
X661675Y81978D01*
X664938Y76327D01*
X664947Y76317D01*
X664952Y76304D01*
X665006Y76254D01*
X665056Y76201D01*
X665069Y76196D01*
X665079Y76187D01*
X665149Y76166D01*
X665219Y76140D01*
X665232Y76141D01*
X665245Y76138D01*
X665318Y76150D01*
X665391Y76158D01*
X665402Y76165D01*
X665416Y76167D01*
X665536Y76248D01*
X670327Y81039D01*
X677633Y85257D01*
X685782Y87441D01*
X694218Y87441D01*
X702367Y85257D01*
X702510Y85175D01*
X702547Y85164D01*
X702581Y85143D01*
X702629Y85139D01*
X702676Y85125D01*
X702714Y85131D01*
X702753Y85128D01*
X702810Y85147D01*
X702847Y85153D01*
X702864Y85166D01*
X702890Y85175D01*
X703033Y85257D01*
X711182Y87441D01*
X719618Y87441D01*
X727767Y85257D01*
X727910Y85175D01*
X727947Y85164D01*
X727981Y85143D01*
X728029Y85139D01*
X728076Y85125D01*
X728114Y85131D01*
X728153Y85128D01*
X728210Y85147D01*
X728247Y85153D01*
X728264Y85166D01*
X728290Y85175D01*
X728433Y85257D01*
X736582Y87441D01*
X745018Y87441D01*
X753167Y85257D01*
X753310Y85175D01*
X753347Y85164D01*
X753381Y85143D01*
X753429Y85139D01*
X753476Y85125D01*
X753514Y85131D01*
X753553Y85128D01*
X753610Y85147D01*
X753647Y85153D01*
X753664Y85166D01*
X753690Y85175D01*
X753833Y85257D01*
X761982Y87441D01*
X770418Y87441D01*
X778567Y85257D01*
X778710Y85175D01*
X778747Y85164D01*
X778781Y85143D01*
X778829Y85139D01*
X778876Y85125D01*
X778914Y85131D01*
X778953Y85128D01*
X779010Y85147D01*
X779047Y85153D01*
X779064Y85166D01*
X779090Y85175D01*
X779233Y85257D01*
X787382Y87441D01*
X789620Y87441D01*
X789620Y67821D01*
X789631Y67771D01*
X789633Y67720D01*
X789651Y67688D01*
X789659Y67652D01*
X789692Y67613D01*
X789716Y67568D01*
X789746Y67547D01*
X789769Y67519D01*
X789816Y67498D01*
X789858Y67468D01*
X789900Y67460D01*
X789928Y67448D01*
X789958Y67449D01*
X790000Y67441D01*
X793995Y67441D01*
X798421Y65608D01*
X801808Y62221D01*
X803641Y57795D01*
X803641Y53005D01*
X801808Y48579D01*
X798421Y45192D01*
X793995Y43359D01*
X790000Y43359D01*
X789950Y43348D01*
X789899Y43346D01*
X789867Y43328D01*
X789831Y43320D01*
X789792Y43287D01*
X789747Y43263D01*
X789726Y43233D01*
X789698Y43210D01*
X789677Y43163D01*
X789647Y43121D01*
X789639Y43079D01*
X789627Y43051D01*
X789628Y43021D01*
X789620Y42979D01*
X789620Y11541D01*
X789631Y11491D01*
X789633Y11440D01*
X789651Y11408D01*
X789659Y11372D01*
X789692Y11333D01*
X789716Y11288D01*
X789746Y11267D01*
X789769Y11239D01*
X789816Y11218D01*
X789858Y11188D01*
X789900Y11180D01*
X789928Y11168D01*
X789958Y11169D01*
X790000Y11161D01*
X850000Y11161D01*
X850050Y11172D01*
G37*
%LPC*%
G36*
X663143Y147919D02*
X663143Y147919D01*
X649898Y151468D01*
X638022Y158325D01*
X628325Y168022D01*
X621468Y179898D01*
X619783Y186187D01*
X619274Y188088D01*
X618764Y189989D01*
X618255Y191890D01*
X617919Y193143D01*
X617919Y206857D01*
X621468Y220102D01*
X628325Y231978D01*
X633548Y237202D01*
X633575Y237245D01*
X633610Y237282D01*
X633620Y237318D01*
X633640Y237349D01*
X633645Y237400D01*
X633659Y237448D01*
X633653Y237485D01*
X633656Y237521D01*
X633638Y237569D01*
X633629Y237619D01*
X633606Y237655D01*
X633595Y237683D01*
X633572Y237704D01*
X633548Y237739D01*
X628961Y242327D01*
X624743Y249633D01*
X623607Y253871D01*
X622559Y257782D01*
X622559Y266218D01*
X624743Y274367D01*
X624825Y274510D01*
X624836Y274547D01*
X624857Y274581D01*
X624860Y274611D01*
X624860Y274612D01*
X624860Y274615D01*
X624861Y274629D01*
X624875Y274676D01*
X624869Y274714D01*
X624872Y274753D01*
X624853Y274810D01*
X624847Y274847D01*
X624834Y274864D01*
X624825Y274890D01*
X624743Y275033D01*
X624605Y275545D01*
X624096Y277447D01*
X622559Y283182D01*
X622559Y291618D01*
X624743Y299767D01*
X624825Y299910D01*
X624836Y299947D01*
X624857Y299981D01*
X624861Y300029D01*
X624875Y300076D01*
X624869Y300114D01*
X624872Y300153D01*
X624853Y300210D01*
X624847Y300247D01*
X624834Y300264D01*
X624825Y300290D01*
X624743Y300433D01*
X623362Y305585D01*
X622559Y308582D01*
X622559Y317018D01*
X624743Y325167D01*
X624825Y325310D01*
X624836Y325347D01*
X624857Y325381D01*
X624861Y325429D01*
X624875Y325476D01*
X624869Y325514D01*
X624872Y325553D01*
X624853Y325610D01*
X624847Y325647D01*
X624834Y325664D01*
X624825Y325690D01*
X624743Y325833D01*
X623851Y329161D01*
X622559Y333982D01*
X622559Y342418D01*
X624743Y350567D01*
X624825Y350710D01*
X624836Y350747D01*
X624857Y350781D01*
X624861Y350829D01*
X624875Y350876D01*
X624869Y350914D01*
X624872Y350953D01*
X624853Y351010D01*
X624847Y351047D01*
X624834Y351064D01*
X624825Y351090D01*
X624743Y351233D01*
X623117Y357299D01*
X622559Y359382D01*
X622559Y367818D01*
X624743Y375967D01*
X624825Y376110D01*
X624836Y376147D01*
X624857Y376181D01*
X624861Y376229D01*
X624875Y376276D01*
X624869Y376314D01*
X624872Y376353D01*
X624853Y376410D01*
X624847Y376447D01*
X624834Y376464D01*
X624825Y376490D01*
X624743Y376633D01*
X623606Y380875D01*
X622559Y384782D01*
X622559Y393218D01*
X624743Y401367D01*
X628961Y408674D01*
X634926Y414639D01*
X642233Y418857D01*
X650382Y421041D01*
X658818Y421041D01*
X666967Y418857D01*
X667110Y418775D01*
X667147Y418764D01*
X667181Y418743D01*
X667229Y418739D01*
X667276Y418725D01*
X667314Y418731D01*
X667353Y418728D01*
X667410Y418747D01*
X667447Y418753D01*
X667464Y418766D01*
X667490Y418775D01*
X667633Y418857D01*
X675782Y421041D01*
X684218Y421041D01*
X692367Y418857D01*
X699674Y414639D01*
X705639Y408674D01*
X709857Y401367D01*
X711021Y397024D01*
X711530Y395123D01*
X712041Y393218D01*
X712041Y384782D01*
X709857Y376633D01*
X709775Y376490D01*
X709764Y376453D01*
X709743Y376419D01*
X709739Y376371D01*
X709725Y376324D01*
X709731Y376286D01*
X709728Y376247D01*
X709747Y376190D01*
X709753Y376153D01*
X709766Y376136D01*
X709775Y376110D01*
X709857Y375967D01*
X710532Y373449D01*
X710532Y373448D01*
X712041Y367818D01*
X712041Y359382D01*
X709857Y351233D01*
X709775Y351090D01*
X709764Y351053D01*
X709743Y351019D01*
X709739Y350971D01*
X709725Y350924D01*
X709731Y350886D01*
X709728Y350847D01*
X709747Y350790D01*
X709753Y350753D01*
X709766Y350736D01*
X709775Y350710D01*
X709857Y350567D01*
X710043Y349873D01*
X711775Y343409D01*
X712041Y342418D01*
X712041Y333982D01*
X709857Y325833D01*
X709775Y325690D01*
X709764Y325653D01*
X709743Y325619D01*
X709739Y325571D01*
X709725Y325524D01*
X709731Y325486D01*
X709728Y325447D01*
X709747Y325390D01*
X709753Y325353D01*
X709766Y325336D01*
X709775Y325310D01*
X709857Y325167D01*
X710777Y321735D01*
X710777Y321734D01*
X712041Y317018D01*
X712041Y308582D01*
X709857Y300433D01*
X709775Y300290D01*
X709764Y300253D01*
X709743Y300219D01*
X709739Y300171D01*
X709725Y300124D01*
X709731Y300086D01*
X709728Y300047D01*
X709747Y299990D01*
X709753Y299953D01*
X709766Y299936D01*
X709775Y299910D01*
X709857Y299767D01*
X710288Y298159D01*
X712020Y291695D01*
X712041Y291618D01*
X712041Y283182D01*
X709857Y275033D01*
X709775Y274890D01*
X709764Y274853D01*
X709743Y274819D01*
X709739Y274771D01*
X709725Y274724D01*
X709731Y274686D01*
X709728Y274647D01*
X709746Y274593D01*
X709747Y274584D01*
X709749Y274579D01*
X709753Y274553D01*
X709766Y274536D01*
X709775Y274510D01*
X709857Y274367D01*
X711022Y270021D01*
X711022Y270020D01*
X712041Y266218D01*
X712041Y257782D01*
X709857Y249633D01*
X705639Y242327D01*
X703752Y240439D01*
X703725Y240396D01*
X703690Y240359D01*
X703680Y240323D01*
X703660Y240292D01*
X703655Y240241D01*
X703641Y240192D01*
X703647Y240156D01*
X703644Y240120D01*
X703662Y240072D01*
X703671Y240022D01*
X703694Y239986D01*
X703705Y239958D01*
X703728Y239937D01*
X703752Y239902D01*
X711675Y231978D01*
X718532Y220102D01*
X719013Y218307D01*
X719013Y218306D01*
X719522Y216405D01*
X722081Y206857D01*
X722081Y193143D01*
X718532Y179898D01*
X711675Y168022D01*
X701978Y158325D01*
X690102Y151468D01*
X676857Y147919D01*
X663143Y147919D01*
G37*
%LPD*%
%LPC*%
G36*
X880173Y280380D02*
X880173Y280380D01*
X880143Y280433D01*
X880026Y280869D01*
X878294Y287333D01*
X877959Y288582D01*
X877959Y297018D01*
X880143Y305167D01*
X880225Y305310D01*
X880236Y305347D01*
X880257Y305381D01*
X880260Y305411D01*
X880260Y305412D01*
X880260Y305416D01*
X880261Y305429D01*
X880275Y305476D01*
X880269Y305514D01*
X880272Y305553D01*
X880253Y305610D01*
X880247Y305647D01*
X880234Y305664D01*
X880225Y305690D01*
X880143Y305833D01*
X879292Y309007D01*
X877959Y313982D01*
X877959Y322418D01*
X880143Y330567D01*
X880225Y330710D01*
X880236Y330747D01*
X880257Y330781D01*
X880261Y330829D01*
X880275Y330876D01*
X880269Y330914D01*
X880272Y330953D01*
X880253Y331010D01*
X880247Y331047D01*
X880234Y331064D01*
X880225Y331090D01*
X880143Y331233D01*
X879781Y332583D01*
X878049Y339047D01*
X877959Y339382D01*
X877959Y347818D01*
X880143Y355967D01*
X880225Y356110D01*
X880236Y356147D01*
X880257Y356181D01*
X880261Y356229D01*
X880275Y356276D01*
X880269Y356314D01*
X880272Y356353D01*
X880253Y356410D01*
X880247Y356447D01*
X880234Y356464D01*
X880225Y356490D01*
X880143Y356633D01*
X879047Y360721D01*
X877959Y364782D01*
X877959Y373218D01*
X880143Y381367D01*
X884361Y388674D01*
X890326Y394639D01*
X897633Y398857D01*
X902267Y400099D01*
X902333Y400134D01*
X902401Y400165D01*
X902409Y400175D01*
X902420Y400181D01*
X902463Y400242D01*
X902511Y400300D01*
X902513Y400312D01*
X902520Y400322D01*
X902532Y400396D01*
X902549Y400469D01*
X902546Y400481D01*
X902548Y400493D01*
X902526Y400564D01*
X902508Y400637D01*
X902500Y400647D01*
X902497Y400658D01*
X902445Y400713D01*
X902397Y400770D01*
X902385Y400776D01*
X902378Y400784D01*
X902342Y400797D01*
X902267Y400834D01*
X899898Y401468D01*
X888022Y408325D01*
X878325Y418022D01*
X871468Y429898D01*
X871359Y430307D01*
X870849Y432208D01*
X870340Y434110D01*
X869830Y436011D01*
X867919Y443143D01*
X867919Y456857D01*
X871468Y470102D01*
X878325Y481978D01*
X888022Y491675D01*
X899898Y498532D01*
X913143Y502081D01*
X926857Y502081D01*
X940102Y498532D01*
X951978Y491675D01*
X961675Y481978D01*
X968532Y470102D01*
X970079Y464328D01*
X970588Y462427D01*
X971098Y460526D01*
X971607Y458625D01*
X971607Y458624D01*
X972081Y456857D01*
X972081Y443143D01*
X968532Y429898D01*
X961675Y418022D01*
X951978Y408325D01*
X940238Y401547D01*
X940219Y401529D01*
X940196Y401518D01*
X940157Y401471D01*
X940112Y401428D01*
X940102Y401404D01*
X940086Y401384D01*
X940073Y401324D01*
X940051Y401266D01*
X940054Y401240D01*
X940048Y401215D01*
X940062Y401155D01*
X940069Y401094D01*
X940082Y401072D01*
X940088Y401047D01*
X940128Y400999D01*
X940161Y400947D01*
X940183Y400933D01*
X940199Y400914D01*
X940277Y400876D01*
X940309Y400856D01*
X940319Y400856D01*
X940330Y400850D01*
X947767Y398857D01*
X955074Y394639D01*
X961039Y388674D01*
X965257Y381367D01*
X966462Y376871D01*
X967441Y373218D01*
X967441Y364782D01*
X965257Y356633D01*
X965175Y356490D01*
X965164Y356453D01*
X965143Y356419D01*
X965139Y356371D01*
X965125Y356324D01*
X965131Y356286D01*
X965128Y356247D01*
X965147Y356190D01*
X965153Y356153D01*
X965166Y356136D01*
X965175Y356110D01*
X965257Y355967D01*
X965973Y353295D01*
X967441Y347818D01*
X967441Y339382D01*
X965257Y331233D01*
X965175Y331090D01*
X965164Y331053D01*
X965143Y331019D01*
X965139Y330971D01*
X965125Y330924D01*
X965131Y330886D01*
X965128Y330847D01*
X965147Y330790D01*
X965153Y330753D01*
X965166Y330736D01*
X965175Y330710D01*
X965257Y330567D01*
X966707Y325157D01*
X967441Y322418D01*
X967441Y313982D01*
X965257Y305833D01*
X965175Y305690D01*
X965164Y305653D01*
X965143Y305619D01*
X965139Y305571D01*
X965125Y305524D01*
X965131Y305486D01*
X965128Y305447D01*
X965146Y305393D01*
X965146Y305384D01*
X965149Y305379D01*
X965153Y305353D01*
X965166Y305336D01*
X965175Y305310D01*
X965257Y305167D01*
X966218Y301581D01*
X967441Y297018D01*
X967441Y288582D01*
X965257Y280433D01*
X965227Y280380D01*
X880173Y280380D01*
G37*
%LPD*%
%LPC*%
G36*
X1052782Y493959D02*
X1052782Y493959D01*
X1044633Y496143D01*
X1037326Y500361D01*
X1031361Y506326D01*
X1027143Y513633D01*
X1026239Y517004D01*
X1024959Y521782D01*
X1024959Y530218D01*
X1027143Y538367D01*
X1027225Y538510D01*
X1027236Y538547D01*
X1027257Y538581D01*
X1027261Y538629D01*
X1027275Y538676D01*
X1027269Y538714D01*
X1027272Y538753D01*
X1027253Y538810D01*
X1027247Y538847D01*
X1027234Y538864D01*
X1027225Y538890D01*
X1027143Y539033D01*
X1024996Y547044D01*
X1024959Y547182D01*
X1024959Y555618D01*
X1027143Y563767D01*
X1027225Y563910D01*
X1027236Y563947D01*
X1027257Y563981D01*
X1027261Y564029D01*
X1027275Y564076D01*
X1027269Y564114D01*
X1027272Y564153D01*
X1027253Y564210D01*
X1027247Y564247D01*
X1027234Y564264D01*
X1027225Y564290D01*
X1027143Y564433D01*
X1025995Y568718D01*
X1025994Y568718D01*
X1024959Y572582D01*
X1024959Y581018D01*
X1027143Y589167D01*
X1027225Y589310D01*
X1027236Y589347D01*
X1027257Y589381D01*
X1027261Y589429D01*
X1027275Y589476D01*
X1027269Y589514D01*
X1027272Y589553D01*
X1027253Y589610D01*
X1027247Y589647D01*
X1027234Y589664D01*
X1027225Y589690D01*
X1027143Y589833D01*
X1026483Y592294D01*
X1024959Y597982D01*
X1024959Y606418D01*
X1027143Y614567D01*
X1027225Y614710D01*
X1027236Y614747D01*
X1027257Y614781D01*
X1027261Y614829D01*
X1027275Y614876D01*
X1027269Y614914D01*
X1027272Y614953D01*
X1027253Y615010D01*
X1027247Y615047D01*
X1027234Y615064D01*
X1027225Y615090D01*
X1027143Y615233D01*
X1025750Y620432D01*
X1024959Y623382D01*
X1024959Y631818D01*
X1027143Y639967D01*
X1027225Y640110D01*
X1027236Y640147D01*
X1027257Y640181D01*
X1027261Y640229D01*
X1027275Y640276D01*
X1027269Y640314D01*
X1027272Y640353D01*
X1027253Y640410D01*
X1027247Y640447D01*
X1027234Y640464D01*
X1027225Y640490D01*
X1027143Y640633D01*
X1026238Y644008D01*
X1024959Y648782D01*
X1024959Y657218D01*
X1027143Y665367D01*
X1031361Y672674D01*
X1037326Y678639D01*
X1044633Y682857D01*
X1052782Y685041D01*
X1061218Y685041D01*
X1069367Y682857D01*
X1069510Y682775D01*
X1069547Y682764D01*
X1069581Y682743D01*
X1069629Y682739D01*
X1069676Y682725D01*
X1069714Y682731D01*
X1069753Y682728D01*
X1069810Y682747D01*
X1069847Y682753D01*
X1069864Y682766D01*
X1069890Y682775D01*
X1070033Y682857D01*
X1078182Y685041D01*
X1086618Y685041D01*
X1094767Y682857D01*
X1102074Y678639D01*
X1108039Y672674D01*
X1112257Y665367D01*
X1112431Y664720D01*
X1114163Y658256D01*
X1114441Y657218D01*
X1114441Y648782D01*
X1112257Y640633D01*
X1112175Y640490D01*
X1112164Y640453D01*
X1112143Y640419D01*
X1112139Y640371D01*
X1112125Y640324D01*
X1112131Y640286D01*
X1112128Y640247D01*
X1112147Y640190D01*
X1112153Y640153D01*
X1112166Y640136D01*
X1112175Y640110D01*
X1112257Y639967D01*
X1113164Y636582D01*
X1113164Y636581D01*
X1114441Y631818D01*
X1114441Y623382D01*
X1112257Y615233D01*
X1112175Y615090D01*
X1112164Y615053D01*
X1112143Y615019D01*
X1112139Y614971D01*
X1112125Y614924D01*
X1112131Y614886D01*
X1112128Y614847D01*
X1112147Y614790D01*
X1112153Y614753D01*
X1112166Y614736D01*
X1112175Y614710D01*
X1112257Y614567D01*
X1112676Y613006D01*
X1114408Y606542D01*
X1114441Y606418D01*
X1114441Y597982D01*
X1112257Y589833D01*
X1112175Y589690D01*
X1112164Y589653D01*
X1112143Y589619D01*
X1112139Y589571D01*
X1112125Y589524D01*
X1112131Y589486D01*
X1112128Y589447D01*
X1112147Y589390D01*
X1112153Y589353D01*
X1112166Y589336D01*
X1112175Y589310D01*
X1112257Y589167D01*
X1113409Y584868D01*
X1113409Y584867D01*
X1114441Y581018D01*
X1114441Y572582D01*
X1112257Y564433D01*
X1112175Y564290D01*
X1112164Y564253D01*
X1112143Y564219D01*
X1112139Y564171D01*
X1112125Y564124D01*
X1112131Y564086D01*
X1112128Y564047D01*
X1112147Y563990D01*
X1112153Y563953D01*
X1112166Y563936D01*
X1112175Y563910D01*
X1112257Y563767D01*
X1112920Y561292D01*
X1114441Y555618D01*
X1114441Y547182D01*
X1112257Y539033D01*
X1112175Y538890D01*
X1112164Y538853D01*
X1112143Y538819D01*
X1112139Y538771D01*
X1112125Y538724D01*
X1112131Y538686D01*
X1112128Y538647D01*
X1112147Y538590D01*
X1112153Y538553D01*
X1112166Y538536D01*
X1112175Y538510D01*
X1112257Y538367D01*
X1113654Y533154D01*
X1113654Y533153D01*
X1114441Y530218D01*
X1114441Y521782D01*
X1112257Y513633D01*
X1108039Y506326D01*
X1102074Y500361D01*
X1094767Y496143D01*
X1086618Y493959D01*
X1078182Y493959D01*
X1070033Y496143D01*
X1069890Y496225D01*
X1069853Y496236D01*
X1069819Y496257D01*
X1069771Y496261D01*
X1069724Y496275D01*
X1069686Y496269D01*
X1069647Y496272D01*
X1069590Y496253D01*
X1069553Y496247D01*
X1069536Y496234D01*
X1069510Y496225D01*
X1069367Y496143D01*
X1061218Y493959D01*
X1052782Y493959D01*
G37*
%LPD*%
%LPC*%
G36*
X505782Y130959D02*
X505782Y130959D01*
X497633Y133143D01*
X490326Y137361D01*
X484361Y143326D01*
X480143Y150633D01*
X480092Y150823D01*
X478360Y157288D01*
X477959Y158782D01*
X477959Y167218D01*
X480143Y175367D01*
X480225Y175510D01*
X480236Y175547D01*
X480257Y175581D01*
X480261Y175629D01*
X480275Y175676D01*
X480269Y175714D01*
X480272Y175753D01*
X480253Y175810D01*
X480247Y175847D01*
X480234Y175864D01*
X480225Y175890D01*
X480143Y176033D01*
X479358Y178962D01*
X477959Y184182D01*
X477959Y192618D01*
X480143Y200767D01*
X480225Y200910D01*
X480236Y200947D01*
X480257Y200981D01*
X480261Y201029D01*
X480275Y201076D01*
X480269Y201114D01*
X480272Y201153D01*
X480253Y201210D01*
X480247Y201247D01*
X480234Y201264D01*
X480225Y201290D01*
X480143Y201433D01*
X479847Y202537D01*
X478115Y209002D01*
X477959Y209582D01*
X477959Y218018D01*
X480143Y226167D01*
X480225Y226310D01*
X480236Y226347D01*
X480257Y226381D01*
X480261Y226429D01*
X480275Y226476D01*
X480269Y226514D01*
X480272Y226553D01*
X480253Y226610D01*
X480247Y226647D01*
X480234Y226664D01*
X480225Y226690D01*
X480143Y226833D01*
X479113Y230676D01*
X478604Y232577D01*
X477959Y234982D01*
X477959Y243418D01*
X480143Y251567D01*
X480225Y251710D01*
X480236Y251747D01*
X480257Y251781D01*
X480261Y251829D01*
X480275Y251876D01*
X480269Y251914D01*
X480272Y251953D01*
X480253Y252010D01*
X480247Y252047D01*
X480234Y252064D01*
X480225Y252090D01*
X480143Y252233D01*
X479602Y254251D01*
X477959Y260382D01*
X477959Y268818D01*
X480143Y276967D01*
X480225Y277110D01*
X480236Y277147D01*
X480257Y277181D01*
X480261Y277229D01*
X480275Y277276D01*
X480269Y277314D01*
X480272Y277353D01*
X480253Y277410D01*
X480247Y277447D01*
X480234Y277464D01*
X480225Y277490D01*
X480143Y277633D01*
X480091Y277827D01*
X478359Y284291D01*
X477959Y285782D01*
X477959Y294218D01*
X480143Y302367D01*
X484361Y309674D01*
X490326Y315639D01*
X497633Y319857D01*
X505782Y322041D01*
X514218Y322041D01*
X522367Y319857D01*
X522510Y319775D01*
X522547Y319764D01*
X522581Y319743D01*
X522629Y319739D01*
X522676Y319725D01*
X522714Y319731D01*
X522753Y319728D01*
X522810Y319747D01*
X522847Y319753D01*
X522864Y319766D01*
X522890Y319775D01*
X523033Y319857D01*
X531182Y322041D01*
X539618Y322041D01*
X547767Y319857D01*
X555074Y315639D01*
X561039Y309674D01*
X565257Y302367D01*
X566283Y298539D01*
X567441Y294218D01*
X567441Y285782D01*
X565257Y277633D01*
X565175Y277490D01*
X565164Y277453D01*
X565143Y277419D01*
X565139Y277371D01*
X565125Y277324D01*
X565131Y277286D01*
X565128Y277247D01*
X565147Y277190D01*
X565153Y277153D01*
X565166Y277136D01*
X565175Y277110D01*
X565257Y276967D01*
X565285Y276865D01*
X567017Y270401D01*
X567441Y268818D01*
X567441Y260382D01*
X565257Y252233D01*
X565175Y252090D01*
X565164Y252053D01*
X565143Y252019D01*
X565139Y251971D01*
X565125Y251924D01*
X565131Y251886D01*
X565128Y251847D01*
X565147Y251790D01*
X565153Y251753D01*
X565166Y251736D01*
X565175Y251710D01*
X565257Y251567D01*
X566528Y246825D01*
X567441Y243418D01*
X567441Y234982D01*
X565257Y226833D01*
X565175Y226690D01*
X565164Y226653D01*
X565143Y226619D01*
X565139Y226571D01*
X565125Y226524D01*
X565131Y226486D01*
X565128Y226447D01*
X565147Y226390D01*
X565153Y226353D01*
X565166Y226336D01*
X565175Y226310D01*
X565257Y226167D01*
X565530Y225151D01*
X567262Y218687D01*
X567441Y218018D01*
X567441Y209582D01*
X565257Y201433D01*
X565175Y201290D01*
X565164Y201253D01*
X565143Y201219D01*
X565139Y201171D01*
X565125Y201124D01*
X565131Y201086D01*
X565128Y201047D01*
X565147Y200990D01*
X565153Y200953D01*
X565166Y200936D01*
X565175Y200910D01*
X565257Y200767D01*
X566773Y195111D01*
X567441Y192618D01*
X567441Y184182D01*
X565257Y176033D01*
X565175Y175890D01*
X565164Y175853D01*
X565143Y175819D01*
X565139Y175771D01*
X565125Y175724D01*
X565131Y175686D01*
X565128Y175647D01*
X565147Y175590D01*
X565153Y175553D01*
X565166Y175536D01*
X565175Y175510D01*
X565257Y175367D01*
X565774Y173437D01*
X566284Y171536D01*
X567441Y167218D01*
X567441Y158782D01*
X565257Y150633D01*
X561039Y143326D01*
X555074Y137361D01*
X547767Y133143D01*
X539618Y130959D01*
X531182Y130959D01*
X523033Y133143D01*
X522890Y133225D01*
X522853Y133236D01*
X522819Y133257D01*
X522771Y133261D01*
X522724Y133275D01*
X522686Y133269D01*
X522647Y133272D01*
X522590Y133253D01*
X522553Y133247D01*
X522536Y133234D01*
X522510Y133225D01*
X522367Y133143D01*
X514218Y130959D01*
X505782Y130959D01*
G37*
%LPD*%
%LPC*%
G36*
X1515782Y130959D02*
X1515782Y130959D01*
X1507633Y133143D01*
X1500326Y137361D01*
X1494361Y143326D01*
X1490143Y150633D01*
X1490092Y150823D01*
X1488360Y157288D01*
X1487959Y158782D01*
X1487959Y167218D01*
X1490143Y175367D01*
X1490225Y175510D01*
X1490236Y175547D01*
X1490257Y175581D01*
X1490261Y175629D01*
X1490275Y175676D01*
X1490269Y175714D01*
X1490272Y175753D01*
X1490253Y175810D01*
X1490247Y175847D01*
X1490234Y175864D01*
X1490225Y175890D01*
X1490143Y176033D01*
X1489358Y178962D01*
X1487959Y184182D01*
X1487959Y192618D01*
X1490143Y200767D01*
X1490225Y200910D01*
X1490236Y200947D01*
X1490257Y200981D01*
X1490261Y201029D01*
X1490275Y201076D01*
X1490269Y201114D01*
X1490272Y201153D01*
X1490253Y201210D01*
X1490247Y201247D01*
X1490234Y201264D01*
X1490225Y201290D01*
X1490143Y201433D01*
X1489847Y202537D01*
X1488115Y209002D01*
X1487959Y209582D01*
X1487959Y218018D01*
X1490143Y226167D01*
X1490225Y226310D01*
X1490236Y226347D01*
X1490257Y226381D01*
X1490261Y226429D01*
X1490275Y226476D01*
X1490269Y226514D01*
X1490272Y226553D01*
X1490253Y226610D01*
X1490247Y226647D01*
X1490234Y226664D01*
X1490225Y226690D01*
X1490143Y226833D01*
X1489113Y230676D01*
X1488604Y232577D01*
X1487959Y234982D01*
X1487959Y243418D01*
X1490143Y251567D01*
X1490225Y251710D01*
X1490236Y251747D01*
X1490257Y251781D01*
X1490261Y251829D01*
X1490275Y251876D01*
X1490269Y251914D01*
X1490272Y251953D01*
X1490253Y252010D01*
X1490247Y252047D01*
X1490234Y252064D01*
X1490225Y252090D01*
X1490143Y252233D01*
X1489602Y254251D01*
X1487959Y260382D01*
X1487959Y268818D01*
X1490143Y276967D01*
X1490225Y277110D01*
X1490236Y277147D01*
X1490257Y277181D01*
X1490261Y277229D01*
X1490275Y277276D01*
X1490269Y277314D01*
X1490272Y277353D01*
X1490253Y277410D01*
X1490247Y277447D01*
X1490234Y277464D01*
X1490225Y277490D01*
X1490143Y277633D01*
X1490091Y277827D01*
X1488359Y284291D01*
X1487959Y285782D01*
X1487959Y294218D01*
X1490143Y302367D01*
X1494361Y309674D01*
X1500326Y315639D01*
X1507221Y319620D01*
X1558179Y319620D01*
X1565074Y315639D01*
X1571039Y309674D01*
X1575257Y302367D01*
X1576283Y298539D01*
X1577441Y294218D01*
X1577441Y285782D01*
X1575257Y277633D01*
X1575175Y277490D01*
X1575164Y277453D01*
X1575143Y277419D01*
X1575139Y277371D01*
X1575125Y277324D01*
X1575131Y277286D01*
X1575128Y277247D01*
X1575147Y277190D01*
X1575153Y277153D01*
X1575166Y277136D01*
X1575175Y277110D01*
X1575257Y276967D01*
X1575285Y276865D01*
X1577017Y270401D01*
X1577441Y268818D01*
X1577441Y260382D01*
X1575257Y252233D01*
X1575175Y252090D01*
X1575164Y252053D01*
X1575143Y252019D01*
X1575139Y251971D01*
X1575125Y251924D01*
X1575131Y251886D01*
X1575128Y251847D01*
X1575147Y251790D01*
X1575153Y251753D01*
X1575166Y251736D01*
X1575175Y251710D01*
X1575257Y251567D01*
X1576528Y246825D01*
X1577441Y243418D01*
X1577441Y234982D01*
X1575257Y226833D01*
X1575175Y226690D01*
X1575164Y226653D01*
X1575143Y226619D01*
X1575139Y226571D01*
X1575125Y226524D01*
X1575131Y226486D01*
X1575128Y226447D01*
X1575147Y226390D01*
X1575153Y226353D01*
X1575166Y226336D01*
X1575175Y226310D01*
X1575257Y226167D01*
X1575530Y225151D01*
X1577262Y218687D01*
X1577441Y218018D01*
X1577441Y209582D01*
X1575257Y201433D01*
X1575175Y201290D01*
X1575164Y201253D01*
X1575143Y201219D01*
X1575139Y201171D01*
X1575125Y201124D01*
X1575131Y201086D01*
X1575128Y201047D01*
X1575147Y200990D01*
X1575153Y200953D01*
X1575166Y200936D01*
X1575175Y200910D01*
X1575257Y200767D01*
X1576773Y195111D01*
X1577441Y192618D01*
X1577441Y184182D01*
X1575257Y176033D01*
X1575175Y175890D01*
X1575164Y175853D01*
X1575143Y175819D01*
X1575139Y175771D01*
X1575125Y175724D01*
X1575131Y175686D01*
X1575128Y175647D01*
X1575147Y175590D01*
X1575153Y175553D01*
X1575166Y175536D01*
X1575175Y175510D01*
X1575257Y175367D01*
X1575774Y173437D01*
X1576284Y171536D01*
X1577441Y167218D01*
X1577441Y158782D01*
X1575257Y150633D01*
X1571039Y143326D01*
X1565074Y137361D01*
X1557767Y133143D01*
X1549618Y130959D01*
X1541182Y130959D01*
X1533033Y133143D01*
X1532890Y133225D01*
X1532853Y133236D01*
X1532819Y133257D01*
X1532771Y133261D01*
X1532724Y133275D01*
X1532686Y133269D01*
X1532647Y133272D01*
X1532590Y133253D01*
X1532553Y133247D01*
X1532536Y133234D01*
X1532510Y133225D01*
X1532367Y133143D01*
X1524218Y130959D01*
X1515782Y130959D01*
G37*
%LPD*%
%LPC*%
G36*
X787382Y697959D02*
X787382Y697959D01*
X779233Y700143D01*
X771926Y704361D01*
X770380Y705907D01*
X770380Y779493D01*
X771926Y781039D01*
X779233Y785257D01*
X783109Y786296D01*
X783154Y786320D01*
X783203Y786335D01*
X783229Y786360D01*
X783262Y786378D01*
X783291Y786419D01*
X783328Y786454D01*
X783341Y786489D01*
X783362Y786519D01*
X783370Y786569D01*
X783388Y786617D01*
X783385Y786660D01*
X783390Y786690D01*
X783381Y786719D01*
X783378Y786762D01*
X782606Y789643D01*
X781199Y794892D01*
X781199Y805108D01*
X783843Y814976D01*
X788952Y823824D01*
X796176Y831048D01*
X805024Y836157D01*
X814892Y838801D01*
X825108Y838801D01*
X834976Y836157D01*
X843824Y831048D01*
X851048Y823824D01*
X856157Y814976D01*
X858006Y808074D01*
X858801Y805108D01*
X858801Y794892D01*
X856157Y785024D01*
X851048Y776176D01*
X845520Y770647D01*
X845519Y770646D01*
X845518Y770646D01*
X845474Y770573D01*
X845428Y770500D01*
X845428Y770499D01*
X845428Y770498D01*
X845420Y770412D01*
X845412Y770328D01*
X845412Y770327D01*
X845412Y770325D01*
X845459Y770188D01*
X846857Y767767D01*
X847367Y765867D01*
X847367Y765866D01*
X849041Y759618D01*
X849041Y751182D01*
X846857Y743033D01*
X846775Y742890D01*
X846764Y742853D01*
X846743Y742819D01*
X846739Y742771D01*
X846725Y742724D01*
X846731Y742686D01*
X846728Y742647D01*
X846747Y742590D01*
X846753Y742553D01*
X846766Y742536D01*
X846775Y742510D01*
X846857Y742367D01*
X848100Y737728D01*
X849041Y734218D01*
X849041Y725782D01*
X846857Y717633D01*
X842639Y710326D01*
X836674Y704361D01*
X829367Y700143D01*
X821218Y697959D01*
X812782Y697959D01*
X804633Y700143D01*
X804490Y700225D01*
X804453Y700236D01*
X804419Y700257D01*
X804371Y700261D01*
X804324Y700275D01*
X804286Y700269D01*
X804247Y700272D01*
X804190Y700253D01*
X804153Y700247D01*
X804136Y700234D01*
X804110Y700225D01*
X803967Y700143D01*
X795818Y697959D01*
X787382Y697959D01*
G37*
%LPD*%
%LPC*%
G36*
X1208678Y841093D02*
X1208678Y841093D01*
X1198782Y843744D01*
X1189910Y848866D01*
X1182666Y856110D01*
X1177544Y864982D01*
X1175010Y874439D01*
X1174893Y874878D01*
X1174893Y885122D01*
X1177544Y895018D01*
X1182666Y903890D01*
X1189910Y911134D01*
X1198782Y916256D01*
X1208678Y918907D01*
X1218922Y918907D01*
X1228818Y916256D01*
X1237690Y911134D01*
X1244934Y903890D01*
X1250056Y895018D01*
X1250427Y893631D01*
X1250427Y893630D01*
X1250937Y891729D01*
X1251533Y889506D01*
X1251568Y889440D01*
X1251599Y889372D01*
X1251609Y889364D01*
X1251615Y889353D01*
X1251675Y889309D01*
X1251733Y889262D01*
X1251745Y889259D01*
X1251756Y889252D01*
X1251829Y889240D01*
X1251902Y889224D01*
X1251914Y889227D01*
X1251927Y889225D01*
X1251998Y889247D01*
X1252071Y889264D01*
X1252080Y889272D01*
X1252092Y889276D01*
X1252146Y889327D01*
X1252204Y889375D01*
X1252210Y889388D01*
X1252218Y889395D01*
X1252231Y889431D01*
X1252267Y889506D01*
X1253744Y895018D01*
X1258866Y903890D01*
X1266110Y911134D01*
X1274982Y916256D01*
X1284878Y918907D01*
X1295122Y918907D01*
X1305018Y916256D01*
X1313890Y911134D01*
X1321134Y903890D01*
X1326256Y895018D01*
X1328907Y885122D01*
X1328907Y874878D01*
X1326256Y864982D01*
X1321134Y856110D01*
X1313890Y848866D01*
X1305018Y843744D01*
X1295122Y841093D01*
X1284878Y841093D01*
X1274982Y843744D01*
X1266110Y848866D01*
X1258866Y856110D01*
X1253744Y864982D01*
X1252267Y870494D01*
X1252232Y870560D01*
X1252201Y870628D01*
X1252191Y870636D01*
X1252186Y870647D01*
X1252125Y870691D01*
X1252067Y870738D01*
X1252055Y870741D01*
X1252044Y870748D01*
X1251971Y870760D01*
X1251898Y870776D01*
X1251886Y870773D01*
X1251873Y870775D01*
X1251802Y870753D01*
X1251729Y870736D01*
X1251720Y870728D01*
X1251708Y870724D01*
X1251654Y870673D01*
X1251596Y870625D01*
X1251590Y870612D01*
X1251582Y870605D01*
X1251569Y870569D01*
X1251533Y870494D01*
X1250056Y864982D01*
X1244934Y856110D01*
X1237690Y848866D01*
X1228818Y843744D01*
X1218922Y841093D01*
X1208678Y841093D01*
G37*
%LPD*%
%LPC*%
G36*
X438678Y841093D02*
X438678Y841093D01*
X428782Y843744D01*
X419910Y848866D01*
X412666Y856110D01*
X407544Y864982D01*
X405010Y874439D01*
X404893Y874878D01*
X404893Y885122D01*
X407544Y895018D01*
X412666Y903890D01*
X419910Y911134D01*
X428782Y916256D01*
X438678Y918907D01*
X448922Y918907D01*
X458818Y916256D01*
X467690Y911134D01*
X474934Y903890D01*
X480056Y895018D01*
X480427Y893631D01*
X480427Y893630D01*
X480937Y891729D01*
X481533Y889506D01*
X481568Y889440D01*
X481599Y889372D01*
X481609Y889364D01*
X481615Y889353D01*
X481675Y889309D01*
X481733Y889262D01*
X481745Y889259D01*
X481756Y889252D01*
X481829Y889240D01*
X481902Y889224D01*
X481914Y889227D01*
X481927Y889225D01*
X481998Y889247D01*
X482071Y889264D01*
X482080Y889272D01*
X482092Y889276D01*
X482146Y889327D01*
X482204Y889375D01*
X482210Y889388D01*
X482218Y889395D01*
X482231Y889431D01*
X482267Y889506D01*
X483744Y895018D01*
X488866Y903890D01*
X496110Y911134D01*
X504982Y916256D01*
X514878Y918907D01*
X525122Y918907D01*
X535018Y916256D01*
X543890Y911134D01*
X551134Y903890D01*
X556256Y895018D01*
X558907Y885122D01*
X558907Y874878D01*
X556256Y864982D01*
X551134Y856110D01*
X543890Y848866D01*
X535018Y843744D01*
X525122Y841093D01*
X514878Y841093D01*
X504982Y843744D01*
X496110Y848866D01*
X488866Y856110D01*
X483744Y864982D01*
X482267Y870494D01*
X482232Y870560D01*
X482201Y870628D01*
X482191Y870636D01*
X482186Y870647D01*
X482125Y870691D01*
X482067Y870738D01*
X482055Y870741D01*
X482044Y870748D01*
X481971Y870760D01*
X481898Y870776D01*
X481886Y870773D01*
X481873Y870775D01*
X481802Y870753D01*
X481729Y870736D01*
X481720Y870728D01*
X481708Y870724D01*
X481654Y870673D01*
X481596Y870625D01*
X481590Y870612D01*
X481582Y870605D01*
X481569Y870569D01*
X481533Y870494D01*
X480056Y864982D01*
X474934Y856110D01*
X467690Y848866D01*
X458818Y843744D01*
X448922Y841093D01*
X438678Y841093D01*
G37*
%LPD*%
%LPC*%
G36*
X1018678Y841093D02*
X1018678Y841093D01*
X1008782Y843744D01*
X999910Y848866D01*
X992666Y856110D01*
X987544Y864982D01*
X985010Y874439D01*
X984893Y874878D01*
X984893Y885122D01*
X987544Y895018D01*
X992666Y903890D01*
X999910Y911134D01*
X1008782Y916256D01*
X1018678Y918907D01*
X1028922Y918907D01*
X1038818Y916256D01*
X1047690Y911134D01*
X1054934Y903890D01*
X1060056Y895018D01*
X1060427Y893631D01*
X1060427Y893630D01*
X1060937Y891729D01*
X1061533Y889506D01*
X1061568Y889440D01*
X1061599Y889372D01*
X1061609Y889364D01*
X1061615Y889353D01*
X1061675Y889309D01*
X1061733Y889262D01*
X1061745Y889259D01*
X1061756Y889252D01*
X1061829Y889240D01*
X1061902Y889224D01*
X1061914Y889227D01*
X1061927Y889225D01*
X1061998Y889247D01*
X1062071Y889264D01*
X1062080Y889272D01*
X1062092Y889276D01*
X1062146Y889327D01*
X1062204Y889375D01*
X1062210Y889388D01*
X1062218Y889395D01*
X1062231Y889431D01*
X1062267Y889506D01*
X1063744Y895018D01*
X1068866Y903890D01*
X1076110Y911134D01*
X1084982Y916256D01*
X1094878Y918907D01*
X1105122Y918907D01*
X1115018Y916256D01*
X1123890Y911134D01*
X1131134Y903890D01*
X1136256Y895018D01*
X1138907Y885122D01*
X1138907Y874878D01*
X1136256Y864982D01*
X1131134Y856110D01*
X1123890Y848866D01*
X1115018Y843744D01*
X1105122Y841093D01*
X1094878Y841093D01*
X1084982Y843744D01*
X1076110Y848866D01*
X1068866Y856110D01*
X1063744Y864982D01*
X1062267Y870494D01*
X1062232Y870560D01*
X1062201Y870628D01*
X1062191Y870636D01*
X1062186Y870647D01*
X1062125Y870691D01*
X1062067Y870738D01*
X1062055Y870741D01*
X1062044Y870748D01*
X1061971Y870760D01*
X1061898Y870776D01*
X1061886Y870773D01*
X1061873Y870775D01*
X1061802Y870753D01*
X1061729Y870736D01*
X1061720Y870728D01*
X1061708Y870724D01*
X1061654Y870673D01*
X1061596Y870625D01*
X1061590Y870612D01*
X1061582Y870605D01*
X1061569Y870569D01*
X1061533Y870494D01*
X1060056Y864982D01*
X1054934Y856110D01*
X1047690Y848866D01*
X1038818Y843744D01*
X1028922Y841093D01*
X1018678Y841093D01*
G37*
%LPD*%
%LPC*%
G36*
X248678Y841093D02*
X248678Y841093D01*
X238782Y843744D01*
X229910Y848866D01*
X222666Y856110D01*
X217544Y864982D01*
X215010Y874439D01*
X214893Y874878D01*
X214893Y885122D01*
X217544Y895018D01*
X222666Y903890D01*
X229910Y911134D01*
X238782Y916256D01*
X248678Y918907D01*
X258922Y918907D01*
X268818Y916256D01*
X277690Y911134D01*
X284934Y903890D01*
X290056Y895018D01*
X291243Y890589D01*
X291243Y890588D01*
X291533Y889506D01*
X291568Y889440D01*
X291599Y889372D01*
X291609Y889364D01*
X291615Y889353D01*
X291675Y889309D01*
X291733Y889262D01*
X291745Y889259D01*
X291756Y889252D01*
X291829Y889240D01*
X291902Y889224D01*
X291914Y889227D01*
X291927Y889225D01*
X291998Y889247D01*
X292071Y889264D01*
X292080Y889272D01*
X292092Y889276D01*
X292146Y889327D01*
X292204Y889375D01*
X292210Y889388D01*
X292218Y889395D01*
X292231Y889431D01*
X292267Y889506D01*
X293744Y895018D01*
X298866Y903890D01*
X306110Y911134D01*
X314982Y916256D01*
X324878Y918907D01*
X335122Y918907D01*
X345018Y916256D01*
X353890Y911134D01*
X361134Y903890D01*
X366256Y895018D01*
X368907Y885122D01*
X368907Y874878D01*
X366256Y864982D01*
X361134Y856110D01*
X353890Y848866D01*
X345018Y843744D01*
X335122Y841093D01*
X324878Y841093D01*
X314982Y843744D01*
X306110Y848866D01*
X298866Y856110D01*
X293744Y864982D01*
X293146Y867214D01*
X292267Y870494D01*
X292232Y870560D01*
X292201Y870628D01*
X292191Y870636D01*
X292186Y870647D01*
X292125Y870691D01*
X292067Y870738D01*
X292055Y870741D01*
X292044Y870748D01*
X291971Y870760D01*
X291898Y870776D01*
X291886Y870773D01*
X291873Y870775D01*
X291802Y870753D01*
X291729Y870736D01*
X291720Y870728D01*
X291708Y870724D01*
X291654Y870673D01*
X291596Y870625D01*
X291590Y870612D01*
X291582Y870605D01*
X291569Y870569D01*
X291533Y870494D01*
X290056Y864982D01*
X284934Y856110D01*
X277690Y848866D01*
X268818Y843744D01*
X258922Y841093D01*
X248678Y841093D01*
G37*
%LPD*%
%LPC*%
G36*
X828678Y841093D02*
X828678Y841093D01*
X818782Y843744D01*
X809910Y848866D01*
X802666Y856110D01*
X797544Y864982D01*
X795010Y874439D01*
X794893Y874878D01*
X794893Y885122D01*
X797544Y895018D01*
X802666Y903890D01*
X809910Y911134D01*
X818782Y916256D01*
X828678Y918907D01*
X838922Y918907D01*
X848818Y916256D01*
X857690Y911134D01*
X864934Y903890D01*
X870056Y895018D01*
X871243Y890589D01*
X871243Y890588D01*
X871533Y889506D01*
X871568Y889440D01*
X871599Y889372D01*
X871609Y889364D01*
X871615Y889353D01*
X871675Y889309D01*
X871733Y889262D01*
X871745Y889259D01*
X871756Y889252D01*
X871829Y889240D01*
X871902Y889224D01*
X871914Y889227D01*
X871927Y889225D01*
X871998Y889247D01*
X872071Y889264D01*
X872080Y889272D01*
X872092Y889276D01*
X872146Y889327D01*
X872204Y889375D01*
X872210Y889388D01*
X872218Y889395D01*
X872231Y889431D01*
X872267Y889506D01*
X873744Y895018D01*
X878866Y903890D01*
X886110Y911134D01*
X894982Y916256D01*
X904878Y918907D01*
X915122Y918907D01*
X925018Y916256D01*
X933890Y911134D01*
X941134Y903890D01*
X946256Y895018D01*
X948907Y885122D01*
X948907Y874878D01*
X946256Y864982D01*
X941134Y856110D01*
X933890Y848866D01*
X925018Y843744D01*
X915122Y841093D01*
X904878Y841093D01*
X894982Y843744D01*
X886110Y848866D01*
X878866Y856110D01*
X873744Y864982D01*
X873146Y867214D01*
X872267Y870494D01*
X872232Y870560D01*
X872201Y870628D01*
X872191Y870636D01*
X872186Y870647D01*
X872125Y870691D01*
X872067Y870738D01*
X872055Y870741D01*
X872044Y870748D01*
X871971Y870760D01*
X871898Y870776D01*
X871886Y870773D01*
X871873Y870775D01*
X871802Y870753D01*
X871729Y870736D01*
X871720Y870728D01*
X871708Y870724D01*
X871654Y870673D01*
X871596Y870625D01*
X871590Y870612D01*
X871582Y870605D01*
X871569Y870569D01*
X871533Y870494D01*
X870056Y864982D01*
X864934Y856110D01*
X857690Y848866D01*
X848818Y843744D01*
X838922Y841093D01*
X828678Y841093D01*
G37*
%LPD*%
%LPC*%
G36*
X518143Y607919D02*
X518143Y607919D01*
X504898Y611468D01*
X493022Y618325D01*
X483325Y628022D01*
X476468Y639898D01*
X475979Y641726D01*
X475978Y641726D01*
X475469Y643627D01*
X472919Y653143D01*
X472919Y666857D01*
X476468Y680102D01*
X483325Y691978D01*
X493022Y701675D01*
X504898Y708532D01*
X518143Y712081D01*
X531857Y712081D01*
X545102Y708532D01*
X556978Y701675D01*
X566675Y691978D01*
X573532Y680102D01*
X575717Y671945D01*
X576227Y670044D01*
X576227Y670043D01*
X576736Y668142D01*
X577081Y666857D01*
X577081Y653143D01*
X573532Y639898D01*
X566675Y628022D01*
X556978Y618325D01*
X545102Y611468D01*
X531857Y607919D01*
X518143Y607919D01*
G37*
%LPD*%
%LPC*%
G36*
X953143Y687919D02*
X953143Y687919D01*
X939898Y691468D01*
X928022Y698325D01*
X918325Y708022D01*
X911468Y719898D01*
X907919Y733143D01*
X907919Y746857D01*
X911468Y760102D01*
X918325Y771978D01*
X928022Y781675D01*
X939898Y788532D01*
X953143Y792081D01*
X966857Y792081D01*
X980102Y788532D01*
X991978Y781675D01*
X1001675Y771978D01*
X1008532Y760102D01*
X1012081Y746857D01*
X1012081Y733143D01*
X1008532Y719898D01*
X1001675Y708022D01*
X991978Y698325D01*
X980102Y691468D01*
X966857Y687919D01*
X953143Y687919D01*
G37*
%LPD*%
%LPC*%
G36*
X224892Y761199D02*
X224892Y761199D01*
X215024Y763843D01*
X206176Y768952D01*
X198952Y776176D01*
X193843Y785024D01*
X192911Y788503D01*
X191689Y793066D01*
X191199Y794892D01*
X191199Y805108D01*
X193843Y814976D01*
X198952Y823824D01*
X206176Y831048D01*
X215024Y836157D01*
X224892Y838801D01*
X235108Y838801D01*
X244976Y836157D01*
X253824Y831048D01*
X261048Y823824D01*
X266157Y814976D01*
X268006Y808074D01*
X268801Y805108D01*
X268801Y794892D01*
X266157Y785024D01*
X261048Y776176D01*
X253824Y768952D01*
X244976Y763843D01*
X235108Y761199D01*
X224892Y761199D01*
G37*
%LPD*%
%LPC*%
G36*
X414892Y761199D02*
X414892Y761199D01*
X405024Y763843D01*
X396176Y768952D01*
X388952Y776176D01*
X383843Y785024D01*
X382911Y788503D01*
X381689Y793066D01*
X381199Y794892D01*
X381199Y805108D01*
X383843Y814976D01*
X388952Y823824D01*
X396176Y831048D01*
X405024Y836157D01*
X414892Y838801D01*
X425108Y838801D01*
X434976Y836157D01*
X443824Y831048D01*
X451048Y823824D01*
X456157Y814976D01*
X458006Y808074D01*
X458801Y805108D01*
X458801Y794892D01*
X456157Y785024D01*
X451048Y776176D01*
X443824Y768952D01*
X434976Y763843D01*
X425108Y761199D01*
X414892Y761199D01*
G37*
%LPD*%
%LPC*%
G36*
X775211Y528217D02*
X775211Y528217D01*
X767890Y530179D01*
X761327Y533968D01*
X755968Y539327D01*
X752179Y545890D01*
X751564Y548185D01*
X751055Y550086D01*
X750545Y551987D01*
X750217Y553211D01*
X750217Y560789D01*
X752179Y568110D01*
X753186Y569855D01*
X753194Y569881D01*
X753210Y569903D01*
X753225Y569984D01*
X753236Y570021D01*
X753235Y570032D01*
X753237Y570045D01*
X753237Y578955D01*
X753231Y578981D01*
X753234Y579008D01*
X753206Y579087D01*
X753198Y579124D01*
X753191Y579132D01*
X753186Y579145D01*
X752179Y580890D01*
X750855Y585829D01*
X750346Y587731D01*
X750217Y588211D01*
X750217Y595789D01*
X752179Y603110D01*
X755968Y609673D01*
X761327Y615032D01*
X767890Y618821D01*
X775211Y620783D01*
X782789Y620783D01*
X790110Y618821D01*
X796673Y615032D01*
X802032Y609673D01*
X805821Y603110D01*
X807783Y595789D01*
X807783Y588211D01*
X805821Y580890D01*
X804814Y579145D01*
X804806Y579119D01*
X804790Y579097D01*
X804775Y579016D01*
X804764Y578979D01*
X804765Y578968D01*
X804763Y578955D01*
X804763Y570045D01*
X804769Y570019D01*
X804766Y569992D01*
X804794Y569913D01*
X804802Y569876D01*
X804809Y569868D01*
X804814Y569855D01*
X805821Y568110D01*
X805916Y567756D01*
X806425Y565855D01*
X806935Y563954D01*
X807783Y560789D01*
X807783Y553211D01*
X805821Y545890D01*
X802032Y539327D01*
X796673Y533968D01*
X790110Y530179D01*
X782789Y528217D01*
X775211Y528217D01*
G37*
%LPD*%
%LPC*%
G36*
X1636211Y81217D02*
X1636211Y81217D01*
X1628890Y83179D01*
X1622327Y86968D01*
X1616968Y92327D01*
X1613179Y98890D01*
X1611217Y106211D01*
X1611217Y113789D01*
X1611515Y114902D01*
X1611515Y114906D01*
X1611516Y114907D01*
X1611516Y114911D01*
X1611516Y114929D01*
X1611525Y114954D01*
X1611520Y115037D01*
X1611521Y115075D01*
X1611516Y115085D01*
X1611515Y115098D01*
X1611217Y116211D01*
X1611217Y123789D01*
X1611515Y124902D01*
X1611516Y124929D01*
X1611525Y124954D01*
X1611520Y125037D01*
X1611521Y125075D01*
X1611516Y125085D01*
X1611515Y125098D01*
X1611217Y126211D01*
X1611217Y133789D01*
X1611515Y134902D01*
X1611516Y134929D01*
X1611525Y134954D01*
X1611520Y135037D01*
X1611521Y135075D01*
X1611516Y135085D01*
X1611515Y135098D01*
X1611217Y136211D01*
X1611217Y143789D01*
X1613179Y151110D01*
X1616968Y157673D01*
X1622327Y163032D01*
X1628890Y166821D01*
X1636211Y168783D01*
X1643789Y168783D01*
X1651110Y166821D01*
X1657673Y163032D01*
X1663032Y157673D01*
X1666821Y151110D01*
X1668783Y143789D01*
X1668783Y136211D01*
X1668485Y135098D01*
X1668484Y135071D01*
X1668475Y135046D01*
X1668480Y134963D01*
X1668479Y134925D01*
X1668484Y134915D01*
X1668485Y134902D01*
X1668755Y133891D01*
X1668756Y133891D01*
X1668783Y133789D01*
X1668783Y126211D01*
X1668485Y125098D01*
X1668484Y125071D01*
X1668475Y125046D01*
X1668480Y124963D01*
X1668479Y124925D01*
X1668484Y124915D01*
X1668485Y124902D01*
X1668783Y123789D01*
X1668783Y116211D01*
X1668485Y115098D01*
X1668484Y115071D01*
X1668475Y115046D01*
X1668480Y114963D01*
X1668479Y114925D01*
X1668484Y114915D01*
X1668485Y114902D01*
X1668593Y114498D01*
X1668783Y113789D01*
X1668783Y106211D01*
X1666821Y98890D01*
X1663032Y92327D01*
X1657673Y86968D01*
X1651110Y83179D01*
X1643789Y81217D01*
X1636211Y81217D01*
G37*
%LPD*%
%LPC*%
G36*
X1173211Y790217D02*
X1173211Y790217D01*
X1165890Y792179D01*
X1159327Y795968D01*
X1156637Y798658D01*
X1156614Y798672D01*
X1156597Y798693D01*
X1156522Y798729D01*
X1156490Y798749D01*
X1156479Y798750D01*
X1156467Y798756D01*
X1154890Y799179D01*
X1148327Y802968D01*
X1142968Y808327D01*
X1139179Y814890D01*
X1137895Y819683D01*
X1137894Y819683D01*
X1137385Y821584D01*
X1137217Y822211D01*
X1137217Y829789D01*
X1139179Y837110D01*
X1142968Y843673D01*
X1148327Y849032D01*
X1154890Y852821D01*
X1162211Y854783D01*
X1169789Y854783D01*
X1177110Y852821D01*
X1183673Y849032D01*
X1186363Y846342D01*
X1186386Y846328D01*
X1186403Y846307D01*
X1186478Y846271D01*
X1186510Y846251D01*
X1186521Y846250D01*
X1186533Y846244D01*
X1188110Y845821D01*
X1194673Y842032D01*
X1200032Y836673D01*
X1203821Y830110D01*
X1204835Y826326D01*
X1205344Y824425D01*
X1205783Y822789D01*
X1205783Y815211D01*
X1203821Y807890D01*
X1200032Y801327D01*
X1194673Y795968D01*
X1188110Y792179D01*
X1180789Y790217D01*
X1173211Y790217D01*
G37*
%LPD*%
%LPC*%
G36*
X1530776Y627919D02*
X1530776Y627919D01*
X1522617Y630105D01*
X1515302Y634329D01*
X1509329Y640302D01*
X1505105Y647617D01*
X1504832Y648637D01*
X1504323Y650538D01*
X1502919Y655776D01*
X1502919Y664224D01*
X1505105Y672383D01*
X1509329Y679698D01*
X1515302Y685671D01*
X1522617Y689895D01*
X1530776Y692081D01*
X1539224Y692081D01*
X1547383Y689895D01*
X1554698Y685671D01*
X1560671Y679698D01*
X1564895Y672383D01*
X1565300Y670870D01*
X1565809Y668969D01*
X1566319Y667068D01*
X1567081Y664224D01*
X1567081Y655776D01*
X1564895Y647617D01*
X1560671Y640302D01*
X1554698Y634329D01*
X1547383Y630105D01*
X1539224Y627919D01*
X1530776Y627919D01*
G37*
%LPD*%
%LPC*%
G36*
X1176211Y552673D02*
X1176211Y552673D01*
X1168890Y554635D01*
X1162327Y558424D01*
X1156968Y563783D01*
X1153179Y570346D01*
X1151217Y577667D01*
X1151217Y585245D01*
X1151393Y585902D01*
X1151394Y585929D01*
X1151403Y585954D01*
X1151397Y586036D01*
X1151399Y586075D01*
X1151394Y586085D01*
X1151393Y586098D01*
X1151217Y586755D01*
X1151217Y594333D01*
X1153179Y601654D01*
X1156968Y608217D01*
X1162327Y613576D01*
X1168890Y617365D01*
X1176211Y619327D01*
X1183789Y619327D01*
X1191110Y617365D01*
X1197673Y613576D01*
X1203032Y608217D01*
X1206821Y601654D01*
X1208783Y594333D01*
X1208783Y586755D01*
X1208607Y586098D01*
X1208606Y586071D01*
X1208597Y586046D01*
X1208603Y585963D01*
X1208601Y585925D01*
X1208606Y585915D01*
X1208607Y585902D01*
X1208783Y585245D01*
X1208783Y577667D01*
X1206821Y570346D01*
X1203032Y563783D01*
X1197673Y558424D01*
X1191110Y554635D01*
X1183789Y552673D01*
X1176211Y552673D01*
G37*
%LPD*%
%LPC*%
G36*
X1173211Y648217D02*
X1173211Y648217D01*
X1165890Y650179D01*
X1159327Y653968D01*
X1153968Y659327D01*
X1150179Y665890D01*
X1148217Y673211D01*
X1148217Y680789D01*
X1148393Y681446D01*
X1148394Y681472D01*
X1148397Y681479D01*
X1148397Y681481D01*
X1148403Y681498D01*
X1148397Y681581D01*
X1148399Y681619D01*
X1148394Y681629D01*
X1148393Y681642D01*
X1148217Y682299D01*
X1148217Y689877D01*
X1150179Y697198D01*
X1153968Y703761D01*
X1159327Y709120D01*
X1165890Y712909D01*
X1173211Y714871D01*
X1180789Y714871D01*
X1188110Y712909D01*
X1194673Y709120D01*
X1200032Y703761D01*
X1203821Y697198D01*
X1205188Y692098D01*
X1205697Y690197D01*
X1205783Y689877D01*
X1205783Y682299D01*
X1205607Y681642D01*
X1205607Y681632D01*
X1205603Y681624D01*
X1205604Y681609D01*
X1205597Y681590D01*
X1205603Y681507D01*
X1205601Y681469D01*
X1205606Y681459D01*
X1205607Y681446D01*
X1205783Y680789D01*
X1205783Y673211D01*
X1203821Y665890D01*
X1200032Y659327D01*
X1194673Y653968D01*
X1188110Y650179D01*
X1180789Y648217D01*
X1173211Y648217D01*
G37*
%LPD*%
%LPC*%
G36*
X1389211Y552673D02*
X1389211Y552673D01*
X1381890Y554635D01*
X1375327Y558424D01*
X1369968Y563783D01*
X1366179Y570346D01*
X1364217Y577667D01*
X1364217Y585245D01*
X1364393Y585902D01*
X1364394Y585929D01*
X1364403Y585954D01*
X1364397Y586036D01*
X1364399Y586075D01*
X1364394Y586085D01*
X1364393Y586098D01*
X1364217Y586755D01*
X1364217Y594333D01*
X1366179Y601654D01*
X1369968Y608217D01*
X1375327Y613576D01*
X1381890Y617365D01*
X1389211Y619327D01*
X1396789Y619327D01*
X1404110Y617365D01*
X1409620Y614184D01*
X1409620Y557816D01*
X1404110Y554635D01*
X1396789Y552673D01*
X1389211Y552673D01*
G37*
%LPD*%
%LPC*%
G36*
X1669087Y904339D02*
X1669087Y904339D01*
X1662688Y906054D01*
X1656951Y909366D01*
X1652266Y914051D01*
X1648954Y919788D01*
X1648453Y921656D01*
X1647239Y926187D01*
X1647239Y932813D01*
X1648954Y939212D01*
X1652266Y944949D01*
X1656951Y949634D01*
X1662688Y952946D01*
X1669087Y954661D01*
X1675713Y954661D01*
X1682112Y952946D01*
X1687849Y949634D01*
X1692534Y944949D01*
X1695846Y939212D01*
X1697561Y932813D01*
X1697561Y926187D01*
X1695846Y919788D01*
X1692534Y914051D01*
X1687849Y909366D01*
X1682112Y906054D01*
X1675713Y904339D01*
X1669087Y904339D01*
G37*
%LPD*%
%LPC*%
G36*
X1472287Y904339D02*
X1472287Y904339D01*
X1465888Y906054D01*
X1460151Y909366D01*
X1455466Y914051D01*
X1452154Y919788D01*
X1451653Y921656D01*
X1450439Y926187D01*
X1450439Y932813D01*
X1452154Y939212D01*
X1455466Y944949D01*
X1460151Y949634D01*
X1465888Y952946D01*
X1472287Y954661D01*
X1478913Y954661D01*
X1485312Y952946D01*
X1491049Y949634D01*
X1495734Y944949D01*
X1499046Y939212D01*
X1500761Y932813D01*
X1500761Y926187D01*
X1499046Y919788D01*
X1495734Y914051D01*
X1491049Y909366D01*
X1485312Y906054D01*
X1478913Y904339D01*
X1472287Y904339D01*
G37*
%LPD*%
%LPC*%
G36*
X1635239Y524093D02*
X1635239Y524093D01*
X1628290Y526971D01*
X1622971Y532290D01*
X1620093Y539239D01*
X1620093Y546761D01*
X1622971Y553710D01*
X1628290Y559029D01*
X1635239Y561907D01*
X1642761Y561907D01*
X1649710Y559029D01*
X1655029Y553710D01*
X1657907Y546761D01*
X1657907Y539239D01*
X1655029Y532290D01*
X1649710Y526971D01*
X1642761Y524093D01*
X1635239Y524093D01*
G37*
%LPD*%
%LPC*%
G36*
X1571484Y843849D02*
X1571484Y843849D01*
X1566834Y845775D01*
X1563275Y849334D01*
X1561349Y853984D01*
X1561349Y859016D01*
X1563275Y863666D01*
X1566834Y867225D01*
X1571484Y869151D01*
X1576516Y869151D01*
X1581166Y867225D01*
X1584725Y863666D01*
X1586651Y859016D01*
X1586651Y853984D01*
X1584725Y849334D01*
X1581166Y845775D01*
X1576516Y843849D01*
X1571484Y843849D01*
G37*
%LPD*%
%LPC*%
G36*
X1661484Y873849D02*
X1661484Y873849D01*
X1656834Y875775D01*
X1653275Y879334D01*
X1651349Y883984D01*
X1651349Y889016D01*
X1653275Y893666D01*
X1656834Y897225D01*
X1661484Y899151D01*
X1666516Y899151D01*
X1671166Y897225D01*
X1674725Y893666D01*
X1676651Y889016D01*
X1676651Y883984D01*
X1674725Y879334D01*
X1671166Y875775D01*
X1666516Y873849D01*
X1661484Y873849D01*
G37*
%LPD*%
%LPC*%
G36*
X1691484Y873849D02*
X1691484Y873849D01*
X1686834Y875775D01*
X1683275Y879334D01*
X1681349Y883984D01*
X1681349Y889016D01*
X1683275Y893666D01*
X1686834Y897225D01*
X1691484Y899151D01*
X1696516Y899151D01*
X1701166Y897225D01*
X1704725Y893666D01*
X1706651Y889016D01*
X1706651Y883984D01*
X1704725Y879334D01*
X1701166Y875775D01*
X1696516Y873849D01*
X1691484Y873849D01*
G37*
%LPD*%
%LPC*%
G36*
X1631484Y873849D02*
X1631484Y873849D01*
X1626834Y875775D01*
X1623275Y879334D01*
X1621349Y883984D01*
X1621349Y889016D01*
X1623275Y893666D01*
X1626834Y897225D01*
X1631484Y899151D01*
X1636516Y899151D01*
X1641166Y897225D01*
X1644725Y893666D01*
X1646651Y889016D01*
X1646651Y883984D01*
X1644725Y879334D01*
X1641166Y875775D01*
X1636516Y873849D01*
X1631484Y873849D01*
G37*
%LPD*%
%LPC*%
G36*
X1661484Y843849D02*
X1661484Y843849D01*
X1656834Y845775D01*
X1653275Y849334D01*
X1651349Y853984D01*
X1651349Y859016D01*
X1653275Y863666D01*
X1656834Y867225D01*
X1661484Y869151D01*
X1666516Y869151D01*
X1671166Y867225D01*
X1674725Y863666D01*
X1676651Y859016D01*
X1676651Y853984D01*
X1674725Y849334D01*
X1671166Y845775D01*
X1666516Y843849D01*
X1661484Y843849D01*
G37*
%LPD*%
%LPC*%
G36*
X1511484Y843849D02*
X1511484Y843849D01*
X1506834Y845775D01*
X1503275Y849334D01*
X1501349Y853984D01*
X1501349Y859016D01*
X1503275Y863666D01*
X1506834Y867225D01*
X1511484Y869151D01*
X1516516Y869151D01*
X1521166Y867225D01*
X1524725Y863666D01*
X1526651Y859016D01*
X1526651Y853984D01*
X1524725Y849334D01*
X1521166Y845775D01*
X1516516Y843849D01*
X1511484Y843849D01*
G37*
%LPD*%
%LPC*%
G36*
X1541484Y843849D02*
X1541484Y843849D01*
X1536834Y845775D01*
X1533275Y849334D01*
X1531349Y853984D01*
X1531349Y859016D01*
X1533275Y863666D01*
X1536834Y867225D01*
X1541484Y869151D01*
X1546516Y869151D01*
X1551166Y867225D01*
X1554725Y863666D01*
X1556651Y859016D01*
X1556651Y853984D01*
X1554725Y849334D01*
X1551166Y845775D01*
X1546516Y843849D01*
X1541484Y843849D01*
G37*
%LPD*%
%LPC*%
G36*
X1601484Y873849D02*
X1601484Y873849D01*
X1596834Y875775D01*
X1593275Y879334D01*
X1591349Y883984D01*
X1591349Y889016D01*
X1593275Y893666D01*
X1596834Y897225D01*
X1601484Y899151D01*
X1606516Y899151D01*
X1611166Y897225D01*
X1614725Y893666D01*
X1616651Y889016D01*
X1616651Y883984D01*
X1614725Y879334D01*
X1611166Y875775D01*
X1606516Y873849D01*
X1601484Y873849D01*
G37*
%LPD*%
%LPC*%
G36*
X1691484Y843849D02*
X1691484Y843849D01*
X1686834Y845775D01*
X1683275Y849334D01*
X1681349Y853984D01*
X1681349Y859016D01*
X1683275Y863666D01*
X1686834Y867225D01*
X1691484Y869151D01*
X1696516Y869151D01*
X1701166Y867225D01*
X1704725Y863666D01*
X1706651Y859016D01*
X1706651Y853984D01*
X1704725Y849334D01*
X1701166Y845775D01*
X1696516Y843849D01*
X1691484Y843849D01*
G37*
%LPD*%
%LPC*%
G36*
X1571484Y873849D02*
X1571484Y873849D01*
X1566834Y875775D01*
X1563275Y879334D01*
X1561349Y883984D01*
X1561349Y889016D01*
X1563275Y893666D01*
X1566834Y897225D01*
X1571484Y899151D01*
X1576516Y899151D01*
X1581166Y897225D01*
X1584725Y893666D01*
X1586651Y889016D01*
X1586651Y883984D01*
X1584725Y879334D01*
X1581166Y875775D01*
X1576516Y873849D01*
X1571484Y873849D01*
G37*
%LPD*%
%LPC*%
G36*
X1541484Y873849D02*
X1541484Y873849D01*
X1536834Y875775D01*
X1533275Y879334D01*
X1531349Y883984D01*
X1531349Y889016D01*
X1533275Y893666D01*
X1536834Y897225D01*
X1541484Y899151D01*
X1546516Y899151D01*
X1551166Y897225D01*
X1554725Y893666D01*
X1556651Y889016D01*
X1556651Y883984D01*
X1554725Y879334D01*
X1551166Y875775D01*
X1546516Y873849D01*
X1541484Y873849D01*
G37*
%LPD*%
%LPC*%
G36*
X1601484Y843849D02*
X1601484Y843849D01*
X1596834Y845775D01*
X1593275Y849334D01*
X1591349Y853984D01*
X1591349Y859016D01*
X1593275Y863666D01*
X1596834Y867225D01*
X1601484Y869151D01*
X1606516Y869151D01*
X1611166Y867225D01*
X1614725Y863666D01*
X1616651Y859016D01*
X1616651Y853984D01*
X1614725Y849334D01*
X1611166Y845775D01*
X1606516Y843849D01*
X1601484Y843849D01*
G37*
%LPD*%
%LPC*%
G36*
X1481484Y843849D02*
X1481484Y843849D01*
X1476834Y845775D01*
X1473275Y849334D01*
X1471349Y853984D01*
X1471349Y859016D01*
X1473275Y863666D01*
X1476834Y867225D01*
X1481484Y869151D01*
X1486516Y869151D01*
X1491166Y867225D01*
X1494725Y863666D01*
X1496651Y859016D01*
X1496651Y853984D01*
X1494725Y849334D01*
X1491166Y845775D01*
X1486516Y843849D01*
X1481484Y843849D01*
G37*
%LPD*%
%LPC*%
G36*
X1631484Y843849D02*
X1631484Y843849D01*
X1626834Y845775D01*
X1623275Y849334D01*
X1621349Y853984D01*
X1621349Y859016D01*
X1623275Y863666D01*
X1626834Y867225D01*
X1631484Y869151D01*
X1636516Y869151D01*
X1641166Y867225D01*
X1644725Y863666D01*
X1646651Y859016D01*
X1646651Y853984D01*
X1644725Y849334D01*
X1641166Y845775D01*
X1636516Y843849D01*
X1631484Y843849D01*
G37*
%LPD*%
%LPC*%
G36*
X1511484Y873849D02*
X1511484Y873849D01*
X1506834Y875775D01*
X1503275Y879334D01*
X1501349Y883984D01*
X1501349Y889016D01*
X1503275Y893666D01*
X1506834Y897225D01*
X1511484Y899151D01*
X1516516Y899151D01*
X1521166Y897225D01*
X1524725Y893666D01*
X1526651Y889016D01*
X1526651Y883984D01*
X1524725Y879334D01*
X1521166Y875775D01*
X1516516Y873849D01*
X1511484Y873849D01*
G37*
%LPD*%
%LPC*%
G36*
X1481484Y873849D02*
X1481484Y873849D01*
X1476834Y875775D01*
X1473275Y879334D01*
X1471349Y883984D01*
X1471349Y889016D01*
X1473275Y893666D01*
X1476834Y897225D01*
X1481484Y899151D01*
X1486516Y899151D01*
X1491166Y897225D01*
X1494725Y893666D01*
X1496651Y889016D01*
X1496651Y883984D01*
X1494725Y879334D01*
X1491166Y875775D01*
X1486516Y873849D01*
X1481484Y873849D01*
G37*
%LPD*%
%LPC*%
G36*
X1451484Y873849D02*
X1451484Y873849D01*
X1446834Y875775D01*
X1443275Y879334D01*
X1441349Y883984D01*
X1441349Y889016D01*
X1443275Y893666D01*
X1446834Y897225D01*
X1451484Y899151D01*
X1456516Y899151D01*
X1461166Y897225D01*
X1464725Y893666D01*
X1466651Y889016D01*
X1466651Y883984D01*
X1464725Y879334D01*
X1461166Y875775D01*
X1456516Y873849D01*
X1451484Y873849D01*
G37*
%LPD*%
%LPC*%
G36*
X814605Y17959D02*
X814605Y17959D01*
X810179Y19792D01*
X806792Y23179D01*
X804959Y27605D01*
X804959Y32395D01*
X806792Y36821D01*
X810179Y40208D01*
X814605Y42041D01*
X819395Y42041D01*
X823821Y40208D01*
X827208Y36821D01*
X829041Y32395D01*
X829041Y27605D01*
X827208Y23179D01*
X823821Y19792D01*
X819395Y17959D01*
X814605Y17959D01*
G37*
%LPD*%
%LPC*%
G36*
X933005Y255359D02*
X933005Y255359D01*
X928579Y257192D01*
X925192Y260579D01*
X923359Y265005D01*
X923359Y269795D01*
X925192Y274221D01*
X928579Y277608D01*
X933005Y279441D01*
X937795Y279441D01*
X942221Y277608D01*
X945608Y274221D01*
X947441Y269795D01*
X947441Y265005D01*
X945608Y260579D01*
X942221Y257192D01*
X937795Y255359D01*
X933005Y255359D01*
G37*
%LPD*%
%LPC*%
G36*
X907605Y229959D02*
X907605Y229959D01*
X903179Y231792D01*
X899792Y235179D01*
X897959Y239605D01*
X897959Y244395D01*
X899792Y248821D01*
X903179Y252208D01*
X907605Y254041D01*
X912395Y254041D01*
X916821Y252208D01*
X920208Y248821D01*
X922041Y244395D01*
X922041Y239605D01*
X920208Y235179D01*
X916821Y231792D01*
X912395Y229959D01*
X907605Y229959D01*
G37*
%LPD*%
%LPC*%
G36*
X814605Y43359D02*
X814605Y43359D01*
X810179Y45192D01*
X806792Y48579D01*
X804959Y53005D01*
X804959Y57795D01*
X806792Y62221D01*
X810179Y65608D01*
X814605Y67441D01*
X819395Y67441D01*
X823821Y65608D01*
X827208Y62221D01*
X829041Y57795D01*
X829041Y53005D01*
X827208Y48579D01*
X823821Y45192D01*
X819395Y43359D01*
X814605Y43359D01*
G37*
%LPD*%
%LPC*%
G36*
X968253Y211217D02*
X968253Y211217D01*
X965025Y212554D01*
X962554Y215025D01*
X961217Y218253D01*
X961217Y221747D01*
X962554Y224975D01*
X965025Y227446D01*
X968253Y228783D01*
X971747Y228783D01*
X974975Y227446D01*
X977446Y224975D01*
X978783Y221747D01*
X978783Y218253D01*
X977446Y215025D01*
X974975Y212554D01*
X971747Y211217D01*
X968253Y211217D01*
G37*
%LPD*%
%LPC*%
G36*
X759559Y751182D02*
X759559Y751182D01*
X759559Y759618D01*
X759620Y759844D01*
X759620Y750956D01*
X759559Y751182D01*
G37*
%LPD*%
%LPC*%
G36*
X759559Y725782D02*
X759559Y725782D01*
X759559Y734218D01*
X759620Y734444D01*
X759620Y725556D01*
X759559Y725782D01*
G37*
%LPD*%
D10*
X330000Y880000D03*
X253800Y880000D03*
X910000Y880000D03*
X833800Y880000D03*
X140000Y880000D03*
X63800Y880000D03*
X1100000Y880000D03*
X1023800Y880000D03*
X520000Y880000D03*
X443800Y880000D03*
X1290000Y880000D03*
X1213800Y880000D03*
X1639000Y543000D03*
X1639000Y619200D03*
X715000Y880000D03*
X638800Y880000D03*
D11*
X1454000Y886500D03*
X1454000Y856500D03*
X1484000Y886500D03*
X1484000Y856500D03*
X1514000Y886500D03*
X1514000Y856500D03*
X1544000Y886500D03*
X1544000Y856500D03*
X1574000Y886500D03*
X1574000Y856500D03*
X1604000Y886500D03*
X1604000Y856500D03*
X1634000Y886500D03*
X1634000Y856500D03*
X1664000Y886500D03*
X1664000Y856500D03*
X1694000Y886500D03*
X1694000Y856500D03*
D12*
X40000Y800000D03*
X230000Y800000D03*
X820000Y800000D03*
X420000Y800000D03*
X625000Y801250D03*
X1690000Y705000D03*
X677500Y801250D03*
X730000Y801250D03*
D13*
X525000Y660000D03*
X525000Y50000D03*
X50000Y50000D03*
D14*
X47000Y653000D03*
X47000Y627600D03*
X47000Y602200D03*
X47000Y576800D03*
X47000Y551400D03*
X47000Y526000D03*
X72400Y653000D03*
X72400Y627600D03*
X72400Y602200D03*
X72400Y576800D03*
X72400Y551400D03*
X72400Y526000D03*
X510000Y290000D03*
X510000Y264600D03*
X510000Y239200D03*
X510000Y213800D03*
X510000Y188400D03*
X510000Y163000D03*
X535400Y290000D03*
X535400Y264600D03*
X535400Y239200D03*
X535400Y213800D03*
X535400Y188400D03*
X535400Y163000D03*
D13*
X1535000Y660000D03*
X1535000Y50000D03*
X1060000Y50000D03*
D14*
X1057000Y653000D03*
X1057000Y627600D03*
X1057000Y602200D03*
X1057000Y576800D03*
X1057000Y551400D03*
X1057000Y526000D03*
X1082400Y653000D03*
X1082400Y627600D03*
X1082400Y602200D03*
X1082400Y576800D03*
X1082400Y551400D03*
X1082400Y526000D03*
X1520000Y290000D03*
X1520000Y264600D03*
X1520000Y239200D03*
X1520000Y213800D03*
X1520000Y188400D03*
X1520000Y163000D03*
X1545400Y290000D03*
X1545400Y264600D03*
X1545400Y239200D03*
X1545400Y213800D03*
X1545400Y188400D03*
X1545400Y163000D03*
X910000Y242000D03*
X935400Y242000D03*
X910000Y267400D03*
X935400Y267400D03*
X910000Y292800D03*
X935400Y292800D03*
X910000Y318200D03*
X935400Y318200D03*
X910000Y343600D03*
X935400Y343600D03*
X910000Y369000D03*
X935400Y369000D03*
X680000Y389000D03*
X654600Y389000D03*
X680000Y363600D03*
X654600Y363600D03*
X680000Y338200D03*
X654600Y338200D03*
X680000Y312800D03*
X654600Y312800D03*
X680000Y287400D03*
X654600Y287400D03*
X680000Y262000D03*
X654600Y262000D03*
D13*
X920000Y450000D03*
X670000Y200000D03*
X620000Y50000D03*
X960000Y740000D03*
D14*
X690000Y30000D03*
X690000Y55400D03*
X715400Y30000D03*
X715400Y55400D03*
X740800Y30000D03*
X740800Y55400D03*
X766200Y30000D03*
X766200Y55400D03*
X791600Y30000D03*
X791600Y55400D03*
X817000Y30000D03*
X817000Y55400D03*
X690000Y730000D03*
X690000Y755400D03*
X715400Y730000D03*
X715400Y755400D03*
X740800Y730000D03*
X740800Y755400D03*
X766200Y730000D03*
X766200Y755400D03*
X791600Y730000D03*
X791600Y755400D03*
X817000Y730000D03*
X817000Y755400D03*
D15*
X1640000Y140000D03*
X1640000Y130000D03*
X1640000Y120000D03*
X1640000Y110000D03*
X970000Y220000D03*
X310000Y200000D03*
X310000Y180000D03*
X330000Y180000D03*
X330000Y200000D03*
X350000Y200000D03*
X350000Y180000D03*
X370000Y180000D03*
X370000Y200000D03*
X390000Y200000D03*
X390000Y180000D03*
X390000Y160000D03*
X370000Y160000D03*
X350000Y160000D03*
X330000Y160000D03*
X310000Y160000D03*
X310000Y140000D03*
X330000Y140000D03*
X350000Y140000D03*
X370000Y140000D03*
X390000Y140000D03*
X310000Y120000D03*
X330000Y120000D03*
X350000Y120000D03*
X370000Y120000D03*
X390000Y120000D03*
X310000Y100000D03*
X330000Y100000D03*
X350000Y100000D03*
X370000Y100000D03*
X390000Y100000D03*
X390000Y80000D03*
X370000Y80000D03*
X350000Y80000D03*
X330000Y80000D03*
X310000Y80000D03*
X310000Y60000D03*
X330000Y60000D03*
X350000Y60000D03*
X370000Y60000D03*
X390000Y60000D03*
X390000Y40000D03*
X370000Y40000D03*
X350000Y40000D03*
X330000Y40000D03*
X310000Y40000D03*
D16*
X804600Y43000D02*
X807000Y43000D01*
X805000Y45000D01*
X935400Y193600D02*
X935400Y242000D01*
X935400Y193600D02*
X936000Y193000D01*
X935400Y242000D02*
X1006000Y242000D01*
X1007000Y243000D01*
X910000Y267400D02*
X857600Y267400D01*
X854000Y271000D01*
X910000Y267400D02*
X935400Y242000D01*
D15*
X120000Y520000D03*
X140000Y520000D03*
X160000Y520000D03*
X180000Y520000D03*
X180000Y550000D03*
X160000Y550000D03*
X140000Y550000D03*
X120000Y550000D03*
X120000Y470000D03*
X140000Y470000D03*
X160000Y470000D03*
X180000Y470000D03*
X100000Y470000D03*
X80000Y470000D03*
X60000Y470000D03*
X40000Y470000D03*
X20000Y470000D03*
X120000Y580000D03*
X140000Y580000D03*
X160000Y580000D03*
X180000Y580000D03*
X1700000Y500000D03*
X779000Y592000D03*
D17*
X779000Y557000D01*
D15*
X779000Y557000D03*
X1177000Y819000D03*
X1177000Y686088D03*
X1166000Y826000D03*
X1177000Y677000D03*
X1180000Y590544D03*
X1393000Y590544D03*
X1180000Y581456D03*
X1393000Y581456D03*
M02*
