G04 EAGLE Gerber RS-274X export*
G75*
%MOMM*%
%FSLAX34Y34*%
%LPD*%
%INCopper Layer 2*%
%IPPOS*%
%AMOC8*
5,1,8,0,0,1.08239X$1,22.5*%
G01*
%ADD10C,2.781300*%
%ADD11C,1.530000*%
%ADD12C,2.760000*%
%ADD13C,5.416000*%
%ADD14C,1.408000*%
%ADD15C,0.756400*%
%ADD16C,0.203200*%

G36*
X1499908Y249258D02*
X1499908Y249258D01*
X1500024Y249275D01*
X1500029Y249278D01*
X1500036Y249279D01*
X1500138Y249333D01*
X1500243Y249386D01*
X1500247Y249391D01*
X1500253Y249394D01*
X1500333Y249478D01*
X1500415Y249562D01*
X1500419Y249568D01*
X1500422Y249572D01*
X1500430Y249589D01*
X1500496Y249709D01*
X1501315Y251685D01*
X1507515Y257885D01*
X1515616Y261241D01*
X1524384Y261241D01*
X1532409Y257917D01*
X1532497Y257896D01*
X1532584Y257868D01*
X1532617Y257868D01*
X1532648Y257861D01*
X1532739Y257869D01*
X1532830Y257870D01*
X1532870Y257882D01*
X1532893Y257884D01*
X1532922Y257897D01*
X1532991Y257917D01*
X1541016Y261241D01*
X1549784Y261241D01*
X1557885Y257885D01*
X1564085Y251685D01*
X1564904Y249709D01*
X1564965Y249609D01*
X1565025Y249509D01*
X1565030Y249505D01*
X1565033Y249500D01*
X1565123Y249425D01*
X1565212Y249349D01*
X1565218Y249347D01*
X1565223Y249343D01*
X1565331Y249301D01*
X1565440Y249257D01*
X1565448Y249256D01*
X1565453Y249255D01*
X1565471Y249254D01*
X1565607Y249239D01*
X1570000Y249239D01*
X1570020Y249242D01*
X1570039Y249240D01*
X1570141Y249262D01*
X1570243Y249279D01*
X1570260Y249288D01*
X1570280Y249292D01*
X1570369Y249345D01*
X1570460Y249394D01*
X1570474Y249408D01*
X1570491Y249418D01*
X1570558Y249497D01*
X1570630Y249572D01*
X1570638Y249590D01*
X1570651Y249605D01*
X1570690Y249701D01*
X1570733Y249795D01*
X1570735Y249815D01*
X1570743Y249833D01*
X1570761Y250000D01*
X1570761Y360000D01*
X1570758Y360020D01*
X1570760Y360039D01*
X1570738Y360141D01*
X1570722Y360243D01*
X1570712Y360260D01*
X1570708Y360280D01*
X1570655Y360369D01*
X1570606Y360460D01*
X1570592Y360474D01*
X1570582Y360491D01*
X1570503Y360558D01*
X1570428Y360630D01*
X1570410Y360638D01*
X1570395Y360651D01*
X1570299Y360690D01*
X1570205Y360733D01*
X1570185Y360735D01*
X1570167Y360743D01*
X1570000Y360761D01*
X1180761Y360761D01*
X1180761Y561912D01*
X1180758Y561932D01*
X1180760Y561951D01*
X1180738Y562053D01*
X1180722Y562155D01*
X1180712Y562172D01*
X1180708Y562192D01*
X1180655Y562281D01*
X1180606Y562372D01*
X1180592Y562386D01*
X1180582Y562403D01*
X1180503Y562470D01*
X1180428Y562542D01*
X1180410Y562550D01*
X1180395Y562563D01*
X1180299Y562602D01*
X1180205Y562645D01*
X1180185Y562647D01*
X1180167Y562655D01*
X1180000Y562673D01*
X1176264Y562673D01*
X1169360Y565533D01*
X1164077Y570816D01*
X1161217Y577720D01*
X1161217Y585192D01*
X1161431Y585709D01*
X1161452Y585797D01*
X1161480Y585884D01*
X1161480Y585917D01*
X1161487Y585948D01*
X1161479Y586039D01*
X1161478Y586130D01*
X1161467Y586170D01*
X1161464Y586193D01*
X1161451Y586222D01*
X1161431Y586291D01*
X1161217Y586808D01*
X1161217Y594280D01*
X1164077Y601184D01*
X1169360Y606467D01*
X1176264Y609327D01*
X1180000Y609327D01*
X1180020Y609330D01*
X1180039Y609328D01*
X1180141Y609350D01*
X1180243Y609366D01*
X1180260Y609376D01*
X1180280Y609380D01*
X1180369Y609433D01*
X1180460Y609482D01*
X1180474Y609496D01*
X1180491Y609506D01*
X1180558Y609585D01*
X1180630Y609660D01*
X1180638Y609678D01*
X1180651Y609693D01*
X1180690Y609789D01*
X1180733Y609883D01*
X1180735Y609903D01*
X1180743Y609921D01*
X1180761Y610088D01*
X1180761Y657456D01*
X1180758Y657476D01*
X1180760Y657495D01*
X1180738Y657597D01*
X1180722Y657699D01*
X1180712Y657716D01*
X1180708Y657736D01*
X1180655Y657825D01*
X1180606Y657916D01*
X1180592Y657930D01*
X1180582Y657947D01*
X1180503Y658014D01*
X1180428Y658086D01*
X1180410Y658094D01*
X1180395Y658107D01*
X1180299Y658146D01*
X1180205Y658189D01*
X1180185Y658191D01*
X1180167Y658199D01*
X1180000Y658217D01*
X1173264Y658217D01*
X1166360Y661077D01*
X1161077Y666360D01*
X1158217Y673264D01*
X1158217Y680736D01*
X1158431Y681253D01*
X1158452Y681341D01*
X1158480Y681428D01*
X1158480Y681461D01*
X1158487Y681492D01*
X1158479Y681583D01*
X1158478Y681674D01*
X1158467Y681714D01*
X1158464Y681737D01*
X1158451Y681766D01*
X1158431Y681835D01*
X1158217Y682352D01*
X1158217Y689824D01*
X1161077Y696728D01*
X1166360Y702011D01*
X1173264Y704871D01*
X1180000Y704871D01*
X1180020Y704874D01*
X1180039Y704872D01*
X1180141Y704894D01*
X1180243Y704910D01*
X1180260Y704920D01*
X1180280Y704924D01*
X1180369Y704977D01*
X1180460Y705026D01*
X1180474Y705040D01*
X1180491Y705050D01*
X1180558Y705129D01*
X1180630Y705204D01*
X1180638Y705222D01*
X1180651Y705237D01*
X1180690Y705333D01*
X1180733Y705427D01*
X1180735Y705447D01*
X1180743Y705465D01*
X1180761Y705632D01*
X1180761Y799456D01*
X1180758Y799476D01*
X1180760Y799495D01*
X1180738Y799597D01*
X1180722Y799699D01*
X1180712Y799716D01*
X1180708Y799736D01*
X1180655Y799825D01*
X1180606Y799916D01*
X1180592Y799930D01*
X1180582Y799947D01*
X1180503Y800014D01*
X1180428Y800086D01*
X1180410Y800094D01*
X1180395Y800107D01*
X1180299Y800146D01*
X1180205Y800189D01*
X1180185Y800191D01*
X1180167Y800199D01*
X1180000Y800217D01*
X1173264Y800217D01*
X1166360Y803077D01*
X1162296Y807141D01*
X1162243Y807179D01*
X1162196Y807225D01*
X1162123Y807266D01*
X1162096Y807285D01*
X1162078Y807291D01*
X1162049Y807306D01*
X1155360Y810077D01*
X1150077Y815360D01*
X1147217Y822264D01*
X1147217Y829736D01*
X1150077Y836640D01*
X1155360Y841923D01*
X1162264Y844783D01*
X1169736Y844783D01*
X1176274Y842075D01*
X1176338Y842060D01*
X1176399Y842035D01*
X1176481Y842026D01*
X1176513Y842019D01*
X1176533Y842020D01*
X1176565Y842017D01*
X1180000Y842017D01*
X1180020Y842020D01*
X1180039Y842018D01*
X1180141Y842040D01*
X1180243Y842056D01*
X1180260Y842066D01*
X1180280Y842070D01*
X1180369Y842123D01*
X1180460Y842172D01*
X1180474Y842186D01*
X1180491Y842196D01*
X1180558Y842275D01*
X1180630Y842350D01*
X1180638Y842368D01*
X1180651Y842383D01*
X1180690Y842479D01*
X1180733Y842573D01*
X1180735Y842593D01*
X1180743Y842611D01*
X1180761Y842778D01*
X1180761Y977238D01*
X1180758Y977258D01*
X1180760Y977277D01*
X1180738Y977379D01*
X1180722Y977481D01*
X1180712Y977498D01*
X1180708Y977518D01*
X1180655Y977607D01*
X1180606Y977698D01*
X1180592Y977712D01*
X1180582Y977729D01*
X1180503Y977796D01*
X1180428Y977868D01*
X1180410Y977876D01*
X1180395Y977889D01*
X1180299Y977928D01*
X1180205Y977971D01*
X1180185Y977973D01*
X1180167Y977981D01*
X1180000Y977999D01*
X970000Y977999D01*
X969980Y977996D01*
X969961Y977998D01*
X969859Y977976D01*
X969757Y977960D01*
X969740Y977950D01*
X969720Y977946D01*
X969631Y977893D01*
X969540Y977844D01*
X969526Y977830D01*
X969509Y977820D01*
X969442Y977741D01*
X969371Y977666D01*
X969362Y977648D01*
X969349Y977633D01*
X969310Y977537D01*
X969267Y977443D01*
X969265Y977423D01*
X969257Y977405D01*
X969239Y977238D01*
X969239Y781674D01*
X969246Y781631D01*
X969244Y781587D01*
X969266Y781510D01*
X969279Y781431D01*
X969299Y781392D01*
X969311Y781350D01*
X969356Y781284D01*
X969394Y781214D01*
X969425Y781184D01*
X969450Y781147D01*
X969514Y781099D01*
X969572Y781044D01*
X969612Y781026D01*
X969647Y780999D01*
X969783Y780946D01*
X969795Y780941D01*
X969798Y780940D01*
X969803Y780938D01*
X976243Y779213D01*
X985838Y773673D01*
X993673Y765838D01*
X999213Y756243D01*
X1002081Y745540D01*
X1002081Y734460D01*
X999213Y723757D01*
X993673Y714162D01*
X985838Y706327D01*
X976243Y700787D01*
X969803Y699062D01*
X969763Y699043D01*
X969720Y699034D01*
X969652Y698993D01*
X969579Y698960D01*
X969547Y698930D01*
X969509Y698908D01*
X969457Y698847D01*
X969399Y698793D01*
X969378Y698754D01*
X969349Y698721D01*
X969319Y698647D01*
X969281Y698577D01*
X969274Y698534D01*
X969257Y698493D01*
X969241Y698348D01*
X969239Y698334D01*
X969239Y698331D01*
X969239Y698326D01*
X969239Y590761D01*
X798544Y590761D01*
X798524Y590758D01*
X798505Y590760D01*
X798403Y590738D01*
X798301Y590722D01*
X798284Y590712D01*
X798264Y590708D01*
X798175Y590655D01*
X798084Y590606D01*
X798070Y590592D01*
X798053Y590582D01*
X797986Y590503D01*
X797914Y590428D01*
X797906Y590410D01*
X797893Y590395D01*
X797854Y590299D01*
X797811Y590205D01*
X797809Y590185D01*
X797801Y590167D01*
X797783Y590000D01*
X797783Y588264D01*
X794923Y581360D01*
X789640Y576077D01*
X787531Y575203D01*
X787470Y575166D01*
X787404Y575136D01*
X787366Y575101D01*
X787322Y575074D01*
X787276Y575019D01*
X787223Y574970D01*
X787198Y574924D01*
X787165Y574884D01*
X787139Y574817D01*
X787105Y574754D01*
X787095Y574703D01*
X787077Y574655D01*
X787074Y574583D01*
X787061Y574512D01*
X787069Y574461D01*
X787066Y574409D01*
X787086Y574340D01*
X787097Y574269D01*
X787120Y574223D01*
X787135Y574173D01*
X787176Y574114D01*
X787208Y574050D01*
X787245Y574013D01*
X787275Y573971D01*
X787333Y573928D01*
X787384Y573878D01*
X787447Y573843D01*
X787473Y573824D01*
X787495Y573817D01*
X787531Y573797D01*
X789640Y572923D01*
X794923Y567640D01*
X797783Y560736D01*
X797783Y553264D01*
X794923Y546360D01*
X789640Y541077D01*
X782736Y538217D01*
X775264Y538217D01*
X768360Y541077D01*
X763077Y546360D01*
X760217Y553264D01*
X760217Y560736D01*
X763077Y567640D01*
X768360Y572923D01*
X770469Y573797D01*
X770530Y573835D01*
X770596Y573864D01*
X770634Y573899D01*
X770678Y573926D01*
X770724Y573982D01*
X770777Y574030D01*
X770802Y574076D01*
X770835Y574116D01*
X770861Y574183D01*
X770895Y574246D01*
X770905Y574297D01*
X770923Y574345D01*
X770926Y574417D01*
X770939Y574488D01*
X770931Y574539D01*
X770934Y574591D01*
X770914Y574660D01*
X770903Y574731D01*
X770880Y574777D01*
X770865Y574827D01*
X770824Y574886D01*
X770792Y574950D01*
X770755Y574987D01*
X770725Y575029D01*
X770667Y575072D01*
X770616Y575122D01*
X770553Y575157D01*
X770527Y575176D01*
X770505Y575183D01*
X770469Y575203D01*
X768360Y576077D01*
X763077Y581360D01*
X760217Y588264D01*
X760217Y590000D01*
X760214Y590020D01*
X760216Y590039D01*
X760194Y590141D01*
X760178Y590243D01*
X760168Y590260D01*
X760164Y590280D01*
X760111Y590369D01*
X760062Y590460D01*
X760048Y590474D01*
X760038Y590491D01*
X759959Y590558D01*
X759884Y590630D01*
X759866Y590638D01*
X759851Y590651D01*
X759755Y590690D01*
X759661Y590733D01*
X759641Y590735D01*
X759623Y590743D01*
X759456Y590761D01*
X610000Y590761D01*
X609980Y590758D01*
X609961Y590760D01*
X609859Y590738D01*
X609757Y590722D01*
X609740Y590712D01*
X609720Y590708D01*
X609631Y590655D01*
X609540Y590606D01*
X609526Y590592D01*
X609509Y590582D01*
X609442Y590503D01*
X609371Y590428D01*
X609362Y590410D01*
X609349Y590395D01*
X609310Y590299D01*
X609267Y590205D01*
X609265Y590185D01*
X609257Y590167D01*
X609239Y590000D01*
X609239Y280000D01*
X609242Y279980D01*
X609240Y279961D01*
X609262Y279859D01*
X609279Y279757D01*
X609288Y279740D01*
X609292Y279720D01*
X609345Y279631D01*
X609394Y279540D01*
X609408Y279526D01*
X609418Y279509D01*
X609497Y279442D01*
X609572Y279371D01*
X609590Y279362D01*
X609605Y279349D01*
X609701Y279310D01*
X609795Y279267D01*
X609815Y279265D01*
X609833Y279257D01*
X610000Y279239D01*
X632985Y279239D01*
X633030Y279246D01*
X633076Y279244D01*
X633151Y279266D01*
X633227Y279279D01*
X633268Y279300D01*
X633312Y279313D01*
X633376Y279357D01*
X633445Y279394D01*
X633476Y279427D01*
X633514Y279453D01*
X633560Y279515D01*
X633614Y279572D01*
X633633Y279614D01*
X633661Y279650D01*
X633685Y279724D01*
X633718Y279795D01*
X633723Y279841D01*
X633737Y279884D01*
X633736Y279962D01*
X633745Y280039D01*
X633735Y280084D01*
X633735Y280130D01*
X633696Y280262D01*
X633692Y280280D01*
X633690Y280284D01*
X633688Y280291D01*
X632559Y283016D01*
X632559Y291784D01*
X635883Y299809D01*
X635904Y299897D01*
X635932Y299984D01*
X635932Y300017D01*
X635939Y300048D01*
X635931Y300139D01*
X635930Y300230D01*
X635918Y300270D01*
X635916Y300293D01*
X635903Y300322D01*
X635883Y300391D01*
X632559Y308416D01*
X632559Y317184D01*
X635915Y325285D01*
X642115Y331485D01*
X650216Y334841D01*
X658984Y334841D01*
X667009Y331517D01*
X667097Y331496D01*
X667184Y331468D01*
X667217Y331468D01*
X667248Y331461D01*
X667339Y331469D01*
X667430Y331470D01*
X667470Y331482D01*
X667493Y331484D01*
X667522Y331497D01*
X667591Y331517D01*
X675616Y334841D01*
X684384Y334841D01*
X692485Y331485D01*
X698685Y325285D01*
X702041Y317184D01*
X702041Y308416D01*
X698717Y300391D01*
X698696Y300303D01*
X698668Y300216D01*
X698668Y300183D01*
X698661Y300152D01*
X698669Y300061D01*
X698670Y299970D01*
X698682Y299930D01*
X698684Y299907D01*
X698697Y299878D01*
X698717Y299809D01*
X702041Y291784D01*
X702041Y283016D01*
X700912Y280291D01*
X700902Y280247D01*
X700882Y280205D01*
X700874Y280128D01*
X700856Y280052D01*
X700860Y280006D01*
X700855Y279961D01*
X700872Y279884D01*
X700879Y279807D01*
X700898Y279765D01*
X700908Y279720D01*
X700947Y279653D01*
X700979Y279582D01*
X701010Y279548D01*
X701034Y279509D01*
X701093Y279459D01*
X701146Y279401D01*
X701186Y279379D01*
X701221Y279349D01*
X701293Y279320D01*
X701361Y279283D01*
X701406Y279274D01*
X701449Y279257D01*
X701585Y279242D01*
X701603Y279239D01*
X701608Y279240D01*
X701615Y279239D01*
X890000Y279239D01*
X890020Y279242D01*
X890039Y279240D01*
X890141Y279262D01*
X890243Y279279D01*
X890260Y279288D01*
X890280Y279292D01*
X890369Y279345D01*
X890460Y279394D01*
X890474Y279408D01*
X890491Y279418D01*
X890558Y279497D01*
X890630Y279572D01*
X890638Y279590D01*
X890651Y279605D01*
X890690Y279701D01*
X890733Y279795D01*
X890735Y279815D01*
X890743Y279833D01*
X890761Y280000D01*
X890761Y281500D01*
X890751Y281565D01*
X890750Y281630D01*
X890727Y281710D01*
X890722Y281743D01*
X890712Y281760D01*
X890703Y281791D01*
X887959Y288416D01*
X887959Y297184D01*
X890703Y303809D01*
X890711Y303842D01*
X890712Y303844D01*
X890712Y303847D01*
X890718Y303873D01*
X890743Y303933D01*
X890752Y304016D01*
X890759Y304048D01*
X890758Y304068D01*
X890761Y304100D01*
X890761Y306900D01*
X890751Y306965D01*
X890750Y307030D01*
X890727Y307110D01*
X890722Y307143D01*
X890712Y307160D01*
X890703Y307191D01*
X887959Y313816D01*
X887959Y322584D01*
X890703Y329209D01*
X890718Y329273D01*
X890743Y329333D01*
X890752Y329416D01*
X890759Y329448D01*
X890758Y329468D01*
X890761Y329500D01*
X890761Y332300D01*
X890751Y332365D01*
X890750Y332430D01*
X890727Y332510D01*
X890722Y332543D01*
X890712Y332560D01*
X890703Y332591D01*
X887959Y339216D01*
X887959Y347984D01*
X890703Y354609D01*
X890718Y354673D01*
X890743Y354733D01*
X890752Y354816D01*
X890759Y354848D01*
X890758Y354868D01*
X890761Y354900D01*
X890761Y357700D01*
X890751Y357765D01*
X890750Y357830D01*
X890727Y357910D01*
X890722Y357943D01*
X890712Y357960D01*
X890703Y357991D01*
X887959Y364616D01*
X887959Y373384D01*
X890703Y380009D01*
X890718Y380073D01*
X890743Y380133D01*
X890752Y380216D01*
X890759Y380248D01*
X890758Y380268D01*
X890761Y380300D01*
X890761Y419412D01*
X890747Y419502D01*
X890739Y419593D01*
X890727Y419623D01*
X890722Y419655D01*
X890679Y419736D01*
X890643Y419820D01*
X890617Y419852D01*
X890606Y419872D01*
X890583Y419895D01*
X890538Y419951D01*
X886327Y424162D01*
X880787Y433757D01*
X877919Y444460D01*
X877919Y455540D01*
X880787Y466243D01*
X886327Y475838D01*
X894162Y483673D01*
X903757Y489213D01*
X914460Y492081D01*
X925540Y492081D01*
X936243Y489213D01*
X945838Y483673D01*
X953673Y475838D01*
X959213Y466243D01*
X962081Y455540D01*
X962081Y444460D01*
X959213Y433757D01*
X953673Y424162D01*
X949462Y419951D01*
X949409Y419877D01*
X949349Y419807D01*
X949337Y419777D01*
X949318Y419751D01*
X949291Y419664D01*
X949257Y419579D01*
X949253Y419538D01*
X949246Y419516D01*
X949247Y419484D01*
X949239Y419412D01*
X949239Y386647D01*
X949254Y386557D01*
X949261Y386466D01*
X949273Y386436D01*
X949279Y386404D01*
X949321Y386323D01*
X949357Y386240D01*
X949383Y386207D01*
X949394Y386187D01*
X949417Y386165D01*
X949462Y386109D01*
X954085Y381485D01*
X957441Y373384D01*
X957441Y364616D01*
X954117Y356591D01*
X954096Y356503D01*
X954068Y356416D01*
X954068Y356383D01*
X954061Y356352D01*
X954069Y356261D01*
X954070Y356170D01*
X954082Y356130D01*
X954084Y356107D01*
X954097Y356078D01*
X954117Y356009D01*
X957441Y347984D01*
X957441Y339216D01*
X954117Y331191D01*
X954096Y331103D01*
X954068Y331016D01*
X954068Y330983D01*
X954061Y330952D01*
X954069Y330861D01*
X954070Y330770D01*
X954082Y330730D01*
X954084Y330707D01*
X954097Y330678D01*
X954117Y330609D01*
X957441Y322584D01*
X957441Y313816D01*
X954117Y305791D01*
X954096Y305703D01*
X954068Y305616D01*
X954068Y305583D01*
X954061Y305552D01*
X954069Y305461D01*
X954070Y305370D01*
X954082Y305330D01*
X954084Y305307D01*
X954097Y305278D01*
X954117Y305209D01*
X957441Y297184D01*
X957441Y288416D01*
X954117Y280391D01*
X954096Y280303D01*
X954068Y280216D01*
X954068Y280183D01*
X954061Y280152D01*
X954069Y280061D01*
X954070Y279970D01*
X954082Y279930D01*
X954084Y279907D01*
X954097Y279878D01*
X954117Y279809D01*
X957441Y271784D01*
X957441Y263016D01*
X954117Y254991D01*
X954096Y254903D01*
X954068Y254816D01*
X954068Y254783D01*
X954061Y254752D01*
X954069Y254661D01*
X954070Y254570D01*
X954082Y254530D01*
X954084Y254507D01*
X954097Y254478D01*
X954117Y254409D01*
X956064Y249709D01*
X956125Y249609D01*
X956185Y249509D01*
X956190Y249505D01*
X956193Y249500D01*
X956283Y249425D01*
X956372Y249349D01*
X956378Y249347D01*
X956383Y249343D01*
X956491Y249301D01*
X956600Y249257D01*
X956608Y249256D01*
X956612Y249255D01*
X956631Y249254D01*
X956767Y249239D01*
X1499793Y249239D01*
X1499908Y249258D01*
G37*
G36*
X1010050Y11172D02*
X1010050Y11172D01*
X1010101Y11174D01*
X1010133Y11192D01*
X1010169Y11200D01*
X1010208Y11233D01*
X1010253Y11257D01*
X1010274Y11287D01*
X1010302Y11310D01*
X1010323Y11357D01*
X1010353Y11399D01*
X1010361Y11441D01*
X1010373Y11469D01*
X1010372Y11499D01*
X1010380Y11541D01*
X1010380Y89620D01*
X1650000Y89620D01*
X1650050Y89631D01*
X1650101Y89633D01*
X1650133Y89651D01*
X1650169Y89659D01*
X1650208Y89692D01*
X1650253Y89716D01*
X1650274Y89746D01*
X1650302Y89769D01*
X1650323Y89816D01*
X1650353Y89858D01*
X1650361Y89900D01*
X1650373Y89928D01*
X1650372Y89958D01*
X1650380Y90000D01*
X1650380Y150000D01*
X1650369Y150050D01*
X1650367Y150101D01*
X1650349Y150133D01*
X1650341Y150169D01*
X1650308Y150208D01*
X1650284Y150253D01*
X1650254Y150274D01*
X1650231Y150302D01*
X1650184Y150323D01*
X1650142Y150353D01*
X1650100Y150361D01*
X1650072Y150373D01*
X1650042Y150372D01*
X1650000Y150380D01*
X920380Y150380D01*
X920380Y250000D01*
X920369Y250050D01*
X920367Y250101D01*
X920349Y250133D01*
X920341Y250169D01*
X920308Y250208D01*
X920284Y250253D01*
X920254Y250274D01*
X920231Y250302D01*
X920184Y250323D01*
X920142Y250353D01*
X920100Y250361D01*
X920072Y250373D01*
X920042Y250372D01*
X920000Y250380D01*
X900000Y250380D01*
X899950Y250369D01*
X899899Y250367D01*
X899867Y250349D01*
X899831Y250341D01*
X899792Y250308D01*
X899747Y250284D01*
X899726Y250254D01*
X899698Y250231D01*
X899677Y250184D01*
X899647Y250142D01*
X899639Y250100D01*
X899627Y250072D01*
X899628Y250042D01*
X899620Y250000D01*
X899620Y40380D01*
X810000Y40380D01*
X809950Y40369D01*
X809899Y40367D01*
X809867Y40349D01*
X809831Y40341D01*
X809792Y40308D01*
X809747Y40284D01*
X809726Y40254D01*
X809698Y40231D01*
X809677Y40184D01*
X809647Y40142D01*
X809639Y40100D01*
X809627Y40072D01*
X809628Y40042D01*
X809620Y40000D01*
X809620Y11541D01*
X809631Y11491D01*
X809633Y11440D01*
X809651Y11408D01*
X809659Y11372D01*
X809692Y11333D01*
X809716Y11288D01*
X809746Y11267D01*
X809769Y11239D01*
X809816Y11218D01*
X809858Y11188D01*
X809900Y11180D01*
X809928Y11168D01*
X809958Y11169D01*
X810000Y11161D01*
X1010000Y11161D01*
X1010050Y11172D01*
G37*
G36*
X480050Y11172D02*
X480050Y11172D01*
X480101Y11174D01*
X480133Y11192D01*
X480169Y11200D01*
X480208Y11233D01*
X480253Y11257D01*
X480274Y11287D01*
X480302Y11310D01*
X480323Y11357D01*
X480353Y11399D01*
X480361Y11441D01*
X480373Y11469D01*
X480372Y11499D01*
X480380Y11541D01*
X480380Y79843D01*
X500158Y99620D01*
X639843Y99620D01*
X679620Y59843D01*
X679620Y11541D01*
X679631Y11491D01*
X679633Y11440D01*
X679651Y11408D01*
X679659Y11372D01*
X679692Y11333D01*
X679716Y11288D01*
X679746Y11267D01*
X679769Y11239D01*
X679816Y11218D01*
X679858Y11188D01*
X679900Y11180D01*
X679928Y11168D01*
X679958Y11169D01*
X680000Y11161D01*
X770000Y11161D01*
X770050Y11172D01*
X770101Y11174D01*
X770133Y11192D01*
X770169Y11200D01*
X770208Y11233D01*
X770253Y11257D01*
X770274Y11287D01*
X770302Y11310D01*
X770323Y11357D01*
X770353Y11399D01*
X770361Y11441D01*
X770373Y11469D01*
X770372Y11499D01*
X770380Y11541D01*
X770380Y150000D01*
X770369Y150050D01*
X770367Y150101D01*
X770349Y150133D01*
X770341Y150169D01*
X770308Y150208D01*
X770284Y150253D01*
X770254Y150274D01*
X770231Y150302D01*
X770184Y150323D01*
X770142Y150353D01*
X770100Y150361D01*
X770072Y150373D01*
X770042Y150372D01*
X770000Y150380D01*
X560000Y150380D01*
X559926Y150363D01*
X559851Y150350D01*
X559841Y150343D01*
X559831Y150341D01*
X559802Y150317D01*
X559731Y150269D01*
X549843Y140380D01*
X400380Y140380D01*
X400380Y210000D01*
X400369Y210050D01*
X400367Y210101D01*
X400349Y210133D01*
X400341Y210169D01*
X400308Y210208D01*
X400284Y210253D01*
X400254Y210274D01*
X400231Y210302D01*
X400184Y210323D01*
X400142Y210353D01*
X400100Y210361D01*
X400072Y210373D01*
X400042Y210372D01*
X400000Y210380D01*
X300000Y210380D01*
X299950Y210369D01*
X299899Y210367D01*
X299867Y210349D01*
X299831Y210341D01*
X299792Y210308D01*
X299747Y210284D01*
X299726Y210254D01*
X299698Y210231D01*
X299677Y210184D01*
X299647Y210142D01*
X299639Y210100D01*
X299627Y210072D01*
X299628Y210042D01*
X299620Y210000D01*
X299620Y11541D01*
X299631Y11491D01*
X299633Y11440D01*
X299651Y11408D01*
X299659Y11372D01*
X299692Y11333D01*
X299716Y11288D01*
X299746Y11267D01*
X299769Y11239D01*
X299816Y11218D01*
X299858Y11188D01*
X299900Y11180D01*
X299928Y11168D01*
X299958Y11169D01*
X300000Y11161D01*
X480000Y11161D01*
X480050Y11172D01*
G37*
%LPC*%
G36*
X1052616Y503959D02*
X1052616Y503959D01*
X1044515Y507315D01*
X1038315Y513515D01*
X1034959Y521616D01*
X1034959Y530384D01*
X1038283Y538409D01*
X1038304Y538497D01*
X1038332Y538584D01*
X1038332Y538617D01*
X1038339Y538648D01*
X1038331Y538739D01*
X1038330Y538830D01*
X1038318Y538870D01*
X1038316Y538893D01*
X1038303Y538922D01*
X1038283Y538991D01*
X1034959Y547016D01*
X1034959Y555784D01*
X1038283Y563809D01*
X1038304Y563897D01*
X1038332Y563984D01*
X1038332Y564017D01*
X1038339Y564048D01*
X1038331Y564139D01*
X1038330Y564230D01*
X1038318Y564270D01*
X1038316Y564293D01*
X1038303Y564322D01*
X1038283Y564391D01*
X1034959Y572416D01*
X1034959Y581184D01*
X1038283Y589209D01*
X1038304Y589297D01*
X1038332Y589384D01*
X1038332Y589417D01*
X1038339Y589448D01*
X1038331Y589539D01*
X1038333Y589557D01*
X1038330Y589568D01*
X1038330Y589630D01*
X1038318Y589670D01*
X1038316Y589693D01*
X1038303Y589722D01*
X1038283Y589791D01*
X1034959Y597816D01*
X1034959Y606584D01*
X1038283Y614609D01*
X1038304Y614697D01*
X1038332Y614784D01*
X1038332Y614817D01*
X1038339Y614848D01*
X1038331Y614939D01*
X1038330Y615030D01*
X1038318Y615070D01*
X1038316Y615093D01*
X1038303Y615122D01*
X1038283Y615191D01*
X1034959Y623216D01*
X1034959Y631984D01*
X1038283Y640009D01*
X1038304Y640097D01*
X1038332Y640184D01*
X1038332Y640217D01*
X1038339Y640248D01*
X1038331Y640339D01*
X1038330Y640430D01*
X1038318Y640470D01*
X1038316Y640493D01*
X1038303Y640522D01*
X1038283Y640591D01*
X1034959Y648616D01*
X1034959Y657384D01*
X1038315Y665485D01*
X1044515Y671685D01*
X1052616Y675041D01*
X1061384Y675041D01*
X1069409Y671717D01*
X1069497Y671696D01*
X1069584Y671668D01*
X1069617Y671668D01*
X1069648Y671661D01*
X1069739Y671669D01*
X1069830Y671670D01*
X1069870Y671682D01*
X1069893Y671684D01*
X1069922Y671697D01*
X1069991Y671717D01*
X1078016Y675041D01*
X1086784Y675041D01*
X1094885Y671685D01*
X1101085Y665485D01*
X1104441Y657384D01*
X1104441Y648616D01*
X1101117Y640591D01*
X1101096Y640503D01*
X1101068Y640416D01*
X1101068Y640383D01*
X1101061Y640352D01*
X1101069Y640261D01*
X1101070Y640170D01*
X1101082Y640130D01*
X1101084Y640107D01*
X1101097Y640078D01*
X1101117Y640009D01*
X1104441Y631984D01*
X1104441Y623216D01*
X1101117Y615191D01*
X1101096Y615103D01*
X1101068Y615016D01*
X1101068Y614983D01*
X1101061Y614952D01*
X1101069Y614861D01*
X1101070Y614770D01*
X1101082Y614730D01*
X1101084Y614707D01*
X1101097Y614678D01*
X1101117Y614609D01*
X1104441Y606584D01*
X1104441Y597816D01*
X1101117Y589791D01*
X1101107Y589751D01*
X1101094Y589723D01*
X1101090Y589684D01*
X1101068Y589616D01*
X1101068Y589583D01*
X1101061Y589552D01*
X1101067Y589480D01*
X1101067Y589478D01*
X1101068Y589474D01*
X1101069Y589461D01*
X1101070Y589370D01*
X1101082Y589330D01*
X1101084Y589307D01*
X1101097Y589278D01*
X1101117Y589209D01*
X1104441Y581184D01*
X1104441Y572416D01*
X1101117Y564391D01*
X1101096Y564303D01*
X1101068Y564216D01*
X1101068Y564183D01*
X1101061Y564152D01*
X1101069Y564061D01*
X1101070Y563970D01*
X1101082Y563930D01*
X1101084Y563907D01*
X1101097Y563878D01*
X1101117Y563809D01*
X1104441Y555784D01*
X1104441Y547016D01*
X1101117Y538991D01*
X1101096Y538903D01*
X1101068Y538816D01*
X1101068Y538783D01*
X1101061Y538752D01*
X1101069Y538661D01*
X1101070Y538570D01*
X1101082Y538530D01*
X1101084Y538507D01*
X1101097Y538478D01*
X1101117Y538409D01*
X1104441Y530384D01*
X1104441Y521616D01*
X1101085Y513515D01*
X1094885Y507315D01*
X1086784Y503959D01*
X1078016Y503959D01*
X1069991Y507283D01*
X1069903Y507304D01*
X1069816Y507332D01*
X1069783Y507332D01*
X1069752Y507339D01*
X1069661Y507331D01*
X1069570Y507330D01*
X1069530Y507318D01*
X1069507Y507316D01*
X1069478Y507303D01*
X1069409Y507283D01*
X1061384Y503959D01*
X1052616Y503959D01*
G37*
%LPD*%
D10*
X330000Y880000D03*
X253800Y880000D03*
X910000Y880000D03*
X833800Y880000D03*
X140000Y880000D03*
X63800Y880000D03*
X1100000Y880000D03*
X1023800Y880000D03*
X520000Y880000D03*
X443800Y880000D03*
X1290000Y880000D03*
X1213800Y880000D03*
X1639000Y543000D03*
X1639000Y619200D03*
X715000Y880000D03*
X638800Y880000D03*
D11*
X1454000Y886500D03*
X1454000Y856500D03*
X1484000Y886500D03*
X1484000Y856500D03*
X1514000Y886500D03*
X1514000Y856500D03*
X1544000Y886500D03*
X1544000Y856500D03*
X1574000Y886500D03*
X1574000Y856500D03*
X1604000Y886500D03*
X1604000Y856500D03*
X1634000Y886500D03*
X1634000Y856500D03*
X1664000Y886500D03*
X1664000Y856500D03*
X1694000Y886500D03*
X1694000Y856500D03*
D12*
X40000Y800000D03*
X230000Y800000D03*
X820000Y800000D03*
X420000Y800000D03*
X625000Y801250D03*
X1690000Y705000D03*
X677500Y801250D03*
X730000Y801250D03*
D13*
X525000Y660000D03*
X525000Y50000D03*
X50000Y50000D03*
D14*
X47000Y653000D03*
X47000Y627600D03*
X47000Y602200D03*
X47000Y576800D03*
X47000Y551400D03*
X47000Y526000D03*
X72400Y653000D03*
X72400Y627600D03*
X72400Y602200D03*
X72400Y576800D03*
X72400Y551400D03*
X72400Y526000D03*
X510000Y290000D03*
X510000Y264600D03*
X510000Y239200D03*
X510000Y213800D03*
X510000Y188400D03*
X510000Y163000D03*
X535400Y290000D03*
X535400Y264600D03*
X535400Y239200D03*
X535400Y213800D03*
X535400Y188400D03*
X535400Y163000D03*
D13*
X1535000Y660000D03*
X1535000Y50000D03*
X1060000Y50000D03*
D14*
X1057000Y653000D03*
X1057000Y627600D03*
X1057000Y602200D03*
X1057000Y576800D03*
X1057000Y551400D03*
X1057000Y526000D03*
X1082400Y653000D03*
X1082400Y627600D03*
X1082400Y602200D03*
X1082400Y576800D03*
X1082400Y551400D03*
X1082400Y526000D03*
X1520000Y290000D03*
X1520000Y264600D03*
X1520000Y239200D03*
X1520000Y213800D03*
X1520000Y188400D03*
X1520000Y163000D03*
X1545400Y290000D03*
X1545400Y264600D03*
X1545400Y239200D03*
X1545400Y213800D03*
X1545400Y188400D03*
X1545400Y163000D03*
X910000Y242000D03*
X935400Y242000D03*
X910000Y267400D03*
X935400Y267400D03*
X910000Y292800D03*
X935400Y292800D03*
X910000Y318200D03*
X935400Y318200D03*
X910000Y343600D03*
X935400Y343600D03*
X910000Y369000D03*
X935400Y369000D03*
X680000Y389000D03*
X654600Y389000D03*
X680000Y363600D03*
X654600Y363600D03*
X680000Y338200D03*
X654600Y338200D03*
X680000Y312800D03*
X654600Y312800D03*
X680000Y287400D03*
X654600Y287400D03*
X680000Y262000D03*
X654600Y262000D03*
D13*
X920000Y450000D03*
X670000Y200000D03*
X620000Y50000D03*
X960000Y740000D03*
D14*
X690000Y30000D03*
X690000Y55400D03*
X715400Y30000D03*
X715400Y55400D03*
X740800Y30000D03*
X740800Y55400D03*
X766200Y30000D03*
X766200Y55400D03*
X791600Y30000D03*
X791600Y55400D03*
X817000Y30000D03*
X817000Y55400D03*
X690000Y730000D03*
X690000Y755400D03*
X715400Y730000D03*
X715400Y755400D03*
X740800Y730000D03*
X740800Y755400D03*
X766200Y730000D03*
X766200Y755400D03*
X791600Y730000D03*
X791600Y755400D03*
X817000Y730000D03*
X817000Y755400D03*
D15*
X1640000Y140000D03*
X1640000Y130000D03*
X1640000Y120000D03*
X1640000Y110000D03*
X970000Y220000D03*
X310000Y200000D03*
X310000Y180000D03*
X330000Y180000D03*
X330000Y200000D03*
X350000Y200000D03*
X350000Y180000D03*
X370000Y180000D03*
X370000Y200000D03*
X390000Y200000D03*
X390000Y180000D03*
X390000Y160000D03*
X370000Y160000D03*
X350000Y160000D03*
X330000Y160000D03*
X310000Y160000D03*
X310000Y140000D03*
X330000Y140000D03*
X350000Y140000D03*
X370000Y140000D03*
X390000Y140000D03*
X310000Y120000D03*
X330000Y120000D03*
X350000Y120000D03*
X370000Y120000D03*
X390000Y120000D03*
X310000Y100000D03*
X330000Y100000D03*
X350000Y100000D03*
X370000Y100000D03*
X390000Y100000D03*
X390000Y80000D03*
X370000Y80000D03*
X350000Y80000D03*
X330000Y80000D03*
X310000Y80000D03*
X310000Y60000D03*
X330000Y60000D03*
X350000Y60000D03*
X370000Y60000D03*
X390000Y60000D03*
X390000Y40000D03*
X370000Y40000D03*
X350000Y40000D03*
X330000Y40000D03*
X310000Y40000D03*
X120000Y520000D03*
X140000Y520000D03*
X160000Y520000D03*
X180000Y520000D03*
X180000Y550000D03*
X160000Y550000D03*
X140000Y550000D03*
X120000Y550000D03*
X120000Y470000D03*
X140000Y470000D03*
X160000Y470000D03*
X180000Y470000D03*
X100000Y470000D03*
X80000Y470000D03*
X60000Y470000D03*
X40000Y470000D03*
X20000Y470000D03*
X120000Y580000D03*
X140000Y580000D03*
X160000Y580000D03*
X180000Y580000D03*
X1700000Y500000D03*
X779000Y592000D03*
X779000Y557000D03*
X1177000Y819000D03*
D16*
X1235000Y819000D01*
X1235000Y686088D01*
D15*
X1177000Y686088D03*
D16*
X1235000Y686088D01*
D15*
X1166000Y826000D03*
D16*
X1243000Y826000D01*
D15*
X1177000Y677000D03*
D16*
X1243000Y677000D01*
X1243000Y826000D01*
D15*
X1180000Y590544D03*
D16*
X1393000Y590544D01*
D15*
X1393000Y590544D03*
X1180000Y581456D03*
D16*
X1393000Y581456D01*
D15*
X1393000Y581456D03*
M02*
