G04 EAGLE Gerber RS-274X export*
G75*
%MOMM*%
%FSLAX34Y34*%
%LPD*%
%INTop Copper*%
%IPPOS*%
%AMOC8*
5,1,8,0,0,1.08239X$1,22.5*%
G01*
%ADD10C,2.781300*%
%ADD11C,1.530000*%
%ADD12R,1.600000X1.803000*%
%ADD13R,1.600000X1.800000*%
%ADD14R,2.540000X2.540000*%
%ADD15R,1.803000X1.600000*%
%ADD16R,1.500000X1.500000*%
%ADD17C,2.760000*%
%ADD18C,7.400000*%
%ADD19C,1.800000*%
%ADD20R,1.800000X3.200000*%
%ADD21C,1.270000*%
%ADD22C,0.812800*%
%ADD23C,0.756400*%
%ADD24C,0.406400*%

G36*
X798113Y590369D02*
X798113Y590369D01*
X798062Y590367D01*
X798030Y590349D01*
X797994Y590341D01*
X797955Y590308D01*
X797910Y590284D01*
X797889Y590254D01*
X797861Y590231D01*
X797840Y590184D01*
X797810Y590142D01*
X797802Y590100D01*
X797790Y590072D01*
X797791Y590042D01*
X797783Y590000D01*
X797783Y588264D01*
X794923Y581360D01*
X789640Y576077D01*
X786681Y574851D01*
X786660Y574836D01*
X786635Y574829D01*
X786590Y574786D01*
X786540Y574750D01*
X786528Y574728D01*
X786509Y574710D01*
X786488Y574652D01*
X786459Y574597D01*
X786458Y574571D01*
X786449Y574547D01*
X786456Y574486D01*
X786454Y574424D01*
X786465Y574401D01*
X786467Y574375D01*
X786500Y574323D01*
X786526Y574267D01*
X786546Y574250D01*
X786560Y574229D01*
X786632Y574181D01*
X786661Y574158D01*
X786671Y574156D01*
X786681Y574149D01*
X789640Y572923D01*
X794923Y567640D01*
X797783Y560736D01*
X797783Y553264D01*
X794923Y546360D01*
X789640Y541077D01*
X782736Y538217D01*
X775264Y538217D01*
X768360Y541077D01*
X763077Y546360D01*
X760217Y553264D01*
X760217Y560736D01*
X763077Y567640D01*
X768360Y572923D01*
X771319Y574149D01*
X771340Y574164D01*
X771365Y574171D01*
X771410Y574214D01*
X771460Y574250D01*
X771472Y574273D01*
X771491Y574290D01*
X771512Y574348D01*
X771541Y574403D01*
X771542Y574429D01*
X771551Y574453D01*
X771544Y574514D01*
X771546Y574576D01*
X771535Y574599D01*
X771533Y574625D01*
X771500Y574677D01*
X771474Y574733D01*
X771454Y574750D01*
X771440Y574771D01*
X771368Y574819D01*
X771339Y574842D01*
X771329Y574845D01*
X771319Y574851D01*
X768360Y576077D01*
X763077Y581360D01*
X760217Y588264D01*
X760217Y590000D01*
X760206Y590050D01*
X760204Y590101D01*
X760186Y590133D01*
X760178Y590169D01*
X760145Y590208D01*
X760121Y590253D01*
X760091Y590274D01*
X760068Y590302D01*
X760021Y590323D01*
X759979Y590353D01*
X759937Y590361D01*
X759909Y590373D01*
X759879Y590372D01*
X759837Y590380D01*
X560380Y590380D01*
X560380Y620922D01*
X560374Y620947D01*
X560377Y620973D01*
X560355Y621031D01*
X560341Y621091D01*
X560324Y621111D01*
X560315Y621135D01*
X560270Y621177D01*
X560231Y621224D01*
X560207Y621235D01*
X560188Y621253D01*
X560129Y621270D01*
X560072Y621295D01*
X560047Y621294D01*
X560022Y621302D01*
X559961Y621291D01*
X559899Y621289D01*
X559877Y621276D01*
X559851Y621272D01*
X559780Y621224D01*
X559747Y621206D01*
X559741Y621198D01*
X559731Y621191D01*
X556929Y618389D01*
X545071Y611543D01*
X531846Y607999D01*
X518154Y607999D01*
X504929Y611543D01*
X493071Y618389D01*
X483389Y628071D01*
X476543Y639929D01*
X476194Y641232D01*
X474971Y645795D01*
X473239Y652260D01*
X472999Y653154D01*
X472999Y666846D01*
X476543Y680071D01*
X483389Y691929D01*
X493071Y701611D01*
X504929Y708457D01*
X518154Y712001D01*
X531846Y712001D01*
X545071Y708457D01*
X556929Y701611D01*
X559731Y698809D01*
X559753Y698795D01*
X559769Y698776D01*
X559826Y698750D01*
X559878Y698718D01*
X559904Y698715D01*
X559928Y698705D01*
X559989Y698707D01*
X560051Y698701D01*
X560075Y698710D01*
X560101Y698711D01*
X560155Y698741D01*
X560213Y698763D01*
X560230Y698782D01*
X560253Y698794D01*
X560288Y698844D01*
X560330Y698890D01*
X560338Y698915D01*
X560353Y698936D01*
X560369Y699020D01*
X560380Y699056D01*
X560378Y699066D01*
X560380Y699078D01*
X560380Y977619D01*
X560369Y977669D01*
X560367Y977720D01*
X560349Y977752D01*
X560341Y977788D01*
X560308Y977827D01*
X560284Y977872D01*
X560254Y977893D01*
X560231Y977921D01*
X560184Y977942D01*
X560142Y977972D01*
X560100Y977980D01*
X560072Y977992D01*
X560042Y977991D01*
X560000Y977999D01*
X400000Y977999D01*
X399950Y977988D01*
X399899Y977986D01*
X399867Y977968D01*
X399831Y977960D01*
X399792Y977927D01*
X399747Y977903D01*
X399726Y977873D01*
X399698Y977850D01*
X399677Y977803D01*
X399647Y977761D01*
X399639Y977719D01*
X399627Y977691D01*
X399628Y977661D01*
X399620Y977619D01*
X399620Y420000D01*
X399631Y419950D01*
X399633Y419899D01*
X399651Y419867D01*
X399659Y419831D01*
X399692Y419792D01*
X399716Y419747D01*
X399746Y419726D01*
X399769Y419698D01*
X399816Y419677D01*
X399858Y419647D01*
X399900Y419639D01*
X399928Y419627D01*
X399958Y419628D01*
X400000Y419620D01*
X729620Y419620D01*
X729620Y200380D01*
X722381Y200380D01*
X722331Y200369D01*
X722280Y200367D01*
X722248Y200349D01*
X722212Y200341D01*
X722173Y200308D01*
X722128Y200284D01*
X722107Y200254D01*
X722079Y200231D01*
X722058Y200184D01*
X722028Y200142D01*
X722020Y200100D01*
X722008Y200072D01*
X722009Y200042D01*
X722001Y200000D01*
X722001Y193154D01*
X718457Y179929D01*
X711611Y168071D01*
X701929Y158389D01*
X690071Y151543D01*
X676846Y147999D01*
X670000Y147999D01*
X669950Y147988D01*
X669899Y147986D01*
X669867Y147968D01*
X669831Y147960D01*
X669792Y147927D01*
X669747Y147903D01*
X669726Y147873D01*
X669698Y147850D01*
X669677Y147803D01*
X669647Y147761D01*
X669639Y147719D01*
X669627Y147691D01*
X669628Y147661D01*
X669620Y147619D01*
X669620Y65782D01*
X669628Y65745D01*
X669633Y65684D01*
X670134Y63812D01*
X670134Y63811D01*
X672001Y56846D01*
X672001Y43154D01*
X669633Y34316D01*
X669632Y34279D01*
X669620Y34218D01*
X669620Y16381D01*
X669631Y16331D01*
X669633Y16280D01*
X669651Y16248D01*
X669659Y16212D01*
X669692Y16173D01*
X669716Y16128D01*
X669746Y16107D01*
X669769Y16079D01*
X669816Y16058D01*
X669858Y16028D01*
X669900Y16020D01*
X669928Y16008D01*
X669958Y16009D01*
X670000Y16001D01*
X759239Y16001D01*
X759239Y11922D01*
X759242Y11902D01*
X759240Y11883D01*
X759262Y11781D01*
X759279Y11679D01*
X759288Y11662D01*
X759292Y11642D01*
X759345Y11553D01*
X759394Y11462D01*
X759408Y11448D01*
X759418Y11431D01*
X759497Y11364D01*
X759572Y11292D01*
X759590Y11284D01*
X759605Y11271D01*
X759701Y11232D01*
X759795Y11189D01*
X759815Y11187D01*
X759833Y11179D01*
X760000Y11161D01*
X783604Y11161D01*
X783700Y11176D01*
X783797Y11186D01*
X783821Y11196D01*
X783846Y11200D01*
X783932Y11246D01*
X784021Y11286D01*
X784041Y11303D01*
X784064Y11316D01*
X784131Y11386D01*
X784203Y11452D01*
X784215Y11475D01*
X784233Y11494D01*
X784274Y11582D01*
X784321Y11668D01*
X784326Y11693D01*
X784337Y11717D01*
X784348Y11814D01*
X784365Y11910D01*
X784361Y11936D01*
X784364Y11961D01*
X784343Y12057D01*
X784329Y12153D01*
X784317Y12176D01*
X784312Y12202D01*
X784262Y12285D01*
X784218Y12372D01*
X784199Y12391D01*
X784185Y12413D01*
X784112Y12476D01*
X784042Y12544D01*
X784013Y12560D01*
X783999Y12573D01*
X783968Y12585D01*
X783895Y12625D01*
X780837Y13892D01*
X775492Y19237D01*
X772599Y26221D01*
X772599Y33779D01*
X775492Y40763D01*
X776891Y42162D01*
X776902Y42178D01*
X776918Y42190D01*
X776974Y42278D01*
X777034Y42361D01*
X777040Y42380D01*
X777051Y42397D01*
X777076Y42498D01*
X777107Y42597D01*
X777106Y42616D01*
X777111Y42636D01*
X777103Y42739D01*
X777100Y42842D01*
X777093Y42861D01*
X777092Y42881D01*
X777051Y42976D01*
X777016Y43073D01*
X777003Y43089D01*
X776995Y43107D01*
X776891Y43238D01*
X775492Y44637D01*
X772599Y51621D01*
X772599Y59179D01*
X775492Y66163D01*
X780837Y71508D01*
X787821Y74401D01*
X795379Y74401D01*
X802363Y71508D01*
X803762Y70109D01*
X803778Y70098D01*
X803790Y70082D01*
X803878Y70026D01*
X803961Y69966D01*
X803980Y69960D01*
X803997Y69949D01*
X804098Y69924D01*
X804197Y69893D01*
X804216Y69894D01*
X804236Y69889D01*
X804339Y69897D01*
X804442Y69900D01*
X804461Y69907D01*
X804481Y69908D01*
X804576Y69949D01*
X804673Y69984D01*
X804689Y69997D01*
X804707Y70005D01*
X804838Y70109D01*
X806237Y71508D01*
X813221Y74401D01*
X820779Y74401D01*
X827763Y71508D01*
X833108Y66163D01*
X836001Y59179D01*
X836001Y51621D01*
X833108Y44637D01*
X831709Y43238D01*
X831698Y43222D01*
X831682Y43210D01*
X831626Y43122D01*
X831566Y43039D01*
X831560Y43020D01*
X831549Y43003D01*
X831524Y42902D01*
X831493Y42803D01*
X831494Y42784D01*
X831489Y42764D01*
X831497Y42661D01*
X831500Y42558D01*
X831507Y42539D01*
X831508Y42519D01*
X831549Y42424D01*
X831584Y42327D01*
X831597Y42311D01*
X831605Y42293D01*
X831709Y42162D01*
X833108Y40763D01*
X836001Y33779D01*
X836001Y26221D01*
X833108Y19237D01*
X827763Y13892D01*
X824705Y12625D01*
X824622Y12574D01*
X824536Y12528D01*
X824518Y12509D01*
X824496Y12496D01*
X824434Y12421D01*
X824367Y12350D01*
X824356Y12326D01*
X824339Y12306D01*
X824304Y12215D01*
X824263Y12127D01*
X824260Y12101D01*
X824251Y12077D01*
X824247Y11979D01*
X824236Y11883D01*
X824242Y11857D01*
X824241Y11831D01*
X824268Y11737D01*
X824288Y11642D01*
X824302Y11620D01*
X824309Y11595D01*
X824365Y11515D01*
X824415Y11431D01*
X824434Y11414D01*
X824449Y11393D01*
X824527Y11334D01*
X824601Y11271D01*
X824626Y11261D01*
X824647Y11246D01*
X824739Y11216D01*
X824830Y11179D01*
X824862Y11176D01*
X824881Y11170D01*
X824914Y11170D01*
X824996Y11161D01*
X1030532Y11161D01*
X1030603Y11172D01*
X1030675Y11174D01*
X1030724Y11192D01*
X1030775Y11200D01*
X1030838Y11234D01*
X1030906Y11259D01*
X1030946Y11291D01*
X1030993Y11316D01*
X1031042Y11368D01*
X1031098Y11412D01*
X1031126Y11456D01*
X1031162Y11494D01*
X1031192Y11559D01*
X1031231Y11619D01*
X1031244Y11670D01*
X1031266Y11717D01*
X1031273Y11788D01*
X1031291Y11858D01*
X1031287Y11910D01*
X1031293Y11961D01*
X1031277Y12032D01*
X1031272Y12103D01*
X1031251Y12151D01*
X1031240Y12202D01*
X1031204Y12263D01*
X1031175Y12329D01*
X1031131Y12385D01*
X1031114Y12413D01*
X1031096Y12428D01*
X1031071Y12460D01*
X1022390Y21141D01*
X1016202Y31858D01*
X1012999Y43812D01*
X1012999Y56188D01*
X1016202Y68142D01*
X1022390Y78859D01*
X1031141Y87610D01*
X1041858Y93798D01*
X1053812Y97001D01*
X1066188Y97001D01*
X1078142Y93798D01*
X1088859Y87610D01*
X1097610Y78859D01*
X1103798Y68142D01*
X1107001Y56188D01*
X1107001Y43812D01*
X1103798Y31858D01*
X1097610Y21141D01*
X1088929Y12460D01*
X1088887Y12402D01*
X1088838Y12350D01*
X1088816Y12303D01*
X1088786Y12261D01*
X1088765Y12192D01*
X1088734Y12127D01*
X1088729Y12075D01*
X1088713Y12025D01*
X1088715Y11954D01*
X1088707Y11883D01*
X1088718Y11832D01*
X1088720Y11780D01*
X1088744Y11712D01*
X1088760Y11642D01*
X1088786Y11597D01*
X1088804Y11549D01*
X1088849Y11493D01*
X1088886Y11431D01*
X1088925Y11397D01*
X1088958Y11357D01*
X1089018Y11318D01*
X1089073Y11271D01*
X1089121Y11252D01*
X1089165Y11224D01*
X1089234Y11206D01*
X1089301Y11179D01*
X1089372Y11171D01*
X1089403Y11163D01*
X1089427Y11165D01*
X1089468Y11161D01*
X1428857Y11161D01*
X1428877Y11164D01*
X1428896Y11162D01*
X1428998Y11184D01*
X1429100Y11200D01*
X1429117Y11210D01*
X1429137Y11214D01*
X1429226Y11267D01*
X1429317Y11316D01*
X1429331Y11330D01*
X1429348Y11340D01*
X1429415Y11419D01*
X1429487Y11494D01*
X1429495Y11512D01*
X1429508Y11527D01*
X1429547Y11623D01*
X1429590Y11717D01*
X1429592Y11737D01*
X1429600Y11755D01*
X1429618Y11922D01*
X1429618Y220000D01*
X1429615Y220020D01*
X1429617Y220039D01*
X1429595Y220141D01*
X1429579Y220243D01*
X1429569Y220260D01*
X1429565Y220280D01*
X1429512Y220369D01*
X1429463Y220460D01*
X1429449Y220474D01*
X1429439Y220491D01*
X1429360Y220558D01*
X1429285Y220630D01*
X1429267Y220638D01*
X1429252Y220651D01*
X1429156Y220690D01*
X1429062Y220733D01*
X1429042Y220735D01*
X1429024Y220743D01*
X1428857Y220761D01*
X1330761Y220761D01*
X1330761Y980000D01*
X1330758Y980020D01*
X1330760Y980039D01*
X1330738Y980141D01*
X1330722Y980243D01*
X1330712Y980260D01*
X1330708Y980280D01*
X1330655Y980369D01*
X1330606Y980460D01*
X1330592Y980474D01*
X1330582Y980491D01*
X1330503Y980558D01*
X1330428Y980630D01*
X1330410Y980638D01*
X1330395Y980651D01*
X1330299Y980690D01*
X1330205Y980733D01*
X1330185Y980735D01*
X1330167Y980743D01*
X1330000Y980761D01*
X1180000Y980761D01*
X1179980Y980758D01*
X1179961Y980760D01*
X1179859Y980738D01*
X1179757Y980722D01*
X1179740Y980712D01*
X1179720Y980708D01*
X1179631Y980655D01*
X1179540Y980606D01*
X1179526Y980592D01*
X1179509Y980582D01*
X1179442Y980503D01*
X1179371Y980428D01*
X1179362Y980410D01*
X1179349Y980395D01*
X1179310Y980299D01*
X1179267Y980205D01*
X1179265Y980185D01*
X1179257Y980167D01*
X1179239Y980000D01*
X1179239Y833500D01*
X1179258Y833385D01*
X1179275Y833269D01*
X1179278Y833263D01*
X1179279Y833257D01*
X1179333Y833154D01*
X1179386Y833049D01*
X1179391Y833045D01*
X1179394Y833040D01*
X1179478Y832960D01*
X1179562Y832877D01*
X1179568Y832874D01*
X1179572Y832870D01*
X1179589Y832862D01*
X1179709Y832796D01*
X1184807Y830684D01*
X1188684Y826807D01*
X1190783Y821742D01*
X1190783Y816258D01*
X1188684Y811193D01*
X1184807Y807316D01*
X1179709Y805204D01*
X1179609Y805142D01*
X1179509Y805082D01*
X1179505Y805077D01*
X1179500Y805074D01*
X1179425Y804984D01*
X1179349Y804895D01*
X1179347Y804889D01*
X1179343Y804885D01*
X1179301Y804776D01*
X1179257Y804667D01*
X1179256Y804660D01*
X1179255Y804655D01*
X1179254Y804637D01*
X1179239Y804500D01*
X1179239Y700588D01*
X1179258Y700473D01*
X1179275Y700357D01*
X1179278Y700351D01*
X1179279Y700345D01*
X1179333Y700242D01*
X1179386Y700137D01*
X1179391Y700133D01*
X1179394Y700128D01*
X1179478Y700048D01*
X1179562Y699965D01*
X1179568Y699962D01*
X1179572Y699958D01*
X1179589Y699950D01*
X1179709Y699884D01*
X1184807Y697772D01*
X1188684Y693895D01*
X1190783Y688830D01*
X1190783Y683346D01*
X1190157Y681835D01*
X1190136Y681746D01*
X1190108Y681660D01*
X1190108Y681627D01*
X1190101Y681596D01*
X1190109Y681505D01*
X1190110Y681414D01*
X1190122Y681374D01*
X1190124Y681351D01*
X1190137Y681322D01*
X1190157Y681253D01*
X1190783Y679742D01*
X1190783Y674258D01*
X1188684Y669193D01*
X1184807Y665316D01*
X1179709Y663204D01*
X1179609Y663142D01*
X1179509Y663082D01*
X1179505Y663077D01*
X1179500Y663074D01*
X1179425Y662984D01*
X1179349Y662895D01*
X1179347Y662889D01*
X1179343Y662885D01*
X1179301Y662776D01*
X1179257Y662667D01*
X1179256Y662660D01*
X1179255Y662655D01*
X1179254Y662637D01*
X1179239Y662500D01*
X1179239Y605088D01*
X1179242Y605068D01*
X1179240Y605049D01*
X1179262Y604947D01*
X1179279Y604845D01*
X1179288Y604828D01*
X1179292Y604808D01*
X1179345Y604719D01*
X1179394Y604628D01*
X1179408Y604614D01*
X1179418Y604597D01*
X1179497Y604530D01*
X1179572Y604458D01*
X1179590Y604450D01*
X1179605Y604437D01*
X1179701Y604398D01*
X1179795Y604355D01*
X1179815Y604353D01*
X1179833Y604345D01*
X1180000Y604327D01*
X1182742Y604327D01*
X1187807Y602228D01*
X1191684Y598351D01*
X1193783Y593286D01*
X1193783Y587802D01*
X1193157Y586291D01*
X1193136Y586202D01*
X1193108Y586116D01*
X1193108Y586083D01*
X1193101Y586052D01*
X1193109Y585961D01*
X1193110Y585870D01*
X1193122Y585830D01*
X1193124Y585807D01*
X1193137Y585778D01*
X1193157Y585709D01*
X1193783Y584198D01*
X1193783Y578714D01*
X1191684Y573649D01*
X1187807Y569772D01*
X1182742Y567673D01*
X1180000Y567673D01*
X1179980Y567670D01*
X1179961Y567672D01*
X1179859Y567650D01*
X1179757Y567634D01*
X1179740Y567624D01*
X1179720Y567620D01*
X1179631Y567567D01*
X1179540Y567518D01*
X1179526Y567504D01*
X1179509Y567494D01*
X1179442Y567415D01*
X1179371Y567340D01*
X1179362Y567322D01*
X1179349Y567307D01*
X1179310Y567211D01*
X1179267Y567117D01*
X1179265Y567097D01*
X1179257Y567079D01*
X1179239Y566912D01*
X1179239Y562673D01*
X1176264Y562673D01*
X1169360Y565533D01*
X1164077Y570816D01*
X1161217Y577720D01*
X1161217Y585192D01*
X1161492Y585854D01*
X1161504Y585930D01*
X1161521Y586004D01*
X1161518Y586016D01*
X1161520Y586025D01*
X1161509Y586061D01*
X1161492Y586146D01*
X1161217Y586808D01*
X1161217Y590000D01*
X1161206Y590050D01*
X1161204Y590101D01*
X1161186Y590133D01*
X1161178Y590169D01*
X1161145Y590208D01*
X1161121Y590253D01*
X1161091Y590274D01*
X1161068Y590302D01*
X1161021Y590323D01*
X1160979Y590353D01*
X1160937Y590361D01*
X1160909Y590373D01*
X1160879Y590372D01*
X1160837Y590380D01*
X1110000Y590380D01*
X1109950Y590369D01*
X1109899Y590367D01*
X1109867Y590349D01*
X1109831Y590341D01*
X1109792Y590308D01*
X1109747Y590284D01*
X1109726Y590254D01*
X1109698Y590231D01*
X1109677Y590184D01*
X1109647Y590142D01*
X1109639Y590100D01*
X1109627Y590072D01*
X1109628Y590042D01*
X1109620Y590000D01*
X1109620Y500380D01*
X1030380Y500380D01*
X1030380Y590000D01*
X1030369Y590050D01*
X1030367Y590101D01*
X1030349Y590133D01*
X1030341Y590169D01*
X1030308Y590208D01*
X1030284Y590253D01*
X1030254Y590274D01*
X1030231Y590302D01*
X1030184Y590323D01*
X1030142Y590353D01*
X1030100Y590361D01*
X1030072Y590373D01*
X1030042Y590372D01*
X1030000Y590380D01*
X798163Y590380D01*
X798113Y590369D01*
G37*
G36*
X1720013Y11164D02*
X1720013Y11164D01*
X1720030Y11162D01*
X1721353Y11266D01*
X1721387Y11277D01*
X1721441Y11284D01*
X1723958Y12101D01*
X1723991Y12121D01*
X1724064Y12155D01*
X1726205Y13711D01*
X1726230Y13740D01*
X1726289Y13795D01*
X1727845Y15936D01*
X1727860Y15972D01*
X1727899Y16042D01*
X1728716Y18559D01*
X1728719Y18595D01*
X1728734Y18647D01*
X1728838Y19970D01*
X1728836Y19983D01*
X1728839Y20000D01*
X1728839Y344018D01*
X1728833Y344043D01*
X1728836Y344068D01*
X1728814Y344126D01*
X1728800Y344186D01*
X1728783Y344206D01*
X1728774Y344230D01*
X1728729Y344272D01*
X1728690Y344320D01*
X1728666Y344331D01*
X1728647Y344348D01*
X1728588Y344366D01*
X1728531Y344391D01*
X1728506Y344390D01*
X1728481Y344397D01*
X1728420Y344387D01*
X1728358Y344384D01*
X1728336Y344372D01*
X1728310Y344368D01*
X1728239Y344319D01*
X1728206Y344302D01*
X1728200Y344293D01*
X1728190Y344286D01*
X1724820Y340916D01*
X1659605Y340916D01*
X1659555Y340905D01*
X1659504Y340903D01*
X1659472Y340885D01*
X1659436Y340877D01*
X1659397Y340844D01*
X1659352Y340820D01*
X1659331Y340790D01*
X1659303Y340767D01*
X1659282Y340720D01*
X1659252Y340678D01*
X1659244Y340636D01*
X1659232Y340608D01*
X1659233Y340578D01*
X1659225Y340536D01*
X1659225Y333173D01*
X1658332Y332280D01*
X1645969Y332280D01*
X1645919Y332269D01*
X1645868Y332267D01*
X1645836Y332249D01*
X1645800Y332241D01*
X1645761Y332208D01*
X1645716Y332184D01*
X1645695Y332154D01*
X1645667Y332131D01*
X1645646Y332084D01*
X1645616Y332042D01*
X1645608Y332000D01*
X1645596Y331972D01*
X1645597Y331942D01*
X1645589Y331900D01*
X1645589Y107685D01*
X1642315Y104411D01*
X1637685Y104411D01*
X1634411Y107685D01*
X1634411Y331900D01*
X1634400Y331950D01*
X1634398Y332001D01*
X1634380Y332033D01*
X1634372Y332069D01*
X1634339Y332108D01*
X1634315Y332153D01*
X1634285Y332174D01*
X1634262Y332202D01*
X1634215Y332223D01*
X1634173Y332253D01*
X1634131Y332261D01*
X1634103Y332273D01*
X1634073Y332272D01*
X1634031Y332280D01*
X1631668Y332280D01*
X1630775Y333173D01*
X1630775Y359837D01*
X1631668Y360730D01*
X1658332Y360730D01*
X1659225Y359837D01*
X1659225Y352474D01*
X1659236Y352424D01*
X1659238Y352373D01*
X1659256Y352341D01*
X1659264Y352305D01*
X1659297Y352266D01*
X1659321Y352221D01*
X1659351Y352200D01*
X1659374Y352172D01*
X1659421Y352151D01*
X1659463Y352121D01*
X1659505Y352113D01*
X1659533Y352101D01*
X1659563Y352102D01*
X1659605Y352094D01*
X1696063Y352094D01*
X1696113Y352105D01*
X1696164Y352107D01*
X1696196Y352125D01*
X1696232Y352133D01*
X1696271Y352166D01*
X1696316Y352190D01*
X1696337Y352220D01*
X1696365Y352243D01*
X1696386Y352290D01*
X1696416Y352332D01*
X1696424Y352374D01*
X1696436Y352402D01*
X1696435Y352432D01*
X1696443Y352474D01*
X1696443Y384875D01*
X1696432Y384925D01*
X1696430Y384976D01*
X1696412Y385008D01*
X1696404Y385044D01*
X1696371Y385083D01*
X1696347Y385128D01*
X1696317Y385149D01*
X1696294Y385177D01*
X1696247Y385198D01*
X1696205Y385228D01*
X1696163Y385236D01*
X1696135Y385248D01*
X1696105Y385247D01*
X1696063Y385255D01*
X1690353Y385255D01*
X1689460Y386148D01*
X1689460Y403412D01*
X1690353Y404305D01*
X1709647Y404305D01*
X1710540Y403412D01*
X1710540Y386148D01*
X1709647Y385255D01*
X1703937Y385255D01*
X1703887Y385244D01*
X1703836Y385242D01*
X1703804Y385224D01*
X1703768Y385216D01*
X1703729Y385183D01*
X1703684Y385159D01*
X1703663Y385129D01*
X1703635Y385106D01*
X1703614Y385059D01*
X1703584Y385017D01*
X1703576Y384975D01*
X1703564Y384947D01*
X1703565Y384917D01*
X1703557Y384875D01*
X1703557Y352474D01*
X1703568Y352424D01*
X1703570Y352373D01*
X1703588Y352341D01*
X1703596Y352305D01*
X1703629Y352266D01*
X1703653Y352221D01*
X1703683Y352200D01*
X1703706Y352172D01*
X1703753Y352151D01*
X1703795Y352121D01*
X1703837Y352113D01*
X1703865Y352101D01*
X1703895Y352102D01*
X1703937Y352094D01*
X1718807Y352094D01*
X1718857Y352105D01*
X1718908Y352107D01*
X1718940Y352125D01*
X1718976Y352133D01*
X1719015Y352166D01*
X1719060Y352190D01*
X1719081Y352220D01*
X1719109Y352243D01*
X1719130Y352290D01*
X1719160Y352332D01*
X1719168Y352374D01*
X1719180Y352402D01*
X1719179Y352432D01*
X1719187Y352474D01*
X1719187Y876528D01*
X1719170Y876602D01*
X1719157Y876676D01*
X1719150Y876686D01*
X1719148Y876696D01*
X1719124Y876725D01*
X1719076Y876796D01*
X1715072Y880800D01*
X1715008Y880840D01*
X1714946Y880884D01*
X1714934Y880886D01*
X1714925Y880891D01*
X1714888Y880895D01*
X1714804Y880911D01*
X1701544Y880911D01*
X1701470Y880894D01*
X1701395Y880881D01*
X1701385Y880874D01*
X1701375Y880872D01*
X1701346Y880848D01*
X1701275Y880800D01*
X1699197Y878722D01*
X1695825Y877325D01*
X1692175Y877325D01*
X1688803Y878722D01*
X1686222Y881303D01*
X1684825Y884675D01*
X1684825Y888325D01*
X1686222Y891697D01*
X1688803Y894278D01*
X1692175Y895675D01*
X1695825Y895675D01*
X1699197Y894278D01*
X1701275Y892200D01*
X1701340Y892160D01*
X1701402Y892116D01*
X1701414Y892114D01*
X1701422Y892109D01*
X1701459Y892105D01*
X1701544Y892089D01*
X1719591Y892089D01*
X1726980Y884700D01*
X1728190Y883490D01*
X1728212Y883476D01*
X1728228Y883456D01*
X1728285Y883431D01*
X1728337Y883398D01*
X1728363Y883396D01*
X1728387Y883385D01*
X1728448Y883387D01*
X1728510Y883382D01*
X1728534Y883391D01*
X1728560Y883392D01*
X1728614Y883421D01*
X1728672Y883443D01*
X1728689Y883462D01*
X1728712Y883474D01*
X1728747Y883525D01*
X1728789Y883570D01*
X1728797Y883595D01*
X1728812Y883616D01*
X1728828Y883701D01*
X1728839Y883736D01*
X1728837Y883746D01*
X1728839Y883758D01*
X1728839Y975000D01*
X1728836Y975013D01*
X1728838Y975030D01*
X1728746Y976197D01*
X1728735Y976231D01*
X1728729Y976284D01*
X1728008Y978504D01*
X1727988Y978537D01*
X1727954Y978610D01*
X1726582Y980498D01*
X1726553Y980523D01*
X1726498Y980582D01*
X1724610Y981954D01*
X1724574Y981969D01*
X1724504Y982008D01*
X1722284Y982729D01*
X1722249Y982732D01*
X1722197Y982746D01*
X1721030Y982838D01*
X1721017Y982836D01*
X1721000Y982839D01*
X1350000Y982839D01*
X1349950Y982828D01*
X1349899Y982826D01*
X1349867Y982808D01*
X1349831Y982800D01*
X1349792Y982767D01*
X1349747Y982743D01*
X1349726Y982713D01*
X1349698Y982690D01*
X1349677Y982643D01*
X1349647Y982601D01*
X1349639Y982559D01*
X1349627Y982531D01*
X1349628Y982501D01*
X1349620Y982459D01*
X1349620Y240000D01*
X1349631Y239950D01*
X1349633Y239899D01*
X1349651Y239867D01*
X1349659Y239831D01*
X1349692Y239792D01*
X1349716Y239747D01*
X1349746Y239726D01*
X1349769Y239698D01*
X1349816Y239677D01*
X1349858Y239647D01*
X1349900Y239639D01*
X1349928Y239627D01*
X1349958Y239628D01*
X1350000Y239620D01*
X1509095Y239620D01*
X1509145Y239631D01*
X1509196Y239633D01*
X1509228Y239651D01*
X1509264Y239659D01*
X1509303Y239692D01*
X1509348Y239716D01*
X1509369Y239746D01*
X1509397Y239769D01*
X1509418Y239816D01*
X1509448Y239858D01*
X1509456Y239900D01*
X1509468Y239928D01*
X1509467Y239958D01*
X1509475Y240000D01*
X1509475Y241293D01*
X1511078Y245162D01*
X1514038Y248122D01*
X1517907Y249725D01*
X1522093Y249725D01*
X1525962Y248122D01*
X1528922Y245162D01*
X1530525Y241293D01*
X1530525Y240000D01*
X1530536Y239950D01*
X1530538Y239899D01*
X1530556Y239867D01*
X1530564Y239831D01*
X1530597Y239792D01*
X1530621Y239747D01*
X1530651Y239726D01*
X1530674Y239698D01*
X1530721Y239677D01*
X1530763Y239647D01*
X1530805Y239639D01*
X1530833Y239627D01*
X1530863Y239628D01*
X1530905Y239620D01*
X1534495Y239620D01*
X1534545Y239631D01*
X1534596Y239633D01*
X1534628Y239651D01*
X1534664Y239659D01*
X1534703Y239692D01*
X1534748Y239716D01*
X1534769Y239746D01*
X1534797Y239769D01*
X1534818Y239816D01*
X1534848Y239858D01*
X1534856Y239900D01*
X1534868Y239928D01*
X1534867Y239958D01*
X1534875Y240000D01*
X1534875Y241293D01*
X1536478Y245162D01*
X1539438Y248122D01*
X1543307Y249725D01*
X1547493Y249725D01*
X1551362Y248122D01*
X1554322Y245162D01*
X1555925Y241293D01*
X1555925Y240000D01*
X1555936Y239950D01*
X1555938Y239899D01*
X1555956Y239867D01*
X1555964Y239831D01*
X1555997Y239792D01*
X1556021Y239747D01*
X1556051Y239726D01*
X1556074Y239698D01*
X1556121Y239677D01*
X1556163Y239647D01*
X1556205Y239639D01*
X1556233Y239627D01*
X1556263Y239628D01*
X1556305Y239620D01*
X1589620Y239620D01*
X1589620Y11541D01*
X1589631Y11491D01*
X1589633Y11440D01*
X1589651Y11408D01*
X1589659Y11372D01*
X1589692Y11333D01*
X1589716Y11288D01*
X1589746Y11267D01*
X1589769Y11239D01*
X1589816Y11218D01*
X1589858Y11188D01*
X1589900Y11180D01*
X1589928Y11168D01*
X1589958Y11169D01*
X1590000Y11161D01*
X1720000Y11161D01*
X1720013Y11164D01*
G37*
G36*
X487054Y229246D02*
X487054Y229246D01*
X487100Y229244D01*
X487175Y229266D01*
X487251Y229279D01*
X487292Y229300D01*
X487336Y229313D01*
X487400Y229357D01*
X487469Y229394D01*
X487500Y229427D01*
X487538Y229453D01*
X487584Y229515D01*
X487638Y229572D01*
X487657Y229614D01*
X487685Y229650D01*
X487709Y229724D01*
X487742Y229795D01*
X487747Y229841D01*
X487761Y229884D01*
X487760Y229962D01*
X487769Y230039D01*
X487759Y230084D01*
X487759Y230130D01*
X487721Y230262D01*
X487717Y230280D01*
X487714Y230284D01*
X487712Y230291D01*
X485999Y234426D01*
X485999Y243974D01*
X489653Y252795D01*
X496405Y259547D01*
X505226Y263201D01*
X514774Y263201D01*
X522409Y260038D01*
X522497Y260018D01*
X522584Y259989D01*
X522617Y259990D01*
X522648Y259982D01*
X522739Y259991D01*
X522830Y259992D01*
X522870Y260003D01*
X522893Y260005D01*
X522922Y260018D01*
X522991Y260038D01*
X530626Y263201D01*
X540174Y263201D01*
X548995Y259547D01*
X555747Y252795D01*
X559401Y243974D01*
X559401Y234426D01*
X557688Y230291D01*
X557678Y230247D01*
X557658Y230205D01*
X557650Y230128D01*
X557632Y230052D01*
X557636Y230006D01*
X557631Y229961D01*
X557648Y229884D01*
X557655Y229807D01*
X557674Y229765D01*
X557683Y229720D01*
X557723Y229653D01*
X557755Y229582D01*
X557786Y229548D01*
X557810Y229509D01*
X557869Y229459D01*
X557921Y229401D01*
X557962Y229379D01*
X557997Y229349D01*
X558069Y229320D01*
X558137Y229283D01*
X558182Y229274D01*
X558225Y229257D01*
X558361Y229242D01*
X558379Y229239D01*
X558384Y229240D01*
X558391Y229239D01*
X626396Y229239D01*
X626463Y229250D01*
X626531Y229251D01*
X626584Y229269D01*
X626639Y229279D01*
X626699Y229310D01*
X626762Y229333D01*
X626807Y229367D01*
X626856Y229394D01*
X626903Y229442D01*
X626956Y229484D01*
X627003Y229548D01*
X627026Y229572D01*
X627035Y229591D01*
X627055Y229619D01*
X628389Y231929D01*
X638071Y241611D01*
X649928Y248457D01*
X663154Y252001D01*
X676846Y252001D01*
X690072Y248457D01*
X699619Y242945D01*
X699708Y242911D01*
X699795Y242871D01*
X699823Y242868D01*
X699849Y242858D01*
X699945Y242854D01*
X700039Y242844D01*
X700067Y242850D01*
X700095Y242848D01*
X700187Y242876D01*
X700280Y242896D01*
X700304Y242910D01*
X700331Y242918D01*
X700409Y242973D01*
X700491Y243022D01*
X700509Y243043D01*
X700532Y243060D01*
X700589Y243136D01*
X700651Y243209D01*
X700661Y243235D01*
X700678Y243258D01*
X700707Y243348D01*
X700743Y243437D01*
X700747Y243472D01*
X700753Y243492D01*
X700753Y243525D01*
X700761Y243604D01*
X700761Y320000D01*
X700758Y320020D01*
X700760Y320039D01*
X700738Y320141D01*
X700722Y320243D01*
X700712Y320260D01*
X700708Y320280D01*
X700655Y320369D01*
X700606Y320460D01*
X700592Y320474D01*
X700582Y320491D01*
X700503Y320558D01*
X700428Y320630D01*
X700410Y320638D01*
X700395Y320651D01*
X700299Y320690D01*
X700205Y320733D01*
X700185Y320735D01*
X700167Y320743D01*
X700000Y320761D01*
X696819Y320761D01*
X696729Y320747D01*
X696638Y320739D01*
X696608Y320727D01*
X696576Y320722D01*
X696495Y320679D01*
X696411Y320643D01*
X696379Y320617D01*
X696359Y320606D01*
X696336Y320583D01*
X696280Y320538D01*
X693595Y317853D01*
X684774Y314199D01*
X675226Y314199D01*
X667591Y317362D01*
X667503Y317382D01*
X667416Y317411D01*
X667383Y317410D01*
X667352Y317418D01*
X667261Y317409D01*
X667170Y317408D01*
X667130Y317397D01*
X667107Y317395D01*
X667078Y317382D01*
X667009Y317362D01*
X659374Y314199D01*
X649826Y314199D01*
X641005Y317853D01*
X638320Y320538D01*
X638246Y320591D01*
X638176Y320651D01*
X638146Y320663D01*
X638120Y320682D01*
X638033Y320709D01*
X637948Y320743D01*
X637907Y320747D01*
X637885Y320754D01*
X637853Y320753D01*
X637781Y320761D01*
X620761Y320761D01*
X620761Y390000D01*
X620758Y390020D01*
X620760Y390039D01*
X620738Y390141D01*
X620722Y390243D01*
X620712Y390260D01*
X620708Y390280D01*
X620655Y390369D01*
X620606Y390460D01*
X620592Y390474D01*
X620582Y390491D01*
X620503Y390558D01*
X620428Y390630D01*
X620410Y390638D01*
X620395Y390651D01*
X620299Y390690D01*
X620205Y390733D01*
X620185Y390735D01*
X620167Y390743D01*
X620000Y390761D01*
X370761Y390761D01*
X370761Y977238D01*
X370758Y977258D01*
X370760Y977277D01*
X370738Y977379D01*
X370722Y977481D01*
X370712Y977498D01*
X370708Y977518D01*
X370655Y977607D01*
X370606Y977698D01*
X370592Y977712D01*
X370582Y977729D01*
X370503Y977796D01*
X370428Y977868D01*
X370410Y977876D01*
X370395Y977889D01*
X370299Y977928D01*
X370205Y977971D01*
X370185Y977973D01*
X370167Y977981D01*
X370000Y977999D01*
X220000Y977999D01*
X219980Y977996D01*
X219961Y977998D01*
X219859Y977976D01*
X219757Y977960D01*
X219740Y977950D01*
X219720Y977946D01*
X219631Y977893D01*
X219540Y977844D01*
X219526Y977830D01*
X219509Y977820D01*
X219442Y977741D01*
X219370Y977666D01*
X219362Y977648D01*
X219349Y977633D01*
X219310Y977537D01*
X219267Y977443D01*
X219265Y977423D01*
X219257Y977405D01*
X219239Y977238D01*
X219239Y230000D01*
X219242Y229980D01*
X219240Y229961D01*
X219262Y229859D01*
X219279Y229757D01*
X219288Y229740D01*
X219292Y229720D01*
X219345Y229631D01*
X219394Y229540D01*
X219408Y229526D01*
X219418Y229509D01*
X219497Y229442D01*
X219572Y229371D01*
X219590Y229362D01*
X219605Y229349D01*
X219701Y229310D01*
X219795Y229267D01*
X219815Y229265D01*
X219833Y229257D01*
X220000Y229239D01*
X487009Y229239D01*
X487054Y229246D01*
G37*
G36*
X280050Y16012D02*
X280050Y16012D01*
X280101Y16014D01*
X280133Y16032D01*
X280169Y16040D01*
X280208Y16073D01*
X280253Y16097D01*
X280274Y16127D01*
X280302Y16150D01*
X280323Y16197D01*
X280353Y16239D01*
X280361Y16281D01*
X280373Y16309D01*
X280372Y16339D01*
X280380Y16381D01*
X280380Y210000D01*
X280369Y210050D01*
X280367Y210101D01*
X280349Y210133D01*
X280341Y210169D01*
X280308Y210208D01*
X280284Y210253D01*
X280254Y210274D01*
X280231Y210302D01*
X280184Y210323D01*
X280142Y210353D01*
X280100Y210361D01*
X280072Y210373D01*
X280042Y210372D01*
X280000Y210380D01*
X190380Y210380D01*
X190380Y590000D01*
X190369Y590050D01*
X190367Y590101D01*
X190349Y590133D01*
X190341Y590169D01*
X190308Y590208D01*
X190284Y590253D01*
X190254Y590274D01*
X190231Y590302D01*
X190184Y590323D01*
X190142Y590353D01*
X190100Y590361D01*
X190072Y590373D01*
X190042Y590372D01*
X190000Y590380D01*
X93736Y590380D01*
X93675Y590366D01*
X93611Y590359D01*
X93591Y590346D01*
X93568Y590341D01*
X93519Y590300D01*
X93465Y590266D01*
X93450Y590244D01*
X93434Y590231D01*
X93419Y590196D01*
X93385Y590146D01*
X93178Y589646D01*
X93166Y589570D01*
X93149Y589496D01*
X93151Y589484D01*
X93150Y589475D01*
X93161Y589439D01*
X93178Y589354D01*
X96401Y581574D01*
X96401Y572026D01*
X93178Y564246D01*
X93166Y564170D01*
X93149Y564096D01*
X93151Y564084D01*
X93150Y564075D01*
X93161Y564039D01*
X93178Y563954D01*
X96401Y556174D01*
X96401Y546626D01*
X93178Y538846D01*
X93166Y538770D01*
X93149Y538696D01*
X93151Y538684D01*
X93150Y538675D01*
X93161Y538639D01*
X93178Y538554D01*
X96401Y530774D01*
X96401Y521226D01*
X92747Y512405D01*
X85995Y505653D01*
X77174Y501999D01*
X67626Y501999D01*
X59846Y505222D01*
X59770Y505234D01*
X59696Y505251D01*
X59684Y505249D01*
X59675Y505250D01*
X59639Y505239D01*
X59554Y505222D01*
X51774Y501999D01*
X42226Y501999D01*
X33405Y505653D01*
X26653Y512405D01*
X22999Y521226D01*
X22999Y530774D01*
X26222Y538554D01*
X26234Y538630D01*
X26251Y538704D01*
X26249Y538716D01*
X26250Y538725D01*
X26239Y538761D01*
X26222Y538846D01*
X22999Y546626D01*
X22999Y556174D01*
X26222Y563954D01*
X26234Y564030D01*
X26251Y564104D01*
X26249Y564116D01*
X26250Y564125D01*
X26239Y564161D01*
X26222Y564246D01*
X22999Y572026D01*
X22999Y581574D01*
X26222Y589354D01*
X26234Y589430D01*
X26251Y589504D01*
X26249Y589516D01*
X26250Y589525D01*
X26239Y589561D01*
X26222Y589646D01*
X26015Y590146D01*
X25978Y590197D01*
X25948Y590253D01*
X25928Y590267D01*
X25914Y590286D01*
X25858Y590316D01*
X25806Y590353D01*
X25779Y590358D01*
X25761Y590368D01*
X25723Y590369D01*
X25664Y590380D01*
X16381Y590380D01*
X16331Y590369D01*
X16280Y590367D01*
X16248Y590349D01*
X16212Y590341D01*
X16173Y590308D01*
X16128Y590284D01*
X16107Y590254D01*
X16079Y590231D01*
X16058Y590184D01*
X16028Y590142D01*
X16020Y590100D01*
X16008Y590072D01*
X16009Y590042D01*
X16001Y590000D01*
X16001Y90459D01*
X16007Y90434D01*
X16004Y90408D01*
X16026Y90350D01*
X16040Y90290D01*
X16057Y90270D01*
X16066Y90246D01*
X16111Y90204D01*
X16150Y90156D01*
X16174Y90146D01*
X16193Y90128D01*
X16252Y90111D01*
X16309Y90086D01*
X16334Y90087D01*
X16359Y90079D01*
X16420Y90090D01*
X16482Y90092D01*
X16504Y90105D01*
X16530Y90109D01*
X16601Y90157D01*
X16634Y90175D01*
X16640Y90183D01*
X16650Y90190D01*
X18071Y91611D01*
X29929Y98457D01*
X43154Y102001D01*
X56846Y102001D01*
X70071Y98457D01*
X81929Y91611D01*
X91611Y81929D01*
X98457Y70071D01*
X98912Y68375D01*
X98912Y68374D01*
X100134Y63812D01*
X100134Y63811D01*
X102001Y56846D01*
X102001Y43154D01*
X98457Y29929D01*
X91611Y18071D01*
X90190Y16650D01*
X90176Y16628D01*
X90156Y16612D01*
X90131Y16555D01*
X90099Y16503D01*
X90096Y16477D01*
X90086Y16453D01*
X90088Y16392D01*
X90082Y16330D01*
X90091Y16306D01*
X90092Y16280D01*
X90122Y16226D01*
X90144Y16168D01*
X90163Y16151D01*
X90175Y16128D01*
X90225Y16093D01*
X90271Y16051D01*
X90296Y16043D01*
X90317Y16028D01*
X90401Y16012D01*
X90437Y16001D01*
X90447Y16003D01*
X90459Y16001D01*
X280000Y16001D01*
X280050Y16012D01*
G37*
G36*
X1033543Y609258D02*
X1033543Y609258D01*
X1033660Y609275D01*
X1033665Y609278D01*
X1033671Y609279D01*
X1033774Y609333D01*
X1033879Y609386D01*
X1033883Y609391D01*
X1033889Y609394D01*
X1033969Y609478D01*
X1034051Y609562D01*
X1034055Y609568D01*
X1034058Y609572D01*
X1034066Y609589D01*
X1034132Y609709D01*
X1036653Y615795D01*
X1043405Y622547D01*
X1052226Y626201D01*
X1061774Y626201D01*
X1069409Y623038D01*
X1069497Y623018D01*
X1069584Y622989D01*
X1069617Y622990D01*
X1069648Y622982D01*
X1069739Y622991D01*
X1069830Y622992D01*
X1069870Y623003D01*
X1069893Y623005D01*
X1069922Y623018D01*
X1069991Y623038D01*
X1077626Y626201D01*
X1087174Y626201D01*
X1095995Y622547D01*
X1102747Y615795D01*
X1105268Y609709D01*
X1105330Y609609D01*
X1105390Y609509D01*
X1105394Y609505D01*
X1105398Y609500D01*
X1105488Y609425D01*
X1105576Y609349D01*
X1105582Y609347D01*
X1105587Y609343D01*
X1105695Y609301D01*
X1105805Y609257D01*
X1105812Y609256D01*
X1105817Y609255D01*
X1105835Y609254D01*
X1105971Y609239D01*
X1160000Y609239D01*
X1160020Y609242D01*
X1160039Y609240D01*
X1160141Y609262D01*
X1160243Y609279D01*
X1160260Y609288D01*
X1160280Y609292D01*
X1160369Y609345D01*
X1160460Y609394D01*
X1160474Y609408D01*
X1160491Y609418D01*
X1160558Y609497D01*
X1160630Y609572D01*
X1160638Y609590D01*
X1160651Y609605D01*
X1160690Y609701D01*
X1160733Y609795D01*
X1160735Y609815D01*
X1160743Y609833D01*
X1160761Y610000D01*
X1160761Y666971D01*
X1160751Y667035D01*
X1160750Y667101D01*
X1160727Y667181D01*
X1160722Y667214D01*
X1160712Y667231D01*
X1160703Y667262D01*
X1158217Y673264D01*
X1158217Y680736D01*
X1158431Y681253D01*
X1158452Y681341D01*
X1158480Y681428D01*
X1158480Y681461D01*
X1158487Y681492D01*
X1158480Y681572D01*
X1158483Y681597D01*
X1158479Y681616D01*
X1158478Y681674D01*
X1158467Y681714D01*
X1158464Y681737D01*
X1158451Y681766D01*
X1158431Y681835D01*
X1158217Y682352D01*
X1158217Y689824D01*
X1160703Y695826D01*
X1160718Y695890D01*
X1160743Y695951D01*
X1160752Y696033D01*
X1160759Y696065D01*
X1160758Y696085D01*
X1160761Y696117D01*
X1160761Y807331D01*
X1160742Y807446D01*
X1160725Y807562D01*
X1160723Y807568D01*
X1160722Y807574D01*
X1160667Y807676D01*
X1160614Y807781D01*
X1160609Y807786D01*
X1160606Y807791D01*
X1160522Y807871D01*
X1160438Y807953D01*
X1160432Y807957D01*
X1160428Y807961D01*
X1160411Y807968D01*
X1160291Y808034D01*
X1155360Y810077D01*
X1150077Y815360D01*
X1147217Y822264D01*
X1147217Y829755D01*
X1147236Y829795D01*
X1147244Y829872D01*
X1147262Y829948D01*
X1147258Y829994D01*
X1147263Y830039D01*
X1147246Y830116D01*
X1147239Y830193D01*
X1147220Y830235D01*
X1147211Y830280D01*
X1147171Y830347D01*
X1147139Y830418D01*
X1147108Y830452D01*
X1147084Y830491D01*
X1147025Y830542D01*
X1146973Y830599D01*
X1146932Y830621D01*
X1146897Y830651D01*
X1146825Y830680D01*
X1146757Y830717D01*
X1146712Y830726D01*
X1146669Y830743D01*
X1146534Y830758D01*
X1146515Y830761D01*
X1146510Y830760D01*
X1146503Y830761D01*
X950761Y830761D01*
X950761Y977238D01*
X950758Y977258D01*
X950760Y977277D01*
X950738Y977379D01*
X950721Y977481D01*
X950712Y977498D01*
X950708Y977518D01*
X950655Y977607D01*
X950606Y977698D01*
X950592Y977712D01*
X950582Y977729D01*
X950503Y977796D01*
X950428Y977868D01*
X950410Y977876D01*
X950395Y977889D01*
X950299Y977928D01*
X950205Y977971D01*
X950185Y977973D01*
X950167Y977981D01*
X950000Y977999D01*
X810000Y977999D01*
X809980Y977996D01*
X809961Y977998D01*
X809859Y977976D01*
X809757Y977960D01*
X809740Y977950D01*
X809720Y977946D01*
X809631Y977893D01*
X809540Y977844D01*
X809526Y977830D01*
X809509Y977820D01*
X809442Y977741D01*
X809371Y977666D01*
X809362Y977648D01*
X809349Y977633D01*
X809310Y977537D01*
X809267Y977443D01*
X809265Y977423D01*
X809257Y977405D01*
X809239Y977238D01*
X809239Y779303D01*
X809246Y779257D01*
X809244Y779212D01*
X809266Y779137D01*
X809279Y779060D01*
X809300Y779019D01*
X809313Y778975D01*
X809357Y778911D01*
X809394Y778843D01*
X809427Y778811D01*
X809453Y778773D01*
X809515Y778727D01*
X809572Y778673D01*
X809614Y778654D01*
X809650Y778626D01*
X809724Y778602D01*
X809795Y778570D01*
X809841Y778564D01*
X809884Y778550D01*
X809962Y778551D01*
X810039Y778542D01*
X810084Y778552D01*
X810130Y778553D01*
X810262Y778591D01*
X810280Y778595D01*
X810284Y778597D01*
X810291Y778599D01*
X812226Y779401D01*
X821774Y779401D01*
X830595Y775747D01*
X837347Y768995D01*
X841001Y760174D01*
X841001Y750626D01*
X837838Y742991D01*
X837818Y742903D01*
X837789Y742816D01*
X837790Y742783D01*
X837782Y742752D01*
X837791Y742661D01*
X837792Y742570D01*
X837803Y742530D01*
X837805Y742507D01*
X837818Y742478D01*
X837838Y742409D01*
X841001Y734774D01*
X841001Y725226D01*
X837347Y716405D01*
X830595Y709653D01*
X821774Y705999D01*
X812226Y705999D01*
X810291Y706801D01*
X810247Y706811D01*
X810205Y706830D01*
X810128Y706839D01*
X810052Y706857D01*
X810006Y706852D01*
X809961Y706858D01*
X809884Y706841D01*
X809807Y706834D01*
X809765Y706815D01*
X809720Y706805D01*
X809653Y706765D01*
X809582Y706734D01*
X809548Y706703D01*
X809509Y706679D01*
X809459Y706620D01*
X809401Y706567D01*
X809379Y706527D01*
X809349Y706492D01*
X809320Y706420D01*
X809283Y706352D01*
X809274Y706307D01*
X809257Y706264D01*
X809242Y706128D01*
X809239Y706110D01*
X809240Y706105D01*
X809239Y706097D01*
X809239Y610000D01*
X809242Y609980D01*
X809240Y609961D01*
X809262Y609859D01*
X809279Y609757D01*
X809288Y609740D01*
X809292Y609720D01*
X809345Y609631D01*
X809394Y609540D01*
X809408Y609526D01*
X809418Y609509D01*
X809497Y609442D01*
X809572Y609371D01*
X809590Y609362D01*
X809605Y609349D01*
X809701Y609310D01*
X809795Y609267D01*
X809815Y609265D01*
X809833Y609257D01*
X810000Y609239D01*
X1033429Y609239D01*
X1033543Y609258D01*
G37*
G36*
X771450Y609249D02*
X771450Y609249D01*
X771515Y609250D01*
X771595Y609273D01*
X771628Y609279D01*
X771645Y609288D01*
X771676Y609297D01*
X775264Y610783D01*
X780000Y610783D01*
X780020Y610786D01*
X780039Y610784D01*
X780141Y610806D01*
X780243Y610822D01*
X780260Y610832D01*
X780280Y610836D01*
X780369Y610889D01*
X780460Y610938D01*
X780474Y610952D01*
X780491Y610962D01*
X780558Y611041D01*
X780630Y611116D01*
X780638Y611134D01*
X780651Y611149D01*
X780690Y611245D01*
X780733Y611339D01*
X780735Y611359D01*
X780743Y611377D01*
X780761Y611544D01*
X780761Y708003D01*
X780742Y708117D01*
X780725Y708234D01*
X780723Y708239D01*
X780722Y708245D01*
X780667Y708348D01*
X780614Y708453D01*
X780609Y708457D01*
X780606Y708463D01*
X780522Y708543D01*
X780438Y708625D01*
X780432Y708629D01*
X780428Y708632D01*
X780411Y708640D01*
X780291Y708706D01*
X778005Y709653D01*
X771253Y716405D01*
X767599Y725226D01*
X767599Y734774D01*
X770762Y742409D01*
X770782Y742497D01*
X770811Y742584D01*
X770810Y742617D01*
X770818Y742648D01*
X770809Y742739D01*
X770808Y742830D01*
X770797Y742870D01*
X770795Y742893D01*
X770782Y742922D01*
X770762Y742991D01*
X767599Y750626D01*
X767599Y760174D01*
X771253Y768995D01*
X778005Y775747D01*
X780291Y776694D01*
X780391Y776756D01*
X780491Y776816D01*
X780495Y776820D01*
X780500Y776824D01*
X780575Y776914D01*
X780651Y777002D01*
X780653Y777008D01*
X780657Y777013D01*
X780699Y777121D01*
X780743Y777231D01*
X780744Y777238D01*
X780745Y777243D01*
X780746Y777261D01*
X780761Y777397D01*
X780761Y977238D01*
X780758Y977258D01*
X780760Y977277D01*
X780738Y977379D01*
X780722Y977481D01*
X780712Y977498D01*
X780708Y977518D01*
X780655Y977607D01*
X780606Y977698D01*
X780592Y977712D01*
X780582Y977729D01*
X780503Y977796D01*
X780428Y977868D01*
X780410Y977876D01*
X780395Y977889D01*
X780299Y977928D01*
X780205Y977971D01*
X780185Y977973D01*
X780167Y977981D01*
X780000Y977999D01*
X590000Y977999D01*
X589980Y977996D01*
X589961Y977998D01*
X589859Y977976D01*
X589757Y977960D01*
X589740Y977950D01*
X589720Y977946D01*
X589631Y977893D01*
X589540Y977844D01*
X589526Y977830D01*
X589509Y977820D01*
X589442Y977741D01*
X589371Y977666D01*
X589362Y977648D01*
X589349Y977633D01*
X589310Y977537D01*
X589267Y977443D01*
X589265Y977423D01*
X589257Y977405D01*
X589239Y977238D01*
X589239Y610000D01*
X589242Y609980D01*
X589240Y609961D01*
X589262Y609859D01*
X589279Y609757D01*
X589288Y609740D01*
X589292Y609720D01*
X589345Y609631D01*
X589394Y609540D01*
X589408Y609526D01*
X589418Y609509D01*
X589497Y609442D01*
X589572Y609371D01*
X589590Y609362D01*
X589605Y609349D01*
X589701Y609310D01*
X589795Y609267D01*
X589815Y609265D01*
X589833Y609257D01*
X590000Y609239D01*
X771385Y609239D01*
X771450Y609249D01*
G37*
G36*
X23543Y609258D02*
X23543Y609258D01*
X23660Y609275D01*
X23665Y609278D01*
X23671Y609279D01*
X23774Y609333D01*
X23879Y609386D01*
X23883Y609391D01*
X23889Y609394D01*
X23969Y609478D01*
X24051Y609562D01*
X24055Y609568D01*
X24058Y609572D01*
X24066Y609589D01*
X24132Y609709D01*
X26653Y615795D01*
X33405Y622547D01*
X42226Y626201D01*
X51774Y626201D01*
X59409Y623038D01*
X59497Y623018D01*
X59584Y622989D01*
X59617Y622990D01*
X59648Y622982D01*
X59739Y622991D01*
X59830Y622992D01*
X59870Y623003D01*
X59893Y623005D01*
X59922Y623018D01*
X59991Y623038D01*
X67626Y626201D01*
X77174Y626201D01*
X85995Y622547D01*
X92747Y615795D01*
X95268Y609709D01*
X95330Y609609D01*
X95390Y609509D01*
X95394Y609505D01*
X95398Y609500D01*
X95488Y609425D01*
X95576Y609349D01*
X95582Y609347D01*
X95587Y609343D01*
X95695Y609301D01*
X95805Y609257D01*
X95812Y609256D01*
X95817Y609255D01*
X95835Y609254D01*
X95971Y609239D01*
X190000Y609239D01*
X190020Y609242D01*
X190039Y609240D01*
X190141Y609262D01*
X190243Y609279D01*
X190260Y609288D01*
X190280Y609292D01*
X190369Y609345D01*
X190460Y609394D01*
X190474Y609408D01*
X190491Y609418D01*
X190558Y609497D01*
X190630Y609572D01*
X190638Y609590D01*
X190651Y609605D01*
X190690Y609701D01*
X190733Y609795D01*
X190735Y609815D01*
X190743Y609833D01*
X190761Y610000D01*
X190761Y977238D01*
X190758Y977258D01*
X190760Y977277D01*
X190738Y977379D01*
X190722Y977481D01*
X190712Y977498D01*
X190708Y977518D01*
X190655Y977607D01*
X190606Y977698D01*
X190592Y977712D01*
X190582Y977729D01*
X190503Y977796D01*
X190428Y977868D01*
X190410Y977876D01*
X190395Y977889D01*
X190299Y977928D01*
X190205Y977971D01*
X190185Y977973D01*
X190167Y977981D01*
X190000Y977999D01*
X24000Y977999D01*
X23982Y977996D01*
X23950Y977998D01*
X23005Y977936D01*
X22982Y977930D01*
X22858Y977911D01*
X21033Y977422D01*
X21019Y977416D01*
X21003Y977414D01*
X20850Y977346D01*
X19213Y976402D01*
X19201Y976392D01*
X19186Y976385D01*
X19056Y976281D01*
X17719Y974944D01*
X17710Y974932D01*
X17698Y974922D01*
X17598Y974787D01*
X16654Y973150D01*
X16648Y973136D01*
X16639Y973123D01*
X16578Y972967D01*
X16089Y971142D01*
X16086Y971118D01*
X16064Y970995D01*
X16002Y970050D01*
X16004Y970031D01*
X16001Y970000D01*
X16001Y610000D01*
X16004Y609980D01*
X16002Y609961D01*
X16024Y609859D01*
X16040Y609757D01*
X16050Y609740D01*
X16054Y609720D01*
X16107Y609631D01*
X16156Y609540D01*
X16170Y609526D01*
X16180Y609509D01*
X16259Y609442D01*
X16334Y609371D01*
X16352Y609362D01*
X16367Y609349D01*
X16463Y609310D01*
X16557Y609267D01*
X16577Y609265D01*
X16595Y609257D01*
X16762Y609239D01*
X23429Y609239D01*
X23543Y609258D01*
G37*
G36*
X430050Y19631D02*
X430050Y19631D01*
X430101Y19633D01*
X430133Y19651D01*
X430169Y19659D01*
X430208Y19692D01*
X430253Y19716D01*
X430274Y19746D01*
X430302Y19769D01*
X430323Y19816D01*
X430353Y19858D01*
X430361Y19900D01*
X430373Y19928D01*
X430372Y19958D01*
X430380Y20000D01*
X430380Y210000D01*
X430369Y210050D01*
X430367Y210101D01*
X430349Y210133D01*
X430341Y210169D01*
X430308Y210208D01*
X430284Y210253D01*
X430254Y210274D01*
X430231Y210302D01*
X430184Y210323D01*
X430142Y210353D01*
X430100Y210361D01*
X430072Y210373D01*
X430042Y210372D01*
X430000Y210380D01*
X300000Y210380D01*
X299950Y210369D01*
X299899Y210367D01*
X299867Y210349D01*
X299831Y210341D01*
X299792Y210308D01*
X299747Y210284D01*
X299726Y210254D01*
X299698Y210231D01*
X299677Y210184D01*
X299647Y210142D01*
X299639Y210100D01*
X299627Y210072D01*
X299628Y210042D01*
X299620Y210000D01*
X299620Y20000D01*
X299631Y19950D01*
X299633Y19899D01*
X299651Y19867D01*
X299659Y19831D01*
X299692Y19792D01*
X299716Y19747D01*
X299746Y19726D01*
X299769Y19698D01*
X299816Y19677D01*
X299858Y19647D01*
X299900Y19639D01*
X299928Y19627D01*
X299958Y19628D01*
X300000Y19620D01*
X430000Y19620D01*
X430050Y19631D01*
G37*
G36*
X1160020Y849242D02*
X1160020Y849242D01*
X1160039Y849240D01*
X1160141Y849262D01*
X1160243Y849279D01*
X1160260Y849288D01*
X1160280Y849292D01*
X1160369Y849345D01*
X1160460Y849394D01*
X1160474Y849408D01*
X1160491Y849418D01*
X1160558Y849497D01*
X1160630Y849572D01*
X1160638Y849590D01*
X1160651Y849605D01*
X1160690Y849701D01*
X1160733Y849795D01*
X1160735Y849815D01*
X1160743Y849833D01*
X1160761Y850000D01*
X1160761Y977238D01*
X1160758Y977258D01*
X1160760Y977277D01*
X1160738Y977379D01*
X1160722Y977481D01*
X1160712Y977498D01*
X1160708Y977518D01*
X1160655Y977607D01*
X1160606Y977698D01*
X1160592Y977712D01*
X1160582Y977729D01*
X1160503Y977796D01*
X1160428Y977868D01*
X1160410Y977876D01*
X1160395Y977889D01*
X1160299Y977928D01*
X1160205Y977971D01*
X1160185Y977973D01*
X1160167Y977981D01*
X1160000Y977999D01*
X970000Y977999D01*
X969980Y977996D01*
X969961Y977998D01*
X969859Y977976D01*
X969757Y977960D01*
X969740Y977950D01*
X969720Y977946D01*
X969631Y977893D01*
X969540Y977844D01*
X969526Y977830D01*
X969509Y977820D01*
X969442Y977741D01*
X969371Y977666D01*
X969362Y977648D01*
X969349Y977633D01*
X969310Y977537D01*
X969267Y977443D01*
X969265Y977423D01*
X969257Y977405D01*
X969239Y977238D01*
X969239Y850000D01*
X969242Y849980D01*
X969240Y849961D01*
X969262Y849859D01*
X969279Y849757D01*
X969288Y849740D01*
X969292Y849720D01*
X969345Y849631D01*
X969394Y849540D01*
X969408Y849526D01*
X969418Y849509D01*
X969497Y849442D01*
X969572Y849371D01*
X969590Y849362D01*
X969605Y849349D01*
X969701Y849310D01*
X969795Y849267D01*
X969815Y849265D01*
X969833Y849257D01*
X970000Y849239D01*
X1160000Y849239D01*
X1160020Y849242D01*
G37*
%LPC*%
G36*
X890363Y227594D02*
X890363Y227594D01*
X890350Y227669D01*
X890343Y227679D01*
X890341Y227689D01*
X890317Y227718D01*
X890269Y227789D01*
X889653Y228405D01*
X885999Y237226D01*
X885999Y246774D01*
X889222Y254554D01*
X889234Y254630D01*
X889251Y254704D01*
X889249Y254716D01*
X889250Y254725D01*
X889239Y254761D01*
X889222Y254846D01*
X885999Y262626D01*
X885999Y272174D01*
X889222Y279954D01*
X889234Y280030D01*
X889251Y280104D01*
X889249Y280116D01*
X889250Y280125D01*
X889239Y280161D01*
X889222Y280246D01*
X885999Y288026D01*
X885999Y297574D01*
X889222Y305354D01*
X889234Y305430D01*
X889251Y305504D01*
X889249Y305516D01*
X889250Y305525D01*
X889239Y305561D01*
X889222Y305646D01*
X885999Y313426D01*
X885999Y322974D01*
X889222Y330754D01*
X889234Y330830D01*
X889251Y330904D01*
X889249Y330916D01*
X889250Y330925D01*
X889239Y330961D01*
X889222Y331046D01*
X885999Y338826D01*
X885999Y348374D01*
X889222Y356154D01*
X889234Y356230D01*
X889251Y356304D01*
X889249Y356316D01*
X889250Y356325D01*
X889239Y356361D01*
X889228Y356419D01*
X889227Y356425D01*
X889226Y356428D01*
X889222Y356446D01*
X885999Y364226D01*
X885999Y373774D01*
X889653Y382595D01*
X890269Y383211D01*
X890309Y383276D01*
X890353Y383338D01*
X890355Y383350D01*
X890360Y383358D01*
X890364Y383395D01*
X890380Y383480D01*
X890380Y406836D01*
X890371Y406874D01*
X890372Y406913D01*
X890352Y406957D01*
X890341Y407005D01*
X890316Y407035D01*
X890300Y407070D01*
X890254Y407110D01*
X890231Y407139D01*
X890211Y407147D01*
X890190Y407165D01*
X888071Y408389D01*
X878389Y418071D01*
X871543Y429929D01*
X871064Y431715D01*
X869842Y436278D01*
X867999Y443154D01*
X867999Y456846D01*
X871543Y470071D01*
X878389Y481929D01*
X888071Y491611D01*
X890190Y492835D01*
X899929Y498457D01*
X913154Y502001D01*
X926846Y502001D01*
X940071Y498457D01*
X951929Y491611D01*
X953809Y489731D01*
X953874Y489691D01*
X953936Y489647D01*
X953948Y489645D01*
X953956Y489640D01*
X953993Y489636D01*
X954078Y489620D01*
X959620Y489620D01*
X959620Y484078D01*
X959637Y484004D01*
X959650Y483929D01*
X959657Y483919D01*
X959659Y483909D01*
X959683Y483880D01*
X959731Y483809D01*
X961611Y481929D01*
X968457Y470071D01*
X969528Y466074D01*
X970751Y461511D01*
X972001Y456846D01*
X972001Y443154D01*
X968457Y429929D01*
X961611Y418071D01*
X959731Y416191D01*
X959691Y416126D01*
X959647Y416064D01*
X959645Y416052D01*
X959640Y416044D01*
X959636Y416007D01*
X959620Y415922D01*
X959620Y220761D01*
X890380Y220761D01*
X890380Y227520D01*
X890363Y227594D01*
G37*
%LPD*%
G36*
X1516924Y11178D02*
X1516924Y11178D01*
X1516998Y11190D01*
X1517008Y11197D01*
X1517020Y11200D01*
X1517078Y11248D01*
X1517138Y11292D01*
X1517144Y11303D01*
X1517153Y11310D01*
X1517184Y11379D01*
X1517219Y11445D01*
X1517219Y11457D01*
X1517224Y11469D01*
X1517221Y11543D01*
X1517223Y11618D01*
X1517218Y11629D01*
X1517218Y11642D01*
X1517182Y11707D01*
X1517151Y11775D01*
X1517140Y11784D01*
X1517135Y11794D01*
X1517104Y11816D01*
X1517041Y11870D01*
X1509211Y16391D01*
X1501391Y24211D01*
X1495862Y33788D01*
X1492999Y44470D01*
X1492999Y55530D01*
X1495862Y66212D01*
X1501391Y75789D01*
X1509211Y83609D01*
X1518788Y89138D01*
X1529470Y92001D01*
X1540530Y92001D01*
X1551212Y89138D01*
X1560789Y83609D01*
X1568609Y75789D01*
X1569671Y73950D01*
X1569722Y73895D01*
X1569769Y73838D01*
X1569781Y73833D01*
X1569789Y73824D01*
X1569859Y73797D01*
X1569928Y73767D01*
X1569940Y73767D01*
X1569952Y73763D01*
X1570026Y73771D01*
X1570101Y73773D01*
X1570112Y73779D01*
X1570124Y73781D01*
X1570187Y73821D01*
X1570253Y73856D01*
X1570260Y73866D01*
X1570271Y73873D01*
X1570310Y73937D01*
X1570353Y73998D01*
X1570355Y74011D01*
X1570361Y74021D01*
X1570364Y74059D01*
X1570380Y74140D01*
X1570380Y200000D01*
X1570369Y200050D01*
X1570367Y200101D01*
X1570349Y200133D01*
X1570341Y200169D01*
X1570308Y200208D01*
X1570284Y200253D01*
X1570254Y200274D01*
X1570231Y200302D01*
X1570184Y200323D01*
X1570142Y200353D01*
X1570100Y200361D01*
X1570072Y200373D01*
X1570042Y200372D01*
X1570000Y200380D01*
X1549663Y200380D01*
X1549661Y200380D01*
X1549660Y200380D01*
X1549518Y200351D01*
X1548185Y199799D01*
X1542615Y199799D01*
X1541282Y200351D01*
X1541281Y200352D01*
X1541279Y200353D01*
X1541137Y200380D01*
X1524263Y200380D01*
X1524261Y200380D01*
X1524260Y200380D01*
X1524118Y200351D01*
X1522785Y199799D01*
X1517215Y199799D01*
X1515882Y200351D01*
X1515881Y200352D01*
X1515879Y200353D01*
X1515737Y200380D01*
X1480380Y200380D01*
X1480380Y220000D01*
X1480369Y220050D01*
X1480367Y220101D01*
X1480349Y220133D01*
X1480341Y220169D01*
X1480308Y220208D01*
X1480284Y220253D01*
X1480254Y220274D01*
X1480231Y220302D01*
X1480184Y220323D01*
X1480142Y220353D01*
X1480100Y220361D01*
X1480072Y220373D01*
X1480042Y220372D01*
X1480000Y220380D01*
X1440000Y220380D01*
X1439950Y220369D01*
X1439899Y220367D01*
X1439867Y220349D01*
X1439831Y220341D01*
X1439792Y220308D01*
X1439747Y220284D01*
X1439726Y220254D01*
X1439698Y220231D01*
X1439677Y220184D01*
X1439647Y220142D01*
X1439639Y220100D01*
X1439627Y220072D01*
X1439628Y220042D01*
X1439620Y220000D01*
X1439620Y11541D01*
X1439631Y11491D01*
X1439633Y11440D01*
X1439651Y11408D01*
X1439659Y11372D01*
X1439692Y11333D01*
X1439716Y11288D01*
X1439746Y11267D01*
X1439769Y11239D01*
X1439816Y11218D01*
X1439858Y11188D01*
X1439900Y11180D01*
X1439928Y11168D01*
X1439958Y11169D01*
X1440000Y11161D01*
X1516851Y11161D01*
X1516924Y11178D01*
G37*
G36*
X480050Y19631D02*
X480050Y19631D01*
X480101Y19633D01*
X480133Y19651D01*
X480169Y19659D01*
X480208Y19692D01*
X480253Y19716D01*
X480274Y19746D01*
X480302Y19769D01*
X480323Y19816D01*
X480353Y19858D01*
X480361Y19900D01*
X480373Y19928D01*
X480372Y19958D01*
X480380Y20000D01*
X480380Y99620D01*
X550000Y99620D01*
X550050Y99631D01*
X550101Y99633D01*
X550133Y99651D01*
X550169Y99659D01*
X550208Y99692D01*
X550253Y99716D01*
X550274Y99746D01*
X550302Y99769D01*
X550323Y99816D01*
X550353Y99858D01*
X550361Y99900D01*
X550373Y99928D01*
X550372Y99958D01*
X550380Y100000D01*
X550380Y200000D01*
X550369Y200050D01*
X550367Y200101D01*
X550349Y200133D01*
X550341Y200169D01*
X550308Y200208D01*
X550284Y200253D01*
X550254Y200274D01*
X550231Y200302D01*
X550184Y200323D01*
X550142Y200353D01*
X550100Y200361D01*
X550072Y200373D01*
X550042Y200372D01*
X550000Y200380D01*
X539663Y200380D01*
X539661Y200380D01*
X539660Y200380D01*
X539518Y200351D01*
X538185Y199799D01*
X532615Y199799D01*
X531282Y200351D01*
X531281Y200352D01*
X531279Y200353D01*
X531137Y200380D01*
X514263Y200380D01*
X514261Y200380D01*
X514260Y200380D01*
X514118Y200351D01*
X512785Y199799D01*
X507215Y199799D01*
X505882Y200351D01*
X505881Y200352D01*
X505879Y200353D01*
X505737Y200380D01*
X440000Y200380D01*
X439950Y200369D01*
X439899Y200367D01*
X439867Y200349D01*
X439831Y200341D01*
X439792Y200308D01*
X439747Y200284D01*
X439726Y200254D01*
X439698Y200231D01*
X439677Y200184D01*
X439647Y200142D01*
X439639Y200100D01*
X439627Y200072D01*
X439628Y200042D01*
X439620Y200000D01*
X439620Y20000D01*
X439631Y19950D01*
X439633Y19899D01*
X439651Y19867D01*
X439659Y19831D01*
X439692Y19792D01*
X439716Y19747D01*
X439746Y19726D01*
X439769Y19698D01*
X439816Y19677D01*
X439858Y19647D01*
X439900Y19639D01*
X439928Y19627D01*
X439958Y19628D01*
X440000Y19620D01*
X480000Y19620D01*
X480050Y19631D01*
G37*
%LPC*%
G36*
X953154Y687999D02*
X953154Y687999D01*
X939928Y691543D01*
X928071Y698389D01*
X918389Y708071D01*
X911543Y719928D01*
X907999Y733154D01*
X907999Y746846D01*
X911543Y760072D01*
X918389Y771929D01*
X928071Y781611D01*
X939928Y788457D01*
X953154Y792001D01*
X966846Y792001D01*
X980072Y788457D01*
X991929Y781611D01*
X1001611Y771929D01*
X1008457Y760072D01*
X1012001Y746846D01*
X1012001Y733154D01*
X1008457Y719928D01*
X1001611Y708071D01*
X991929Y698389D01*
X980072Y691543D01*
X966846Y687999D01*
X953154Y687999D01*
G37*
%LPD*%
%LPC*%
G36*
X1529928Y621475D02*
X1529928Y621475D01*
X1520130Y624101D01*
X1511345Y629173D01*
X1504173Y636345D01*
X1499101Y645130D01*
X1498895Y645899D01*
X1497163Y652363D01*
X1496475Y654928D01*
X1496475Y665072D01*
X1499101Y674870D01*
X1504173Y683655D01*
X1511345Y690827D01*
X1520130Y695899D01*
X1529928Y698525D01*
X1540072Y698525D01*
X1549870Y695899D01*
X1558655Y690827D01*
X1565827Y683655D01*
X1570899Y674870D01*
X1571482Y672695D01*
X1572705Y668132D01*
X1573525Y665072D01*
X1573525Y654928D01*
X1570899Y645130D01*
X1565827Y636345D01*
X1558655Y629173D01*
X1549870Y624101D01*
X1540072Y621475D01*
X1529928Y621475D01*
G37*
%LPD*%
%LPC*%
G36*
X1631668Y379270D02*
X1631668Y379270D01*
X1630775Y380163D01*
X1630775Y406827D01*
X1631668Y407720D01*
X1639031Y407720D01*
X1639081Y407731D01*
X1639132Y407733D01*
X1639164Y407751D01*
X1639200Y407759D01*
X1639239Y407792D01*
X1639284Y407816D01*
X1639305Y407846D01*
X1639333Y407869D01*
X1639354Y407916D01*
X1639384Y407958D01*
X1639392Y408000D01*
X1639404Y408028D01*
X1639403Y408058D01*
X1639411Y408100D01*
X1639411Y527189D01*
X1639400Y527238D01*
X1639398Y527289D01*
X1639380Y527321D01*
X1639372Y527357D01*
X1639339Y527397D01*
X1639315Y527441D01*
X1639285Y527463D01*
X1639262Y527491D01*
X1639215Y527512D01*
X1639173Y527541D01*
X1639131Y527549D01*
X1639103Y527562D01*
X1639073Y527561D01*
X1639031Y527569D01*
X1635931Y527569D01*
X1630259Y529918D01*
X1625918Y534259D01*
X1623569Y539931D01*
X1623569Y546069D01*
X1625918Y551741D01*
X1630259Y556082D01*
X1635931Y558431D01*
X1642069Y558431D01*
X1647741Y556082D01*
X1652082Y551741D01*
X1654431Y546069D01*
X1654431Y539931D01*
X1652082Y534259D01*
X1650700Y532877D01*
X1650660Y532812D01*
X1650616Y532750D01*
X1650614Y532738D01*
X1650609Y532730D01*
X1650605Y532693D01*
X1650589Y532608D01*
X1650589Y408100D01*
X1650600Y408050D01*
X1650602Y407999D01*
X1650620Y407967D01*
X1650628Y407931D01*
X1650661Y407892D01*
X1650685Y407847D01*
X1650715Y407826D01*
X1650738Y407798D01*
X1650785Y407777D01*
X1650827Y407747D01*
X1650869Y407739D01*
X1650897Y407727D01*
X1650927Y407728D01*
X1650969Y407720D01*
X1658332Y407720D01*
X1659225Y406827D01*
X1659225Y380163D01*
X1658332Y379270D01*
X1631668Y379270D01*
G37*
%LPD*%
%LPC*%
G36*
X1472287Y904339D02*
X1472287Y904339D01*
X1465888Y906054D01*
X1460151Y909366D01*
X1455466Y914051D01*
X1452154Y919788D01*
X1450439Y926187D01*
X1450439Y932813D01*
X1452154Y939212D01*
X1455466Y944949D01*
X1460151Y949634D01*
X1465888Y952946D01*
X1472287Y954661D01*
X1478913Y954661D01*
X1485312Y952946D01*
X1491049Y949634D01*
X1495734Y944949D01*
X1499046Y939212D01*
X1499545Y937349D01*
X1500761Y932813D01*
X1500761Y926187D01*
X1499046Y919788D01*
X1495734Y914051D01*
X1491049Y909366D01*
X1485312Y906054D01*
X1478913Y904339D01*
X1472287Y904339D01*
G37*
%LPD*%
%LPC*%
G36*
X1669087Y904339D02*
X1669087Y904339D01*
X1662688Y906054D01*
X1656951Y909366D01*
X1652266Y914051D01*
X1648954Y919788D01*
X1647239Y926187D01*
X1647239Y932813D01*
X1648954Y939212D01*
X1652266Y944949D01*
X1656951Y949634D01*
X1662688Y952946D01*
X1669087Y954661D01*
X1675713Y954661D01*
X1682112Y952946D01*
X1687849Y949634D01*
X1692534Y944949D01*
X1695846Y939212D01*
X1696345Y937349D01*
X1697561Y932813D01*
X1697561Y926187D01*
X1695846Y919788D01*
X1692534Y914051D01*
X1687849Y909366D01*
X1682112Y906054D01*
X1675713Y904339D01*
X1669087Y904339D01*
G37*
%LPD*%
%LPC*%
G36*
X1690353Y413695D02*
X1690353Y413695D01*
X1689460Y414588D01*
X1689460Y431852D01*
X1690353Y432745D01*
X1696063Y432745D01*
X1696113Y432756D01*
X1696164Y432758D01*
X1696196Y432776D01*
X1696232Y432784D01*
X1696271Y432817D01*
X1696316Y432841D01*
X1696337Y432871D01*
X1696365Y432894D01*
X1696386Y432941D01*
X1696416Y432983D01*
X1696424Y433025D01*
X1696436Y433053D01*
X1696435Y433083D01*
X1696443Y433125D01*
X1696443Y438095D01*
X1696432Y438145D01*
X1696430Y438196D01*
X1696412Y438228D01*
X1696404Y438264D01*
X1696371Y438303D01*
X1696347Y438348D01*
X1696317Y438369D01*
X1696294Y438397D01*
X1696247Y438418D01*
X1696205Y438448D01*
X1696163Y438456D01*
X1696135Y438468D01*
X1696105Y438467D01*
X1696063Y438475D01*
X1691868Y438475D01*
X1690975Y439368D01*
X1690975Y455632D01*
X1691868Y456525D01*
X1708132Y456525D01*
X1709025Y455632D01*
X1709025Y439368D01*
X1708132Y438475D01*
X1703937Y438475D01*
X1703887Y438464D01*
X1703836Y438462D01*
X1703804Y438444D01*
X1703768Y438436D01*
X1703729Y438403D01*
X1703684Y438379D01*
X1703663Y438349D01*
X1703635Y438326D01*
X1703614Y438279D01*
X1703584Y438237D01*
X1703576Y438195D01*
X1703564Y438167D01*
X1703565Y438137D01*
X1703557Y438095D01*
X1703557Y433125D01*
X1703568Y433075D01*
X1703570Y433024D01*
X1703588Y432992D01*
X1703596Y432956D01*
X1703629Y432917D01*
X1703653Y432872D01*
X1703683Y432851D01*
X1703706Y432823D01*
X1703753Y432802D01*
X1703795Y432772D01*
X1703837Y432764D01*
X1703865Y432752D01*
X1703895Y432753D01*
X1703937Y432745D01*
X1709647Y432745D01*
X1710540Y431852D01*
X1710540Y414588D01*
X1709647Y413695D01*
X1690353Y413695D01*
G37*
%LPD*%
%LPC*%
G36*
X1543307Y254075D02*
X1543307Y254075D01*
X1539438Y255678D01*
X1536478Y258638D01*
X1534875Y262507D01*
X1534875Y266693D01*
X1536478Y270562D01*
X1539438Y273522D01*
X1543307Y275125D01*
X1547493Y275125D01*
X1551362Y273522D01*
X1554322Y270562D01*
X1555925Y266693D01*
X1555925Y262507D01*
X1554322Y258638D01*
X1551362Y255678D01*
X1547493Y254075D01*
X1543307Y254075D01*
G37*
%LPD*%
%LPC*%
G36*
X1517907Y279475D02*
X1517907Y279475D01*
X1514038Y281078D01*
X1511078Y284038D01*
X1509475Y287907D01*
X1509475Y292093D01*
X1511078Y295962D01*
X1514038Y298922D01*
X1517907Y300525D01*
X1522093Y300525D01*
X1525962Y298922D01*
X1528922Y295962D01*
X1530525Y292093D01*
X1530525Y287907D01*
X1528922Y284038D01*
X1525962Y281078D01*
X1522093Y279475D01*
X1517907Y279475D01*
G37*
%LPD*%
%LPC*%
G36*
X1543307Y279475D02*
X1543307Y279475D01*
X1539438Y281078D01*
X1536478Y284038D01*
X1534875Y287907D01*
X1534875Y292093D01*
X1536478Y295962D01*
X1539438Y298922D01*
X1543307Y300525D01*
X1547493Y300525D01*
X1551362Y298922D01*
X1554322Y295962D01*
X1555925Y292093D01*
X1555925Y287907D01*
X1554322Y284038D01*
X1551362Y281078D01*
X1547493Y279475D01*
X1543307Y279475D01*
G37*
%LPD*%
%LPC*%
G36*
X1517907Y254075D02*
X1517907Y254075D01*
X1514038Y255678D01*
X1511078Y258638D01*
X1509475Y262507D01*
X1509475Y266693D01*
X1511078Y270562D01*
X1514038Y273522D01*
X1517907Y275125D01*
X1522093Y275125D01*
X1525962Y273522D01*
X1528922Y270562D01*
X1530525Y266693D01*
X1530525Y262507D01*
X1528922Y258638D01*
X1525962Y255678D01*
X1522093Y254075D01*
X1517907Y254075D01*
G37*
%LPD*%
%LPC*%
G36*
X1542175Y847325D02*
X1542175Y847325D01*
X1538803Y848722D01*
X1536222Y851303D01*
X1534825Y854675D01*
X1534825Y858325D01*
X1536222Y861697D01*
X1538803Y864278D01*
X1542175Y865675D01*
X1545825Y865675D01*
X1549197Y864278D01*
X1551778Y861697D01*
X1553175Y858325D01*
X1553175Y854675D01*
X1551778Y851303D01*
X1549197Y848722D01*
X1545825Y847325D01*
X1542175Y847325D01*
G37*
%LPD*%
%LPC*%
G36*
X1572175Y847325D02*
X1572175Y847325D01*
X1568803Y848722D01*
X1566222Y851303D01*
X1564825Y854675D01*
X1564825Y858325D01*
X1566222Y861697D01*
X1568803Y864278D01*
X1572175Y865675D01*
X1575825Y865675D01*
X1579197Y864278D01*
X1581778Y861697D01*
X1583175Y858325D01*
X1583175Y854675D01*
X1581778Y851303D01*
X1579197Y848722D01*
X1575825Y847325D01*
X1572175Y847325D01*
G37*
%LPD*%
%LPC*%
G36*
X1602175Y847325D02*
X1602175Y847325D01*
X1598803Y848722D01*
X1596222Y851303D01*
X1594825Y854675D01*
X1594825Y858325D01*
X1596222Y861697D01*
X1598803Y864278D01*
X1602175Y865675D01*
X1605825Y865675D01*
X1609197Y864278D01*
X1611778Y861697D01*
X1613175Y858325D01*
X1613175Y854675D01*
X1611778Y851303D01*
X1609197Y848722D01*
X1605825Y847325D01*
X1602175Y847325D01*
G37*
%LPD*%
%LPC*%
G36*
X1482175Y847325D02*
X1482175Y847325D01*
X1478803Y848722D01*
X1476222Y851303D01*
X1474825Y854675D01*
X1474825Y858325D01*
X1476222Y861697D01*
X1478803Y864278D01*
X1482175Y865675D01*
X1485825Y865675D01*
X1489197Y864278D01*
X1491778Y861697D01*
X1493175Y858325D01*
X1493175Y854675D01*
X1491778Y851303D01*
X1489197Y848722D01*
X1485825Y847325D01*
X1482175Y847325D01*
G37*
%LPD*%
%LPC*%
G36*
X1662175Y847325D02*
X1662175Y847325D01*
X1658803Y848722D01*
X1656222Y851303D01*
X1654825Y854675D01*
X1654825Y858325D01*
X1656222Y861697D01*
X1658803Y864278D01*
X1662175Y865675D01*
X1665825Y865675D01*
X1669197Y864278D01*
X1671778Y861697D01*
X1673175Y858325D01*
X1673175Y854675D01*
X1671778Y851303D01*
X1669197Y848722D01*
X1665825Y847325D01*
X1662175Y847325D01*
G37*
%LPD*%
%LPC*%
G36*
X1662175Y877325D02*
X1662175Y877325D01*
X1658803Y878722D01*
X1656222Y881303D01*
X1654825Y884675D01*
X1654825Y888325D01*
X1656222Y891697D01*
X1658803Y894278D01*
X1662175Y895675D01*
X1665825Y895675D01*
X1669197Y894278D01*
X1671778Y891697D01*
X1673175Y888325D01*
X1673175Y884675D01*
X1671778Y881303D01*
X1669197Y878722D01*
X1665825Y877325D01*
X1662175Y877325D01*
G37*
%LPD*%
%LPC*%
G36*
X1512175Y847325D02*
X1512175Y847325D01*
X1508803Y848722D01*
X1506222Y851303D01*
X1504825Y854675D01*
X1504825Y858325D01*
X1506222Y861697D01*
X1508803Y864278D01*
X1512175Y865675D01*
X1515825Y865675D01*
X1519197Y864278D01*
X1521778Y861697D01*
X1523175Y858325D01*
X1523175Y854675D01*
X1521778Y851303D01*
X1519197Y848722D01*
X1515825Y847325D01*
X1512175Y847325D01*
G37*
%LPD*%
%LPC*%
G36*
X1602175Y877325D02*
X1602175Y877325D01*
X1598803Y878722D01*
X1596222Y881303D01*
X1594825Y884675D01*
X1594825Y888325D01*
X1596222Y891697D01*
X1598803Y894278D01*
X1602175Y895675D01*
X1605825Y895675D01*
X1609197Y894278D01*
X1611778Y891697D01*
X1613175Y888325D01*
X1613175Y884675D01*
X1611778Y881303D01*
X1609197Y878722D01*
X1605825Y877325D01*
X1602175Y877325D01*
G37*
%LPD*%
%LPC*%
G36*
X1632175Y847325D02*
X1632175Y847325D01*
X1628803Y848722D01*
X1626222Y851303D01*
X1624825Y854675D01*
X1624825Y858325D01*
X1626222Y861697D01*
X1628803Y864278D01*
X1632175Y865675D01*
X1635825Y865675D01*
X1639197Y864278D01*
X1641778Y861697D01*
X1643175Y858325D01*
X1643175Y854675D01*
X1641778Y851303D01*
X1639197Y848722D01*
X1635825Y847325D01*
X1632175Y847325D01*
G37*
%LPD*%
%LPC*%
G36*
X1692175Y847325D02*
X1692175Y847325D01*
X1688803Y848722D01*
X1686222Y851303D01*
X1684825Y854675D01*
X1684825Y858325D01*
X1686222Y861697D01*
X1688803Y864278D01*
X1692175Y865675D01*
X1695825Y865675D01*
X1699197Y864278D01*
X1701778Y861697D01*
X1703175Y858325D01*
X1703175Y854675D01*
X1701778Y851303D01*
X1699197Y848722D01*
X1695825Y847325D01*
X1692175Y847325D01*
G37*
%LPD*%
%LPC*%
G36*
X1572175Y877325D02*
X1572175Y877325D01*
X1568803Y878722D01*
X1566222Y881303D01*
X1564825Y884675D01*
X1564825Y888325D01*
X1566222Y891697D01*
X1568803Y894278D01*
X1572175Y895675D01*
X1575825Y895675D01*
X1579197Y894278D01*
X1581778Y891697D01*
X1583175Y888325D01*
X1583175Y884675D01*
X1581778Y881303D01*
X1579197Y878722D01*
X1575825Y877325D01*
X1572175Y877325D01*
G37*
%LPD*%
%LPC*%
G36*
X1512175Y877325D02*
X1512175Y877325D01*
X1508803Y878722D01*
X1506222Y881303D01*
X1504825Y884675D01*
X1504825Y888325D01*
X1506222Y891697D01*
X1508803Y894278D01*
X1512175Y895675D01*
X1515825Y895675D01*
X1519197Y894278D01*
X1521778Y891697D01*
X1523175Y888325D01*
X1523175Y884675D01*
X1521778Y881303D01*
X1519197Y878722D01*
X1515825Y877325D01*
X1512175Y877325D01*
G37*
%LPD*%
%LPC*%
G36*
X1452175Y877325D02*
X1452175Y877325D01*
X1448803Y878722D01*
X1446222Y881303D01*
X1444825Y884675D01*
X1444825Y888325D01*
X1446222Y891697D01*
X1448803Y894278D01*
X1452175Y895675D01*
X1455825Y895675D01*
X1459197Y894278D01*
X1461778Y891697D01*
X1463175Y888325D01*
X1463175Y884675D01*
X1461778Y881303D01*
X1459197Y878722D01*
X1455825Y877325D01*
X1452175Y877325D01*
G37*
%LPD*%
%LPC*%
G36*
X1542175Y877325D02*
X1542175Y877325D01*
X1538803Y878722D01*
X1536222Y881303D01*
X1534825Y884675D01*
X1534825Y888325D01*
X1536222Y891697D01*
X1538803Y894278D01*
X1542175Y895675D01*
X1545825Y895675D01*
X1549197Y894278D01*
X1551778Y891697D01*
X1553175Y888325D01*
X1553175Y884675D01*
X1551778Y881303D01*
X1549197Y878722D01*
X1545825Y877325D01*
X1542175Y877325D01*
G37*
%LPD*%
%LPC*%
G36*
X1482175Y877325D02*
X1482175Y877325D01*
X1478803Y878722D01*
X1476222Y881303D01*
X1474825Y884675D01*
X1474825Y888325D01*
X1476222Y891697D01*
X1478803Y894278D01*
X1482175Y895675D01*
X1485825Y895675D01*
X1489197Y894278D01*
X1491778Y891697D01*
X1493175Y888325D01*
X1493175Y884675D01*
X1491778Y881303D01*
X1489197Y878722D01*
X1485825Y877325D01*
X1482175Y877325D01*
G37*
%LPD*%
%LPC*%
G36*
X1632175Y877325D02*
X1632175Y877325D01*
X1628803Y878722D01*
X1626222Y881303D01*
X1624825Y884675D01*
X1624825Y888325D01*
X1626222Y891697D01*
X1628803Y894278D01*
X1632175Y895675D01*
X1635825Y895675D01*
X1639197Y894278D01*
X1641778Y891697D01*
X1643175Y888325D01*
X1643175Y884675D01*
X1641778Y881303D01*
X1639197Y878722D01*
X1635825Y877325D01*
X1632175Y877325D01*
G37*
%LPD*%
%LPC*%
G36*
X1639761Y619961D02*
X1639761Y619961D01*
X1639761Y635647D01*
X1640078Y635647D01*
X1642216Y635366D01*
X1644298Y634808D01*
X1646290Y633983D01*
X1648157Y632905D01*
X1649868Y631592D01*
X1651392Y630068D01*
X1652705Y628357D01*
X1653783Y626490D01*
X1654608Y624498D01*
X1655166Y622416D01*
X1655447Y620278D01*
X1655447Y619961D01*
X1639761Y619961D01*
G37*
%LPD*%
%LPC*%
G36*
X1622553Y619961D02*
X1622553Y619961D01*
X1622553Y620278D01*
X1622834Y622416D01*
X1623392Y624498D01*
X1624217Y626490D01*
X1625295Y628357D01*
X1626538Y629977D01*
X1626608Y630068D01*
X1628132Y631592D01*
X1629843Y632905D01*
X1631710Y633983D01*
X1633702Y634808D01*
X1635784Y635366D01*
X1637922Y635647D01*
X1638239Y635647D01*
X1638239Y619961D01*
X1622553Y619961D01*
G37*
%LPD*%
%LPC*%
G36*
X1639761Y602753D02*
X1639761Y602753D01*
X1639761Y618439D01*
X1655447Y618439D01*
X1655447Y618122D01*
X1655166Y615984D01*
X1654608Y613902D01*
X1653783Y611910D01*
X1652705Y610043D01*
X1652599Y609905D01*
X1652307Y609525D01*
X1652307Y609524D01*
X1651392Y608332D01*
X1649868Y606808D01*
X1648157Y605495D01*
X1646290Y604417D01*
X1644298Y603592D01*
X1642216Y603034D01*
X1640078Y602753D01*
X1639761Y602753D01*
G37*
%LPD*%
%LPC*%
G36*
X1637922Y602753D02*
X1637922Y602753D01*
X1635784Y603034D01*
X1633702Y603592D01*
X1631710Y604417D01*
X1629843Y605495D01*
X1628132Y606808D01*
X1626608Y608332D01*
X1625295Y610043D01*
X1624217Y611910D01*
X1623392Y613902D01*
X1622834Y615984D01*
X1622553Y618122D01*
X1622553Y618439D01*
X1638239Y618439D01*
X1638239Y602753D01*
X1637922Y602753D01*
G37*
%LPD*%
%LPC*%
G36*
X1690761Y705761D02*
X1690761Y705761D01*
X1690761Y721341D01*
X1691071Y721341D01*
X1693195Y721061D01*
X1695264Y720507D01*
X1697243Y719687D01*
X1699098Y718616D01*
X1700797Y717312D01*
X1702312Y715797D01*
X1703616Y714098D01*
X1704687Y712243D01*
X1705507Y710264D01*
X1705792Y709199D01*
X1706061Y708195D01*
X1706341Y706071D01*
X1706341Y705761D01*
X1690761Y705761D01*
G37*
%LPD*%
%LPC*%
G36*
X1690761Y688659D02*
X1690761Y688659D01*
X1690761Y704239D01*
X1706341Y704239D01*
X1706341Y703929D01*
X1706061Y701805D01*
X1705507Y699736D01*
X1704687Y697757D01*
X1703616Y695902D01*
X1702694Y694701D01*
X1702694Y694700D01*
X1702312Y694203D01*
X1700797Y692688D01*
X1699098Y691384D01*
X1697243Y690313D01*
X1695264Y689493D01*
X1693195Y688939D01*
X1691071Y688659D01*
X1690761Y688659D01*
G37*
%LPD*%
%LPC*%
G36*
X1673659Y705761D02*
X1673659Y705761D01*
X1673659Y706071D01*
X1673939Y708195D01*
X1674493Y710264D01*
X1675313Y712243D01*
X1676384Y714098D01*
X1677485Y715533D01*
X1677486Y715533D01*
X1677688Y715797D01*
X1679203Y717312D01*
X1680902Y718616D01*
X1682757Y719687D01*
X1684736Y720507D01*
X1686805Y721061D01*
X1688929Y721341D01*
X1689239Y721341D01*
X1689239Y705761D01*
X1673659Y705761D01*
G37*
%LPD*%
%LPC*%
G36*
X1688929Y688659D02*
X1688929Y688659D01*
X1686805Y688939D01*
X1684736Y689493D01*
X1682757Y690313D01*
X1680902Y691384D01*
X1679203Y692688D01*
X1677688Y694203D01*
X1676384Y695902D01*
X1675313Y697757D01*
X1674493Y699736D01*
X1673941Y701795D01*
X1673939Y701805D01*
X1673659Y703929D01*
X1673659Y704239D01*
X1689239Y704239D01*
X1689239Y688659D01*
X1688929Y688659D01*
G37*
%LPD*%
%LPC*%
G36*
X1390802Y576149D02*
X1390802Y576149D01*
X1387693Y579258D01*
X1387693Y583654D01*
X1389770Y585731D01*
X1389797Y585774D01*
X1389832Y585812D01*
X1389842Y585847D01*
X1389862Y585878D01*
X1389867Y585929D01*
X1389881Y585978D01*
X1389875Y586014D01*
X1389878Y586051D01*
X1389860Y586099D01*
X1389851Y586149D01*
X1389827Y586184D01*
X1389817Y586213D01*
X1389794Y586234D01*
X1389770Y586269D01*
X1387693Y588346D01*
X1387693Y592742D01*
X1390802Y595851D01*
X1395198Y595851D01*
X1398307Y592742D01*
X1398307Y588346D01*
X1396230Y586269D01*
X1396203Y586226D01*
X1396168Y586188D01*
X1396158Y586153D01*
X1396138Y586122D01*
X1396133Y586071D01*
X1396119Y586022D01*
X1396125Y585986D01*
X1396122Y585949D01*
X1396140Y585902D01*
X1396149Y585851D01*
X1396173Y585816D01*
X1396183Y585787D01*
X1396206Y585766D01*
X1396230Y585731D01*
X1398307Y583654D01*
X1398307Y579258D01*
X1395198Y576149D01*
X1390802Y576149D01*
G37*
%LPD*%
%LPC*%
G36*
X1700761Y483261D02*
X1700761Y483261D01*
X1700761Y492541D01*
X1707835Y492541D01*
X1708481Y492368D01*
X1709060Y492033D01*
X1709533Y491560D01*
X1709868Y490981D01*
X1710041Y490335D01*
X1710041Y483261D01*
X1700761Y483261D01*
G37*
%LPD*%
%LPC*%
G36*
X1700761Y472459D02*
X1700761Y472459D01*
X1700761Y481739D01*
X1710041Y481739D01*
X1710041Y474665D01*
X1709868Y474019D01*
X1709533Y473440D01*
X1709060Y472967D01*
X1708481Y472632D01*
X1707835Y472459D01*
X1700761Y472459D01*
G37*
%LPD*%
%LPC*%
G36*
X1689959Y483261D02*
X1689959Y483261D01*
X1689959Y490335D01*
X1690132Y490981D01*
X1690467Y491560D01*
X1690940Y492033D01*
X1691519Y492368D01*
X1692165Y492541D01*
X1699239Y492541D01*
X1699239Y483261D01*
X1689959Y483261D01*
G37*
%LPD*%
%LPC*%
G36*
X1692165Y472459D02*
X1692165Y472459D01*
X1691519Y472632D01*
X1690940Y472967D01*
X1690467Y473440D01*
X1690132Y474019D01*
X1689959Y474665D01*
X1689959Y481739D01*
X1699239Y481739D01*
X1699239Y472459D01*
X1692165Y472459D01*
G37*
%LPD*%
%LPC*%
G36*
X1454761Y857261D02*
X1454761Y857261D01*
X1454761Y866691D01*
X1454802Y866691D01*
X1456386Y866440D01*
X1457912Y865944D01*
X1459341Y865216D01*
X1460639Y864273D01*
X1461773Y863139D01*
X1462716Y861841D01*
X1463444Y860412D01*
X1463940Y858886D01*
X1464191Y857302D01*
X1464191Y857261D01*
X1454761Y857261D01*
G37*
%LPD*%
%LPC*%
G36*
X1443809Y857261D02*
X1443809Y857261D01*
X1443809Y857302D01*
X1444060Y858886D01*
X1444556Y860412D01*
X1445284Y861841D01*
X1446227Y863139D01*
X1447361Y864273D01*
X1448659Y865216D01*
X1450088Y865944D01*
X1451614Y866440D01*
X1453198Y866691D01*
X1453239Y866691D01*
X1453239Y857261D01*
X1443809Y857261D01*
G37*
%LPD*%
%LPC*%
G36*
X1454761Y846309D02*
X1454761Y846309D01*
X1454761Y855739D01*
X1464191Y855739D01*
X1464191Y855698D01*
X1463940Y854114D01*
X1463444Y852588D01*
X1462716Y851159D01*
X1461773Y849861D01*
X1460639Y848727D01*
X1459341Y847784D01*
X1457912Y847056D01*
X1456386Y846560D01*
X1454802Y846309D01*
X1454761Y846309D01*
G37*
%LPD*%
%LPC*%
G36*
X1453198Y846309D02*
X1453198Y846309D01*
X1451614Y846560D01*
X1450088Y847056D01*
X1448659Y847784D01*
X1447361Y848727D01*
X1446227Y849861D01*
X1445284Y851159D01*
X1444556Y852588D01*
X1444060Y854114D01*
X1443809Y855698D01*
X1443809Y855739D01*
X1453239Y855739D01*
X1453239Y846309D01*
X1453198Y846309D01*
G37*
%LPD*%
%LPC*%
G36*
X1453999Y856499D02*
X1453999Y856499D01*
X1453999Y856501D01*
X1454001Y856501D01*
X1454001Y856499D01*
X1453999Y856499D01*
G37*
%LPD*%
%LPC*%
G36*
X1689999Y704999D02*
X1689999Y704999D01*
X1689999Y705001D01*
X1690001Y705001D01*
X1690001Y704999D01*
X1689999Y704999D01*
G37*
%LPD*%
%LPC*%
G36*
X1638999Y619199D02*
X1638999Y619199D01*
X1638999Y619201D01*
X1639001Y619201D01*
X1639001Y619199D01*
X1638999Y619199D01*
G37*
%LPD*%
%LPC*%
G36*
X1699999Y482499D02*
X1699999Y482499D01*
X1699999Y482501D01*
X1700001Y482501D01*
X1700001Y482499D01*
X1699999Y482499D01*
G37*
%LPD*%
D10*
X330000Y880000D03*
X253800Y880000D03*
X910000Y880000D03*
X833800Y880000D03*
X140000Y880000D03*
X63800Y880000D03*
X1100000Y880000D03*
X1023800Y880000D03*
X520000Y880000D03*
X443800Y880000D03*
X1290000Y880000D03*
X1213800Y880000D03*
X1639000Y543000D03*
X1639000Y619200D03*
X715000Y880000D03*
X638800Y880000D03*
D11*
X1454000Y886500D03*
X1454000Y856500D03*
X1484000Y886500D03*
X1484000Y856500D03*
X1514000Y886500D03*
X1514000Y856500D03*
X1544000Y886500D03*
X1544000Y856500D03*
X1574000Y886500D03*
X1574000Y856500D03*
X1604000Y886500D03*
X1604000Y856500D03*
X1634000Y886500D03*
X1634000Y856500D03*
X1664000Y886500D03*
X1664000Y856500D03*
X1694000Y886500D03*
X1694000Y856500D03*
D12*
X589220Y810000D03*
X560780Y810000D03*
X589220Y780000D03*
X560780Y780000D03*
D13*
X561000Y745000D03*
X589000Y745000D03*
X561000Y715000D03*
X589000Y715000D03*
D14*
X1645000Y346505D03*
X1645000Y393495D03*
D15*
X1700000Y394780D03*
X1700000Y423220D03*
D16*
X1700000Y482500D03*
X1700000Y447500D03*
D17*
X40000Y800000D03*
X230000Y800000D03*
X820000Y800000D03*
X420000Y800000D03*
X625000Y801250D03*
X1690000Y705000D03*
X677500Y801250D03*
X730000Y801250D03*
D18*
X525000Y660000D03*
X525000Y50000D03*
X50000Y50000D03*
D19*
X47000Y653000D03*
X47000Y627600D03*
X47000Y602200D03*
X47000Y576800D03*
X47000Y551400D03*
X47000Y526000D03*
X72400Y653000D03*
X72400Y627600D03*
X72400Y602200D03*
X72400Y576800D03*
X72400Y551400D03*
X72400Y526000D03*
X510000Y290000D03*
X510000Y264600D03*
X510000Y239200D03*
X510000Y213800D03*
X510000Y188400D03*
X510000Y163000D03*
X535400Y290000D03*
X535400Y264600D03*
X535400Y239200D03*
X535400Y213800D03*
X535400Y188400D03*
X535400Y163000D03*
D18*
X1535000Y660000D03*
X1535000Y50000D03*
X1060000Y50000D03*
D19*
X1057000Y653000D03*
X1057000Y627600D03*
X1057000Y602200D03*
X1057000Y576800D03*
X1057000Y551400D03*
X1057000Y526000D03*
X1082400Y653000D03*
X1082400Y627600D03*
X1082400Y602200D03*
X1082400Y576800D03*
X1082400Y551400D03*
X1082400Y526000D03*
X1520000Y290000D03*
X1520000Y264600D03*
X1520000Y239200D03*
X1520000Y213800D03*
X1520000Y188400D03*
X1520000Y163000D03*
X1545400Y290000D03*
X1545400Y264600D03*
X1545400Y239200D03*
X1545400Y213800D03*
X1545400Y188400D03*
X1545400Y163000D03*
X910000Y242000D03*
X935400Y242000D03*
X910000Y267400D03*
X935400Y267400D03*
X910000Y292800D03*
X935400Y292800D03*
X910000Y318200D03*
X935400Y318200D03*
X910000Y343600D03*
X935400Y343600D03*
X910000Y369000D03*
X935400Y369000D03*
X680000Y389000D03*
X654600Y389000D03*
X680000Y363600D03*
X654600Y363600D03*
X680000Y338200D03*
X654600Y338200D03*
X680000Y312800D03*
X654600Y312800D03*
X680000Y287400D03*
X654600Y287400D03*
X680000Y262000D03*
X654600Y262000D03*
D18*
X920000Y450000D03*
X670000Y200000D03*
X620000Y50000D03*
X960000Y740000D03*
D19*
X690000Y30000D03*
X690000Y55400D03*
X715400Y30000D03*
X715400Y55400D03*
X740800Y30000D03*
X740800Y55400D03*
X766200Y30000D03*
X766200Y55400D03*
X791600Y30000D03*
X791600Y55400D03*
X817000Y30000D03*
X817000Y55400D03*
X690000Y730000D03*
X690000Y755400D03*
X715400Y730000D03*
X715400Y755400D03*
X740800Y730000D03*
X740800Y755400D03*
X766200Y730000D03*
X766200Y755400D03*
X791600Y730000D03*
X791600Y755400D03*
X817000Y730000D03*
X817000Y755400D03*
D20*
X1458000Y80000D03*
X1402000Y80000D03*
X1458000Y120000D03*
X1402000Y120000D03*
X1458000Y160000D03*
X1402000Y160000D03*
X1458000Y200000D03*
X1402000Y200000D03*
X468000Y70000D03*
X412000Y70000D03*
X468000Y110000D03*
X412000Y110000D03*
X468000Y150000D03*
X412000Y150000D03*
X468000Y190000D03*
X412000Y190000D03*
D21*
X474400Y264600D02*
X510000Y264600D01*
X474400Y264600D02*
X474000Y265000D01*
X510000Y264600D02*
X592400Y264600D01*
X596000Y261000D01*
X627200Y312800D02*
X680000Y312800D01*
X627200Y312800D02*
X627000Y313000D01*
X638200Y312800D02*
X654600Y312800D01*
X638200Y312800D02*
X615000Y336000D01*
D22*
X1640000Y341505D02*
X1645000Y346505D01*
D23*
X1640000Y140000D03*
X1640000Y130000D03*
X1640000Y120000D03*
X1640000Y110000D03*
D22*
X1640000Y140000D02*
X1640000Y341505D01*
X1640000Y140000D02*
X1640000Y110000D01*
D24*
X1645000Y346505D02*
X1696505Y346505D01*
X1700000Y350000D01*
X1700000Y394780D01*
D22*
X1694000Y886500D02*
X1717276Y886500D01*
X1724776Y879000D01*
X1724776Y348776D01*
X1722505Y346505D02*
X1645000Y346505D01*
X1722505Y346505D02*
X1724776Y348776D01*
D21*
X109400Y627600D02*
X47000Y627600D01*
X109400Y627600D02*
X112000Y625000D01*
X72400Y627600D02*
X25400Y627600D01*
X25000Y628000D01*
X1034000Y627600D02*
X1057000Y627600D01*
X1034000Y627600D02*
X1003400Y627600D01*
X1003000Y628000D01*
X1057000Y627600D02*
X1134400Y627600D01*
X1135000Y627000D01*
D23*
X970000Y220000D03*
X310000Y200000D03*
X310000Y180000D03*
X330000Y180000D03*
X330000Y200000D03*
X350000Y200000D03*
X350000Y180000D03*
X370000Y180000D03*
X370000Y200000D03*
X390000Y200000D03*
X390000Y180000D03*
X390000Y160000D03*
X370000Y160000D03*
X350000Y160000D03*
X330000Y160000D03*
X310000Y160000D03*
X310000Y140000D03*
X330000Y140000D03*
X350000Y140000D03*
X370000Y140000D03*
X390000Y140000D03*
X310000Y120000D03*
X330000Y120000D03*
X350000Y120000D03*
X370000Y120000D03*
X390000Y120000D03*
X310000Y100000D03*
X330000Y100000D03*
X350000Y100000D03*
X370000Y100000D03*
X390000Y100000D03*
X390000Y80000D03*
X370000Y80000D03*
X350000Y80000D03*
X330000Y80000D03*
X310000Y80000D03*
X310000Y60000D03*
X330000Y60000D03*
X350000Y60000D03*
X370000Y60000D03*
X390000Y60000D03*
X390000Y40000D03*
X370000Y40000D03*
X350000Y40000D03*
X330000Y40000D03*
X310000Y40000D03*
D21*
X766200Y692200D02*
X766200Y755400D01*
X766200Y692200D02*
X766000Y692000D01*
X766200Y755400D02*
X766000Y755600D01*
X766000Y803000D01*
D23*
X120000Y520000D03*
X140000Y520000D03*
X160000Y520000D03*
X180000Y520000D03*
X180000Y550000D03*
X160000Y550000D03*
X140000Y550000D03*
X120000Y550000D03*
X120000Y470000D03*
X140000Y470000D03*
X160000Y470000D03*
X180000Y470000D03*
X100000Y470000D03*
X80000Y470000D03*
X60000Y470000D03*
X40000Y470000D03*
X20000Y470000D03*
X120000Y580000D03*
X140000Y580000D03*
X160000Y580000D03*
X180000Y580000D03*
D24*
X1700000Y500000D02*
X1700000Y482500D01*
D23*
X1700000Y500000D03*
X779000Y592000D03*
X779000Y557000D03*
D22*
X1645000Y537000D02*
X1645000Y393495D01*
X1645000Y537000D02*
X1639000Y543000D01*
D24*
X1700000Y447500D02*
X1700000Y423220D01*
D23*
X1177000Y819000D03*
X1177000Y686088D03*
X1166000Y826000D03*
X1177000Y677000D03*
X1180000Y590544D03*
X1393000Y590544D03*
X1180000Y581456D03*
X1393000Y581456D03*
M02*
