G04 EAGLE Gerber RS-274X export*
G75*
%MOMM*%
%FSLAX34Y34*%
%LPD*%
%INSoldermask Bottom*%
%IPPOS*%
%AMOC8*
5,1,8,0,0,1.08239X$1,22.5*%
G01*
%ADD10C,2.984500*%
%ADD11C,1.733200*%
%ADD12C,3.203200*%
%ADD13C,2.963200*%
%ADD14C,7.603200*%
%ADD15C,2.003200*%
%ADD16C,0.959600*%


D10*
X330000Y880000D03*
X253800Y880000D03*
X910000Y880000D03*
X833800Y880000D03*
X140000Y880000D03*
X63800Y880000D03*
X1100000Y880000D03*
X1023800Y880000D03*
X520000Y880000D03*
X443800Y880000D03*
X1290000Y880000D03*
X1213800Y880000D03*
X1639000Y543000D03*
X1639000Y619200D03*
X715000Y880000D03*
X638800Y880000D03*
D11*
X1454000Y886500D03*
X1454000Y856500D03*
X1484000Y886500D03*
X1484000Y856500D03*
X1514000Y886500D03*
X1514000Y856500D03*
X1544000Y886500D03*
X1544000Y856500D03*
X1574000Y886500D03*
X1574000Y856500D03*
X1604000Y886500D03*
X1604000Y856500D03*
X1634000Y886500D03*
X1634000Y856500D03*
X1664000Y886500D03*
X1664000Y856500D03*
X1694000Y886500D03*
X1694000Y856500D03*
D12*
X1475600Y929500D03*
X1672400Y929500D03*
D13*
X40000Y800000D03*
X230000Y800000D03*
X820000Y800000D03*
X420000Y800000D03*
X625000Y801250D03*
X1690000Y705000D03*
X677500Y801250D03*
X730000Y801250D03*
D14*
X525000Y660000D03*
X525000Y50000D03*
X50000Y50000D03*
D15*
X47000Y653000D03*
X47000Y627600D03*
X47000Y602200D03*
X47000Y576800D03*
X47000Y551400D03*
X47000Y526000D03*
X72400Y653000D03*
X72400Y627600D03*
X72400Y602200D03*
X72400Y576800D03*
X72400Y551400D03*
X72400Y526000D03*
X510000Y290000D03*
X510000Y264600D03*
X510000Y239200D03*
X510000Y213800D03*
X510000Y188400D03*
X510000Y163000D03*
X535400Y290000D03*
X535400Y264600D03*
X535400Y239200D03*
X535400Y213800D03*
X535400Y188400D03*
X535400Y163000D03*
D14*
X1535000Y660000D03*
X1535000Y50000D03*
X1060000Y50000D03*
D15*
X1057000Y653000D03*
X1057000Y627600D03*
X1057000Y602200D03*
X1057000Y576800D03*
X1057000Y551400D03*
X1057000Y526000D03*
X1082400Y653000D03*
X1082400Y627600D03*
X1082400Y602200D03*
X1082400Y576800D03*
X1082400Y551400D03*
X1082400Y526000D03*
X1520000Y290000D03*
X1520000Y264600D03*
X1520000Y239200D03*
X1520000Y213800D03*
X1520000Y188400D03*
X1520000Y163000D03*
X1545400Y290000D03*
X1545400Y264600D03*
X1545400Y239200D03*
X1545400Y213800D03*
X1545400Y188400D03*
X1545400Y163000D03*
X910000Y242000D03*
X935400Y242000D03*
X910000Y267400D03*
X935400Y267400D03*
X910000Y292800D03*
X935400Y292800D03*
X910000Y318200D03*
X935400Y318200D03*
X910000Y343600D03*
X935400Y343600D03*
X910000Y369000D03*
X935400Y369000D03*
X680000Y389000D03*
X654600Y389000D03*
X680000Y363600D03*
X654600Y363600D03*
X680000Y338200D03*
X654600Y338200D03*
X680000Y312800D03*
X654600Y312800D03*
X680000Y287400D03*
X654600Y287400D03*
X680000Y262000D03*
X654600Y262000D03*
D14*
X920000Y450000D03*
X670000Y200000D03*
X620000Y50000D03*
X960000Y740000D03*
D15*
X690000Y30000D03*
X690000Y55400D03*
X715400Y30000D03*
X715400Y55400D03*
X740800Y30000D03*
X740800Y55400D03*
X766200Y30000D03*
X766200Y55400D03*
X791600Y30000D03*
X791600Y55400D03*
X817000Y30000D03*
X817000Y55400D03*
X690000Y730000D03*
X690000Y755400D03*
X715400Y730000D03*
X715400Y755400D03*
X740800Y730000D03*
X740800Y755400D03*
X766200Y730000D03*
X766200Y755400D03*
X791600Y730000D03*
X791600Y755400D03*
X817000Y730000D03*
X817000Y755400D03*
D16*
X1640000Y140000D03*
X1640000Y130000D03*
X1640000Y120000D03*
X1640000Y110000D03*
X970000Y220000D03*
X310000Y200000D03*
X310000Y180000D03*
X330000Y180000D03*
X330000Y200000D03*
X350000Y200000D03*
X350000Y180000D03*
X370000Y180000D03*
X370000Y200000D03*
X390000Y200000D03*
X390000Y180000D03*
X390000Y160000D03*
X370000Y160000D03*
X350000Y160000D03*
X330000Y160000D03*
X310000Y160000D03*
X310000Y140000D03*
X330000Y140000D03*
X350000Y140000D03*
X370000Y140000D03*
X390000Y140000D03*
X310000Y120000D03*
X330000Y120000D03*
X350000Y120000D03*
X370000Y120000D03*
X390000Y120000D03*
X310000Y100000D03*
X330000Y100000D03*
X350000Y100000D03*
X370000Y100000D03*
X390000Y100000D03*
X390000Y80000D03*
X370000Y80000D03*
X350000Y80000D03*
X330000Y80000D03*
X310000Y80000D03*
X310000Y60000D03*
X330000Y60000D03*
X350000Y60000D03*
X370000Y60000D03*
X390000Y60000D03*
X390000Y40000D03*
X370000Y40000D03*
X350000Y40000D03*
X330000Y40000D03*
X310000Y40000D03*
X120000Y520000D03*
X140000Y520000D03*
X160000Y520000D03*
X180000Y520000D03*
X180000Y550000D03*
X160000Y550000D03*
X140000Y550000D03*
X120000Y550000D03*
X120000Y470000D03*
X140000Y470000D03*
X160000Y470000D03*
X180000Y470000D03*
X100000Y470000D03*
X80000Y470000D03*
X60000Y470000D03*
X40000Y470000D03*
X20000Y470000D03*
X120000Y580000D03*
X140000Y580000D03*
X160000Y580000D03*
X180000Y580000D03*
X1700000Y500000D03*
X779000Y592000D03*
X779000Y557000D03*
X1177000Y819000D03*
X1177000Y686088D03*
X1166000Y826000D03*
X1177000Y677000D03*
X1180000Y590544D03*
X1393000Y590544D03*
X1180000Y581456D03*
X1393000Y581456D03*
M02*
