M48
;GenerationSoftware,Autodesk,EAGLE,9.6.2*%
;CreationDate,2022-02-02T22:44:32Z*%
FMAT,2
ICI,OFF
METRIC,TZ,000.000
T7C0.250
T6C0.350
T5C0.813
T4C1.000
T3C1.016
T2C1.840
T1C3.700
%
G90
M71
T1
X38000Y73000
X4000Y4000
T2
X39000Y2000
X30000Y17000
X29950Y48700
X40000Y63000
X28000Y75000
X33000Y75000
X12900Y10900
X30000Y27000
X2800Y56500
X39500Y48400
X40000Y68000
X30000Y11000
X34000Y2000
X28000Y2000
T3
X18620Y74540
X18620Y72000
X16080Y74540
X16080Y72000
X13540Y74540
X13540Y72000
X11000Y74540
X23700Y4540
X21160Y72000
X21160Y74540
X23700Y72000
X23700Y74540
X11000Y2000
X11000Y4540
X13540Y2000
X13540Y4540
X16080Y2000
X16080Y4540
X18620Y2000
X18620Y4540
X21160Y2000
X21160Y4540
X23700Y2000
X11000Y72000
T4
X37240Y7700
X32160Y7700
X34700Y7700
T5
X38400Y20504
X38400Y17989
X38400Y15500
T6
X19000Y61000
X21000Y61000
X21000Y60000
X23000Y60000
X23000Y61000
X25000Y60000
X25000Y61000
X29150Y61050
X32500Y57200
X27100Y65900
X33700Y48800
X31400Y31500
X31500Y60300
X15900Y16000
X26500Y73000
X35350Y61500
X39100Y57500
X18700Y18900
X19500Y18900
X20300Y18900
X33700Y41200
X33700Y40300
X33700Y39500
X29063Y44800
X28063Y44800
X35200Y56000
X26100Y62600
X26600Y16900
X25900Y18500
X26500Y14500
X27300Y14500
X28100Y14500
X32500Y52800
X34500Y56800
X28800Y51600
X32700Y67800
X23800Y67900
X27000Y5000
X30000Y30000
X35000Y30000
X38300Y60200
X28100Y62700
X29675Y59375
X28500Y53466
X34700Y65000
X34100Y51300
X13900Y19100
X1600Y19700
X12300Y25250
X39200Y24800
X39200Y33700
X20000Y12100
X29000Y41400
X34919Y46381
X37300Y13500
X28400Y50600
X27600Y51400
X5000Y60000
X5000Y61000
X7000Y61000
X7000Y60000
X9000Y60000
X9000Y61000
X11000Y60000
X11000Y61000
X13000Y61000
X13000Y60000
X15000Y60000
X15000Y61000
X17000Y61000
X17000Y60000
X19000Y60000
X39200Y31100
X36100Y65200
X37900Y38500
X34700Y38500
X37131Y62000
X7000Y75530
X27100Y20600
X10200Y18400
X26000Y17500
X18000Y25500
X19000Y25500
X11000Y57000
X11000Y56000
X23600Y23000
X3500Y23500
X3500Y22500
X24000Y56000
X24000Y57000
X2500Y26700
X15600Y26700
T7
X10000Y37000
X8000Y37000
X6000Y37000
X4000Y37000
X2000Y37000
X2000Y35000
X2000Y33000
X2000Y31000
X4000Y31000
X6000Y31000
X8000Y31000
X10000Y31000
X12000Y31000
X14000Y31000
X16000Y31000
X18000Y31000
X20000Y31000
X20000Y33000
X20000Y35000
X18000Y35000
X18000Y33000
X16000Y33000
X16000Y35000
X14000Y35000
X14000Y33000
X12000Y33000
X12000Y35000
X10000Y35000
X10000Y33000
X8000Y33000
X8000Y35000
X6000Y35000
X6000Y33000
X4000Y33000
X4000Y35000
X22000Y49000
X24000Y49000
X24000Y47000
X22000Y47000
X22000Y45000
X24000Y45000
X24000Y43000
X22000Y43000
X22000Y41000
X22000Y39000
X22000Y37000
X22000Y35000
X22000Y33000
X22000Y31000
X12000Y37000
X14000Y37000
X16000Y37000
X18000Y37000
X20000Y37000
X2000Y49000
X2000Y47000
X2000Y45000
X2000Y43000
X2000Y41000
X2000Y39000
X6000Y39000
X8000Y39000
X10000Y39000
X12000Y39000
X14000Y39000
X16000Y39000
X18000Y39000
X20000Y39000
X20000Y41000
X18000Y41000
X16000Y41000
X14000Y41000
X12000Y41000
X10000Y41000
X8000Y41000
X6000Y41000
X4000Y41000
X4000Y43000
X6000Y43000
X8000Y43000
X10000Y43000
X12000Y43000
X14000Y43000
X16000Y43000
X18000Y43000
X20000Y43000
X20000Y45000
X18000Y45000
X18000Y47000
X20000Y47000
X20000Y49000
X18000Y49000
X16000Y49000
X16000Y47000
X16000Y45000
X14000Y45000
X14000Y47000
X14000Y49000
X12000Y49000
X12000Y47000
X12000Y45000
X10000Y45000
X10000Y47000
X10000Y49000
X8000Y49000
X8000Y47000
X8000Y45000
X6000Y45000
X4000Y45000
X4000Y47000
X6000Y47000
X6000Y49000
X4000Y49000
X4000Y39000
M30