G04 EAGLE Gerber RS-274X export*
G75*
%MOMM*%
%FSLAX34Y34*%
%LPD*%
%INSoldermask Top*%
%IPPOS*%
%AMOC8*
5,1,8,0,0,1.08239X$1,22.5*%
G01*
%ADD10R,1.803200X2.003200*%
%ADD11R,3.603200X2.103200*%
%ADD12R,1.723200X0.803200*%
%ADD13R,2.743200X2.743200*%
%ADD14R,1.317800X1.564400*%
%ADD15R,4.013200X2.286000*%
%ADD16R,9.093200X11.633200*%
%ADD17R,2.006200X1.803200*%
%ADD18R,1.803200X2.006200*%
%ADD19R,2.053200X5.703200*%
%ADD20R,1.564400X1.317800*%
%ADD21R,2.743200X2.743200*%
%ADD22R,1.703200X1.703200*%
%ADD23C,2.963200*%
%ADD24C,2.082800*%
%ADD25R,1.503200X1.703200*%
%ADD26C,3.903200*%
%ADD27C,6.203200*%
%ADD28C,0.859600*%
%ADD29C,0.959600*%
%ADD30C,1.409600*%
%ADD31C,1.359600*%


D10*
X393000Y182000D03*
X421000Y182000D03*
X393000Y159000D03*
X421000Y159000D03*
D11*
X330000Y88500D03*
X330000Y127500D03*
D12*
X379400Y108650D03*
X379400Y121350D03*
X379400Y134050D03*
X379400Y95950D03*
X434600Y108650D03*
X434600Y121350D03*
X434600Y134050D03*
X434600Y95950D03*
D13*
X318505Y157000D03*
X365495Y157000D03*
D14*
G36*
X536127Y87188D02*
X545446Y96507D01*
X556507Y85446D01*
X547188Y76127D01*
X536127Y87188D01*
G37*
G36*
X513493Y64554D02*
X522812Y73873D01*
X533873Y62812D01*
X524554Y53493D01*
X513493Y64554D01*
G37*
G36*
X556127Y67188D02*
X565446Y76507D01*
X576507Y65446D01*
X567188Y56127D01*
X556127Y67188D01*
G37*
G36*
X533493Y44554D02*
X542812Y53873D01*
X553873Y42812D01*
X544554Y33493D01*
X533493Y44554D01*
G37*
D15*
X520400Y242900D03*
X520400Y293700D03*
D16*
X406100Y268300D03*
D17*
X553000Y216840D03*
X553000Y245280D03*
D18*
X500780Y216380D03*
X529220Y216380D03*
D15*
X520400Y382900D03*
X520400Y433700D03*
D16*
X406100Y408300D03*
D17*
X553000Y355840D03*
X553000Y384280D03*
D18*
X500780Y355380D03*
X529220Y355380D03*
D14*
X260996Y165000D03*
X293004Y165000D03*
X260996Y140000D03*
X293004Y140000D03*
D15*
X280400Y242900D03*
X280400Y293700D03*
D16*
X166100Y268300D03*
D17*
X315680Y213840D03*
X315680Y242280D03*
D18*
X264780Y213380D03*
X293220Y213380D03*
D15*
X280400Y382900D03*
X280400Y433700D03*
D16*
X166100Y408300D03*
D17*
X317680Y354840D03*
X317680Y383280D03*
D18*
X265920Y354380D03*
X294360Y354380D03*
D19*
X87000Y369000D03*
X36000Y369000D03*
X87000Y433000D03*
X36000Y433000D03*
X87000Y305000D03*
X36000Y305000D03*
X87000Y241000D03*
X36000Y241000D03*
D20*
X215000Y101004D03*
X215000Y68996D03*
X190000Y124504D03*
X190000Y92496D03*
X190000Y174504D03*
X190000Y142496D03*
D13*
X221000Y130505D03*
X221000Y177495D03*
D14*
G36*
X616127Y147188D02*
X625446Y156507D01*
X636507Y145446D01*
X627188Y136127D01*
X616127Y147188D01*
G37*
G36*
X593493Y124554D02*
X602812Y133873D01*
X613873Y122812D01*
X604554Y113493D01*
X593493Y124554D01*
G37*
G36*
X591127Y167188D02*
X600446Y176507D01*
X611507Y165446D01*
X602188Y156127D01*
X591127Y167188D01*
G37*
G36*
X568493Y144554D02*
X577812Y153873D01*
X588873Y142812D01*
X579554Y133493D01*
X568493Y144554D01*
G37*
G36*
X651127Y182188D02*
X660446Y191507D01*
X671507Y180446D01*
X662188Y171127D01*
X651127Y182188D01*
G37*
G36*
X628493Y159554D02*
X637812Y168873D01*
X648873Y157812D01*
X639554Y148493D01*
X628493Y159554D01*
G37*
D21*
G36*
X637216Y221613D02*
X656613Y241010D01*
X676010Y221613D01*
X656613Y202216D01*
X637216Y221613D01*
G37*
G36*
X642784Y188387D02*
X623387Y168990D01*
X603990Y188387D01*
X623387Y207784D01*
X642784Y188387D01*
G37*
D13*
X413495Y50000D03*
X366505Y50000D03*
D17*
X24000Y117780D03*
X24000Y146220D03*
D18*
X473780Y71000D03*
X502220Y71000D03*
D22*
X24000Y201500D03*
X24000Y166500D03*
X505500Y50000D03*
X470500Y50000D03*
D23*
X320000Y315000D03*
X530000Y325000D03*
X556000Y458000D03*
X652000Y121000D03*
D24*
X47000Y37000D03*
X47000Y62400D03*
X72400Y37000D03*
X72400Y62400D03*
X97800Y37000D03*
X97800Y62400D03*
X123200Y37000D03*
X123200Y62400D03*
X148600Y37000D03*
X148600Y62400D03*
X174000Y37000D03*
X174000Y62400D03*
X410000Y500000D03*
X410000Y525400D03*
X435400Y500000D03*
X435400Y525400D03*
X460800Y500000D03*
X460800Y525400D03*
X486200Y500000D03*
X486200Y525400D03*
X511600Y500000D03*
X511600Y525400D03*
X537000Y500000D03*
X537000Y525400D03*
D25*
G36*
X162618Y161575D02*
X151989Y150946D01*
X139946Y162989D01*
X150575Y173618D01*
X162618Y161575D01*
G37*
G36*
X176054Y175011D02*
X165425Y164382D01*
X153382Y176425D01*
X164011Y187054D01*
X176054Y175011D01*
G37*
D26*
X650000Y40000D03*
D27*
X650000Y40000D03*
D26*
X40000Y515000D03*
D27*
X40000Y515000D03*
D26*
X650000Y515000D03*
D27*
X650000Y515000D03*
D14*
X263996Y50000D03*
X296004Y50000D03*
D20*
X290000Y101004D03*
X290000Y68996D03*
X265000Y101004D03*
X265000Y68996D03*
X240000Y101004D03*
X240000Y68996D03*
D14*
G36*
X576127Y47188D02*
X585446Y56507D01*
X596507Y45446D01*
X587188Y36127D01*
X576127Y47188D01*
G37*
G36*
X553493Y24554D02*
X562812Y33873D01*
X573873Y22812D01*
X564554Y13493D01*
X553493Y24554D01*
G37*
G36*
X611127Y82188D02*
X620446Y91507D01*
X631507Y80446D01*
X622188Y71127D01*
X611127Y82188D01*
G37*
G36*
X588493Y59554D02*
X597812Y68873D01*
X608873Y57812D01*
X599554Y48493D01*
X588493Y59554D01*
G37*
G36*
X591127Y102188D02*
X600446Y111507D01*
X611507Y100446D01*
X602188Y91127D01*
X591127Y102188D01*
G37*
G36*
X568493Y79554D02*
X577812Y88873D01*
X588873Y77812D01*
X579554Y68493D01*
X568493Y79554D01*
G37*
G36*
X571127Y122188D02*
X580446Y131507D01*
X591507Y120446D01*
X582188Y111127D01*
X571127Y122188D01*
G37*
G36*
X548493Y99554D02*
X557812Y108873D01*
X568873Y97812D01*
X559554Y88493D01*
X548493Y99554D01*
G37*
D28*
X360000Y460000D03*
X360000Y450000D03*
X360000Y440000D03*
X360000Y430000D03*
X360000Y420000D03*
X360000Y410000D03*
X360000Y400000D03*
X360000Y390000D03*
X360000Y380000D03*
X360000Y370000D03*
X360000Y360000D03*
X360000Y350000D03*
X370000Y360000D03*
X370000Y370000D03*
X370000Y380000D03*
X370000Y390000D03*
X370000Y400000D03*
X370000Y410000D03*
X370000Y420000D03*
X370000Y430000D03*
X370000Y440000D03*
X370000Y450000D03*
X370000Y460000D03*
X380000Y460000D03*
X380000Y450000D03*
X380000Y440000D03*
X380000Y430000D03*
X380000Y420000D03*
X380000Y410000D03*
X380000Y400000D03*
X380000Y390000D03*
X380000Y380000D03*
X380000Y370000D03*
X380000Y360000D03*
X380000Y350000D03*
X390000Y460000D03*
X390000Y450000D03*
X390000Y440000D03*
X390000Y430000D03*
X390000Y420000D03*
X390000Y410000D03*
X390000Y400000D03*
X390000Y390000D03*
X390000Y380000D03*
X390000Y370000D03*
X390000Y360000D03*
X390000Y350000D03*
X390000Y340000D03*
X400000Y340000D03*
X400000Y350000D03*
X400000Y360000D03*
X400000Y370000D03*
X400000Y380000D03*
X400000Y390000D03*
X400000Y400000D03*
X400000Y410000D03*
X400000Y420000D03*
X400000Y430000D03*
X400000Y440000D03*
X400000Y450000D03*
X400000Y460000D03*
X410000Y460000D03*
X410000Y450000D03*
X410000Y440000D03*
X410000Y430000D03*
X410000Y420000D03*
X410000Y410000D03*
X410000Y400000D03*
X410000Y390000D03*
X410000Y380000D03*
X410000Y370000D03*
X410000Y360000D03*
X410000Y350000D03*
X410000Y340000D03*
X420000Y460000D03*
X420000Y450000D03*
X420000Y440000D03*
X420000Y430000D03*
X420000Y420000D03*
X420000Y410000D03*
X420000Y400000D03*
X420000Y390000D03*
X420000Y380000D03*
X420000Y370000D03*
X420000Y360000D03*
X420000Y350000D03*
X420000Y340000D03*
X430000Y340000D03*
X430000Y350000D03*
X430000Y360000D03*
X430000Y370000D03*
X430000Y380000D03*
X430000Y390000D03*
X430000Y400000D03*
X430000Y410000D03*
X430000Y420000D03*
X430000Y430000D03*
X430000Y440000D03*
X430000Y450000D03*
X430000Y460000D03*
X440000Y460000D03*
X440000Y450000D03*
X440000Y440000D03*
X440000Y430000D03*
X440000Y420000D03*
X440000Y410000D03*
X440000Y400000D03*
X440000Y390000D03*
X440000Y380000D03*
X440000Y370000D03*
X440000Y360000D03*
X440000Y350000D03*
X440000Y340000D03*
X360000Y320000D03*
X360000Y310000D03*
X360000Y300000D03*
X360000Y290000D03*
X360000Y280000D03*
X360000Y270000D03*
X360000Y260000D03*
X360000Y250000D03*
X360000Y240000D03*
X360000Y230000D03*
X360000Y220000D03*
X360000Y210000D03*
X370000Y210000D03*
X370000Y220000D03*
X370000Y230000D03*
X370000Y240000D03*
X370000Y250000D03*
X370000Y260000D03*
X370000Y270000D03*
X370000Y280000D03*
X370000Y290000D03*
X370000Y300000D03*
X370000Y310000D03*
X380000Y320000D03*
X380000Y310000D03*
X380000Y300000D03*
X380000Y290000D03*
X380000Y280000D03*
X380000Y270000D03*
X380000Y260000D03*
X380000Y250000D03*
X380000Y240000D03*
X380000Y230000D03*
X380000Y220000D03*
X380000Y210000D03*
X390000Y330000D03*
X390000Y320000D03*
X390000Y310000D03*
X390000Y300000D03*
X390000Y290000D03*
X390000Y280000D03*
X390000Y270000D03*
X390000Y260000D03*
X390000Y250000D03*
X390000Y240000D03*
X390000Y230000D03*
X390000Y220000D03*
X390000Y210000D03*
X400000Y210000D03*
X400000Y220000D03*
X400000Y230000D03*
X400000Y240000D03*
X400000Y250000D03*
X400000Y260000D03*
X400000Y270000D03*
X400000Y280000D03*
X400000Y290000D03*
X400000Y300000D03*
X400000Y310000D03*
X400000Y320000D03*
X400000Y330000D03*
X410000Y330000D03*
X410000Y320000D03*
X410000Y310000D03*
X410000Y300000D03*
X410000Y290000D03*
X410000Y280000D03*
X410000Y270000D03*
X410000Y260000D03*
X410000Y250000D03*
X410000Y240000D03*
X410000Y230000D03*
X410000Y220000D03*
X410000Y210000D03*
X420000Y330000D03*
X420000Y320000D03*
X420000Y310000D03*
X420000Y300000D03*
X420000Y290000D03*
X420000Y280000D03*
X420000Y270000D03*
X420000Y260000D03*
X420000Y250000D03*
X420000Y240000D03*
X420000Y230000D03*
X420000Y220000D03*
X420000Y210000D03*
X430000Y210000D03*
X430000Y220000D03*
X430000Y230000D03*
X430000Y240000D03*
X430000Y250000D03*
X430000Y260000D03*
X430000Y270000D03*
X430000Y280000D03*
X430000Y290000D03*
X430000Y300000D03*
X430000Y310000D03*
X430000Y320000D03*
X430000Y330000D03*
X440000Y330000D03*
X440000Y320000D03*
X440000Y310000D03*
X440000Y300000D03*
X440000Y290000D03*
X440000Y280000D03*
X440000Y270000D03*
X440000Y260000D03*
X440000Y250000D03*
X440000Y240000D03*
X440000Y230000D03*
X440000Y220000D03*
X440000Y210000D03*
D29*
X630000Y210000D03*
D28*
X120000Y460000D03*
X120000Y450000D03*
X120000Y440000D03*
X120000Y430000D03*
X120000Y420000D03*
X120000Y410000D03*
X120000Y400000D03*
X120000Y390000D03*
X120000Y380000D03*
X120000Y370000D03*
X120000Y360000D03*
X130000Y340000D03*
X130000Y350000D03*
X130000Y360000D03*
X130000Y370000D03*
X130000Y380000D03*
X130000Y390000D03*
X130000Y400000D03*
X130000Y410000D03*
X130000Y420000D03*
X130000Y430000D03*
X130000Y440000D03*
X130000Y450000D03*
X130000Y460000D03*
X140000Y460000D03*
X140000Y450000D03*
X140000Y440000D03*
X140000Y430000D03*
X140000Y420000D03*
X140000Y410000D03*
X140000Y400000D03*
X140000Y390000D03*
X140000Y380000D03*
X140000Y370000D03*
X140000Y360000D03*
X140000Y350000D03*
X140000Y340000D03*
X150000Y460000D03*
X150000Y450000D03*
X150000Y440000D03*
X150000Y430000D03*
X150000Y420000D03*
X150000Y410000D03*
X150000Y400000D03*
X150000Y390000D03*
X150000Y380000D03*
X150000Y370000D03*
X150000Y360000D03*
X150000Y350000D03*
X150000Y340000D03*
X160000Y340000D03*
X160000Y350000D03*
X160000Y360000D03*
X160000Y370000D03*
X160000Y380000D03*
X160000Y390000D03*
X160000Y400000D03*
X160000Y410000D03*
X160000Y420000D03*
X160000Y430000D03*
X160000Y440000D03*
X160000Y450000D03*
X160000Y460000D03*
X170000Y460000D03*
X170000Y450000D03*
X170000Y440000D03*
X170000Y430000D03*
X170000Y420000D03*
X170000Y410000D03*
X170000Y400000D03*
X170000Y390000D03*
X170000Y380000D03*
X170000Y370000D03*
X170000Y360000D03*
X170000Y350000D03*
X170000Y340000D03*
X180000Y460000D03*
X180000Y450000D03*
X180000Y440000D03*
X180000Y430000D03*
X180000Y420000D03*
X180000Y410000D03*
X180000Y400000D03*
X180000Y390000D03*
X180000Y380000D03*
X180000Y370000D03*
X180000Y360000D03*
X180000Y350000D03*
X180000Y340000D03*
X190000Y340000D03*
X190000Y350000D03*
X190000Y360000D03*
X190000Y370000D03*
X190000Y380000D03*
X190000Y390000D03*
X190000Y400000D03*
X190000Y410000D03*
X190000Y420000D03*
X190000Y430000D03*
X190000Y440000D03*
X190000Y450000D03*
X190000Y460000D03*
X200000Y460000D03*
X200000Y450000D03*
X200000Y440000D03*
X200000Y430000D03*
X200000Y420000D03*
X200000Y410000D03*
X200000Y400000D03*
X200000Y390000D03*
X200000Y380000D03*
X200000Y370000D03*
X200000Y360000D03*
X200000Y350000D03*
X200000Y340000D03*
X120000Y320000D03*
X120000Y310000D03*
X120000Y300000D03*
X120000Y290000D03*
X120000Y280000D03*
X120000Y270000D03*
X120000Y260000D03*
X120000Y250000D03*
X120000Y240000D03*
X120000Y230000D03*
X120000Y220000D03*
X120000Y210000D03*
X130000Y210000D03*
X130000Y220000D03*
X130000Y230000D03*
X130000Y240000D03*
X130000Y250000D03*
X130000Y260000D03*
X130000Y270000D03*
X130000Y280000D03*
X130000Y290000D03*
X130000Y300000D03*
X130000Y310000D03*
X130000Y320000D03*
X130000Y330000D03*
X140000Y330000D03*
X140000Y320000D03*
X140000Y310000D03*
X140000Y300000D03*
X140000Y290000D03*
X140000Y280000D03*
X140000Y270000D03*
X140000Y260000D03*
X140000Y250000D03*
X140000Y240000D03*
X140000Y230000D03*
X140000Y220000D03*
X140000Y210000D03*
X150000Y330000D03*
X150000Y320000D03*
X150000Y310000D03*
X150000Y300000D03*
X150000Y290000D03*
X150000Y280000D03*
X150000Y270000D03*
X150000Y260000D03*
X150000Y250000D03*
X150000Y240000D03*
X150000Y230000D03*
X150000Y220000D03*
X150000Y210000D03*
X160000Y210000D03*
X160000Y220000D03*
X160000Y230000D03*
X160000Y240000D03*
X160000Y250000D03*
X160000Y260000D03*
X160000Y270000D03*
X160000Y280000D03*
X160000Y290000D03*
X160000Y300000D03*
X160000Y310000D03*
X160000Y320000D03*
X160000Y330000D03*
X170000Y330000D03*
X170000Y320000D03*
X170000Y310000D03*
X170000Y300000D03*
X170000Y290000D03*
X170000Y280000D03*
X170000Y270000D03*
X170000Y260000D03*
X170000Y250000D03*
X170000Y240000D03*
X170000Y230000D03*
X170000Y220000D03*
X170000Y210000D03*
X180000Y330000D03*
X180000Y320000D03*
X180000Y310000D03*
X180000Y300000D03*
X180000Y290000D03*
X180000Y280000D03*
X180000Y270000D03*
X180000Y260000D03*
X180000Y250000D03*
X180000Y240000D03*
X180000Y230000D03*
X180000Y220000D03*
X180000Y210000D03*
X190000Y210000D03*
X190000Y220000D03*
X190000Y230000D03*
X190000Y240000D03*
X190000Y250000D03*
X190000Y260000D03*
X190000Y270000D03*
X190000Y280000D03*
X190000Y290000D03*
X190000Y300000D03*
X190000Y310000D03*
X190000Y320000D03*
X190000Y330000D03*
X200000Y330000D03*
X200000Y320000D03*
X200000Y310000D03*
X200000Y300000D03*
X200000Y290000D03*
X200000Y280000D03*
X200000Y270000D03*
X200000Y260000D03*
X200000Y250000D03*
X200000Y240000D03*
X200000Y230000D03*
X200000Y220000D03*
X200000Y210000D03*
D29*
X36000Y106000D03*
D30*
X325000Y335000D03*
D31*
X364166Y108834D03*
X352166Y108834D03*
X310000Y195000D03*
X310000Y335000D03*
X325000Y195000D03*
D29*
X355000Y79000D03*
D31*
X450000Y137000D03*
X460000Y147000D03*
X545000Y195000D03*
X560000Y195000D03*
X560000Y335000D03*
X545000Y335000D03*
X520000Y90000D03*
X520000Y105000D03*
D28*
X500000Y170000D03*
D29*
X25000Y268000D03*
X25000Y278000D03*
X25000Y334000D03*
X25000Y344000D03*
X25000Y397000D03*
X25000Y407000D03*
X25000Y460000D03*
X24000Y213000D03*
X515000Y45000D03*
X545000Y25000D03*
X462000Y70000D03*
X400000Y70000D03*
M02*
