G04 EAGLE Gerber RS-274X export*
G75*
%MOMM*%
%FSLAX34Y34*%
%LPD*%
%INCopper Layer 2*%
%IPPOS*%
%AMOC8*
5,1,8,0,0,1.08239X$1,22.5*%
G01*
%ADD10C,1.508000*%
%ADD11C,2.760000*%
%ADD12C,1.320800*%
%ADD13C,1.524000*%
%ADD14C,0.756400*%
%ADD15C,1.016000*%
%ADD16C,0.152400*%
%ADD17C,0.812800*%
%ADD18C,0.200000*%
%ADD19C,0.656400*%
%ADD20C,0.304800*%

G36*
X295050Y10934D02*
X295050Y10934D01*
X295101Y10936D01*
X295133Y10954D01*
X295169Y10962D01*
X295208Y10995D01*
X295253Y11019D01*
X295274Y11049D01*
X295302Y11072D01*
X295323Y11119D01*
X295353Y11161D01*
X295361Y11203D01*
X295373Y11231D01*
X295372Y11261D01*
X295380Y11303D01*
X295380Y93475D01*
X295367Y93531D01*
X295367Y93538D01*
X295365Y93540D01*
X295359Y93600D01*
X295346Y93620D01*
X295341Y93643D01*
X295300Y93692D01*
X295266Y93746D01*
X295244Y93761D01*
X295231Y93777D01*
X295196Y93792D01*
X295146Y93826D01*
X290483Y95757D01*
X285757Y100483D01*
X283199Y106658D01*
X283199Y113342D01*
X285757Y119517D01*
X290483Y124243D01*
X295146Y126174D01*
X295150Y126177D01*
X295152Y126178D01*
X295164Y126187D01*
X295197Y126211D01*
X295253Y126242D01*
X295267Y126261D01*
X295286Y126275D01*
X295316Y126331D01*
X295353Y126383D01*
X295358Y126410D01*
X295368Y126428D01*
X295369Y126466D01*
X295380Y126525D01*
X295380Y153475D01*
X295366Y153536D01*
X295359Y153600D01*
X295346Y153620D01*
X295341Y153643D01*
X295300Y153692D01*
X295266Y153746D01*
X295244Y153761D01*
X295231Y153777D01*
X295196Y153792D01*
X295146Y153826D01*
X290483Y155757D01*
X285757Y160483D01*
X283199Y166658D01*
X283199Y173342D01*
X285757Y179517D01*
X290483Y184243D01*
X295146Y186174D01*
X295197Y186211D01*
X295253Y186242D01*
X295267Y186261D01*
X295286Y186275D01*
X295316Y186331D01*
X295353Y186383D01*
X295358Y186410D01*
X295368Y186428D01*
X295369Y186466D01*
X295380Y186525D01*
X295380Y195000D01*
X295369Y195050D01*
X295367Y195101D01*
X295349Y195133D01*
X295341Y195169D01*
X295308Y195208D01*
X295284Y195253D01*
X295254Y195274D01*
X295231Y195302D01*
X295184Y195323D01*
X295142Y195353D01*
X295100Y195361D01*
X295072Y195373D01*
X295042Y195372D01*
X295000Y195380D01*
X243000Y195380D01*
X242950Y195369D01*
X242899Y195367D01*
X242867Y195349D01*
X242831Y195341D01*
X242792Y195308D01*
X242747Y195284D01*
X242726Y195254D01*
X242698Y195231D01*
X242677Y195184D01*
X242647Y195142D01*
X242639Y195100D01*
X242627Y195072D01*
X242628Y195042D01*
X242627Y195036D01*
X242620Y195000D01*
X242620Y185000D01*
X242637Y184926D01*
X242650Y184851D01*
X242657Y184841D01*
X242659Y184831D01*
X242683Y184802D01*
X242731Y184731D01*
X252620Y174843D01*
X252620Y11303D01*
X252631Y11253D01*
X252633Y11202D01*
X252651Y11170D01*
X252659Y11134D01*
X252692Y11095D01*
X252716Y11050D01*
X252746Y11029D01*
X252769Y11001D01*
X252816Y10980D01*
X252858Y10950D01*
X252900Y10942D01*
X252928Y10930D01*
X252958Y10931D01*
X253000Y10923D01*
X295000Y10923D01*
X295050Y10934D01*
G37*
G36*
X250050Y32631D02*
X250050Y32631D01*
X250101Y32633D01*
X250133Y32651D01*
X250169Y32659D01*
X250208Y32692D01*
X250253Y32716D01*
X250274Y32746D01*
X250302Y32769D01*
X250323Y32816D01*
X250353Y32858D01*
X250361Y32900D01*
X250373Y32928D01*
X250372Y32958D01*
X250380Y33000D01*
X250380Y174000D01*
X250363Y174074D01*
X250350Y174149D01*
X250343Y174159D01*
X250341Y174169D01*
X250317Y174198D01*
X250269Y174269D01*
X240380Y184158D01*
X240380Y195000D01*
X240369Y195050D01*
X240367Y195101D01*
X240349Y195133D01*
X240341Y195169D01*
X240308Y195208D01*
X240284Y195253D01*
X240254Y195274D01*
X240231Y195302D01*
X240184Y195323D01*
X240142Y195353D01*
X240100Y195361D01*
X240072Y195373D01*
X240042Y195372D01*
X240000Y195380D01*
X182000Y195380D01*
X181950Y195369D01*
X181899Y195367D01*
X181867Y195349D01*
X181831Y195341D01*
X181792Y195308D01*
X181747Y195284D01*
X181726Y195254D01*
X181698Y195231D01*
X181677Y195184D01*
X181647Y195142D01*
X181639Y195100D01*
X181627Y195072D01*
X181627Y195060D01*
X181627Y195059D01*
X181627Y195040D01*
X181620Y195000D01*
X181620Y182000D01*
X181631Y181950D01*
X181633Y181899D01*
X181651Y181867D01*
X181659Y181831D01*
X181692Y181792D01*
X181716Y181747D01*
X181746Y181726D01*
X181769Y181698D01*
X181816Y181677D01*
X181858Y181647D01*
X181900Y181639D01*
X181928Y181627D01*
X181958Y181628D01*
X182000Y181620D01*
X209843Y181620D01*
X226620Y164843D01*
X226620Y33000D01*
X226631Y32950D01*
X226633Y32899D01*
X226651Y32867D01*
X226659Y32831D01*
X226692Y32792D01*
X226716Y32747D01*
X226746Y32726D01*
X226769Y32698D01*
X226816Y32677D01*
X226858Y32647D01*
X226900Y32639D01*
X226928Y32627D01*
X226958Y32628D01*
X227000Y32620D01*
X250000Y32620D01*
X250050Y32631D01*
G37*
G36*
X175944Y260637D02*
X175944Y260637D01*
X176019Y260650D01*
X176029Y260657D01*
X176039Y260659D01*
X176068Y260683D01*
X176139Y260731D01*
X176158Y260750D01*
X178651Y261783D01*
X181349Y261783D01*
X183842Y260750D01*
X183861Y260731D01*
X183926Y260691D01*
X183988Y260647D01*
X184000Y260645D01*
X184008Y260640D01*
X184045Y260636D01*
X184130Y260620D01*
X185870Y260620D01*
X185944Y260637D01*
X186019Y260650D01*
X186029Y260657D01*
X186039Y260659D01*
X186068Y260683D01*
X186139Y260731D01*
X186158Y260750D01*
X188651Y261783D01*
X191349Y261783D01*
X193842Y260750D01*
X193861Y260731D01*
X193926Y260691D01*
X193988Y260647D01*
X194000Y260645D01*
X194008Y260640D01*
X194045Y260636D01*
X194130Y260620D01*
X303000Y260620D01*
X303050Y260631D01*
X303101Y260633D01*
X303133Y260651D01*
X303169Y260659D01*
X303208Y260692D01*
X303253Y260716D01*
X303274Y260746D01*
X303302Y260769D01*
X303323Y260816D01*
X303353Y260858D01*
X303361Y260900D01*
X303373Y260928D01*
X303372Y260958D01*
X303380Y261000D01*
X303380Y274000D01*
X303369Y274050D01*
X303367Y274101D01*
X303349Y274133D01*
X303341Y274169D01*
X303308Y274208D01*
X303284Y274253D01*
X303254Y274274D01*
X303231Y274302D01*
X303184Y274323D01*
X303142Y274353D01*
X303100Y274361D01*
X303072Y274373D01*
X303042Y274372D01*
X303000Y274380D01*
X19000Y274380D01*
X18950Y274369D01*
X18899Y274367D01*
X18867Y274349D01*
X18831Y274341D01*
X18792Y274308D01*
X18747Y274284D01*
X18726Y274254D01*
X18698Y274231D01*
X18677Y274184D01*
X18647Y274142D01*
X18639Y274100D01*
X18627Y274072D01*
X18628Y274042D01*
X18620Y274000D01*
X18620Y261000D01*
X18631Y260950D01*
X18633Y260899D01*
X18651Y260867D01*
X18659Y260831D01*
X18692Y260792D01*
X18716Y260747D01*
X18746Y260726D01*
X18769Y260698D01*
X18816Y260677D01*
X18858Y260647D01*
X18900Y260639D01*
X18928Y260627D01*
X18958Y260628D01*
X19000Y260620D01*
X175870Y260620D01*
X175944Y260637D01*
G37*
%LPC*%
G36*
X268651Y43217D02*
X268651Y43217D01*
X266158Y44250D01*
X264250Y46158D01*
X263217Y48651D01*
X263217Y51349D01*
X264250Y53842D01*
X266158Y55750D01*
X268651Y56783D01*
X271349Y56783D01*
X273842Y55750D01*
X275750Y53842D01*
X276783Y51349D01*
X276783Y48651D01*
X275750Y46158D01*
X273842Y44250D01*
X271349Y43217D01*
X268651Y43217D01*
G37*
%LPD*%
D10*
X347000Y77000D03*
X321600Y77000D03*
X372400Y77000D03*
D11*
X390000Y20000D03*
X300000Y170000D03*
X299500Y487000D03*
X400000Y630000D03*
X280000Y750000D03*
X330000Y750000D03*
X129000Y109000D03*
X300000Y270000D03*
X28000Y565000D03*
X395000Y484000D03*
X400000Y680000D03*
X300000Y110000D03*
X340000Y20000D03*
X280000Y20000D03*
D12*
X384000Y155000D03*
X384000Y179892D03*
X384000Y205038D03*
D13*
X110000Y720000D03*
X110000Y745400D03*
X135400Y720000D03*
X135400Y745400D03*
X160800Y720000D03*
X160800Y745400D03*
X186200Y720000D03*
X186200Y745400D03*
X211600Y720000D03*
X211600Y745400D03*
X237000Y720000D03*
X237000Y745400D03*
X110000Y20000D03*
X110000Y45400D03*
X135400Y20000D03*
X135400Y45400D03*
X160800Y20000D03*
X160800Y45400D03*
X186200Y20000D03*
X186200Y45400D03*
X211600Y20000D03*
X211600Y45400D03*
X237000Y20000D03*
X237000Y45400D03*
D14*
X260000Y175000D03*
D15*
X271000Y164000D01*
X286000Y26000D02*
X280000Y20000D01*
X271000Y77000D02*
X271000Y164000D01*
X271000Y77000D02*
X286000Y62000D01*
X286000Y26000D01*
D14*
X266000Y169000D03*
X259000Y185000D03*
D15*
X259000Y176000D02*
X260000Y175000D01*
X259000Y176000D02*
X259000Y185000D01*
D14*
X265000Y145000D03*
X273000Y145000D03*
X281000Y145000D03*
X325000Y528000D03*
X345000Y568000D03*
X288000Y516000D03*
X327000Y678000D03*
X238000Y679000D03*
X270000Y50000D03*
X300000Y300000D03*
X350000Y300000D03*
X383000Y602000D03*
X281000Y627000D03*
X296748Y593748D03*
X285000Y534662D03*
X347000Y650000D03*
X341000Y513000D03*
X139000Y191000D03*
X16000Y197000D03*
X123000Y252500D03*
X392000Y248000D03*
X392000Y337000D03*
X200000Y121000D03*
X290000Y414000D03*
X349189Y463811D03*
X373000Y135000D03*
X284000Y506000D03*
X276000Y514000D03*
X50000Y600000D03*
X50000Y610000D03*
X70000Y610000D03*
X70000Y600000D03*
X90000Y600000D03*
X90000Y610000D03*
X110000Y600000D03*
X110000Y610000D03*
X130000Y610000D03*
X130000Y600000D03*
X150000Y600000D03*
X150000Y610000D03*
X170000Y610000D03*
X170000Y600000D03*
X190000Y600000D03*
X190000Y610000D03*
X210000Y610000D03*
X210000Y600000D03*
X230000Y600000D03*
X230000Y610000D03*
X250000Y600000D03*
X250000Y610000D03*
D16*
X226600Y705000D02*
X211600Y720000D01*
X226600Y705000D02*
X240000Y705000D01*
X245000Y615000D02*
X250000Y610000D01*
X245000Y615000D02*
X245000Y700000D01*
X240000Y705000D01*
D14*
X291500Y610500D03*
X325000Y572000D03*
X271000Y659000D03*
D16*
X271000Y706000D01*
X315000Y750000D02*
X330000Y750000D01*
X315000Y750000D02*
X271000Y706000D01*
D14*
X337000Y488000D03*
D16*
X334932Y515514D02*
X335000Y515582D01*
X335000Y555000D01*
X334932Y490068D02*
X337000Y488000D01*
X334932Y490068D02*
X334932Y515514D01*
X335000Y555000D02*
X290000Y555000D01*
X265000Y580000D01*
X265000Y610000D01*
X250000Y625000D01*
X250000Y700000D01*
X255000Y727400D02*
X237000Y745400D01*
X255000Y705000D02*
X250000Y700000D01*
X255000Y705000D02*
X255000Y727400D01*
D14*
X314000Y315000D03*
X315000Y603000D03*
D16*
X335000Y603000D01*
X340000Y608000D01*
X340000Y655000D01*
X345000Y660000D01*
X390000Y660000D02*
X400000Y650000D01*
X400000Y630000D01*
X390000Y660000D02*
X345000Y660000D01*
D14*
X159000Y160000D03*
X265000Y730000D03*
X353500Y615000D03*
X391000Y575000D03*
X187000Y189000D03*
D17*
X226000Y189000D01*
X237000Y178000D02*
X237000Y45400D01*
X237000Y178000D02*
X226000Y189000D01*
D14*
X195000Y189000D03*
X203000Y189000D03*
X337000Y412000D03*
X337000Y403000D03*
X337000Y395000D03*
X290630Y448000D03*
D15*
X328000Y448000D01*
X337000Y439000D02*
X337000Y395000D01*
X337000Y439000D02*
X328000Y448000D01*
D14*
X280630Y448000D03*
D15*
X290630Y448000D01*
D14*
X352000Y560000D03*
X261000Y626000D03*
D18*
X295000Y560000D02*
X352000Y560000D01*
X295000Y560000D02*
X271000Y584000D01*
X271000Y616000D01*
X261000Y626000D01*
D19*
X40000Y490000D03*
X60000Y490000D03*
X60000Y470000D03*
X40000Y470000D03*
X40000Y450000D03*
X60000Y450000D03*
X80000Y450000D03*
X80000Y470000D03*
X80000Y490000D03*
X100000Y490000D03*
X100000Y470000D03*
X100000Y450000D03*
X120000Y450000D03*
X120000Y470000D03*
X120000Y490000D03*
X140000Y490000D03*
X140000Y470000D03*
X140000Y450000D03*
X160000Y450000D03*
X160000Y470000D03*
X160000Y490000D03*
X180000Y490000D03*
X200000Y490000D03*
X200000Y470000D03*
X180000Y470000D03*
X180000Y450000D03*
X200000Y450000D03*
X200000Y430000D03*
X180000Y430000D03*
X160000Y430000D03*
X140000Y430000D03*
X120000Y430000D03*
X100000Y430000D03*
X80000Y430000D03*
X60000Y430000D03*
X40000Y430000D03*
X40000Y410000D03*
X60000Y410000D03*
X80000Y410000D03*
X100000Y410000D03*
X120000Y410000D03*
X140000Y410000D03*
X160000Y410000D03*
X180000Y410000D03*
X200000Y410000D03*
X200000Y390000D03*
X180000Y390000D03*
X160000Y390000D03*
X140000Y390000D03*
X120000Y390000D03*
X100000Y390000D03*
X80000Y390000D03*
X60000Y390000D03*
X40000Y390000D03*
X20000Y390000D03*
X20000Y410000D03*
X20000Y430000D03*
X20000Y450000D03*
X20000Y470000D03*
X20000Y490000D03*
X200000Y370000D03*
X180000Y370000D03*
X160000Y370000D03*
X140000Y370000D03*
X120000Y370000D03*
X100000Y370000D03*
X80000Y370000D03*
X60000Y370000D03*
X40000Y370000D03*
X20000Y370000D03*
X20000Y350000D03*
X20000Y330000D03*
X20000Y310000D03*
X40000Y310000D03*
X60000Y310000D03*
X80000Y310000D03*
X100000Y310000D03*
X120000Y310000D03*
X140000Y310000D03*
X160000Y310000D03*
X180000Y310000D03*
X200000Y310000D03*
X200000Y330000D03*
X200000Y350000D03*
X180000Y350000D03*
X180000Y330000D03*
X160000Y330000D03*
X160000Y350000D03*
X140000Y350000D03*
X140000Y330000D03*
X120000Y330000D03*
X120000Y350000D03*
X100000Y350000D03*
X100000Y330000D03*
X80000Y330000D03*
X80000Y350000D03*
X60000Y350000D03*
X60000Y330000D03*
X40000Y330000D03*
X40000Y350000D03*
X220000Y490000D03*
X240000Y490000D03*
X240000Y470000D03*
X220000Y470000D03*
X220000Y450000D03*
X240000Y450000D03*
X240000Y430000D03*
X220000Y430000D03*
X220000Y410000D03*
X220000Y390000D03*
X220000Y370000D03*
X220000Y350000D03*
X220000Y330000D03*
X220000Y310000D03*
D14*
X156000Y267000D03*
D17*
X141000Y267000D01*
D14*
X25000Y267000D03*
D17*
X141000Y267000D01*
D20*
X297000Y267000D01*
X300000Y270000D01*
D14*
X240000Y570000D03*
X240000Y560000D03*
X35000Y225000D03*
X35000Y235000D03*
X236000Y230000D03*
X110000Y560000D03*
X110000Y570000D03*
X190000Y255000D03*
X180000Y255000D03*
X102000Y184000D03*
X271000Y206000D03*
D20*
X107000Y206000D01*
X102000Y201000D01*
X102000Y184000D01*
D14*
X70000Y755296D03*
X371306Y620000D03*
X347000Y385000D03*
X379000Y385000D03*
X361000Y652000D03*
D18*
X365000Y648000D02*
X365000Y198892D01*
X384000Y179892D01*
X365000Y648000D02*
X361000Y652000D01*
D14*
X392000Y311000D03*
M02*
