G04 EAGLE Gerber RS-274X export*
G75*
%MOMM*%
%FSLAX34Y34*%
%LPD*%
%INBottom Copper*%
%IPPOS*%
%AMOC8*
5,1,8,0,0,1.08239X$1,22.5*%
G01*
%ADD10C,2.781300*%
%ADD11C,1.530000*%
%ADD12C,2.760000*%
%ADD13C,7.400000*%
%ADD14C,1.800000*%
%ADD15C,0.756400*%
%ADD16C,0.152400*%
%ADD17C,0.203200*%
%ADD18C,0.812800*%
%ADD19C,1.270000*%

G36*
X1010327Y21015D02*
X1010327Y21015D01*
X1010389Y21021D01*
X1010410Y21035D01*
X1010434Y21040D01*
X1010483Y21080D01*
X1010536Y21114D01*
X1010549Y21135D01*
X1010568Y21150D01*
X1010594Y21208D01*
X1010626Y21262D01*
X1010629Y21286D01*
X1010639Y21309D01*
X1010636Y21371D01*
X1010642Y21434D01*
X1010633Y21460D01*
X1010632Y21482D01*
X1010614Y21515D01*
X1010595Y21571D01*
X1006884Y27999D01*
X1006388Y29847D01*
X1005879Y31748D01*
X1005370Y33650D01*
X1002999Y42496D01*
X1002999Y57504D01*
X1006884Y72001D01*
X1014388Y84999D01*
X1025001Y95612D01*
X1037999Y103116D01*
X1052496Y107001D01*
X1067504Y107001D01*
X1082001Y103116D01*
X1094999Y95612D01*
X1105612Y84999D01*
X1113116Y72001D01*
X1114073Y68431D01*
X1114582Y66530D01*
X1115092Y64629D01*
X1115601Y62728D01*
X1115601Y62727D01*
X1117001Y57504D01*
X1117001Y42496D01*
X1113116Y27999D01*
X1109405Y21571D01*
X1109387Y21511D01*
X1109361Y21453D01*
X1109362Y21429D01*
X1109355Y21405D01*
X1109366Y21343D01*
X1109368Y21280D01*
X1109380Y21259D01*
X1109384Y21234D01*
X1109421Y21183D01*
X1109451Y21128D01*
X1109471Y21114D01*
X1109485Y21094D01*
X1109541Y21065D01*
X1109592Y21028D01*
X1109620Y21023D01*
X1109638Y21013D01*
X1109676Y21012D01*
X1109735Y21001D01*
X1485265Y21001D01*
X1485327Y21015D01*
X1485389Y21021D01*
X1485410Y21035D01*
X1485434Y21040D01*
X1485483Y21080D01*
X1485536Y21114D01*
X1485549Y21135D01*
X1485568Y21150D01*
X1485594Y21208D01*
X1485626Y21262D01*
X1485629Y21286D01*
X1485639Y21309D01*
X1485636Y21371D01*
X1485642Y21434D01*
X1485633Y21460D01*
X1485632Y21482D01*
X1485614Y21515D01*
X1485595Y21571D01*
X1481884Y27999D01*
X1481388Y29847D01*
X1480879Y31748D01*
X1480370Y33650D01*
X1477999Y42496D01*
X1477999Y57504D01*
X1481884Y72001D01*
X1489388Y84999D01*
X1500001Y95612D01*
X1512999Y103116D01*
X1527496Y107001D01*
X1542504Y107001D01*
X1557001Y103116D01*
X1569999Y95612D01*
X1580612Y84999D01*
X1588116Y72001D01*
X1589073Y68431D01*
X1589582Y66530D01*
X1590092Y64629D01*
X1590601Y62728D01*
X1590601Y62727D01*
X1592001Y57504D01*
X1592001Y42496D01*
X1588116Y27999D01*
X1584405Y21571D01*
X1584387Y21511D01*
X1584361Y21453D01*
X1584362Y21429D01*
X1584355Y21405D01*
X1584366Y21343D01*
X1584368Y21280D01*
X1584380Y21259D01*
X1584384Y21234D01*
X1584421Y21183D01*
X1584451Y21128D01*
X1584471Y21114D01*
X1584485Y21094D01*
X1584541Y21065D01*
X1584592Y21028D01*
X1584620Y21023D01*
X1584638Y21013D01*
X1584676Y21012D01*
X1584735Y21001D01*
X1718619Y21001D01*
X1718669Y21012D01*
X1718720Y21014D01*
X1718752Y21032D01*
X1718788Y21040D01*
X1718827Y21073D01*
X1718872Y21097D01*
X1718893Y21127D01*
X1718921Y21150D01*
X1718942Y21197D01*
X1718972Y21239D01*
X1718980Y21281D01*
X1718992Y21309D01*
X1718991Y21339D01*
X1718999Y21381D01*
X1718999Y843079D01*
X1718982Y843152D01*
X1718970Y843226D01*
X1718963Y843236D01*
X1718960Y843248D01*
X1718912Y843306D01*
X1718868Y843366D01*
X1718857Y843372D01*
X1718850Y843382D01*
X1718781Y843412D01*
X1718715Y843447D01*
X1718703Y843448D01*
X1718691Y843453D01*
X1718617Y843450D01*
X1718542Y843452D01*
X1718531Y843447D01*
X1718518Y843446D01*
X1718453Y843410D01*
X1718385Y843379D01*
X1718376Y843369D01*
X1718366Y843363D01*
X1718344Y843332D01*
X1718290Y843270D01*
X1716126Y839522D01*
X1710978Y834374D01*
X1704673Y830734D01*
X1697640Y828849D01*
X1696229Y828849D01*
X1696155Y828832D01*
X1696080Y828819D01*
X1696070Y828812D01*
X1696060Y828810D01*
X1696031Y828786D01*
X1695960Y828738D01*
X1694371Y827148D01*
X1688405Y821183D01*
X1680680Y817983D01*
X1664177Y817983D01*
X1664103Y817966D01*
X1664028Y817953D01*
X1664018Y817946D01*
X1664008Y817944D01*
X1663979Y817920D01*
X1663908Y817872D01*
X1558715Y712679D01*
X1558708Y712668D01*
X1558697Y712660D01*
X1558663Y712595D01*
X1558624Y712532D01*
X1558623Y712519D01*
X1558616Y712507D01*
X1558614Y712433D01*
X1558607Y712360D01*
X1558612Y712347D01*
X1558612Y712334D01*
X1558643Y712267D01*
X1558669Y712198D01*
X1558679Y712189D01*
X1558685Y712176D01*
X1558794Y712081D01*
X1569999Y705612D01*
X1580612Y694999D01*
X1588116Y682001D01*
X1588483Y680634D01*
X1588992Y678733D01*
X1588992Y678732D01*
X1589502Y676831D01*
X1590011Y674930D01*
X1592001Y667504D01*
X1592001Y652496D01*
X1588116Y637999D01*
X1580612Y625001D01*
X1569999Y614388D01*
X1557001Y606884D01*
X1542504Y602999D01*
X1527496Y602999D01*
X1512999Y606884D01*
X1500001Y614388D01*
X1489388Y625001D01*
X1482919Y636206D01*
X1482909Y636216D01*
X1482905Y636229D01*
X1482851Y636278D01*
X1482800Y636332D01*
X1482787Y636337D01*
X1482778Y636346D01*
X1482707Y636367D01*
X1482638Y636393D01*
X1482624Y636392D01*
X1482611Y636395D01*
X1482539Y636383D01*
X1482466Y636375D01*
X1482454Y636368D01*
X1482441Y636366D01*
X1482321Y636285D01*
X1409675Y563639D01*
X1408280Y563061D01*
X1408278Y563060D01*
X1408277Y563060D01*
X1408157Y562979D01*
X1406472Y561294D01*
X1397731Y557673D01*
X1388269Y557673D01*
X1379528Y561294D01*
X1372838Y567984D01*
X1369397Y576291D01*
X1369375Y576322D01*
X1369361Y576358D01*
X1369325Y576391D01*
X1369296Y576432D01*
X1369262Y576450D01*
X1369234Y576476D01*
X1369187Y576490D01*
X1369143Y576513D01*
X1369105Y576514D01*
X1369068Y576525D01*
X1369019Y576516D01*
X1368970Y576518D01*
X1368935Y576502D01*
X1368897Y576495D01*
X1368847Y576461D01*
X1368813Y576446D01*
X1368799Y576429D01*
X1368777Y576414D01*
X1319655Y527292D01*
X1313761Y521398D01*
X1306130Y518237D01*
X1110636Y518237D01*
X1110634Y518237D01*
X1110633Y518237D01*
X1110551Y518217D01*
X1110467Y518198D01*
X1110466Y518197D01*
X1110465Y518197D01*
X1110399Y518142D01*
X1110333Y518088D01*
X1110333Y518086D01*
X1110332Y518086D01*
X1110268Y517955D01*
X1109424Y514806D01*
X1105606Y508193D01*
X1100207Y502794D01*
X1093594Y498976D01*
X1086218Y496999D01*
X1081445Y496999D01*
X1081395Y496988D01*
X1081344Y496986D01*
X1081312Y496968D01*
X1081276Y496960D01*
X1081237Y496927D01*
X1081192Y496903D01*
X1081171Y496873D01*
X1081143Y496850D01*
X1081122Y496803D01*
X1081092Y496761D01*
X1081084Y496719D01*
X1081072Y496691D01*
X1081073Y496661D01*
X1081065Y496619D01*
X1081065Y195213D01*
X1077401Y186368D01*
X1070632Y179599D01*
X1061787Y175935D01*
X843731Y175935D01*
X843681Y175924D01*
X843630Y175922D01*
X843598Y175904D01*
X843562Y175896D01*
X843523Y175863D01*
X843478Y175839D01*
X843457Y175809D01*
X843429Y175786D01*
X843408Y175739D01*
X843378Y175697D01*
X843370Y175655D01*
X843358Y175627D01*
X843359Y175597D01*
X843351Y175555D01*
X843351Y67863D01*
X843357Y67836D01*
X843354Y67809D01*
X843382Y67731D01*
X843390Y67694D01*
X843397Y67685D01*
X843402Y67672D01*
X844024Y66594D01*
X846001Y59218D01*
X846001Y51582D01*
X844024Y44206D01*
X843265Y42890D01*
X843253Y42853D01*
X843233Y42819D01*
X843229Y42771D01*
X843214Y42724D01*
X843221Y42686D01*
X843217Y42647D01*
X843237Y42590D01*
X843243Y42553D01*
X843256Y42536D01*
X843265Y42510D01*
X844024Y41194D01*
X844470Y39532D01*
X845285Y36490D01*
X846001Y33818D01*
X846001Y26182D01*
X844741Y21479D01*
X844740Y21466D01*
X844735Y21453D01*
X844738Y21380D01*
X844735Y21306D01*
X844741Y21294D01*
X844741Y21280D01*
X844776Y21216D01*
X844807Y21149D01*
X844818Y21140D01*
X844824Y21128D01*
X844884Y21086D01*
X844941Y21039D01*
X844955Y21036D01*
X844966Y21028D01*
X845108Y21001D01*
X1010265Y21001D01*
X1010327Y21015D01*
G37*
G36*
X757215Y602031D02*
X757215Y602031D01*
X757278Y602038D01*
X757298Y602051D01*
X757321Y602056D01*
X757371Y602097D01*
X757424Y602131D01*
X757439Y602153D01*
X757455Y602166D01*
X757471Y602201D01*
X757504Y602251D01*
X758208Y603952D01*
X758209Y603954D01*
X758210Y603955D01*
X758237Y604097D01*
X758237Y746930D01*
X761398Y754561D01*
X762488Y755651D01*
X762528Y755716D01*
X762572Y755777D01*
X762574Y755790D01*
X762579Y755798D01*
X762583Y755835D01*
X762599Y755920D01*
X762599Y759218D01*
X764576Y766594D01*
X768394Y773207D01*
X773793Y778606D01*
X780406Y782424D01*
X787782Y784401D01*
X789318Y784401D01*
X789379Y784415D01*
X789442Y784421D01*
X789463Y784435D01*
X789487Y784440D01*
X789535Y784480D01*
X789588Y784514D01*
X789601Y784535D01*
X789620Y784550D01*
X789646Y784608D01*
X789679Y784662D01*
X789681Y784686D01*
X789691Y784709D01*
X789689Y784771D01*
X789694Y784834D01*
X789685Y784860D01*
X789685Y784882D01*
X789667Y784915D01*
X789647Y784971D01*
X788503Y786953D01*
X786199Y795550D01*
X786199Y804450D01*
X788503Y813047D01*
X792953Y820754D01*
X799246Y827047D01*
X806953Y831497D01*
X815550Y833801D01*
X824450Y833801D01*
X833047Y831497D01*
X840754Y827047D01*
X844450Y823351D01*
X844494Y823324D01*
X844531Y823289D01*
X844566Y823279D01*
X844598Y823260D01*
X844648Y823255D01*
X844697Y823240D01*
X844734Y823247D01*
X844770Y823243D01*
X844818Y823261D01*
X844868Y823270D01*
X844903Y823294D01*
X844932Y823305D01*
X844953Y823327D01*
X844988Y823351D01*
X845345Y823708D01*
X851239Y829602D01*
X858870Y832763D01*
X1142805Y832763D01*
X1142867Y832777D01*
X1142930Y832784D01*
X1142950Y832797D01*
X1142974Y832802D01*
X1143023Y832843D01*
X1143076Y832877D01*
X1143091Y832899D01*
X1143107Y832912D01*
X1143123Y832947D01*
X1143156Y832997D01*
X1145838Y839472D01*
X1152528Y846162D01*
X1161269Y849783D01*
X1170731Y849783D01*
X1177338Y847046D01*
X1177340Y847045D01*
X1177342Y847044D01*
X1177484Y847017D01*
X1202999Y847017D01*
X1203036Y847025D01*
X1203074Y847024D01*
X1203120Y847045D01*
X1203168Y847056D01*
X1203197Y847080D01*
X1203232Y847096D01*
X1203263Y847135D01*
X1203302Y847166D01*
X1203317Y847201D01*
X1203341Y847230D01*
X1203352Y847279D01*
X1203373Y847325D01*
X1203371Y847362D01*
X1203380Y847399D01*
X1203368Y847448D01*
X1203366Y847498D01*
X1203348Y847531D01*
X1203339Y847568D01*
X1203307Y847606D01*
X1203283Y847650D01*
X1203253Y847672D01*
X1203228Y847701D01*
X1203173Y847728D01*
X1203142Y847750D01*
X1203119Y847754D01*
X1203098Y847764D01*
X1200712Y848403D01*
X1192980Y852867D01*
X1186667Y859180D01*
X1182203Y866912D01*
X1179893Y875536D01*
X1179893Y884464D01*
X1182203Y893088D01*
X1186667Y900820D01*
X1192980Y907133D01*
X1200712Y911597D01*
X1209336Y913907D01*
X1218264Y913907D01*
X1226888Y911597D01*
X1234620Y907133D01*
X1240933Y900820D01*
X1245397Y893088D01*
X1246998Y887110D01*
X1246998Y887109D01*
X1247707Y884464D01*
X1247707Y875536D01*
X1245397Y866912D01*
X1240933Y859180D01*
X1234620Y852867D01*
X1226888Y848403D01*
X1224502Y847764D01*
X1224469Y847746D01*
X1224432Y847738D01*
X1224393Y847706D01*
X1224349Y847682D01*
X1224327Y847652D01*
X1224298Y847628D01*
X1224278Y847582D01*
X1224249Y847541D01*
X1224243Y847504D01*
X1224227Y847469D01*
X1224229Y847420D01*
X1224221Y847370D01*
X1224232Y847334D01*
X1224234Y847296D01*
X1224258Y847252D01*
X1224272Y847205D01*
X1224298Y847177D01*
X1224317Y847144D01*
X1224357Y847115D01*
X1224392Y847079D01*
X1224427Y847066D01*
X1224458Y847044D01*
X1224519Y847033D01*
X1224554Y847020D01*
X1224578Y847021D01*
X1224601Y847017D01*
X1279199Y847017D01*
X1279236Y847025D01*
X1279274Y847024D01*
X1279320Y847045D01*
X1279368Y847056D01*
X1279397Y847080D01*
X1279432Y847096D01*
X1279463Y847135D01*
X1279502Y847166D01*
X1279517Y847201D01*
X1279541Y847230D01*
X1279552Y847279D01*
X1279573Y847325D01*
X1279571Y847362D01*
X1279580Y847399D01*
X1279568Y847448D01*
X1279566Y847498D01*
X1279548Y847531D01*
X1279539Y847568D01*
X1279507Y847606D01*
X1279483Y847650D01*
X1279453Y847672D01*
X1279428Y847701D01*
X1279373Y847728D01*
X1279342Y847750D01*
X1279319Y847754D01*
X1279298Y847764D01*
X1276912Y848403D01*
X1269180Y852867D01*
X1262867Y859180D01*
X1258403Y866912D01*
X1256093Y875536D01*
X1256093Y884464D01*
X1258403Y893088D01*
X1262867Y900820D01*
X1269180Y907133D01*
X1276912Y911597D01*
X1285536Y913907D01*
X1294464Y913907D01*
X1303088Y911597D01*
X1310820Y907133D01*
X1317133Y900820D01*
X1321597Y893088D01*
X1323198Y887110D01*
X1323198Y887109D01*
X1323907Y884464D01*
X1323907Y875536D01*
X1321597Y866912D01*
X1317133Y859180D01*
X1310820Y852867D01*
X1303088Y848403D01*
X1300702Y847764D01*
X1300669Y847746D01*
X1300632Y847738D01*
X1300593Y847706D01*
X1300549Y847682D01*
X1300527Y847652D01*
X1300498Y847628D01*
X1300478Y847582D01*
X1300449Y847541D01*
X1300443Y847504D01*
X1300427Y847469D01*
X1300429Y847420D01*
X1300421Y847370D01*
X1300432Y847334D01*
X1300434Y847296D01*
X1300458Y847252D01*
X1300472Y847205D01*
X1300498Y847177D01*
X1300517Y847144D01*
X1300557Y847115D01*
X1300592Y847079D01*
X1300627Y847066D01*
X1300658Y847044D01*
X1300719Y847033D01*
X1300754Y847020D01*
X1300778Y847021D01*
X1300801Y847017D01*
X1373137Y847017D01*
X1373211Y847034D01*
X1373286Y847047D01*
X1373296Y847054D01*
X1373306Y847056D01*
X1373335Y847080D01*
X1373406Y847128D01*
X1389372Y863094D01*
X1389412Y863159D01*
X1389456Y863221D01*
X1389458Y863233D01*
X1389463Y863241D01*
X1389467Y863278D01*
X1389483Y863363D01*
X1389483Y942680D01*
X1392683Y950405D01*
X1398648Y956371D01*
X1414628Y972350D01*
X1414642Y972372D01*
X1414662Y972388D01*
X1414687Y972445D01*
X1414719Y972497D01*
X1414722Y972523D01*
X1414732Y972547D01*
X1414730Y972608D01*
X1414736Y972670D01*
X1414727Y972694D01*
X1414726Y972720D01*
X1414696Y972774D01*
X1414674Y972832D01*
X1414655Y972849D01*
X1414643Y972872D01*
X1414593Y972907D01*
X1414547Y972949D01*
X1414522Y972957D01*
X1414501Y972972D01*
X1414417Y972988D01*
X1414381Y972999D01*
X1414371Y972997D01*
X1414359Y972999D01*
X24000Y972999D01*
X23989Y972997D01*
X23975Y972998D01*
X23633Y972976D01*
X23603Y972967D01*
X23560Y972964D01*
X22899Y972787D01*
X22866Y972769D01*
X22808Y972749D01*
X22216Y972407D01*
X22188Y972381D01*
X22137Y972347D01*
X21653Y971863D01*
X21633Y971831D01*
X21593Y971784D01*
X21251Y971192D01*
X21240Y971156D01*
X21213Y971101D01*
X21036Y970440D01*
X21035Y970409D01*
X21024Y970367D01*
X21002Y970025D01*
X21003Y970014D01*
X21001Y970000D01*
X21001Y828719D01*
X21015Y828658D01*
X21021Y828595D01*
X21035Y828574D01*
X21040Y828550D01*
X21080Y828502D01*
X21114Y828449D01*
X21135Y828436D01*
X21150Y828417D01*
X21208Y828391D01*
X21262Y828358D01*
X21286Y828356D01*
X21309Y828346D01*
X21371Y828348D01*
X21434Y828343D01*
X21460Y828352D01*
X21482Y828352D01*
X21515Y828370D01*
X21571Y828390D01*
X26953Y831497D01*
X35550Y833801D01*
X44450Y833801D01*
X53047Y831497D01*
X60754Y827047D01*
X67047Y820754D01*
X71497Y813047D01*
X72030Y811060D01*
X72030Y811059D01*
X72539Y809158D01*
X73801Y804450D01*
X73801Y795550D01*
X71497Y786953D01*
X67047Y779246D01*
X60754Y772953D01*
X53047Y768503D01*
X44450Y766199D01*
X35550Y766199D01*
X26953Y768503D01*
X21571Y771610D01*
X21511Y771628D01*
X21453Y771654D01*
X21429Y771653D01*
X21405Y771660D01*
X21343Y771650D01*
X21280Y771648D01*
X21259Y771636D01*
X21234Y771632D01*
X21183Y771595D01*
X21128Y771565D01*
X21114Y771545D01*
X21094Y771530D01*
X21065Y771475D01*
X21028Y771423D01*
X21023Y771396D01*
X21013Y771377D01*
X21012Y771339D01*
X21001Y771281D01*
X21001Y667388D01*
X21014Y667332D01*
X21014Y667325D01*
X21017Y667321D01*
X21018Y667315D01*
X21030Y667242D01*
X21037Y667232D01*
X21040Y667220D01*
X21088Y667162D01*
X21132Y667101D01*
X21143Y667096D01*
X21150Y667086D01*
X21219Y667056D01*
X21285Y667021D01*
X21297Y667020D01*
X21309Y667015D01*
X21383Y667018D01*
X21458Y667016D01*
X21469Y667021D01*
X21482Y667022D01*
X21547Y667058D01*
X21615Y667089D01*
X21624Y667099D01*
X21634Y667105D01*
X21656Y667135D01*
X21710Y667198D01*
X23794Y670807D01*
X29193Y676206D01*
X35806Y680024D01*
X43182Y682001D01*
X50818Y682001D01*
X58194Y680024D01*
X59510Y679265D01*
X59547Y679253D01*
X59581Y679233D01*
X59629Y679229D01*
X59676Y679214D01*
X59714Y679221D01*
X59753Y679217D01*
X59810Y679237D01*
X59847Y679243D01*
X59864Y679256D01*
X59890Y679265D01*
X61206Y680024D01*
X68582Y682001D01*
X76218Y682001D01*
X83594Y680024D01*
X90207Y676206D01*
X95606Y670807D01*
X99424Y664194D01*
X101401Y656818D01*
X101401Y649182D01*
X99424Y641806D01*
X98665Y640490D01*
X98653Y640453D01*
X98633Y640419D01*
X98629Y640371D01*
X98614Y640324D01*
X98621Y640286D01*
X98617Y640247D01*
X98637Y640190D01*
X98643Y640153D01*
X98656Y640136D01*
X98665Y640110D01*
X99424Y638794D01*
X99523Y638426D01*
X100338Y635384D01*
X101401Y631418D01*
X101401Y625998D01*
X101410Y625961D01*
X101408Y625922D01*
X101429Y625877D01*
X101440Y625829D01*
X101465Y625800D01*
X101481Y625765D01*
X101519Y625734D01*
X101550Y625696D01*
X101586Y625680D01*
X101615Y625656D01*
X101664Y625645D01*
X101709Y625625D01*
X101747Y625626D01*
X101785Y625618D01*
X101844Y625630D01*
X101882Y625631D01*
X101900Y625641D01*
X101927Y625647D01*
X102820Y626017D01*
X210209Y626017D01*
X217934Y622817D01*
X223900Y616852D01*
X238623Y602128D01*
X238688Y602088D01*
X238750Y602044D01*
X238762Y602042D01*
X238770Y602037D01*
X238807Y602033D01*
X238892Y602017D01*
X757153Y602017D01*
X757215Y602031D01*
G37*
G36*
X294473Y21007D02*
X294473Y21007D01*
X294498Y21004D01*
X294556Y21026D01*
X294616Y21040D01*
X294636Y21057D01*
X294660Y21066D01*
X294702Y21111D01*
X294750Y21150D01*
X294760Y21174D01*
X294778Y21193D01*
X294795Y21252D01*
X294821Y21309D01*
X294820Y21334D01*
X294827Y21359D01*
X294816Y21420D01*
X294814Y21482D01*
X294802Y21504D01*
X294797Y21530D01*
X294749Y21601D01*
X294731Y21634D01*
X294723Y21640D01*
X294716Y21650D01*
X289838Y26528D01*
X286217Y35269D01*
X286217Y44731D01*
X288340Y49854D01*
X288352Y49930D01*
X288369Y50004D01*
X288366Y50016D01*
X288368Y50025D01*
X288357Y50061D01*
X288340Y50146D01*
X286217Y55269D01*
X286217Y64731D01*
X288340Y69854D01*
X288352Y69930D01*
X288369Y70004D01*
X288366Y70016D01*
X288368Y70025D01*
X288357Y70061D01*
X288340Y70146D01*
X286217Y75269D01*
X286217Y84731D01*
X288340Y89854D01*
X288352Y89930D01*
X288369Y90004D01*
X288366Y90016D01*
X288368Y90025D01*
X288357Y90061D01*
X288340Y90146D01*
X286217Y95269D01*
X286217Y104731D01*
X288340Y109854D01*
X288345Y109890D01*
X288353Y109907D01*
X288352Y109930D01*
X288369Y110004D01*
X288366Y110016D01*
X288368Y110025D01*
X288357Y110061D01*
X288340Y110146D01*
X286217Y115269D01*
X286217Y124731D01*
X288340Y129854D01*
X288352Y129930D01*
X288369Y130004D01*
X288366Y130016D01*
X288368Y130025D01*
X288357Y130061D01*
X288340Y130146D01*
X286217Y135269D01*
X286217Y144731D01*
X288340Y149854D01*
X288352Y149930D01*
X288369Y150004D01*
X288366Y150016D01*
X288368Y150025D01*
X288357Y150061D01*
X288340Y150146D01*
X286217Y155269D01*
X286217Y164731D01*
X288340Y169854D01*
X288352Y169930D01*
X288369Y170004D01*
X288366Y170016D01*
X288368Y170025D01*
X288357Y170061D01*
X288340Y170146D01*
X286217Y175269D01*
X286217Y184731D01*
X288340Y189854D01*
X288352Y189930D01*
X288369Y190004D01*
X288366Y190016D01*
X288368Y190025D01*
X288357Y190061D01*
X288340Y190146D01*
X286217Y195269D01*
X286217Y204731D01*
X289838Y213472D01*
X296528Y220162D01*
X305269Y223783D01*
X314731Y223783D01*
X319854Y221660D01*
X319930Y221648D01*
X320004Y221631D01*
X320016Y221634D01*
X320025Y221632D01*
X320061Y221643D01*
X320146Y221660D01*
X325269Y223783D01*
X334731Y223783D01*
X339854Y221660D01*
X339930Y221648D01*
X340004Y221631D01*
X340016Y221634D01*
X340025Y221632D01*
X340061Y221643D01*
X340146Y221660D01*
X345269Y223783D01*
X354731Y223783D01*
X359854Y221660D01*
X359930Y221648D01*
X360004Y221631D01*
X360016Y221634D01*
X360025Y221632D01*
X360061Y221643D01*
X360146Y221660D01*
X365269Y223783D01*
X374731Y223783D01*
X379854Y221660D01*
X379930Y221648D01*
X380004Y221631D01*
X380016Y221634D01*
X380025Y221632D01*
X380061Y221643D01*
X380146Y221660D01*
X385269Y223783D01*
X394731Y223783D01*
X403472Y220162D01*
X410162Y213472D01*
X413783Y204731D01*
X413783Y195269D01*
X411660Y190146D01*
X411648Y190070D01*
X411631Y189996D01*
X411634Y189984D01*
X411632Y189975D01*
X411643Y189939D01*
X411660Y189854D01*
X413783Y184731D01*
X413783Y175269D01*
X411660Y170146D01*
X411648Y170070D01*
X411631Y169996D01*
X411634Y169984D01*
X411632Y169975D01*
X411643Y169939D01*
X411660Y169854D01*
X413783Y164731D01*
X413783Y155269D01*
X411660Y150146D01*
X411648Y150070D01*
X411631Y149996D01*
X411634Y149984D01*
X411632Y149975D01*
X411643Y149939D01*
X411660Y149854D01*
X413783Y144731D01*
X413783Y135269D01*
X411660Y130146D01*
X411648Y130070D01*
X411631Y129996D01*
X411634Y129984D01*
X411632Y129975D01*
X411643Y129939D01*
X411660Y129854D01*
X413783Y124731D01*
X413783Y115269D01*
X411660Y110146D01*
X411648Y110070D01*
X411631Y109996D01*
X411634Y109984D01*
X411632Y109975D01*
X411643Y109939D01*
X411653Y109890D01*
X411654Y109879D01*
X411657Y109873D01*
X411660Y109854D01*
X413783Y104731D01*
X413783Y95269D01*
X411660Y90146D01*
X411648Y90070D01*
X411631Y89996D01*
X411634Y89984D01*
X411632Y89975D01*
X411643Y89939D01*
X411660Y89854D01*
X413783Y84731D01*
X413783Y75269D01*
X411660Y70146D01*
X411648Y70070D01*
X411631Y69996D01*
X411634Y69984D01*
X411632Y69975D01*
X411643Y69939D01*
X411660Y69854D01*
X413783Y64731D01*
X413783Y55269D01*
X411660Y50146D01*
X411648Y50070D01*
X411631Y49996D01*
X411634Y49984D01*
X411632Y49975D01*
X411643Y49939D01*
X411660Y49854D01*
X413783Y44731D01*
X413783Y35269D01*
X410162Y26528D01*
X405284Y21650D01*
X405270Y21628D01*
X405250Y21612D01*
X405225Y21555D01*
X405192Y21503D01*
X405190Y21477D01*
X405179Y21453D01*
X405182Y21392D01*
X405176Y21330D01*
X405185Y21306D01*
X405186Y21280D01*
X405215Y21226D01*
X405237Y21168D01*
X405256Y21151D01*
X405269Y21128D01*
X405319Y21093D01*
X405364Y21051D01*
X405389Y21043D01*
X405410Y21028D01*
X405495Y21012D01*
X405531Y21001D01*
X405541Y21003D01*
X405553Y21001D01*
X475265Y21001D01*
X475327Y21015D01*
X475389Y21021D01*
X475410Y21035D01*
X475434Y21040D01*
X475483Y21080D01*
X475536Y21114D01*
X475549Y21135D01*
X475568Y21150D01*
X475594Y21208D01*
X475626Y21262D01*
X475629Y21286D01*
X475639Y21309D01*
X475636Y21371D01*
X475642Y21434D01*
X475633Y21460D01*
X475632Y21482D01*
X475614Y21515D01*
X475595Y21571D01*
X471884Y27999D01*
X471388Y29847D01*
X470879Y31748D01*
X470370Y33650D01*
X467999Y42496D01*
X467999Y57504D01*
X471884Y72001D01*
X479388Y84999D01*
X490001Y95612D01*
X502999Y103116D01*
X517496Y107001D01*
X532504Y107001D01*
X547001Y103116D01*
X559999Y95612D01*
X570612Y84999D01*
X572171Y82299D01*
X572214Y82253D01*
X572251Y82202D01*
X572272Y82191D01*
X572289Y82173D01*
X572348Y82151D01*
X572404Y82122D01*
X572428Y82121D01*
X572452Y82112D01*
X572514Y82119D01*
X572577Y82117D01*
X572599Y82128D01*
X572624Y82130D01*
X572677Y82163D01*
X572734Y82190D01*
X572752Y82211D01*
X572771Y82222D01*
X572790Y82254D01*
X572829Y82299D01*
X574388Y84999D01*
X585001Y95612D01*
X597999Y103116D01*
X612496Y107001D01*
X627504Y107001D01*
X642001Y103116D01*
X654999Y95612D01*
X665612Y84999D01*
X670113Y77203D01*
X670122Y77193D01*
X670127Y77181D01*
X670181Y77131D01*
X670232Y77077D01*
X670244Y77072D01*
X670254Y77063D01*
X670325Y77042D01*
X670394Y77016D01*
X670407Y77018D01*
X670420Y77014D01*
X670493Y77026D01*
X670566Y77034D01*
X670578Y77041D01*
X670591Y77043D01*
X670711Y77124D01*
X672193Y78606D01*
X678806Y82424D01*
X686182Y84401D01*
X693818Y84401D01*
X701194Y82424D01*
X702510Y81665D01*
X702547Y81653D01*
X702581Y81633D01*
X702629Y81629D01*
X702676Y81614D01*
X702714Y81621D01*
X702753Y81617D01*
X702810Y81637D01*
X702847Y81643D01*
X702864Y81656D01*
X702890Y81665D01*
X704206Y82424D01*
X711582Y84401D01*
X719218Y84401D01*
X726594Y82424D01*
X727910Y81665D01*
X727947Y81653D01*
X727981Y81633D01*
X728029Y81629D01*
X728076Y81614D01*
X728114Y81621D01*
X728153Y81617D01*
X728210Y81637D01*
X728247Y81643D01*
X728264Y81656D01*
X728290Y81665D01*
X729606Y82424D01*
X736982Y84401D01*
X744618Y84401D01*
X751994Y82424D01*
X753310Y81665D01*
X753347Y81653D01*
X753381Y81633D01*
X753429Y81629D01*
X753476Y81614D01*
X753514Y81621D01*
X753553Y81617D01*
X753610Y81637D01*
X753647Y81643D01*
X753664Y81656D01*
X753690Y81665D01*
X755006Y82424D01*
X762382Y84401D01*
X770018Y84401D01*
X777394Y82424D01*
X778710Y81665D01*
X778747Y81653D01*
X778781Y81633D01*
X778829Y81629D01*
X778876Y81614D01*
X778914Y81621D01*
X778953Y81617D01*
X779010Y81637D01*
X779047Y81643D01*
X779064Y81656D01*
X779090Y81665D01*
X780406Y82424D01*
X787782Y84401D01*
X790269Y84401D01*
X790319Y84412D01*
X790370Y84414D01*
X790402Y84432D01*
X790438Y84440D01*
X790477Y84473D01*
X790522Y84497D01*
X790543Y84527D01*
X790571Y84550D01*
X790592Y84597D01*
X790622Y84639D01*
X790630Y84681D01*
X790642Y84709D01*
X790641Y84739D01*
X790649Y84781D01*
X790649Y276269D01*
X790638Y276319D01*
X790636Y276370D01*
X790618Y276402D01*
X790610Y276438D01*
X790577Y276477D01*
X790553Y276522D01*
X790523Y276543D01*
X790500Y276571D01*
X790453Y276592D01*
X790411Y276622D01*
X790369Y276630D01*
X790341Y276642D01*
X790311Y276641D01*
X790269Y276649D01*
X769531Y276649D01*
X762829Y278445D01*
X756820Y281914D01*
X738914Y299820D01*
X735445Y305829D01*
X735016Y307430D01*
X733895Y311612D01*
X733649Y312531D01*
X733649Y426928D01*
X733632Y427002D01*
X733619Y427076D01*
X733612Y427087D01*
X733610Y427096D01*
X733586Y427125D01*
X733538Y427197D01*
X694197Y466538D01*
X694132Y466578D01*
X694070Y466622D01*
X694058Y466624D01*
X694049Y466629D01*
X694012Y466633D01*
X693928Y466649D01*
X57531Y466649D01*
X50829Y468445D01*
X44820Y471914D01*
X25914Y490820D01*
X22445Y496829D01*
X22352Y497174D01*
X21945Y498695D01*
X21748Y499429D01*
X21730Y499463D01*
X21722Y499500D01*
X21690Y499538D01*
X21666Y499582D01*
X21636Y499604D01*
X21612Y499633D01*
X21566Y499654D01*
X21525Y499683D01*
X21488Y499689D01*
X21453Y499704D01*
X21404Y499702D01*
X21354Y499710D01*
X21318Y499699D01*
X21280Y499698D01*
X21236Y499674D01*
X21189Y499659D01*
X21161Y499633D01*
X21128Y499615D01*
X21099Y499574D01*
X21063Y499540D01*
X21050Y499504D01*
X21028Y499473D01*
X21017Y499413D01*
X21004Y499377D01*
X21005Y499354D01*
X21001Y499331D01*
X21001Y99735D01*
X21015Y99673D01*
X21021Y99611D01*
X21035Y99590D01*
X21040Y99566D01*
X21080Y99517D01*
X21114Y99464D01*
X21135Y99451D01*
X21150Y99432D01*
X21208Y99406D01*
X21262Y99374D01*
X21286Y99371D01*
X21309Y99361D01*
X21371Y99364D01*
X21434Y99358D01*
X21460Y99367D01*
X21482Y99368D01*
X21515Y99386D01*
X21571Y99405D01*
X27999Y103116D01*
X42496Y107001D01*
X57504Y107001D01*
X72001Y103116D01*
X84999Y95612D01*
X95612Y84999D01*
X103116Y72001D01*
X104073Y68431D01*
X104582Y66530D01*
X105092Y64629D01*
X105601Y62728D01*
X105601Y62727D01*
X107001Y57504D01*
X107001Y42496D01*
X103116Y27999D01*
X99405Y21571D01*
X99387Y21511D01*
X99361Y21453D01*
X99362Y21429D01*
X99355Y21405D01*
X99366Y21343D01*
X99368Y21280D01*
X99380Y21259D01*
X99384Y21234D01*
X99421Y21183D01*
X99451Y21128D01*
X99471Y21114D01*
X99485Y21094D01*
X99541Y21065D01*
X99592Y21028D01*
X99620Y21023D01*
X99638Y21013D01*
X99676Y21012D01*
X99735Y21001D01*
X294447Y21001D01*
X294473Y21007D01*
G37*
%LPC*%
G36*
X662496Y142999D02*
X662496Y142999D01*
X647999Y146884D01*
X635001Y154388D01*
X624388Y165001D01*
X616884Y177999D01*
X616641Y178905D01*
X612999Y192496D01*
X612999Y207504D01*
X616884Y222001D01*
X624388Y234999D01*
X632219Y242830D01*
X632246Y242873D01*
X632281Y242911D01*
X632291Y242946D01*
X632310Y242977D01*
X632315Y243028D01*
X632330Y243077D01*
X632323Y243113D01*
X632327Y243150D01*
X632309Y243197D01*
X632300Y243248D01*
X632276Y243283D01*
X632265Y243312D01*
X632243Y243332D01*
X632219Y243368D01*
X631394Y244193D01*
X627576Y250806D01*
X627075Y252674D01*
X625599Y258182D01*
X625599Y265818D01*
X627576Y273194D01*
X628335Y274510D01*
X628347Y274547D01*
X628367Y274581D01*
X628371Y274629D01*
X628386Y274676D01*
X628379Y274714D01*
X628383Y274753D01*
X628363Y274810D01*
X628357Y274847D01*
X628344Y274864D01*
X628335Y274890D01*
X627576Y276206D01*
X627360Y277010D01*
X626545Y280052D01*
X625730Y283094D01*
X625599Y283582D01*
X625599Y291218D01*
X627576Y298594D01*
X628335Y299910D01*
X628347Y299947D01*
X628367Y299981D01*
X628370Y300017D01*
X628377Y300032D01*
X628376Y300045D01*
X628386Y300076D01*
X628379Y300114D01*
X628383Y300153D01*
X628371Y300187D01*
X628370Y300205D01*
X628361Y300222D01*
X628357Y300247D01*
X628344Y300264D01*
X628335Y300290D01*
X627576Y301606D01*
X625599Y308982D01*
X625599Y316618D01*
X627576Y323994D01*
X628335Y325310D01*
X628347Y325347D01*
X628367Y325381D01*
X628371Y325429D01*
X628386Y325476D01*
X628379Y325514D01*
X628383Y325553D01*
X628363Y325610D01*
X628357Y325647D01*
X628344Y325664D01*
X628335Y325690D01*
X627576Y327006D01*
X626810Y329864D01*
X625599Y334382D01*
X625599Y342018D01*
X627576Y349394D01*
X628335Y350710D01*
X628347Y350747D01*
X628367Y350781D01*
X628371Y350829D01*
X628386Y350876D01*
X628379Y350914D01*
X628383Y350953D01*
X628363Y351010D01*
X628357Y351047D01*
X628344Y351064D01*
X628335Y351090D01*
X627576Y352406D01*
X626280Y357242D01*
X625599Y359782D01*
X625599Y367418D01*
X627576Y374794D01*
X628335Y376110D01*
X628347Y376147D01*
X628367Y376181D01*
X628371Y376229D01*
X628386Y376276D01*
X628379Y376314D01*
X628383Y376353D01*
X628363Y376410D01*
X628357Y376447D01*
X628344Y376464D01*
X628335Y376490D01*
X627576Y377806D01*
X625599Y385182D01*
X625599Y392818D01*
X627576Y400194D01*
X631394Y406807D01*
X636793Y412206D01*
X643406Y416024D01*
X650782Y418001D01*
X658418Y418001D01*
X665794Y416024D01*
X667110Y415265D01*
X667147Y415253D01*
X667181Y415233D01*
X667229Y415229D01*
X667276Y415214D01*
X667314Y415221D01*
X667353Y415217D01*
X667410Y415237D01*
X667447Y415243D01*
X667464Y415256D01*
X667490Y415265D01*
X668806Y416024D01*
X676182Y418001D01*
X683818Y418001D01*
X691194Y416024D01*
X697807Y412206D01*
X703206Y406807D01*
X707024Y400194D01*
X707685Y397728D01*
X709001Y392818D01*
X709001Y385182D01*
X707024Y377806D01*
X706265Y376490D01*
X706253Y376453D01*
X706233Y376419D01*
X706229Y376371D01*
X706214Y376324D01*
X706221Y376286D01*
X706217Y376247D01*
X706237Y376190D01*
X706243Y376153D01*
X706256Y376136D01*
X706265Y376110D01*
X707024Y374794D01*
X708215Y370350D01*
X709001Y367418D01*
X709001Y359782D01*
X707024Y352406D01*
X706265Y351090D01*
X706253Y351053D01*
X706233Y351019D01*
X706229Y350971D01*
X706214Y350924D01*
X706221Y350886D01*
X706217Y350847D01*
X706237Y350790D01*
X706243Y350753D01*
X706256Y350736D01*
X706265Y350710D01*
X707024Y349394D01*
X709001Y342018D01*
X709001Y334382D01*
X707024Y327006D01*
X706265Y325690D01*
X706253Y325653D01*
X706233Y325619D01*
X706229Y325571D01*
X706214Y325524D01*
X706221Y325486D01*
X706217Y325447D01*
X706237Y325390D01*
X706243Y325353D01*
X706256Y325336D01*
X706265Y325310D01*
X707024Y323994D01*
X707136Y323579D01*
X707951Y320537D01*
X708766Y317495D01*
X709001Y316618D01*
X709001Y308982D01*
X707024Y301606D01*
X706265Y300290D01*
X706253Y300253D01*
X706233Y300219D01*
X706231Y300194D01*
X706223Y300177D01*
X706224Y300155D01*
X706214Y300124D01*
X706221Y300086D01*
X706217Y300047D01*
X706229Y300012D01*
X706230Y300004D01*
X706237Y299990D01*
X706243Y299953D01*
X706256Y299936D01*
X706265Y299910D01*
X707024Y298594D01*
X709001Y291218D01*
X709001Y283582D01*
X707024Y276206D01*
X706265Y274890D01*
X706253Y274853D01*
X706233Y274819D01*
X706229Y274771D01*
X706214Y274724D01*
X706221Y274686D01*
X706217Y274647D01*
X706237Y274590D01*
X706243Y274553D01*
X706256Y274536D01*
X706265Y274510D01*
X707024Y273194D01*
X707686Y270724D01*
X709001Y265818D01*
X709001Y258182D01*
X707024Y250806D01*
X704459Y246363D01*
X704444Y246314D01*
X704420Y246269D01*
X704420Y246232D01*
X704409Y246197D01*
X704417Y246147D01*
X704416Y246096D01*
X704431Y246062D01*
X704438Y246026D01*
X704467Y245985D01*
X704489Y245938D01*
X704521Y245911D01*
X704539Y245886D01*
X704566Y245871D01*
X704598Y245843D01*
X704999Y245612D01*
X715612Y234999D01*
X723116Y222001D01*
X725854Y211786D01*
X725854Y211785D01*
X726363Y209884D01*
X726872Y207983D01*
X727001Y207504D01*
X727001Y192496D01*
X723116Y177999D01*
X715612Y165001D01*
X704999Y154388D01*
X692001Y146884D01*
X677504Y142999D01*
X662496Y142999D01*
G37*
%LPD*%
G36*
X757932Y477579D02*
X757932Y477579D01*
X757958Y477580D01*
X758012Y477609D01*
X758070Y477631D01*
X758087Y477650D01*
X758110Y477662D01*
X758145Y477713D01*
X758187Y477758D01*
X758195Y477783D01*
X758210Y477804D01*
X758226Y477889D01*
X758237Y477924D01*
X758235Y477934D01*
X758237Y477946D01*
X758237Y542857D01*
X758226Y542907D01*
X758224Y542958D01*
X758206Y542990D01*
X758198Y543026D01*
X758165Y543065D01*
X758141Y543110D01*
X758111Y543131D01*
X758088Y543159D01*
X758041Y543180D01*
X757999Y543210D01*
X757957Y543218D01*
X757929Y543230D01*
X757899Y543229D01*
X757857Y543237D01*
X115758Y543237D01*
X115684Y543220D01*
X115609Y543207D01*
X115599Y543200D01*
X115589Y543198D01*
X115560Y543174D01*
X115489Y543126D01*
X101512Y529149D01*
X101472Y529085D01*
X101428Y529023D01*
X101426Y529010D01*
X101421Y529002D01*
X101417Y528965D01*
X101401Y528880D01*
X101401Y522182D01*
X100770Y519829D01*
X100770Y519816D01*
X100764Y519803D01*
X100767Y519730D01*
X100765Y519656D01*
X100770Y519644D01*
X100771Y519630D01*
X100806Y519566D01*
X100837Y519499D01*
X100847Y519490D01*
X100854Y519478D01*
X100914Y519436D01*
X100971Y519389D01*
X100984Y519386D01*
X100995Y519378D01*
X101138Y519351D01*
X708469Y519351D01*
X715171Y517555D01*
X721180Y514086D01*
X726121Y509144D01*
X757588Y477677D01*
X757610Y477664D01*
X757626Y477644D01*
X757683Y477619D01*
X757735Y477586D01*
X757761Y477584D01*
X757785Y477573D01*
X757846Y477575D01*
X757908Y477569D01*
X757932Y477579D01*
G37*
%LPC*%
G36*
X1516182Y133999D02*
X1516182Y133999D01*
X1508806Y135976D01*
X1502193Y139794D01*
X1496794Y145193D01*
X1492976Y151806D01*
X1490999Y159182D01*
X1490999Y166818D01*
X1492976Y174194D01*
X1493735Y175510D01*
X1493747Y175547D01*
X1493767Y175581D01*
X1493771Y175629D01*
X1493786Y175676D01*
X1493779Y175714D01*
X1493783Y175753D01*
X1493763Y175810D01*
X1493757Y175847D01*
X1493744Y175864D01*
X1493735Y175890D01*
X1492976Y177206D01*
X1492317Y179666D01*
X1490999Y184582D01*
X1490999Y192218D01*
X1492976Y199594D01*
X1493735Y200910D01*
X1493747Y200947D01*
X1493767Y200981D01*
X1493771Y201029D01*
X1493786Y201076D01*
X1493779Y201114D01*
X1493783Y201153D01*
X1493763Y201210D01*
X1493757Y201247D01*
X1493744Y201264D01*
X1493735Y201290D01*
X1492976Y202606D01*
X1491787Y207044D01*
X1490999Y209982D01*
X1490999Y217618D01*
X1492976Y224994D01*
X1493735Y226310D01*
X1493747Y226347D01*
X1493767Y226381D01*
X1493771Y226429D01*
X1493786Y226476D01*
X1493779Y226514D01*
X1493783Y226553D01*
X1493763Y226610D01*
X1493757Y226647D01*
X1493744Y226664D01*
X1493735Y226690D01*
X1492976Y228006D01*
X1490999Y235382D01*
X1490999Y243018D01*
X1492976Y250394D01*
X1493735Y251710D01*
X1493747Y251747D01*
X1493767Y251781D01*
X1493771Y251829D01*
X1493786Y251876D01*
X1493779Y251914D01*
X1493783Y251953D01*
X1493763Y252010D01*
X1493757Y252047D01*
X1493744Y252064D01*
X1493735Y252090D01*
X1492976Y253406D01*
X1492866Y253814D01*
X1492051Y256856D01*
X1491236Y259898D01*
X1490999Y260782D01*
X1490999Y268418D01*
X1492976Y275794D01*
X1493735Y277110D01*
X1493747Y277147D01*
X1493767Y277181D01*
X1493770Y277209D01*
X1493773Y277217D01*
X1493773Y277233D01*
X1493786Y277276D01*
X1493779Y277314D01*
X1493783Y277353D01*
X1493763Y277410D01*
X1493757Y277447D01*
X1493744Y277464D01*
X1493735Y277490D01*
X1492976Y278806D01*
X1490999Y286182D01*
X1490999Y293818D01*
X1492976Y301194D01*
X1496794Y307807D01*
X1502193Y313206D01*
X1508806Y317024D01*
X1516182Y319001D01*
X1523818Y319001D01*
X1531194Y317024D01*
X1532510Y316265D01*
X1532547Y316253D01*
X1532581Y316233D01*
X1532629Y316229D01*
X1532676Y316214D01*
X1532714Y316221D01*
X1532753Y316217D01*
X1532810Y316237D01*
X1532847Y316243D01*
X1532864Y316256D01*
X1532890Y316265D01*
X1534206Y317024D01*
X1541582Y319001D01*
X1549218Y319001D01*
X1556594Y317024D01*
X1563207Y313206D01*
X1568606Y307807D01*
X1572424Y301194D01*
X1572641Y300384D01*
X1573457Y297342D01*
X1574272Y294300D01*
X1574401Y293818D01*
X1574401Y286182D01*
X1572424Y278806D01*
X1571665Y277490D01*
X1571653Y277453D01*
X1571633Y277419D01*
X1571629Y277371D01*
X1571614Y277324D01*
X1571621Y277286D01*
X1571617Y277247D01*
X1571633Y277202D01*
X1571633Y277189D01*
X1571639Y277179D01*
X1571643Y277153D01*
X1571656Y277136D01*
X1571665Y277110D01*
X1572424Y275794D01*
X1574401Y268418D01*
X1574401Y260782D01*
X1572424Y253406D01*
X1571665Y252090D01*
X1571653Y252053D01*
X1571633Y252019D01*
X1571629Y251971D01*
X1571614Y251924D01*
X1571621Y251886D01*
X1571617Y251847D01*
X1571637Y251790D01*
X1571643Y251753D01*
X1571656Y251736D01*
X1571665Y251710D01*
X1572424Y250394D01*
X1573192Y247529D01*
X1574401Y243018D01*
X1574401Y235382D01*
X1572424Y228006D01*
X1571665Y226690D01*
X1571653Y226653D01*
X1571633Y226619D01*
X1571629Y226571D01*
X1571614Y226524D01*
X1571621Y226486D01*
X1571617Y226447D01*
X1571637Y226390D01*
X1571643Y226353D01*
X1571656Y226336D01*
X1571665Y226310D01*
X1572424Y224994D01*
X1573722Y220151D01*
X1574401Y217618D01*
X1574401Y209982D01*
X1572424Y202606D01*
X1571665Y201290D01*
X1571653Y201253D01*
X1571633Y201219D01*
X1571629Y201171D01*
X1571614Y201124D01*
X1571621Y201086D01*
X1571617Y201047D01*
X1571637Y200990D01*
X1571643Y200953D01*
X1571656Y200936D01*
X1571665Y200910D01*
X1572424Y199594D01*
X1574401Y192218D01*
X1574401Y184582D01*
X1572424Y177206D01*
X1571665Y175890D01*
X1571653Y175853D01*
X1571633Y175819D01*
X1571629Y175771D01*
X1571614Y175724D01*
X1571621Y175686D01*
X1571617Y175647D01*
X1571637Y175590D01*
X1571643Y175553D01*
X1571656Y175536D01*
X1571665Y175510D01*
X1572424Y174194D01*
X1572642Y173380D01*
X1573457Y170338D01*
X1573458Y170338D01*
X1574273Y167296D01*
X1574401Y166818D01*
X1574401Y159182D01*
X1572424Y151806D01*
X1568606Y145193D01*
X1563207Y139794D01*
X1556594Y135976D01*
X1549218Y133999D01*
X1541582Y133999D01*
X1534206Y135976D01*
X1532890Y136735D01*
X1532853Y136747D01*
X1532819Y136767D01*
X1532771Y136771D01*
X1532724Y136786D01*
X1532686Y136779D01*
X1532647Y136783D01*
X1532590Y136763D01*
X1532553Y136757D01*
X1532536Y136744D01*
X1532510Y136735D01*
X1531194Y135976D01*
X1523818Y133999D01*
X1516182Y133999D01*
G37*
%LPD*%
%LPC*%
G36*
X506182Y133999D02*
X506182Y133999D01*
X498806Y135976D01*
X492193Y139794D01*
X486794Y145193D01*
X482976Y151806D01*
X480999Y159182D01*
X480999Y166818D01*
X482976Y174194D01*
X483735Y175510D01*
X483747Y175547D01*
X483767Y175581D01*
X483771Y175629D01*
X483786Y175676D01*
X483779Y175714D01*
X483783Y175753D01*
X483763Y175810D01*
X483757Y175847D01*
X483744Y175864D01*
X483735Y175890D01*
X482976Y177206D01*
X482317Y179666D01*
X480999Y184582D01*
X480999Y192218D01*
X482976Y199594D01*
X483735Y200910D01*
X483747Y200947D01*
X483767Y200981D01*
X483771Y201029D01*
X483786Y201076D01*
X483779Y201114D01*
X483783Y201153D01*
X483763Y201210D01*
X483757Y201247D01*
X483744Y201264D01*
X483735Y201290D01*
X482976Y202606D01*
X481787Y207044D01*
X480999Y209982D01*
X480999Y217618D01*
X482976Y224994D01*
X483735Y226310D01*
X483747Y226347D01*
X483767Y226381D01*
X483771Y226429D01*
X483786Y226476D01*
X483779Y226514D01*
X483783Y226553D01*
X483763Y226610D01*
X483757Y226647D01*
X483744Y226664D01*
X483735Y226690D01*
X482976Y228006D01*
X480999Y235382D01*
X480999Y243018D01*
X482976Y250394D01*
X483735Y251710D01*
X483747Y251747D01*
X483767Y251781D01*
X483771Y251829D01*
X483786Y251876D01*
X483779Y251914D01*
X483783Y251953D01*
X483763Y252010D01*
X483757Y252047D01*
X483744Y252064D01*
X483735Y252090D01*
X482976Y253406D01*
X482866Y253814D01*
X482051Y256856D01*
X481236Y259898D01*
X480999Y260782D01*
X480999Y268418D01*
X482976Y275794D01*
X483735Y277110D01*
X483747Y277147D01*
X483767Y277181D01*
X483770Y277209D01*
X483773Y277217D01*
X483773Y277233D01*
X483786Y277276D01*
X483779Y277314D01*
X483783Y277353D01*
X483763Y277410D01*
X483757Y277447D01*
X483744Y277464D01*
X483735Y277490D01*
X482976Y278806D01*
X480999Y286182D01*
X480999Y293818D01*
X482976Y301194D01*
X486794Y307807D01*
X492193Y313206D01*
X498806Y317024D01*
X506182Y319001D01*
X513818Y319001D01*
X521194Y317024D01*
X522510Y316265D01*
X522547Y316253D01*
X522581Y316233D01*
X522629Y316229D01*
X522676Y316214D01*
X522714Y316221D01*
X522753Y316217D01*
X522810Y316237D01*
X522847Y316243D01*
X522864Y316256D01*
X522890Y316265D01*
X524206Y317024D01*
X531582Y319001D01*
X539218Y319001D01*
X546594Y317024D01*
X553207Y313206D01*
X558606Y307807D01*
X562424Y301194D01*
X562641Y300384D01*
X563457Y297342D01*
X564272Y294300D01*
X564401Y293818D01*
X564401Y286182D01*
X562424Y278806D01*
X561665Y277490D01*
X561653Y277453D01*
X561633Y277419D01*
X561629Y277371D01*
X561614Y277324D01*
X561621Y277286D01*
X561617Y277247D01*
X561633Y277202D01*
X561633Y277189D01*
X561639Y277179D01*
X561643Y277153D01*
X561656Y277136D01*
X561665Y277110D01*
X562424Y275794D01*
X564401Y268418D01*
X564401Y260782D01*
X562424Y253406D01*
X561665Y252090D01*
X561653Y252053D01*
X561633Y252019D01*
X561629Y251971D01*
X561614Y251924D01*
X561621Y251886D01*
X561617Y251847D01*
X561637Y251790D01*
X561643Y251753D01*
X561656Y251736D01*
X561665Y251710D01*
X562424Y250394D01*
X563192Y247529D01*
X564401Y243018D01*
X564401Y235382D01*
X562424Y228006D01*
X561665Y226690D01*
X561653Y226653D01*
X561633Y226619D01*
X561629Y226571D01*
X561614Y226524D01*
X561621Y226486D01*
X561617Y226447D01*
X561637Y226390D01*
X561643Y226353D01*
X561656Y226336D01*
X561665Y226310D01*
X562424Y224994D01*
X563722Y220151D01*
X564401Y217618D01*
X564401Y209982D01*
X562424Y202606D01*
X561665Y201290D01*
X561653Y201253D01*
X561633Y201219D01*
X561629Y201171D01*
X561614Y201124D01*
X561621Y201086D01*
X561617Y201047D01*
X561637Y200990D01*
X561643Y200953D01*
X561656Y200936D01*
X561665Y200910D01*
X562424Y199594D01*
X564401Y192218D01*
X564401Y184582D01*
X562424Y177206D01*
X561665Y175890D01*
X561653Y175853D01*
X561633Y175819D01*
X561629Y175771D01*
X561614Y175724D01*
X561621Y175686D01*
X561617Y175647D01*
X561637Y175590D01*
X561643Y175553D01*
X561656Y175536D01*
X561665Y175510D01*
X562424Y174194D01*
X562642Y173380D01*
X563457Y170338D01*
X563458Y170338D01*
X564273Y167296D01*
X564401Y166818D01*
X564401Y159182D01*
X562424Y151806D01*
X558606Y145193D01*
X553207Y139794D01*
X546594Y135976D01*
X539218Y133999D01*
X531582Y133999D01*
X524206Y135976D01*
X522890Y136735D01*
X522853Y136747D01*
X522819Y136767D01*
X522771Y136771D01*
X522724Y136786D01*
X522686Y136779D01*
X522647Y136783D01*
X522590Y136763D01*
X522553Y136757D01*
X522536Y136744D01*
X522510Y136735D01*
X521194Y135976D01*
X513818Y133999D01*
X506182Y133999D01*
G37*
%LPD*%
%LPC*%
G36*
X517496Y602999D02*
X517496Y602999D01*
X502999Y606884D01*
X490001Y614388D01*
X479388Y625001D01*
X471884Y637999D01*
X470798Y642050D01*
X470289Y643951D01*
X469779Y645852D01*
X469270Y647753D01*
X467999Y652496D01*
X467999Y667504D01*
X471884Y682001D01*
X479388Y694999D01*
X490001Y705612D01*
X502999Y713116D01*
X517496Y717001D01*
X532504Y717001D01*
X547001Y713116D01*
X559999Y705612D01*
X570612Y694999D01*
X578116Y682001D01*
X578483Y680634D01*
X578992Y678733D01*
X578992Y678732D01*
X579502Y676831D01*
X580011Y674930D01*
X582001Y667504D01*
X582001Y652496D01*
X578116Y637999D01*
X570612Y625001D01*
X559999Y614388D01*
X547001Y606884D01*
X532504Y602999D01*
X517496Y602999D01*
G37*
%LPD*%
%LPC*%
G36*
X249336Y846093D02*
X249336Y846093D01*
X240712Y848403D01*
X232980Y852867D01*
X226667Y859180D01*
X222203Y866912D01*
X219893Y875536D01*
X219893Y884464D01*
X222203Y893088D01*
X226667Y900820D01*
X232980Y907133D01*
X240712Y911597D01*
X249336Y913907D01*
X258264Y913907D01*
X266888Y911597D01*
X274620Y907133D01*
X280933Y900820D01*
X285397Y893088D01*
X286998Y887110D01*
X286998Y887109D01*
X287707Y884464D01*
X287707Y875536D01*
X285397Y866912D01*
X280933Y859180D01*
X274620Y852867D01*
X266888Y848403D01*
X258264Y846093D01*
X249336Y846093D01*
G37*
%LPD*%
%LPC*%
G36*
X135536Y846093D02*
X135536Y846093D01*
X126912Y848403D01*
X119180Y852867D01*
X112867Y859180D01*
X108403Y866912D01*
X106093Y875536D01*
X106093Y884464D01*
X108403Y893088D01*
X112867Y900820D01*
X119180Y907133D01*
X126912Y911597D01*
X135536Y913907D01*
X144464Y913907D01*
X153088Y911597D01*
X160820Y907133D01*
X167133Y900820D01*
X171597Y893088D01*
X173198Y887110D01*
X173198Y887109D01*
X173907Y884464D01*
X173907Y875536D01*
X171597Y866912D01*
X167133Y859180D01*
X160820Y852867D01*
X153088Y848403D01*
X144464Y846093D01*
X135536Y846093D01*
G37*
%LPD*%
%LPC*%
G36*
X1019336Y846093D02*
X1019336Y846093D01*
X1010712Y848403D01*
X1002980Y852867D01*
X996667Y859180D01*
X992203Y866912D01*
X989893Y875536D01*
X989893Y884464D01*
X992203Y893088D01*
X996667Y900820D01*
X1002980Y907133D01*
X1010712Y911597D01*
X1019336Y913907D01*
X1028264Y913907D01*
X1036888Y911597D01*
X1044620Y907133D01*
X1050933Y900820D01*
X1055397Y893088D01*
X1056998Y887110D01*
X1056998Y887109D01*
X1057707Y884464D01*
X1057707Y875536D01*
X1055397Y866912D01*
X1050933Y859180D01*
X1044620Y852867D01*
X1036888Y848403D01*
X1028264Y846093D01*
X1019336Y846093D01*
G37*
%LPD*%
%LPC*%
G36*
X1095536Y846093D02*
X1095536Y846093D01*
X1086912Y848403D01*
X1079180Y852867D01*
X1072867Y859180D01*
X1068403Y866912D01*
X1066093Y875536D01*
X1066093Y884464D01*
X1068403Y893088D01*
X1072867Y900820D01*
X1079180Y907133D01*
X1086912Y911597D01*
X1095536Y913907D01*
X1104464Y913907D01*
X1113088Y911597D01*
X1120820Y907133D01*
X1127133Y900820D01*
X1131597Y893088D01*
X1133198Y887110D01*
X1133198Y887109D01*
X1133907Y884464D01*
X1133907Y875536D01*
X1131597Y866912D01*
X1127133Y859180D01*
X1120820Y852867D01*
X1113088Y848403D01*
X1104464Y846093D01*
X1095536Y846093D01*
G37*
%LPD*%
%LPC*%
G36*
X325536Y846093D02*
X325536Y846093D01*
X316912Y848403D01*
X309180Y852867D01*
X302867Y859180D01*
X298403Y866912D01*
X296093Y875536D01*
X296093Y884464D01*
X298403Y893088D01*
X302867Y900820D01*
X309180Y907133D01*
X316912Y911597D01*
X325536Y913907D01*
X334464Y913907D01*
X343088Y911597D01*
X350820Y907133D01*
X357133Y900820D01*
X361597Y893088D01*
X363198Y887110D01*
X363198Y887109D01*
X363907Y884464D01*
X363907Y875536D01*
X361597Y866912D01*
X357133Y859180D01*
X350820Y852867D01*
X343088Y848403D01*
X334464Y846093D01*
X325536Y846093D01*
G37*
%LPD*%
%LPC*%
G36*
X439336Y846093D02*
X439336Y846093D01*
X430712Y848403D01*
X422980Y852867D01*
X416667Y859180D01*
X412203Y866912D01*
X409893Y875536D01*
X409893Y884464D01*
X412203Y893088D01*
X416667Y900820D01*
X422980Y907133D01*
X430712Y911597D01*
X439336Y913907D01*
X448264Y913907D01*
X456888Y911597D01*
X464620Y907133D01*
X470933Y900820D01*
X475397Y893088D01*
X476998Y887110D01*
X476998Y887109D01*
X477707Y884464D01*
X477707Y875536D01*
X475397Y866912D01*
X470933Y859180D01*
X464620Y852867D01*
X456888Y848403D01*
X448264Y846093D01*
X439336Y846093D01*
G37*
%LPD*%
%LPC*%
G36*
X515536Y846093D02*
X515536Y846093D01*
X506912Y848403D01*
X499180Y852867D01*
X492867Y859180D01*
X488403Y866912D01*
X486093Y875536D01*
X486093Y884464D01*
X488403Y893088D01*
X492867Y900820D01*
X499180Y907133D01*
X506912Y911597D01*
X515536Y913907D01*
X524464Y913907D01*
X533088Y911597D01*
X540820Y907133D01*
X547133Y900820D01*
X551597Y893088D01*
X553198Y887110D01*
X553198Y887109D01*
X553907Y884464D01*
X553907Y875536D01*
X551597Y866912D01*
X547133Y859180D01*
X540820Y852867D01*
X533088Y848403D01*
X524464Y846093D01*
X515536Y846093D01*
G37*
%LPD*%
%LPC*%
G36*
X59336Y846093D02*
X59336Y846093D01*
X50712Y848403D01*
X42980Y852867D01*
X36667Y859180D01*
X32203Y866912D01*
X29893Y875536D01*
X29893Y884464D01*
X32203Y893088D01*
X36667Y900820D01*
X42980Y907133D01*
X50712Y911597D01*
X59336Y913907D01*
X68264Y913907D01*
X76888Y911597D01*
X84620Y907133D01*
X90933Y900820D01*
X95397Y893088D01*
X96998Y887110D01*
X96998Y887109D01*
X97707Y884464D01*
X97707Y875536D01*
X95397Y866912D01*
X90933Y859180D01*
X84620Y852867D01*
X76888Y848403D01*
X68264Y846093D01*
X59336Y846093D01*
G37*
%LPD*%
%LPC*%
G36*
X829336Y846093D02*
X829336Y846093D01*
X820712Y848403D01*
X812980Y852867D01*
X806667Y859180D01*
X802203Y866912D01*
X799893Y875536D01*
X799893Y884464D01*
X802203Y893088D01*
X806667Y900820D01*
X812980Y907133D01*
X820712Y911597D01*
X829336Y913907D01*
X838264Y913907D01*
X846888Y911597D01*
X854620Y907133D01*
X860933Y900820D01*
X865397Y893088D01*
X866998Y887110D01*
X866998Y887109D01*
X867707Y884464D01*
X867707Y875536D01*
X865397Y866912D01*
X860933Y859180D01*
X854620Y852867D01*
X846888Y848403D01*
X838264Y846093D01*
X829336Y846093D01*
G37*
%LPD*%
%LPC*%
G36*
X905536Y846093D02*
X905536Y846093D01*
X896912Y848403D01*
X889180Y852867D01*
X882867Y859180D01*
X878403Y866912D01*
X876093Y875536D01*
X876093Y884464D01*
X878403Y893088D01*
X882867Y900820D01*
X889180Y907133D01*
X896912Y911597D01*
X905536Y913907D01*
X914464Y913907D01*
X923088Y911597D01*
X930820Y907133D01*
X937133Y900820D01*
X941597Y893088D01*
X943198Y887110D01*
X943198Y887109D01*
X943907Y884464D01*
X943907Y875536D01*
X941597Y866912D01*
X937133Y859180D01*
X930820Y852867D01*
X923088Y848403D01*
X914464Y846093D01*
X905536Y846093D01*
G37*
%LPD*%
%LPC*%
G36*
X1634536Y509093D02*
X1634536Y509093D01*
X1625912Y511403D01*
X1618180Y515867D01*
X1611867Y522180D01*
X1607403Y529912D01*
X1605172Y538241D01*
X1605093Y538536D01*
X1605093Y547464D01*
X1607403Y556088D01*
X1611867Y563820D01*
X1618180Y570133D01*
X1625912Y574597D01*
X1634536Y576907D01*
X1643464Y576907D01*
X1652088Y574597D01*
X1659820Y570133D01*
X1666133Y563820D01*
X1670597Y556088D01*
X1672580Y548687D01*
X1672907Y547464D01*
X1672907Y538536D01*
X1670597Y529912D01*
X1666133Y522180D01*
X1659820Y515867D01*
X1652088Y511403D01*
X1643464Y509093D01*
X1634536Y509093D01*
G37*
%LPD*%
%LPC*%
G36*
X225550Y766199D02*
X225550Y766199D01*
X216953Y768503D01*
X209246Y772953D01*
X202953Y779246D01*
X198503Y786953D01*
X196199Y795550D01*
X196199Y804450D01*
X198503Y813047D01*
X202953Y820754D01*
X209246Y827047D01*
X216953Y831497D01*
X225550Y833801D01*
X234450Y833801D01*
X243047Y831497D01*
X250754Y827047D01*
X257047Y820754D01*
X261497Y813047D01*
X262030Y811060D01*
X262030Y811059D01*
X262539Y809158D01*
X263801Y804450D01*
X263801Y795550D01*
X261497Y786953D01*
X257047Y779246D01*
X250754Y772953D01*
X243047Y768503D01*
X234450Y766199D01*
X225550Y766199D01*
G37*
%LPD*%
%LPC*%
G36*
X415550Y766199D02*
X415550Y766199D01*
X406953Y768503D01*
X399246Y772953D01*
X392953Y779246D01*
X388503Y786953D01*
X386199Y795550D01*
X386199Y804450D01*
X388503Y813047D01*
X392953Y820754D01*
X399246Y827047D01*
X406953Y831497D01*
X415550Y833801D01*
X424450Y833801D01*
X433047Y831497D01*
X440754Y827047D01*
X447047Y820754D01*
X451497Y813047D01*
X452030Y811060D01*
X452030Y811059D01*
X452539Y809158D01*
X453801Y804450D01*
X453801Y795550D01*
X451497Y786953D01*
X447047Y779246D01*
X440754Y772953D01*
X433047Y768503D01*
X424450Y766199D01*
X415550Y766199D01*
G37*
%LPD*%
%LPC*%
G36*
X1635269Y86217D02*
X1635269Y86217D01*
X1626528Y89838D01*
X1619838Y96528D01*
X1616217Y105269D01*
X1616217Y114731D01*
X1616269Y114855D01*
X1616281Y114930D01*
X1616297Y115004D01*
X1616295Y115016D01*
X1616297Y115025D01*
X1616286Y115061D01*
X1616269Y115146D01*
X1616217Y115269D01*
X1616217Y124731D01*
X1616269Y124855D01*
X1616281Y124930D01*
X1616297Y125004D01*
X1616295Y125016D01*
X1616297Y125025D01*
X1616286Y125061D01*
X1616269Y125146D01*
X1616217Y125269D01*
X1616217Y134731D01*
X1616269Y134855D01*
X1616281Y134930D01*
X1616297Y135004D01*
X1616295Y135016D01*
X1616297Y135025D01*
X1616286Y135061D01*
X1616269Y135146D01*
X1616217Y135269D01*
X1616217Y144731D01*
X1619838Y153472D01*
X1626528Y160162D01*
X1635269Y163783D01*
X1644731Y163783D01*
X1653472Y160162D01*
X1660162Y153472D01*
X1663783Y144731D01*
X1663783Y135269D01*
X1663731Y135146D01*
X1663719Y135070D01*
X1663703Y134997D01*
X1663705Y134985D01*
X1663703Y134975D01*
X1663714Y134939D01*
X1663731Y134855D01*
X1663783Y134731D01*
X1663783Y125269D01*
X1663731Y125146D01*
X1663719Y125070D01*
X1663703Y124997D01*
X1663705Y124985D01*
X1663703Y124975D01*
X1663714Y124939D01*
X1663731Y124855D01*
X1663783Y124731D01*
X1663783Y115269D01*
X1663731Y115146D01*
X1663719Y115070D01*
X1663703Y114997D01*
X1663705Y114985D01*
X1663703Y114975D01*
X1663714Y114939D01*
X1663731Y114855D01*
X1663783Y114731D01*
X1663783Y105269D01*
X1660162Y96528D01*
X1653472Y89838D01*
X1644731Y86217D01*
X1635269Y86217D01*
G37*
%LPD*%
D10*
X330000Y880000D03*
X253800Y880000D03*
X910000Y880000D03*
X833800Y880000D03*
X140000Y880000D03*
X63800Y880000D03*
X1100000Y880000D03*
X1023800Y880000D03*
X520000Y880000D03*
X443800Y880000D03*
X1290000Y880000D03*
X1213800Y880000D03*
X1639000Y543000D03*
X1639000Y619200D03*
X715000Y880000D03*
X638800Y880000D03*
D11*
X1454000Y886500D03*
X1454000Y856500D03*
X1484000Y886500D03*
X1484000Y856500D03*
X1514000Y886500D03*
X1514000Y856500D03*
X1544000Y886500D03*
X1544000Y856500D03*
X1574000Y886500D03*
X1574000Y856500D03*
X1604000Y886500D03*
X1604000Y856500D03*
X1634000Y886500D03*
X1634000Y856500D03*
X1664000Y886500D03*
X1664000Y856500D03*
X1694000Y886500D03*
X1694000Y856500D03*
D12*
X40000Y800000D03*
X230000Y800000D03*
X820000Y800000D03*
X420000Y800000D03*
X625000Y801250D03*
X1690000Y705000D03*
X677500Y801250D03*
X730000Y801250D03*
D13*
X525000Y660000D03*
X525000Y50000D03*
X50000Y50000D03*
D14*
X47000Y653000D03*
X47000Y627600D03*
X47000Y602200D03*
X47000Y576800D03*
X47000Y551400D03*
X47000Y526000D03*
X72400Y653000D03*
X72400Y627600D03*
X72400Y602200D03*
X72400Y576800D03*
X72400Y551400D03*
X72400Y526000D03*
X510000Y290000D03*
X510000Y264600D03*
X510000Y239200D03*
X510000Y213800D03*
X510000Y188400D03*
X510000Y163000D03*
X535400Y290000D03*
X535400Y264600D03*
X535400Y239200D03*
X535400Y213800D03*
X535400Y188400D03*
X535400Y163000D03*
D13*
X1535000Y660000D03*
X1535000Y50000D03*
X1060000Y50000D03*
D14*
X1057000Y653000D03*
X1057000Y627600D03*
X1057000Y602200D03*
X1057000Y576800D03*
X1057000Y551400D03*
X1057000Y526000D03*
X1082400Y653000D03*
X1082400Y627600D03*
X1082400Y602200D03*
X1082400Y576800D03*
X1082400Y551400D03*
X1082400Y526000D03*
X1520000Y290000D03*
X1520000Y264600D03*
X1520000Y239200D03*
X1520000Y213800D03*
X1520000Y188400D03*
X1520000Y163000D03*
X1545400Y290000D03*
X1545400Y264600D03*
X1545400Y239200D03*
X1545400Y213800D03*
X1545400Y188400D03*
X1545400Y163000D03*
X910000Y242000D03*
X935400Y242000D03*
X910000Y267400D03*
X935400Y267400D03*
X910000Y292800D03*
X935400Y292800D03*
X910000Y318200D03*
X935400Y318200D03*
X910000Y343600D03*
X935400Y343600D03*
X910000Y369000D03*
X935400Y369000D03*
X680000Y389000D03*
X654600Y389000D03*
X680000Y363600D03*
X654600Y363600D03*
X680000Y338200D03*
X654600Y338200D03*
X680000Y312800D03*
X654600Y312800D03*
X680000Y287400D03*
X654600Y287400D03*
X680000Y262000D03*
X654600Y262000D03*
D13*
X920000Y450000D03*
X670000Y200000D03*
X620000Y50000D03*
X960000Y740000D03*
D14*
X690000Y30000D03*
X690000Y55400D03*
X715400Y30000D03*
X715400Y55400D03*
X740800Y30000D03*
X740800Y55400D03*
X766200Y30000D03*
X766200Y55400D03*
X791600Y30000D03*
X791600Y55400D03*
X817000Y30000D03*
X817000Y55400D03*
X690000Y730000D03*
X690000Y755400D03*
X715400Y730000D03*
X715400Y755400D03*
X740800Y730000D03*
X740800Y755400D03*
X766200Y730000D03*
X766200Y755400D03*
X791600Y730000D03*
X791600Y755400D03*
X817000Y730000D03*
X817000Y755400D03*
D15*
X1640000Y140000D03*
X1640000Y130000D03*
X1640000Y120000D03*
X1640000Y110000D03*
D16*
X1221500Y564000D02*
X1514000Y856500D01*
X59400Y539000D02*
X47000Y551400D01*
X82000Y539000D02*
X107000Y564000D01*
X82000Y539000D02*
X59400Y539000D01*
X107000Y564000D02*
X1221500Y564000D01*
X1574000Y811000D02*
X1574000Y856500D01*
X1070400Y539000D02*
X1058000Y551400D01*
X1057000Y551400D01*
X1302000Y539000D02*
X1574000Y811000D01*
X1302000Y539000D02*
X1070400Y539000D01*
X1082400Y551400D02*
X1284400Y551400D01*
X1544000Y811000D02*
X1544000Y856500D01*
X1544000Y811000D02*
X1284400Y551400D01*
X1250250Y622750D02*
X1484000Y856500D01*
X94000Y573000D02*
X72400Y551400D01*
X94000Y573000D02*
X975000Y573000D01*
D17*
X1017000Y615000D01*
X1242500Y615000D02*
X1250250Y622750D01*
X1242500Y615000D02*
X1017000Y615000D01*
D15*
X970000Y220000D03*
X310000Y200000D03*
X310000Y180000D03*
X330000Y180000D03*
X330000Y200000D03*
X350000Y200000D03*
X350000Y180000D03*
X370000Y180000D03*
X370000Y200000D03*
X390000Y200000D03*
X390000Y180000D03*
X390000Y160000D03*
X370000Y160000D03*
X350000Y160000D03*
X330000Y160000D03*
X310000Y160000D03*
X310000Y140000D03*
X330000Y140000D03*
X350000Y140000D03*
X370000Y140000D03*
X390000Y140000D03*
X310000Y120000D03*
X330000Y120000D03*
X350000Y120000D03*
X370000Y120000D03*
X390000Y120000D03*
X310000Y100000D03*
X330000Y100000D03*
X350000Y100000D03*
X370000Y100000D03*
X390000Y100000D03*
X390000Y80000D03*
X370000Y80000D03*
X350000Y80000D03*
X330000Y80000D03*
X310000Y80000D03*
X310000Y60000D03*
X330000Y60000D03*
X350000Y60000D03*
X370000Y60000D03*
X390000Y60000D03*
X390000Y40000D03*
X370000Y40000D03*
X350000Y40000D03*
X330000Y40000D03*
X310000Y40000D03*
X120000Y520000D03*
X140000Y520000D03*
X160000Y520000D03*
X180000Y520000D03*
X180000Y550000D03*
X160000Y550000D03*
X140000Y550000D03*
X120000Y550000D03*
X120000Y470000D03*
X140000Y470000D03*
X160000Y470000D03*
X180000Y470000D03*
X100000Y470000D03*
X80000Y470000D03*
X60000Y470000D03*
X40000Y470000D03*
X20000Y470000D03*
X120000Y580000D03*
X140000Y580000D03*
X160000Y580000D03*
X180000Y580000D03*
X1700000Y500000D03*
D16*
X820000Y755400D02*
X817000Y755400D01*
X820000Y755400D02*
X868600Y804000D01*
X1432000Y864500D02*
X1454000Y886500D01*
X1395000Y804000D02*
X868600Y804000D01*
X1395000Y804000D02*
X1432000Y841000D01*
X1432000Y864500D01*
X1484000Y886500D02*
X1484000Y895500D01*
X1480500Y899000D01*
X1447000Y899000D01*
X808200Y772000D02*
X791600Y755400D01*
X808200Y772000D02*
X823000Y772000D01*
X863000Y812000D02*
X1390000Y812000D01*
X863000Y812000D02*
X823000Y772000D01*
X1424000Y846000D02*
X1424000Y876000D01*
X1424000Y846000D02*
X1390000Y812000D01*
X1424000Y876000D02*
X1447000Y899000D01*
X791600Y755400D02*
X779000Y742800D01*
D15*
X779000Y592000D03*
X779000Y557000D03*
D16*
X779000Y330000D01*
X790800Y318200D02*
X910000Y318200D01*
X779000Y592000D02*
X779000Y742800D01*
X779000Y330000D02*
X790800Y318200D01*
X791600Y730000D02*
X804600Y743000D01*
X823000Y743000D01*
X876000Y796000D01*
X1514000Y873000D02*
X1514000Y886500D01*
X1514000Y873000D02*
X1453311Y873000D01*
X1440000Y837000D02*
X1399000Y796000D01*
X1440000Y837000D02*
X1440000Y859689D01*
X1453311Y873000D01*
X1399000Y796000D02*
X876000Y796000D01*
D18*
X1057000Y526000D02*
X1057000Y200000D01*
D19*
X760000Y316000D02*
X760000Y438000D01*
X61000Y493000D02*
X47000Y507000D01*
X47000Y526000D01*
X760000Y316000D02*
X773000Y303000D01*
X760000Y438000D02*
X705000Y493000D01*
X61000Y493000D01*
X773000Y303000D02*
X806000Y303000D01*
X817000Y292000D01*
X817000Y200000D01*
X817000Y55400D01*
D18*
X817000Y200000D02*
X1057000Y200000D01*
D16*
X826000Y730000D02*
X817000Y730000D01*
X826000Y730000D02*
X884000Y788000D01*
X1404000Y788000D01*
X1470000Y854000D02*
X1470000Y860000D01*
X1477952Y867952D01*
X1544000Y869500D02*
X1544000Y886500D01*
X1544000Y869500D02*
X1542452Y867952D01*
X1477952Y867952D01*
X1470000Y854000D02*
X1404000Y788000D01*
D17*
X60200Y590000D02*
X47000Y576800D01*
X60200Y590000D02*
X92000Y590000D01*
X107000Y605000D01*
X206029Y605000D02*
X230029Y581000D01*
X206029Y605000D02*
X107000Y605000D01*
X1563500Y957000D02*
X1634000Y886500D01*
X1563500Y957000D02*
X1443000Y957000D01*
X1417000Y931000D01*
X1417000Y850000D01*
X1386000Y819000D01*
X1177000Y819000D01*
D15*
X1177000Y819000D03*
D17*
X1177000Y686088D02*
X1049088Y686088D01*
D15*
X1177000Y686088D03*
D17*
X1049088Y686088D02*
X944000Y581000D01*
X230029Y581000D01*
X88800Y576800D02*
X72400Y576800D01*
X88800Y576800D02*
X113444Y601444D01*
X204556Y601444D02*
X228556Y577444D01*
X204556Y601444D02*
X113444Y601444D01*
X1586500Y964000D02*
X1664000Y886500D01*
X1436000Y964000D02*
X1410500Y938500D01*
X1436000Y964000D02*
X1586500Y964000D01*
X1410500Y938500D02*
X1410500Y854500D01*
X1382000Y826000D01*
D15*
X1166000Y826000D03*
D17*
X1382000Y826000D01*
X1177000Y677000D02*
X1045029Y677000D01*
D15*
X1177000Y677000D03*
D17*
X1045029Y677000D02*
X945473Y577444D01*
X228556Y577444D01*
X1057000Y576800D02*
X1070200Y590000D01*
X1157000Y590000D01*
X1157544Y590544D01*
X1180000Y590544D01*
D15*
X1180000Y590544D03*
X1393000Y590544D03*
D17*
X1395544Y590544D01*
X1661500Y856500D02*
X1664000Y856500D01*
X1661500Y856500D02*
X1395544Y590544D01*
X1087600Y582000D02*
X1082400Y576800D01*
X1087600Y582000D02*
X1157000Y582000D01*
X1157544Y581456D01*
X1180000Y581456D01*
D15*
X1180000Y581456D03*
X1393000Y581456D03*
D17*
X1397770Y581456D01*
X1676500Y839000D02*
X1694000Y856500D01*
X1655314Y839000D02*
X1397770Y581456D01*
X1655314Y839000D02*
X1676500Y839000D01*
M02*
