G04 EAGLE Gerber RS-274X export*
G75*
%MOMM*%
%FSLAX34Y34*%
%LPD*%
%INSilkscreen Bottom*%
%IPPOS*%
%AMOC8*
5,1,8,0,0,1.08239X$1,22.5*%
G01*
%ADD10C,0.482600*%
%ADD11C,0.050000*%
%ADD12C,0.127000*%
%ADD13C,0.177800*%
%ADD14C,0.101600*%
%ADD15C,0.076200*%

G36*
X1244025Y806259D02*
X1244025Y806259D01*
X1244059Y806258D01*
X1244092Y806277D01*
X1244128Y806286D01*
X1244151Y806311D01*
X1244180Y806328D01*
X1244198Y806361D01*
X1244223Y806388D01*
X1244242Y806447D01*
X1244245Y806452D01*
X1244244Y806455D01*
X1244246Y806459D01*
X1245246Y812459D01*
X1245241Y812497D01*
X1245244Y812515D01*
X1245238Y812529D01*
X1245234Y812586D01*
X1245230Y812591D01*
X1245229Y812598D01*
X1245189Y812647D01*
X1245151Y812698D01*
X1245145Y812701D01*
X1245141Y812706D01*
X1245080Y812726D01*
X1245021Y812748D01*
X1245014Y812747D01*
X1245008Y812749D01*
X1244946Y812733D01*
X1244884Y812720D01*
X1244876Y812715D01*
X1244872Y812714D01*
X1244866Y812708D01*
X1244824Y812676D01*
X1244135Y811988D01*
X1242373Y819035D01*
X1245889Y817277D01*
X1245892Y817276D01*
X1245895Y817274D01*
X1245961Y817264D01*
X1246026Y817252D01*
X1246030Y817254D01*
X1246033Y817253D01*
X1246094Y817280D01*
X1246155Y817305D01*
X1246158Y817308D01*
X1246161Y817310D01*
X1246198Y817365D01*
X1246236Y817419D01*
X1246236Y817423D01*
X1246238Y817427D01*
X1246249Y817500D01*
X1246249Y819500D01*
X1246243Y819520D01*
X1246246Y819541D01*
X1246223Y819611D01*
X1241223Y829611D01*
X1241211Y829624D01*
X1241206Y829640D01*
X1241164Y829675D01*
X1241128Y829714D01*
X1241111Y829718D01*
X1241098Y829729D01*
X1241045Y829736D01*
X1240993Y829749D01*
X1240976Y829744D01*
X1240959Y829746D01*
X1240889Y829723D01*
X1238889Y828723D01*
X1238872Y828708D01*
X1238851Y828700D01*
X1238822Y828661D01*
X1238786Y828628D01*
X1238780Y828606D01*
X1238767Y828588D01*
X1238763Y828539D01*
X1238751Y828493D01*
X1238758Y828471D01*
X1238756Y828449D01*
X1238782Y828379D01*
X1243330Y820193D01*
X1239128Y822714D01*
X1239080Y822726D01*
X1239034Y822747D01*
X1239013Y822744D01*
X1238993Y822749D01*
X1238945Y822734D01*
X1238895Y822726D01*
X1238880Y822713D01*
X1238860Y822706D01*
X1238828Y822667D01*
X1238790Y822634D01*
X1238784Y822614D01*
X1238771Y822598D01*
X1238765Y822548D01*
X1238751Y822500D01*
X1238755Y822470D01*
X1238754Y822460D01*
X1238758Y822451D01*
X1238762Y822427D01*
X1242276Y811004D01*
X1240079Y811736D01*
X1240009Y811739D01*
X1239941Y811742D01*
X1239940Y811742D01*
X1239939Y811742D01*
X1239879Y811706D01*
X1239820Y811672D01*
X1239819Y811671D01*
X1239787Y811609D01*
X1239755Y811548D01*
X1239755Y811547D01*
X1239755Y811546D01*
X1239762Y811479D01*
X1239768Y811409D01*
X1239769Y811408D01*
X1239769Y811407D01*
X1239770Y811406D01*
X1239805Y811344D01*
X1243805Y806344D01*
X1243836Y806323D01*
X1243859Y806294D01*
X1243892Y806284D01*
X1243920Y806264D01*
X1243957Y806262D01*
X1243992Y806251D01*
X1244025Y806259D01*
G37*
G36*
X334025Y806259D02*
X334025Y806259D01*
X334059Y806258D01*
X334092Y806277D01*
X334128Y806286D01*
X334151Y806311D01*
X334180Y806328D01*
X334198Y806361D01*
X334223Y806388D01*
X334242Y806447D01*
X334245Y806452D01*
X334244Y806455D01*
X334246Y806459D01*
X335246Y812459D01*
X335241Y812497D01*
X335244Y812515D01*
X335238Y812529D01*
X335234Y812586D01*
X335230Y812591D01*
X335229Y812598D01*
X335189Y812647D01*
X335151Y812698D01*
X335145Y812701D01*
X335141Y812706D01*
X335080Y812726D01*
X335021Y812748D01*
X335014Y812747D01*
X335008Y812749D01*
X334946Y812733D01*
X334884Y812720D01*
X334876Y812715D01*
X334872Y812714D01*
X334866Y812708D01*
X334824Y812676D01*
X334135Y811988D01*
X332373Y819035D01*
X335889Y817277D01*
X335892Y817276D01*
X335895Y817274D01*
X335961Y817264D01*
X336026Y817252D01*
X336030Y817254D01*
X336033Y817253D01*
X336094Y817280D01*
X336155Y817305D01*
X336158Y817308D01*
X336161Y817310D01*
X336198Y817365D01*
X336236Y817419D01*
X336236Y817423D01*
X336238Y817427D01*
X336249Y817500D01*
X336249Y819500D01*
X336243Y819520D01*
X336246Y819541D01*
X336223Y819611D01*
X331223Y829611D01*
X331211Y829624D01*
X331206Y829640D01*
X331164Y829675D01*
X331128Y829714D01*
X331111Y829718D01*
X331098Y829729D01*
X331045Y829736D01*
X330993Y829749D01*
X330976Y829744D01*
X330959Y829746D01*
X330889Y829723D01*
X328889Y828723D01*
X328872Y828708D01*
X328851Y828700D01*
X328822Y828661D01*
X328786Y828628D01*
X328780Y828606D01*
X328767Y828588D01*
X328763Y828539D01*
X328751Y828493D01*
X328758Y828471D01*
X328756Y828449D01*
X328782Y828379D01*
X333330Y820193D01*
X329128Y822714D01*
X329080Y822726D01*
X329034Y822747D01*
X329013Y822744D01*
X328993Y822749D01*
X328945Y822734D01*
X328895Y822726D01*
X328880Y822713D01*
X328860Y822706D01*
X328828Y822667D01*
X328790Y822634D01*
X328784Y822614D01*
X328771Y822598D01*
X328765Y822548D01*
X328751Y822500D01*
X328755Y822470D01*
X328754Y822460D01*
X328758Y822451D01*
X328762Y822427D01*
X332276Y811004D01*
X330079Y811736D01*
X330009Y811739D01*
X329941Y811742D01*
X329940Y811742D01*
X329939Y811742D01*
X329879Y811706D01*
X329820Y811672D01*
X329819Y811671D01*
X329787Y811609D01*
X329755Y811548D01*
X329755Y811547D01*
X329755Y811546D01*
X329762Y811479D01*
X329768Y811409D01*
X329769Y811408D01*
X329769Y811407D01*
X329770Y811406D01*
X329805Y811344D01*
X333805Y806344D01*
X333836Y806323D01*
X333859Y806294D01*
X333892Y806284D01*
X333920Y806264D01*
X333957Y806262D01*
X333992Y806251D01*
X334025Y806259D01*
G37*
G36*
X1054025Y806259D02*
X1054025Y806259D01*
X1054059Y806258D01*
X1054092Y806277D01*
X1054128Y806286D01*
X1054151Y806311D01*
X1054180Y806328D01*
X1054198Y806361D01*
X1054223Y806388D01*
X1054242Y806447D01*
X1054245Y806452D01*
X1054244Y806455D01*
X1054246Y806459D01*
X1055246Y812459D01*
X1055241Y812497D01*
X1055244Y812515D01*
X1055238Y812529D01*
X1055234Y812586D01*
X1055230Y812591D01*
X1055229Y812598D01*
X1055189Y812647D01*
X1055151Y812698D01*
X1055145Y812701D01*
X1055141Y812706D01*
X1055080Y812726D01*
X1055021Y812748D01*
X1055014Y812747D01*
X1055008Y812749D01*
X1054946Y812733D01*
X1054884Y812720D01*
X1054876Y812715D01*
X1054872Y812714D01*
X1054866Y812708D01*
X1054824Y812676D01*
X1054135Y811988D01*
X1052373Y819035D01*
X1055889Y817277D01*
X1055892Y817276D01*
X1055895Y817274D01*
X1055961Y817264D01*
X1056026Y817252D01*
X1056030Y817254D01*
X1056033Y817253D01*
X1056094Y817280D01*
X1056155Y817305D01*
X1056158Y817308D01*
X1056161Y817310D01*
X1056198Y817365D01*
X1056236Y817419D01*
X1056236Y817423D01*
X1056238Y817427D01*
X1056249Y817500D01*
X1056249Y819500D01*
X1056243Y819520D01*
X1056246Y819541D01*
X1056223Y819611D01*
X1051223Y829611D01*
X1051211Y829624D01*
X1051206Y829640D01*
X1051164Y829675D01*
X1051128Y829714D01*
X1051111Y829718D01*
X1051098Y829729D01*
X1051045Y829736D01*
X1050993Y829749D01*
X1050976Y829744D01*
X1050959Y829746D01*
X1050889Y829723D01*
X1048889Y828723D01*
X1048872Y828708D01*
X1048851Y828700D01*
X1048822Y828661D01*
X1048786Y828628D01*
X1048780Y828606D01*
X1048767Y828588D01*
X1048763Y828539D01*
X1048751Y828493D01*
X1048758Y828471D01*
X1048756Y828449D01*
X1048782Y828379D01*
X1053330Y820193D01*
X1049128Y822714D01*
X1049080Y822726D01*
X1049034Y822747D01*
X1049013Y822744D01*
X1048993Y822749D01*
X1048945Y822734D01*
X1048895Y822726D01*
X1048880Y822713D01*
X1048860Y822706D01*
X1048828Y822667D01*
X1048790Y822634D01*
X1048784Y822614D01*
X1048771Y822598D01*
X1048765Y822548D01*
X1048751Y822500D01*
X1048755Y822470D01*
X1048754Y822460D01*
X1048758Y822451D01*
X1048762Y822427D01*
X1052276Y811004D01*
X1050079Y811736D01*
X1050009Y811739D01*
X1049941Y811742D01*
X1049940Y811742D01*
X1049939Y811742D01*
X1049879Y811706D01*
X1049820Y811672D01*
X1049819Y811671D01*
X1049787Y811609D01*
X1049755Y811548D01*
X1049755Y811547D01*
X1049755Y811546D01*
X1049762Y811479D01*
X1049768Y811409D01*
X1049769Y811408D01*
X1049769Y811407D01*
X1049770Y811406D01*
X1049805Y811344D01*
X1053805Y806344D01*
X1053836Y806323D01*
X1053859Y806294D01*
X1053892Y806284D01*
X1053920Y806264D01*
X1053957Y806262D01*
X1053992Y806251D01*
X1054025Y806259D01*
G37*
G36*
X544025Y806259D02*
X544025Y806259D01*
X544059Y806258D01*
X544092Y806277D01*
X544128Y806286D01*
X544151Y806311D01*
X544180Y806328D01*
X544198Y806361D01*
X544223Y806388D01*
X544242Y806447D01*
X544245Y806452D01*
X544244Y806455D01*
X544246Y806459D01*
X545246Y812459D01*
X545241Y812497D01*
X545244Y812515D01*
X545238Y812529D01*
X545234Y812586D01*
X545230Y812591D01*
X545229Y812598D01*
X545189Y812647D01*
X545151Y812698D01*
X545145Y812701D01*
X545141Y812706D01*
X545080Y812726D01*
X545021Y812748D01*
X545014Y812747D01*
X545008Y812749D01*
X544946Y812733D01*
X544884Y812720D01*
X544876Y812715D01*
X544872Y812714D01*
X544866Y812708D01*
X544824Y812676D01*
X544135Y811988D01*
X542373Y819035D01*
X545889Y817277D01*
X545892Y817276D01*
X545895Y817274D01*
X545961Y817264D01*
X546026Y817252D01*
X546030Y817254D01*
X546033Y817253D01*
X546094Y817280D01*
X546155Y817305D01*
X546158Y817308D01*
X546161Y817310D01*
X546198Y817365D01*
X546236Y817419D01*
X546236Y817423D01*
X546238Y817427D01*
X546249Y817500D01*
X546249Y819500D01*
X546243Y819520D01*
X546246Y819541D01*
X546223Y819611D01*
X541223Y829611D01*
X541211Y829624D01*
X541206Y829640D01*
X541164Y829675D01*
X541128Y829714D01*
X541111Y829718D01*
X541098Y829729D01*
X541045Y829736D01*
X540993Y829749D01*
X540976Y829744D01*
X540959Y829746D01*
X540889Y829723D01*
X538889Y828723D01*
X538872Y828708D01*
X538851Y828700D01*
X538822Y828661D01*
X538786Y828628D01*
X538780Y828606D01*
X538767Y828588D01*
X538763Y828539D01*
X538751Y828493D01*
X538758Y828471D01*
X538756Y828449D01*
X538782Y828379D01*
X543330Y820193D01*
X539128Y822714D01*
X539080Y822726D01*
X539034Y822747D01*
X539013Y822744D01*
X538993Y822749D01*
X538945Y822734D01*
X538895Y822726D01*
X538880Y822713D01*
X538860Y822706D01*
X538828Y822667D01*
X538790Y822634D01*
X538784Y822614D01*
X538771Y822598D01*
X538765Y822548D01*
X538751Y822500D01*
X538755Y822470D01*
X538754Y822460D01*
X538758Y822451D01*
X538762Y822427D01*
X542276Y811004D01*
X540079Y811736D01*
X540009Y811739D01*
X539941Y811742D01*
X539940Y811742D01*
X539939Y811742D01*
X539879Y811706D01*
X539820Y811672D01*
X539819Y811671D01*
X539787Y811609D01*
X539755Y811548D01*
X539755Y811547D01*
X539755Y811546D01*
X539762Y811479D01*
X539768Y811409D01*
X539769Y811408D01*
X539769Y811407D01*
X539770Y811406D01*
X539805Y811344D01*
X543805Y806344D01*
X543836Y806323D01*
X543859Y806294D01*
X543892Y806284D01*
X543920Y806264D01*
X543957Y806262D01*
X543992Y806251D01*
X544025Y806259D01*
G37*
G36*
X114025Y806259D02*
X114025Y806259D01*
X114059Y806258D01*
X114092Y806277D01*
X114128Y806286D01*
X114151Y806311D01*
X114180Y806328D01*
X114198Y806361D01*
X114223Y806388D01*
X114242Y806447D01*
X114245Y806452D01*
X114244Y806455D01*
X114246Y806459D01*
X115246Y812459D01*
X115241Y812497D01*
X115244Y812515D01*
X115238Y812529D01*
X115234Y812586D01*
X115230Y812591D01*
X115229Y812598D01*
X115189Y812647D01*
X115151Y812698D01*
X115145Y812701D01*
X115141Y812706D01*
X115080Y812726D01*
X115021Y812748D01*
X115014Y812747D01*
X115008Y812749D01*
X114946Y812733D01*
X114884Y812720D01*
X114876Y812715D01*
X114872Y812714D01*
X114866Y812708D01*
X114824Y812676D01*
X114135Y811988D01*
X112373Y819035D01*
X115889Y817277D01*
X115892Y817276D01*
X115895Y817274D01*
X115961Y817264D01*
X116026Y817252D01*
X116030Y817254D01*
X116033Y817253D01*
X116094Y817280D01*
X116155Y817305D01*
X116158Y817308D01*
X116161Y817310D01*
X116198Y817365D01*
X116236Y817419D01*
X116236Y817423D01*
X116238Y817427D01*
X116249Y817500D01*
X116249Y819500D01*
X116243Y819520D01*
X116246Y819541D01*
X116223Y819611D01*
X111223Y829611D01*
X111211Y829624D01*
X111206Y829640D01*
X111164Y829675D01*
X111128Y829714D01*
X111111Y829718D01*
X111098Y829729D01*
X111045Y829736D01*
X110993Y829749D01*
X110976Y829744D01*
X110959Y829746D01*
X110889Y829723D01*
X108889Y828723D01*
X108872Y828708D01*
X108851Y828700D01*
X108822Y828661D01*
X108786Y828628D01*
X108780Y828606D01*
X108767Y828588D01*
X108763Y828539D01*
X108751Y828493D01*
X108758Y828471D01*
X108756Y828449D01*
X108782Y828379D01*
X113330Y820193D01*
X109128Y822714D01*
X109080Y822726D01*
X109034Y822747D01*
X109013Y822744D01*
X108993Y822749D01*
X108945Y822734D01*
X108895Y822726D01*
X108880Y822713D01*
X108860Y822706D01*
X108828Y822667D01*
X108790Y822634D01*
X108784Y822614D01*
X108771Y822598D01*
X108765Y822548D01*
X108751Y822500D01*
X108755Y822470D01*
X108754Y822460D01*
X108758Y822451D01*
X108762Y822427D01*
X112276Y811004D01*
X110079Y811736D01*
X110009Y811739D01*
X109941Y811742D01*
X109940Y811742D01*
X109939Y811742D01*
X109879Y811706D01*
X109820Y811672D01*
X109819Y811671D01*
X109787Y811609D01*
X109755Y811548D01*
X109755Y811547D01*
X109755Y811546D01*
X109762Y811479D01*
X109768Y811409D01*
X109769Y811408D01*
X109769Y811407D01*
X109770Y811406D01*
X109805Y811344D01*
X113805Y806344D01*
X113836Y806323D01*
X113859Y806294D01*
X113892Y806284D01*
X113920Y806264D01*
X113957Y806262D01*
X113992Y806251D01*
X114025Y806259D01*
G37*
D10*
X1703870Y440804D02*
X1703870Y477587D01*
X1722261Y459196D02*
X1685478Y459196D01*
X1703870Y660804D02*
X1703870Y697587D01*
D11*
X1247250Y817000D02*
X1241000Y829500D01*
X1241750Y819250D02*
X1247250Y817000D01*
X1246750Y817500D02*
X1241750Y819250D01*
X1246250Y818250D02*
X1246750Y817500D01*
X1247250Y817000D02*
X1241500Y829750D01*
X1239000Y828500D01*
X1241750Y828750D01*
X1241750Y828500D01*
X1241250Y829500D01*
D12*
X1241500Y839500D02*
X1261500Y804500D01*
X1224000Y804500D01*
X1241500Y839500D01*
D13*
X1272111Y801311D02*
X1272111Y790389D01*
X1272111Y801311D02*
X1269077Y801311D01*
X1268969Y801309D01*
X1268861Y801303D01*
X1268753Y801294D01*
X1268645Y801280D01*
X1268538Y801263D01*
X1268432Y801242D01*
X1268327Y801217D01*
X1268222Y801188D01*
X1268119Y801156D01*
X1268017Y801120D01*
X1267916Y801080D01*
X1267817Y801037D01*
X1267719Y800990D01*
X1267623Y800940D01*
X1267529Y800886D01*
X1267437Y800829D01*
X1267347Y800769D01*
X1267259Y800706D01*
X1267173Y800639D01*
X1267090Y800570D01*
X1267010Y800498D01*
X1266932Y800422D01*
X1266856Y800344D01*
X1266784Y800264D01*
X1266715Y800181D01*
X1266648Y800095D01*
X1266585Y800007D01*
X1266525Y799917D01*
X1266468Y799825D01*
X1266414Y799731D01*
X1266364Y799635D01*
X1266317Y799537D01*
X1266274Y799438D01*
X1266234Y799337D01*
X1266198Y799235D01*
X1266166Y799132D01*
X1266137Y799027D01*
X1266112Y798922D01*
X1266091Y798816D01*
X1266074Y798709D01*
X1266060Y798601D01*
X1266051Y798493D01*
X1266045Y798385D01*
X1266043Y798277D01*
X1266043Y793423D01*
X1266045Y793315D01*
X1266051Y793207D01*
X1266060Y793099D01*
X1266074Y792991D01*
X1266091Y792884D01*
X1266112Y792778D01*
X1266137Y792673D01*
X1266166Y792568D01*
X1266198Y792465D01*
X1266234Y792363D01*
X1266274Y792262D01*
X1266317Y792163D01*
X1266364Y792065D01*
X1266414Y791969D01*
X1266468Y791875D01*
X1266525Y791783D01*
X1266585Y791693D01*
X1266648Y791605D01*
X1266715Y791519D01*
X1266784Y791436D01*
X1266856Y791356D01*
X1266932Y791278D01*
X1267010Y791202D01*
X1267090Y791130D01*
X1267173Y791061D01*
X1267259Y790994D01*
X1267347Y790931D01*
X1267437Y790871D01*
X1267529Y790814D01*
X1267623Y790760D01*
X1267719Y790710D01*
X1267817Y790663D01*
X1267916Y790620D01*
X1268017Y790580D01*
X1268119Y790544D01*
X1268222Y790512D01*
X1268327Y790483D01*
X1268432Y790458D01*
X1268538Y790437D01*
X1268645Y790420D01*
X1268753Y790406D01*
X1268861Y790397D01*
X1268969Y790391D01*
X1269077Y790389D01*
X1272111Y790389D01*
X1260907Y790389D02*
X1257266Y801311D01*
X1253625Y790389D01*
X1254536Y793120D02*
X1259997Y793120D01*
X1248489Y790389D02*
X1248489Y801311D01*
X1242421Y790389D01*
X1242421Y801311D01*
X1232050Y796457D02*
X1230229Y796457D01*
X1230229Y790389D01*
X1233870Y790389D01*
X1233968Y790391D01*
X1234065Y790397D01*
X1234163Y790407D01*
X1234259Y790420D01*
X1234355Y790438D01*
X1234451Y790460D01*
X1234545Y790485D01*
X1234639Y790514D01*
X1234731Y790547D01*
X1234821Y790583D01*
X1234910Y790623D01*
X1234998Y790667D01*
X1235084Y790714D01*
X1235167Y790765D01*
X1235249Y790819D01*
X1235328Y790876D01*
X1235405Y790936D01*
X1235479Y790999D01*
X1235551Y791066D01*
X1235620Y791135D01*
X1235687Y791207D01*
X1235750Y791281D01*
X1235810Y791358D01*
X1235867Y791437D01*
X1235921Y791519D01*
X1235972Y791603D01*
X1236019Y791688D01*
X1236063Y791776D01*
X1236103Y791865D01*
X1236139Y791955D01*
X1236172Y792047D01*
X1236201Y792141D01*
X1236226Y792235D01*
X1236248Y792331D01*
X1236266Y792427D01*
X1236279Y792523D01*
X1236289Y792621D01*
X1236295Y792718D01*
X1236297Y792816D01*
X1236297Y798884D01*
X1236295Y798982D01*
X1236289Y799079D01*
X1236279Y799177D01*
X1236266Y799273D01*
X1236248Y799369D01*
X1236226Y799465D01*
X1236201Y799559D01*
X1236172Y799653D01*
X1236139Y799745D01*
X1236103Y799835D01*
X1236063Y799924D01*
X1236019Y800012D01*
X1235972Y800097D01*
X1235921Y800181D01*
X1235867Y800263D01*
X1235810Y800342D01*
X1235750Y800419D01*
X1235687Y800493D01*
X1235620Y800565D01*
X1235551Y800634D01*
X1235479Y800701D01*
X1235405Y800764D01*
X1235328Y800824D01*
X1235249Y800881D01*
X1235167Y800935D01*
X1235084Y800986D01*
X1234998Y801033D01*
X1234910Y801077D01*
X1234821Y801117D01*
X1234731Y801153D01*
X1234639Y801186D01*
X1234545Y801215D01*
X1234451Y801240D01*
X1234356Y801262D01*
X1234259Y801280D01*
X1234163Y801293D01*
X1234065Y801303D01*
X1233968Y801309D01*
X1233870Y801311D01*
X1230229Y801311D01*
X1224074Y790389D02*
X1219220Y790389D01*
X1224074Y790389D02*
X1224074Y801311D01*
X1219220Y801311D01*
X1220433Y796457D02*
X1224074Y796457D01*
X1214098Y801311D02*
X1214098Y790389D01*
X1214098Y801311D02*
X1211064Y801311D01*
X1210956Y801309D01*
X1210848Y801303D01*
X1210740Y801294D01*
X1210632Y801280D01*
X1210525Y801263D01*
X1210419Y801242D01*
X1210314Y801217D01*
X1210209Y801188D01*
X1210106Y801156D01*
X1210004Y801120D01*
X1209903Y801080D01*
X1209804Y801037D01*
X1209706Y800990D01*
X1209610Y800940D01*
X1209516Y800886D01*
X1209424Y800829D01*
X1209334Y800769D01*
X1209246Y800706D01*
X1209160Y800639D01*
X1209077Y800570D01*
X1208997Y800498D01*
X1208919Y800422D01*
X1208843Y800344D01*
X1208771Y800264D01*
X1208702Y800181D01*
X1208635Y800095D01*
X1208572Y800007D01*
X1208512Y799917D01*
X1208455Y799825D01*
X1208401Y799731D01*
X1208351Y799635D01*
X1208304Y799537D01*
X1208261Y799438D01*
X1208221Y799337D01*
X1208185Y799235D01*
X1208153Y799132D01*
X1208124Y799027D01*
X1208099Y798922D01*
X1208078Y798816D01*
X1208061Y798709D01*
X1208047Y798601D01*
X1208038Y798493D01*
X1208032Y798385D01*
X1208030Y798277D01*
X1208032Y798169D01*
X1208038Y798061D01*
X1208047Y797953D01*
X1208061Y797845D01*
X1208078Y797738D01*
X1208099Y797632D01*
X1208124Y797527D01*
X1208153Y797422D01*
X1208185Y797319D01*
X1208221Y797217D01*
X1208261Y797116D01*
X1208304Y797017D01*
X1208351Y796919D01*
X1208401Y796823D01*
X1208455Y796729D01*
X1208512Y796637D01*
X1208572Y796547D01*
X1208635Y796459D01*
X1208702Y796373D01*
X1208771Y796290D01*
X1208843Y796210D01*
X1208919Y796132D01*
X1208997Y796056D01*
X1209077Y795984D01*
X1209160Y795915D01*
X1209246Y795848D01*
X1209334Y795785D01*
X1209424Y795725D01*
X1209516Y795668D01*
X1209610Y795614D01*
X1209706Y795564D01*
X1209804Y795517D01*
X1209903Y795474D01*
X1210004Y795434D01*
X1210106Y795398D01*
X1210209Y795366D01*
X1210314Y795337D01*
X1210419Y795312D01*
X1210525Y795291D01*
X1210632Y795274D01*
X1210740Y795260D01*
X1210848Y795251D01*
X1210956Y795245D01*
X1211064Y795243D01*
X1214098Y795243D01*
X1210457Y795243D02*
X1208030Y790389D01*
D14*
X1273492Y786992D02*
X1273492Y781008D01*
X1273492Y784332D02*
X1270168Y784332D01*
X1270168Y786992D02*
X1270168Y781008D01*
X1266580Y781008D02*
X1266580Y786992D01*
X1267245Y781008D02*
X1265915Y781008D01*
X1265915Y786992D02*
X1267245Y786992D01*
X1260665Y784332D02*
X1259668Y784332D01*
X1259668Y781008D01*
X1261662Y781008D01*
X1261734Y781010D01*
X1261806Y781016D01*
X1261877Y781026D01*
X1261948Y781039D01*
X1262018Y781056D01*
X1262087Y781078D01*
X1262154Y781102D01*
X1262220Y781131D01*
X1262285Y781163D01*
X1262348Y781198D01*
X1262408Y781237D01*
X1262467Y781279D01*
X1262523Y781324D01*
X1262577Y781372D01*
X1262628Y781423D01*
X1262676Y781477D01*
X1262721Y781533D01*
X1262763Y781592D01*
X1262802Y781652D01*
X1262837Y781715D01*
X1262869Y781780D01*
X1262898Y781846D01*
X1262922Y781913D01*
X1262944Y781982D01*
X1262961Y782052D01*
X1262974Y782123D01*
X1262984Y782194D01*
X1262990Y782266D01*
X1262992Y782338D01*
X1262992Y785662D01*
X1262990Y785734D01*
X1262984Y785806D01*
X1262974Y785877D01*
X1262961Y785948D01*
X1262944Y786018D01*
X1262922Y786087D01*
X1262898Y786154D01*
X1262869Y786220D01*
X1262837Y786285D01*
X1262802Y786348D01*
X1262763Y786408D01*
X1262721Y786467D01*
X1262676Y786523D01*
X1262628Y786577D01*
X1262577Y786628D01*
X1262523Y786676D01*
X1262467Y786721D01*
X1262408Y786763D01*
X1262348Y786802D01*
X1262285Y786837D01*
X1262220Y786869D01*
X1262154Y786898D01*
X1262087Y786922D01*
X1262018Y786944D01*
X1261948Y786961D01*
X1261877Y786974D01*
X1261806Y786984D01*
X1261734Y786990D01*
X1261662Y786992D01*
X1259668Y786992D01*
X1256272Y786992D02*
X1256272Y781008D01*
X1256272Y784332D02*
X1252948Y784332D01*
X1252948Y786992D02*
X1252948Y781008D01*
X1244740Y781008D02*
X1246734Y786992D01*
X1242745Y786992D02*
X1244740Y781008D01*
X1240102Y782670D02*
X1240102Y785330D01*
X1240100Y785410D01*
X1240094Y785490D01*
X1240085Y785570D01*
X1240071Y785649D01*
X1240054Y785728D01*
X1240033Y785805D01*
X1240008Y785882D01*
X1239979Y785957D01*
X1239947Y786030D01*
X1239912Y786102D01*
X1239873Y786173D01*
X1239830Y786241D01*
X1239785Y786307D01*
X1239736Y786371D01*
X1239684Y786432D01*
X1239629Y786491D01*
X1239572Y786547D01*
X1239512Y786600D01*
X1239449Y786651D01*
X1239384Y786698D01*
X1239317Y786742D01*
X1239248Y786783D01*
X1239177Y786820D01*
X1239104Y786854D01*
X1239029Y786884D01*
X1238954Y786911D01*
X1238877Y786934D01*
X1238799Y786953D01*
X1238720Y786968D01*
X1238640Y786980D01*
X1238560Y786988D01*
X1238480Y786992D01*
X1238400Y786992D01*
X1238320Y786988D01*
X1238240Y786980D01*
X1238160Y786968D01*
X1238081Y786953D01*
X1238003Y786934D01*
X1237926Y786911D01*
X1237851Y786884D01*
X1237776Y786854D01*
X1237703Y786820D01*
X1237632Y786783D01*
X1237563Y786742D01*
X1237496Y786698D01*
X1237431Y786651D01*
X1237368Y786600D01*
X1237308Y786547D01*
X1237251Y786491D01*
X1237196Y786432D01*
X1237144Y786371D01*
X1237095Y786307D01*
X1237050Y786241D01*
X1237007Y786173D01*
X1236968Y786102D01*
X1236933Y786030D01*
X1236901Y785957D01*
X1236872Y785882D01*
X1236847Y785805D01*
X1236826Y785728D01*
X1236809Y785649D01*
X1236795Y785570D01*
X1236786Y785490D01*
X1236780Y785410D01*
X1236778Y785330D01*
X1236778Y782670D01*
X1236780Y782590D01*
X1236786Y782510D01*
X1236795Y782430D01*
X1236809Y782351D01*
X1236826Y782272D01*
X1236847Y782195D01*
X1236872Y782118D01*
X1236901Y782043D01*
X1236933Y781970D01*
X1236968Y781898D01*
X1237007Y781827D01*
X1237050Y781759D01*
X1237095Y781693D01*
X1237144Y781629D01*
X1237196Y781568D01*
X1237251Y781509D01*
X1237308Y781453D01*
X1237368Y781400D01*
X1237431Y781349D01*
X1237496Y781302D01*
X1237563Y781258D01*
X1237632Y781217D01*
X1237703Y781180D01*
X1237776Y781146D01*
X1237851Y781116D01*
X1237926Y781089D01*
X1238003Y781066D01*
X1238081Y781047D01*
X1238160Y781032D01*
X1238240Y781020D01*
X1238320Y781012D01*
X1238400Y781008D01*
X1238480Y781008D01*
X1238560Y781012D01*
X1238640Y781020D01*
X1238720Y781032D01*
X1238799Y781047D01*
X1238877Y781066D01*
X1238954Y781089D01*
X1239029Y781116D01*
X1239104Y781146D01*
X1239177Y781180D01*
X1239248Y781217D01*
X1239317Y781258D01*
X1239384Y781302D01*
X1239449Y781349D01*
X1239512Y781400D01*
X1239572Y781453D01*
X1239629Y781509D01*
X1239684Y781568D01*
X1239736Y781629D01*
X1239785Y781693D01*
X1239830Y781759D01*
X1239873Y781827D01*
X1239912Y781898D01*
X1239947Y781970D01*
X1239979Y782043D01*
X1240008Y782118D01*
X1240033Y782195D01*
X1240054Y782272D01*
X1240071Y782351D01*
X1240085Y782430D01*
X1240094Y782510D01*
X1240100Y782590D01*
X1240102Y782670D01*
X1233575Y781008D02*
X1233575Y786992D01*
X1233575Y781008D02*
X1230915Y781008D01*
X1227100Y781008D02*
X1227100Y786992D01*
X1228762Y786992D02*
X1225438Y786992D01*
X1221220Y786992D02*
X1223215Y781008D01*
X1219225Y781008D02*
X1221220Y786992D01*
X1219724Y782504D02*
X1222716Y782504D01*
X1214045Y784332D02*
X1213048Y784332D01*
X1213048Y781008D01*
X1215042Y781008D01*
X1215114Y781010D01*
X1215186Y781016D01*
X1215257Y781026D01*
X1215328Y781039D01*
X1215398Y781056D01*
X1215467Y781078D01*
X1215534Y781102D01*
X1215600Y781131D01*
X1215665Y781163D01*
X1215728Y781198D01*
X1215788Y781237D01*
X1215847Y781279D01*
X1215903Y781324D01*
X1215957Y781372D01*
X1216008Y781423D01*
X1216056Y781477D01*
X1216101Y781533D01*
X1216143Y781592D01*
X1216182Y781652D01*
X1216217Y781715D01*
X1216249Y781780D01*
X1216278Y781846D01*
X1216302Y781913D01*
X1216324Y781982D01*
X1216341Y782052D01*
X1216354Y782123D01*
X1216364Y782194D01*
X1216370Y782266D01*
X1216372Y782338D01*
X1216372Y785662D01*
X1216370Y785734D01*
X1216364Y785806D01*
X1216354Y785877D01*
X1216341Y785948D01*
X1216324Y786018D01*
X1216302Y786087D01*
X1216278Y786154D01*
X1216249Y786220D01*
X1216217Y786285D01*
X1216182Y786348D01*
X1216143Y786408D01*
X1216101Y786467D01*
X1216056Y786523D01*
X1216008Y786577D01*
X1215957Y786628D01*
X1215903Y786676D01*
X1215847Y786721D01*
X1215788Y786763D01*
X1215728Y786802D01*
X1215665Y786837D01*
X1215600Y786869D01*
X1215534Y786898D01*
X1215467Y786922D01*
X1215398Y786944D01*
X1215328Y786961D01*
X1215257Y786974D01*
X1215186Y786984D01*
X1215114Y786990D01*
X1215042Y786992D01*
X1213048Y786992D01*
X1209635Y781008D02*
X1206975Y781008D01*
X1209635Y781008D02*
X1209635Y786992D01*
X1206975Y786992D01*
X1207640Y784332D02*
X1209635Y784332D01*
D11*
X1057250Y817000D02*
X1051000Y829500D01*
X1051750Y819250D02*
X1057250Y817000D01*
X1056750Y817500D02*
X1051750Y819250D01*
X1056250Y818250D02*
X1056750Y817500D01*
X1057250Y817000D02*
X1051500Y829750D01*
X1049000Y828500D01*
X1051750Y828750D01*
X1051750Y828500D01*
X1051250Y829500D01*
D12*
X1051500Y839500D02*
X1071500Y804500D01*
X1034000Y804500D01*
X1051500Y839500D01*
D13*
X1082111Y801311D02*
X1082111Y790389D01*
X1082111Y801311D02*
X1079077Y801311D01*
X1078969Y801309D01*
X1078861Y801303D01*
X1078753Y801294D01*
X1078645Y801280D01*
X1078538Y801263D01*
X1078432Y801242D01*
X1078327Y801217D01*
X1078222Y801188D01*
X1078119Y801156D01*
X1078017Y801120D01*
X1077916Y801080D01*
X1077817Y801037D01*
X1077719Y800990D01*
X1077623Y800940D01*
X1077529Y800886D01*
X1077437Y800829D01*
X1077347Y800769D01*
X1077259Y800706D01*
X1077173Y800639D01*
X1077090Y800570D01*
X1077010Y800498D01*
X1076932Y800422D01*
X1076856Y800344D01*
X1076784Y800264D01*
X1076715Y800181D01*
X1076648Y800095D01*
X1076585Y800007D01*
X1076525Y799917D01*
X1076468Y799825D01*
X1076414Y799731D01*
X1076364Y799635D01*
X1076317Y799537D01*
X1076274Y799438D01*
X1076234Y799337D01*
X1076198Y799235D01*
X1076166Y799132D01*
X1076137Y799027D01*
X1076112Y798922D01*
X1076091Y798816D01*
X1076074Y798709D01*
X1076060Y798601D01*
X1076051Y798493D01*
X1076045Y798385D01*
X1076043Y798277D01*
X1076043Y793423D01*
X1076045Y793315D01*
X1076051Y793207D01*
X1076060Y793099D01*
X1076074Y792991D01*
X1076091Y792884D01*
X1076112Y792778D01*
X1076137Y792673D01*
X1076166Y792568D01*
X1076198Y792465D01*
X1076234Y792363D01*
X1076274Y792262D01*
X1076317Y792163D01*
X1076364Y792065D01*
X1076414Y791969D01*
X1076468Y791875D01*
X1076525Y791783D01*
X1076585Y791693D01*
X1076648Y791605D01*
X1076715Y791519D01*
X1076784Y791436D01*
X1076856Y791356D01*
X1076932Y791278D01*
X1077010Y791202D01*
X1077090Y791130D01*
X1077173Y791061D01*
X1077259Y790994D01*
X1077347Y790931D01*
X1077437Y790871D01*
X1077529Y790814D01*
X1077623Y790760D01*
X1077719Y790710D01*
X1077817Y790663D01*
X1077916Y790620D01*
X1078017Y790580D01*
X1078119Y790544D01*
X1078222Y790512D01*
X1078327Y790483D01*
X1078432Y790458D01*
X1078538Y790437D01*
X1078645Y790420D01*
X1078753Y790406D01*
X1078861Y790397D01*
X1078969Y790391D01*
X1079077Y790389D01*
X1082111Y790389D01*
X1070907Y790389D02*
X1067266Y801311D01*
X1063625Y790389D01*
X1064536Y793120D02*
X1069997Y793120D01*
X1058489Y790389D02*
X1058489Y801311D01*
X1052421Y790389D01*
X1052421Y801311D01*
X1042050Y796457D02*
X1040229Y796457D01*
X1040229Y790389D01*
X1043870Y790389D01*
X1043968Y790391D01*
X1044065Y790397D01*
X1044163Y790407D01*
X1044259Y790420D01*
X1044355Y790438D01*
X1044451Y790460D01*
X1044545Y790485D01*
X1044639Y790514D01*
X1044731Y790547D01*
X1044821Y790583D01*
X1044910Y790623D01*
X1044998Y790667D01*
X1045084Y790714D01*
X1045167Y790765D01*
X1045249Y790819D01*
X1045328Y790876D01*
X1045405Y790936D01*
X1045479Y790999D01*
X1045551Y791066D01*
X1045620Y791135D01*
X1045687Y791207D01*
X1045750Y791281D01*
X1045810Y791358D01*
X1045867Y791437D01*
X1045921Y791519D01*
X1045972Y791603D01*
X1046019Y791688D01*
X1046063Y791776D01*
X1046103Y791865D01*
X1046139Y791955D01*
X1046172Y792047D01*
X1046201Y792141D01*
X1046226Y792235D01*
X1046248Y792331D01*
X1046266Y792427D01*
X1046279Y792523D01*
X1046289Y792621D01*
X1046295Y792718D01*
X1046297Y792816D01*
X1046297Y798884D01*
X1046295Y798982D01*
X1046289Y799079D01*
X1046279Y799177D01*
X1046266Y799273D01*
X1046248Y799369D01*
X1046226Y799465D01*
X1046201Y799559D01*
X1046172Y799653D01*
X1046139Y799745D01*
X1046103Y799835D01*
X1046063Y799924D01*
X1046019Y800012D01*
X1045972Y800097D01*
X1045921Y800181D01*
X1045867Y800263D01*
X1045810Y800342D01*
X1045750Y800419D01*
X1045687Y800493D01*
X1045620Y800565D01*
X1045551Y800634D01*
X1045479Y800701D01*
X1045405Y800764D01*
X1045328Y800824D01*
X1045249Y800881D01*
X1045167Y800935D01*
X1045084Y800986D01*
X1044998Y801033D01*
X1044910Y801077D01*
X1044821Y801117D01*
X1044731Y801153D01*
X1044639Y801186D01*
X1044545Y801215D01*
X1044451Y801240D01*
X1044356Y801262D01*
X1044259Y801280D01*
X1044163Y801293D01*
X1044065Y801303D01*
X1043968Y801309D01*
X1043870Y801311D01*
X1040229Y801311D01*
X1034074Y790389D02*
X1029220Y790389D01*
X1034074Y790389D02*
X1034074Y801311D01*
X1029220Y801311D01*
X1030433Y796457D02*
X1034074Y796457D01*
X1024098Y801311D02*
X1024098Y790389D01*
X1024098Y801311D02*
X1021064Y801311D01*
X1020956Y801309D01*
X1020848Y801303D01*
X1020740Y801294D01*
X1020632Y801280D01*
X1020525Y801263D01*
X1020419Y801242D01*
X1020314Y801217D01*
X1020209Y801188D01*
X1020106Y801156D01*
X1020004Y801120D01*
X1019903Y801080D01*
X1019804Y801037D01*
X1019706Y800990D01*
X1019610Y800940D01*
X1019516Y800886D01*
X1019424Y800829D01*
X1019334Y800769D01*
X1019246Y800706D01*
X1019160Y800639D01*
X1019077Y800570D01*
X1018997Y800498D01*
X1018919Y800422D01*
X1018843Y800344D01*
X1018771Y800264D01*
X1018702Y800181D01*
X1018635Y800095D01*
X1018572Y800007D01*
X1018512Y799917D01*
X1018455Y799825D01*
X1018401Y799731D01*
X1018351Y799635D01*
X1018304Y799537D01*
X1018261Y799438D01*
X1018221Y799337D01*
X1018185Y799235D01*
X1018153Y799132D01*
X1018124Y799027D01*
X1018099Y798922D01*
X1018078Y798816D01*
X1018061Y798709D01*
X1018047Y798601D01*
X1018038Y798493D01*
X1018032Y798385D01*
X1018030Y798277D01*
X1018032Y798169D01*
X1018038Y798061D01*
X1018047Y797953D01*
X1018061Y797845D01*
X1018078Y797738D01*
X1018099Y797632D01*
X1018124Y797527D01*
X1018153Y797422D01*
X1018185Y797319D01*
X1018221Y797217D01*
X1018261Y797116D01*
X1018304Y797017D01*
X1018351Y796919D01*
X1018401Y796823D01*
X1018455Y796729D01*
X1018512Y796637D01*
X1018572Y796547D01*
X1018635Y796459D01*
X1018702Y796373D01*
X1018771Y796290D01*
X1018843Y796210D01*
X1018919Y796132D01*
X1018997Y796056D01*
X1019077Y795984D01*
X1019160Y795915D01*
X1019246Y795848D01*
X1019334Y795785D01*
X1019424Y795725D01*
X1019516Y795668D01*
X1019610Y795614D01*
X1019706Y795564D01*
X1019804Y795517D01*
X1019903Y795474D01*
X1020004Y795434D01*
X1020106Y795398D01*
X1020209Y795366D01*
X1020314Y795337D01*
X1020419Y795312D01*
X1020525Y795291D01*
X1020632Y795274D01*
X1020740Y795260D01*
X1020848Y795251D01*
X1020956Y795245D01*
X1021064Y795243D01*
X1024098Y795243D01*
X1020457Y795243D02*
X1018030Y790389D01*
D14*
X1083492Y786992D02*
X1083492Y781008D01*
X1083492Y784332D02*
X1080168Y784332D01*
X1080168Y786992D02*
X1080168Y781008D01*
X1076580Y781008D02*
X1076580Y786992D01*
X1077245Y781008D02*
X1075915Y781008D01*
X1075915Y786992D02*
X1077245Y786992D01*
X1070665Y784332D02*
X1069668Y784332D01*
X1069668Y781008D01*
X1071662Y781008D01*
X1071734Y781010D01*
X1071806Y781016D01*
X1071877Y781026D01*
X1071948Y781039D01*
X1072018Y781056D01*
X1072087Y781078D01*
X1072154Y781102D01*
X1072220Y781131D01*
X1072285Y781163D01*
X1072348Y781198D01*
X1072408Y781237D01*
X1072467Y781279D01*
X1072523Y781324D01*
X1072577Y781372D01*
X1072628Y781423D01*
X1072676Y781477D01*
X1072721Y781533D01*
X1072763Y781592D01*
X1072802Y781652D01*
X1072837Y781715D01*
X1072869Y781780D01*
X1072898Y781846D01*
X1072922Y781913D01*
X1072944Y781982D01*
X1072961Y782052D01*
X1072974Y782123D01*
X1072984Y782194D01*
X1072990Y782266D01*
X1072992Y782338D01*
X1072992Y785662D01*
X1072990Y785734D01*
X1072984Y785806D01*
X1072974Y785877D01*
X1072961Y785948D01*
X1072944Y786018D01*
X1072922Y786087D01*
X1072898Y786154D01*
X1072869Y786220D01*
X1072837Y786285D01*
X1072802Y786348D01*
X1072763Y786408D01*
X1072721Y786467D01*
X1072676Y786523D01*
X1072628Y786577D01*
X1072577Y786628D01*
X1072523Y786676D01*
X1072467Y786721D01*
X1072408Y786763D01*
X1072348Y786802D01*
X1072285Y786837D01*
X1072220Y786869D01*
X1072154Y786898D01*
X1072087Y786922D01*
X1072018Y786944D01*
X1071948Y786961D01*
X1071877Y786974D01*
X1071806Y786984D01*
X1071734Y786990D01*
X1071662Y786992D01*
X1069668Y786992D01*
X1066272Y786992D02*
X1066272Y781008D01*
X1066272Y784332D02*
X1062948Y784332D01*
X1062948Y786992D02*
X1062948Y781008D01*
X1054740Y781008D02*
X1056734Y786992D01*
X1052745Y786992D02*
X1054740Y781008D01*
X1050102Y782670D02*
X1050102Y785330D01*
X1050100Y785410D01*
X1050094Y785490D01*
X1050085Y785570D01*
X1050071Y785649D01*
X1050054Y785728D01*
X1050033Y785805D01*
X1050008Y785882D01*
X1049979Y785957D01*
X1049947Y786030D01*
X1049912Y786102D01*
X1049873Y786173D01*
X1049830Y786241D01*
X1049785Y786307D01*
X1049736Y786371D01*
X1049684Y786432D01*
X1049629Y786491D01*
X1049572Y786547D01*
X1049512Y786600D01*
X1049449Y786651D01*
X1049384Y786698D01*
X1049317Y786742D01*
X1049248Y786783D01*
X1049177Y786820D01*
X1049104Y786854D01*
X1049029Y786884D01*
X1048954Y786911D01*
X1048877Y786934D01*
X1048799Y786953D01*
X1048720Y786968D01*
X1048640Y786980D01*
X1048560Y786988D01*
X1048480Y786992D01*
X1048400Y786992D01*
X1048320Y786988D01*
X1048240Y786980D01*
X1048160Y786968D01*
X1048081Y786953D01*
X1048003Y786934D01*
X1047926Y786911D01*
X1047851Y786884D01*
X1047776Y786854D01*
X1047703Y786820D01*
X1047632Y786783D01*
X1047563Y786742D01*
X1047496Y786698D01*
X1047431Y786651D01*
X1047368Y786600D01*
X1047308Y786547D01*
X1047251Y786491D01*
X1047196Y786432D01*
X1047144Y786371D01*
X1047095Y786307D01*
X1047050Y786241D01*
X1047007Y786173D01*
X1046968Y786102D01*
X1046933Y786030D01*
X1046901Y785957D01*
X1046872Y785882D01*
X1046847Y785805D01*
X1046826Y785728D01*
X1046809Y785649D01*
X1046795Y785570D01*
X1046786Y785490D01*
X1046780Y785410D01*
X1046778Y785330D01*
X1046778Y782670D01*
X1046780Y782590D01*
X1046786Y782510D01*
X1046795Y782430D01*
X1046809Y782351D01*
X1046826Y782272D01*
X1046847Y782195D01*
X1046872Y782118D01*
X1046901Y782043D01*
X1046933Y781970D01*
X1046968Y781898D01*
X1047007Y781827D01*
X1047050Y781759D01*
X1047095Y781693D01*
X1047144Y781629D01*
X1047196Y781568D01*
X1047251Y781509D01*
X1047308Y781453D01*
X1047368Y781400D01*
X1047431Y781349D01*
X1047496Y781302D01*
X1047563Y781258D01*
X1047632Y781217D01*
X1047703Y781180D01*
X1047776Y781146D01*
X1047851Y781116D01*
X1047926Y781089D01*
X1048003Y781066D01*
X1048081Y781047D01*
X1048160Y781032D01*
X1048240Y781020D01*
X1048320Y781012D01*
X1048400Y781008D01*
X1048480Y781008D01*
X1048560Y781012D01*
X1048640Y781020D01*
X1048720Y781032D01*
X1048799Y781047D01*
X1048877Y781066D01*
X1048954Y781089D01*
X1049029Y781116D01*
X1049104Y781146D01*
X1049177Y781180D01*
X1049248Y781217D01*
X1049317Y781258D01*
X1049384Y781302D01*
X1049449Y781349D01*
X1049512Y781400D01*
X1049572Y781453D01*
X1049629Y781509D01*
X1049684Y781568D01*
X1049736Y781629D01*
X1049785Y781693D01*
X1049830Y781759D01*
X1049873Y781827D01*
X1049912Y781898D01*
X1049947Y781970D01*
X1049979Y782043D01*
X1050008Y782118D01*
X1050033Y782195D01*
X1050054Y782272D01*
X1050071Y782351D01*
X1050085Y782430D01*
X1050094Y782510D01*
X1050100Y782590D01*
X1050102Y782670D01*
X1043575Y781008D02*
X1043575Y786992D01*
X1043575Y781008D02*
X1040915Y781008D01*
X1037100Y781008D02*
X1037100Y786992D01*
X1038762Y786992D02*
X1035438Y786992D01*
X1031220Y786992D02*
X1033215Y781008D01*
X1029225Y781008D02*
X1031220Y786992D01*
X1029724Y782504D02*
X1032716Y782504D01*
X1024045Y784332D02*
X1023048Y784332D01*
X1023048Y781008D01*
X1025042Y781008D01*
X1025114Y781010D01*
X1025186Y781016D01*
X1025257Y781026D01*
X1025328Y781039D01*
X1025398Y781056D01*
X1025467Y781078D01*
X1025534Y781102D01*
X1025600Y781131D01*
X1025665Y781163D01*
X1025728Y781198D01*
X1025788Y781237D01*
X1025847Y781279D01*
X1025903Y781324D01*
X1025957Y781372D01*
X1026008Y781423D01*
X1026056Y781477D01*
X1026101Y781533D01*
X1026143Y781592D01*
X1026182Y781652D01*
X1026217Y781715D01*
X1026249Y781780D01*
X1026278Y781846D01*
X1026302Y781913D01*
X1026324Y781982D01*
X1026341Y782052D01*
X1026354Y782123D01*
X1026364Y782194D01*
X1026370Y782266D01*
X1026372Y782338D01*
X1026372Y785662D01*
X1026370Y785734D01*
X1026364Y785806D01*
X1026354Y785877D01*
X1026341Y785948D01*
X1026324Y786018D01*
X1026302Y786087D01*
X1026278Y786154D01*
X1026249Y786220D01*
X1026217Y786285D01*
X1026182Y786348D01*
X1026143Y786408D01*
X1026101Y786467D01*
X1026056Y786523D01*
X1026008Y786577D01*
X1025957Y786628D01*
X1025903Y786676D01*
X1025847Y786721D01*
X1025788Y786763D01*
X1025728Y786802D01*
X1025665Y786837D01*
X1025600Y786869D01*
X1025534Y786898D01*
X1025467Y786922D01*
X1025398Y786944D01*
X1025328Y786961D01*
X1025257Y786974D01*
X1025186Y786984D01*
X1025114Y786990D01*
X1025042Y786992D01*
X1023048Y786992D01*
X1019635Y781008D02*
X1016975Y781008D01*
X1019635Y781008D02*
X1019635Y786992D01*
X1016975Y786992D01*
X1017640Y784332D02*
X1019635Y784332D01*
D11*
X117250Y817000D02*
X111000Y829500D01*
X111750Y819250D02*
X117250Y817000D01*
X116750Y817500D02*
X111750Y819250D01*
X116250Y818250D02*
X116750Y817500D01*
X117250Y817000D02*
X111500Y829750D01*
X109000Y828500D01*
X111750Y828750D01*
X111750Y828500D01*
X111250Y829500D01*
D12*
X111500Y839500D02*
X131500Y804500D01*
X94000Y804500D01*
X111500Y839500D01*
D13*
X142111Y801311D02*
X142111Y790389D01*
X142111Y801311D02*
X139077Y801311D01*
X138969Y801309D01*
X138861Y801303D01*
X138753Y801294D01*
X138645Y801280D01*
X138538Y801263D01*
X138432Y801242D01*
X138327Y801217D01*
X138222Y801188D01*
X138119Y801156D01*
X138017Y801120D01*
X137916Y801080D01*
X137817Y801037D01*
X137719Y800990D01*
X137623Y800940D01*
X137529Y800886D01*
X137437Y800829D01*
X137347Y800769D01*
X137259Y800706D01*
X137173Y800639D01*
X137090Y800570D01*
X137010Y800498D01*
X136932Y800422D01*
X136856Y800344D01*
X136784Y800264D01*
X136715Y800181D01*
X136648Y800095D01*
X136585Y800007D01*
X136525Y799917D01*
X136468Y799825D01*
X136414Y799731D01*
X136364Y799635D01*
X136317Y799537D01*
X136274Y799438D01*
X136234Y799337D01*
X136198Y799235D01*
X136166Y799132D01*
X136137Y799027D01*
X136112Y798922D01*
X136091Y798816D01*
X136074Y798709D01*
X136060Y798601D01*
X136051Y798493D01*
X136045Y798385D01*
X136043Y798277D01*
X136043Y793423D01*
X136045Y793315D01*
X136051Y793207D01*
X136060Y793099D01*
X136074Y792991D01*
X136091Y792884D01*
X136112Y792778D01*
X136137Y792673D01*
X136166Y792568D01*
X136198Y792465D01*
X136234Y792363D01*
X136274Y792262D01*
X136317Y792163D01*
X136364Y792065D01*
X136414Y791969D01*
X136468Y791875D01*
X136525Y791783D01*
X136585Y791693D01*
X136648Y791605D01*
X136715Y791519D01*
X136784Y791436D01*
X136856Y791356D01*
X136932Y791278D01*
X137010Y791202D01*
X137090Y791130D01*
X137173Y791061D01*
X137259Y790994D01*
X137347Y790931D01*
X137437Y790871D01*
X137529Y790814D01*
X137623Y790760D01*
X137719Y790710D01*
X137817Y790663D01*
X137916Y790620D01*
X138017Y790580D01*
X138119Y790544D01*
X138222Y790512D01*
X138327Y790483D01*
X138432Y790458D01*
X138538Y790437D01*
X138645Y790420D01*
X138753Y790406D01*
X138861Y790397D01*
X138969Y790391D01*
X139077Y790389D01*
X142111Y790389D01*
X130907Y790389D02*
X127266Y801311D01*
X123625Y790389D01*
X124536Y793120D02*
X129997Y793120D01*
X118489Y790389D02*
X118489Y801311D01*
X112421Y790389D01*
X112421Y801311D01*
X102050Y796457D02*
X100229Y796457D01*
X100229Y790389D01*
X103870Y790389D01*
X103968Y790391D01*
X104065Y790397D01*
X104163Y790407D01*
X104259Y790420D01*
X104355Y790438D01*
X104451Y790460D01*
X104545Y790485D01*
X104639Y790514D01*
X104731Y790547D01*
X104821Y790583D01*
X104910Y790623D01*
X104998Y790667D01*
X105084Y790714D01*
X105167Y790765D01*
X105249Y790819D01*
X105328Y790876D01*
X105405Y790936D01*
X105479Y790999D01*
X105551Y791066D01*
X105620Y791135D01*
X105687Y791207D01*
X105750Y791281D01*
X105810Y791358D01*
X105867Y791437D01*
X105921Y791519D01*
X105972Y791603D01*
X106019Y791688D01*
X106063Y791776D01*
X106103Y791865D01*
X106139Y791955D01*
X106172Y792047D01*
X106201Y792141D01*
X106226Y792235D01*
X106248Y792331D01*
X106266Y792427D01*
X106279Y792523D01*
X106289Y792621D01*
X106295Y792718D01*
X106297Y792816D01*
X106297Y798884D01*
X106295Y798982D01*
X106289Y799079D01*
X106279Y799177D01*
X106266Y799273D01*
X106248Y799369D01*
X106226Y799465D01*
X106201Y799559D01*
X106172Y799653D01*
X106139Y799745D01*
X106103Y799835D01*
X106063Y799924D01*
X106019Y800012D01*
X105972Y800097D01*
X105921Y800181D01*
X105867Y800263D01*
X105810Y800342D01*
X105750Y800419D01*
X105687Y800493D01*
X105620Y800565D01*
X105551Y800634D01*
X105479Y800701D01*
X105405Y800764D01*
X105328Y800824D01*
X105249Y800881D01*
X105167Y800935D01*
X105084Y800986D01*
X104998Y801033D01*
X104910Y801077D01*
X104821Y801117D01*
X104731Y801153D01*
X104639Y801186D01*
X104545Y801215D01*
X104451Y801240D01*
X104356Y801262D01*
X104259Y801280D01*
X104163Y801293D01*
X104065Y801303D01*
X103968Y801309D01*
X103870Y801311D01*
X100229Y801311D01*
X94074Y790389D02*
X89220Y790389D01*
X94074Y790389D02*
X94074Y801311D01*
X89220Y801311D01*
X90433Y796457D02*
X94074Y796457D01*
X84098Y801311D02*
X84098Y790389D01*
X84098Y801311D02*
X81064Y801311D01*
X80956Y801309D01*
X80848Y801303D01*
X80740Y801294D01*
X80632Y801280D01*
X80525Y801263D01*
X80419Y801242D01*
X80314Y801217D01*
X80209Y801188D01*
X80106Y801156D01*
X80004Y801120D01*
X79903Y801080D01*
X79804Y801037D01*
X79706Y800990D01*
X79610Y800940D01*
X79516Y800886D01*
X79424Y800829D01*
X79334Y800769D01*
X79246Y800706D01*
X79160Y800639D01*
X79077Y800570D01*
X78997Y800498D01*
X78919Y800422D01*
X78843Y800344D01*
X78771Y800264D01*
X78702Y800181D01*
X78635Y800095D01*
X78572Y800007D01*
X78512Y799917D01*
X78455Y799825D01*
X78401Y799731D01*
X78351Y799635D01*
X78304Y799537D01*
X78261Y799438D01*
X78221Y799337D01*
X78185Y799235D01*
X78153Y799132D01*
X78124Y799027D01*
X78099Y798922D01*
X78078Y798816D01*
X78061Y798709D01*
X78047Y798601D01*
X78038Y798493D01*
X78032Y798385D01*
X78030Y798277D01*
X78032Y798169D01*
X78038Y798061D01*
X78047Y797953D01*
X78061Y797845D01*
X78078Y797738D01*
X78099Y797632D01*
X78124Y797527D01*
X78153Y797422D01*
X78185Y797319D01*
X78221Y797217D01*
X78261Y797116D01*
X78304Y797017D01*
X78351Y796919D01*
X78401Y796823D01*
X78455Y796729D01*
X78512Y796637D01*
X78572Y796547D01*
X78635Y796459D01*
X78702Y796373D01*
X78771Y796290D01*
X78843Y796210D01*
X78919Y796132D01*
X78997Y796056D01*
X79077Y795984D01*
X79160Y795915D01*
X79246Y795848D01*
X79334Y795785D01*
X79424Y795725D01*
X79516Y795668D01*
X79610Y795614D01*
X79706Y795564D01*
X79804Y795517D01*
X79903Y795474D01*
X80004Y795434D01*
X80106Y795398D01*
X80209Y795366D01*
X80314Y795337D01*
X80419Y795312D01*
X80525Y795291D01*
X80632Y795274D01*
X80740Y795260D01*
X80848Y795251D01*
X80956Y795245D01*
X81064Y795243D01*
X84098Y795243D01*
X80457Y795243D02*
X78030Y790389D01*
D14*
X143492Y786992D02*
X143492Y781008D01*
X143492Y784332D02*
X140168Y784332D01*
X140168Y786992D02*
X140168Y781008D01*
X136580Y781008D02*
X136580Y786992D01*
X137245Y781008D02*
X135915Y781008D01*
X135915Y786992D02*
X137245Y786992D01*
X130665Y784332D02*
X129668Y784332D01*
X129668Y781008D01*
X131662Y781008D01*
X131734Y781010D01*
X131806Y781016D01*
X131877Y781026D01*
X131948Y781039D01*
X132018Y781056D01*
X132087Y781078D01*
X132154Y781102D01*
X132220Y781131D01*
X132285Y781163D01*
X132348Y781198D01*
X132408Y781237D01*
X132467Y781279D01*
X132523Y781324D01*
X132577Y781372D01*
X132628Y781423D01*
X132676Y781477D01*
X132721Y781533D01*
X132763Y781592D01*
X132802Y781652D01*
X132837Y781715D01*
X132869Y781780D01*
X132898Y781846D01*
X132922Y781913D01*
X132944Y781982D01*
X132961Y782052D01*
X132974Y782123D01*
X132984Y782194D01*
X132990Y782266D01*
X132992Y782338D01*
X132992Y785662D01*
X132990Y785734D01*
X132984Y785806D01*
X132974Y785877D01*
X132961Y785948D01*
X132944Y786018D01*
X132922Y786087D01*
X132898Y786154D01*
X132869Y786220D01*
X132837Y786285D01*
X132802Y786348D01*
X132763Y786408D01*
X132721Y786467D01*
X132676Y786523D01*
X132628Y786577D01*
X132577Y786628D01*
X132523Y786676D01*
X132467Y786721D01*
X132408Y786763D01*
X132348Y786802D01*
X132285Y786837D01*
X132220Y786869D01*
X132154Y786898D01*
X132087Y786922D01*
X132018Y786944D01*
X131948Y786961D01*
X131877Y786974D01*
X131806Y786984D01*
X131734Y786990D01*
X131662Y786992D01*
X129668Y786992D01*
X126272Y786992D02*
X126272Y781008D01*
X126272Y784332D02*
X122948Y784332D01*
X122948Y786992D02*
X122948Y781008D01*
X114740Y781008D02*
X116734Y786992D01*
X112745Y786992D02*
X114740Y781008D01*
X110102Y782670D02*
X110102Y785330D01*
X110100Y785410D01*
X110094Y785490D01*
X110085Y785570D01*
X110071Y785649D01*
X110054Y785728D01*
X110033Y785805D01*
X110008Y785882D01*
X109979Y785957D01*
X109947Y786030D01*
X109912Y786102D01*
X109873Y786173D01*
X109830Y786241D01*
X109785Y786307D01*
X109736Y786371D01*
X109684Y786432D01*
X109629Y786491D01*
X109572Y786547D01*
X109512Y786600D01*
X109449Y786651D01*
X109384Y786698D01*
X109317Y786742D01*
X109248Y786783D01*
X109177Y786820D01*
X109104Y786854D01*
X109029Y786884D01*
X108954Y786911D01*
X108877Y786934D01*
X108799Y786953D01*
X108720Y786968D01*
X108640Y786980D01*
X108560Y786988D01*
X108480Y786992D01*
X108400Y786992D01*
X108320Y786988D01*
X108240Y786980D01*
X108160Y786968D01*
X108081Y786953D01*
X108003Y786934D01*
X107926Y786911D01*
X107851Y786884D01*
X107776Y786854D01*
X107703Y786820D01*
X107632Y786783D01*
X107563Y786742D01*
X107496Y786698D01*
X107431Y786651D01*
X107368Y786600D01*
X107308Y786547D01*
X107251Y786491D01*
X107196Y786432D01*
X107144Y786371D01*
X107095Y786307D01*
X107050Y786241D01*
X107007Y786173D01*
X106968Y786102D01*
X106933Y786030D01*
X106901Y785957D01*
X106872Y785882D01*
X106847Y785805D01*
X106826Y785728D01*
X106809Y785649D01*
X106795Y785570D01*
X106786Y785490D01*
X106780Y785410D01*
X106778Y785330D01*
X106778Y782670D01*
X106780Y782590D01*
X106786Y782510D01*
X106795Y782430D01*
X106809Y782351D01*
X106826Y782272D01*
X106847Y782195D01*
X106872Y782118D01*
X106901Y782043D01*
X106933Y781970D01*
X106968Y781898D01*
X107007Y781827D01*
X107050Y781759D01*
X107095Y781693D01*
X107144Y781629D01*
X107196Y781568D01*
X107251Y781509D01*
X107308Y781453D01*
X107368Y781400D01*
X107431Y781349D01*
X107496Y781302D01*
X107563Y781258D01*
X107632Y781217D01*
X107703Y781180D01*
X107776Y781146D01*
X107851Y781116D01*
X107926Y781089D01*
X108003Y781066D01*
X108081Y781047D01*
X108160Y781032D01*
X108240Y781020D01*
X108320Y781012D01*
X108400Y781008D01*
X108480Y781008D01*
X108560Y781012D01*
X108640Y781020D01*
X108720Y781032D01*
X108799Y781047D01*
X108877Y781066D01*
X108954Y781089D01*
X109029Y781116D01*
X109104Y781146D01*
X109177Y781180D01*
X109248Y781217D01*
X109317Y781258D01*
X109384Y781302D01*
X109449Y781349D01*
X109512Y781400D01*
X109572Y781453D01*
X109629Y781509D01*
X109684Y781568D01*
X109736Y781629D01*
X109785Y781693D01*
X109830Y781759D01*
X109873Y781827D01*
X109912Y781898D01*
X109947Y781970D01*
X109979Y782043D01*
X110008Y782118D01*
X110033Y782195D01*
X110054Y782272D01*
X110071Y782351D01*
X110085Y782430D01*
X110094Y782510D01*
X110100Y782590D01*
X110102Y782670D01*
X103575Y781008D02*
X103575Y786992D01*
X103575Y781008D02*
X100915Y781008D01*
X97100Y781008D02*
X97100Y786992D01*
X98762Y786992D02*
X95438Y786992D01*
X91220Y786992D02*
X93215Y781008D01*
X89225Y781008D02*
X91220Y786992D01*
X89724Y782504D02*
X92716Y782504D01*
X84045Y784332D02*
X83048Y784332D01*
X83048Y781008D01*
X85042Y781008D01*
X85114Y781010D01*
X85186Y781016D01*
X85257Y781026D01*
X85328Y781039D01*
X85398Y781056D01*
X85467Y781078D01*
X85534Y781102D01*
X85600Y781131D01*
X85665Y781163D01*
X85728Y781198D01*
X85788Y781237D01*
X85847Y781279D01*
X85903Y781324D01*
X85957Y781372D01*
X86008Y781423D01*
X86056Y781477D01*
X86101Y781533D01*
X86143Y781592D01*
X86182Y781652D01*
X86217Y781715D01*
X86249Y781780D01*
X86278Y781846D01*
X86302Y781913D01*
X86324Y781982D01*
X86341Y782052D01*
X86354Y782123D01*
X86364Y782194D01*
X86370Y782266D01*
X86372Y782338D01*
X86372Y785662D01*
X86370Y785734D01*
X86364Y785806D01*
X86354Y785877D01*
X86341Y785948D01*
X86324Y786018D01*
X86302Y786087D01*
X86278Y786154D01*
X86249Y786220D01*
X86217Y786285D01*
X86182Y786348D01*
X86143Y786408D01*
X86101Y786467D01*
X86056Y786523D01*
X86008Y786577D01*
X85957Y786628D01*
X85903Y786676D01*
X85847Y786721D01*
X85788Y786763D01*
X85728Y786802D01*
X85665Y786837D01*
X85600Y786869D01*
X85534Y786898D01*
X85467Y786922D01*
X85398Y786944D01*
X85328Y786961D01*
X85257Y786974D01*
X85186Y786984D01*
X85114Y786990D01*
X85042Y786992D01*
X83048Y786992D01*
X79635Y781008D02*
X76975Y781008D01*
X79635Y781008D02*
X79635Y786992D01*
X76975Y786992D01*
X77640Y784332D02*
X79635Y784332D01*
D11*
X331000Y829500D02*
X337250Y817000D01*
X331750Y819250D01*
X336750Y817500D01*
X336250Y818250D01*
X337250Y817000D02*
X331500Y829750D01*
X329000Y828500D01*
X331750Y828750D01*
X331750Y828500D01*
X331250Y829500D01*
D12*
X331500Y839500D02*
X351500Y804500D01*
X314000Y804500D01*
X331500Y839500D01*
D13*
X362111Y801311D02*
X362111Y790389D01*
X362111Y801311D02*
X359077Y801311D01*
X358969Y801309D01*
X358861Y801303D01*
X358753Y801294D01*
X358645Y801280D01*
X358538Y801263D01*
X358432Y801242D01*
X358327Y801217D01*
X358222Y801188D01*
X358119Y801156D01*
X358017Y801120D01*
X357916Y801080D01*
X357817Y801037D01*
X357719Y800990D01*
X357623Y800940D01*
X357529Y800886D01*
X357437Y800829D01*
X357347Y800769D01*
X357259Y800706D01*
X357173Y800639D01*
X357090Y800570D01*
X357010Y800498D01*
X356932Y800422D01*
X356856Y800344D01*
X356784Y800264D01*
X356715Y800181D01*
X356648Y800095D01*
X356585Y800007D01*
X356525Y799917D01*
X356468Y799825D01*
X356414Y799731D01*
X356364Y799635D01*
X356317Y799537D01*
X356274Y799438D01*
X356234Y799337D01*
X356198Y799235D01*
X356166Y799132D01*
X356137Y799027D01*
X356112Y798922D01*
X356091Y798816D01*
X356074Y798709D01*
X356060Y798601D01*
X356051Y798493D01*
X356045Y798385D01*
X356043Y798277D01*
X356043Y793423D01*
X356045Y793315D01*
X356051Y793207D01*
X356060Y793099D01*
X356074Y792991D01*
X356091Y792884D01*
X356112Y792778D01*
X356137Y792673D01*
X356166Y792568D01*
X356198Y792465D01*
X356234Y792363D01*
X356274Y792262D01*
X356317Y792163D01*
X356364Y792065D01*
X356414Y791969D01*
X356468Y791875D01*
X356525Y791783D01*
X356585Y791693D01*
X356648Y791605D01*
X356715Y791519D01*
X356784Y791436D01*
X356856Y791356D01*
X356932Y791278D01*
X357010Y791202D01*
X357090Y791130D01*
X357173Y791061D01*
X357259Y790994D01*
X357347Y790931D01*
X357437Y790871D01*
X357529Y790814D01*
X357623Y790760D01*
X357719Y790710D01*
X357817Y790663D01*
X357916Y790620D01*
X358017Y790580D01*
X358119Y790544D01*
X358222Y790512D01*
X358327Y790483D01*
X358432Y790458D01*
X358538Y790437D01*
X358645Y790420D01*
X358753Y790406D01*
X358861Y790397D01*
X358969Y790391D01*
X359077Y790389D01*
X362111Y790389D01*
X350907Y790389D02*
X347266Y801311D01*
X343625Y790389D01*
X344536Y793120D02*
X349997Y793120D01*
X338489Y790389D02*
X338489Y801311D01*
X332421Y790389D01*
X332421Y801311D01*
X322050Y796457D02*
X320229Y796457D01*
X320229Y790389D01*
X323870Y790389D01*
X323968Y790391D01*
X324065Y790397D01*
X324163Y790407D01*
X324259Y790420D01*
X324355Y790438D01*
X324451Y790460D01*
X324545Y790485D01*
X324639Y790514D01*
X324731Y790547D01*
X324821Y790583D01*
X324910Y790623D01*
X324998Y790667D01*
X325084Y790714D01*
X325167Y790765D01*
X325249Y790819D01*
X325328Y790876D01*
X325405Y790936D01*
X325479Y790999D01*
X325551Y791066D01*
X325620Y791135D01*
X325687Y791207D01*
X325750Y791281D01*
X325810Y791358D01*
X325867Y791437D01*
X325921Y791519D01*
X325972Y791603D01*
X326019Y791688D01*
X326063Y791776D01*
X326103Y791865D01*
X326139Y791955D01*
X326172Y792047D01*
X326201Y792141D01*
X326226Y792235D01*
X326248Y792331D01*
X326266Y792427D01*
X326279Y792523D01*
X326289Y792621D01*
X326295Y792718D01*
X326297Y792816D01*
X326297Y798884D01*
X326295Y798982D01*
X326289Y799079D01*
X326279Y799177D01*
X326266Y799273D01*
X326248Y799369D01*
X326226Y799465D01*
X326201Y799559D01*
X326172Y799653D01*
X326139Y799745D01*
X326103Y799835D01*
X326063Y799924D01*
X326019Y800012D01*
X325972Y800097D01*
X325921Y800181D01*
X325867Y800263D01*
X325810Y800342D01*
X325750Y800419D01*
X325687Y800493D01*
X325620Y800565D01*
X325551Y800634D01*
X325479Y800701D01*
X325405Y800764D01*
X325328Y800824D01*
X325249Y800881D01*
X325167Y800935D01*
X325084Y800986D01*
X324998Y801033D01*
X324910Y801077D01*
X324821Y801117D01*
X324731Y801153D01*
X324639Y801186D01*
X324545Y801215D01*
X324451Y801240D01*
X324356Y801262D01*
X324259Y801280D01*
X324163Y801293D01*
X324065Y801303D01*
X323968Y801309D01*
X323870Y801311D01*
X320229Y801311D01*
X314074Y790389D02*
X309220Y790389D01*
X314074Y790389D02*
X314074Y801311D01*
X309220Y801311D01*
X310433Y796457D02*
X314074Y796457D01*
X304098Y801311D02*
X304098Y790389D01*
X304098Y801311D02*
X301064Y801311D01*
X300956Y801309D01*
X300848Y801303D01*
X300740Y801294D01*
X300632Y801280D01*
X300525Y801263D01*
X300419Y801242D01*
X300314Y801217D01*
X300209Y801188D01*
X300106Y801156D01*
X300004Y801120D01*
X299903Y801080D01*
X299804Y801037D01*
X299706Y800990D01*
X299610Y800940D01*
X299516Y800886D01*
X299424Y800829D01*
X299334Y800769D01*
X299246Y800706D01*
X299160Y800639D01*
X299077Y800570D01*
X298997Y800498D01*
X298919Y800422D01*
X298843Y800344D01*
X298771Y800264D01*
X298702Y800181D01*
X298635Y800095D01*
X298572Y800007D01*
X298512Y799917D01*
X298455Y799825D01*
X298401Y799731D01*
X298351Y799635D01*
X298304Y799537D01*
X298261Y799438D01*
X298221Y799337D01*
X298185Y799235D01*
X298153Y799132D01*
X298124Y799027D01*
X298099Y798922D01*
X298078Y798816D01*
X298061Y798709D01*
X298047Y798601D01*
X298038Y798493D01*
X298032Y798385D01*
X298030Y798277D01*
X298032Y798169D01*
X298038Y798061D01*
X298047Y797953D01*
X298061Y797845D01*
X298078Y797738D01*
X298099Y797632D01*
X298124Y797527D01*
X298153Y797422D01*
X298185Y797319D01*
X298221Y797217D01*
X298261Y797116D01*
X298304Y797017D01*
X298351Y796919D01*
X298401Y796823D01*
X298455Y796729D01*
X298512Y796637D01*
X298572Y796547D01*
X298635Y796459D01*
X298702Y796373D01*
X298771Y796290D01*
X298843Y796210D01*
X298919Y796132D01*
X298997Y796056D01*
X299077Y795984D01*
X299160Y795915D01*
X299246Y795848D01*
X299334Y795785D01*
X299424Y795725D01*
X299516Y795668D01*
X299610Y795614D01*
X299706Y795564D01*
X299804Y795517D01*
X299903Y795474D01*
X300004Y795434D01*
X300106Y795398D01*
X300209Y795366D01*
X300314Y795337D01*
X300419Y795312D01*
X300525Y795291D01*
X300632Y795274D01*
X300740Y795260D01*
X300848Y795251D01*
X300956Y795245D01*
X301064Y795243D01*
X304098Y795243D01*
X300457Y795243D02*
X298030Y790389D01*
D14*
X363492Y786992D02*
X363492Y781008D01*
X363492Y784332D02*
X360168Y784332D01*
X360168Y786992D02*
X360168Y781008D01*
X356580Y781008D02*
X356580Y786992D01*
X357245Y781008D02*
X355915Y781008D01*
X355915Y786992D02*
X357245Y786992D01*
X350665Y784332D02*
X349668Y784332D01*
X349668Y781008D01*
X351662Y781008D01*
X351734Y781010D01*
X351806Y781016D01*
X351877Y781026D01*
X351948Y781039D01*
X352018Y781056D01*
X352087Y781078D01*
X352154Y781102D01*
X352220Y781131D01*
X352285Y781163D01*
X352348Y781198D01*
X352408Y781237D01*
X352467Y781279D01*
X352523Y781324D01*
X352577Y781372D01*
X352628Y781423D01*
X352676Y781477D01*
X352721Y781533D01*
X352763Y781592D01*
X352802Y781652D01*
X352837Y781715D01*
X352869Y781780D01*
X352898Y781846D01*
X352922Y781913D01*
X352944Y781982D01*
X352961Y782052D01*
X352974Y782123D01*
X352984Y782194D01*
X352990Y782266D01*
X352992Y782338D01*
X352992Y785662D01*
X352990Y785734D01*
X352984Y785806D01*
X352974Y785877D01*
X352961Y785948D01*
X352944Y786018D01*
X352922Y786087D01*
X352898Y786154D01*
X352869Y786220D01*
X352837Y786285D01*
X352802Y786348D01*
X352763Y786408D01*
X352721Y786467D01*
X352676Y786523D01*
X352628Y786577D01*
X352577Y786628D01*
X352523Y786676D01*
X352467Y786721D01*
X352408Y786763D01*
X352348Y786802D01*
X352285Y786837D01*
X352220Y786869D01*
X352154Y786898D01*
X352087Y786922D01*
X352018Y786944D01*
X351948Y786961D01*
X351877Y786974D01*
X351806Y786984D01*
X351734Y786990D01*
X351662Y786992D01*
X349668Y786992D01*
X346272Y786992D02*
X346272Y781008D01*
X346272Y784332D02*
X342948Y784332D01*
X342948Y786992D02*
X342948Y781008D01*
X334740Y781008D02*
X336734Y786992D01*
X332745Y786992D02*
X334740Y781008D01*
X330102Y782670D02*
X330102Y785330D01*
X330100Y785410D01*
X330094Y785490D01*
X330085Y785570D01*
X330071Y785649D01*
X330054Y785728D01*
X330033Y785805D01*
X330008Y785882D01*
X329979Y785957D01*
X329947Y786030D01*
X329912Y786102D01*
X329873Y786173D01*
X329830Y786241D01*
X329785Y786307D01*
X329736Y786371D01*
X329684Y786432D01*
X329629Y786491D01*
X329572Y786547D01*
X329512Y786600D01*
X329449Y786651D01*
X329384Y786698D01*
X329317Y786742D01*
X329248Y786783D01*
X329177Y786820D01*
X329104Y786854D01*
X329029Y786884D01*
X328954Y786911D01*
X328877Y786934D01*
X328799Y786953D01*
X328720Y786968D01*
X328640Y786980D01*
X328560Y786988D01*
X328480Y786992D01*
X328400Y786992D01*
X328320Y786988D01*
X328240Y786980D01*
X328160Y786968D01*
X328081Y786953D01*
X328003Y786934D01*
X327926Y786911D01*
X327851Y786884D01*
X327776Y786854D01*
X327703Y786820D01*
X327632Y786783D01*
X327563Y786742D01*
X327496Y786698D01*
X327431Y786651D01*
X327368Y786600D01*
X327308Y786547D01*
X327251Y786491D01*
X327196Y786432D01*
X327144Y786371D01*
X327095Y786307D01*
X327050Y786241D01*
X327007Y786173D01*
X326968Y786102D01*
X326933Y786030D01*
X326901Y785957D01*
X326872Y785882D01*
X326847Y785805D01*
X326826Y785728D01*
X326809Y785649D01*
X326795Y785570D01*
X326786Y785490D01*
X326780Y785410D01*
X326778Y785330D01*
X326778Y782670D01*
X326780Y782590D01*
X326786Y782510D01*
X326795Y782430D01*
X326809Y782351D01*
X326826Y782272D01*
X326847Y782195D01*
X326872Y782118D01*
X326901Y782043D01*
X326933Y781970D01*
X326968Y781898D01*
X327007Y781827D01*
X327050Y781759D01*
X327095Y781693D01*
X327144Y781629D01*
X327196Y781568D01*
X327251Y781509D01*
X327308Y781453D01*
X327368Y781400D01*
X327431Y781349D01*
X327496Y781302D01*
X327563Y781258D01*
X327632Y781217D01*
X327703Y781180D01*
X327776Y781146D01*
X327851Y781116D01*
X327926Y781089D01*
X328003Y781066D01*
X328081Y781047D01*
X328160Y781032D01*
X328240Y781020D01*
X328320Y781012D01*
X328400Y781008D01*
X328480Y781008D01*
X328560Y781012D01*
X328640Y781020D01*
X328720Y781032D01*
X328799Y781047D01*
X328877Y781066D01*
X328954Y781089D01*
X329029Y781116D01*
X329104Y781146D01*
X329177Y781180D01*
X329248Y781217D01*
X329317Y781258D01*
X329384Y781302D01*
X329449Y781349D01*
X329512Y781400D01*
X329572Y781453D01*
X329629Y781509D01*
X329684Y781568D01*
X329736Y781629D01*
X329785Y781693D01*
X329830Y781759D01*
X329873Y781827D01*
X329912Y781898D01*
X329947Y781970D01*
X329979Y782043D01*
X330008Y782118D01*
X330033Y782195D01*
X330054Y782272D01*
X330071Y782351D01*
X330085Y782430D01*
X330094Y782510D01*
X330100Y782590D01*
X330102Y782670D01*
X323575Y781008D02*
X323575Y786992D01*
X323575Y781008D02*
X320915Y781008D01*
X317100Y781008D02*
X317100Y786992D01*
X318762Y786992D02*
X315438Y786992D01*
X311220Y786992D02*
X313215Y781008D01*
X309225Y781008D02*
X311220Y786992D01*
X309724Y782504D02*
X312716Y782504D01*
X304045Y784332D02*
X303048Y784332D01*
X303048Y781008D01*
X305042Y781008D01*
X305114Y781010D01*
X305186Y781016D01*
X305257Y781026D01*
X305328Y781039D01*
X305398Y781056D01*
X305467Y781078D01*
X305534Y781102D01*
X305600Y781131D01*
X305665Y781163D01*
X305728Y781198D01*
X305788Y781237D01*
X305847Y781279D01*
X305903Y781324D01*
X305957Y781372D01*
X306008Y781423D01*
X306056Y781477D01*
X306101Y781533D01*
X306143Y781592D01*
X306182Y781652D01*
X306217Y781715D01*
X306249Y781780D01*
X306278Y781846D01*
X306302Y781913D01*
X306324Y781982D01*
X306341Y782052D01*
X306354Y782123D01*
X306364Y782194D01*
X306370Y782266D01*
X306372Y782338D01*
X306372Y785662D01*
X306370Y785734D01*
X306364Y785806D01*
X306354Y785877D01*
X306341Y785948D01*
X306324Y786018D01*
X306302Y786087D01*
X306278Y786154D01*
X306249Y786220D01*
X306217Y786285D01*
X306182Y786348D01*
X306143Y786408D01*
X306101Y786467D01*
X306056Y786523D01*
X306008Y786577D01*
X305957Y786628D01*
X305903Y786676D01*
X305847Y786721D01*
X305788Y786763D01*
X305728Y786802D01*
X305665Y786837D01*
X305600Y786869D01*
X305534Y786898D01*
X305467Y786922D01*
X305398Y786944D01*
X305328Y786961D01*
X305257Y786974D01*
X305186Y786984D01*
X305114Y786990D01*
X305042Y786992D01*
X303048Y786992D01*
X299635Y781008D02*
X296975Y781008D01*
X299635Y781008D02*
X299635Y786992D01*
X296975Y786992D01*
X297640Y784332D02*
X299635Y784332D01*
D11*
X541000Y829500D02*
X547250Y817000D01*
X541750Y819250D01*
X546750Y817500D01*
X546250Y818250D01*
X547250Y817000D02*
X541500Y829750D01*
X539000Y828500D01*
X541750Y828750D01*
X541750Y828500D01*
X541250Y829500D01*
D12*
X541500Y839500D02*
X561500Y804500D01*
X524000Y804500D01*
X541500Y839500D01*
D13*
X572111Y801311D02*
X572111Y790389D01*
X572111Y801311D02*
X569077Y801311D01*
X568969Y801309D01*
X568861Y801303D01*
X568753Y801294D01*
X568645Y801280D01*
X568538Y801263D01*
X568432Y801242D01*
X568327Y801217D01*
X568222Y801188D01*
X568119Y801156D01*
X568017Y801120D01*
X567916Y801080D01*
X567817Y801037D01*
X567719Y800990D01*
X567623Y800940D01*
X567529Y800886D01*
X567437Y800829D01*
X567347Y800769D01*
X567259Y800706D01*
X567173Y800639D01*
X567090Y800570D01*
X567010Y800498D01*
X566932Y800422D01*
X566856Y800344D01*
X566784Y800264D01*
X566715Y800181D01*
X566648Y800095D01*
X566585Y800007D01*
X566525Y799917D01*
X566468Y799825D01*
X566414Y799731D01*
X566364Y799635D01*
X566317Y799537D01*
X566274Y799438D01*
X566234Y799337D01*
X566198Y799235D01*
X566166Y799132D01*
X566137Y799027D01*
X566112Y798922D01*
X566091Y798816D01*
X566074Y798709D01*
X566060Y798601D01*
X566051Y798493D01*
X566045Y798385D01*
X566043Y798277D01*
X566043Y793423D01*
X566045Y793315D01*
X566051Y793207D01*
X566060Y793099D01*
X566074Y792991D01*
X566091Y792884D01*
X566112Y792778D01*
X566137Y792673D01*
X566166Y792568D01*
X566198Y792465D01*
X566234Y792363D01*
X566274Y792262D01*
X566317Y792163D01*
X566364Y792065D01*
X566414Y791969D01*
X566468Y791875D01*
X566525Y791783D01*
X566585Y791693D01*
X566648Y791605D01*
X566715Y791519D01*
X566784Y791436D01*
X566856Y791356D01*
X566932Y791278D01*
X567010Y791202D01*
X567090Y791130D01*
X567173Y791061D01*
X567259Y790994D01*
X567347Y790931D01*
X567437Y790871D01*
X567529Y790814D01*
X567623Y790760D01*
X567719Y790710D01*
X567817Y790663D01*
X567916Y790620D01*
X568017Y790580D01*
X568119Y790544D01*
X568222Y790512D01*
X568327Y790483D01*
X568432Y790458D01*
X568538Y790437D01*
X568645Y790420D01*
X568753Y790406D01*
X568861Y790397D01*
X568969Y790391D01*
X569077Y790389D01*
X572111Y790389D01*
X560907Y790389D02*
X557266Y801311D01*
X553625Y790389D01*
X554536Y793120D02*
X559997Y793120D01*
X548489Y790389D02*
X548489Y801311D01*
X542421Y790389D01*
X542421Y801311D01*
X532050Y796457D02*
X530229Y796457D01*
X530229Y790389D01*
X533870Y790389D01*
X533968Y790391D01*
X534065Y790397D01*
X534163Y790407D01*
X534259Y790420D01*
X534355Y790438D01*
X534451Y790460D01*
X534545Y790485D01*
X534639Y790514D01*
X534731Y790547D01*
X534821Y790583D01*
X534910Y790623D01*
X534998Y790667D01*
X535084Y790714D01*
X535167Y790765D01*
X535249Y790819D01*
X535328Y790876D01*
X535405Y790936D01*
X535479Y790999D01*
X535551Y791066D01*
X535620Y791135D01*
X535687Y791207D01*
X535750Y791281D01*
X535810Y791358D01*
X535867Y791437D01*
X535921Y791519D01*
X535972Y791603D01*
X536019Y791688D01*
X536063Y791776D01*
X536103Y791865D01*
X536139Y791955D01*
X536172Y792047D01*
X536201Y792141D01*
X536226Y792235D01*
X536248Y792331D01*
X536266Y792427D01*
X536279Y792523D01*
X536289Y792621D01*
X536295Y792718D01*
X536297Y792816D01*
X536297Y798884D01*
X536295Y798982D01*
X536289Y799079D01*
X536279Y799177D01*
X536266Y799273D01*
X536248Y799369D01*
X536226Y799465D01*
X536201Y799559D01*
X536172Y799653D01*
X536139Y799745D01*
X536103Y799835D01*
X536063Y799924D01*
X536019Y800012D01*
X535972Y800097D01*
X535921Y800181D01*
X535867Y800263D01*
X535810Y800342D01*
X535750Y800419D01*
X535687Y800493D01*
X535620Y800565D01*
X535551Y800634D01*
X535479Y800701D01*
X535405Y800764D01*
X535328Y800824D01*
X535249Y800881D01*
X535167Y800935D01*
X535084Y800986D01*
X534998Y801033D01*
X534910Y801077D01*
X534821Y801117D01*
X534731Y801153D01*
X534639Y801186D01*
X534545Y801215D01*
X534451Y801240D01*
X534356Y801262D01*
X534259Y801280D01*
X534163Y801293D01*
X534065Y801303D01*
X533968Y801309D01*
X533870Y801311D01*
X530229Y801311D01*
X524074Y790389D02*
X519220Y790389D01*
X524074Y790389D02*
X524074Y801311D01*
X519220Y801311D01*
X520433Y796457D02*
X524074Y796457D01*
X514098Y801311D02*
X514098Y790389D01*
X514098Y801311D02*
X511064Y801311D01*
X510956Y801309D01*
X510848Y801303D01*
X510740Y801294D01*
X510632Y801280D01*
X510525Y801263D01*
X510419Y801242D01*
X510314Y801217D01*
X510209Y801188D01*
X510106Y801156D01*
X510004Y801120D01*
X509903Y801080D01*
X509804Y801037D01*
X509706Y800990D01*
X509610Y800940D01*
X509516Y800886D01*
X509424Y800829D01*
X509334Y800769D01*
X509246Y800706D01*
X509160Y800639D01*
X509077Y800570D01*
X508997Y800498D01*
X508919Y800422D01*
X508843Y800344D01*
X508771Y800264D01*
X508702Y800181D01*
X508635Y800095D01*
X508572Y800007D01*
X508512Y799917D01*
X508455Y799825D01*
X508401Y799731D01*
X508351Y799635D01*
X508304Y799537D01*
X508261Y799438D01*
X508221Y799337D01*
X508185Y799235D01*
X508153Y799132D01*
X508124Y799027D01*
X508099Y798922D01*
X508078Y798816D01*
X508061Y798709D01*
X508047Y798601D01*
X508038Y798493D01*
X508032Y798385D01*
X508030Y798277D01*
X508032Y798169D01*
X508038Y798061D01*
X508047Y797953D01*
X508061Y797845D01*
X508078Y797738D01*
X508099Y797632D01*
X508124Y797527D01*
X508153Y797422D01*
X508185Y797319D01*
X508221Y797217D01*
X508261Y797116D01*
X508304Y797017D01*
X508351Y796919D01*
X508401Y796823D01*
X508455Y796729D01*
X508512Y796637D01*
X508572Y796547D01*
X508635Y796459D01*
X508702Y796373D01*
X508771Y796290D01*
X508843Y796210D01*
X508919Y796132D01*
X508997Y796056D01*
X509077Y795984D01*
X509160Y795915D01*
X509246Y795848D01*
X509334Y795785D01*
X509424Y795725D01*
X509516Y795668D01*
X509610Y795614D01*
X509706Y795564D01*
X509804Y795517D01*
X509903Y795474D01*
X510004Y795434D01*
X510106Y795398D01*
X510209Y795366D01*
X510314Y795337D01*
X510419Y795312D01*
X510525Y795291D01*
X510632Y795274D01*
X510740Y795260D01*
X510848Y795251D01*
X510956Y795245D01*
X511064Y795243D01*
X514098Y795243D01*
X510457Y795243D02*
X508030Y790389D01*
D14*
X573492Y786992D02*
X573492Y781008D01*
X573492Y784332D02*
X570168Y784332D01*
X570168Y786992D02*
X570168Y781008D01*
X566580Y781008D02*
X566580Y786992D01*
X567245Y781008D02*
X565915Y781008D01*
X565915Y786992D02*
X567245Y786992D01*
X560665Y784332D02*
X559668Y784332D01*
X559668Y781008D01*
X561662Y781008D01*
X561734Y781010D01*
X561806Y781016D01*
X561877Y781026D01*
X561948Y781039D01*
X562018Y781056D01*
X562087Y781078D01*
X562154Y781102D01*
X562220Y781131D01*
X562285Y781163D01*
X562348Y781198D01*
X562408Y781237D01*
X562467Y781279D01*
X562523Y781324D01*
X562577Y781372D01*
X562628Y781423D01*
X562676Y781477D01*
X562721Y781533D01*
X562763Y781592D01*
X562802Y781652D01*
X562837Y781715D01*
X562869Y781780D01*
X562898Y781846D01*
X562922Y781913D01*
X562944Y781982D01*
X562961Y782052D01*
X562974Y782123D01*
X562984Y782194D01*
X562990Y782266D01*
X562992Y782338D01*
X562992Y785662D01*
X562990Y785734D01*
X562984Y785806D01*
X562974Y785877D01*
X562961Y785948D01*
X562944Y786018D01*
X562922Y786087D01*
X562898Y786154D01*
X562869Y786220D01*
X562837Y786285D01*
X562802Y786348D01*
X562763Y786408D01*
X562721Y786467D01*
X562676Y786523D01*
X562628Y786577D01*
X562577Y786628D01*
X562523Y786676D01*
X562467Y786721D01*
X562408Y786763D01*
X562348Y786802D01*
X562285Y786837D01*
X562220Y786869D01*
X562154Y786898D01*
X562087Y786922D01*
X562018Y786944D01*
X561948Y786961D01*
X561877Y786974D01*
X561806Y786984D01*
X561734Y786990D01*
X561662Y786992D01*
X559668Y786992D01*
X556272Y786992D02*
X556272Y781008D01*
X556272Y784332D02*
X552948Y784332D01*
X552948Y786992D02*
X552948Y781008D01*
X544740Y781008D02*
X546734Y786992D01*
X542745Y786992D02*
X544740Y781008D01*
X540102Y782670D02*
X540102Y785330D01*
X540100Y785410D01*
X540094Y785490D01*
X540085Y785570D01*
X540071Y785649D01*
X540054Y785728D01*
X540033Y785805D01*
X540008Y785882D01*
X539979Y785957D01*
X539947Y786030D01*
X539912Y786102D01*
X539873Y786173D01*
X539830Y786241D01*
X539785Y786307D01*
X539736Y786371D01*
X539684Y786432D01*
X539629Y786491D01*
X539572Y786547D01*
X539512Y786600D01*
X539449Y786651D01*
X539384Y786698D01*
X539317Y786742D01*
X539248Y786783D01*
X539177Y786820D01*
X539104Y786854D01*
X539029Y786884D01*
X538954Y786911D01*
X538877Y786934D01*
X538799Y786953D01*
X538720Y786968D01*
X538640Y786980D01*
X538560Y786988D01*
X538480Y786992D01*
X538400Y786992D01*
X538320Y786988D01*
X538240Y786980D01*
X538160Y786968D01*
X538081Y786953D01*
X538003Y786934D01*
X537926Y786911D01*
X537851Y786884D01*
X537776Y786854D01*
X537703Y786820D01*
X537632Y786783D01*
X537563Y786742D01*
X537496Y786698D01*
X537431Y786651D01*
X537368Y786600D01*
X537308Y786547D01*
X537251Y786491D01*
X537196Y786432D01*
X537144Y786371D01*
X537095Y786307D01*
X537050Y786241D01*
X537007Y786173D01*
X536968Y786102D01*
X536933Y786030D01*
X536901Y785957D01*
X536872Y785882D01*
X536847Y785805D01*
X536826Y785728D01*
X536809Y785649D01*
X536795Y785570D01*
X536786Y785490D01*
X536780Y785410D01*
X536778Y785330D01*
X536778Y782670D01*
X536780Y782590D01*
X536786Y782510D01*
X536795Y782430D01*
X536809Y782351D01*
X536826Y782272D01*
X536847Y782195D01*
X536872Y782118D01*
X536901Y782043D01*
X536933Y781970D01*
X536968Y781898D01*
X537007Y781827D01*
X537050Y781759D01*
X537095Y781693D01*
X537144Y781629D01*
X537196Y781568D01*
X537251Y781509D01*
X537308Y781453D01*
X537368Y781400D01*
X537431Y781349D01*
X537496Y781302D01*
X537563Y781258D01*
X537632Y781217D01*
X537703Y781180D01*
X537776Y781146D01*
X537851Y781116D01*
X537926Y781089D01*
X538003Y781066D01*
X538081Y781047D01*
X538160Y781032D01*
X538240Y781020D01*
X538320Y781012D01*
X538400Y781008D01*
X538480Y781008D01*
X538560Y781012D01*
X538640Y781020D01*
X538720Y781032D01*
X538799Y781047D01*
X538877Y781066D01*
X538954Y781089D01*
X539029Y781116D01*
X539104Y781146D01*
X539177Y781180D01*
X539248Y781217D01*
X539317Y781258D01*
X539384Y781302D01*
X539449Y781349D01*
X539512Y781400D01*
X539572Y781453D01*
X539629Y781509D01*
X539684Y781568D01*
X539736Y781629D01*
X539785Y781693D01*
X539830Y781759D01*
X539873Y781827D01*
X539912Y781898D01*
X539947Y781970D01*
X539979Y782043D01*
X540008Y782118D01*
X540033Y782195D01*
X540054Y782272D01*
X540071Y782351D01*
X540085Y782430D01*
X540094Y782510D01*
X540100Y782590D01*
X540102Y782670D01*
X533575Y781008D02*
X533575Y786992D01*
X533575Y781008D02*
X530915Y781008D01*
X527100Y781008D02*
X527100Y786992D01*
X528762Y786992D02*
X525438Y786992D01*
X521220Y786992D02*
X523215Y781008D01*
X519225Y781008D02*
X521220Y786992D01*
X519724Y782504D02*
X522716Y782504D01*
X514045Y784332D02*
X513048Y784332D01*
X513048Y781008D01*
X515042Y781008D01*
X515114Y781010D01*
X515186Y781016D01*
X515257Y781026D01*
X515328Y781039D01*
X515398Y781056D01*
X515467Y781078D01*
X515534Y781102D01*
X515600Y781131D01*
X515665Y781163D01*
X515728Y781198D01*
X515788Y781237D01*
X515847Y781279D01*
X515903Y781324D01*
X515957Y781372D01*
X516008Y781423D01*
X516056Y781477D01*
X516101Y781533D01*
X516143Y781592D01*
X516182Y781652D01*
X516217Y781715D01*
X516249Y781780D01*
X516278Y781846D01*
X516302Y781913D01*
X516324Y781982D01*
X516341Y782052D01*
X516354Y782123D01*
X516364Y782194D01*
X516370Y782266D01*
X516372Y782338D01*
X516372Y785662D01*
X516370Y785734D01*
X516364Y785806D01*
X516354Y785877D01*
X516341Y785948D01*
X516324Y786018D01*
X516302Y786087D01*
X516278Y786154D01*
X516249Y786220D01*
X516217Y786285D01*
X516182Y786348D01*
X516143Y786408D01*
X516101Y786467D01*
X516056Y786523D01*
X516008Y786577D01*
X515957Y786628D01*
X515903Y786676D01*
X515847Y786721D01*
X515788Y786763D01*
X515728Y786802D01*
X515665Y786837D01*
X515600Y786869D01*
X515534Y786898D01*
X515467Y786922D01*
X515398Y786944D01*
X515328Y786961D01*
X515257Y786974D01*
X515186Y786984D01*
X515114Y786990D01*
X515042Y786992D01*
X513048Y786992D01*
X509635Y781008D02*
X506975Y781008D01*
X509635Y781008D02*
X509635Y786992D01*
X506975Y786992D01*
X507640Y784332D02*
X509635Y784332D01*
D12*
X650000Y490000D02*
X940000Y490000D01*
X630000Y470000D02*
X630000Y180000D01*
X650000Y160000D02*
X940000Y160000D01*
X960000Y180000D02*
X960000Y470000D01*
X959994Y470483D01*
X959977Y470966D01*
X959947Y471449D01*
X959907Y471930D01*
X959854Y472411D01*
X959790Y472890D01*
X959715Y473367D01*
X959627Y473843D01*
X959529Y474316D01*
X959419Y474786D01*
X959298Y475254D01*
X959165Y475719D01*
X959021Y476180D01*
X958866Y476638D01*
X958700Y477092D01*
X958523Y477542D01*
X958336Y477987D01*
X958137Y478428D01*
X957929Y478864D01*
X957709Y479294D01*
X957479Y479720D01*
X957239Y480139D01*
X956989Y480553D01*
X956729Y480960D01*
X956460Y481361D01*
X956180Y481756D01*
X955892Y482143D01*
X955593Y482524D01*
X955286Y482897D01*
X954970Y483262D01*
X954645Y483620D01*
X954312Y483970D01*
X953970Y484312D01*
X953620Y484645D01*
X953262Y484970D01*
X952897Y485286D01*
X952524Y485593D01*
X952143Y485892D01*
X951756Y486180D01*
X951361Y486460D01*
X950960Y486729D01*
X950553Y486989D01*
X950139Y487239D01*
X949720Y487479D01*
X949294Y487709D01*
X948864Y487929D01*
X948428Y488137D01*
X947987Y488336D01*
X947542Y488523D01*
X947092Y488700D01*
X946638Y488866D01*
X946180Y489021D01*
X945719Y489165D01*
X945254Y489298D01*
X944786Y489419D01*
X944316Y489529D01*
X943843Y489627D01*
X943367Y489715D01*
X942890Y489790D01*
X942411Y489854D01*
X941930Y489907D01*
X941449Y489947D01*
X940966Y489977D01*
X940483Y489994D01*
X940000Y490000D01*
X960000Y180000D02*
X959994Y179517D01*
X959977Y179034D01*
X959947Y178551D01*
X959907Y178070D01*
X959854Y177589D01*
X959790Y177110D01*
X959715Y176633D01*
X959627Y176157D01*
X959529Y175684D01*
X959419Y175214D01*
X959298Y174746D01*
X959165Y174281D01*
X959021Y173820D01*
X958866Y173362D01*
X958700Y172908D01*
X958523Y172458D01*
X958336Y172013D01*
X958137Y171572D01*
X957929Y171136D01*
X957709Y170706D01*
X957479Y170280D01*
X957239Y169861D01*
X956989Y169447D01*
X956729Y169040D01*
X956460Y168639D01*
X956180Y168244D01*
X955892Y167857D01*
X955593Y167476D01*
X955286Y167103D01*
X954970Y166738D01*
X954645Y166380D01*
X954312Y166030D01*
X953970Y165688D01*
X953620Y165355D01*
X953262Y165030D01*
X952897Y164714D01*
X952524Y164407D01*
X952143Y164108D01*
X951756Y163820D01*
X951361Y163540D01*
X950960Y163271D01*
X950553Y163011D01*
X950139Y162761D01*
X949720Y162521D01*
X949294Y162291D01*
X948864Y162071D01*
X948428Y161863D01*
X947987Y161664D01*
X947542Y161477D01*
X947092Y161300D01*
X946638Y161134D01*
X946180Y160979D01*
X945719Y160835D01*
X945254Y160702D01*
X944786Y160581D01*
X944316Y160471D01*
X943843Y160373D01*
X943367Y160285D01*
X942890Y160210D01*
X942411Y160146D01*
X941930Y160093D01*
X941449Y160053D01*
X940966Y160023D01*
X940483Y160006D01*
X940000Y160000D01*
X650000Y160000D02*
X649517Y160006D01*
X649034Y160023D01*
X648551Y160053D01*
X648070Y160093D01*
X647589Y160146D01*
X647110Y160210D01*
X646633Y160285D01*
X646157Y160373D01*
X645684Y160471D01*
X645214Y160581D01*
X644746Y160702D01*
X644281Y160835D01*
X643820Y160979D01*
X643362Y161134D01*
X642908Y161300D01*
X642458Y161477D01*
X642013Y161664D01*
X641572Y161863D01*
X641136Y162071D01*
X640706Y162291D01*
X640280Y162521D01*
X639861Y162761D01*
X639447Y163011D01*
X639040Y163271D01*
X638639Y163540D01*
X638244Y163820D01*
X637857Y164108D01*
X637476Y164407D01*
X637103Y164714D01*
X636738Y165030D01*
X636380Y165355D01*
X636030Y165688D01*
X635688Y166030D01*
X635355Y166380D01*
X635030Y166738D01*
X634714Y167103D01*
X634407Y167476D01*
X634108Y167857D01*
X633820Y168244D01*
X633540Y168639D01*
X633271Y169040D01*
X633011Y169447D01*
X632761Y169861D01*
X632521Y170280D01*
X632291Y170706D01*
X632071Y171136D01*
X631863Y171572D01*
X631664Y172013D01*
X631477Y172458D01*
X631300Y172908D01*
X631134Y173362D01*
X630979Y173820D01*
X630835Y174281D01*
X630702Y174746D01*
X630581Y175214D01*
X630471Y175684D01*
X630373Y176157D01*
X630285Y176633D01*
X630210Y177110D01*
X630146Y177589D01*
X630093Y178070D01*
X630053Y178551D01*
X630023Y179034D01*
X630006Y179517D01*
X630000Y180000D01*
X630000Y470000D02*
X630006Y470483D01*
X630023Y470966D01*
X630053Y471449D01*
X630093Y471930D01*
X630146Y472411D01*
X630210Y472890D01*
X630285Y473367D01*
X630373Y473843D01*
X630471Y474316D01*
X630581Y474786D01*
X630702Y475254D01*
X630835Y475719D01*
X630979Y476180D01*
X631134Y476638D01*
X631300Y477092D01*
X631477Y477542D01*
X631664Y477987D01*
X631863Y478428D01*
X632071Y478864D01*
X632291Y479294D01*
X632521Y479720D01*
X632761Y480139D01*
X633011Y480553D01*
X633271Y480960D01*
X633540Y481361D01*
X633820Y481756D01*
X634108Y482143D01*
X634407Y482524D01*
X634714Y482897D01*
X635030Y483262D01*
X635355Y483620D01*
X635688Y483970D01*
X636030Y484312D01*
X636380Y484645D01*
X636738Y484970D01*
X637103Y485286D01*
X637476Y485593D01*
X637857Y485892D01*
X638244Y486180D01*
X638639Y486460D01*
X639040Y486729D01*
X639447Y486989D01*
X639861Y487239D01*
X640280Y487479D01*
X640706Y487709D01*
X641136Y487929D01*
X641572Y488137D01*
X642013Y488336D01*
X642458Y488523D01*
X642908Y488700D01*
X643362Y488866D01*
X643820Y489021D01*
X644281Y489165D01*
X644746Y489298D01*
X645214Y489419D01*
X645684Y489529D01*
X646157Y489627D01*
X646633Y489715D01*
X647110Y489790D01*
X647589Y489854D01*
X648070Y489907D01*
X648551Y489947D01*
X649034Y489977D01*
X649517Y489994D01*
X650000Y490000D01*
D15*
X896877Y242584D02*
X892447Y238154D01*
X896877Y238154D02*
X892447Y242584D01*
X887027Y237903D02*
X883704Y237533D01*
X890349Y230888D01*
X892195Y232734D02*
X888503Y229042D01*
X877053Y227560D02*
X876988Y227629D01*
X876925Y227699D01*
X876865Y227773D01*
X876808Y227848D01*
X876754Y227926D01*
X876704Y228006D01*
X876657Y228088D01*
X876613Y228172D01*
X876572Y228258D01*
X876535Y228345D01*
X876501Y228433D01*
X876471Y228523D01*
X876445Y228614D01*
X876422Y228706D01*
X876403Y228798D01*
X876388Y228892D01*
X876377Y228986D01*
X876369Y229080D01*
X876365Y229175D01*
X876365Y229269D01*
X876369Y229364D01*
X876377Y229458D01*
X876388Y229552D01*
X876403Y229646D01*
X876422Y229738D01*
X876445Y229830D01*
X876471Y229921D01*
X876501Y230011D01*
X876535Y230099D01*
X876572Y230186D01*
X876613Y230272D01*
X876657Y230356D01*
X876704Y230438D01*
X876754Y230518D01*
X876808Y230596D01*
X876865Y230671D01*
X876925Y230745D01*
X876988Y230815D01*
X877053Y230884D01*
X877054Y230883D02*
X877132Y230958D01*
X877213Y231031D01*
X877296Y231100D01*
X877382Y231167D01*
X877470Y231230D01*
X877560Y231290D01*
X877652Y231347D01*
X877747Y231401D01*
X877843Y231451D01*
X877941Y231497D01*
X878040Y231540D01*
X878141Y231580D01*
X878244Y231615D01*
X878347Y231647D01*
X878452Y231676D01*
X878557Y231700D01*
X878664Y231721D01*
X878771Y231738D01*
X878879Y231751D01*
X878987Y231760D01*
X879095Y231766D01*
X879203Y231767D01*
X879312Y231764D01*
X879420Y231758D01*
X879528Y231748D01*
X879636Y231734D01*
X879742Y231716D01*
X879849Y231694D01*
X879954Y231668D01*
X880058Y231639D01*
X880162Y231606D01*
X880264Y231569D01*
X880364Y231528D01*
X880463Y231484D01*
X880561Y231437D01*
X878900Y226822D02*
X878802Y226821D01*
X878705Y226825D01*
X878608Y226832D01*
X878511Y226842D01*
X878415Y226857D01*
X878320Y226875D01*
X878225Y226897D01*
X878131Y226922D01*
X878038Y226951D01*
X877946Y226984D01*
X877856Y227020D01*
X877767Y227060D01*
X877680Y227103D01*
X877594Y227149D01*
X877511Y227198D01*
X877429Y227251D01*
X877349Y227307D01*
X877272Y227366D01*
X877197Y227428D01*
X877124Y227493D01*
X877054Y227560D01*
X878900Y226822D02*
X885729Y226268D01*
X882038Y222576D01*
X877418Y217956D02*
X872988Y226817D01*
X868557Y222387D02*
X877418Y217956D01*
X892077Y270000D02*
X893185Y271108D01*
X892077Y270000D02*
X895769Y266308D01*
X897984Y268523D01*
X897984Y268524D02*
X898046Y268588D01*
X898104Y268654D01*
X898160Y268723D01*
X898213Y268794D01*
X898262Y268868D01*
X898309Y268943D01*
X898352Y269021D01*
X898392Y269100D01*
X898428Y269181D01*
X898462Y269263D01*
X898491Y269346D01*
X898517Y269431D01*
X898539Y269517D01*
X898558Y269604D01*
X898573Y269691D01*
X898584Y269779D01*
X898592Y269867D01*
X898596Y269956D01*
X898596Y270044D01*
X898592Y270133D01*
X898584Y270221D01*
X898573Y270309D01*
X898558Y270396D01*
X898539Y270483D01*
X898517Y270569D01*
X898491Y270654D01*
X898462Y270737D01*
X898428Y270819D01*
X898392Y270900D01*
X898352Y270979D01*
X898309Y271057D01*
X898262Y271132D01*
X898213Y271206D01*
X898160Y271277D01*
X898104Y271346D01*
X898046Y271412D01*
X897984Y271476D01*
X897984Y271477D02*
X894293Y275169D01*
X894227Y275232D01*
X894159Y275292D01*
X894088Y275349D01*
X894014Y275403D01*
X893938Y275454D01*
X893861Y275501D01*
X893781Y275545D01*
X893699Y275585D01*
X893615Y275622D01*
X893531Y275655D01*
X893444Y275684D01*
X893357Y275710D01*
X893268Y275731D01*
X893179Y275749D01*
X893089Y275763D01*
X892998Y275773D01*
X892907Y275779D01*
X892816Y275781D01*
X892725Y275779D01*
X892634Y275773D01*
X892543Y275763D01*
X892453Y275749D01*
X892364Y275731D01*
X892275Y275710D01*
X892188Y275684D01*
X892102Y275655D01*
X892017Y275622D01*
X891933Y275585D01*
X891851Y275545D01*
X891772Y275501D01*
X891694Y275454D01*
X891618Y275403D01*
X891544Y275349D01*
X891473Y275292D01*
X891405Y275232D01*
X891339Y275169D01*
X889124Y272953D01*
X885919Y269748D02*
X892564Y263103D01*
X888873Y259411D02*
X885919Y269748D01*
X882227Y266057D02*
X888873Y259411D01*
X885668Y256206D02*
X879022Y262852D01*
X877176Y261006D01*
X877106Y260934D01*
X877040Y260860D01*
X876976Y260782D01*
X876916Y260703D01*
X876858Y260621D01*
X876804Y260537D01*
X876753Y260451D01*
X876705Y260363D01*
X876660Y260274D01*
X876619Y260182D01*
X876582Y260089D01*
X876548Y259995D01*
X876518Y259900D01*
X876492Y259804D01*
X876469Y259706D01*
X876450Y259608D01*
X876434Y259509D01*
X876423Y259410D01*
X876415Y259310D01*
X876411Y259210D01*
X876411Y259110D01*
X876415Y259010D01*
X876423Y258910D01*
X876434Y258811D01*
X876450Y258712D01*
X876469Y258614D01*
X876492Y258516D01*
X876518Y258420D01*
X876548Y258325D01*
X876582Y258231D01*
X876619Y258138D01*
X876660Y258046D01*
X876705Y257957D01*
X876753Y257869D01*
X876804Y257783D01*
X876858Y257699D01*
X876916Y257617D01*
X876976Y257538D01*
X877040Y257460D01*
X877106Y257386D01*
X877176Y257314D01*
X880130Y254360D01*
X880202Y254290D01*
X880276Y254224D01*
X880354Y254160D01*
X880433Y254100D01*
X880515Y254042D01*
X880599Y253988D01*
X880685Y253937D01*
X880773Y253889D01*
X880862Y253844D01*
X880954Y253803D01*
X881047Y253766D01*
X881141Y253732D01*
X881236Y253702D01*
X881332Y253676D01*
X881430Y253653D01*
X881528Y253634D01*
X881627Y253618D01*
X881726Y253607D01*
X881826Y253599D01*
X881926Y253595D01*
X882026Y253595D01*
X882126Y253599D01*
X882226Y253607D01*
X882325Y253618D01*
X882424Y253634D01*
X882522Y253653D01*
X882620Y253676D01*
X882716Y253702D01*
X882811Y253732D01*
X882905Y253766D01*
X882998Y253803D01*
X883090Y253844D01*
X883179Y253889D01*
X883267Y253937D01*
X883353Y253988D01*
X883437Y254042D01*
X883519Y254100D01*
X883598Y254160D01*
X883676Y254224D01*
X883750Y254290D01*
X883822Y254360D01*
X885668Y256206D01*
X708723Y369262D02*
X702077Y375907D01*
X709461Y370000D02*
X707984Y368523D01*
X701339Y375169D02*
X702816Y376645D01*
X698442Y372272D02*
X705088Y365627D01*
X698442Y372272D02*
X696597Y370426D01*
X696596Y370426D02*
X696526Y370353D01*
X696458Y370278D01*
X696394Y370199D01*
X696333Y370119D01*
X696275Y370036D01*
X696220Y369951D01*
X696168Y369864D01*
X696120Y369774D01*
X696076Y369683D01*
X696035Y369591D01*
X695997Y369497D01*
X695964Y369401D01*
X695934Y369305D01*
X695907Y369207D01*
X695885Y369108D01*
X695866Y369008D01*
X695852Y368908D01*
X695841Y368808D01*
X695834Y368707D01*
X695831Y368605D01*
X695832Y368504D01*
X695837Y368403D01*
X695846Y368302D01*
X695859Y368202D01*
X695875Y368102D01*
X695896Y368003D01*
X695920Y367904D01*
X695948Y367807D01*
X695980Y367711D01*
X696015Y367616D01*
X696055Y367523D01*
X696097Y367431D01*
X696144Y367341D01*
X696194Y367253D01*
X696247Y367166D01*
X696303Y367082D01*
X696363Y367001D01*
X696426Y366921D01*
X696492Y366844D01*
X696560Y366770D01*
X696632Y366698D01*
X696706Y366630D01*
X696783Y366564D01*
X696863Y366501D01*
X696944Y366441D01*
X697028Y366385D01*
X697115Y366332D01*
X697203Y366282D01*
X697293Y366235D01*
X697385Y366193D01*
X697478Y366153D01*
X697573Y366118D01*
X697669Y366086D01*
X697766Y366058D01*
X697865Y366034D01*
X697964Y366013D01*
X698064Y365997D01*
X698164Y365984D01*
X698265Y365975D01*
X698366Y365970D01*
X698467Y365969D01*
X698569Y365972D01*
X698670Y365979D01*
X698770Y365990D01*
X698870Y366004D01*
X698970Y366023D01*
X699069Y366045D01*
X699167Y366072D01*
X699263Y366102D01*
X699359Y366135D01*
X699453Y366173D01*
X699545Y366214D01*
X699636Y366258D01*
X699726Y366306D01*
X699813Y366358D01*
X699898Y366413D01*
X699981Y366471D01*
X700061Y366532D01*
X700140Y366596D01*
X700215Y366664D01*
X700288Y366734D01*
X702134Y368580D01*
X696284Y361992D02*
X691854Y357561D01*
X696284Y357561D02*
X691854Y361992D01*
X702077Y295907D02*
X708723Y289262D01*
X709461Y290000D02*
X707984Y288523D01*
X701339Y295169D02*
X702816Y296645D01*
X698442Y292272D02*
X705088Y285627D01*
X698442Y292272D02*
X696597Y290426D01*
X696596Y290426D02*
X696526Y290353D01*
X696458Y290278D01*
X696394Y290199D01*
X696333Y290119D01*
X696275Y290036D01*
X696220Y289951D01*
X696168Y289864D01*
X696120Y289774D01*
X696076Y289683D01*
X696035Y289591D01*
X695997Y289497D01*
X695964Y289401D01*
X695934Y289305D01*
X695907Y289207D01*
X695885Y289108D01*
X695866Y289008D01*
X695852Y288908D01*
X695841Y288808D01*
X695834Y288707D01*
X695831Y288605D01*
X695832Y288504D01*
X695837Y288403D01*
X695846Y288302D01*
X695859Y288202D01*
X695875Y288102D01*
X695896Y288003D01*
X695920Y287904D01*
X695948Y287807D01*
X695980Y287711D01*
X696015Y287616D01*
X696055Y287523D01*
X696097Y287431D01*
X696144Y287341D01*
X696194Y287253D01*
X696247Y287166D01*
X696303Y287082D01*
X696363Y287001D01*
X696426Y286921D01*
X696492Y286844D01*
X696560Y286770D01*
X696632Y286698D01*
X696706Y286630D01*
X696783Y286564D01*
X696863Y286501D01*
X696944Y286441D01*
X697028Y286385D01*
X697115Y286332D01*
X697203Y286282D01*
X697293Y286235D01*
X697385Y286193D01*
X697478Y286153D01*
X697573Y286118D01*
X697669Y286086D01*
X697766Y286058D01*
X697865Y286034D01*
X697964Y286013D01*
X698064Y285997D01*
X698164Y285984D01*
X698265Y285975D01*
X698366Y285970D01*
X698467Y285969D01*
X698569Y285972D01*
X698670Y285979D01*
X698770Y285990D01*
X698870Y286004D01*
X698970Y286023D01*
X699069Y286045D01*
X699167Y286072D01*
X699263Y286102D01*
X699359Y286135D01*
X699453Y286173D01*
X699545Y286214D01*
X699636Y286258D01*
X699726Y286306D01*
X699813Y286358D01*
X699898Y286413D01*
X699981Y286471D01*
X700061Y286532D01*
X700140Y286596D01*
X700215Y286664D01*
X700288Y286734D01*
X702134Y288580D01*
X696284Y281992D02*
X691854Y277561D01*
D12*
X700000Y380000D02*
X700000Y400000D01*
X690000Y400000D01*
X700000Y360000D02*
X700000Y330000D01*
X690000Y330000D01*
X690000Y320000D02*
X700000Y320000D01*
X700000Y300000D01*
X700000Y280000D02*
X700000Y250000D01*
X690000Y250000D01*
D14*
X819492Y463754D02*
X819492Y472192D01*
X819492Y463754D02*
X819490Y463641D01*
X819484Y463528D01*
X819474Y463415D01*
X819460Y463302D01*
X819443Y463190D01*
X819421Y463079D01*
X819396Y462969D01*
X819366Y462859D01*
X819333Y462751D01*
X819296Y462644D01*
X819256Y462538D01*
X819211Y462434D01*
X819163Y462331D01*
X819112Y462230D01*
X819057Y462131D01*
X818999Y462034D01*
X818937Y461939D01*
X818872Y461846D01*
X818804Y461756D01*
X818733Y461668D01*
X818658Y461582D01*
X818581Y461499D01*
X818501Y461419D01*
X818418Y461342D01*
X818332Y461267D01*
X818244Y461196D01*
X818154Y461128D01*
X818061Y461063D01*
X817966Y461001D01*
X817869Y460943D01*
X817770Y460888D01*
X817669Y460837D01*
X817566Y460789D01*
X817462Y460744D01*
X817356Y460704D01*
X817249Y460667D01*
X817141Y460634D01*
X817031Y460604D01*
X816921Y460579D01*
X816810Y460557D01*
X816698Y460540D01*
X816585Y460526D01*
X816472Y460516D01*
X816359Y460510D01*
X816246Y460508D01*
X816133Y460510D01*
X816020Y460516D01*
X815907Y460526D01*
X815794Y460540D01*
X815682Y460557D01*
X815571Y460579D01*
X815461Y460604D01*
X815351Y460634D01*
X815243Y460667D01*
X815136Y460704D01*
X815030Y460744D01*
X814926Y460789D01*
X814823Y460837D01*
X814722Y460888D01*
X814623Y460943D01*
X814526Y461001D01*
X814431Y461063D01*
X814338Y461128D01*
X814248Y461196D01*
X814160Y461267D01*
X814074Y461342D01*
X813991Y461419D01*
X813911Y461499D01*
X813834Y461582D01*
X813759Y461668D01*
X813688Y461756D01*
X813620Y461846D01*
X813555Y461939D01*
X813493Y462034D01*
X813435Y462131D01*
X813380Y462230D01*
X813329Y462331D01*
X813281Y462434D01*
X813236Y462538D01*
X813196Y462644D01*
X813159Y462751D01*
X813126Y462859D01*
X813096Y462969D01*
X813071Y463079D01*
X813049Y463190D01*
X813032Y463302D01*
X813018Y463415D01*
X813008Y463528D01*
X813002Y463641D01*
X813000Y463754D01*
X813001Y463754D02*
X813001Y472192D01*
X805197Y472192D02*
X805197Y460508D01*
X805197Y466350D02*
X806820Y467324D01*
X806821Y467323D02*
X806894Y467370D01*
X806965Y467419D01*
X807035Y467472D01*
X807101Y467528D01*
X807165Y467587D01*
X807227Y467648D01*
X807285Y467712D01*
X807341Y467779D01*
X807393Y467848D01*
X807443Y467920D01*
X807489Y467994D01*
X807532Y468069D01*
X807571Y468147D01*
X807607Y468226D01*
X807639Y468307D01*
X807668Y468389D01*
X807693Y468472D01*
X807714Y468556D01*
X807731Y468641D01*
X807745Y468727D01*
X807754Y468813D01*
X807760Y468900D01*
X807762Y468987D01*
X807760Y469074D01*
X807754Y469161D01*
X807744Y469247D01*
X807731Y469333D01*
X807713Y469418D01*
X807692Y469502D01*
X807667Y469585D01*
X807638Y469668D01*
X807606Y469748D01*
X807570Y469827D01*
X807531Y469905D01*
X807488Y469980D01*
X807441Y470054D01*
X807392Y470125D01*
X807339Y470195D01*
X807284Y470261D01*
X807225Y470325D01*
X807164Y470387D01*
X807099Y470446D01*
X807033Y470501D01*
X806964Y470554D01*
X806892Y470604D01*
X806819Y470650D01*
X806743Y470693D01*
X806666Y470732D01*
X806587Y470768D01*
X806506Y470801D01*
X806424Y470829D01*
X806341Y470855D01*
X806257Y470876D01*
X806171Y470893D01*
X806171Y470894D02*
X806031Y470918D01*
X805889Y470938D01*
X805748Y470954D01*
X805606Y470965D01*
X805463Y470973D01*
X805321Y470977D01*
X805178Y470978D01*
X805035Y470974D01*
X804893Y470966D01*
X804751Y470954D01*
X804609Y470938D01*
X804468Y470919D01*
X804327Y470895D01*
X804187Y470868D01*
X804048Y470836D01*
X803910Y470801D01*
X803772Y470762D01*
X803636Y470719D01*
X803502Y470673D01*
X803368Y470622D01*
X803236Y470569D01*
X803106Y470511D01*
X802977Y470450D01*
X802850Y470385D01*
X802724Y470317D01*
X802601Y470245D01*
X805197Y466350D02*
X803575Y465376D01*
X803574Y465377D02*
X803501Y465330D01*
X803430Y465281D01*
X803360Y465228D01*
X803294Y465172D01*
X803230Y465113D01*
X803168Y465052D01*
X803110Y464988D01*
X803054Y464921D01*
X803002Y464852D01*
X802952Y464780D01*
X802906Y464706D01*
X802863Y464631D01*
X802824Y464553D01*
X802788Y464474D01*
X802756Y464393D01*
X802727Y464311D01*
X802702Y464228D01*
X802681Y464144D01*
X802664Y464059D01*
X802650Y463973D01*
X802641Y463887D01*
X802635Y463800D01*
X802633Y463713D01*
X802635Y463626D01*
X802641Y463539D01*
X802651Y463453D01*
X802664Y463367D01*
X802682Y463282D01*
X802703Y463198D01*
X802728Y463115D01*
X802757Y463032D01*
X802789Y462952D01*
X802825Y462873D01*
X802864Y462795D01*
X802907Y462720D01*
X802954Y462646D01*
X803003Y462575D01*
X803056Y462505D01*
X803111Y462439D01*
X803170Y462375D01*
X803231Y462313D01*
X803296Y462254D01*
X803362Y462199D01*
X803431Y462146D01*
X803503Y462096D01*
X803576Y462050D01*
X803652Y462007D01*
X803729Y461968D01*
X803808Y461932D01*
X803889Y461899D01*
X803971Y461871D01*
X804054Y461845D01*
X804138Y461824D01*
X804223Y461807D01*
X804224Y461806D02*
X804364Y461782D01*
X804506Y461762D01*
X804647Y461746D01*
X804789Y461735D01*
X804932Y461727D01*
X805074Y461723D01*
X805217Y461722D01*
X805360Y461726D01*
X805502Y461734D01*
X805644Y461746D01*
X805786Y461762D01*
X805927Y461781D01*
X806068Y461805D01*
X806208Y461832D01*
X806347Y461864D01*
X806485Y461899D01*
X806623Y461938D01*
X806759Y461981D01*
X806893Y462027D01*
X807027Y462078D01*
X807159Y462131D01*
X807290Y462189D01*
X807418Y462250D01*
X807545Y462315D01*
X807671Y462383D01*
X807794Y462455D01*
X797775Y469596D02*
X794530Y472192D01*
X794530Y460508D01*
X797775Y460508D02*
X791284Y460508D01*
X786345Y460508D02*
X783100Y460508D01*
X782987Y460510D01*
X782874Y460516D01*
X782761Y460526D01*
X782648Y460540D01*
X782536Y460557D01*
X782425Y460579D01*
X782315Y460604D01*
X782205Y460634D01*
X782097Y460667D01*
X781990Y460704D01*
X781884Y460744D01*
X781780Y460789D01*
X781677Y460837D01*
X781576Y460888D01*
X781477Y460943D01*
X781380Y461001D01*
X781285Y461063D01*
X781192Y461128D01*
X781102Y461196D01*
X781014Y461267D01*
X780928Y461342D01*
X780845Y461419D01*
X780765Y461499D01*
X780688Y461582D01*
X780613Y461668D01*
X780542Y461756D01*
X780474Y461846D01*
X780409Y461939D01*
X780347Y462034D01*
X780289Y462131D01*
X780234Y462230D01*
X780183Y462331D01*
X780135Y462434D01*
X780090Y462538D01*
X780050Y462644D01*
X780013Y462751D01*
X779980Y462859D01*
X779950Y462969D01*
X779925Y463079D01*
X779903Y463190D01*
X779886Y463302D01*
X779872Y463415D01*
X779862Y463528D01*
X779856Y463641D01*
X779854Y463754D01*
X779856Y463867D01*
X779862Y463980D01*
X779872Y464093D01*
X779886Y464206D01*
X779903Y464318D01*
X779925Y464429D01*
X779950Y464539D01*
X779980Y464649D01*
X780013Y464757D01*
X780050Y464864D01*
X780090Y464970D01*
X780135Y465074D01*
X780183Y465177D01*
X780234Y465278D01*
X780289Y465377D01*
X780347Y465474D01*
X780409Y465569D01*
X780474Y465662D01*
X780542Y465752D01*
X780613Y465840D01*
X780688Y465926D01*
X780765Y466009D01*
X780845Y466089D01*
X780928Y466166D01*
X781014Y466241D01*
X781102Y466312D01*
X781192Y466380D01*
X781285Y466445D01*
X781380Y466507D01*
X781477Y466565D01*
X781576Y466620D01*
X781677Y466671D01*
X781780Y466719D01*
X781884Y466764D01*
X781990Y466804D01*
X782097Y466841D01*
X782205Y466874D01*
X782315Y466904D01*
X782425Y466929D01*
X782536Y466951D01*
X782648Y466968D01*
X782761Y466982D01*
X782874Y466992D01*
X782987Y466998D01*
X783100Y467000D01*
X782450Y472192D02*
X786345Y472192D01*
X782450Y472192D02*
X782349Y472190D01*
X782249Y472184D01*
X782149Y472174D01*
X782049Y472161D01*
X781950Y472143D01*
X781851Y472122D01*
X781754Y472097D01*
X781657Y472068D01*
X781562Y472035D01*
X781468Y471999D01*
X781376Y471959D01*
X781285Y471916D01*
X781196Y471869D01*
X781109Y471819D01*
X781023Y471765D01*
X780940Y471708D01*
X780860Y471648D01*
X780781Y471585D01*
X780705Y471518D01*
X780632Y471449D01*
X780562Y471377D01*
X780494Y471303D01*
X780429Y471226D01*
X780368Y471146D01*
X780309Y471064D01*
X780254Y470980D01*
X780202Y470894D01*
X780153Y470806D01*
X780108Y470716D01*
X780066Y470624D01*
X780028Y470531D01*
X779994Y470436D01*
X779963Y470341D01*
X779936Y470244D01*
X779913Y470146D01*
X779893Y470047D01*
X779878Y469947D01*
X779866Y469847D01*
X779858Y469747D01*
X779854Y469646D01*
X779854Y469546D01*
X779858Y469445D01*
X779866Y469345D01*
X779878Y469245D01*
X779893Y469145D01*
X779913Y469046D01*
X779936Y468948D01*
X779963Y468851D01*
X779994Y468756D01*
X780028Y468661D01*
X780066Y468568D01*
X780108Y468476D01*
X780153Y468386D01*
X780202Y468298D01*
X780254Y468212D01*
X780309Y468128D01*
X780368Y468046D01*
X780429Y467966D01*
X780494Y467889D01*
X780562Y467815D01*
X780632Y467743D01*
X780705Y467674D01*
X780781Y467607D01*
X780860Y467544D01*
X780940Y467484D01*
X781023Y467427D01*
X781109Y467373D01*
X781196Y467323D01*
X781285Y467276D01*
X781376Y467233D01*
X781468Y467193D01*
X781562Y467157D01*
X781657Y467124D01*
X781754Y467095D01*
X781851Y467070D01*
X781950Y467049D01*
X782049Y467031D01*
X782149Y467018D01*
X782249Y467008D01*
X782349Y467002D01*
X782450Y467000D01*
X782450Y466999D02*
X785047Y466999D01*
M02*
