G04 EAGLE Gerber RS-274X export*
G75*
%MOMM*%
%FSLAX34Y34*%
%LPD*%
%INBottom Copper*%
%IPPOS*%
%AMOC8*
5,1,8,0,0,1.08239X$1,22.5*%
G01*
%ADD10R,1.600000X1.800000*%
%ADD11C,1.508000*%
%ADD12R,1.100000X1.000000*%
%ADD13R,0.568000X1.258800*%
%ADD14R,1.400000X1.000000*%
%ADD15R,3.200000X1.800000*%
%ADD16C,2.760000*%
%ADD17R,1.803000X1.600000*%
%ADD18R,1.600000X1.803000*%
%ADD19R,1.000000X1.400000*%
%ADD20R,1.000000X1.100000*%
%ADD21R,1.200000X1.400000*%
%ADD22C,1.320800*%
%ADD23C,1.879600*%
%ADD24R,1.600000X2.300000*%
%ADD25R,2.540000X2.540000*%
%ADD26R,1.114600X1.361200*%
%ADD27R,1.600200X1.168400*%
%ADD28C,6.000000*%
%ADD29C,0.406400*%
%ADD30C,0.812800*%
%ADD31C,1.016000*%
%ADD32C,0.756400*%
%ADD33C,0.152400*%
%ADD34C,0.200000*%
%ADD35C,0.304800*%
%ADD36C,0.656400*%
%ADD37C,0.203200*%

G36*
X236605Y299631D02*
X236605Y299631D01*
X236656Y299633D01*
X236688Y299651D01*
X236724Y299659D01*
X236763Y299692D01*
X236808Y299716D01*
X236829Y299746D01*
X236857Y299769D01*
X236878Y299816D01*
X236908Y299858D01*
X236916Y299900D01*
X236928Y299928D01*
X236927Y299958D01*
X236935Y300000D01*
X236935Y405803D01*
X238315Y409135D01*
X240865Y411685D01*
X244197Y413065D01*
X246555Y413065D01*
X246605Y413076D01*
X246656Y413078D01*
X246688Y413096D01*
X246724Y413104D01*
X246763Y413137D01*
X246808Y413161D01*
X246829Y413191D01*
X246857Y413214D01*
X246878Y413261D01*
X246908Y413303D01*
X246916Y413345D01*
X246928Y413373D01*
X246927Y413403D01*
X246935Y413445D01*
X246935Y516555D01*
X246924Y516605D01*
X246922Y516656D01*
X246904Y516688D01*
X246896Y516724D01*
X246863Y516763D01*
X246839Y516808D01*
X246809Y516829D01*
X246786Y516857D01*
X246739Y516878D01*
X246697Y516908D01*
X246655Y516916D01*
X246627Y516928D01*
X246597Y516927D01*
X246555Y516935D01*
X128197Y516935D01*
X124865Y518315D01*
X122315Y520865D01*
X121620Y522545D01*
X121583Y522596D01*
X121552Y522652D01*
X121533Y522666D01*
X121519Y522685D01*
X121462Y522715D01*
X121411Y522752D01*
X121384Y522757D01*
X121366Y522767D01*
X121328Y522768D01*
X121268Y522779D01*
X118914Y522779D01*
X115984Y525709D01*
X115984Y530000D01*
X115973Y530050D01*
X115971Y530101D01*
X115953Y530133D01*
X115945Y530169D01*
X115912Y530208D01*
X115888Y530253D01*
X115858Y530274D01*
X115835Y530302D01*
X115788Y530323D01*
X115746Y530353D01*
X115704Y530361D01*
X115676Y530373D01*
X115646Y530372D01*
X115604Y530380D01*
X11303Y530380D01*
X11253Y530369D01*
X11202Y530367D01*
X11170Y530349D01*
X11134Y530341D01*
X11095Y530308D01*
X11050Y530284D01*
X11029Y530254D01*
X11001Y530231D01*
X10980Y530184D01*
X10950Y530142D01*
X10942Y530100D01*
X10930Y530072D01*
X10931Y530042D01*
X10923Y530000D01*
X10923Y300000D01*
X10934Y299950D01*
X10936Y299899D01*
X10954Y299867D01*
X10962Y299831D01*
X10995Y299792D01*
X11019Y299747D01*
X11049Y299726D01*
X11072Y299698D01*
X11119Y299677D01*
X11161Y299647D01*
X11203Y299639D01*
X11231Y299627D01*
X11261Y299628D01*
X11303Y299620D01*
X236555Y299620D01*
X236605Y299631D01*
G37*
G36*
X97822Y10929D02*
X97822Y10929D01*
X97847Y10926D01*
X97905Y10948D01*
X97965Y10962D01*
X97985Y10979D01*
X98009Y10988D01*
X98051Y11033D01*
X98099Y11072D01*
X98109Y11096D01*
X98127Y11115D01*
X98144Y11174D01*
X98170Y11231D01*
X98169Y11256D01*
X98176Y11281D01*
X98165Y11342D01*
X98163Y11404D01*
X98151Y11426D01*
X98146Y11452D01*
X98098Y11523D01*
X98080Y11556D01*
X98072Y11562D01*
X98065Y11572D01*
X97793Y11844D01*
X95601Y17136D01*
X95601Y22864D01*
X97793Y28156D01*
X101844Y32207D01*
X102187Y32349D01*
X102208Y32364D01*
X102232Y32371D01*
X102277Y32414D01*
X102327Y32450D01*
X102340Y32472D01*
X102358Y32490D01*
X102380Y32548D01*
X102409Y32603D01*
X102410Y32629D01*
X102418Y32653D01*
X102412Y32714D01*
X102414Y32776D01*
X102403Y32799D01*
X102400Y32825D01*
X102367Y32877D01*
X102341Y32933D01*
X102321Y32950D01*
X102308Y32971D01*
X102236Y33019D01*
X102207Y33042D01*
X102197Y33044D01*
X102187Y33051D01*
X101844Y33193D01*
X97793Y37244D01*
X95601Y42536D01*
X95601Y48264D01*
X97793Y53556D01*
X101844Y57607D01*
X107136Y59799D01*
X112864Y59799D01*
X118156Y57607D01*
X122207Y53556D01*
X122349Y53213D01*
X122364Y53192D01*
X122371Y53168D01*
X122414Y53123D01*
X122450Y53073D01*
X122472Y53060D01*
X122490Y53042D01*
X122548Y53020D01*
X122603Y52991D01*
X122629Y52990D01*
X122653Y52982D01*
X122714Y52988D01*
X122776Y52986D01*
X122799Y52997D01*
X122825Y53000D01*
X122877Y53033D01*
X122933Y53059D01*
X122950Y53079D01*
X122971Y53092D01*
X123019Y53164D01*
X123042Y53193D01*
X123044Y53203D01*
X123051Y53213D01*
X123193Y53556D01*
X127244Y57607D01*
X132536Y59799D01*
X138264Y59799D01*
X143556Y57607D01*
X147607Y53556D01*
X147749Y53213D01*
X147764Y53192D01*
X147771Y53168D01*
X147814Y53123D01*
X147850Y53073D01*
X147872Y53060D01*
X147890Y53042D01*
X147948Y53020D01*
X148003Y52991D01*
X148029Y52990D01*
X148053Y52982D01*
X148114Y52988D01*
X148176Y52986D01*
X148199Y52997D01*
X148225Y53000D01*
X148277Y53033D01*
X148333Y53059D01*
X148350Y53079D01*
X148371Y53092D01*
X148419Y53164D01*
X148442Y53193D01*
X148444Y53203D01*
X148451Y53213D01*
X148593Y53556D01*
X152644Y57607D01*
X157936Y59799D01*
X163664Y59799D01*
X168956Y57607D01*
X173007Y53556D01*
X173149Y53213D01*
X173164Y53192D01*
X173171Y53168D01*
X173214Y53123D01*
X173250Y53073D01*
X173272Y53060D01*
X173290Y53042D01*
X173348Y53020D01*
X173403Y52991D01*
X173429Y52990D01*
X173453Y52982D01*
X173514Y52988D01*
X173576Y52986D01*
X173599Y52997D01*
X173625Y53000D01*
X173677Y53033D01*
X173733Y53059D01*
X173750Y53079D01*
X173771Y53092D01*
X173819Y53164D01*
X173842Y53193D01*
X173844Y53203D01*
X173851Y53213D01*
X173993Y53556D01*
X178044Y57607D01*
X183336Y59799D01*
X189064Y59799D01*
X194356Y57607D01*
X198407Y53556D01*
X198549Y53213D01*
X198564Y53192D01*
X198571Y53168D01*
X198614Y53123D01*
X198650Y53073D01*
X198672Y53060D01*
X198690Y53042D01*
X198748Y53020D01*
X198803Y52991D01*
X198829Y52990D01*
X198853Y52982D01*
X198914Y52988D01*
X198976Y52986D01*
X198999Y52997D01*
X199025Y53000D01*
X199077Y53033D01*
X199133Y53059D01*
X199150Y53079D01*
X199171Y53092D01*
X199219Y53164D01*
X199242Y53193D01*
X199244Y53203D01*
X199251Y53213D01*
X199393Y53556D01*
X203444Y57607D01*
X208736Y59799D01*
X214464Y59799D01*
X219756Y57607D01*
X223807Y53556D01*
X223949Y53213D01*
X223964Y53192D01*
X223971Y53168D01*
X224014Y53123D01*
X224050Y53073D01*
X224072Y53060D01*
X224090Y53042D01*
X224148Y53020D01*
X224203Y52991D01*
X224229Y52990D01*
X224253Y52982D01*
X224314Y52988D01*
X224376Y52986D01*
X224399Y52997D01*
X224425Y53000D01*
X224477Y53033D01*
X224533Y53059D01*
X224550Y53079D01*
X224571Y53092D01*
X224619Y53164D01*
X224642Y53193D01*
X224644Y53203D01*
X224651Y53213D01*
X224793Y53556D01*
X228844Y57607D01*
X234136Y59799D01*
X239864Y59799D01*
X245156Y57607D01*
X249207Y53556D01*
X251399Y48264D01*
X251399Y42536D01*
X249482Y37908D01*
X249475Y37870D01*
X249460Y37834D01*
X249461Y37785D01*
X249453Y37737D01*
X249465Y37700D01*
X249466Y37661D01*
X249490Y37618D01*
X249504Y37571D01*
X249531Y37543D01*
X249549Y37509D01*
X249589Y37481D01*
X249623Y37445D01*
X249659Y37432D01*
X249691Y37409D01*
X249750Y37398D01*
X249786Y37385D01*
X249806Y37387D01*
X249833Y37382D01*
X272759Y37382D01*
X272761Y37382D01*
X272762Y37382D01*
X272904Y37411D01*
X276260Y38801D01*
X283032Y38801D01*
X283106Y38818D01*
X283181Y38831D01*
X283191Y38838D01*
X283201Y38840D01*
X283230Y38864D01*
X283301Y38912D01*
X305507Y61118D01*
X305547Y61182D01*
X305591Y61244D01*
X305593Y61257D01*
X305598Y61265D01*
X305602Y61302D01*
X305618Y61387D01*
X305618Y92229D01*
X313507Y100118D01*
X313547Y100182D01*
X313591Y100244D01*
X313593Y100257D01*
X313598Y100265D01*
X313602Y100302D01*
X313618Y100387D01*
X313618Y123238D01*
X313607Y123288D01*
X313605Y123339D01*
X313587Y123371D01*
X313579Y123407D01*
X313546Y123446D01*
X313522Y123491D01*
X313492Y123512D01*
X313469Y123540D01*
X313422Y123561D01*
X313380Y123591D01*
X313338Y123599D01*
X313310Y123611D01*
X313280Y123610D01*
X313238Y123618D01*
X258771Y123618D01*
X258001Y124388D01*
X257937Y124428D01*
X257875Y124472D01*
X257862Y124474D01*
X257854Y124479D01*
X257817Y124483D01*
X257732Y124499D01*
X244429Y124499D01*
X241650Y127278D01*
X241628Y127292D01*
X241612Y127312D01*
X241555Y127337D01*
X241503Y127369D01*
X241477Y127372D01*
X241453Y127382D01*
X241392Y127380D01*
X241330Y127386D01*
X241306Y127377D01*
X241280Y127376D01*
X241226Y127346D01*
X241168Y127324D01*
X241151Y127305D01*
X241128Y127293D01*
X241093Y127243D01*
X241051Y127197D01*
X241043Y127172D01*
X241028Y127151D01*
X241012Y127067D01*
X241001Y127031D01*
X241003Y127021D01*
X241001Y127009D01*
X241001Y125929D01*
X238071Y122999D01*
X221929Y122999D01*
X218999Y125929D01*
X218999Y144071D01*
X221929Y147001D01*
X238071Y147001D01*
X241001Y144071D01*
X241001Y142991D01*
X241007Y142966D01*
X241004Y142940D01*
X241026Y142882D01*
X241040Y142822D01*
X241057Y142802D01*
X241066Y142778D01*
X241111Y142736D01*
X241150Y142688D01*
X241174Y142678D01*
X241193Y142660D01*
X241252Y142643D01*
X241309Y142618D01*
X241334Y142619D01*
X241359Y142611D01*
X241420Y142622D01*
X241482Y142624D01*
X241504Y142636D01*
X241530Y142641D01*
X241601Y142689D01*
X241634Y142707D01*
X241640Y142715D01*
X241650Y142722D01*
X244429Y145501D01*
X255238Y145501D01*
X255288Y145512D01*
X255339Y145514D01*
X255371Y145532D01*
X255407Y145540D01*
X255446Y145573D01*
X255491Y145597D01*
X255512Y145627D01*
X255540Y145650D01*
X255561Y145697D01*
X255591Y145739D01*
X255599Y145781D01*
X255611Y145809D01*
X255610Y145837D01*
X255611Y145839D01*
X255611Y145844D01*
X255618Y145881D01*
X255618Y151229D01*
X256707Y152318D01*
X256721Y152340D01*
X256741Y152356D01*
X256766Y152413D01*
X256799Y152465D01*
X256801Y152491D01*
X256812Y152515D01*
X256809Y152576D01*
X256815Y152638D01*
X256806Y152662D01*
X256805Y152688D01*
X256776Y152742D01*
X256754Y152800D01*
X256735Y152817D01*
X256722Y152840D01*
X256672Y152875D01*
X256626Y152917D01*
X256602Y152925D01*
X256581Y152940D01*
X256496Y152956D01*
X256460Y152967D01*
X256450Y152965D01*
X256438Y152967D01*
X164545Y152967D01*
X164471Y152950D01*
X164397Y152937D01*
X164387Y152930D01*
X164377Y152928D01*
X164348Y152904D01*
X164277Y152856D01*
X163975Y152554D01*
X160747Y151217D01*
X157253Y151217D01*
X154025Y152554D01*
X151554Y155025D01*
X150217Y158253D01*
X150217Y161747D01*
X151554Y164975D01*
X151856Y165277D01*
X151896Y165341D01*
X151940Y165403D01*
X151942Y165415D01*
X151947Y165424D01*
X151951Y165461D01*
X151967Y165545D01*
X151967Y205119D01*
X151956Y205169D01*
X151954Y205220D01*
X151936Y205252D01*
X151928Y205288D01*
X151895Y205327D01*
X151871Y205372D01*
X151841Y205393D01*
X151818Y205421D01*
X151771Y205442D01*
X151729Y205472D01*
X151687Y205480D01*
X151659Y205492D01*
X151629Y205491D01*
X151587Y205499D01*
X140429Y205499D01*
X139019Y206909D01*
X138976Y206936D01*
X138938Y206971D01*
X138903Y206981D01*
X138872Y207000D01*
X138821Y207005D01*
X138772Y207020D01*
X138736Y207013D01*
X138699Y207017D01*
X138652Y206999D01*
X138601Y206990D01*
X138566Y206966D01*
X138537Y206955D01*
X138516Y206933D01*
X138481Y206909D01*
X138071Y206499D01*
X119929Y206499D01*
X119650Y206778D01*
X119628Y206792D01*
X119612Y206812D01*
X119555Y206837D01*
X119503Y206869D01*
X119477Y206872D01*
X119453Y206882D01*
X119392Y206880D01*
X119330Y206886D01*
X119306Y206877D01*
X119280Y206876D01*
X119226Y206846D01*
X119168Y206824D01*
X119151Y206805D01*
X119128Y206793D01*
X119093Y206743D01*
X119051Y206697D01*
X119043Y206672D01*
X119028Y206651D01*
X119012Y206567D01*
X119001Y206531D01*
X119003Y206521D01*
X119001Y206509D01*
X119001Y199929D01*
X116071Y196999D01*
X109413Y196999D01*
X109363Y196988D01*
X109312Y196986D01*
X109280Y196968D01*
X109244Y196960D01*
X109205Y196927D01*
X109160Y196903D01*
X109139Y196873D01*
X109111Y196850D01*
X109090Y196803D01*
X109060Y196761D01*
X109052Y196719D01*
X109040Y196691D01*
X109041Y196661D01*
X109033Y196619D01*
X109033Y189545D01*
X109050Y189471D01*
X109063Y189397D01*
X109070Y189386D01*
X109072Y189377D01*
X109096Y189348D01*
X109144Y189277D01*
X109446Y188975D01*
X110783Y185747D01*
X110783Y182253D01*
X109446Y179025D01*
X106975Y176554D01*
X103747Y175217D01*
X100253Y175217D01*
X97025Y176554D01*
X94554Y179025D01*
X93217Y182253D01*
X93217Y185747D01*
X94554Y188975D01*
X94856Y189277D01*
X94896Y189341D01*
X94940Y189403D01*
X94942Y189415D01*
X94947Y189424D01*
X94951Y189461D01*
X94967Y189545D01*
X94967Y203399D01*
X94970Y203406D01*
X94971Y203408D01*
X94972Y203410D01*
X94999Y203552D01*
X94999Y209087D01*
X94988Y209137D01*
X94986Y209188D01*
X94968Y209220D01*
X94960Y209256D01*
X94927Y209295D01*
X94903Y209340D01*
X94873Y209361D01*
X94850Y209389D01*
X94803Y209410D01*
X94761Y209440D01*
X94719Y209448D01*
X94691Y209460D01*
X94661Y209459D01*
X94619Y209467D01*
X92881Y209467D01*
X92831Y209456D01*
X92780Y209454D01*
X92748Y209436D01*
X92712Y209428D01*
X92673Y209395D01*
X92628Y209371D01*
X92607Y209341D01*
X92579Y209318D01*
X92558Y209271D01*
X92528Y209229D01*
X92520Y209187D01*
X92508Y209159D01*
X92509Y209129D01*
X92501Y209087D01*
X92501Y208429D01*
X89571Y205499D01*
X74429Y205499D01*
X73540Y206388D01*
X73475Y206428D01*
X73413Y206472D01*
X73401Y206474D01*
X73393Y206479D01*
X73356Y206483D01*
X73271Y206499D01*
X57445Y206499D01*
X57395Y206488D01*
X57344Y206486D01*
X57312Y206468D01*
X57276Y206460D01*
X57237Y206427D01*
X57192Y206403D01*
X57171Y206373D01*
X57143Y206350D01*
X57122Y206303D01*
X57092Y206261D01*
X57084Y206219D01*
X57072Y206191D01*
X57073Y206161D01*
X57065Y206119D01*
X57065Y205197D01*
X55685Y201865D01*
X55112Y201293D01*
X55104Y201279D01*
X55103Y201278D01*
X55101Y201275D01*
X55072Y201228D01*
X55028Y201166D01*
X55026Y201154D01*
X55021Y201145D01*
X55017Y201108D01*
X55001Y201024D01*
X55001Y199929D01*
X52071Y196999D01*
X33929Y196999D01*
X30999Y199929D01*
X30999Y214071D01*
X32058Y215130D01*
X32072Y215152D01*
X32092Y215168D01*
X32117Y215225D01*
X32149Y215277D01*
X32152Y215303D01*
X32162Y215327D01*
X32160Y215388D01*
X32166Y215450D01*
X32157Y215474D01*
X32156Y215500D01*
X32126Y215554D01*
X32104Y215612D01*
X32085Y215629D01*
X32073Y215652D01*
X32023Y215687D01*
X31977Y215729D01*
X31952Y215737D01*
X31931Y215752D01*
X31847Y215768D01*
X31811Y215779D01*
X31801Y215777D01*
X31789Y215779D01*
X13914Y215779D01*
X11572Y218121D01*
X11550Y218135D01*
X11534Y218155D01*
X11477Y218180D01*
X11425Y218212D01*
X11399Y218215D01*
X11375Y218225D01*
X11314Y218223D01*
X11252Y218229D01*
X11228Y218220D01*
X11202Y218219D01*
X11148Y218189D01*
X11090Y218167D01*
X11073Y218148D01*
X11050Y218136D01*
X11015Y218086D01*
X10973Y218040D01*
X10965Y218015D01*
X10950Y217994D01*
X10934Y217910D01*
X10923Y217874D01*
X10925Y217864D01*
X10923Y217852D01*
X10923Y61057D01*
X10940Y60984D01*
X10952Y60911D01*
X10959Y60901D01*
X10962Y60889D01*
X11010Y60831D01*
X11054Y60770D01*
X11065Y60764D01*
X11072Y60755D01*
X11141Y60724D01*
X11207Y60689D01*
X11219Y60689D01*
X11231Y60684D01*
X11305Y60687D01*
X11380Y60685D01*
X11391Y60690D01*
X11404Y60691D01*
X11470Y60726D01*
X11537Y60758D01*
X11546Y60768D01*
X11556Y60773D01*
X11578Y60804D01*
X11632Y60867D01*
X11992Y61491D01*
X18509Y68008D01*
X26490Y72616D01*
X35392Y75001D01*
X44608Y75001D01*
X53510Y72616D01*
X61491Y68008D01*
X68008Y61491D01*
X72616Y53510D01*
X73559Y49988D01*
X74782Y45425D01*
X75001Y44608D01*
X75001Y35392D01*
X72616Y26490D01*
X68008Y18509D01*
X61491Y11992D01*
X60867Y11632D01*
X60813Y11581D01*
X60755Y11534D01*
X60750Y11522D01*
X60741Y11514D01*
X60714Y11444D01*
X60684Y11375D01*
X60684Y11363D01*
X60680Y11351D01*
X60688Y11277D01*
X60691Y11202D01*
X60696Y11191D01*
X60698Y11179D01*
X60738Y11116D01*
X60773Y11050D01*
X60783Y11043D01*
X60790Y11032D01*
X60854Y10993D01*
X60915Y10950D01*
X60928Y10948D01*
X60938Y10942D01*
X60976Y10939D01*
X61057Y10923D01*
X97796Y10923D01*
X97822Y10929D01*
G37*
G36*
X372879Y10932D02*
X372879Y10932D01*
X372917Y10930D01*
X372962Y10951D01*
X373010Y10962D01*
X373039Y10987D01*
X373074Y11003D01*
X373105Y11041D01*
X373143Y11072D01*
X373159Y11108D01*
X373183Y11137D01*
X373194Y11185D01*
X373214Y11231D01*
X373213Y11269D01*
X373221Y11307D01*
X373209Y11366D01*
X373208Y11404D01*
X373198Y11422D01*
X373192Y11449D01*
X371199Y16260D01*
X371199Y23740D01*
X371930Y25504D01*
X371942Y25579D01*
X371959Y25653D01*
X371957Y25665D01*
X371958Y25675D01*
X371947Y25711D01*
X371930Y25795D01*
X370935Y28197D01*
X370935Y30619D01*
X370924Y30669D01*
X370922Y30720D01*
X370904Y30752D01*
X370896Y30788D01*
X370863Y30827D01*
X370839Y30872D01*
X370809Y30893D01*
X370786Y30921D01*
X370739Y30942D01*
X370697Y30972D01*
X370655Y30980D01*
X370627Y30992D01*
X370597Y30991D01*
X370555Y30999D01*
X369929Y30999D01*
X366999Y33929D01*
X366999Y56071D01*
X368048Y57120D01*
X368068Y57152D01*
X368096Y57179D01*
X368113Y57225D01*
X368139Y57267D01*
X368143Y57305D01*
X368156Y57341D01*
X368151Y57390D01*
X368156Y57439D01*
X368142Y57475D01*
X368138Y57514D01*
X368111Y57555D01*
X368094Y57601D01*
X368066Y57627D01*
X368045Y57660D01*
X367995Y57693D01*
X367967Y57719D01*
X367947Y57725D01*
X367924Y57740D01*
X365296Y58828D01*
X361768Y62356D01*
X359859Y66965D01*
X359859Y87035D01*
X361768Y91644D01*
X365296Y95172D01*
X369905Y97081D01*
X374895Y97081D01*
X379504Y95172D01*
X383032Y91644D01*
X384941Y87035D01*
X384941Y77436D01*
X384954Y77381D01*
X384954Y77366D01*
X384959Y77357D01*
X384971Y77288D01*
X384978Y77277D01*
X384980Y77268D01*
X385004Y77239D01*
X385052Y77167D01*
X387085Y75135D01*
X388465Y71803D01*
X388465Y59381D01*
X388476Y59331D01*
X388478Y59280D01*
X388496Y59248D01*
X388504Y59212D01*
X388537Y59173D01*
X388561Y59128D01*
X388591Y59107D01*
X388614Y59079D01*
X388661Y59058D01*
X388703Y59028D01*
X388745Y59020D01*
X388773Y59008D01*
X388803Y59009D01*
X388845Y59001D01*
X390071Y59001D01*
X393001Y56071D01*
X393001Y39181D01*
X393012Y39131D01*
X393014Y39080D01*
X393032Y39048D01*
X393040Y39012D01*
X393073Y38973D01*
X393097Y38928D01*
X393127Y38907D01*
X393150Y38879D01*
X393197Y38858D01*
X393239Y38828D01*
X393281Y38820D01*
X393309Y38808D01*
X393339Y38809D01*
X393381Y38801D01*
X393740Y38801D01*
X400650Y35938D01*
X405938Y30650D01*
X408346Y24838D01*
X408353Y24828D01*
X408356Y24815D01*
X408392Y24772D01*
X408410Y24739D01*
X408424Y24729D01*
X408447Y24697D01*
X408458Y24691D01*
X408466Y24681D01*
X408534Y24651D01*
X408537Y24649D01*
X408551Y24639D01*
X408559Y24638D01*
X408600Y24616D01*
X408613Y24616D01*
X408625Y24610D01*
X408688Y24613D01*
X408694Y24612D01*
X408697Y24612D01*
X408703Y24613D01*
X408773Y24611D01*
X408785Y24617D01*
X408798Y24617D01*
X408857Y24649D01*
X408866Y24651D01*
X408873Y24657D01*
X408930Y24683D01*
X408939Y24694D01*
X408950Y24700D01*
X408985Y24749D01*
X408999Y24761D01*
X409007Y24778D01*
X409039Y24818D01*
X409042Y24831D01*
X409050Y24841D01*
X409061Y24898D01*
X409070Y24920D01*
X409069Y24943D01*
X409077Y24984D01*
X409077Y470571D01*
X409071Y470596D01*
X409074Y470622D01*
X409052Y470680D01*
X409038Y470740D01*
X409021Y470760D01*
X409012Y470784D01*
X408967Y470826D01*
X408928Y470873D01*
X408904Y470884D01*
X408885Y470901D01*
X408826Y470919D01*
X408769Y470944D01*
X408744Y470943D01*
X408719Y470951D01*
X408658Y470940D01*
X408596Y470938D01*
X408574Y470925D01*
X408548Y470921D01*
X408477Y470873D01*
X408444Y470855D01*
X408438Y470847D01*
X408428Y470840D01*
X405650Y468062D01*
X398740Y465199D01*
X391260Y465199D01*
X384350Y468062D01*
X382884Y469527D01*
X382841Y469554D01*
X382804Y469589D01*
X382768Y469599D01*
X382737Y469619D01*
X382687Y469624D01*
X382638Y469638D01*
X382601Y469632D01*
X382565Y469635D01*
X382517Y469617D01*
X382467Y469608D01*
X382432Y469584D01*
X382403Y469574D01*
X382382Y469551D01*
X382347Y469527D01*
X374112Y461293D01*
X374072Y461228D01*
X374028Y461166D01*
X374026Y461154D01*
X374021Y461145D01*
X374017Y461108D01*
X374001Y461024D01*
X374001Y454929D01*
X373722Y454650D01*
X373708Y454628D01*
X373688Y454612D01*
X373663Y454555D01*
X373631Y454503D01*
X373628Y454477D01*
X373618Y454453D01*
X373620Y454392D01*
X373614Y454330D01*
X373623Y454306D01*
X373624Y454280D01*
X373654Y454226D01*
X373676Y454168D01*
X373695Y454151D01*
X373707Y454128D01*
X373757Y454093D01*
X373803Y454051D01*
X373828Y454043D01*
X373849Y454028D01*
X373933Y454012D01*
X373969Y454001D01*
X373979Y454003D01*
X373991Y454001D01*
X380571Y454001D01*
X383501Y451071D01*
X383501Y432929D01*
X380644Y430072D01*
X380604Y430007D01*
X380560Y429945D01*
X380558Y429933D01*
X380553Y429925D01*
X380549Y429888D01*
X380533Y429803D01*
X380533Y414197D01*
X380550Y414123D01*
X380563Y414048D01*
X380570Y414038D01*
X380572Y414028D01*
X380596Y413999D01*
X380644Y413928D01*
X383501Y411071D01*
X383501Y392896D01*
X383515Y392834D01*
X383522Y392771D01*
X383535Y392751D01*
X383540Y392727D01*
X383581Y392678D01*
X383615Y392625D01*
X383637Y392610D01*
X383650Y392594D01*
X383685Y392578D01*
X383735Y392545D01*
X383975Y392446D01*
X386446Y389975D01*
X387783Y386747D01*
X387783Y383253D01*
X386446Y380025D01*
X383975Y377554D01*
X380767Y376226D01*
X380716Y376189D01*
X380660Y376158D01*
X380646Y376139D01*
X380627Y376125D01*
X380597Y376069D01*
X380560Y376017D01*
X380555Y375990D01*
X380545Y375972D01*
X380544Y375934D01*
X380533Y375874D01*
X380533Y375197D01*
X380545Y375146D01*
X380546Y375102D01*
X380557Y375081D01*
X380563Y375048D01*
X380570Y375038D01*
X380572Y375028D01*
X380596Y374999D01*
X380626Y374955D01*
X380629Y374949D01*
X380630Y374948D01*
X380644Y374928D01*
X383501Y372071D01*
X383501Y353929D01*
X383091Y353519D01*
X383064Y353476D01*
X383029Y353438D01*
X383019Y353403D01*
X383000Y353372D01*
X382995Y353321D01*
X382980Y353272D01*
X382987Y353236D01*
X382983Y353199D01*
X383001Y353151D01*
X383010Y353101D01*
X383034Y353066D01*
X383045Y353037D01*
X383067Y353016D01*
X383091Y352981D01*
X384501Y351571D01*
X384501Y336429D01*
X381571Y333499D01*
X367429Y333499D01*
X364499Y336429D01*
X364499Y351571D01*
X364909Y351981D01*
X364936Y352024D01*
X364971Y352062D01*
X364981Y352097D01*
X365000Y352128D01*
X365005Y352179D01*
X365020Y352228D01*
X365013Y352264D01*
X365017Y352301D01*
X364999Y352348D01*
X364990Y352399D01*
X364966Y352434D01*
X364955Y352463D01*
X364933Y352484D01*
X364909Y352519D01*
X364269Y353159D01*
X364226Y353186D01*
X364188Y353221D01*
X364153Y353231D01*
X364122Y353250D01*
X364071Y353255D01*
X364022Y353270D01*
X363986Y353263D01*
X363949Y353267D01*
X363902Y353249D01*
X363851Y353240D01*
X363816Y353216D01*
X363787Y353205D01*
X363766Y353183D01*
X363731Y353159D01*
X362091Y351519D01*
X362069Y351484D01*
X362061Y351477D01*
X362057Y351468D01*
X362029Y351438D01*
X362019Y351403D01*
X362000Y351372D01*
X361996Y351332D01*
X361990Y351319D01*
X361991Y351307D01*
X361980Y351272D01*
X361987Y351236D01*
X361983Y351199D01*
X361996Y351165D01*
X361997Y351146D01*
X362005Y351131D01*
X362010Y351101D01*
X362034Y351066D01*
X362045Y351037D01*
X362067Y351017D01*
X362079Y350994D01*
X362085Y350989D01*
X362091Y350981D01*
X363501Y349571D01*
X363501Y335429D01*
X362341Y334269D01*
X362314Y334226D01*
X362279Y334188D01*
X362269Y334153D01*
X362250Y334122D01*
X362245Y334071D01*
X362230Y334022D01*
X362237Y333986D01*
X362233Y333949D01*
X362251Y333902D01*
X362260Y333851D01*
X362284Y333816D01*
X362295Y333787D01*
X362317Y333766D01*
X362341Y333731D01*
X363501Y332571D01*
X363501Y327881D01*
X363512Y327831D01*
X363514Y327780D01*
X363532Y327748D01*
X363540Y327712D01*
X363573Y327673D01*
X363597Y327628D01*
X363627Y327607D01*
X363650Y327579D01*
X363697Y327558D01*
X363739Y327528D01*
X363781Y327520D01*
X363809Y327508D01*
X363839Y327509D01*
X363881Y327501D01*
X384271Y327501D01*
X384345Y327518D01*
X384420Y327531D01*
X384430Y327538D01*
X384440Y327540D01*
X384469Y327564D01*
X384540Y327612D01*
X384929Y328001D01*
X405071Y328001D01*
X408001Y325071D01*
X408001Y297929D01*
X405071Y294999D01*
X384929Y294999D01*
X381999Y297929D01*
X381999Y315119D01*
X381988Y315169D01*
X381986Y315220D01*
X381968Y315252D01*
X381960Y315288D01*
X381927Y315327D01*
X381903Y315372D01*
X381873Y315393D01*
X381850Y315421D01*
X381803Y315442D01*
X381761Y315472D01*
X381719Y315480D01*
X381691Y315492D01*
X381661Y315491D01*
X381619Y315499D01*
X347905Y315499D01*
X347855Y315488D01*
X347804Y315486D01*
X347772Y315468D01*
X347736Y315460D01*
X347697Y315427D01*
X347652Y315403D01*
X347631Y315373D01*
X347603Y315350D01*
X347582Y315303D01*
X347552Y315261D01*
X347544Y315219D01*
X347532Y315191D01*
X347533Y315161D01*
X347525Y315119D01*
X347525Y313702D01*
X346531Y311304D01*
X344941Y309714D01*
X344928Y309692D01*
X344908Y309676D01*
X344882Y309619D01*
X344850Y309567D01*
X344847Y309541D01*
X344837Y309517D01*
X344839Y309456D01*
X344833Y309394D01*
X344842Y309370D01*
X344843Y309344D01*
X344873Y309290D01*
X344895Y309232D01*
X344914Y309215D01*
X344926Y309192D01*
X344977Y309157D01*
X345022Y309115D01*
X345047Y309107D01*
X345068Y309092D01*
X345152Y309076D01*
X345188Y309065D01*
X345198Y309067D01*
X345210Y309065D01*
X351803Y309065D01*
X355135Y307685D01*
X357685Y305135D01*
X359065Y301803D01*
X359065Y298197D01*
X357685Y294865D01*
X355135Y292315D01*
X351803Y290935D01*
X298197Y290935D01*
X294865Y292315D01*
X292315Y294865D01*
X290935Y298197D01*
X290935Y301803D01*
X292315Y305135D01*
X294865Y307685D01*
X298197Y309065D01*
X306597Y309065D01*
X306622Y309071D01*
X306647Y309068D01*
X306705Y309090D01*
X306765Y309104D01*
X306785Y309121D01*
X306809Y309130D01*
X306851Y309175D01*
X306899Y309214D01*
X306910Y309238D01*
X306927Y309257D01*
X306945Y309316D01*
X306970Y309373D01*
X306969Y309398D01*
X306976Y309423D01*
X306966Y309484D01*
X306963Y309546D01*
X306951Y309568D01*
X306947Y309594D01*
X306898Y309665D01*
X306881Y309698D01*
X306872Y309704D01*
X306865Y309714D01*
X306554Y310025D01*
X305217Y313253D01*
X305217Y316747D01*
X306554Y319975D01*
X309025Y322446D01*
X312253Y323783D01*
X315747Y323783D01*
X318975Y322446D01*
X319785Y321636D01*
X319849Y321596D01*
X319911Y321552D01*
X319923Y321550D01*
X319932Y321545D01*
X319969Y321541D01*
X320053Y321525D01*
X334095Y321525D01*
X334145Y321536D01*
X334196Y321538D01*
X334228Y321556D01*
X334264Y321564D01*
X334303Y321597D01*
X334348Y321621D01*
X334369Y321651D01*
X334397Y321674D01*
X334418Y321721D01*
X334448Y321763D01*
X334456Y321805D01*
X334468Y321833D01*
X334467Y321863D01*
X334475Y321905D01*
X334475Y324925D01*
X334464Y324975D01*
X334462Y325026D01*
X334444Y325058D01*
X334436Y325094D01*
X334403Y325133D01*
X334379Y325178D01*
X334349Y325199D01*
X334326Y325227D01*
X334279Y325248D01*
X334237Y325278D01*
X334195Y325286D01*
X334167Y325298D01*
X334137Y325297D01*
X334095Y325305D01*
X278905Y325305D01*
X278855Y325294D01*
X278804Y325292D01*
X278772Y325274D01*
X278736Y325266D01*
X278697Y325233D01*
X278652Y325209D01*
X278631Y325179D01*
X278603Y325156D01*
X278582Y325109D01*
X278552Y325067D01*
X278544Y325025D01*
X278532Y324997D01*
X278533Y324967D01*
X278525Y324925D01*
X278525Y210860D01*
X278525Y210858D01*
X278525Y210856D01*
X278554Y210714D01*
X279783Y207747D01*
X279783Y204253D01*
X278446Y201025D01*
X275975Y198554D01*
X272747Y197217D01*
X270461Y197217D01*
X270411Y197206D01*
X270360Y197204D01*
X270328Y197186D01*
X270292Y197178D01*
X270253Y197145D01*
X270208Y197121D01*
X270187Y197091D01*
X270159Y197068D01*
X270138Y197021D01*
X270108Y196979D01*
X270100Y196937D01*
X270088Y196909D01*
X270089Y196879D01*
X270081Y196837D01*
X270081Y179333D01*
X270094Y179276D01*
X270094Y179273D01*
X270095Y179271D01*
X270098Y179259D01*
X270111Y179184D01*
X270118Y179174D01*
X270120Y179164D01*
X270144Y179136D01*
X270192Y179064D01*
X274546Y174710D01*
X276081Y171005D01*
X276081Y167413D01*
X276092Y167363D01*
X276094Y167312D01*
X276112Y167280D01*
X276120Y167244D01*
X276153Y167205D01*
X276177Y167160D01*
X276207Y167139D01*
X276230Y167111D01*
X276277Y167090D01*
X276319Y167060D01*
X276361Y167052D01*
X276389Y167040D01*
X276419Y167041D01*
X276461Y167033D01*
X280819Y167033D01*
X280869Y167044D01*
X280920Y167046D01*
X280952Y167064D01*
X280988Y167072D01*
X281027Y167105D01*
X281072Y167129D01*
X281093Y167159D01*
X281121Y167182D01*
X281142Y167229D01*
X281172Y167271D01*
X281180Y167313D01*
X281192Y167341D01*
X281191Y167371D01*
X281199Y167413D01*
X281199Y173740D01*
X284062Y180650D01*
X289350Y185938D01*
X296260Y188801D01*
X303740Y188801D01*
X310650Y185938D01*
X315938Y180650D01*
X318801Y173740D01*
X318801Y166260D01*
X315938Y159350D01*
X311619Y155031D01*
X311606Y155009D01*
X311586Y154993D01*
X311560Y154936D01*
X311528Y154884D01*
X311525Y154858D01*
X311515Y154834D01*
X311517Y154773D01*
X311511Y154711D01*
X311520Y154687D01*
X311521Y154661D01*
X311551Y154607D01*
X311573Y154549D01*
X311592Y154532D01*
X311604Y154509D01*
X311654Y154474D01*
X311700Y154432D01*
X311725Y154424D01*
X311746Y154409D01*
X311830Y154393D01*
X311866Y154382D01*
X311876Y154384D01*
X311888Y154382D01*
X344229Y154382D01*
X350382Y148229D01*
X350382Y91771D01*
X340493Y81882D01*
X340453Y81818D01*
X340409Y81756D01*
X340407Y81743D01*
X340402Y81735D01*
X340398Y81698D01*
X340382Y81613D01*
X340382Y11303D01*
X340393Y11253D01*
X340395Y11202D01*
X340413Y11170D01*
X340421Y11134D01*
X340454Y11095D01*
X340478Y11050D01*
X340508Y11029D01*
X340531Y11001D01*
X340578Y10980D01*
X340620Y10950D01*
X340662Y10942D01*
X340690Y10930D01*
X340720Y10931D01*
X340762Y10923D01*
X372841Y10923D01*
X372879Y10932D01*
G37*
G36*
X235020Y629242D02*
X235020Y629242D01*
X235039Y629240D01*
X235141Y629262D01*
X235243Y629279D01*
X235260Y629288D01*
X235280Y629292D01*
X235369Y629345D01*
X235460Y629394D01*
X235474Y629408D01*
X235491Y629418D01*
X235558Y629497D01*
X235630Y629572D01*
X235638Y629590D01*
X235651Y629605D01*
X235690Y629701D01*
X235733Y629795D01*
X235735Y629815D01*
X235743Y629833D01*
X235761Y630000D01*
X235761Y665000D01*
X235747Y665090D01*
X235739Y665181D01*
X235727Y665211D01*
X235722Y665243D01*
X235679Y665323D01*
X235643Y665407D01*
X235617Y665439D01*
X235606Y665460D01*
X235583Y665482D01*
X235571Y665498D01*
X235564Y665508D01*
X235558Y665514D01*
X235538Y665538D01*
X200761Y700315D01*
X200761Y713616D01*
X200751Y713681D01*
X200750Y713746D01*
X200727Y713826D01*
X200722Y713859D01*
X200712Y713876D01*
X200703Y713908D01*
X199201Y717534D01*
X199201Y722466D01*
X200703Y726092D01*
X200718Y726156D01*
X200743Y726217D01*
X200752Y726300D01*
X200759Y726332D01*
X200758Y726351D01*
X200761Y726384D01*
X200761Y739016D01*
X200751Y739081D01*
X200750Y739146D01*
X200727Y739226D01*
X200722Y739259D01*
X200712Y739276D01*
X200703Y739308D01*
X199201Y742934D01*
X199201Y747866D01*
X200703Y751492D01*
X200718Y751556D01*
X200743Y751617D01*
X200752Y751700D01*
X200759Y751732D01*
X200758Y751751D01*
X200761Y751784D01*
X200761Y758316D01*
X200758Y758336D01*
X200760Y758355D01*
X200738Y758457D01*
X200722Y758559D01*
X200712Y758576D01*
X200708Y758596D01*
X200655Y758685D01*
X200606Y758776D01*
X200592Y758790D01*
X200582Y758807D01*
X200503Y758874D01*
X200428Y758946D01*
X200410Y758954D01*
X200395Y758967D01*
X200299Y759006D01*
X200205Y759049D01*
X200185Y759051D01*
X200167Y759059D01*
X200000Y759077D01*
X76915Y759077D01*
X76869Y759070D01*
X76823Y759072D01*
X76749Y759050D01*
X76672Y759038D01*
X76631Y759016D01*
X76587Y759003D01*
X76523Y758959D01*
X76454Y758922D01*
X76423Y758889D01*
X76385Y758863D01*
X76339Y758801D01*
X76285Y758744D01*
X76266Y758702D01*
X76238Y758666D01*
X76214Y758592D01*
X76181Y758521D01*
X76176Y758475D01*
X76162Y758432D01*
X76163Y758354D01*
X76154Y758277D01*
X76164Y758232D01*
X76165Y758186D01*
X76203Y758054D01*
X76207Y758036D01*
X76209Y758032D01*
X76211Y758025D01*
X76783Y756645D01*
X76783Y753947D01*
X75750Y751454D01*
X73842Y749546D01*
X71349Y748513D01*
X70762Y748513D01*
X70742Y748510D01*
X70723Y748512D01*
X70621Y748490D01*
X70519Y748474D01*
X70502Y748464D01*
X70482Y748460D01*
X70393Y748407D01*
X70302Y748358D01*
X70288Y748344D01*
X70271Y748334D01*
X70204Y748255D01*
X70132Y748180D01*
X70124Y748162D01*
X70111Y748147D01*
X70072Y748051D01*
X70029Y747957D01*
X70027Y747937D01*
X70019Y747919D01*
X70001Y747752D01*
X70001Y744757D01*
X68243Y742999D01*
X53757Y742999D01*
X51999Y744757D01*
X51999Y758316D01*
X51996Y758336D01*
X51998Y758355D01*
X51976Y758457D01*
X51960Y758559D01*
X51950Y758576D01*
X51946Y758596D01*
X51893Y758685D01*
X51844Y758776D01*
X51830Y758790D01*
X51820Y758807D01*
X51741Y758874D01*
X51666Y758946D01*
X51648Y758954D01*
X51633Y758967D01*
X51537Y759006D01*
X51443Y759049D01*
X51423Y759051D01*
X51405Y759059D01*
X51238Y759077D01*
X20000Y759077D01*
X19978Y759074D01*
X19940Y759075D01*
X18639Y758973D01*
X18634Y758971D01*
X18628Y758972D01*
X18464Y758938D01*
X15989Y758134D01*
X15958Y758117D01*
X15923Y758109D01*
X15777Y758025D01*
X13672Y756496D01*
X13647Y756471D01*
X13617Y756452D01*
X13504Y756328D01*
X11975Y754223D01*
X11958Y754191D01*
X11936Y754163D01*
X11866Y754011D01*
X11062Y751536D01*
X11061Y751530D01*
X11059Y751525D01*
X11027Y751361D01*
X10925Y750060D01*
X10927Y750038D01*
X10923Y750000D01*
X10923Y630000D01*
X10926Y629980D01*
X10924Y629961D01*
X10946Y629859D01*
X10962Y629757D01*
X10972Y629740D01*
X10976Y629720D01*
X11029Y629631D01*
X11078Y629540D01*
X11092Y629526D01*
X11102Y629509D01*
X11181Y629442D01*
X11256Y629371D01*
X11274Y629362D01*
X11289Y629349D01*
X11385Y629310D01*
X11479Y629267D01*
X11499Y629265D01*
X11517Y629257D01*
X11684Y629239D01*
X235000Y629239D01*
X235020Y629242D01*
G37*
G36*
X115654Y534631D02*
X115654Y534631D01*
X115705Y534633D01*
X115737Y534651D01*
X115773Y534659D01*
X115812Y534692D01*
X115857Y534716D01*
X115878Y534746D01*
X115906Y534769D01*
X115927Y534816D01*
X115957Y534858D01*
X115965Y534900D01*
X115977Y534928D01*
X115976Y534958D01*
X115984Y535000D01*
X115984Y545851D01*
X118914Y548781D01*
X141086Y548781D01*
X144016Y545851D01*
X144016Y535445D01*
X144027Y535395D01*
X144029Y535344D01*
X144047Y535312D01*
X144055Y535276D01*
X144088Y535237D01*
X144112Y535192D01*
X144142Y535171D01*
X144165Y535143D01*
X144212Y535122D01*
X144254Y535092D01*
X144296Y535084D01*
X144324Y535072D01*
X144354Y535073D01*
X144396Y535065D01*
X237604Y535065D01*
X237654Y535076D01*
X237705Y535078D01*
X237737Y535096D01*
X237773Y535104D01*
X237812Y535137D01*
X237857Y535161D01*
X237878Y535191D01*
X237906Y535214D01*
X237927Y535261D01*
X237957Y535303D01*
X237965Y535345D01*
X237977Y535373D01*
X237976Y535403D01*
X237984Y535445D01*
X237984Y545851D01*
X240914Y548781D01*
X255000Y548781D01*
X255050Y548792D01*
X255101Y548794D01*
X255133Y548812D01*
X255169Y548820D01*
X255208Y548853D01*
X255253Y548877D01*
X255274Y548907D01*
X255302Y548930D01*
X255323Y548977D01*
X255353Y549019D01*
X255361Y549061D01*
X255373Y549089D01*
X255372Y549119D01*
X255380Y549161D01*
X255380Y550839D01*
X255369Y550889D01*
X255367Y550940D01*
X255349Y550972D01*
X255341Y551008D01*
X255308Y551047D01*
X255284Y551092D01*
X255254Y551113D01*
X255231Y551141D01*
X255184Y551162D01*
X255142Y551192D01*
X255100Y551200D01*
X255072Y551212D01*
X255042Y551211D01*
X255000Y551219D01*
X250344Y551219D01*
X250343Y551219D01*
X250341Y551219D01*
X250199Y551190D01*
X249583Y550935D01*
X238197Y550935D01*
X234865Y552315D01*
X232315Y554865D01*
X230935Y558197D01*
X230935Y561803D01*
X232199Y564855D01*
X232212Y564930D01*
X232228Y565004D01*
X232226Y565016D01*
X232227Y565025D01*
X232216Y565061D01*
X232199Y565146D01*
X230935Y568197D01*
X230935Y571803D01*
X232315Y575135D01*
X234865Y577685D01*
X238197Y579065D01*
X241803Y579065D01*
X245135Y577685D01*
X245487Y577332D01*
X245552Y577292D01*
X245614Y577248D01*
X245626Y577246D01*
X245635Y577241D01*
X245672Y577237D01*
X245756Y577221D01*
X255000Y577221D01*
X255050Y577232D01*
X255101Y577234D01*
X255133Y577252D01*
X255169Y577260D01*
X255208Y577293D01*
X255253Y577317D01*
X255274Y577347D01*
X255302Y577370D01*
X255323Y577417D01*
X255353Y577459D01*
X255361Y577501D01*
X255373Y577529D01*
X255372Y577559D01*
X255380Y577601D01*
X255380Y615000D01*
X255369Y615050D01*
X255367Y615101D01*
X255349Y615133D01*
X255341Y615169D01*
X255308Y615208D01*
X255284Y615253D01*
X255254Y615274D01*
X255231Y615302D01*
X255184Y615323D01*
X255142Y615353D01*
X255100Y615361D01*
X255072Y615373D01*
X255042Y615372D01*
X255000Y615380D01*
X11303Y615380D01*
X11253Y615369D01*
X11202Y615367D01*
X11170Y615349D01*
X11134Y615341D01*
X11095Y615308D01*
X11050Y615284D01*
X11029Y615254D01*
X11001Y615231D01*
X10980Y615184D01*
X10950Y615142D01*
X10942Y615100D01*
X10930Y615072D01*
X10931Y615042D01*
X10923Y615000D01*
X10923Y535000D01*
X10934Y534950D01*
X10936Y534899D01*
X10954Y534867D01*
X10962Y534831D01*
X10995Y534792D01*
X11019Y534747D01*
X11049Y534726D01*
X11072Y534698D01*
X11119Y534677D01*
X11161Y534647D01*
X11203Y534639D01*
X11231Y534627D01*
X11261Y534628D01*
X11303Y534620D01*
X115604Y534620D01*
X115654Y534631D01*
G37*
G36*
X387545Y644283D02*
X387545Y644283D01*
X387582Y644280D01*
X387629Y644298D01*
X387679Y644307D01*
X387715Y644331D01*
X387743Y644342D01*
X387764Y644364D01*
X387800Y644388D01*
X389350Y645938D01*
X396260Y648801D01*
X403740Y648801D01*
X408551Y646808D01*
X408589Y646801D01*
X408625Y646786D01*
X408674Y646788D01*
X408722Y646780D01*
X408759Y646791D01*
X408798Y646792D01*
X408841Y646816D01*
X408888Y646830D01*
X408916Y646857D01*
X408950Y646875D01*
X408978Y646915D01*
X409014Y646949D01*
X409027Y646985D01*
X409050Y647017D01*
X409061Y647076D01*
X409074Y647112D01*
X409072Y647132D01*
X409077Y647159D01*
X409077Y708943D01*
X409060Y709016D01*
X409048Y709089D01*
X409041Y709099D01*
X409038Y709111D01*
X408990Y709169D01*
X408946Y709230D01*
X408935Y709236D01*
X408928Y709245D01*
X408859Y709276D01*
X408793Y709311D01*
X408781Y709311D01*
X408769Y709316D01*
X408695Y709313D01*
X408620Y709315D01*
X408609Y709310D01*
X408596Y709309D01*
X408530Y709274D01*
X408463Y709242D01*
X408454Y709232D01*
X408444Y709227D01*
X408422Y709196D01*
X408368Y709133D01*
X408008Y708509D01*
X401491Y701992D01*
X393510Y697384D01*
X384608Y694999D01*
X375392Y694999D01*
X366490Y697384D01*
X358509Y701992D01*
X351992Y708509D01*
X347384Y716490D01*
X347310Y716767D01*
X344999Y725392D01*
X344999Y734608D01*
X346024Y738432D01*
X346026Y738507D01*
X346034Y738582D01*
X346029Y738593D01*
X346030Y738605D01*
X345998Y738674D01*
X345972Y738743D01*
X345963Y738752D01*
X345958Y738763D01*
X345900Y738810D01*
X345845Y738861D01*
X345833Y738865D01*
X345823Y738873D01*
X345750Y738889D01*
X345679Y738910D01*
X345666Y738908D01*
X345654Y738911D01*
X345582Y738893D01*
X345508Y738881D01*
X345497Y738873D01*
X345486Y738870D01*
X345457Y738846D01*
X345388Y738800D01*
X340650Y734062D01*
X333740Y731199D01*
X326260Y731199D01*
X321608Y733126D01*
X321545Y733137D01*
X321484Y733155D01*
X321461Y733151D01*
X321437Y733154D01*
X321376Y733136D01*
X321314Y733125D01*
X321291Y733110D01*
X321271Y733104D01*
X321244Y733078D01*
X321194Y733044D01*
X303264Y715115D01*
X301146Y714237D01*
X250452Y714237D01*
X250390Y714223D01*
X250327Y714216D01*
X250307Y714203D01*
X250283Y714198D01*
X250234Y714157D01*
X250181Y714123D01*
X250166Y714101D01*
X250150Y714088D01*
X250134Y714053D01*
X250101Y714003D01*
X249207Y711844D01*
X245156Y707793D01*
X239864Y705601D01*
X234136Y705601D01*
X228844Y707793D01*
X224793Y711844D01*
X224651Y712187D01*
X224636Y712208D01*
X224629Y712232D01*
X224586Y712277D01*
X224550Y712327D01*
X224527Y712340D01*
X224510Y712358D01*
X224452Y712380D01*
X224397Y712409D01*
X224372Y712410D01*
X224347Y712418D01*
X224286Y712412D01*
X224224Y712414D01*
X224201Y712403D01*
X224175Y712400D01*
X224123Y712367D01*
X224067Y712341D01*
X224050Y712321D01*
X224029Y712308D01*
X223981Y712235D01*
X223958Y712207D01*
X223955Y712197D01*
X223949Y712187D01*
X223807Y711844D01*
X219756Y707793D01*
X214464Y705601D01*
X208736Y705601D01*
X205146Y707088D01*
X205108Y707095D01*
X205072Y707110D01*
X205023Y707109D01*
X204975Y707117D01*
X204938Y707105D01*
X204899Y707104D01*
X204856Y707080D01*
X204809Y707066D01*
X204781Y707039D01*
X204747Y707021D01*
X204719Y706981D01*
X204683Y706947D01*
X204670Y706911D01*
X204647Y706879D01*
X204636Y706820D01*
X204623Y706784D01*
X204625Y706764D01*
X204620Y706737D01*
X204620Y701000D01*
X204637Y700926D01*
X204650Y700851D01*
X204657Y700841D01*
X204659Y700831D01*
X204683Y700802D01*
X204731Y700731D01*
X228578Y676884D01*
X228589Y676877D01*
X228597Y676866D01*
X228662Y676832D01*
X228726Y676793D01*
X228739Y676791D01*
X228750Y676785D01*
X228824Y676783D01*
X228898Y676776D01*
X228910Y676781D01*
X228923Y676780D01*
X228991Y676811D01*
X229060Y676838D01*
X229069Y676847D01*
X229081Y676853D01*
X229127Y676910D01*
X229178Y676965D01*
X229181Y676977D01*
X229190Y676987D01*
X229206Y677060D01*
X229227Y677131D01*
X229225Y677144D01*
X229227Y677156D01*
X229217Y677206D01*
X229217Y680747D01*
X230554Y683975D01*
X233025Y686446D01*
X236253Y687783D01*
X239747Y687783D01*
X240846Y687328D01*
X240909Y687317D01*
X240969Y687299D01*
X240993Y687303D01*
X241017Y687299D01*
X241078Y687318D01*
X241140Y687329D01*
X241163Y687344D01*
X241183Y687350D01*
X241210Y687376D01*
X241260Y687410D01*
X241736Y687885D01*
X242079Y688028D01*
X242109Y688049D01*
X242162Y688075D01*
X242459Y688298D01*
X243147Y688474D01*
X243168Y688485D01*
X243198Y688491D01*
X243854Y688763D01*
X244226Y688763D01*
X244262Y688771D01*
X244320Y688775D01*
X244680Y688867D01*
X245383Y688767D01*
X245406Y688769D01*
X245437Y688763D01*
X250119Y688763D01*
X250169Y688774D01*
X250220Y688776D01*
X250252Y688794D01*
X250288Y688802D01*
X250327Y688835D01*
X250372Y688859D01*
X250393Y688889D01*
X250421Y688912D01*
X250442Y688959D01*
X250472Y689001D01*
X250480Y689043D01*
X250492Y689071D01*
X250491Y689101D01*
X250499Y689143D01*
X250499Y689571D01*
X253429Y692501D01*
X268571Y692501D01*
X270731Y690341D01*
X270774Y690314D01*
X270812Y690279D01*
X270847Y690269D01*
X270878Y690250D01*
X270929Y690245D01*
X270978Y690230D01*
X271014Y690237D01*
X271051Y690233D01*
X271098Y690251D01*
X271149Y690260D01*
X271184Y690284D01*
X271213Y690295D01*
X271234Y690317D01*
X271269Y690341D01*
X273429Y692501D01*
X288571Y692501D01*
X291501Y689571D01*
X291501Y682806D01*
X291513Y682753D01*
X291514Y682724D01*
X291522Y682710D01*
X291531Y682658D01*
X291538Y682648D01*
X291540Y682638D01*
X291564Y682609D01*
X291612Y682538D01*
X308276Y665874D01*
X308340Y665834D01*
X308402Y665790D01*
X308414Y665788D01*
X308423Y665783D01*
X308460Y665779D01*
X308545Y665763D01*
X348146Y665763D01*
X348841Y665475D01*
X348853Y665473D01*
X348864Y665466D01*
X348938Y665459D01*
X349012Y665447D01*
X349024Y665451D01*
X349037Y665450D01*
X349106Y665476D01*
X349177Y665498D01*
X349187Y665507D01*
X349199Y665511D01*
X349249Y665566D01*
X349303Y665617D01*
X349308Y665629D01*
X349317Y665638D01*
X349338Y665710D01*
X349363Y665779D01*
X349362Y665792D01*
X349366Y665805D01*
X349353Y665878D01*
X349345Y665951D01*
X349338Y665962D01*
X349336Y665975D01*
X349255Y666095D01*
X348615Y666736D01*
X347981Y668265D01*
X347944Y668316D01*
X347914Y668372D01*
X347894Y668386D01*
X347880Y668405D01*
X347824Y668435D01*
X347772Y668472D01*
X347746Y668477D01*
X347727Y668487D01*
X347690Y668488D01*
X347630Y668499D01*
X346429Y668499D01*
X345269Y669659D01*
X345226Y669686D01*
X345188Y669721D01*
X345153Y669731D01*
X345122Y669750D01*
X345071Y669755D01*
X345022Y669770D01*
X344986Y669763D01*
X344949Y669767D01*
X344902Y669749D01*
X344851Y669740D01*
X344816Y669716D01*
X344787Y669705D01*
X344766Y669683D01*
X344731Y669659D01*
X343571Y668499D01*
X329429Y668499D01*
X328822Y669106D01*
X328757Y669146D01*
X328695Y669190D01*
X328683Y669192D01*
X328675Y669197D01*
X328638Y669201D01*
X328553Y669217D01*
X325253Y669217D01*
X322025Y670554D01*
X319554Y673025D01*
X318217Y676253D01*
X318217Y679747D01*
X319554Y682975D01*
X322025Y685446D01*
X325253Y686783D01*
X326553Y686783D01*
X326627Y686800D01*
X326702Y686813D01*
X326712Y686820D01*
X326722Y686822D01*
X326751Y686846D01*
X326822Y686894D01*
X329429Y689501D01*
X343571Y689501D01*
X344731Y688341D01*
X344774Y688314D01*
X344812Y688279D01*
X344847Y688269D01*
X344878Y688250D01*
X344929Y688245D01*
X344978Y688230D01*
X345014Y688237D01*
X345051Y688233D01*
X345099Y688251D01*
X345149Y688260D01*
X345184Y688284D01*
X345213Y688295D01*
X345234Y688317D01*
X345269Y688341D01*
X346429Y689501D01*
X360571Y689501D01*
X363501Y686571D01*
X363501Y671429D01*
X362130Y670058D01*
X362103Y670014D01*
X362068Y669977D01*
X362058Y669942D01*
X362038Y669911D01*
X362034Y669860D01*
X362019Y669811D01*
X362025Y669775D01*
X362022Y669738D01*
X362040Y669690D01*
X362049Y669640D01*
X362073Y669605D01*
X362083Y669576D01*
X362106Y669555D01*
X362130Y669520D01*
X387262Y644388D01*
X387305Y644361D01*
X387343Y644326D01*
X387378Y644316D01*
X387409Y644296D01*
X387460Y644292D01*
X387509Y644277D01*
X387545Y644283D01*
G37*
G36*
X325043Y10932D02*
X325043Y10932D01*
X325082Y10930D01*
X325127Y10951D01*
X325175Y10962D01*
X325204Y10987D01*
X325239Y11003D01*
X325270Y11041D01*
X325308Y11072D01*
X325324Y11108D01*
X325348Y11137D01*
X325359Y11185D01*
X325379Y11231D01*
X325378Y11269D01*
X325386Y11307D01*
X325374Y11366D01*
X325373Y11404D01*
X325363Y11422D01*
X325357Y11449D01*
X323199Y16658D01*
X323199Y23342D01*
X325757Y29517D01*
X330483Y34243D01*
X335146Y36174D01*
X335197Y36211D01*
X335253Y36242D01*
X335267Y36261D01*
X335286Y36275D01*
X335316Y36331D01*
X335353Y36383D01*
X335358Y36410D01*
X335368Y36428D01*
X335369Y36466D01*
X335380Y36525D01*
X335380Y83843D01*
X336348Y84810D01*
X336360Y84829D01*
X336374Y84841D01*
X336391Y84879D01*
X336432Y84937D01*
X336434Y84949D01*
X336439Y84957D01*
X336443Y84994D01*
X336443Y84995D01*
X336445Y84999D01*
X336445Y85003D01*
X336459Y85079D01*
X336459Y86637D01*
X338064Y90511D01*
X341029Y93476D01*
X344701Y94997D01*
X344752Y95034D01*
X344808Y95064D01*
X344822Y95084D01*
X344841Y95098D01*
X344871Y95154D01*
X344908Y95206D01*
X344913Y95232D01*
X344923Y95251D01*
X344924Y95288D01*
X344935Y95348D01*
X344935Y105405D01*
X345351Y106410D01*
X345352Y106411D01*
X345353Y106413D01*
X345380Y106555D01*
X345380Y146000D01*
X345363Y146074D01*
X345350Y146149D01*
X345343Y146159D01*
X345341Y146169D01*
X345317Y146198D01*
X345269Y146269D01*
X342269Y149269D01*
X342204Y149309D01*
X342142Y149353D01*
X342130Y149355D01*
X342122Y149360D01*
X342085Y149364D01*
X342000Y149380D01*
X261000Y149380D01*
X260950Y149369D01*
X260899Y149367D01*
X260867Y149349D01*
X260831Y149341D01*
X260792Y149308D01*
X260747Y149284D01*
X260726Y149254D01*
X260698Y149231D01*
X260677Y149184D01*
X260647Y149142D01*
X260639Y149100D01*
X260627Y149072D01*
X260628Y149042D01*
X260620Y149000D01*
X260620Y129000D01*
X260631Y128950D01*
X260633Y128899D01*
X260651Y128867D01*
X260659Y128831D01*
X260692Y128792D01*
X260716Y128747D01*
X260746Y128726D01*
X260769Y128698D01*
X260816Y128677D01*
X260858Y128647D01*
X260900Y128639D01*
X260928Y128627D01*
X260958Y128628D01*
X261000Y128620D01*
X318620Y128620D01*
X318620Y98158D01*
X310731Y90269D01*
X310721Y90252D01*
X310712Y90245D01*
X310702Y90221D01*
X310691Y90204D01*
X310647Y90142D01*
X310645Y90130D01*
X310640Y90122D01*
X310636Y90085D01*
X310620Y90000D01*
X310620Y59158D01*
X283843Y32380D01*
X232000Y32380D01*
X231950Y32369D01*
X231899Y32367D01*
X231867Y32349D01*
X231831Y32341D01*
X231792Y32308D01*
X231747Y32284D01*
X231726Y32254D01*
X231698Y32231D01*
X231677Y32184D01*
X231647Y32142D01*
X231639Y32100D01*
X231627Y32072D01*
X231628Y32042D01*
X231620Y32000D01*
X231620Y11303D01*
X231631Y11253D01*
X231633Y11202D01*
X231651Y11170D01*
X231659Y11134D01*
X231692Y11095D01*
X231716Y11050D01*
X231746Y11029D01*
X231769Y11001D01*
X231816Y10980D01*
X231858Y10950D01*
X231900Y10942D01*
X231928Y10930D01*
X231958Y10931D01*
X232000Y10923D01*
X325006Y10923D01*
X325043Y10932D01*
G37*
G36*
X298662Y454469D02*
X298662Y454469D01*
X298688Y454470D01*
X298742Y454500D01*
X298800Y454522D01*
X298817Y454541D01*
X298840Y454553D01*
X298875Y454604D01*
X298917Y454649D01*
X298925Y454674D01*
X298940Y454695D01*
X298956Y454779D01*
X298967Y454815D01*
X298965Y454825D01*
X298967Y454837D01*
X298967Y462399D01*
X300038Y464984D01*
X302070Y467016D01*
X302604Y467550D01*
X302618Y467572D01*
X302638Y467588D01*
X302663Y467645D01*
X302696Y467697D01*
X302698Y467723D01*
X302709Y467747D01*
X302706Y467808D01*
X302712Y467870D01*
X302703Y467894D01*
X302702Y467920D01*
X302673Y467974D01*
X302651Y468032D01*
X302632Y468049D01*
X302619Y468072D01*
X302569Y468107D01*
X302524Y468149D01*
X302499Y468157D01*
X302478Y468172D01*
X302393Y468188D01*
X302357Y468199D01*
X302348Y468197D01*
X302335Y468199D01*
X295760Y468199D01*
X288850Y471062D01*
X283562Y476350D01*
X280699Y483260D01*
X280699Y490740D01*
X283562Y497650D01*
X288850Y502938D01*
X295760Y505801D01*
X303240Y505801D01*
X310150Y502938D01*
X313850Y499238D01*
X313872Y499225D01*
X313888Y499205D01*
X313945Y499179D01*
X313997Y499147D01*
X314023Y499144D01*
X314047Y499134D01*
X314108Y499136D01*
X314170Y499130D01*
X314194Y499139D01*
X314220Y499140D01*
X314274Y499170D01*
X314332Y499192D01*
X314349Y499211D01*
X314372Y499223D01*
X314407Y499273D01*
X314449Y499319D01*
X314457Y499344D01*
X314472Y499365D01*
X314488Y499449D01*
X314499Y499485D01*
X314497Y499495D01*
X314499Y499507D01*
X314499Y503571D01*
X315659Y504731D01*
X315686Y504774D01*
X315721Y504812D01*
X315731Y504847D01*
X315750Y504878D01*
X315755Y504929D01*
X315770Y504978D01*
X315763Y505014D01*
X315767Y505051D01*
X315749Y505099D01*
X315740Y505149D01*
X315716Y505184D01*
X315705Y505213D01*
X315683Y505234D01*
X315659Y505269D01*
X314499Y506429D01*
X314499Y520571D01*
X317199Y523271D01*
X317232Y523325D01*
X317272Y523374D01*
X317277Y523397D01*
X317290Y523418D01*
X317296Y523481D01*
X317310Y523543D01*
X317304Y523569D01*
X317306Y523590D01*
X317293Y523626D01*
X317281Y523685D01*
X316217Y526253D01*
X316217Y529747D01*
X317574Y533022D01*
X317584Y533085D01*
X317602Y533146D01*
X317598Y533169D01*
X317602Y533193D01*
X317583Y533254D01*
X317572Y533316D01*
X317557Y533339D01*
X317551Y533359D01*
X317525Y533386D01*
X317491Y533436D01*
X315269Y535659D01*
X315226Y535686D01*
X315188Y535721D01*
X315153Y535731D01*
X315122Y535750D01*
X315071Y535755D01*
X315022Y535770D01*
X314986Y535763D01*
X314949Y535767D01*
X314901Y535749D01*
X314851Y535740D01*
X314816Y535716D01*
X314787Y535705D01*
X314766Y535683D01*
X314731Y535659D01*
X313071Y533999D01*
X312413Y533999D01*
X312363Y533988D01*
X312312Y533986D01*
X312280Y533968D01*
X312244Y533960D01*
X312205Y533927D01*
X312160Y533903D01*
X312139Y533873D01*
X312111Y533850D01*
X312090Y533803D01*
X312060Y533761D01*
X312052Y533719D01*
X312040Y533691D01*
X312041Y533661D01*
X312033Y533619D01*
X312033Y514601D01*
X310962Y512016D01*
X308984Y510038D01*
X306399Y508967D01*
X293545Y508967D01*
X293471Y508950D01*
X293397Y508937D01*
X293387Y508930D01*
X293377Y508928D01*
X293348Y508904D01*
X293277Y508856D01*
X292975Y508554D01*
X289747Y507217D01*
X286253Y507217D01*
X283025Y508554D01*
X280554Y511025D01*
X279217Y514253D01*
X279217Y517747D01*
X280554Y520975D01*
X283025Y523446D01*
X286253Y524783D01*
X289747Y524783D01*
X292975Y523446D01*
X293277Y523144D01*
X293341Y523104D01*
X293403Y523060D01*
X293415Y523058D01*
X293424Y523053D01*
X293461Y523049D01*
X293545Y523033D01*
X297587Y523033D01*
X297637Y523044D01*
X297688Y523046D01*
X297720Y523064D01*
X297756Y523072D01*
X297795Y523105D01*
X297840Y523129D01*
X297861Y523159D01*
X297889Y523182D01*
X297910Y523229D01*
X297940Y523271D01*
X297948Y523313D01*
X297960Y523341D01*
X297959Y523371D01*
X297967Y523413D01*
X297967Y533803D01*
X297954Y533860D01*
X297954Y533867D01*
X297951Y533872D01*
X297950Y533877D01*
X297937Y533952D01*
X297930Y533962D01*
X297928Y533972D01*
X297904Y534001D01*
X297856Y534072D01*
X294999Y536929D01*
X294999Y542897D01*
X294987Y542948D01*
X294986Y542993D01*
X294975Y543014D01*
X294969Y543046D01*
X294962Y543056D01*
X294960Y543066D01*
X294936Y543095D01*
X294907Y543138D01*
X294903Y543145D01*
X294901Y543147D01*
X294888Y543166D01*
X292038Y546016D01*
X290967Y548601D01*
X290967Y549133D01*
X290956Y549183D01*
X290954Y549234D01*
X290936Y549266D01*
X290928Y549302D01*
X290895Y549341D01*
X290871Y549386D01*
X290841Y549407D01*
X290818Y549435D01*
X290771Y549456D01*
X290729Y549486D01*
X290687Y549494D01*
X290659Y549506D01*
X290629Y549505D01*
X290587Y549513D01*
X282564Y549513D01*
X279634Y552443D01*
X279634Y569173D01*
X282564Y572103D01*
X292386Y572103D01*
X295316Y569173D01*
X295316Y567413D01*
X295327Y567363D01*
X295329Y567312D01*
X295347Y567280D01*
X295355Y567244D01*
X295388Y567205D01*
X295412Y567160D01*
X295442Y567139D01*
X295465Y567111D01*
X295512Y567090D01*
X295554Y567060D01*
X295596Y567052D01*
X295624Y567040D01*
X295654Y567041D01*
X295696Y567033D01*
X298304Y567033D01*
X298354Y567044D01*
X298405Y567046D01*
X298437Y567064D01*
X298473Y567072D01*
X298512Y567105D01*
X298557Y567129D01*
X298578Y567159D01*
X298606Y567182D01*
X298627Y567229D01*
X298657Y567271D01*
X298665Y567313D01*
X298677Y567341D01*
X298676Y567371D01*
X298684Y567413D01*
X298684Y569173D01*
X301614Y572103D01*
X311436Y572103D01*
X314366Y569173D01*
X314366Y568356D01*
X314372Y568331D01*
X314369Y568305D01*
X314379Y568279D01*
X314379Y568269D01*
X314391Y568246D01*
X314405Y568187D01*
X314422Y568167D01*
X314431Y568143D01*
X314476Y568101D01*
X314515Y568053D01*
X314539Y568043D01*
X314558Y568025D01*
X314617Y568008D01*
X314674Y567983D01*
X314699Y567984D01*
X314724Y567976D01*
X314785Y567987D01*
X314847Y567989D01*
X314869Y568001D01*
X314895Y568006D01*
X314966Y568054D01*
X314999Y568072D01*
X315005Y568080D01*
X315015Y568087D01*
X316320Y569392D01*
X316353Y569446D01*
X316393Y569495D01*
X316399Y569519D01*
X316411Y569539D01*
X316417Y569602D01*
X316431Y569664D01*
X316426Y569691D01*
X316428Y569712D01*
X316414Y569747D01*
X316402Y569806D01*
X316217Y570253D01*
X316217Y573747D01*
X317554Y576975D01*
X317856Y577277D01*
X317896Y577341D01*
X317940Y577403D01*
X317942Y577415D01*
X317947Y577424D01*
X317951Y577461D01*
X317967Y577545D01*
X317967Y583899D01*
X319038Y586484D01*
X321888Y589334D01*
X321928Y589398D01*
X321972Y589460D01*
X321974Y589472D01*
X321979Y589481D01*
X321983Y589518D01*
X321999Y589603D01*
X321999Y590571D01*
X324159Y592731D01*
X324186Y592774D01*
X324221Y592812D01*
X324231Y592847D01*
X324250Y592878D01*
X324255Y592929D01*
X324270Y592978D01*
X324263Y593014D01*
X324267Y593051D01*
X324249Y593098D01*
X324240Y593149D01*
X324216Y593184D01*
X324205Y593213D01*
X324183Y593234D01*
X324159Y593269D01*
X321999Y595429D01*
X321999Y596661D01*
X321993Y596686D01*
X321996Y596711D01*
X321974Y596769D01*
X321960Y596829D01*
X321943Y596849D01*
X321934Y596873D01*
X321889Y596915D01*
X321850Y596963D01*
X321826Y596974D01*
X321807Y596991D01*
X321748Y597009D01*
X321691Y597034D01*
X321666Y597033D01*
X321641Y597040D01*
X321580Y597030D01*
X321518Y597027D01*
X321496Y597015D01*
X321470Y597011D01*
X321399Y596962D01*
X321366Y596945D01*
X321360Y596936D01*
X321350Y596929D01*
X319975Y595554D01*
X316747Y594217D01*
X315447Y594217D01*
X315373Y594200D01*
X315298Y594187D01*
X315288Y594180D01*
X315278Y594178D01*
X315249Y594154D01*
X315178Y594106D01*
X314477Y593405D01*
X314437Y593340D01*
X314393Y593278D01*
X314391Y593266D01*
X314386Y593258D01*
X314382Y593221D01*
X314366Y593136D01*
X314366Y576827D01*
X311436Y573897D01*
X301614Y573897D01*
X298684Y576827D01*
X298684Y592119D01*
X298673Y592169D01*
X298671Y592220D01*
X298653Y592252D01*
X298645Y592288D01*
X298612Y592327D01*
X298588Y592372D01*
X298558Y592393D01*
X298535Y592421D01*
X298488Y592442D01*
X298480Y592448D01*
X295499Y595429D01*
X295499Y602081D01*
X295490Y602119D01*
X295492Y602157D01*
X295471Y602202D01*
X295460Y602250D01*
X295435Y602280D01*
X295419Y602314D01*
X295381Y602345D01*
X295350Y602383D01*
X295314Y602399D01*
X295285Y602423D01*
X295237Y602434D01*
X295191Y602454D01*
X295153Y602453D01*
X295115Y602461D01*
X295056Y602449D01*
X295018Y602448D01*
X295000Y602438D01*
X294973Y602432D01*
X293247Y601717D01*
X290618Y601717D01*
X290568Y601706D01*
X290517Y601704D01*
X290485Y601686D01*
X290449Y601678D01*
X290410Y601645D01*
X290365Y601621D01*
X290344Y601591D01*
X290316Y601568D01*
X290295Y601521D01*
X290265Y601479D01*
X290257Y601437D01*
X290245Y601409D01*
X290246Y601379D01*
X290238Y601337D01*
X290238Y596867D01*
X290249Y596817D01*
X290251Y596766D01*
X290269Y596734D01*
X290277Y596698D01*
X290310Y596659D01*
X290334Y596614D01*
X290364Y596593D01*
X290387Y596565D01*
X290434Y596544D01*
X290476Y596514D01*
X290518Y596506D01*
X290546Y596494D01*
X290576Y596495D01*
X290618Y596487D01*
X292386Y596487D01*
X295316Y593557D01*
X295316Y576827D01*
X292386Y573897D01*
X282564Y573897D01*
X279634Y576827D01*
X279634Y584744D01*
X279634Y584746D01*
X279634Y584748D01*
X279621Y584813D01*
X279621Y584821D01*
X279619Y584825D01*
X279605Y584890D01*
X278712Y587046D01*
X278712Y611980D01*
X278695Y612054D01*
X278682Y612129D01*
X278675Y612139D01*
X278673Y612149D01*
X278649Y612178D01*
X278601Y612249D01*
X269252Y621598D01*
X269219Y621618D01*
X269193Y621646D01*
X269147Y621664D01*
X269105Y621690D01*
X269067Y621693D01*
X269031Y621707D01*
X268981Y621701D01*
X268932Y621706D01*
X268897Y621692D01*
X268858Y621688D01*
X268817Y621662D01*
X268771Y621644D01*
X268744Y621616D01*
X268712Y621596D01*
X268678Y621545D01*
X268653Y621517D01*
X268647Y621497D01*
X268632Y621475D01*
X268446Y621025D01*
X265975Y618554D01*
X262747Y617217D01*
X260762Y617217D01*
X260712Y617206D01*
X260661Y617204D01*
X260629Y617186D01*
X260593Y617178D01*
X260554Y617145D01*
X260509Y617121D01*
X260488Y617091D01*
X260460Y617068D01*
X260439Y617021D01*
X260409Y616979D01*
X260401Y616937D01*
X260389Y616909D01*
X260390Y616879D01*
X260382Y616837D01*
X260382Y577601D01*
X260393Y577551D01*
X260395Y577500D01*
X260413Y577468D01*
X260421Y577432D01*
X260454Y577393D01*
X260478Y577348D01*
X260508Y577327D01*
X260531Y577299D01*
X260578Y577278D01*
X260620Y577248D01*
X260662Y577240D01*
X260690Y577228D01*
X260720Y577229D01*
X260762Y577221D01*
X263086Y577221D01*
X266016Y574291D01*
X266016Y554149D01*
X263086Y551219D01*
X260762Y551219D01*
X260712Y551208D01*
X260661Y551206D01*
X260629Y551188D01*
X260593Y551180D01*
X260554Y551147D01*
X260509Y551123D01*
X260488Y551093D01*
X260460Y551070D01*
X260439Y551023D01*
X260409Y550981D01*
X260401Y550939D01*
X260389Y550911D01*
X260390Y550881D01*
X260382Y550839D01*
X260382Y549161D01*
X260393Y549111D01*
X260395Y549060D01*
X260413Y549028D01*
X260421Y548992D01*
X260454Y548953D01*
X260478Y548908D01*
X260508Y548887D01*
X260531Y548859D01*
X260578Y548838D01*
X260620Y548808D01*
X260662Y548800D01*
X260690Y548788D01*
X260720Y548789D01*
X260762Y548781D01*
X263086Y548781D01*
X266016Y545851D01*
X266016Y525709D01*
X265176Y524869D01*
X265136Y524804D01*
X265092Y524742D01*
X265090Y524730D01*
X265085Y524722D01*
X265081Y524685D01*
X265065Y524600D01*
X265065Y457850D01*
X265074Y457813D01*
X265072Y457774D01*
X265093Y457730D01*
X265104Y457682D01*
X265129Y457652D01*
X265145Y457617D01*
X265183Y457586D01*
X265214Y457548D01*
X265250Y457532D01*
X265279Y457508D01*
X265327Y457497D01*
X265373Y457477D01*
X265411Y457479D01*
X265449Y457470D01*
X265508Y457482D01*
X265546Y457484D01*
X265564Y457494D01*
X265591Y457499D01*
X266995Y458081D01*
X292635Y458081D01*
X296340Y456546D01*
X298318Y454568D01*
X298340Y454555D01*
X298356Y454535D01*
X298413Y454509D01*
X298465Y454477D01*
X298491Y454474D01*
X298515Y454464D01*
X298576Y454466D01*
X298638Y454460D01*
X298662Y454469D01*
G37*
G36*
X101637Y223544D02*
X101637Y223544D01*
X101688Y223546D01*
X101720Y223564D01*
X101756Y223572D01*
X101795Y223605D01*
X101840Y223629D01*
X101861Y223659D01*
X101889Y223682D01*
X101910Y223729D01*
X101940Y223771D01*
X101948Y223813D01*
X101960Y223841D01*
X101959Y223871D01*
X101967Y223913D01*
X101967Y224119D01*
X101956Y224169D01*
X101954Y224220D01*
X101936Y224252D01*
X101928Y224288D01*
X101895Y224327D01*
X101871Y224372D01*
X101841Y224393D01*
X101818Y224421D01*
X101771Y224442D01*
X101729Y224472D01*
X101687Y224480D01*
X101659Y224492D01*
X101629Y224491D01*
X101587Y224499D01*
X101429Y224499D01*
X98499Y227429D01*
X98499Y241571D01*
X101429Y244501D01*
X116571Y244501D01*
X118981Y242091D01*
X119024Y242064D01*
X119062Y242029D01*
X119097Y242019D01*
X119128Y242000D01*
X119179Y241995D01*
X119228Y241980D01*
X119264Y241987D01*
X119301Y241983D01*
X119349Y242001D01*
X119399Y242010D01*
X119434Y242034D01*
X119463Y242045D01*
X119484Y242067D01*
X119519Y242091D01*
X120929Y243501D01*
X139071Y243501D01*
X139350Y243222D01*
X139372Y243208D01*
X139388Y243188D01*
X139445Y243163D01*
X139497Y243131D01*
X139523Y243128D01*
X139547Y243118D01*
X139608Y243120D01*
X139670Y243114D01*
X139694Y243123D01*
X139720Y243124D01*
X139774Y243154D01*
X139832Y243176D01*
X139849Y243195D01*
X139872Y243207D01*
X139907Y243257D01*
X139949Y243303D01*
X139957Y243328D01*
X139972Y243349D01*
X139988Y243433D01*
X139999Y243469D01*
X139997Y243479D01*
X139999Y243491D01*
X139999Y249426D01*
X139982Y249500D01*
X139969Y249575D01*
X139962Y249585D01*
X139960Y249595D01*
X139936Y249624D01*
X139888Y249695D01*
X119710Y269873D01*
X119646Y269913D01*
X119584Y269957D01*
X119572Y269959D01*
X119563Y269964D01*
X119526Y269968D01*
X119441Y269984D01*
X113709Y269984D01*
X110779Y272914D01*
X110779Y294238D01*
X110768Y294288D01*
X110766Y294339D01*
X110748Y294371D01*
X110740Y294407D01*
X110707Y294446D01*
X110683Y294491D01*
X110653Y294512D01*
X110630Y294540D01*
X110583Y294561D01*
X110541Y294591D01*
X110499Y294599D01*
X110471Y294611D01*
X110441Y294610D01*
X110399Y294618D01*
X11303Y294618D01*
X11253Y294607D01*
X11202Y294605D01*
X11170Y294587D01*
X11134Y294579D01*
X11095Y294546D01*
X11050Y294522D01*
X11029Y294492D01*
X11001Y294469D01*
X10980Y294422D01*
X10950Y294380D01*
X10942Y294338D01*
X10930Y294310D01*
X10931Y294284D01*
X10930Y294281D01*
X10930Y294275D01*
X10923Y294238D01*
X10923Y268148D01*
X10929Y268123D01*
X10926Y268097D01*
X10948Y268039D01*
X10962Y267979D01*
X10979Y267959D01*
X10988Y267935D01*
X11033Y267893D01*
X11072Y267845D01*
X11096Y267835D01*
X11115Y267817D01*
X11174Y267800D01*
X11231Y267775D01*
X11256Y267776D01*
X11281Y267768D01*
X11342Y267779D01*
X11404Y267781D01*
X11426Y267793D01*
X11452Y267798D01*
X11523Y267846D01*
X11556Y267864D01*
X11562Y267872D01*
X11572Y267879D01*
X13914Y270221D01*
X16268Y270221D01*
X16330Y270235D01*
X16393Y270242D01*
X16414Y270255D01*
X16437Y270260D01*
X16486Y270301D01*
X16540Y270335D01*
X16555Y270357D01*
X16571Y270370D01*
X16586Y270405D01*
X16620Y270455D01*
X17315Y272135D01*
X19865Y274685D01*
X23197Y276065D01*
X26803Y276065D01*
X28616Y275314D01*
X28618Y275313D01*
X28620Y275312D01*
X28762Y275285D01*
X42604Y275285D01*
X42654Y275296D01*
X42705Y275298D01*
X42737Y275316D01*
X42773Y275324D01*
X42812Y275357D01*
X42857Y275381D01*
X42878Y275411D01*
X42906Y275434D01*
X42927Y275481D01*
X42957Y275523D01*
X42965Y275565D01*
X42977Y275593D01*
X42976Y275623D01*
X42984Y275665D01*
X42984Y276291D01*
X45914Y279221D01*
X90086Y279221D01*
X93016Y276291D01*
X93016Y256149D01*
X90086Y253219D01*
X45914Y253219D01*
X42984Y256149D01*
X42984Y256775D01*
X42973Y256825D01*
X42971Y256876D01*
X42953Y256908D01*
X42945Y256944D01*
X42912Y256983D01*
X42888Y257028D01*
X42858Y257049D01*
X42835Y257077D01*
X42788Y257098D01*
X42746Y257128D01*
X42704Y257136D01*
X42676Y257148D01*
X42646Y257147D01*
X42604Y257155D01*
X39396Y257155D01*
X39346Y257144D01*
X39295Y257142D01*
X39263Y257124D01*
X39227Y257116D01*
X39188Y257083D01*
X39143Y257059D01*
X39122Y257029D01*
X39094Y257006D01*
X39073Y256959D01*
X39043Y256917D01*
X39035Y256875D01*
X39023Y256847D01*
X39024Y256817D01*
X39016Y256775D01*
X39016Y247149D01*
X36581Y244714D01*
X36567Y244692D01*
X36547Y244676D01*
X36522Y244619D01*
X36490Y244567D01*
X36487Y244541D01*
X36477Y244517D01*
X36479Y244456D01*
X36473Y244394D01*
X36482Y244370D01*
X36483Y244344D01*
X36513Y244290D01*
X36535Y244232D01*
X36554Y244215D01*
X36566Y244192D01*
X36616Y244157D01*
X36662Y244115D01*
X36687Y244107D01*
X36708Y244092D01*
X36762Y244082D01*
X40135Y242685D01*
X42335Y240484D01*
X42357Y240471D01*
X42373Y240451D01*
X42430Y240426D01*
X42482Y240393D01*
X42508Y240390D01*
X42532Y240380D01*
X42593Y240382D01*
X42655Y240376D01*
X42679Y240386D01*
X42705Y240387D01*
X42759Y240416D01*
X42817Y240438D01*
X42834Y240457D01*
X42857Y240469D01*
X42892Y240520D01*
X42934Y240565D01*
X42942Y240590D01*
X42957Y240611D01*
X42973Y240696D01*
X42984Y240731D01*
X42982Y240741D01*
X42984Y240753D01*
X42984Y247851D01*
X45914Y250781D01*
X90086Y250781D01*
X93016Y247851D01*
X93016Y227709D01*
X90458Y225151D01*
X90432Y225108D01*
X90397Y225071D01*
X90386Y225035D01*
X90367Y225004D01*
X90362Y224953D01*
X90348Y224904D01*
X90354Y224868D01*
X90351Y224832D01*
X90369Y224784D01*
X90377Y224734D01*
X90401Y224698D01*
X90412Y224670D01*
X90435Y224649D01*
X90458Y224614D01*
X91428Y223644D01*
X91493Y223604D01*
X91555Y223560D01*
X91567Y223558D01*
X91575Y223553D01*
X91612Y223549D01*
X91697Y223533D01*
X101587Y223533D01*
X101637Y223544D01*
G37*
%LPC*%
G36*
X381692Y143395D02*
X381692Y143395D01*
X377426Y145162D01*
X374162Y148426D01*
X372395Y152692D01*
X372395Y154537D01*
X372384Y154587D01*
X372382Y154638D01*
X372364Y154670D01*
X372356Y154706D01*
X372323Y154745D01*
X372299Y154790D01*
X372269Y154811D01*
X372246Y154839D01*
X372199Y154860D01*
X372157Y154890D01*
X372115Y154898D01*
X372087Y154910D01*
X372057Y154909D01*
X372015Y154917D01*
X351928Y154917D01*
X348998Y157847D01*
X348998Y173673D01*
X351928Y176603D01*
X372230Y176603D01*
X372242Y176606D01*
X372284Y176601D01*
X372297Y176606D01*
X372310Y176606D01*
X372377Y176637D01*
X372381Y176638D01*
X372399Y176642D01*
X372404Y176647D01*
X372446Y176663D01*
X372455Y176673D01*
X372468Y176678D01*
X372514Y176735D01*
X372522Y176744D01*
X372532Y176752D01*
X372535Y176757D01*
X372564Y176789D01*
X372568Y176802D01*
X372577Y176813D01*
X372593Y176885D01*
X372595Y176893D01*
X372603Y176911D01*
X372603Y176918D01*
X372614Y176955D01*
X372612Y176969D01*
X372615Y176982D01*
X372597Y177067D01*
X372597Y177084D01*
X372592Y177092D01*
X372586Y177124D01*
X372395Y177584D01*
X372395Y182200D01*
X374153Y186443D01*
X374155Y186456D01*
X374162Y186467D01*
X374169Y186540D01*
X374181Y186614D01*
X374177Y186626D01*
X374178Y186639D01*
X374152Y186709D01*
X374130Y186780D01*
X374121Y186789D01*
X374116Y186801D01*
X374062Y186852D01*
X374011Y186906D01*
X373999Y186910D01*
X373989Y186919D01*
X373918Y186940D01*
X373849Y186966D01*
X373836Y186964D01*
X373823Y186968D01*
X373750Y186955D01*
X373676Y186948D01*
X373665Y186941D01*
X373653Y186938D01*
X373532Y186857D01*
X372072Y185397D01*
X351928Y185397D01*
X348998Y188327D01*
X348998Y204153D01*
X351928Y207083D01*
X372032Y207083D01*
X372094Y207097D01*
X372157Y207104D01*
X372177Y207117D01*
X372201Y207122D01*
X372250Y207163D01*
X372303Y207197D01*
X372318Y207219D01*
X372334Y207232D01*
X372350Y207267D01*
X372383Y207317D01*
X374162Y211612D01*
X377426Y214876D01*
X381692Y216643D01*
X386308Y216643D01*
X390574Y214876D01*
X393838Y211612D01*
X395605Y207346D01*
X395605Y202730D01*
X393838Y198464D01*
X390574Y195200D01*
X386308Y193433D01*
X381780Y193433D01*
X381706Y193416D01*
X381631Y193403D01*
X381621Y193396D01*
X381611Y193394D01*
X381583Y193370D01*
X381511Y193322D01*
X379620Y191430D01*
X379613Y191419D01*
X379602Y191412D01*
X379567Y191346D01*
X379528Y191283D01*
X379527Y191270D01*
X379521Y191259D01*
X379519Y191185D01*
X379512Y191111D01*
X379516Y191098D01*
X379516Y191086D01*
X379547Y191018D01*
X379573Y190949D01*
X379583Y190940D01*
X379588Y190928D01*
X379646Y190881D01*
X379700Y190831D01*
X379713Y190827D01*
X379723Y190819D01*
X379795Y190803D01*
X379867Y190782D01*
X379879Y190784D01*
X379892Y190781D01*
X380034Y190810D01*
X381692Y191497D01*
X386308Y191497D01*
X390574Y189730D01*
X393838Y186466D01*
X395605Y182200D01*
X395605Y177584D01*
X393838Y173318D01*
X390574Y170054D01*
X386308Y168287D01*
X381692Y168287D01*
X380468Y168794D01*
X380455Y168796D01*
X380444Y168803D01*
X380370Y168810D01*
X380297Y168822D01*
X380284Y168819D01*
X380271Y168820D01*
X380202Y168793D01*
X380131Y168772D01*
X380122Y168763D01*
X380109Y168758D01*
X380059Y168704D01*
X380005Y168653D01*
X380001Y168641D01*
X379992Y168631D01*
X379971Y168560D01*
X379945Y168490D01*
X379946Y168477D01*
X379943Y168465D01*
X379955Y168392D01*
X379963Y168318D01*
X379970Y168307D01*
X379972Y168294D01*
X380053Y168174D01*
X381511Y166716D01*
X381576Y166676D01*
X381638Y166632D01*
X381650Y166630D01*
X381658Y166625D01*
X381695Y166621D01*
X381780Y166605D01*
X386308Y166605D01*
X390574Y164838D01*
X393838Y161574D01*
X395605Y157308D01*
X395605Y152692D01*
X393838Y148426D01*
X390574Y145162D01*
X386308Y143395D01*
X381692Y143395D01*
G37*
%LPD*%
G36*
X408772Y497061D02*
X408772Y497061D01*
X408798Y497062D01*
X408852Y497092D01*
X408910Y497114D01*
X408927Y497133D01*
X408950Y497145D01*
X408985Y497195D01*
X409027Y497241D01*
X409035Y497266D01*
X409050Y497287D01*
X409066Y497371D01*
X409077Y497407D01*
X409075Y497417D01*
X409077Y497429D01*
X409077Y612841D01*
X409068Y612879D01*
X409070Y612917D01*
X409049Y612962D01*
X409038Y613010D01*
X409013Y613039D01*
X408997Y613074D01*
X408959Y613105D01*
X408928Y613143D01*
X408892Y613159D01*
X408863Y613183D01*
X408815Y613194D01*
X408769Y613214D01*
X408731Y613213D01*
X408693Y613221D01*
X408634Y613209D01*
X408596Y613208D01*
X408578Y613198D01*
X408551Y613192D01*
X403740Y611199D01*
X396260Y611199D01*
X389350Y614062D01*
X384062Y619350D01*
X381232Y626181D01*
X381225Y626191D01*
X381222Y626204D01*
X381175Y626261D01*
X381131Y626321D01*
X381120Y626327D01*
X381112Y626337D01*
X381044Y626368D01*
X380978Y626403D01*
X380965Y626403D01*
X380953Y626408D01*
X380879Y626406D01*
X380805Y626408D01*
X380793Y626402D01*
X380780Y626402D01*
X380715Y626366D01*
X380648Y626335D01*
X380639Y626325D01*
X380628Y626319D01*
X380585Y626258D01*
X380539Y626201D01*
X380536Y626188D01*
X380528Y626177D01*
X380501Y626035D01*
X380501Y620429D01*
X380200Y620128D01*
X380160Y620063D01*
X380116Y620001D01*
X380114Y619989D01*
X380109Y619981D01*
X380105Y619944D01*
X380089Y619859D01*
X380089Y618253D01*
X378752Y615025D01*
X376281Y612554D01*
X373053Y611217D01*
X369559Y611217D01*
X366331Y612554D01*
X363860Y615025D01*
X362520Y618261D01*
X362506Y618321D01*
X362493Y618396D01*
X362486Y618406D01*
X362484Y618416D01*
X362460Y618445D01*
X362412Y618516D01*
X362292Y618636D01*
X362281Y618642D01*
X362274Y618653D01*
X362208Y618688D01*
X362145Y618727D01*
X362132Y618728D01*
X362121Y618734D01*
X362046Y618737D01*
X361973Y618744D01*
X361960Y618739D01*
X361947Y618739D01*
X361880Y618708D01*
X361811Y618682D01*
X361802Y618672D01*
X361790Y618667D01*
X361743Y618609D01*
X361693Y618555D01*
X361689Y618542D01*
X361681Y618532D01*
X361665Y618460D01*
X361644Y618389D01*
X361646Y618376D01*
X361643Y618363D01*
X361672Y618221D01*
X362283Y616747D01*
X362283Y613253D01*
X360946Y610025D01*
X360644Y609723D01*
X360604Y609659D01*
X360560Y609597D01*
X360558Y609585D01*
X360553Y609576D01*
X360549Y609539D01*
X360546Y609523D01*
X360540Y609509D01*
X360540Y609493D01*
X360533Y609455D01*
X360533Y603381D01*
X360544Y603331D01*
X360546Y603280D01*
X360564Y603248D01*
X360572Y603212D01*
X360605Y603173D01*
X360629Y603128D01*
X360659Y603107D01*
X360682Y603079D01*
X360729Y603058D01*
X360771Y603028D01*
X360813Y603020D01*
X360841Y603008D01*
X360871Y603009D01*
X360913Y603001D01*
X365071Y603001D01*
X367928Y600144D01*
X367993Y600104D01*
X368055Y600060D01*
X368067Y600058D01*
X368075Y600053D01*
X368112Y600049D01*
X368197Y600033D01*
X373399Y600033D01*
X375984Y598962D01*
X377962Y596984D01*
X379033Y594399D01*
X379033Y571881D01*
X379044Y571831D01*
X379046Y571780D01*
X379064Y571748D01*
X379072Y571712D01*
X379105Y571673D01*
X379129Y571628D01*
X379159Y571607D01*
X379182Y571579D01*
X379229Y571558D01*
X379271Y571528D01*
X379313Y571520D01*
X379341Y571508D01*
X379371Y571509D01*
X379413Y571501D01*
X381071Y571501D01*
X382481Y570091D01*
X382524Y570064D01*
X382562Y570029D01*
X382597Y570019D01*
X382628Y570000D01*
X382679Y569995D01*
X382728Y569980D01*
X382764Y569987D01*
X382801Y569983D01*
X382848Y570001D01*
X382899Y570010D01*
X382934Y570034D01*
X382963Y570045D01*
X382983Y570067D01*
X383019Y570091D01*
X383199Y570271D01*
X383232Y570325D01*
X383272Y570374D01*
X383277Y570397D01*
X383290Y570418D01*
X383296Y570481D01*
X383310Y570543D01*
X383305Y570569D01*
X383307Y570590D01*
X383293Y570626D01*
X383281Y570685D01*
X382217Y573253D01*
X382217Y575553D01*
X382200Y575627D01*
X382187Y575702D01*
X382180Y575712D01*
X382178Y575722D01*
X382154Y575751D01*
X382106Y575822D01*
X380499Y577429D01*
X380499Y591571D01*
X383429Y594501D01*
X398571Y594501D01*
X401501Y591571D01*
X401501Y577429D01*
X399894Y575822D01*
X399854Y575757D01*
X399810Y575695D01*
X399808Y575683D01*
X399803Y575675D01*
X399799Y575638D01*
X399783Y575553D01*
X399783Y573253D01*
X398719Y570685D01*
X398709Y570622D01*
X398691Y570561D01*
X398695Y570538D01*
X398691Y570514D01*
X398710Y570453D01*
X398720Y570391D01*
X398735Y570368D01*
X398742Y570348D01*
X398767Y570321D01*
X398801Y570271D01*
X401501Y567571D01*
X401501Y553429D01*
X400341Y552269D01*
X400332Y552254D01*
X400326Y552249D01*
X400319Y552233D01*
X400314Y552226D01*
X400279Y552188D01*
X400269Y552153D01*
X400250Y552122D01*
X400245Y552071D01*
X400230Y552022D01*
X400237Y551986D01*
X400233Y551949D01*
X400251Y551902D01*
X400260Y551851D01*
X400284Y551816D01*
X400295Y551787D01*
X400317Y551766D01*
X400341Y551731D01*
X401501Y550571D01*
X401501Y536429D01*
X398571Y533499D01*
X383429Y533499D01*
X383019Y533909D01*
X382976Y533936D01*
X382938Y533971D01*
X382903Y533981D01*
X382872Y534000D01*
X382821Y534005D01*
X382772Y534020D01*
X382736Y534013D01*
X382699Y534017D01*
X382651Y533999D01*
X382601Y533990D01*
X382566Y533966D01*
X382537Y533955D01*
X382516Y533933D01*
X382481Y533909D01*
X381071Y532499D01*
X379413Y532499D01*
X379363Y532488D01*
X379312Y532486D01*
X379280Y532468D01*
X379244Y532460D01*
X379205Y532427D01*
X379160Y532403D01*
X379139Y532373D01*
X379111Y532350D01*
X379090Y532303D01*
X379060Y532261D01*
X379052Y532219D01*
X379040Y532191D01*
X379041Y532161D01*
X379033Y532119D01*
X379033Y514381D01*
X379044Y514331D01*
X379046Y514280D01*
X379064Y514248D01*
X379072Y514212D01*
X379105Y514173D01*
X379129Y514128D01*
X379159Y514107D01*
X379182Y514079D01*
X379229Y514058D01*
X379271Y514028D01*
X379313Y514020D01*
X379341Y514008D01*
X379371Y514009D01*
X379413Y514001D01*
X381071Y514001D01*
X384001Y511071D01*
X384001Y500363D01*
X384010Y500325D01*
X384008Y500287D01*
X384029Y500242D01*
X384040Y500194D01*
X384065Y500164D01*
X384081Y500129D01*
X384119Y500098D01*
X384150Y500060D01*
X384186Y500045D01*
X384215Y500020D01*
X384263Y500010D01*
X384309Y499990D01*
X384347Y499991D01*
X384385Y499983D01*
X384444Y499995D01*
X384482Y499996D01*
X384500Y500006D01*
X384527Y500011D01*
X391260Y502801D01*
X398740Y502801D01*
X405650Y499938D01*
X408428Y497160D01*
X408450Y497147D01*
X408466Y497127D01*
X408523Y497101D01*
X408575Y497069D01*
X408601Y497066D01*
X408625Y497056D01*
X408686Y497058D01*
X408748Y497052D01*
X408772Y497061D01*
G37*
%LPC*%
G36*
X268197Y40935D02*
X268197Y40935D01*
X264865Y42315D01*
X260815Y46365D01*
X259435Y49697D01*
X259435Y95445D01*
X259429Y95470D01*
X259432Y95496D01*
X259410Y95554D01*
X259396Y95614D01*
X259379Y95634D01*
X259370Y95658D01*
X259325Y95700D01*
X259286Y95748D01*
X259262Y95758D01*
X259243Y95776D01*
X259184Y95793D01*
X259127Y95818D01*
X259102Y95817D01*
X259077Y95825D01*
X259016Y95814D01*
X258954Y95812D01*
X258932Y95800D01*
X258906Y95795D01*
X258835Y95747D01*
X258802Y95729D01*
X258796Y95721D01*
X258786Y95714D01*
X258571Y95499D01*
X244429Y95499D01*
X241650Y98278D01*
X241628Y98292D01*
X241612Y98312D01*
X241555Y98337D01*
X241552Y98339D01*
X241532Y98353D01*
X241529Y98353D01*
X241503Y98369D01*
X241477Y98372D01*
X241453Y98382D01*
X241392Y98380D01*
X241330Y98386D01*
X241306Y98377D01*
X241280Y98376D01*
X241226Y98346D01*
X241168Y98324D01*
X241151Y98305D01*
X241128Y98293D01*
X241093Y98243D01*
X241090Y98240D01*
X241079Y98231D01*
X241076Y98225D01*
X241051Y98197D01*
X241043Y98172D01*
X241028Y98151D01*
X241017Y98093D01*
X241008Y98072D01*
X241008Y98055D01*
X241001Y98031D01*
X241003Y98021D01*
X241001Y98009D01*
X241001Y96929D01*
X238071Y93999D01*
X221929Y93999D01*
X218999Y96929D01*
X218999Y115071D01*
X221929Y118001D01*
X238071Y118001D01*
X241001Y115071D01*
X241001Y113991D01*
X241007Y113966D01*
X241004Y113940D01*
X241026Y113882D01*
X241040Y113822D01*
X241057Y113802D01*
X241066Y113778D01*
X241111Y113736D01*
X241150Y113688D01*
X241174Y113678D01*
X241193Y113660D01*
X241252Y113643D01*
X241309Y113618D01*
X241334Y113619D01*
X241359Y113611D01*
X241420Y113622D01*
X241482Y113624D01*
X241504Y113636D01*
X241530Y113641D01*
X241601Y113689D01*
X241634Y113707D01*
X241640Y113715D01*
X241650Y113722D01*
X244429Y116501D01*
X258571Y116501D01*
X259731Y115341D01*
X259774Y115314D01*
X259812Y115279D01*
X259847Y115269D01*
X259878Y115250D01*
X259929Y115245D01*
X259978Y115230D01*
X260014Y115237D01*
X260051Y115233D01*
X260099Y115251D01*
X260149Y115260D01*
X260184Y115284D01*
X260213Y115295D01*
X260234Y115317D01*
X260269Y115341D01*
X261429Y116501D01*
X275571Y116501D01*
X278501Y113571D01*
X278501Y98429D01*
X277676Y97604D01*
X277636Y97539D01*
X277592Y97477D01*
X277590Y97465D01*
X277585Y97457D01*
X277581Y97420D01*
X277565Y97335D01*
X277565Y55412D01*
X277577Y55361D01*
X277579Y55311D01*
X277591Y55289D01*
X277595Y55264D01*
X277602Y55253D01*
X277604Y55244D01*
X277628Y55215D01*
X277644Y55191D01*
X277661Y55159D01*
X277669Y55153D01*
X277676Y55143D01*
X277685Y55135D01*
X279065Y51803D01*
X279065Y48197D01*
X277685Y44865D01*
X275135Y42315D01*
X271803Y40935D01*
X268197Y40935D01*
G37*
%LPD*%
%LPC*%
G36*
X296260Y251199D02*
X296260Y251199D01*
X289350Y254062D01*
X284062Y259350D01*
X281199Y266260D01*
X281199Y273740D01*
X284062Y280650D01*
X289350Y285938D01*
X296260Y288801D01*
X303740Y288801D01*
X310650Y285938D01*
X315938Y280650D01*
X318801Y273740D01*
X318801Y266260D01*
X315938Y259350D01*
X310650Y254062D01*
X303740Y251199D01*
X296260Y251199D01*
G37*
%LPD*%
%LPC*%
G36*
X125260Y90199D02*
X125260Y90199D01*
X118350Y93062D01*
X113062Y98350D01*
X110199Y105260D01*
X110199Y112740D01*
X113062Y119650D01*
X118350Y124938D01*
X125260Y127801D01*
X132740Y127801D01*
X139650Y124938D01*
X144938Y119650D01*
X147801Y112740D01*
X147801Y105260D01*
X144938Y98350D01*
X139650Y93062D01*
X132740Y90199D01*
X125260Y90199D01*
G37*
%LPD*%
%LPC*%
G36*
X108197Y550935D02*
X108197Y550935D01*
X104865Y552315D01*
X102315Y554865D01*
X100935Y558197D01*
X100935Y561803D01*
X102199Y564854D01*
X102212Y564930D01*
X102228Y565004D01*
X102226Y565016D01*
X102227Y565025D01*
X102216Y565061D01*
X102199Y565145D01*
X100935Y568197D01*
X100935Y571803D01*
X102315Y575135D01*
X104865Y577685D01*
X108197Y579065D01*
X111803Y579065D01*
X115135Y577685D01*
X116987Y575832D01*
X117031Y575805D01*
X117068Y575771D01*
X117103Y575760D01*
X117135Y575741D01*
X117185Y575736D01*
X117234Y575721D01*
X117270Y575728D01*
X117307Y575724D01*
X117355Y575742D01*
X117405Y575751D01*
X117440Y575775D01*
X117469Y575786D01*
X117490Y575808D01*
X117525Y575832D01*
X118914Y577221D01*
X141086Y577221D01*
X144016Y574291D01*
X144016Y554149D01*
X141086Y551219D01*
X118914Y551219D01*
X116745Y553388D01*
X116702Y553415D01*
X116664Y553449D01*
X116629Y553460D01*
X116598Y553479D01*
X116547Y553484D01*
X116498Y553499D01*
X116462Y553492D01*
X116425Y553496D01*
X116378Y553478D01*
X116327Y553469D01*
X116292Y553445D01*
X116263Y553434D01*
X116243Y553412D01*
X116207Y553388D01*
X115135Y552315D01*
X111803Y550935D01*
X108197Y550935D01*
G37*
%LPD*%
G36*
X337877Y501550D02*
X337877Y501550D01*
X337952Y501563D01*
X337962Y501570D01*
X337972Y501572D01*
X338001Y501596D01*
X338072Y501644D01*
X340929Y504501D01*
X359071Y504501D01*
X359350Y504222D01*
X359372Y504208D01*
X359388Y504188D01*
X359445Y504163D01*
X359497Y504131D01*
X359523Y504128D01*
X359547Y504118D01*
X359608Y504120D01*
X359670Y504114D01*
X359694Y504123D01*
X359720Y504124D01*
X359774Y504154D01*
X359832Y504176D01*
X359849Y504195D01*
X359872Y504207D01*
X359907Y504257D01*
X359949Y504303D01*
X359957Y504328D01*
X359972Y504349D01*
X359988Y504433D01*
X359999Y504469D01*
X359997Y504479D01*
X359999Y504491D01*
X359999Y511071D01*
X362929Y514001D01*
X364587Y514001D01*
X364637Y514012D01*
X364688Y514014D01*
X364720Y514032D01*
X364756Y514040D01*
X364795Y514073D01*
X364840Y514097D01*
X364861Y514127D01*
X364889Y514150D01*
X364910Y514197D01*
X364940Y514239D01*
X364948Y514281D01*
X364960Y514309D01*
X364959Y514339D01*
X364967Y514381D01*
X364967Y532119D01*
X364956Y532169D01*
X364954Y532220D01*
X364936Y532252D01*
X364928Y532288D01*
X364895Y532327D01*
X364871Y532372D01*
X364841Y532393D01*
X364818Y532421D01*
X364771Y532442D01*
X364729Y532472D01*
X364687Y532480D01*
X364659Y532492D01*
X364629Y532491D01*
X364587Y532499D01*
X362929Y532499D01*
X359999Y535429D01*
X359999Y542009D01*
X359993Y542034D01*
X359996Y542060D01*
X359974Y542118D01*
X359960Y542178D01*
X359943Y542198D01*
X359934Y542222D01*
X359889Y542264D01*
X359850Y542312D01*
X359826Y542322D01*
X359807Y542340D01*
X359748Y542357D01*
X359691Y542382D01*
X359666Y542381D01*
X359641Y542389D01*
X359580Y542378D01*
X359518Y542376D01*
X359496Y542364D01*
X359470Y542359D01*
X359399Y542311D01*
X359366Y542293D01*
X359360Y542285D01*
X359350Y542278D01*
X359071Y541999D01*
X343413Y541999D01*
X343363Y541988D01*
X343312Y541986D01*
X343280Y541968D01*
X343244Y541960D01*
X343205Y541927D01*
X343160Y541903D01*
X343139Y541873D01*
X343111Y541850D01*
X343090Y541803D01*
X343060Y541761D01*
X343052Y541719D01*
X343040Y541691D01*
X343041Y541661D01*
X343033Y541619D01*
X343033Y541601D01*
X341962Y539016D01*
X339984Y537038D01*
X337399Y535967D01*
X335197Y535967D01*
X335123Y535950D01*
X335048Y535937D01*
X335038Y535930D01*
X335028Y535928D01*
X334999Y535904D01*
X334928Y535856D01*
X332509Y533436D01*
X332475Y533383D01*
X332435Y533333D01*
X332430Y533310D01*
X332417Y533289D01*
X332411Y533226D01*
X332397Y533164D01*
X332403Y533138D01*
X332401Y533117D01*
X332414Y533082D01*
X332426Y533022D01*
X333783Y529747D01*
X333783Y526253D01*
X332719Y523685D01*
X332709Y523622D01*
X332691Y523561D01*
X332695Y523538D01*
X332691Y523514D01*
X332710Y523453D01*
X332720Y523391D01*
X332736Y523368D01*
X332742Y523348D01*
X332768Y523321D01*
X332801Y523271D01*
X335501Y520571D01*
X335501Y506429D01*
X334341Y505269D01*
X334314Y505226D01*
X334279Y505188D01*
X334269Y505153D01*
X334250Y505122D01*
X334245Y505071D01*
X334230Y505022D01*
X334237Y504986D01*
X334233Y504949D01*
X334251Y504902D01*
X334260Y504851D01*
X334284Y504816D01*
X334295Y504787D01*
X334317Y504766D01*
X334341Y504731D01*
X335501Y503571D01*
X335501Y501913D01*
X335512Y501863D01*
X335514Y501812D01*
X335532Y501780D01*
X335540Y501744D01*
X335573Y501705D01*
X335597Y501660D01*
X335627Y501639D01*
X335650Y501611D01*
X335697Y501590D01*
X335739Y501560D01*
X335781Y501552D01*
X335809Y501540D01*
X335839Y501541D01*
X335881Y501533D01*
X337803Y501533D01*
X337877Y501550D01*
G37*
G36*
X337637Y454012D02*
X337637Y454012D01*
X337688Y454014D01*
X337720Y454032D01*
X337756Y454040D01*
X337795Y454073D01*
X337840Y454097D01*
X337861Y454127D01*
X337889Y454150D01*
X337910Y454197D01*
X337940Y454239D01*
X337948Y454281D01*
X337960Y454309D01*
X337959Y454339D01*
X337967Y454381D01*
X337967Y454399D01*
X339038Y456984D01*
X341016Y458962D01*
X343601Y460033D01*
X353619Y460033D01*
X353669Y460044D01*
X353720Y460046D01*
X353752Y460064D01*
X353788Y460072D01*
X353827Y460105D01*
X353872Y460129D01*
X353893Y460159D01*
X353921Y460182D01*
X353942Y460229D01*
X353972Y460271D01*
X353980Y460313D01*
X353992Y460341D01*
X353991Y460371D01*
X353999Y460413D01*
X353999Y473071D01*
X356929Y476001D01*
X363024Y476001D01*
X363098Y476018D01*
X363172Y476031D01*
X363183Y476038D01*
X363192Y476040D01*
X363221Y476064D01*
X363293Y476112D01*
X376262Y489081D01*
X377050Y489870D01*
X377051Y489871D01*
X377053Y489872D01*
X377133Y489993D01*
X378574Y493474D01*
X378581Y493511D01*
X378596Y493547D01*
X378594Y493596D01*
X378602Y493644D01*
X378591Y493681D01*
X378590Y493720D01*
X378566Y493763D01*
X378552Y493810D01*
X378525Y493838D01*
X378507Y493872D01*
X378467Y493900D01*
X378433Y493936D01*
X378397Y493950D01*
X378365Y493972D01*
X378306Y493983D01*
X378270Y493996D01*
X378250Y493994D01*
X378223Y493999D01*
X362929Y493999D01*
X362650Y494278D01*
X362628Y494292D01*
X362612Y494312D01*
X362555Y494337D01*
X362503Y494369D01*
X362477Y494372D01*
X362453Y494382D01*
X362392Y494380D01*
X362330Y494386D01*
X362306Y494377D01*
X362280Y494376D01*
X362226Y494346D01*
X362168Y494324D01*
X362151Y494305D01*
X362128Y494293D01*
X362093Y494243D01*
X362051Y494197D01*
X362043Y494172D01*
X362028Y494151D01*
X362012Y494067D01*
X362001Y494031D01*
X362003Y494021D01*
X362001Y494009D01*
X362001Y487429D01*
X359071Y484499D01*
X345310Y484499D01*
X345249Y484485D01*
X345185Y484478D01*
X345165Y484465D01*
X345142Y484460D01*
X345093Y484419D01*
X345039Y484385D01*
X345024Y484363D01*
X345008Y484350D01*
X344993Y484315D01*
X344959Y484265D01*
X344446Y483025D01*
X341975Y480554D01*
X338747Y479217D01*
X335253Y479217D01*
X332025Y480554D01*
X329554Y483025D01*
X328213Y486265D01*
X328175Y486316D01*
X328145Y486372D01*
X328126Y486386D01*
X328111Y486405D01*
X328055Y486435D01*
X328003Y486472D01*
X327977Y486477D01*
X327958Y486487D01*
X327921Y486488D01*
X327861Y486499D01*
X318681Y486499D01*
X318631Y486488D01*
X318580Y486486D01*
X318548Y486468D01*
X318512Y486460D01*
X318473Y486427D01*
X318428Y486403D01*
X318407Y486373D01*
X318379Y486350D01*
X318358Y486303D01*
X318328Y486261D01*
X318320Y486219D01*
X318308Y486191D01*
X318309Y486161D01*
X318301Y486119D01*
X318301Y483260D01*
X315438Y476350D01*
X310150Y471062D01*
X309432Y470764D01*
X309422Y470757D01*
X309409Y470754D01*
X309352Y470707D01*
X309291Y470663D01*
X309285Y470652D01*
X309275Y470644D01*
X309245Y470576D01*
X309210Y470510D01*
X309210Y470497D01*
X309204Y470485D01*
X309207Y470411D01*
X309205Y470337D01*
X309211Y470325D01*
X309211Y470312D01*
X309246Y470247D01*
X309277Y470180D01*
X309288Y470171D01*
X309294Y470160D01*
X309354Y470118D01*
X309412Y470071D01*
X309425Y470068D01*
X309435Y470060D01*
X309578Y470033D01*
X316119Y470033D01*
X316169Y470044D01*
X316220Y470046D01*
X316252Y470064D01*
X316288Y470072D01*
X316327Y470105D01*
X316372Y470129D01*
X316393Y470159D01*
X316421Y470182D01*
X316442Y470229D01*
X316472Y470271D01*
X316480Y470313D01*
X316492Y470341D01*
X316491Y470371D01*
X316499Y470413D01*
X316499Y473071D01*
X319429Y476001D01*
X333571Y476001D01*
X336501Y473071D01*
X336501Y454929D01*
X336222Y454650D01*
X336208Y454628D01*
X336188Y454612D01*
X336163Y454555D01*
X336131Y454503D01*
X336128Y454477D01*
X336118Y454453D01*
X336120Y454392D01*
X336114Y454330D01*
X336123Y454306D01*
X336124Y454280D01*
X336154Y454226D01*
X336176Y454168D01*
X336195Y454151D01*
X336207Y454128D01*
X336257Y454093D01*
X336303Y454051D01*
X336328Y454043D01*
X336349Y454028D01*
X336433Y454012D01*
X336469Y454001D01*
X336479Y454003D01*
X336491Y454001D01*
X337587Y454001D01*
X337637Y454012D01*
G37*
G36*
X321694Y608972D02*
X321694Y608972D01*
X321720Y608973D01*
X321774Y609002D01*
X321832Y609024D01*
X321849Y609043D01*
X321872Y609055D01*
X321907Y609106D01*
X321949Y609151D01*
X321957Y609176D01*
X321972Y609197D01*
X321988Y609282D01*
X321999Y609317D01*
X321997Y609327D01*
X321999Y609339D01*
X321999Y609571D01*
X324929Y612501D01*
X343071Y612501D01*
X345061Y610511D01*
X345072Y610504D01*
X345080Y610493D01*
X345146Y610458D01*
X345209Y610419D01*
X345221Y610418D01*
X345233Y610412D01*
X345307Y610410D01*
X345381Y610403D01*
X345393Y610407D01*
X345406Y610407D01*
X345474Y610438D01*
X345543Y610465D01*
X345552Y610474D01*
X345564Y610479D01*
X345610Y610537D01*
X345661Y610592D01*
X345664Y610604D01*
X345672Y610614D01*
X345689Y610686D01*
X345710Y610758D01*
X345708Y610771D01*
X345710Y610783D01*
X345681Y610925D01*
X344717Y613253D01*
X344717Y616747D01*
X345342Y618254D01*
X345352Y618317D01*
X345370Y618378D01*
X345366Y618402D01*
X345370Y618425D01*
X345351Y618486D01*
X345340Y618549D01*
X345325Y618571D01*
X345319Y618591D01*
X345293Y618618D01*
X345259Y618669D01*
X343499Y620429D01*
X343499Y635571D01*
X346429Y638501D01*
X360571Y638501D01*
X361731Y637341D01*
X361774Y637314D01*
X361812Y637279D01*
X361847Y637269D01*
X361878Y637250D01*
X361929Y637245D01*
X361978Y637230D01*
X362014Y637237D01*
X362051Y637233D01*
X362098Y637251D01*
X362149Y637260D01*
X362184Y637284D01*
X362213Y637295D01*
X362234Y637317D01*
X362269Y637341D01*
X363429Y638501D01*
X375932Y638501D01*
X375957Y638507D01*
X375982Y638504D01*
X376040Y638526D01*
X376100Y638540D01*
X376120Y638557D01*
X376144Y638566D01*
X376186Y638611D01*
X376234Y638650D01*
X376244Y638674D01*
X376262Y638693D01*
X376280Y638752D01*
X376305Y638809D01*
X376304Y638834D01*
X376311Y638859D01*
X376301Y638920D01*
X376298Y638982D01*
X376286Y639004D01*
X376281Y639030D01*
X376233Y639101D01*
X376215Y639134D01*
X376207Y639140D01*
X376200Y639150D01*
X368654Y646696D01*
X368611Y646723D01*
X368574Y646758D01*
X368538Y646768D01*
X368507Y646787D01*
X368456Y646792D01*
X368407Y646807D01*
X368371Y646800D01*
X368335Y646804D01*
X368287Y646786D01*
X368237Y646777D01*
X368201Y646753D01*
X368173Y646742D01*
X368152Y646720D01*
X368117Y646696D01*
X365975Y644554D01*
X362747Y643217D01*
X359253Y643217D01*
X356025Y644554D01*
X354453Y646126D01*
X354389Y646166D01*
X354327Y646210D01*
X354315Y646212D01*
X354306Y646217D01*
X354269Y646221D01*
X354185Y646237D01*
X353854Y646237D01*
X351736Y647115D01*
X344724Y654126D01*
X344660Y654166D01*
X344598Y654210D01*
X344586Y654212D01*
X344577Y654217D01*
X344540Y654221D01*
X344455Y654237D01*
X333381Y654237D01*
X333331Y654226D01*
X333280Y654224D01*
X333248Y654206D01*
X333212Y654198D01*
X333173Y654165D01*
X333128Y654141D01*
X333107Y654111D01*
X333079Y654088D01*
X333058Y654041D01*
X333028Y653999D01*
X333020Y653957D01*
X333008Y653929D01*
X333009Y653899D01*
X333001Y653857D01*
X333001Y642929D01*
X330071Y639999D01*
X316881Y639999D01*
X316831Y639988D01*
X316780Y639986D01*
X316748Y639968D01*
X316712Y639960D01*
X316673Y639927D01*
X316628Y639903D01*
X316607Y639873D01*
X316579Y639850D01*
X316558Y639803D01*
X316528Y639761D01*
X316520Y639719D01*
X316508Y639691D01*
X316509Y639661D01*
X316501Y639619D01*
X316501Y638381D01*
X316512Y638331D01*
X316514Y638280D01*
X316532Y638248D01*
X316540Y638212D01*
X316573Y638173D01*
X316597Y638128D01*
X316627Y638107D01*
X316650Y638079D01*
X316697Y638058D01*
X316739Y638028D01*
X316781Y638020D01*
X316809Y638008D01*
X316839Y638009D01*
X316881Y638001D01*
X330071Y638001D01*
X333001Y635071D01*
X333001Y620929D01*
X330071Y617999D01*
X316881Y617999D01*
X316831Y617988D01*
X316780Y617986D01*
X316748Y617968D01*
X316712Y617960D01*
X316673Y617927D01*
X316628Y617903D01*
X316607Y617873D01*
X316579Y617850D01*
X316558Y617803D01*
X316528Y617761D01*
X316520Y617719D01*
X316508Y617691D01*
X316509Y617661D01*
X316501Y617619D01*
X316501Y612427D01*
X316490Y612410D01*
X316470Y612394D01*
X316445Y612337D01*
X316413Y612285D01*
X316410Y612259D01*
X316400Y612235D01*
X316402Y612174D01*
X316396Y612112D01*
X316405Y612088D01*
X316406Y612062D01*
X316436Y612008D01*
X316458Y611950D01*
X316477Y611933D01*
X316489Y611910D01*
X316539Y611875D01*
X316585Y611833D01*
X316609Y611825D01*
X316631Y611810D01*
X316715Y611794D01*
X316732Y611789D01*
X319975Y610446D01*
X321350Y609071D01*
X321372Y609057D01*
X321388Y609037D01*
X321445Y609012D01*
X321497Y608979D01*
X321523Y608977D01*
X321547Y608966D01*
X321608Y608968D01*
X321670Y608963D01*
X321694Y608972D01*
G37*
G36*
X313476Y380170D02*
X313476Y380170D01*
X313514Y380171D01*
X313532Y380181D01*
X313559Y380187D01*
X314765Y380686D01*
X314816Y380723D01*
X314872Y380754D01*
X314886Y380773D01*
X314905Y380787D01*
X314935Y380843D01*
X314972Y380895D01*
X314977Y380922D01*
X314987Y380940D01*
X314988Y380978D01*
X314999Y381038D01*
X314999Y394071D01*
X317929Y397001D01*
X326539Y397001D01*
X326589Y397012D01*
X326640Y397014D01*
X326672Y397032D01*
X326708Y397040D01*
X326747Y397073D01*
X326792Y397097D01*
X326813Y397127D01*
X326841Y397150D01*
X326862Y397197D01*
X326892Y397239D01*
X326900Y397281D01*
X326912Y397309D01*
X326911Y397339D01*
X326919Y397381D01*
X326919Y407667D01*
X326902Y407741D01*
X326889Y407816D01*
X326882Y407826D01*
X326880Y407836D01*
X326856Y407864D01*
X326808Y407936D01*
X325454Y409290D01*
X323919Y412995D01*
X323919Y425005D01*
X323970Y425128D01*
X323971Y425130D01*
X323972Y425132D01*
X323999Y425274D01*
X323999Y430571D01*
X325909Y432481D01*
X325936Y432525D01*
X325971Y432562D01*
X325981Y432597D01*
X326000Y432628D01*
X326005Y432679D01*
X326020Y432728D01*
X326013Y432764D01*
X326017Y432801D01*
X325999Y432847D01*
X325999Y451071D01*
X326278Y451350D01*
X326292Y451372D01*
X326312Y451388D01*
X326337Y451445D01*
X326369Y451497D01*
X326372Y451523D01*
X326382Y451547D01*
X326380Y451608D01*
X326386Y451670D01*
X326377Y451694D01*
X326376Y451720D01*
X326346Y451774D01*
X326324Y451832D01*
X326305Y451849D01*
X326293Y451872D01*
X326243Y451907D01*
X326197Y451949D01*
X326172Y451957D01*
X326151Y451972D01*
X326067Y451988D01*
X326031Y451999D01*
X326021Y451997D01*
X326009Y451999D01*
X319429Y451999D01*
X316499Y454929D01*
X316499Y455587D01*
X316488Y455637D01*
X316486Y455688D01*
X316468Y455720D01*
X316460Y455756D01*
X316427Y455795D01*
X316403Y455840D01*
X316373Y455861D01*
X316350Y455889D01*
X316303Y455910D01*
X316261Y455940D01*
X316219Y455948D01*
X316191Y455960D01*
X316161Y455959D01*
X316119Y455967D01*
X313413Y455967D01*
X313363Y455956D01*
X313312Y455954D01*
X313280Y455936D01*
X313244Y455928D01*
X313205Y455895D01*
X313160Y455871D01*
X313139Y455841D01*
X313111Y455818D01*
X313090Y455771D01*
X313060Y455729D01*
X313052Y455687D01*
X313040Y455659D01*
X313041Y455629D01*
X313033Y455587D01*
X313033Y380538D01*
X313042Y380500D01*
X313040Y380462D01*
X313061Y380417D01*
X313072Y380369D01*
X313097Y380340D01*
X313113Y380305D01*
X313151Y380274D01*
X313182Y380236D01*
X313218Y380220D01*
X313247Y380196D01*
X313295Y380185D01*
X313341Y380165D01*
X313379Y380166D01*
X313417Y380158D01*
X313476Y380170D01*
G37*
G36*
X298637Y389044D02*
X298637Y389044D01*
X298688Y389046D01*
X298720Y389064D01*
X298756Y389072D01*
X298795Y389105D01*
X298840Y389129D01*
X298861Y389159D01*
X298889Y389182D01*
X298910Y389229D01*
X298940Y389271D01*
X298948Y389313D01*
X298960Y389341D01*
X298959Y389371D01*
X298967Y389413D01*
X298967Y441163D01*
X298961Y441188D01*
X298964Y441214D01*
X298942Y441272D01*
X298928Y441332D01*
X298911Y441352D01*
X298902Y441376D01*
X298857Y441418D01*
X298818Y441465D01*
X298794Y441476D01*
X298775Y441493D01*
X298716Y441511D01*
X298659Y441536D01*
X298634Y441535D01*
X298609Y441543D01*
X298548Y441532D01*
X298486Y441530D01*
X298464Y441517D01*
X298438Y441513D01*
X298367Y441465D01*
X298334Y441447D01*
X298328Y441439D01*
X298318Y441432D01*
X296340Y439454D01*
X292635Y437919D01*
X266995Y437919D01*
X265591Y438501D01*
X265553Y438507D01*
X265517Y438523D01*
X265468Y438521D01*
X265420Y438529D01*
X265383Y438518D01*
X265344Y438516D01*
X265301Y438493D01*
X265254Y438478D01*
X265226Y438452D01*
X265192Y438434D01*
X265164Y438393D01*
X265128Y438359D01*
X265115Y438323D01*
X265092Y438292D01*
X265081Y438232D01*
X265068Y438197D01*
X265070Y438176D01*
X265065Y438150D01*
X265065Y413445D01*
X265076Y413395D01*
X265078Y413344D01*
X265096Y413312D01*
X265104Y413276D01*
X265137Y413237D01*
X265161Y413192D01*
X265191Y413171D01*
X265214Y413143D01*
X265261Y413122D01*
X265303Y413092D01*
X265345Y413084D01*
X265373Y413072D01*
X265403Y413073D01*
X265445Y413065D01*
X266335Y413065D01*
X266409Y413082D01*
X266484Y413095D01*
X266494Y413102D01*
X266504Y413104D01*
X266533Y413128D01*
X266604Y413176D01*
X267324Y413896D01*
X267364Y413961D01*
X267408Y414023D01*
X267410Y414035D01*
X267415Y414043D01*
X267419Y414080D01*
X267435Y414165D01*
X267435Y423803D01*
X267470Y423888D01*
X267471Y423890D01*
X267472Y423891D01*
X267499Y424033D01*
X267499Y430571D01*
X270429Y433501D01*
X284571Y433501D01*
X287501Y430571D01*
X287501Y415429D01*
X286091Y414019D01*
X286064Y413976D01*
X286029Y413938D01*
X286019Y413903D01*
X286000Y413872D01*
X285995Y413821D01*
X285980Y413772D01*
X285987Y413736D01*
X285983Y413699D01*
X286001Y413652D01*
X286010Y413601D01*
X286034Y413566D01*
X286045Y413537D01*
X286067Y413516D01*
X286091Y413481D01*
X286501Y413071D01*
X286501Y394929D01*
X286222Y394650D01*
X286208Y394628D01*
X286188Y394612D01*
X286163Y394555D01*
X286131Y394503D01*
X286128Y394477D01*
X286118Y394453D01*
X286120Y394392D01*
X286114Y394330D01*
X286123Y394306D01*
X286124Y394280D01*
X286154Y394226D01*
X286176Y394168D01*
X286195Y394151D01*
X286207Y394128D01*
X286257Y394093D01*
X286303Y394051D01*
X286328Y394043D01*
X286349Y394028D01*
X286433Y394012D01*
X286469Y394001D01*
X286479Y394003D01*
X286491Y394001D01*
X293071Y394001D01*
X296001Y391071D01*
X296001Y389413D01*
X296012Y389363D01*
X296014Y389312D01*
X296032Y389280D01*
X296040Y389244D01*
X296073Y389205D01*
X296097Y389160D01*
X296127Y389139D01*
X296150Y389111D01*
X296197Y389090D01*
X296239Y389060D01*
X296281Y389052D01*
X296309Y389040D01*
X296339Y389041D01*
X296381Y389033D01*
X298587Y389033D01*
X298637Y389044D01*
G37*
G36*
X224822Y10929D02*
X224822Y10929D01*
X224847Y10926D01*
X224905Y10948D01*
X224965Y10962D01*
X224985Y10979D01*
X225009Y10988D01*
X225051Y11033D01*
X225099Y11072D01*
X225109Y11096D01*
X225127Y11115D01*
X225144Y11174D01*
X225170Y11231D01*
X225169Y11256D01*
X225176Y11281D01*
X225165Y11342D01*
X225163Y11404D01*
X225151Y11426D01*
X225146Y11452D01*
X225098Y11523D01*
X225080Y11556D01*
X225072Y11562D01*
X225065Y11572D01*
X224793Y11844D01*
X222601Y17136D01*
X222601Y22864D01*
X224793Y28156D01*
X226507Y29870D01*
X226547Y29934D01*
X226591Y29996D01*
X226593Y30009D01*
X226598Y30017D01*
X226602Y30054D01*
X226618Y30139D01*
X226618Y34229D01*
X226944Y34555D01*
X226971Y34598D01*
X227006Y34636D01*
X227016Y34671D01*
X227036Y34702D01*
X227040Y34753D01*
X227055Y34802D01*
X227049Y34838D01*
X227052Y34875D01*
X227034Y34923D01*
X227025Y34973D01*
X227001Y35008D01*
X226991Y35037D01*
X226968Y35058D01*
X226944Y35093D01*
X224793Y37244D01*
X224651Y37587D01*
X224636Y37608D01*
X224629Y37632D01*
X224586Y37677D01*
X224550Y37727D01*
X224527Y37740D01*
X224510Y37758D01*
X224452Y37780D01*
X224397Y37809D01*
X224372Y37810D01*
X224347Y37819D01*
X224286Y37812D01*
X224224Y37814D01*
X224201Y37803D01*
X224175Y37800D01*
X224123Y37767D01*
X224067Y37741D01*
X224050Y37721D01*
X224029Y37708D01*
X223981Y37636D01*
X223958Y37607D01*
X223955Y37597D01*
X223949Y37587D01*
X223807Y37244D01*
X219756Y33193D01*
X214464Y31001D01*
X208736Y31001D01*
X203444Y33193D01*
X199393Y37244D01*
X199251Y37587D01*
X199236Y37608D01*
X199229Y37632D01*
X199186Y37677D01*
X199150Y37727D01*
X199127Y37740D01*
X199110Y37758D01*
X199052Y37780D01*
X198997Y37809D01*
X198972Y37810D01*
X198947Y37819D01*
X198886Y37812D01*
X198824Y37814D01*
X198801Y37803D01*
X198775Y37800D01*
X198723Y37767D01*
X198667Y37741D01*
X198650Y37721D01*
X198629Y37708D01*
X198581Y37636D01*
X198558Y37607D01*
X198555Y37597D01*
X198549Y37587D01*
X198407Y37244D01*
X194356Y33193D01*
X194013Y33051D01*
X193992Y33036D01*
X193968Y33029D01*
X193923Y32986D01*
X193873Y32950D01*
X193860Y32927D01*
X193842Y32910D01*
X193820Y32852D01*
X193791Y32797D01*
X193790Y32772D01*
X193781Y32747D01*
X193788Y32686D01*
X193786Y32624D01*
X193797Y32601D01*
X193800Y32575D01*
X193833Y32523D01*
X193859Y32467D01*
X193879Y32450D01*
X193892Y32429D01*
X193964Y32381D01*
X193993Y32358D01*
X194003Y32355D01*
X194013Y32349D01*
X194356Y32207D01*
X198407Y28156D01*
X200599Y22864D01*
X200599Y17136D01*
X198407Y11844D01*
X198135Y11572D01*
X198121Y11550D01*
X198101Y11534D01*
X198076Y11477D01*
X198043Y11425D01*
X198041Y11399D01*
X198030Y11375D01*
X198033Y11314D01*
X198027Y11252D01*
X198036Y11228D01*
X198037Y11202D01*
X198066Y11148D01*
X198088Y11090D01*
X198107Y11073D01*
X198120Y11050D01*
X198170Y11015D01*
X198216Y10973D01*
X198240Y10965D01*
X198261Y10950D01*
X198346Y10934D01*
X198382Y10923D01*
X198392Y10925D01*
X198404Y10923D01*
X224796Y10923D01*
X224822Y10929D01*
G37*
G36*
X286932Y620463D02*
X286932Y620463D01*
X286958Y620464D01*
X287012Y620493D01*
X287070Y620515D01*
X287087Y620534D01*
X287110Y620547D01*
X287145Y620597D01*
X287187Y620642D01*
X287195Y620667D01*
X287210Y620688D01*
X287222Y620753D01*
X287230Y620771D01*
X287230Y620785D01*
X287237Y620809D01*
X287235Y620818D01*
X287237Y620830D01*
X287237Y640619D01*
X287226Y640669D01*
X287224Y640720D01*
X287206Y640752D01*
X287198Y640788D01*
X287165Y640827D01*
X287141Y640872D01*
X287111Y640893D01*
X287088Y640921D01*
X287041Y640942D01*
X286999Y640972D01*
X286957Y640980D01*
X286929Y640992D01*
X286899Y640991D01*
X286857Y640999D01*
X277143Y640999D01*
X277093Y640988D01*
X277042Y640986D01*
X277010Y640968D01*
X276974Y640960D01*
X276935Y640927D01*
X276890Y640903D01*
X276869Y640873D01*
X276841Y640850D01*
X276820Y640803D01*
X276790Y640761D01*
X276782Y640719D01*
X276770Y640691D01*
X276770Y640689D01*
X276771Y640661D01*
X276763Y640619D01*
X276763Y630545D01*
X276780Y630471D01*
X276793Y630396D01*
X276800Y630386D01*
X276802Y630376D01*
X276826Y630347D01*
X276874Y630276D01*
X286588Y620562D01*
X286610Y620548D01*
X286626Y620528D01*
X286683Y620503D01*
X286700Y620492D01*
X286702Y620491D01*
X286735Y620470D01*
X286761Y620468D01*
X286785Y620457D01*
X286846Y620460D01*
X286908Y620454D01*
X286932Y620463D01*
G37*
D10*
X358000Y110000D03*
X330000Y110000D03*
D11*
X347000Y84540D02*
X347000Y69460D01*
X321600Y69460D02*
X321600Y84540D01*
X372400Y84540D02*
X372400Y69460D01*
D10*
X358000Y135000D03*
X330000Y135000D03*
X352000Y45000D03*
X380000Y45000D03*
D12*
X322500Y650000D03*
X339500Y650000D03*
X306000Y602500D03*
X306000Y619500D03*
X306000Y634500D03*
X306000Y651500D03*
D13*
X287475Y585192D03*
X297000Y585192D03*
X306525Y585192D03*
X306525Y560808D03*
X287475Y560808D03*
D12*
X325000Y543500D03*
X325000Y560500D03*
X261000Y682500D03*
X261000Y665500D03*
X281000Y665500D03*
X281000Y682500D03*
D14*
X356000Y593000D03*
X334000Y583500D03*
X334000Y602500D03*
D12*
X391000Y584500D03*
X391000Y601500D03*
D14*
X372000Y504000D03*
X350000Y494500D03*
X350000Y513500D03*
X350000Y552000D03*
X372000Y561500D03*
X372000Y542500D03*
D12*
X391000Y560500D03*
X391000Y543500D03*
X325000Y513500D03*
X325000Y496500D03*
D15*
X216000Y643000D03*
X216000Y587000D03*
D16*
X390000Y20000D03*
X300000Y170000D03*
X299500Y487000D03*
X400000Y630000D03*
X280000Y750000D03*
X330000Y750000D03*
D12*
X261000Y651500D03*
X261000Y634500D03*
D17*
X252000Y535780D03*
X252000Y564220D03*
D18*
X152220Y284000D03*
X123780Y284000D03*
D17*
X25000Y257220D03*
X25000Y228780D03*
X130000Y535780D03*
X130000Y564220D03*
D14*
X43000Y207000D03*
X65000Y216500D03*
X65000Y197500D03*
D12*
X82000Y215500D03*
X82000Y198500D03*
D16*
X129000Y109000D03*
X300000Y270000D03*
X28000Y565000D03*
D14*
X152000Y243000D03*
X130000Y233500D03*
X130000Y252500D03*
D19*
X364000Y424000D03*
X373500Y402000D03*
X354500Y402000D03*
D14*
X107000Y207000D03*
X129000Y216500D03*
X129000Y197500D03*
D12*
X148000Y215500D03*
X148000Y198500D03*
D20*
X316500Y344000D03*
X333500Y344000D03*
D12*
X109000Y234500D03*
X109000Y251500D03*
D16*
X395000Y484000D03*
D17*
X176000Y231220D03*
X176000Y202780D03*
D19*
X325000Y385000D03*
X334500Y363000D03*
X315500Y363000D03*
D20*
X374500Y344000D03*
X391500Y344000D03*
D21*
X230000Y106000D03*
X200000Y106000D03*
X61000Y753000D03*
X31000Y753000D03*
X230000Y135000D03*
X200000Y135000D03*
D20*
X268500Y106000D03*
X251500Y106000D03*
X353500Y628000D03*
X370500Y628000D03*
X268500Y135000D03*
X251500Y135000D03*
D16*
X400000Y680000D03*
X300000Y110000D03*
X340000Y20000D03*
X280000Y20000D03*
D12*
X305500Y544000D03*
X288500Y544000D03*
D19*
X326500Y464000D03*
X336000Y442000D03*
X317000Y442000D03*
D20*
X334000Y423000D03*
X317000Y423000D03*
X268000Y362000D03*
X285000Y362000D03*
D19*
X276500Y404000D03*
X286000Y382000D03*
X267000Y382000D03*
D20*
X277500Y423000D03*
X294500Y423000D03*
D19*
X364000Y464000D03*
X373500Y442000D03*
X354500Y442000D03*
X364000Y385000D03*
X373500Y363000D03*
X354500Y363000D03*
D22*
X384000Y155000D03*
X384000Y179892D03*
X384000Y205038D03*
D17*
X57000Y237780D03*
X57000Y266220D03*
D12*
X322500Y628000D03*
X339500Y628000D03*
D23*
X110000Y720000D03*
X110000Y745400D03*
X135400Y720000D03*
X135400Y745400D03*
X160800Y720000D03*
X160800Y745400D03*
X186200Y720000D03*
X186200Y745400D03*
X211600Y720000D03*
X211600Y745400D03*
X237000Y720000D03*
X237000Y745400D03*
X110000Y20000D03*
X110000Y45400D03*
X135400Y20000D03*
X135400Y45400D03*
X160800Y20000D03*
X160800Y45400D03*
X186200Y20000D03*
X186200Y45400D03*
X211600Y20000D03*
X211600Y45400D03*
X237000Y20000D03*
X237000Y45400D03*
D12*
X353000Y342500D03*
X353000Y325500D03*
D24*
X395000Y248500D03*
X395000Y311500D03*
D20*
X281000Y651500D03*
X281000Y634500D03*
D25*
X236000Y262495D03*
X236000Y215505D03*
D26*
X199004Y267000D03*
X166996Y267000D03*
D15*
X175000Y643000D03*
X175000Y587000D03*
D27*
X362000Y165760D03*
X362000Y181000D03*
X362000Y196240D03*
D15*
X134000Y643000D03*
X134000Y587000D03*
X93000Y643000D03*
X93000Y587000D03*
D17*
X198000Y231220D03*
X198000Y202780D03*
X79000Y237780D03*
X79000Y266220D03*
D20*
X353500Y679000D03*
X336500Y679000D03*
D28*
X380000Y730000D03*
X40000Y40000D03*
D29*
X354500Y402000D02*
X354500Y442000D01*
X354500Y402000D02*
X354500Y374000D01*
X354500Y363000D01*
X315500Y363000D02*
X315500Y345000D01*
X316500Y344000D01*
X315500Y363000D02*
X315500Y372500D01*
X317000Y374000D02*
X354500Y374000D01*
X317000Y374000D02*
X315500Y372500D01*
D30*
X267000Y382000D02*
X267000Y363000D01*
X268000Y362000D01*
D29*
X268000Y344000D01*
D30*
X280000Y20000D02*
X237000Y20000D01*
X280000Y20000D02*
X290000Y20000D01*
X321600Y51600D02*
X321600Y77000D01*
X321600Y51600D02*
X290000Y20000D01*
X321600Y77000D02*
X321600Y91600D01*
X330000Y100000D01*
X330000Y110000D01*
D31*
X316500Y344000D02*
X268000Y344000D01*
X260000Y336000D01*
X260000Y175000D01*
X268500Y135000D02*
X330000Y135000D01*
X330000Y110000D01*
D32*
X260000Y175000D03*
X266000Y169000D03*
X259000Y185000D03*
D31*
X260000Y175000D02*
X266000Y169000D01*
D32*
X265000Y145000D03*
X273000Y145000D03*
X281000Y145000D03*
D29*
X335500Y601000D02*
X334000Y602500D01*
X335500Y601000D02*
X344000Y601000D01*
X345000Y600000D01*
X345000Y568000D01*
X336000Y568000D01*
X336000Y543000D01*
X325500Y543000D01*
X325000Y543500D01*
X324500Y544000D02*
X305500Y544000D01*
X324500Y544000D02*
X325000Y543500D01*
X325000Y528000D01*
X325000Y513500D01*
X288283Y560000D02*
X287475Y560808D01*
X288283Y560000D02*
X298000Y560000D01*
X298000Y550000D01*
X304000Y544000D01*
X305500Y544000D01*
X305000Y543500D01*
X305000Y516000D01*
D32*
X325000Y528000D03*
X345000Y568000D03*
X288000Y516000D03*
D29*
X305000Y516000D01*
D33*
X335500Y678000D02*
X336500Y679000D01*
X335500Y678000D02*
X327000Y678000D01*
D32*
X327000Y678000D03*
D33*
X261000Y682500D02*
X260500Y683000D01*
X245000Y683000D01*
X239667Y679000D01*
X238000Y679000D01*
D32*
X238000Y679000D03*
D30*
X372400Y77000D02*
X379400Y70000D01*
X379400Y45600D01*
X380000Y45000D01*
X380000Y30000D01*
X390000Y20000D01*
X268500Y51500D02*
X268500Y106000D01*
X268500Y51500D02*
X270000Y50000D01*
D32*
X270000Y50000D03*
X300000Y300000D03*
D30*
X350000Y300000D01*
D32*
X350000Y300000D03*
D29*
X317000Y423000D02*
X317000Y442000D01*
X82000Y198500D02*
X81000Y197500D01*
X65000Y197500D01*
X147000Y197500D02*
X148000Y198500D01*
X147000Y197500D02*
X138000Y197500D01*
X129000Y197500D01*
D34*
X339500Y628000D02*
X339500Y650000D01*
D29*
X383500Y601500D02*
X391000Y601500D01*
X383500Y601500D02*
X383000Y602000D01*
D32*
X383000Y602000D03*
D29*
X281000Y627000D02*
X281000Y634500D01*
D32*
X281000Y627000D03*
D29*
X297000Y593496D02*
X297000Y585192D01*
X297000Y593496D02*
X296748Y593748D01*
D32*
X296748Y593748D03*
D29*
X288500Y544000D02*
X288500Y538162D01*
X285000Y534662D01*
D32*
X285000Y534662D03*
D29*
X339500Y650000D02*
X347000Y650000D01*
D32*
X347000Y650000D03*
D29*
X350000Y513500D02*
X341500Y513500D01*
X341000Y513000D01*
D32*
X341000Y513000D03*
D29*
X138000Y197500D02*
X139000Y196500D01*
X139000Y191000D01*
D32*
X139000Y191000D03*
D30*
X175000Y643000D02*
X216000Y643000D01*
X175000Y643000D02*
X134000Y643000D01*
X93000Y643000D01*
D29*
X65000Y197500D02*
X16500Y197500D01*
X16000Y197000D01*
D32*
X16000Y197000D03*
D30*
X110000Y252500D02*
X123000Y252500D01*
X110000Y252500D02*
X109000Y251500D01*
X123000Y252500D02*
X130000Y252500D01*
D32*
X123000Y252500D03*
X392000Y248000D03*
D34*
X394500Y248000D01*
X395000Y248500D01*
D30*
X352000Y104000D02*
X352000Y82000D01*
X347000Y77000D01*
X352000Y104000D02*
X358000Y110000D01*
X358000Y135000D01*
X347000Y77000D02*
X347000Y50000D01*
X352000Y45000D01*
X347000Y40000D01*
X347000Y27000D01*
X340000Y20000D01*
X392000Y343500D02*
X391500Y344000D01*
X392000Y343500D02*
X392000Y337000D01*
D32*
X392000Y337000D03*
D35*
X200000Y135000D02*
X200000Y121000D01*
X200000Y106000D01*
D32*
X200000Y121000D03*
D35*
X294500Y418500D02*
X294500Y423000D01*
X294500Y418500D02*
X290000Y414000D01*
D32*
X290000Y414000D03*
D35*
X317000Y442000D02*
X317000Y450000D01*
X320000Y453000D02*
X336000Y453000D01*
X338000Y455000D01*
X338000Y463000D01*
X338811Y463811D01*
X349189Y463811D01*
D32*
X349189Y463811D03*
D35*
X320000Y453000D02*
X317000Y450000D01*
X348000Y181000D02*
X362000Y181000D01*
X348000Y181000D02*
X345000Y178000D01*
X358000Y143000D02*
X358000Y135000D01*
X345000Y156000D02*
X345000Y178000D01*
X345000Y156000D02*
X358000Y143000D01*
X358000Y135000D02*
X373000Y135000D01*
D32*
X373000Y135000D03*
X284000Y506000D03*
X276000Y514000D03*
X50000Y600000D03*
X50000Y610000D03*
X70000Y610000D03*
X70000Y600000D03*
X90000Y600000D03*
X90000Y610000D03*
X110000Y600000D03*
X110000Y610000D03*
X130000Y610000D03*
X130000Y600000D03*
X150000Y600000D03*
X150000Y610000D03*
X170000Y610000D03*
X170000Y600000D03*
X190000Y600000D03*
X190000Y610000D03*
X210000Y610000D03*
X210000Y600000D03*
X230000Y600000D03*
X230000Y610000D03*
X250000Y600000D03*
X250000Y610000D03*
D34*
X307500Y650000D02*
X322500Y650000D01*
X307500Y650000D02*
X306000Y651500D01*
D30*
X216000Y587000D02*
X175000Y587000D01*
X174000Y586000D01*
X135000Y586000D02*
X134000Y587000D01*
X135000Y586000D02*
X174000Y586000D01*
X134000Y587000D02*
X93000Y587000D01*
D33*
X304500Y650000D02*
X306000Y651500D01*
X304500Y650000D02*
X296000Y650000D01*
X293000Y647000D01*
X293000Y612000D02*
X291500Y610500D01*
X293000Y612000D02*
X293000Y647000D01*
D32*
X291500Y610500D03*
D34*
X306000Y627000D02*
X306000Y634500D01*
X306000Y627000D02*
X306000Y619500D01*
X321500Y627000D02*
X322500Y628000D01*
X321500Y627000D02*
X306000Y627000D01*
D29*
X326000Y583500D02*
X334000Y583500D01*
X326000Y583500D02*
X325000Y582500D01*
X325000Y572000D01*
X325000Y560500D01*
X306833Y560500D01*
X306525Y560808D01*
D32*
X325000Y572000D03*
D29*
X261000Y654000D02*
X261000Y665500D01*
X261000Y654000D02*
X261000Y651500D01*
X271000Y651500D02*
X281000Y651500D01*
X271000Y651500D02*
X263500Y651500D01*
X261000Y654000D01*
X271000Y665500D02*
X281000Y665500D01*
X271000Y665500D02*
X261000Y665500D01*
X271000Y659000D02*
X271000Y651500D01*
X271000Y659000D02*
X271000Y665500D01*
D34*
X261000Y651500D02*
X256500Y647000D01*
D32*
X271000Y659000D03*
D33*
X300000Y720000D02*
X237000Y720000D01*
X300000Y720000D02*
X330000Y750000D01*
X261000Y651500D02*
X260500Y651000D01*
X287475Y588525D02*
X287475Y585192D01*
X287475Y588525D02*
X285000Y591000D01*
X284475Y588192D02*
X287475Y585192D01*
X284475Y588192D02*
X284475Y614525D01*
X271000Y628000D02*
X271000Y651500D01*
X271000Y628000D02*
X284475Y614525D01*
D29*
X336000Y494500D02*
X350000Y494500D01*
X336000Y494500D02*
X327000Y494500D01*
X325000Y496500D01*
X336000Y494500D02*
X337000Y493500D01*
X337000Y488000D01*
D32*
X337000Y488000D03*
D33*
X275400Y745400D02*
X237000Y745400D01*
X275400Y745400D02*
X280000Y750000D01*
D32*
X314000Y315000D03*
D35*
X341000Y315000D01*
X341000Y333000D01*
X350500Y342500D02*
X353000Y342500D01*
X350500Y342500D02*
X341000Y333000D01*
D34*
X306525Y601975D02*
X306000Y602500D01*
X306525Y601975D02*
X306525Y585192D01*
D29*
X306000Y602500D02*
X314500Y602500D01*
X315000Y603000D01*
D32*
X315000Y603000D03*
D33*
X393500Y630000D02*
X400000Y630000D01*
X393500Y630000D02*
X353500Y670000D01*
X353500Y679000D01*
D29*
X130000Y233500D02*
X130000Y217500D01*
X129000Y216500D01*
X130000Y215500D02*
X148000Y215500D01*
X130000Y215500D02*
X129000Y216500D01*
X130000Y233500D02*
X110000Y233500D01*
X109000Y234500D01*
X108000Y216500D02*
X129000Y216500D01*
X108000Y216500D02*
X83000Y216500D01*
X82000Y215500D01*
X66000Y215500D01*
X65000Y216500D01*
X109000Y217500D02*
X109000Y234500D01*
X109000Y217500D02*
X108000Y216500D01*
X391000Y575000D02*
X391000Y584500D01*
X391000Y575000D02*
X391000Y560500D01*
X390000Y561500D02*
X372000Y561500D01*
X390000Y561500D02*
X391000Y560500D01*
X372000Y561500D02*
X372000Y593000D01*
X356000Y593000D01*
X353500Y595500D02*
X353500Y615000D01*
X353500Y628000D01*
X353500Y595500D02*
X356000Y593000D01*
X157500Y215500D02*
X148000Y215500D01*
X157500Y215500D02*
X159000Y214000D01*
X159000Y160000D01*
D32*
X159000Y160000D03*
X265000Y730000D03*
D33*
X213476Y745400D02*
X211600Y745400D01*
X213476Y745400D02*
X226160Y732716D01*
X262284Y732716D02*
X265000Y730000D01*
X262284Y732716D02*
X226160Y732716D01*
D32*
X353500Y615000D03*
D29*
X301000Y160000D02*
X159000Y160000D01*
X300000Y161000D02*
X301000Y160000D01*
X300000Y161000D02*
X300000Y170000D01*
D32*
X391000Y575000D03*
D29*
X372000Y542500D02*
X372000Y504000D01*
X372000Y542500D02*
X372000Y544000D01*
X372000Y542500D02*
X375000Y545500D01*
X373000Y543500D02*
X391000Y543500D01*
X373000Y543500D02*
X372000Y542500D01*
X364000Y453000D02*
X364000Y424000D01*
X364000Y453000D02*
X364000Y464000D01*
X364000Y424000D02*
X364000Y385000D01*
X363000Y423000D02*
X364000Y424000D01*
X336000Y423000D02*
X334000Y423000D01*
X336000Y423000D02*
X336000Y442000D01*
X345000Y453000D02*
X364000Y453000D01*
X345000Y453000D02*
X345000Y442000D01*
X336000Y442000D01*
D30*
X198000Y202780D02*
X186000Y202780D01*
X176000Y202780D01*
X186000Y202780D02*
X186000Y190000D01*
X187000Y189000D01*
D32*
X187000Y189000D03*
X195000Y189000D03*
X203000Y189000D03*
D30*
X187000Y189000D01*
X364000Y464000D02*
X384000Y484000D01*
X395000Y484000D01*
D31*
X334000Y423000D02*
X334000Y415000D01*
X337000Y412000D01*
D32*
X337000Y412000D03*
X337000Y403000D03*
X337000Y395000D03*
D31*
X337000Y412000D01*
X290630Y448000D02*
X269000Y448000D01*
D32*
X290630Y448000D03*
X280630Y448000D03*
D29*
X352000Y554000D02*
X352000Y560000D01*
X352000Y554000D02*
X350000Y552000D01*
D32*
X352000Y560000D03*
X261000Y626000D03*
D29*
X261000Y634500D01*
D36*
X40000Y490000D03*
X60000Y490000D03*
X60000Y470000D03*
X40000Y470000D03*
X40000Y450000D03*
X60000Y450000D03*
X80000Y450000D03*
X80000Y470000D03*
X80000Y490000D03*
X100000Y490000D03*
X100000Y470000D03*
X100000Y450000D03*
X120000Y450000D03*
X120000Y470000D03*
X120000Y490000D03*
X140000Y490000D03*
X140000Y470000D03*
X140000Y450000D03*
X160000Y450000D03*
X160000Y470000D03*
X160000Y490000D03*
X180000Y490000D03*
X200000Y490000D03*
X200000Y470000D03*
X180000Y470000D03*
X180000Y450000D03*
X200000Y450000D03*
X200000Y430000D03*
X180000Y430000D03*
X160000Y430000D03*
X140000Y430000D03*
X120000Y430000D03*
X100000Y430000D03*
X80000Y430000D03*
X60000Y430000D03*
X40000Y430000D03*
X40000Y410000D03*
X60000Y410000D03*
X80000Y410000D03*
X100000Y410000D03*
X120000Y410000D03*
X140000Y410000D03*
X160000Y410000D03*
X180000Y410000D03*
X200000Y410000D03*
X200000Y390000D03*
X180000Y390000D03*
X160000Y390000D03*
X140000Y390000D03*
X120000Y390000D03*
X100000Y390000D03*
X80000Y390000D03*
X60000Y390000D03*
X40000Y390000D03*
X20000Y390000D03*
X20000Y410000D03*
X20000Y430000D03*
X20000Y450000D03*
X20000Y470000D03*
X20000Y490000D03*
X200000Y370000D03*
X180000Y370000D03*
X160000Y370000D03*
X140000Y370000D03*
X120000Y370000D03*
X100000Y370000D03*
X80000Y370000D03*
X60000Y370000D03*
X40000Y370000D03*
X20000Y370000D03*
X20000Y350000D03*
X20000Y330000D03*
X20000Y310000D03*
X40000Y310000D03*
X60000Y310000D03*
X80000Y310000D03*
X100000Y310000D03*
X120000Y310000D03*
X140000Y310000D03*
X160000Y310000D03*
X180000Y310000D03*
X200000Y310000D03*
X200000Y330000D03*
X200000Y350000D03*
X180000Y350000D03*
X180000Y330000D03*
X160000Y330000D03*
X160000Y350000D03*
X140000Y350000D03*
X140000Y330000D03*
X120000Y330000D03*
X120000Y350000D03*
X100000Y350000D03*
X100000Y330000D03*
X80000Y330000D03*
X80000Y350000D03*
X60000Y350000D03*
X60000Y330000D03*
X40000Y330000D03*
X40000Y350000D03*
X220000Y490000D03*
X240000Y490000D03*
X240000Y470000D03*
X220000Y470000D03*
X220000Y450000D03*
X240000Y450000D03*
X240000Y430000D03*
X220000Y430000D03*
X220000Y410000D03*
X220000Y390000D03*
X220000Y370000D03*
X220000Y350000D03*
X220000Y330000D03*
X220000Y310000D03*
D32*
X156000Y267000D03*
X25000Y267000D03*
D30*
X276500Y404000D02*
X276500Y422000D01*
X277500Y423000D01*
X246000Y404000D02*
X246000Y290000D01*
X246000Y404000D02*
X256000Y404000D01*
X276500Y404000D01*
X256000Y404000D02*
X256000Y526000D01*
X79000Y266220D02*
X57000Y266220D01*
X156000Y267000D02*
X166996Y267000D01*
X79000Y266220D02*
X25780Y266220D01*
X25000Y267000D01*
X166996Y267000D02*
X170000Y270004D01*
X170000Y290000D01*
X246000Y290000D01*
X156000Y280220D02*
X156000Y267000D01*
X156000Y280220D02*
X152220Y284000D01*
X25000Y265440D02*
X25000Y257220D01*
X25000Y265440D02*
X25780Y266220D01*
X256000Y531780D02*
X252000Y535780D01*
X256000Y531780D02*
X256000Y526000D01*
X130000Y526000D01*
X130000Y535780D01*
X245780Y564220D02*
X252000Y564220D01*
X245780Y564220D02*
X240000Y570000D01*
D32*
X240000Y570000D03*
D30*
X247780Y560000D02*
X252000Y564220D01*
X247780Y560000D02*
X240000Y560000D01*
D32*
X240000Y560000D03*
D30*
X25000Y228780D02*
X28780Y225000D01*
X35000Y225000D01*
D32*
X35000Y225000D03*
D30*
X25000Y228780D02*
X31220Y235000D01*
X35000Y235000D01*
D32*
X35000Y235000D03*
D30*
X236000Y230000D02*
X236000Y215505D01*
D32*
X236000Y230000D03*
D30*
X130000Y564220D02*
X114220Y564220D01*
X110000Y560000D01*
D32*
X110000Y560000D03*
D30*
X115780Y564220D02*
X130000Y564220D01*
X115780Y564220D02*
X110000Y570000D01*
D32*
X110000Y570000D03*
X190000Y255000D03*
D30*
X147797Y254606D02*
X123780Y278623D01*
X123780Y284000D01*
X174884Y254606D02*
X175278Y255000D01*
X180000Y255000D01*
X190000Y255000D01*
X174884Y254606D02*
X147797Y254606D01*
D32*
X180000Y255000D03*
D29*
X187000Y231220D02*
X198000Y231220D01*
X187000Y231220D02*
X176000Y231220D01*
X187000Y243000D02*
X152000Y243000D01*
X187000Y243000D02*
X187000Y231220D01*
X333500Y362000D02*
X334500Y363000D01*
X333500Y362000D02*
X333500Y344000D01*
X107000Y207000D02*
X102000Y202000D01*
X102000Y184000D01*
D32*
X102000Y184000D03*
D35*
X333500Y331830D02*
X333500Y344000D01*
X272000Y331000D02*
X272000Y207000D01*
X271000Y206000D01*
D32*
X271000Y206000D03*
D35*
X272830Y331830D02*
X333500Y331830D01*
X272830Y331830D02*
X272000Y331000D01*
D37*
X251500Y106000D02*
X230000Y106000D01*
D33*
X67704Y753000D02*
X61000Y753000D01*
X67704Y753000D02*
X70000Y755296D01*
D32*
X70000Y755296D03*
X371306Y620000D03*
D33*
X370500Y620806D01*
X370500Y628000D01*
D37*
X251500Y135000D02*
X230000Y135000D01*
D30*
X286000Y363000D02*
X286000Y382000D01*
X286000Y363000D02*
X285000Y362000D01*
D29*
X325500Y463000D02*
X326500Y464000D01*
X325500Y463000D02*
X308000Y463000D01*
X306000Y461000D01*
X306000Y382000D02*
X286000Y382000D01*
X306000Y382000D02*
X306000Y461000D01*
X373500Y442000D02*
X373500Y402000D01*
X373500Y385000D01*
X373500Y363000D01*
X373500Y345000D02*
X374500Y344000D01*
X373500Y345000D02*
X373500Y363000D01*
X347000Y385000D02*
X325000Y385000D01*
D32*
X347000Y385000D03*
X379000Y385000D03*
D29*
X373500Y385000D01*
X79000Y237780D02*
X57000Y237780D01*
X48000Y207000D02*
X43000Y207000D01*
X50000Y237780D02*
X55000Y237780D01*
X57000Y237780D01*
D30*
X55000Y237780D02*
X79000Y237780D01*
X57000Y237780D02*
X48000Y228780D01*
X48000Y207000D01*
D34*
X284000Y679500D02*
X281000Y682500D01*
D32*
X361000Y652000D03*
D33*
X283500Y682500D02*
X281000Y682500D01*
X283500Y682500D02*
X306000Y660000D01*
X347000Y660000D01*
X355000Y652000D02*
X361000Y652000D01*
X355000Y652000D02*
X347000Y660000D01*
D34*
X353000Y325500D02*
X357000Y321500D01*
X392500Y321500D01*
X397500Y316500D01*
X392500Y311500D02*
X392000Y311000D01*
X392500Y311500D02*
X397500Y316500D01*
X395000Y311500D02*
X392500Y311500D01*
D32*
X392000Y311000D03*
D30*
X236000Y262495D02*
X231495Y267000D01*
X199004Y267000D01*
D35*
X362000Y165760D02*
X373240Y165760D01*
X384000Y155000D01*
X375202Y196240D02*
X362000Y196240D01*
X375202Y196240D02*
X384000Y205038D01*
M02*
