G04 EAGLE Gerber RS-274X export*
G75*
%MOMM*%
%FSLAX34Y34*%
%LPD*%
%INTop Copper*%
%IPPOS*%
%AMOC8*
5,1,8,0,0,1.08239X$1,22.5*%
G01*
%ADD10C,1.508000*%
%ADD11C,2.760000*%
%ADD12R,2.082800X3.810000*%
%ADD13R,11.430000X8.890000*%
%ADD14C,1.320800*%
%ADD15C,1.879600*%
%ADD16R,1.600000X2.300000*%
%ADD17C,0.756400*%
%ADD18C,0.812800*%
%ADD19C,0.200000*%
%ADD20C,0.152400*%
%ADD21C,0.406400*%
%ADD22C,0.656400*%

G36*
X199422Y10929D02*
X199422Y10929D01*
X199447Y10926D01*
X199505Y10948D01*
X199565Y10962D01*
X199585Y10979D01*
X199609Y10988D01*
X199651Y11033D01*
X199699Y11072D01*
X199709Y11096D01*
X199727Y11115D01*
X199744Y11174D01*
X199770Y11231D01*
X199769Y11256D01*
X199776Y11281D01*
X199765Y11342D01*
X199763Y11404D01*
X199751Y11426D01*
X199746Y11452D01*
X199698Y11523D01*
X199680Y11556D01*
X199672Y11562D01*
X199665Y11572D01*
X199393Y11844D01*
X197201Y17136D01*
X197201Y22864D01*
X199393Y28156D01*
X200269Y29032D01*
X200309Y29096D01*
X200353Y29158D01*
X200355Y29170D01*
X200360Y29179D01*
X200364Y29216D01*
X200380Y29301D01*
X200380Y36099D01*
X200363Y36173D01*
X200350Y36248D01*
X200343Y36258D01*
X200341Y36268D01*
X200317Y36297D01*
X200269Y36368D01*
X199393Y37244D01*
X197201Y42536D01*
X197201Y48264D01*
X199393Y53556D01*
X200269Y54432D01*
X200309Y54496D01*
X200353Y54558D01*
X200355Y54570D01*
X200360Y54579D01*
X200364Y54616D01*
X200380Y54701D01*
X200380Y89843D01*
X256106Y145568D01*
X256146Y145633D01*
X256190Y145695D01*
X256192Y145707D01*
X256197Y145715D01*
X256201Y145752D01*
X256217Y145837D01*
X256217Y146747D01*
X257554Y149975D01*
X260025Y152446D01*
X263253Y153783D01*
X264163Y153783D01*
X264237Y153800D01*
X264312Y153813D01*
X264322Y153820D01*
X264332Y153822D01*
X264361Y153846D01*
X264432Y153894D01*
X270269Y159731D01*
X270278Y159746D01*
X270283Y159750D01*
X270289Y159764D01*
X270309Y159796D01*
X270353Y159858D01*
X270355Y159870D01*
X270360Y159878D01*
X270364Y159915D01*
X270380Y160000D01*
X270380Y160739D01*
X270371Y160776D01*
X270373Y160815D01*
X270352Y160860D01*
X270341Y160908D01*
X270316Y160937D01*
X270300Y160972D01*
X270262Y161003D01*
X270231Y161041D01*
X270195Y161057D01*
X270166Y161081D01*
X270118Y161092D01*
X270072Y161112D01*
X270034Y161111D01*
X269996Y161119D01*
X269937Y161107D01*
X269899Y161106D01*
X269881Y161096D01*
X269854Y161090D01*
X267747Y160217D01*
X264253Y160217D01*
X261025Y161554D01*
X258554Y164025D01*
X257581Y166375D01*
X257537Y166437D01*
X257496Y166501D01*
X257486Y166508D01*
X257480Y166516D01*
X257447Y166533D01*
X257375Y166581D01*
X255025Y167554D01*
X252554Y170025D01*
X251217Y173253D01*
X251217Y176747D01*
X252179Y179068D01*
X252189Y179131D01*
X252207Y179192D01*
X252203Y179216D01*
X252207Y179239D01*
X252188Y179300D01*
X252178Y179363D01*
X252162Y179385D01*
X252156Y179405D01*
X252130Y179433D01*
X252096Y179483D01*
X251554Y180025D01*
X250217Y183253D01*
X250217Y186747D01*
X251554Y189975D01*
X254025Y192446D01*
X257253Y193783D01*
X260747Y193783D01*
X263975Y192446D01*
X266446Y189975D01*
X267783Y186747D01*
X267783Y183253D01*
X266821Y180932D01*
X266811Y180869D01*
X266793Y180808D01*
X266797Y180784D01*
X266793Y180761D01*
X266812Y180700D01*
X266822Y180637D01*
X266838Y180615D01*
X266844Y180595D01*
X266870Y180567D01*
X266904Y180517D01*
X267446Y179975D01*
X268419Y177625D01*
X268463Y177563D01*
X268504Y177499D01*
X268514Y177492D01*
X268520Y177484D01*
X268553Y177467D01*
X268625Y177419D01*
X269855Y176910D01*
X269892Y176904D01*
X269928Y176888D01*
X269977Y176890D01*
X270025Y176882D01*
X270062Y176893D01*
X270101Y176894D01*
X270144Y176918D01*
X270191Y176932D01*
X270219Y176959D01*
X270253Y176977D01*
X270281Y177017D01*
X270317Y177051D01*
X270331Y177087D01*
X270353Y177119D01*
X270364Y177178D01*
X270377Y177214D01*
X270375Y177235D01*
X270380Y177261D01*
X270380Y196837D01*
X270369Y196887D01*
X270367Y196938D01*
X270349Y196970D01*
X270341Y197006D01*
X270308Y197045D01*
X270284Y197090D01*
X270254Y197111D01*
X270231Y197139D01*
X270184Y197160D01*
X270142Y197190D01*
X270100Y197198D01*
X270072Y197210D01*
X270042Y197209D01*
X270000Y197217D01*
X269253Y197217D01*
X266025Y198554D01*
X263554Y201025D01*
X262217Y204253D01*
X262217Y207747D01*
X263554Y210975D01*
X266025Y213446D01*
X269253Y214783D01*
X270000Y214783D01*
X270050Y214794D01*
X270101Y214796D01*
X270133Y214814D01*
X270169Y214822D01*
X270208Y214855D01*
X270253Y214879D01*
X270274Y214909D01*
X270302Y214932D01*
X270323Y214979D01*
X270353Y215021D01*
X270361Y215063D01*
X270373Y215091D01*
X270372Y215121D01*
X270380Y215163D01*
X270380Y290000D01*
X270369Y290050D01*
X270367Y290101D01*
X270349Y290133D01*
X270341Y290169D01*
X270308Y290208D01*
X270284Y290253D01*
X270254Y290274D01*
X270231Y290302D01*
X270184Y290323D01*
X270142Y290353D01*
X270100Y290361D01*
X270072Y290373D01*
X270042Y290372D01*
X270000Y290380D01*
X11303Y290380D01*
X11253Y290369D01*
X11202Y290367D01*
X11170Y290349D01*
X11134Y290341D01*
X11095Y290308D01*
X11050Y290284D01*
X11029Y290254D01*
X11001Y290231D01*
X10980Y290184D01*
X10950Y290142D01*
X10942Y290100D01*
X10930Y290072D01*
X10931Y290042D01*
X10923Y290000D01*
X10923Y204972D01*
X10932Y204935D01*
X10930Y204896D01*
X10951Y204852D01*
X10962Y204804D01*
X10987Y204774D01*
X11003Y204739D01*
X11041Y204708D01*
X11072Y204670D01*
X11108Y204654D01*
X11137Y204630D01*
X11185Y204619D01*
X11231Y204599D01*
X11269Y204601D01*
X11307Y204592D01*
X11366Y204604D01*
X11404Y204606D01*
X11422Y204616D01*
X11449Y204621D01*
X14253Y205783D01*
X17747Y205783D01*
X20975Y204446D01*
X23446Y201975D01*
X24783Y198747D01*
X24783Y195253D01*
X23446Y192025D01*
X20975Y189554D01*
X17747Y188217D01*
X14253Y188217D01*
X11449Y189379D01*
X11411Y189385D01*
X11375Y189401D01*
X11326Y189399D01*
X11278Y189407D01*
X11241Y189396D01*
X11202Y189394D01*
X11159Y189371D01*
X11112Y189356D01*
X11084Y189330D01*
X11050Y189312D01*
X11022Y189271D01*
X10986Y189237D01*
X10973Y189201D01*
X10950Y189170D01*
X10939Y189110D01*
X10926Y189075D01*
X10928Y189054D01*
X10923Y189028D01*
X10923Y45107D01*
X10931Y45070D01*
X10930Y45032D01*
X10951Y44987D01*
X10962Y44938D01*
X10986Y44909D01*
X11002Y44875D01*
X11041Y44843D01*
X11072Y44805D01*
X11107Y44789D01*
X11136Y44765D01*
X11185Y44754D01*
X11231Y44734D01*
X11268Y44735D01*
X11305Y44727D01*
X11354Y44738D01*
X11404Y44740D01*
X11437Y44758D01*
X11474Y44767D01*
X11512Y44799D01*
X11556Y44823D01*
X11578Y44854D01*
X11607Y44878D01*
X11634Y44934D01*
X11656Y44965D01*
X11660Y44988D01*
X11670Y45009D01*
X13292Y51063D01*
X17066Y57598D01*
X22402Y62934D01*
X28937Y66708D01*
X36227Y68661D01*
X43773Y68661D01*
X51063Y66708D01*
X57598Y62934D01*
X62934Y57598D01*
X66708Y51063D01*
X68661Y43773D01*
X68661Y36227D01*
X66708Y28937D01*
X62934Y22402D01*
X57598Y17066D01*
X51063Y13292D01*
X45009Y11670D01*
X44975Y11652D01*
X44938Y11644D01*
X44900Y11612D01*
X44856Y11588D01*
X44834Y11558D01*
X44805Y11534D01*
X44784Y11488D01*
X44755Y11447D01*
X44749Y11410D01*
X44734Y11375D01*
X44736Y11326D01*
X44728Y11276D01*
X44739Y11240D01*
X44740Y11202D01*
X44764Y11158D01*
X44779Y11111D01*
X44805Y11083D01*
X44823Y11050D01*
X44864Y11021D01*
X44898Y10985D01*
X44934Y10972D01*
X44965Y10950D01*
X45025Y10939D01*
X45061Y10926D01*
X45084Y10927D01*
X45107Y10923D01*
X199396Y10923D01*
X199422Y10929D01*
G37*
G36*
X270050Y299631D02*
X270050Y299631D01*
X270101Y299633D01*
X270133Y299651D01*
X270169Y299659D01*
X270208Y299692D01*
X270253Y299716D01*
X270274Y299746D01*
X270302Y299769D01*
X270323Y299816D01*
X270353Y299858D01*
X270361Y299900D01*
X270373Y299928D01*
X270372Y299958D01*
X270380Y300000D01*
X270380Y500000D01*
X270369Y500050D01*
X270367Y500101D01*
X270349Y500133D01*
X270341Y500169D01*
X270308Y500208D01*
X270284Y500253D01*
X270254Y500274D01*
X270231Y500302D01*
X270184Y500323D01*
X270142Y500353D01*
X270100Y500361D01*
X270072Y500373D01*
X270042Y500372D01*
X270000Y500380D01*
X11303Y500380D01*
X11253Y500369D01*
X11202Y500367D01*
X11170Y500349D01*
X11134Y500341D01*
X11095Y500308D01*
X11050Y500284D01*
X11029Y500254D01*
X11001Y500231D01*
X10980Y500184D01*
X10950Y500142D01*
X10942Y500100D01*
X10930Y500072D01*
X10931Y500042D01*
X10923Y500000D01*
X10923Y300000D01*
X10934Y299950D01*
X10936Y299899D01*
X10954Y299867D01*
X10962Y299831D01*
X10995Y299792D01*
X11019Y299747D01*
X11049Y299726D01*
X11072Y299698D01*
X11119Y299677D01*
X11161Y299647D01*
X11203Y299639D01*
X11231Y299627D01*
X11261Y299628D01*
X11303Y299620D01*
X270000Y299620D01*
X270050Y299631D01*
G37*
G36*
X260050Y509631D02*
X260050Y509631D01*
X260101Y509633D01*
X260133Y509651D01*
X260169Y509659D01*
X260208Y509692D01*
X260253Y509716D01*
X260274Y509746D01*
X260302Y509769D01*
X260323Y509816D01*
X260353Y509858D01*
X260361Y509900D01*
X260373Y509928D01*
X260372Y509958D01*
X260380Y510000D01*
X260380Y616837D01*
X260369Y616887D01*
X260367Y616938D01*
X260349Y616970D01*
X260341Y617006D01*
X260308Y617045D01*
X260284Y617090D01*
X260254Y617111D01*
X260231Y617139D01*
X260184Y617160D01*
X260142Y617190D01*
X260100Y617198D01*
X260072Y617210D01*
X260042Y617209D01*
X260000Y617217D01*
X259253Y617217D01*
X256025Y618554D01*
X254310Y620269D01*
X254246Y620309D01*
X254184Y620353D01*
X254172Y620355D01*
X254163Y620360D01*
X254126Y620364D01*
X254042Y620380D01*
X11303Y620380D01*
X11253Y620369D01*
X11202Y620367D01*
X11170Y620349D01*
X11134Y620341D01*
X11095Y620308D01*
X11050Y620284D01*
X11029Y620254D01*
X11001Y620231D01*
X10980Y620184D01*
X10950Y620142D01*
X10942Y620100D01*
X10930Y620072D01*
X10931Y620042D01*
X10923Y620000D01*
X10923Y510000D01*
X10934Y509950D01*
X10936Y509899D01*
X10954Y509867D01*
X10962Y509831D01*
X10995Y509792D01*
X11019Y509747D01*
X11049Y509726D01*
X11072Y509698D01*
X11119Y509677D01*
X11161Y509647D01*
X11203Y509639D01*
X11231Y509627D01*
X11261Y509628D01*
X11303Y509620D01*
X260000Y509620D01*
X260050Y509631D01*
G37*
G36*
X275825Y455533D02*
X275825Y455533D01*
X275863Y455535D01*
X275881Y455545D01*
X275907Y455550D01*
X278883Y456783D01*
X282377Y456783D01*
X285092Y455658D01*
X285130Y455652D01*
X285166Y455636D01*
X285215Y455638D01*
X285263Y455630D01*
X285300Y455641D01*
X285339Y455643D01*
X285382Y455666D01*
X285429Y455681D01*
X285457Y455707D01*
X285491Y455725D01*
X285519Y455766D01*
X285555Y455799D01*
X285568Y455836D01*
X285591Y455867D01*
X285602Y455927D01*
X285615Y455962D01*
X285613Y455983D01*
X285618Y456009D01*
X285618Y459229D01*
X294529Y468140D01*
X294549Y468173D01*
X294577Y468199D01*
X294595Y468246D01*
X294621Y468287D01*
X294624Y468326D01*
X294638Y468362D01*
X294632Y468411D01*
X294637Y468460D01*
X294623Y468496D01*
X294619Y468534D01*
X294593Y468576D01*
X294576Y468622D01*
X294547Y468648D01*
X294527Y468680D01*
X294476Y468714D01*
X294448Y468739D01*
X294428Y468745D01*
X294406Y468760D01*
X288850Y471062D01*
X283562Y476350D01*
X280699Y483260D01*
X280699Y490740D01*
X283562Y497650D01*
X288850Y502938D01*
X295760Y505801D01*
X303240Y505801D01*
X307892Y503874D01*
X307955Y503863D01*
X308016Y503845D01*
X308039Y503849D01*
X308063Y503846D01*
X308124Y503864D01*
X308186Y503875D01*
X308209Y503890D01*
X308229Y503896D01*
X308256Y503922D01*
X308306Y503956D01*
X309126Y504776D01*
X309166Y504840D01*
X309210Y504902D01*
X309212Y504914D01*
X309217Y504923D01*
X309221Y504960D01*
X309237Y505045D01*
X309237Y563146D01*
X310115Y565264D01*
X313507Y568657D01*
X313547Y568721D01*
X313591Y568783D01*
X313593Y568795D01*
X313598Y568804D01*
X313602Y568841D01*
X313618Y568926D01*
X313618Y593837D01*
X313607Y593887D01*
X313605Y593938D01*
X313587Y593970D01*
X313579Y594006D01*
X313546Y594045D01*
X313522Y594090D01*
X313492Y594111D01*
X313469Y594139D01*
X313422Y594160D01*
X313380Y594190D01*
X313338Y594198D01*
X313310Y594210D01*
X313280Y594209D01*
X313266Y594212D01*
X310025Y595554D01*
X307554Y598025D01*
X306217Y601253D01*
X306217Y604747D01*
X307554Y607975D01*
X310025Y610446D01*
X313272Y611791D01*
X313288Y611794D01*
X313339Y611796D01*
X313371Y611814D01*
X313407Y611822D01*
X313446Y611855D01*
X313491Y611879D01*
X313512Y611909D01*
X313540Y611932D01*
X313561Y611979D01*
X313591Y612021D01*
X313599Y612063D01*
X313611Y612091D01*
X313610Y612121D01*
X313618Y612163D01*
X313618Y661238D01*
X313607Y661288D01*
X313605Y661339D01*
X313587Y661371D01*
X313579Y661407D01*
X313546Y661446D01*
X313522Y661491D01*
X313492Y661512D01*
X313469Y661540D01*
X313422Y661561D01*
X313380Y661591D01*
X313338Y661599D01*
X313310Y661611D01*
X313280Y661610D01*
X313238Y661618D01*
X279991Y661618D01*
X279953Y661609D01*
X279915Y661611D01*
X279870Y661590D01*
X279822Y661579D01*
X279792Y661554D01*
X279758Y661538D01*
X279727Y661500D01*
X279689Y661469D01*
X279673Y661433D01*
X279649Y661404D01*
X279638Y661356D01*
X279618Y661310D01*
X279619Y661272D01*
X279611Y661234D01*
X279623Y661175D01*
X279624Y661137D01*
X279634Y661119D01*
X279640Y661092D01*
X279783Y660747D01*
X279783Y657253D01*
X278446Y654025D01*
X275975Y651554D01*
X272747Y650217D01*
X269253Y650217D01*
X266025Y651554D01*
X263554Y654025D01*
X262217Y657253D01*
X262217Y660747D01*
X262360Y661092D01*
X262367Y661130D01*
X262382Y661166D01*
X262380Y661215D01*
X262388Y661263D01*
X262377Y661300D01*
X262376Y661339D01*
X262352Y661382D01*
X262338Y661429D01*
X262311Y661457D01*
X262293Y661491D01*
X262253Y661519D01*
X262219Y661555D01*
X262183Y661568D01*
X262151Y661591D01*
X262092Y661602D01*
X262056Y661615D01*
X262036Y661613D01*
X262009Y661618D01*
X228771Y661618D01*
X225618Y664771D01*
X225618Y683857D01*
X225607Y683907D01*
X225605Y683958D01*
X225587Y683990D01*
X225579Y684026D01*
X225546Y684065D01*
X225522Y684110D01*
X225492Y684131D01*
X225469Y684159D01*
X225422Y684180D01*
X225380Y684210D01*
X225338Y684218D01*
X225310Y684230D01*
X225280Y684229D01*
X225238Y684237D01*
X78854Y684237D01*
X76736Y685115D01*
X65115Y696736D01*
X64237Y698854D01*
X64237Y748481D01*
X64220Y748555D01*
X64207Y748629D01*
X64200Y748639D01*
X64198Y748649D01*
X64174Y748678D01*
X64126Y748749D01*
X62554Y750321D01*
X61217Y753549D01*
X61217Y757043D01*
X61842Y758551D01*
X61848Y758589D01*
X61864Y758625D01*
X61862Y758674D01*
X61870Y758722D01*
X61859Y758759D01*
X61858Y758798D01*
X61834Y758841D01*
X61820Y758888D01*
X61793Y758916D01*
X61775Y758950D01*
X61734Y758978D01*
X61701Y759014D01*
X61665Y759027D01*
X61633Y759050D01*
X61573Y759061D01*
X61538Y759074D01*
X61517Y759072D01*
X61491Y759077D01*
X20000Y759077D01*
X19987Y759074D01*
X19970Y759076D01*
X18610Y758969D01*
X18576Y758958D01*
X18522Y758952D01*
X15934Y758111D01*
X15901Y758091D01*
X15871Y758077D01*
X15862Y758075D01*
X15856Y758070D01*
X15828Y758057D01*
X13627Y756457D01*
X13602Y756428D01*
X13543Y756373D01*
X11943Y754172D01*
X11928Y754136D01*
X11889Y754066D01*
X11048Y751478D01*
X11045Y751442D01*
X11031Y751390D01*
X10924Y750030D01*
X10926Y750017D01*
X10923Y750000D01*
X10923Y625762D01*
X10934Y625712D01*
X10936Y625661D01*
X10954Y625629D01*
X10962Y625593D01*
X10995Y625554D01*
X11019Y625509D01*
X11049Y625488D01*
X11072Y625460D01*
X11119Y625439D01*
X11161Y625409D01*
X11203Y625401D01*
X11231Y625389D01*
X11261Y625390D01*
X11303Y625382D01*
X251837Y625382D01*
X251887Y625393D01*
X251938Y625395D01*
X251970Y625413D01*
X252006Y625421D01*
X252045Y625454D01*
X252090Y625478D01*
X252111Y625508D01*
X252139Y625531D01*
X252160Y625578D01*
X252190Y625620D01*
X252198Y625662D01*
X252210Y625690D01*
X252209Y625713D01*
X252210Y625715D01*
X252210Y625724D01*
X252217Y625762D01*
X252217Y627747D01*
X253554Y630975D01*
X256025Y633446D01*
X259253Y634783D01*
X262747Y634783D01*
X265975Y633446D01*
X268446Y630975D01*
X269783Y627747D01*
X269783Y624253D01*
X268446Y621025D01*
X265975Y618554D01*
X265616Y618406D01*
X265565Y618369D01*
X265509Y618338D01*
X265495Y618319D01*
X265476Y618305D01*
X265446Y618249D01*
X265409Y618197D01*
X265404Y618170D01*
X265394Y618152D01*
X265393Y618114D01*
X265382Y618055D01*
X265382Y616143D01*
X265393Y616093D01*
X265395Y616042D01*
X265413Y616010D01*
X265421Y615974D01*
X265454Y615935D01*
X265478Y615890D01*
X265508Y615869D01*
X265531Y615841D01*
X265578Y615820D01*
X265620Y615790D01*
X265662Y615782D01*
X265690Y615770D01*
X265720Y615771D01*
X265762Y615763D01*
X284185Y615763D01*
X284259Y615780D01*
X284333Y615793D01*
X284343Y615800D01*
X284353Y615802D01*
X284382Y615826D01*
X284453Y615874D01*
X286525Y617946D01*
X289753Y619283D01*
X293247Y619283D01*
X296475Y617946D01*
X298946Y615475D01*
X300283Y612247D01*
X300283Y608753D01*
X298946Y605525D01*
X296475Y603054D01*
X293247Y601717D01*
X289753Y601717D01*
X286525Y603054D01*
X285453Y604126D01*
X285389Y604166D01*
X285327Y604210D01*
X285315Y604212D01*
X285306Y604217D01*
X285269Y604221D01*
X285185Y604237D01*
X265762Y604237D01*
X265712Y604226D01*
X265661Y604224D01*
X265629Y604206D01*
X265593Y604198D01*
X265554Y604165D01*
X265509Y604141D01*
X265488Y604111D01*
X265460Y604088D01*
X265439Y604041D01*
X265409Y603999D01*
X265401Y603957D01*
X265389Y603929D01*
X265390Y603899D01*
X265382Y603857D01*
X265382Y507771D01*
X263642Y506031D01*
X263628Y506009D01*
X263608Y505993D01*
X263583Y505936D01*
X263550Y505884D01*
X263548Y505858D01*
X263537Y505834D01*
X263540Y505773D01*
X263534Y505711D01*
X263543Y505687D01*
X263544Y505661D01*
X263573Y505607D01*
X263595Y505549D01*
X263614Y505532D01*
X263627Y505509D01*
X263677Y505474D01*
X263723Y505432D01*
X263747Y505424D01*
X263768Y505409D01*
X263853Y505393D01*
X263889Y505382D01*
X263899Y505384D01*
X263911Y505382D01*
X272229Y505382D01*
X275382Y502229D01*
X275382Y455902D01*
X275391Y455864D01*
X275389Y455826D01*
X275410Y455781D01*
X275421Y455733D01*
X275446Y455703D01*
X275462Y455668D01*
X275500Y455637D01*
X275531Y455599D01*
X275567Y455583D01*
X275596Y455559D01*
X275644Y455548D01*
X275690Y455528D01*
X275728Y455530D01*
X275766Y455521D01*
X275825Y455533D01*
G37*
G36*
X276147Y36620D02*
X276147Y36620D01*
X276149Y36620D01*
X276291Y36649D01*
X276658Y36801D01*
X283342Y36801D01*
X283709Y36649D01*
X283711Y36648D01*
X283712Y36647D01*
X283854Y36620D01*
X336146Y36620D01*
X336147Y36620D01*
X336149Y36620D01*
X336291Y36649D01*
X336658Y36801D01*
X343342Y36801D01*
X343709Y36649D01*
X343711Y36648D01*
X343712Y36647D01*
X343854Y36620D01*
X408697Y36620D01*
X408747Y36631D01*
X408798Y36633D01*
X408830Y36651D01*
X408866Y36659D01*
X408905Y36692D01*
X408950Y36716D01*
X408971Y36746D01*
X408999Y36769D01*
X409020Y36816D01*
X409050Y36858D01*
X409058Y36900D01*
X409070Y36928D01*
X409069Y36958D01*
X409077Y37000D01*
X409077Y233000D01*
X409066Y233050D01*
X409064Y233101D01*
X409046Y233133D01*
X409038Y233169D01*
X409005Y233208D01*
X408981Y233253D01*
X408951Y233274D01*
X408928Y233302D01*
X408881Y233323D01*
X408839Y233353D01*
X408797Y233361D01*
X408769Y233373D01*
X408739Y233372D01*
X408697Y233380D01*
X386158Y233380D01*
X384380Y235158D01*
X384380Y235219D01*
X384363Y235293D01*
X384350Y235367D01*
X384343Y235378D01*
X384341Y235387D01*
X384317Y235416D01*
X384269Y235487D01*
X383999Y235757D01*
X383999Y261243D01*
X384269Y261513D01*
X384309Y261577D01*
X384353Y261639D01*
X384355Y261651D01*
X384360Y261660D01*
X384364Y261697D01*
X384380Y261781D01*
X384380Y298219D01*
X384363Y298293D01*
X384350Y298367D01*
X384343Y298378D01*
X384341Y298387D01*
X384317Y298416D01*
X384269Y298487D01*
X383999Y298757D01*
X383999Y308000D01*
X383988Y308050D01*
X383986Y308101D01*
X383968Y308133D01*
X383960Y308169D01*
X383927Y308208D01*
X383903Y308253D01*
X383873Y308274D01*
X383850Y308302D01*
X383803Y308323D01*
X383761Y308353D01*
X383719Y308361D01*
X383691Y308373D01*
X383661Y308372D01*
X383619Y308380D01*
X348000Y308380D01*
X347950Y308369D01*
X347899Y308367D01*
X347867Y308349D01*
X347831Y308341D01*
X347792Y308308D01*
X347747Y308284D01*
X347726Y308254D01*
X347698Y308231D01*
X347677Y308184D01*
X347647Y308142D01*
X347639Y308100D01*
X347627Y308072D01*
X347628Y308042D01*
X347620Y308000D01*
X347620Y100000D01*
X347631Y99950D01*
X347633Y99899D01*
X347651Y99867D01*
X347659Y99831D01*
X347692Y99792D01*
X347716Y99747D01*
X347746Y99726D01*
X347769Y99698D01*
X347816Y99677D01*
X347858Y99647D01*
X347900Y99639D01*
X347928Y99627D01*
X347958Y99628D01*
X348000Y99620D01*
X359620Y99620D01*
X359620Y58380D01*
X263000Y58380D01*
X262950Y58369D01*
X262899Y58367D01*
X262867Y58349D01*
X262831Y58341D01*
X262792Y58308D01*
X262747Y58284D01*
X262726Y58254D01*
X262698Y58231D01*
X262677Y58184D01*
X262647Y58142D01*
X262639Y58100D01*
X262627Y58072D01*
X262628Y58042D01*
X262620Y58000D01*
X262620Y37000D01*
X262631Y36950D01*
X262633Y36899D01*
X262651Y36867D01*
X262659Y36831D01*
X262692Y36792D01*
X262716Y36747D01*
X262746Y36726D01*
X262769Y36698D01*
X262816Y36677D01*
X262858Y36647D01*
X262900Y36639D01*
X262928Y36627D01*
X262958Y36628D01*
X263000Y36620D01*
X276146Y36620D01*
X276147Y36620D01*
G37*
G36*
X309050Y294631D02*
X309050Y294631D01*
X309101Y294633D01*
X309133Y294651D01*
X309169Y294659D01*
X309208Y294692D01*
X309253Y294716D01*
X309274Y294746D01*
X309302Y294769D01*
X309323Y294816D01*
X309353Y294858D01*
X309361Y294900D01*
X309373Y294928D01*
X309372Y294958D01*
X309380Y295000D01*
X309380Y309870D01*
X309367Y309928D01*
X309367Y309930D01*
X309366Y309932D01*
X309363Y309944D01*
X309350Y310019D01*
X309343Y310029D01*
X309341Y310039D01*
X309317Y310067D01*
X309269Y310139D01*
X308250Y311158D01*
X307217Y313651D01*
X307217Y316349D01*
X308250Y318842D01*
X309269Y319861D01*
X309309Y319926D01*
X309353Y319988D01*
X309355Y320000D01*
X309360Y320008D01*
X309364Y320045D01*
X309380Y320130D01*
X309380Y450843D01*
X311268Y452730D01*
X311308Y452795D01*
X311352Y452857D01*
X311354Y452869D01*
X311359Y452877D01*
X311363Y452914D01*
X311379Y452999D01*
X311379Y455399D01*
X331856Y475876D01*
X331896Y475941D01*
X331940Y476003D01*
X331942Y476015D01*
X331947Y476023D01*
X331951Y476060D01*
X331967Y476145D01*
X331967Y483283D01*
X331950Y483357D01*
X331937Y483432D01*
X331930Y483442D01*
X331928Y483452D01*
X331904Y483481D01*
X331856Y483552D01*
X331250Y484158D01*
X330217Y486651D01*
X330217Y489349D01*
X331250Y491842D01*
X333158Y493750D01*
X334146Y494159D01*
X334197Y494196D01*
X334253Y494227D01*
X334267Y494246D01*
X334286Y494260D01*
X334316Y494316D01*
X334353Y494368D01*
X334358Y494395D01*
X334368Y494413D01*
X334369Y494451D01*
X334380Y494511D01*
X334380Y511182D01*
X334380Y511183D01*
X334380Y511185D01*
X334351Y511327D01*
X334217Y511651D01*
X334217Y514349D01*
X334351Y514673D01*
X334352Y514675D01*
X334353Y514676D01*
X334380Y514818D01*
X334380Y547843D01*
X345106Y558568D01*
X345146Y558633D01*
X345190Y558695D01*
X345192Y558707D01*
X345197Y558715D01*
X345201Y558752D01*
X345217Y558837D01*
X345217Y561349D01*
X346250Y563842D01*
X348158Y565750D01*
X350146Y566573D01*
X350197Y566610D01*
X350253Y566641D01*
X350267Y566660D01*
X350286Y566674D01*
X350316Y566731D01*
X350353Y566782D01*
X350358Y566809D01*
X350368Y566827D01*
X350369Y566865D01*
X350380Y566925D01*
X350380Y608697D01*
X350366Y608758D01*
X350359Y608822D01*
X350346Y608842D01*
X350341Y608865D01*
X350300Y608914D01*
X350266Y608968D01*
X350244Y608983D01*
X350231Y608999D01*
X350196Y609014D01*
X350146Y609048D01*
X349658Y609250D01*
X347750Y611158D01*
X346717Y613651D01*
X346717Y616349D01*
X347750Y618842D01*
X349658Y620750D01*
X350146Y620952D01*
X350197Y620989D01*
X350253Y621019D01*
X350267Y621039D01*
X350286Y621053D01*
X350316Y621109D01*
X350353Y621161D01*
X350358Y621188D01*
X350368Y621206D01*
X350369Y621244D01*
X350380Y621303D01*
X350380Y643489D01*
X350371Y643527D01*
X350373Y643565D01*
X350352Y643610D01*
X350341Y643658D01*
X350316Y643688D01*
X350300Y643723D01*
X350262Y643754D01*
X350231Y643792D01*
X350195Y643808D01*
X350166Y643832D01*
X350118Y643843D01*
X350072Y643863D01*
X350034Y643861D01*
X349996Y643870D01*
X349937Y643858D01*
X349899Y643856D01*
X349881Y643846D01*
X349854Y643841D01*
X348349Y643217D01*
X345651Y643217D01*
X343158Y644250D01*
X341250Y646158D01*
X340217Y648651D01*
X340217Y651349D01*
X341250Y653842D01*
X343158Y655750D01*
X345651Y656783D01*
X348349Y656783D01*
X349854Y656159D01*
X349892Y656153D01*
X349928Y656137D01*
X349977Y656139D01*
X350025Y656131D01*
X350062Y656142D01*
X350101Y656144D01*
X350144Y656167D01*
X350191Y656182D01*
X350219Y656208D01*
X350253Y656227D01*
X350281Y656267D01*
X350317Y656301D01*
X350330Y656337D01*
X350353Y656368D01*
X350364Y656428D01*
X350377Y656463D01*
X350375Y656484D01*
X350380Y656511D01*
X350380Y685857D01*
X350369Y685907D01*
X350367Y685958D01*
X350349Y685990D01*
X350341Y686026D01*
X350308Y686065D01*
X350284Y686110D01*
X350254Y686131D01*
X350231Y686159D01*
X350184Y686180D01*
X350142Y686210D01*
X350100Y686218D01*
X350072Y686230D01*
X350042Y686229D01*
X350000Y686237D01*
X231000Y686237D01*
X230950Y686226D01*
X230899Y686224D01*
X230867Y686206D01*
X230831Y686198D01*
X230792Y686165D01*
X230747Y686141D01*
X230726Y686111D01*
X230698Y686088D01*
X230677Y686041D01*
X230647Y685999D01*
X230639Y685957D01*
X230627Y685929D01*
X230628Y685899D01*
X230620Y685857D01*
X230620Y667000D01*
X230631Y666950D01*
X230633Y666899D01*
X230651Y666867D01*
X230659Y666831D01*
X230692Y666792D01*
X230716Y666747D01*
X230746Y666726D01*
X230769Y666698D01*
X230816Y666677D01*
X230858Y666647D01*
X230900Y666639D01*
X230928Y666627D01*
X230958Y666628D01*
X231000Y666620D01*
X318620Y666620D01*
X318620Y609096D01*
X318634Y609034D01*
X318641Y608971D01*
X318654Y608951D01*
X318659Y608928D01*
X318700Y608878D01*
X318734Y608825D01*
X318756Y608810D01*
X318769Y608794D01*
X318804Y608778D01*
X318833Y608759D01*
X320750Y606842D01*
X321783Y604349D01*
X321783Y601651D01*
X320750Y599158D01*
X318829Y597237D01*
X318803Y597218D01*
X318747Y597188D01*
X318733Y597168D01*
X318714Y597154D01*
X318684Y597098D01*
X318647Y597046D01*
X318642Y597020D01*
X318632Y597001D01*
X318631Y596963D01*
X318620Y596904D01*
X318620Y576130D01*
X318626Y576105D01*
X318623Y576079D01*
X318645Y576021D01*
X318659Y575961D01*
X318676Y575941D01*
X318685Y575917D01*
X318730Y575875D01*
X318769Y575828D01*
X318793Y575817D01*
X318812Y575800D01*
X318871Y575782D01*
X318928Y575757D01*
X318953Y575758D01*
X318978Y575750D01*
X319039Y575761D01*
X319101Y575763D01*
X319123Y575776D01*
X319149Y575780D01*
X319220Y575828D01*
X319253Y575846D01*
X319259Y575854D01*
X319269Y575861D01*
X321158Y577750D01*
X323651Y578783D01*
X326349Y578783D01*
X328842Y577750D01*
X330750Y575842D01*
X331783Y573349D01*
X331783Y570651D01*
X330750Y568158D01*
X328842Y566250D01*
X326349Y565217D01*
X323696Y565217D01*
X323622Y565200D01*
X323547Y565187D01*
X323537Y565180D01*
X323527Y565178D01*
X323499Y565154D01*
X323427Y565106D01*
X318874Y560553D01*
X318834Y560488D01*
X318790Y560426D01*
X318788Y560414D01*
X318783Y560406D01*
X318779Y560369D01*
X318763Y560284D01*
X318763Y500941D01*
X318731Y500910D01*
X318691Y500845D01*
X318647Y500783D01*
X318645Y500771D01*
X318640Y500763D01*
X318636Y500726D01*
X318620Y500641D01*
X318620Y485158D01*
X315775Y482312D01*
X315774Y482311D01*
X315772Y482310D01*
X315692Y482189D01*
X313743Y477483D01*
X309017Y472757D01*
X304311Y470808D01*
X304310Y470807D01*
X304308Y470806D01*
X304188Y470725D01*
X290731Y457269D01*
X290700Y457219D01*
X290698Y457217D01*
X290694Y457209D01*
X290691Y457204D01*
X290647Y457142D01*
X290645Y457130D01*
X290640Y457122D01*
X290636Y457085D01*
X290635Y457077D01*
X290627Y457059D01*
X290627Y457040D01*
X290620Y457000D01*
X290620Y455163D01*
X290631Y455113D01*
X290633Y455062D01*
X290651Y455030D01*
X290659Y454994D01*
X290692Y454955D01*
X290716Y454910D01*
X290746Y454889D01*
X290769Y454861D01*
X290816Y454840D01*
X290858Y454810D01*
X290900Y454802D01*
X290928Y454790D01*
X290958Y454791D01*
X291000Y454783D01*
X291979Y454783D01*
X294472Y453750D01*
X296380Y451842D01*
X297413Y449349D01*
X297413Y446651D01*
X296380Y444158D01*
X294472Y442250D01*
X291979Y441217D01*
X291000Y441217D01*
X290950Y441206D01*
X290899Y441204D01*
X290867Y441186D01*
X290831Y441178D01*
X290792Y441145D01*
X290747Y441121D01*
X290726Y441091D01*
X290698Y441068D01*
X290677Y441021D01*
X290647Y440979D01*
X290639Y440937D01*
X290627Y440909D01*
X290628Y440879D01*
X290620Y440837D01*
X290620Y421163D01*
X290631Y421113D01*
X290633Y421062D01*
X290651Y421030D01*
X290659Y420994D01*
X290692Y420955D01*
X290716Y420910D01*
X290746Y420889D01*
X290769Y420861D01*
X290816Y420840D01*
X290858Y420810D01*
X290900Y420802D01*
X290928Y420790D01*
X290958Y420791D01*
X291000Y420783D01*
X291349Y420783D01*
X293842Y419750D01*
X295750Y417842D01*
X296783Y415349D01*
X296783Y412651D01*
X295750Y410158D01*
X293842Y408250D01*
X291349Y407217D01*
X291000Y407217D01*
X290950Y407206D01*
X290899Y407204D01*
X290867Y407186D01*
X290831Y407178D01*
X290792Y407145D01*
X290747Y407121D01*
X290726Y407091D01*
X290698Y407068D01*
X290677Y407021D01*
X290647Y406979D01*
X290639Y406937D01*
X290627Y406909D01*
X290628Y406879D01*
X290620Y406837D01*
X290620Y295000D01*
X290631Y294950D01*
X290633Y294899D01*
X290651Y294867D01*
X290659Y294831D01*
X290692Y294792D01*
X290716Y294747D01*
X290746Y294726D01*
X290769Y294698D01*
X290816Y294677D01*
X290858Y294647D01*
X290900Y294639D01*
X290928Y294627D01*
X290958Y294628D01*
X291000Y294620D01*
X309000Y294620D01*
X309050Y294631D01*
G37*
G36*
X249074Y34637D02*
X249074Y34637D01*
X249149Y34650D01*
X249159Y34657D01*
X249169Y34659D01*
X249198Y34683D01*
X249269Y34731D01*
X250269Y35731D01*
X250309Y35796D01*
X250353Y35858D01*
X250355Y35870D01*
X250360Y35878D01*
X250364Y35915D01*
X250380Y36000D01*
X250380Y81843D01*
X284079Y115541D01*
X284080Y115543D01*
X284081Y115544D01*
X284161Y115665D01*
X285757Y119517D01*
X290483Y124243D01*
X294335Y125839D01*
X294337Y125840D01*
X294339Y125840D01*
X294459Y125921D01*
X344269Y175731D01*
X344309Y175796D01*
X344353Y175858D01*
X344355Y175870D01*
X344360Y175878D01*
X344364Y175915D01*
X344380Y176000D01*
X344380Y295471D01*
X344369Y295521D01*
X344367Y295572D01*
X344354Y295594D01*
X344350Y295620D01*
X344343Y295630D01*
X344341Y295640D01*
X344317Y295669D01*
X344301Y295692D01*
X344284Y295724D01*
X344276Y295730D01*
X344269Y295740D01*
X344011Y295998D01*
X342935Y298595D01*
X342935Y301405D01*
X344011Y304002D01*
X344269Y304260D01*
X344309Y304325D01*
X344353Y304387D01*
X344355Y304399D01*
X344360Y304407D01*
X344364Y304444D01*
X344380Y304529D01*
X344380Y378489D01*
X344366Y378551D01*
X344359Y378614D01*
X344346Y378635D01*
X344341Y378658D01*
X344300Y378707D01*
X344266Y378761D01*
X344244Y378776D01*
X344231Y378792D01*
X344196Y378807D01*
X344146Y378841D01*
X343158Y379250D01*
X341250Y381158D01*
X340217Y383651D01*
X340217Y386349D01*
X341250Y388842D01*
X343158Y390750D01*
X344146Y391159D01*
X344197Y391196D01*
X344253Y391227D01*
X344267Y391246D01*
X344286Y391260D01*
X344316Y391316D01*
X344353Y391368D01*
X344358Y391395D01*
X344368Y391413D01*
X344369Y391451D01*
X344380Y391511D01*
X344380Y423843D01*
X389158Y468620D01*
X408697Y468620D01*
X408747Y468631D01*
X408798Y468633D01*
X408830Y468651D01*
X408866Y468659D01*
X408905Y468692D01*
X408950Y468716D01*
X408971Y468746D01*
X408999Y468769D01*
X409020Y468816D01*
X409050Y468858D01*
X409058Y468900D01*
X409070Y468928D01*
X409069Y468958D01*
X409077Y469000D01*
X409077Y500000D01*
X409066Y500050D01*
X409064Y500101D01*
X409046Y500133D01*
X409038Y500169D01*
X409005Y500208D01*
X408981Y500253D01*
X408951Y500274D01*
X408928Y500302D01*
X408881Y500323D01*
X408839Y500353D01*
X408797Y500361D01*
X408769Y500373D01*
X408739Y500372D01*
X408697Y500380D01*
X381000Y500380D01*
X380926Y500363D01*
X380851Y500350D01*
X380841Y500343D01*
X380831Y500341D01*
X380802Y500317D01*
X380731Y500269D01*
X351307Y470845D01*
X351287Y470812D01*
X351259Y470785D01*
X351241Y470739D01*
X351215Y470697D01*
X351212Y470659D01*
X351198Y470623D01*
X351204Y470574D01*
X351199Y470525D01*
X351213Y470489D01*
X351217Y470451D01*
X351243Y470409D01*
X351261Y470363D01*
X351289Y470337D01*
X351309Y470304D01*
X351360Y470271D01*
X351388Y470245D01*
X351408Y470239D01*
X351430Y470224D01*
X353031Y469561D01*
X354939Y467653D01*
X355971Y465160D01*
X355971Y462462D01*
X354939Y459969D01*
X353031Y458061D01*
X350538Y457029D01*
X347840Y457029D01*
X345347Y458061D01*
X343439Y459969D01*
X342776Y461570D01*
X342753Y461601D01*
X342739Y461637D01*
X342703Y461671D01*
X342675Y461711D01*
X342641Y461729D01*
X342612Y461755D01*
X342565Y461769D01*
X342522Y461792D01*
X342483Y461793D01*
X342446Y461804D01*
X342398Y461795D01*
X342348Y461797D01*
X342313Y461781D01*
X342276Y461774D01*
X342225Y461740D01*
X342191Y461725D01*
X342178Y461708D01*
X342155Y461693D01*
X329731Y449269D01*
X329691Y449204D01*
X329647Y449142D01*
X329645Y449130D01*
X329640Y449122D01*
X329636Y449085D01*
X329620Y449000D01*
X329620Y185158D01*
X316912Y172450D01*
X316872Y172385D01*
X316828Y172323D01*
X316826Y172311D01*
X316821Y172303D01*
X316817Y172266D01*
X316801Y172181D01*
X316801Y166658D01*
X314243Y160483D01*
X309517Y155757D01*
X303342Y153199D01*
X297819Y153199D01*
X297745Y153182D01*
X297670Y153169D01*
X297660Y153162D01*
X297650Y153160D01*
X297621Y153136D01*
X297550Y153088D01*
X287603Y143140D01*
X287602Y143139D01*
X287600Y143138D01*
X287520Y143017D01*
X286750Y141158D01*
X284842Y139250D01*
X282983Y138480D01*
X282981Y138479D01*
X282980Y138478D01*
X282860Y138397D01*
X226731Y82269D01*
X226691Y82204D01*
X226647Y82142D01*
X226645Y82130D01*
X226640Y82122D01*
X226636Y82085D01*
X226620Y82000D01*
X226620Y35000D01*
X226631Y34950D01*
X226633Y34899D01*
X226651Y34867D01*
X226659Y34831D01*
X226692Y34792D01*
X226716Y34747D01*
X226746Y34726D01*
X226769Y34698D01*
X226816Y34677D01*
X226858Y34647D01*
X226900Y34639D01*
X226928Y34627D01*
X226958Y34628D01*
X227000Y34620D01*
X249000Y34620D01*
X249074Y34637D01*
G37*
G36*
X283907Y695774D02*
X283907Y695774D01*
X283958Y695776D01*
X283990Y695794D01*
X284026Y695802D01*
X284065Y695835D01*
X284110Y695859D01*
X284131Y695889D01*
X284159Y695912D01*
X284180Y695959D01*
X284210Y696001D01*
X284218Y696043D01*
X284230Y696071D01*
X284229Y696101D01*
X284237Y696143D01*
X284237Y723857D01*
X284226Y723907D01*
X284224Y723958D01*
X284206Y723990D01*
X284198Y724026D01*
X284165Y724065D01*
X284141Y724110D01*
X284111Y724131D01*
X284088Y724159D01*
X284041Y724180D01*
X283999Y724210D01*
X283957Y724218D01*
X283929Y724230D01*
X283899Y724229D01*
X283857Y724237D01*
X271815Y724237D01*
X271741Y724220D01*
X271667Y724207D01*
X271656Y724200D01*
X271647Y724198D01*
X271618Y724174D01*
X271547Y724126D01*
X269975Y722554D01*
X266747Y721217D01*
X263253Y721217D01*
X260025Y722554D01*
X257554Y725025D01*
X256217Y728253D01*
X256217Y731747D01*
X257554Y734975D01*
X260025Y737446D01*
X263253Y738783D01*
X263728Y738783D01*
X263765Y738792D01*
X263803Y738790D01*
X263848Y738811D01*
X263896Y738822D01*
X263926Y738847D01*
X263961Y738863D01*
X263992Y738901D01*
X264030Y738932D01*
X264046Y738968D01*
X264070Y738997D01*
X264081Y739045D01*
X264101Y739091D01*
X264099Y739129D01*
X264108Y739167D01*
X264096Y739226D01*
X264094Y739264D01*
X264084Y739282D01*
X264079Y739309D01*
X261199Y746260D01*
X261199Y753740D01*
X263192Y758551D01*
X263199Y758589D01*
X263214Y758625D01*
X263212Y758674D01*
X263220Y758722D01*
X263209Y758759D01*
X263208Y758798D01*
X263184Y758841D01*
X263170Y758888D01*
X263143Y758916D01*
X263125Y758950D01*
X263085Y758978D01*
X263051Y759014D01*
X263015Y759027D01*
X262983Y759050D01*
X262924Y759061D01*
X262888Y759074D01*
X262868Y759072D01*
X262841Y759077D01*
X243517Y759077D01*
X243505Y759074D01*
X243492Y759076D01*
X243421Y759055D01*
X243349Y759038D01*
X243339Y759030D01*
X243326Y759026D01*
X243272Y758975D01*
X243215Y758928D01*
X243210Y758916D01*
X243200Y758907D01*
X243175Y758837D01*
X243144Y758769D01*
X243145Y758756D01*
X243140Y758744D01*
X243148Y758671D01*
X243151Y758596D01*
X243157Y758585D01*
X243158Y758572D01*
X243198Y758509D01*
X243234Y758444D01*
X243244Y758437D01*
X243251Y758426D01*
X243372Y758346D01*
X245156Y757607D01*
X249207Y753556D01*
X251399Y748264D01*
X251399Y742536D01*
X249207Y737244D01*
X245156Y733193D01*
X244813Y733051D01*
X244792Y733036D01*
X244768Y733029D01*
X244723Y732986D01*
X244673Y732950D01*
X244660Y732927D01*
X244642Y732910D01*
X244620Y732852D01*
X244591Y732797D01*
X244590Y732772D01*
X244582Y732747D01*
X244588Y732686D01*
X244586Y732624D01*
X244597Y732601D01*
X244600Y732575D01*
X244633Y732523D01*
X244659Y732467D01*
X244679Y732450D01*
X244692Y732429D01*
X244765Y732381D01*
X244793Y732358D01*
X244803Y732355D01*
X244813Y732349D01*
X245156Y732207D01*
X249207Y728156D01*
X251399Y722864D01*
X251399Y717136D01*
X249207Y711844D01*
X245156Y707793D01*
X239864Y705601D01*
X234136Y705601D01*
X228844Y707793D01*
X224793Y711844D01*
X224651Y712187D01*
X224636Y712208D01*
X224629Y712232D01*
X224586Y712277D01*
X224550Y712327D01*
X224527Y712340D01*
X224510Y712358D01*
X224452Y712380D01*
X224397Y712409D01*
X224372Y712410D01*
X224347Y712418D01*
X224286Y712412D01*
X224224Y712414D01*
X224201Y712403D01*
X224175Y712400D01*
X224123Y712367D01*
X224067Y712341D01*
X224050Y712321D01*
X224029Y712308D01*
X223981Y712235D01*
X223958Y712207D01*
X223955Y712197D01*
X223949Y712187D01*
X223807Y711844D01*
X219756Y707793D01*
X214464Y705601D01*
X208736Y705601D01*
X203444Y707793D01*
X199393Y711844D01*
X197201Y717136D01*
X197201Y717619D01*
X197190Y717669D01*
X197188Y717720D01*
X197170Y717752D01*
X197162Y717788D01*
X197129Y717827D01*
X197105Y717872D01*
X197075Y717893D01*
X197052Y717921D01*
X197005Y717942D01*
X196963Y717972D01*
X196921Y717980D01*
X196893Y717992D01*
X196863Y717991D01*
X196821Y717999D01*
X195929Y717999D01*
X192999Y720929D01*
X192999Y743071D01*
X195929Y746001D01*
X196821Y746001D01*
X196871Y746012D01*
X196922Y746014D01*
X196954Y746032D01*
X196990Y746040D01*
X197029Y746073D01*
X197074Y746097D01*
X197095Y746127D01*
X197123Y746150D01*
X197144Y746197D01*
X197174Y746239D01*
X197182Y746281D01*
X197194Y746309D01*
X197193Y746339D01*
X197201Y746381D01*
X197201Y748264D01*
X199393Y753556D01*
X203444Y757607D01*
X205228Y758346D01*
X205239Y758353D01*
X205251Y758356D01*
X205309Y758403D01*
X205369Y758447D01*
X205375Y758458D01*
X205385Y758466D01*
X205415Y758534D01*
X205450Y758600D01*
X205451Y758613D01*
X205456Y758625D01*
X205453Y758699D01*
X205455Y758773D01*
X205450Y758785D01*
X205449Y758798D01*
X205414Y758863D01*
X205383Y758930D01*
X205373Y758939D01*
X205366Y758950D01*
X205306Y758992D01*
X205248Y759039D01*
X205235Y759042D01*
X205225Y759050D01*
X205083Y759077D01*
X78509Y759077D01*
X78472Y759068D01*
X78433Y759070D01*
X78388Y759049D01*
X78340Y759038D01*
X78311Y759013D01*
X78276Y758997D01*
X78245Y758959D01*
X78207Y758928D01*
X78191Y758892D01*
X78167Y758863D01*
X78156Y758815D01*
X78136Y758769D01*
X78137Y758731D01*
X78129Y758693D01*
X78141Y758634D01*
X78142Y758596D01*
X78152Y758578D01*
X78158Y758551D01*
X78783Y757043D01*
X78783Y753549D01*
X77446Y750321D01*
X75874Y748749D01*
X75834Y748685D01*
X75790Y748623D01*
X75788Y748611D01*
X75783Y748602D01*
X75779Y748565D01*
X75763Y748481D01*
X75763Y702545D01*
X75780Y702471D01*
X75793Y702396D01*
X75800Y702386D01*
X75802Y702376D01*
X75826Y702347D01*
X75874Y702276D01*
X82276Y695874D01*
X82340Y695834D01*
X82402Y695790D01*
X82414Y695788D01*
X82423Y695783D01*
X82460Y695779D01*
X82545Y695763D01*
X283857Y695763D01*
X283907Y695774D01*
G37*
G36*
X408747Y238393D02*
X408747Y238393D01*
X408798Y238395D01*
X408830Y238413D01*
X408866Y238421D01*
X408905Y238454D01*
X408950Y238478D01*
X408971Y238508D01*
X408999Y238531D01*
X409020Y238578D01*
X409050Y238620D01*
X409058Y238662D01*
X409070Y238690D01*
X409069Y238720D01*
X409077Y238762D01*
X409077Y463238D01*
X409066Y463288D01*
X409064Y463339D01*
X409046Y463371D01*
X409038Y463407D01*
X409005Y463446D01*
X408981Y463491D01*
X408951Y463512D01*
X408928Y463540D01*
X408881Y463561D01*
X408839Y463591D01*
X408797Y463599D01*
X408769Y463611D01*
X408739Y463610D01*
X408697Y463618D01*
X391387Y463618D01*
X391313Y463601D01*
X391238Y463588D01*
X391228Y463581D01*
X391218Y463579D01*
X391189Y463555D01*
X391118Y463507D01*
X349493Y421882D01*
X349453Y421818D01*
X349409Y421756D01*
X349407Y421743D01*
X349402Y421735D01*
X349398Y421698D01*
X349394Y421677D01*
X349389Y421665D01*
X349389Y421652D01*
X349382Y421613D01*
X349382Y393774D01*
X349396Y393712D01*
X349403Y393649D01*
X349416Y393629D01*
X349421Y393605D01*
X349462Y393556D01*
X349496Y393503D01*
X349518Y393488D01*
X349531Y393472D01*
X349566Y393456D01*
X349616Y393423D01*
X351975Y392446D01*
X352277Y392144D01*
X352341Y392104D01*
X352403Y392060D01*
X352415Y392058D01*
X352424Y392053D01*
X352461Y392049D01*
X352545Y392033D01*
X373455Y392033D01*
X373529Y392050D01*
X373603Y392063D01*
X373613Y392070D01*
X373623Y392072D01*
X373652Y392096D01*
X373723Y392144D01*
X374025Y392446D01*
X377253Y393783D01*
X380747Y393783D01*
X383975Y392446D01*
X386446Y389975D01*
X387783Y386747D01*
X387783Y383253D01*
X386446Y380025D01*
X383975Y377554D01*
X380747Y376217D01*
X377253Y376217D01*
X374025Y377554D01*
X373723Y377856D01*
X373659Y377896D01*
X373597Y377940D01*
X373585Y377942D01*
X373576Y377947D01*
X373539Y377951D01*
X373455Y377967D01*
X352545Y377967D01*
X352471Y377950D01*
X352397Y377937D01*
X352387Y377930D01*
X352377Y377928D01*
X352348Y377904D01*
X352277Y377856D01*
X351975Y377554D01*
X349616Y376577D01*
X349565Y376540D01*
X349509Y376510D01*
X349495Y376490D01*
X349476Y376476D01*
X349446Y376420D01*
X349409Y376368D01*
X349404Y376342D01*
X349394Y376323D01*
X349393Y376286D01*
X349382Y376226D01*
X349382Y313762D01*
X349393Y313712D01*
X349395Y313661D01*
X349413Y313629D01*
X349421Y313593D01*
X349454Y313554D01*
X349478Y313509D01*
X349508Y313488D01*
X349531Y313460D01*
X349578Y313439D01*
X349620Y313409D01*
X349662Y313401D01*
X349690Y313389D01*
X349720Y313390D01*
X349762Y313382D01*
X381619Y313382D01*
X381669Y313393D01*
X381720Y313395D01*
X381752Y313413D01*
X381788Y313421D01*
X381827Y313454D01*
X381872Y313478D01*
X381893Y313508D01*
X381921Y313531D01*
X381942Y313578D01*
X381972Y313620D01*
X381980Y313662D01*
X381992Y313690D01*
X381991Y313720D01*
X381999Y313762D01*
X381999Y325071D01*
X384929Y328001D01*
X405071Y328001D01*
X408001Y325071D01*
X408001Y297929D01*
X405071Y294999D01*
X389762Y294999D01*
X389712Y294988D01*
X389661Y294986D01*
X389629Y294968D01*
X389593Y294960D01*
X389554Y294927D01*
X389509Y294903D01*
X389488Y294873D01*
X389460Y294850D01*
X389439Y294803D01*
X389409Y294761D01*
X389401Y294719D01*
X389389Y294691D01*
X389390Y294664D01*
X389389Y294662D01*
X389389Y294656D01*
X389382Y294619D01*
X389382Y238762D01*
X389393Y238712D01*
X389395Y238661D01*
X389413Y238629D01*
X389421Y238593D01*
X389454Y238554D01*
X389478Y238509D01*
X389508Y238488D01*
X389531Y238460D01*
X389578Y238439D01*
X389620Y238409D01*
X389662Y238401D01*
X389690Y238389D01*
X389720Y238390D01*
X389762Y238382D01*
X408697Y238382D01*
X408747Y238393D01*
G37*
G36*
X344452Y481527D02*
X344452Y481527D01*
X344514Y481530D01*
X344536Y481542D01*
X344562Y481547D01*
X344633Y481595D01*
X344666Y481613D01*
X344672Y481621D01*
X344682Y481628D01*
X383856Y520802D01*
X383896Y520866D01*
X383940Y520928D01*
X383942Y520940D01*
X383947Y520949D01*
X383951Y520986D01*
X383967Y521071D01*
X383967Y569455D01*
X383950Y569529D01*
X383937Y569603D01*
X383930Y569613D01*
X383928Y569623D01*
X383904Y569652D01*
X383856Y569723D01*
X383554Y570025D01*
X382217Y573253D01*
X382217Y576747D01*
X383554Y579975D01*
X386025Y582446D01*
X389253Y583783D01*
X392747Y583783D01*
X395975Y582446D01*
X398446Y579975D01*
X399783Y576747D01*
X399783Y573253D01*
X398446Y570025D01*
X398144Y569723D01*
X398104Y569659D01*
X398060Y569597D01*
X398058Y569585D01*
X398053Y569576D01*
X398049Y569539D01*
X398033Y569455D01*
X398033Y516601D01*
X396962Y514016D01*
X388977Y506031D01*
X388963Y506009D01*
X388943Y505993D01*
X388918Y505936D01*
X388885Y505884D01*
X388883Y505858D01*
X388872Y505834D01*
X388875Y505773D01*
X388869Y505711D01*
X388878Y505687D01*
X388879Y505661D01*
X388908Y505607D01*
X388930Y505549D01*
X388949Y505532D01*
X388962Y505509D01*
X389012Y505474D01*
X389057Y505432D01*
X389082Y505424D01*
X389103Y505409D01*
X389188Y505393D01*
X389224Y505382D01*
X389233Y505384D01*
X389246Y505382D01*
X408697Y505382D01*
X408747Y505393D01*
X408798Y505395D01*
X408830Y505413D01*
X408866Y505421D01*
X408905Y505454D01*
X408950Y505478D01*
X408971Y505508D01*
X408999Y505531D01*
X409020Y505578D01*
X409050Y505620D01*
X409058Y505662D01*
X409070Y505690D01*
X409069Y505720D01*
X409077Y505762D01*
X409077Y612841D01*
X409068Y612879D01*
X409070Y612917D01*
X409049Y612962D01*
X409038Y613010D01*
X409013Y613039D01*
X408997Y613074D01*
X408959Y613105D01*
X408928Y613143D01*
X408892Y613159D01*
X408863Y613183D01*
X408815Y613194D01*
X408769Y613214D01*
X408731Y613213D01*
X408693Y613221D01*
X408634Y613209D01*
X408596Y613208D01*
X408578Y613198D01*
X408551Y613192D01*
X403740Y611199D01*
X396260Y611199D01*
X389350Y614062D01*
X386412Y617000D01*
X386390Y617013D01*
X386374Y617033D01*
X386317Y617059D01*
X386265Y617091D01*
X386239Y617094D01*
X386215Y617104D01*
X386154Y617102D01*
X386092Y617108D01*
X386068Y617099D01*
X386042Y617098D01*
X385988Y617068D01*
X385930Y617046D01*
X385913Y617027D01*
X385890Y617015D01*
X385855Y616965D01*
X385813Y616919D01*
X385805Y616894D01*
X385790Y616873D01*
X385774Y616789D01*
X385763Y616753D01*
X385765Y616743D01*
X385763Y616731D01*
X385763Y608854D01*
X384885Y606736D01*
X383264Y605115D01*
X381146Y604237D01*
X357354Y604237D01*
X355908Y604836D01*
X355870Y604843D01*
X355834Y604858D01*
X355785Y604856D01*
X355737Y604864D01*
X355700Y604853D01*
X355661Y604852D01*
X355618Y604828D01*
X355571Y604814D01*
X355543Y604787D01*
X355509Y604769D01*
X355481Y604729D01*
X355445Y604695D01*
X355432Y604659D01*
X355409Y604627D01*
X355398Y604568D01*
X355385Y604532D01*
X355387Y604512D01*
X355382Y604485D01*
X355382Y568360D01*
X355394Y568308D01*
X355395Y568269D01*
X355400Y568259D01*
X355403Y568235D01*
X355416Y568214D01*
X355421Y568191D01*
X355462Y568142D01*
X355496Y568088D01*
X355518Y568073D01*
X355531Y568057D01*
X355566Y568042D01*
X355616Y568008D01*
X356975Y567446D01*
X359446Y564975D01*
X360783Y561747D01*
X360783Y558253D01*
X359446Y555025D01*
X356975Y552554D01*
X353747Y551217D01*
X350253Y551217D01*
X347025Y552554D01*
X346864Y552715D01*
X346821Y552742D01*
X346783Y552777D01*
X346748Y552787D01*
X346717Y552807D01*
X346666Y552812D01*
X346617Y552826D01*
X346581Y552820D01*
X346544Y552823D01*
X346497Y552805D01*
X346446Y552796D01*
X346411Y552773D01*
X346382Y552762D01*
X346362Y552739D01*
X346326Y552715D01*
X339493Y545882D01*
X339453Y545818D01*
X339409Y545756D01*
X339407Y545743D01*
X339402Y545735D01*
X339398Y545698D01*
X339382Y545613D01*
X339382Y496774D01*
X339396Y496712D01*
X339403Y496649D01*
X339416Y496629D01*
X339421Y496605D01*
X339462Y496556D01*
X339496Y496503D01*
X339518Y496488D01*
X339531Y496472D01*
X339566Y496456D01*
X339616Y496423D01*
X341975Y495446D01*
X344446Y492975D01*
X345783Y489747D01*
X345783Y486253D01*
X344446Y483025D01*
X344144Y482723D01*
X344104Y482659D01*
X344060Y482597D01*
X344058Y482585D01*
X344053Y482576D01*
X344049Y482539D01*
X344045Y482516D01*
X344040Y482505D01*
X344040Y482493D01*
X344033Y482455D01*
X344033Y481897D01*
X344039Y481871D01*
X344036Y481846D01*
X344058Y481788D01*
X344072Y481728D01*
X344089Y481708D01*
X344098Y481684D01*
X344143Y481642D01*
X344182Y481594D01*
X344206Y481584D01*
X344225Y481566D01*
X344284Y481549D01*
X344341Y481523D01*
X344366Y481524D01*
X344391Y481517D01*
X344452Y481527D01*
G37*
G36*
X262879Y10932D02*
X262879Y10932D01*
X262917Y10930D01*
X262962Y10951D01*
X263010Y10962D01*
X263039Y10987D01*
X263074Y11003D01*
X263105Y11041D01*
X263143Y11072D01*
X263159Y11108D01*
X263183Y11137D01*
X263194Y11185D01*
X263214Y11231D01*
X263213Y11269D01*
X263221Y11307D01*
X263209Y11366D01*
X263208Y11404D01*
X263198Y11422D01*
X263192Y11449D01*
X261199Y16260D01*
X261199Y23740D01*
X264062Y30650D01*
X264381Y30969D01*
X264394Y30991D01*
X264414Y31007D01*
X264440Y31064D01*
X264472Y31116D01*
X264475Y31142D01*
X264485Y31166D01*
X264483Y31227D01*
X264489Y31289D01*
X264480Y31313D01*
X264479Y31339D01*
X264449Y31393D01*
X264427Y31451D01*
X264408Y31468D01*
X264396Y31491D01*
X264346Y31526D01*
X264300Y31568D01*
X264275Y31576D01*
X264254Y31591D01*
X264170Y31607D01*
X264134Y31618D01*
X264124Y31616D01*
X264112Y31618D01*
X260771Y31618D01*
X257618Y34771D01*
X257618Y60229D01*
X260771Y63382D01*
X309975Y63382D01*
X310012Y63391D01*
X310051Y63389D01*
X310095Y63410D01*
X310143Y63421D01*
X310173Y63446D01*
X310208Y63462D01*
X310239Y63500D01*
X310277Y63531D01*
X310293Y63567D01*
X310317Y63596D01*
X310328Y63644D01*
X310348Y63690D01*
X310346Y63728D01*
X310355Y63766D01*
X310343Y63825D01*
X310341Y63863D01*
X310335Y63874D01*
X310335Y63878D01*
X310330Y63887D01*
X310326Y63908D01*
X309059Y66966D01*
X309059Y87035D01*
X310968Y91644D01*
X314496Y95172D01*
X319105Y97081D01*
X324095Y97081D01*
X328704Y95172D01*
X332232Y91644D01*
X334141Y87035D01*
X334141Y66966D01*
X332874Y63908D01*
X332868Y63871D01*
X332858Y63850D01*
X332859Y63849D01*
X332852Y63834D01*
X332854Y63785D01*
X332846Y63737D01*
X332857Y63700D01*
X332859Y63661D01*
X332882Y63618D01*
X332897Y63571D01*
X332923Y63543D01*
X332941Y63509D01*
X332982Y63481D01*
X333016Y63445D01*
X333052Y63432D01*
X333083Y63409D01*
X333143Y63398D01*
X333178Y63385D01*
X333199Y63387D01*
X333225Y63382D01*
X354238Y63382D01*
X354288Y63393D01*
X354339Y63395D01*
X354371Y63413D01*
X354407Y63421D01*
X354446Y63454D01*
X354491Y63478D01*
X354512Y63508D01*
X354540Y63531D01*
X354561Y63578D01*
X354591Y63620D01*
X354599Y63662D01*
X354611Y63690D01*
X354611Y63704D01*
X354611Y63705D01*
X354611Y63723D01*
X354618Y63762D01*
X354618Y94238D01*
X354607Y94288D01*
X354605Y94339D01*
X354587Y94371D01*
X354579Y94407D01*
X354546Y94446D01*
X354522Y94491D01*
X354492Y94512D01*
X354469Y94540D01*
X354422Y94561D01*
X354380Y94591D01*
X354338Y94599D01*
X354310Y94611D01*
X354280Y94610D01*
X354238Y94618D01*
X345771Y94618D01*
X342618Y97771D01*
X342618Y166089D01*
X342612Y166114D01*
X342615Y166140D01*
X342593Y166198D01*
X342579Y166258D01*
X342562Y166278D01*
X342553Y166302D01*
X342508Y166344D01*
X342469Y166392D01*
X342445Y166402D01*
X342426Y166420D01*
X342367Y166437D01*
X342310Y166463D01*
X342285Y166462D01*
X342260Y166469D01*
X342199Y166458D01*
X342137Y166456D01*
X342115Y166444D01*
X342089Y166439D01*
X342018Y166391D01*
X341985Y166373D01*
X341979Y166365D01*
X341969Y166358D01*
X255493Y79882D01*
X255453Y79818D01*
X255409Y79756D01*
X255407Y79743D01*
X255402Y79735D01*
X255398Y79698D01*
X255382Y79613D01*
X255382Y33771D01*
X251229Y29618D01*
X248663Y29618D01*
X248637Y29612D01*
X248612Y29615D01*
X248554Y29593D01*
X248494Y29579D01*
X248474Y29562D01*
X248450Y29553D01*
X248408Y29508D01*
X248360Y29469D01*
X248350Y29445D01*
X248332Y29426D01*
X248315Y29367D01*
X248289Y29310D01*
X248290Y29285D01*
X248283Y29260D01*
X248294Y29199D01*
X248296Y29137D01*
X248308Y29115D01*
X248313Y29089D01*
X248361Y29018D01*
X248379Y28985D01*
X248387Y28979D01*
X248394Y28969D01*
X249207Y28156D01*
X251399Y22864D01*
X251399Y17136D01*
X249207Y11844D01*
X248935Y11572D01*
X248921Y11550D01*
X248901Y11534D01*
X248876Y11477D01*
X248843Y11425D01*
X248841Y11399D01*
X248830Y11375D01*
X248833Y11314D01*
X248827Y11252D01*
X248836Y11228D01*
X248837Y11202D01*
X248866Y11148D01*
X248888Y11090D01*
X248907Y11073D01*
X248920Y11050D01*
X248970Y11015D01*
X249016Y10973D01*
X249040Y10965D01*
X249061Y10950D01*
X249146Y10934D01*
X249182Y10923D01*
X249192Y10925D01*
X249204Y10923D01*
X262841Y10923D01*
X262879Y10932D01*
G37*
%LPC*%
G36*
X42115Y215049D02*
X42115Y215049D01*
X41340Y215824D01*
X41275Y215864D01*
X41213Y215908D01*
X41201Y215910D01*
X41193Y215915D01*
X41156Y215919D01*
X41071Y215935D01*
X33197Y215935D01*
X29865Y217315D01*
X27315Y219865D01*
X25935Y223197D01*
X25935Y226803D01*
X26164Y227354D01*
X26176Y227430D01*
X26193Y227504D01*
X26190Y227516D01*
X26192Y227525D01*
X26181Y227561D01*
X26164Y227646D01*
X25935Y228197D01*
X25935Y236803D01*
X27315Y240135D01*
X29865Y242685D01*
X33197Y244065D01*
X36803Y244065D01*
X38659Y243296D01*
X38697Y243290D01*
X38733Y243274D01*
X38782Y243276D01*
X38830Y243268D01*
X38867Y243279D01*
X38906Y243280D01*
X38949Y243304D01*
X38996Y243318D01*
X39024Y243345D01*
X39058Y243363D01*
X39086Y243403D01*
X39122Y243437D01*
X39135Y243473D01*
X39158Y243505D01*
X39169Y243564D01*
X39182Y243600D01*
X39180Y243621D01*
X39185Y243647D01*
X39185Y260221D01*
X42115Y263151D01*
X67085Y263151D01*
X70015Y260221D01*
X70015Y217979D01*
X67085Y215049D01*
X42115Y215049D01*
G37*
%LPD*%
G36*
X372879Y10932D02*
X372879Y10932D01*
X372917Y10930D01*
X372962Y10951D01*
X373010Y10962D01*
X373039Y10987D01*
X373074Y11003D01*
X373105Y11041D01*
X373143Y11072D01*
X373159Y11108D01*
X373183Y11137D01*
X373194Y11185D01*
X373214Y11231D01*
X373213Y11269D01*
X373221Y11307D01*
X373209Y11366D01*
X373208Y11404D01*
X373198Y11422D01*
X373192Y11449D01*
X371199Y16260D01*
X371199Y23740D01*
X374062Y30650D01*
X374381Y30969D01*
X374394Y30991D01*
X374414Y31007D01*
X374440Y31064D01*
X374472Y31116D01*
X374475Y31142D01*
X374485Y31166D01*
X374483Y31227D01*
X374489Y31289D01*
X374480Y31313D01*
X374479Y31339D01*
X374449Y31393D01*
X374427Y31451D01*
X374408Y31468D01*
X374396Y31491D01*
X374346Y31526D01*
X374300Y31568D01*
X374275Y31576D01*
X374254Y31591D01*
X374170Y31607D01*
X374134Y31618D01*
X374124Y31616D01*
X374112Y31618D01*
X295888Y31618D01*
X295863Y31612D01*
X295837Y31615D01*
X295779Y31593D01*
X295719Y31579D01*
X295699Y31562D01*
X295675Y31553D01*
X295633Y31508D01*
X295586Y31469D01*
X295575Y31445D01*
X295558Y31426D01*
X295540Y31367D01*
X295515Y31310D01*
X295516Y31285D01*
X295508Y31260D01*
X295519Y31199D01*
X295521Y31137D01*
X295534Y31115D01*
X295538Y31089D01*
X295586Y31018D01*
X295604Y30985D01*
X295612Y30979D01*
X295619Y30969D01*
X295938Y30650D01*
X298801Y23740D01*
X298801Y16260D01*
X296808Y11449D01*
X296801Y11411D01*
X296786Y11375D01*
X296788Y11326D01*
X296780Y11278D01*
X296791Y11241D01*
X296792Y11202D01*
X296816Y11159D01*
X296830Y11112D01*
X296857Y11084D01*
X296875Y11050D01*
X296915Y11022D01*
X296949Y10986D01*
X296985Y10973D01*
X297017Y10950D01*
X297076Y10939D01*
X297112Y10926D01*
X297132Y10928D01*
X297159Y10923D01*
X372841Y10923D01*
X372879Y10932D01*
G37*
%LPC*%
G36*
X174115Y215049D02*
X174115Y215049D01*
X171185Y217979D01*
X171185Y220898D01*
X171168Y220972D01*
X171155Y221046D01*
X171148Y221057D01*
X171146Y221066D01*
X171122Y221095D01*
X171074Y221167D01*
X168595Y223645D01*
X167215Y226977D01*
X167215Y230583D01*
X168595Y233915D01*
X171074Y236393D01*
X171114Y236458D01*
X171158Y236520D01*
X171160Y236532D01*
X171165Y236541D01*
X171169Y236578D01*
X171185Y236662D01*
X171185Y252518D01*
X171185Y252519D01*
X171185Y252521D01*
X171156Y252663D01*
X170935Y253197D01*
X170935Y256803D01*
X171156Y257337D01*
X171157Y257339D01*
X171158Y257340D01*
X171185Y257482D01*
X171185Y260221D01*
X174115Y263151D01*
X175915Y263151D01*
X175916Y263151D01*
X175918Y263151D01*
X176060Y263180D01*
X178197Y264065D01*
X191803Y264065D01*
X193940Y263180D01*
X193942Y263179D01*
X193943Y263178D01*
X194085Y263151D01*
X199085Y263151D01*
X202015Y260221D01*
X202015Y217979D01*
X199085Y215049D01*
X174115Y215049D01*
G37*
%LPD*%
%LPC*%
G36*
X224915Y541849D02*
X224915Y541849D01*
X221985Y544779D01*
X221985Y587021D01*
X224915Y589951D01*
X249885Y589951D01*
X252815Y587021D01*
X252815Y544779D01*
X249885Y541849D01*
X224915Y541849D01*
G37*
%LPD*%
%LPC*%
G36*
X92915Y541849D02*
X92915Y541849D01*
X89985Y544779D01*
X89985Y587021D01*
X92915Y589951D01*
X117885Y589951D01*
X120815Y587021D01*
X120815Y544779D01*
X117885Y541849D01*
X92915Y541849D01*
G37*
%LPD*%
G36*
X386182Y642900D02*
X386182Y642900D01*
X386244Y642902D01*
X386266Y642915D01*
X386292Y642919D01*
X386318Y642937D01*
X386321Y642938D01*
X386329Y642944D01*
X386363Y642967D01*
X386396Y642985D01*
X386402Y642993D01*
X386412Y643000D01*
X389350Y645938D01*
X396260Y648801D01*
X403740Y648801D01*
X408551Y646808D01*
X408589Y646801D01*
X408625Y646786D01*
X408674Y646788D01*
X408722Y646780D01*
X408759Y646791D01*
X408798Y646792D01*
X408841Y646816D01*
X408888Y646830D01*
X408916Y646857D01*
X408950Y646875D01*
X408978Y646915D01*
X409014Y646949D01*
X409027Y646985D01*
X409050Y647017D01*
X409061Y647076D01*
X409074Y647112D01*
X409072Y647132D01*
X409077Y647159D01*
X409077Y724893D01*
X409069Y724930D01*
X409070Y724968D01*
X409049Y725013D01*
X409038Y725062D01*
X409014Y725091D01*
X408998Y725125D01*
X408959Y725157D01*
X408928Y725195D01*
X408893Y725211D01*
X408864Y725235D01*
X408815Y725246D01*
X408769Y725266D01*
X408732Y725265D01*
X408695Y725273D01*
X408646Y725262D01*
X408596Y725260D01*
X408563Y725242D01*
X408526Y725233D01*
X408488Y725201D01*
X408444Y725177D01*
X408422Y725146D01*
X408393Y725122D01*
X408366Y725066D01*
X408344Y725035D01*
X408340Y725012D01*
X408330Y724991D01*
X406708Y718937D01*
X402934Y712402D01*
X397598Y707066D01*
X391063Y703292D01*
X383773Y701339D01*
X381666Y701339D01*
X381653Y701336D01*
X381641Y701338D01*
X381569Y701317D01*
X381497Y701300D01*
X381487Y701292D01*
X381475Y701288D01*
X381421Y701237D01*
X381364Y701190D01*
X381358Y701178D01*
X381349Y701169D01*
X381323Y701099D01*
X381293Y701031D01*
X381293Y701018D01*
X381289Y701006D01*
X381296Y700932D01*
X381299Y700858D01*
X381305Y700847D01*
X381307Y700834D01*
X381347Y700771D01*
X381382Y700706D01*
X381393Y700699D01*
X381400Y700688D01*
X381520Y700608D01*
X383264Y699885D01*
X384885Y698264D01*
X385763Y696146D01*
X385763Y643269D01*
X385769Y643244D01*
X385766Y643218D01*
X385776Y643193D01*
X385776Y643178D01*
X385790Y643153D01*
X385802Y643100D01*
X385819Y643080D01*
X385828Y643056D01*
X385857Y643029D01*
X385859Y643026D01*
X385867Y643020D01*
X385873Y643014D01*
X385912Y642967D01*
X385936Y642956D01*
X385955Y642939D01*
X386014Y642921D01*
X386071Y642896D01*
X386096Y642897D01*
X386121Y642889D01*
X386182Y642900D01*
G37*
%LPC*%
G36*
X185253Y180217D02*
X185253Y180217D01*
X182025Y181554D01*
X179554Y184025D01*
X178217Y187253D01*
X178217Y190747D01*
X179554Y193975D01*
X182025Y196446D01*
X185253Y197783D01*
X188747Y197783D01*
X190854Y196910D01*
X190930Y196897D01*
X191004Y196881D01*
X191016Y196883D01*
X191025Y196882D01*
X191061Y196893D01*
X191146Y196910D01*
X193253Y197783D01*
X196747Y197783D01*
X198854Y196910D01*
X198930Y196897D01*
X199004Y196881D01*
X199016Y196883D01*
X199025Y196882D01*
X199061Y196893D01*
X199146Y196910D01*
X201253Y197783D01*
X204747Y197783D01*
X207975Y196446D01*
X210446Y193975D01*
X211783Y190747D01*
X211783Y187253D01*
X210446Y184025D01*
X207975Y181554D01*
X204747Y180217D01*
X201253Y180217D01*
X199146Y181090D01*
X199070Y181103D01*
X198996Y181119D01*
X198984Y181117D01*
X198975Y181118D01*
X198939Y181107D01*
X198854Y181090D01*
X196747Y180217D01*
X193253Y180217D01*
X191146Y181090D01*
X191070Y181103D01*
X190996Y181119D01*
X190984Y181117D01*
X190975Y181118D01*
X190939Y181107D01*
X190854Y181090D01*
X188747Y180217D01*
X185253Y180217D01*
G37*
%LPD*%
G36*
X224822Y10929D02*
X224822Y10929D01*
X224847Y10926D01*
X224905Y10948D01*
X224965Y10962D01*
X224985Y10979D01*
X225009Y10988D01*
X225051Y11033D01*
X225099Y11072D01*
X225109Y11096D01*
X225127Y11115D01*
X225144Y11174D01*
X225170Y11231D01*
X225169Y11256D01*
X225176Y11281D01*
X225165Y11342D01*
X225163Y11404D01*
X225151Y11426D01*
X225146Y11452D01*
X225098Y11523D01*
X225080Y11556D01*
X225072Y11562D01*
X225065Y11572D01*
X224793Y11844D01*
X222601Y17136D01*
X222601Y22864D01*
X224793Y28156D01*
X225606Y28969D01*
X225620Y28991D01*
X225640Y29007D01*
X225665Y29064D01*
X225698Y29116D01*
X225700Y29142D01*
X225711Y29166D01*
X225708Y29227D01*
X225714Y29289D01*
X225705Y29313D01*
X225704Y29339D01*
X225675Y29393D01*
X225653Y29451D01*
X225634Y29468D01*
X225621Y29491D01*
X225571Y29526D01*
X225525Y29568D01*
X225501Y29576D01*
X225480Y29591D01*
X225395Y29607D01*
X225359Y29618D01*
X225349Y29616D01*
X225337Y29618D01*
X224771Y29618D01*
X221618Y32771D01*
X221618Y34137D01*
X221612Y34163D01*
X221615Y34188D01*
X221605Y34214D01*
X221605Y34219D01*
X221600Y34228D01*
X221593Y34246D01*
X221579Y34306D01*
X221562Y34326D01*
X221553Y34350D01*
X221508Y34392D01*
X221469Y34440D01*
X221445Y34450D01*
X221426Y34468D01*
X221367Y34485D01*
X221310Y34511D01*
X221285Y34510D01*
X221260Y34517D01*
X221199Y34506D01*
X221137Y34504D01*
X221115Y34492D01*
X221089Y34487D01*
X221018Y34439D01*
X220985Y34421D01*
X220979Y34413D01*
X220969Y34406D01*
X219756Y33193D01*
X214464Y31001D01*
X208736Y31001D01*
X205908Y32173D01*
X205870Y32179D01*
X205834Y32195D01*
X205785Y32193D01*
X205737Y32201D01*
X205700Y32190D01*
X205661Y32188D01*
X205618Y32165D01*
X205571Y32150D01*
X205543Y32124D01*
X205509Y32105D01*
X205481Y32065D01*
X205445Y32031D01*
X205432Y31995D01*
X205409Y31964D01*
X205398Y31904D01*
X205385Y31869D01*
X205387Y31848D01*
X205382Y31822D01*
X205382Y11303D01*
X205393Y11253D01*
X205395Y11202D01*
X205413Y11170D01*
X205421Y11134D01*
X205454Y11095D01*
X205478Y11050D01*
X205508Y11029D01*
X205531Y11001D01*
X205578Y10980D01*
X205620Y10950D01*
X205662Y10942D01*
X205690Y10930D01*
X205720Y10931D01*
X205762Y10923D01*
X224796Y10923D01*
X224822Y10929D01*
G37*
%LPC*%
G36*
X382089Y195433D02*
X382089Y195433D01*
X378559Y196896D01*
X375858Y199597D01*
X374395Y203127D01*
X374395Y206949D01*
X375858Y210479D01*
X378559Y213180D01*
X382089Y214643D01*
X385911Y214643D01*
X389441Y213180D01*
X392142Y210479D01*
X393605Y206949D01*
X393605Y203127D01*
X392142Y199597D01*
X389441Y196896D01*
X385911Y195433D01*
X382089Y195433D01*
G37*
%LPD*%
%LPC*%
G36*
X382089Y170287D02*
X382089Y170287D01*
X378559Y171750D01*
X375858Y174451D01*
X374395Y177981D01*
X374395Y181803D01*
X375858Y185333D01*
X378559Y188034D01*
X382089Y189497D01*
X385911Y189497D01*
X389441Y188034D01*
X392142Y185333D01*
X393605Y181803D01*
X393605Y177981D01*
X392142Y174451D01*
X389441Y171750D01*
X385911Y170287D01*
X382089Y170287D01*
G37*
%LPD*%
%LPC*%
G36*
X382089Y145395D02*
X382089Y145395D01*
X378559Y146858D01*
X375858Y149559D01*
X374395Y153089D01*
X374395Y156911D01*
X375858Y160441D01*
X378559Y163142D01*
X382089Y164605D01*
X385911Y164605D01*
X389441Y163142D01*
X392142Y160441D01*
X393605Y156911D01*
X393605Y153089D01*
X392142Y149559D01*
X389441Y146858D01*
X385911Y145395D01*
X382089Y145395D01*
G37*
%LPD*%
%LPC*%
G36*
X100253Y175217D02*
X100253Y175217D01*
X97025Y176554D01*
X94554Y179025D01*
X93217Y182253D01*
X93217Y185747D01*
X94554Y188975D01*
X97025Y191446D01*
X100253Y192783D01*
X103747Y192783D01*
X106975Y191446D01*
X109446Y188975D01*
X110783Y185747D01*
X110783Y182253D01*
X109446Y179025D01*
X106975Y176554D01*
X103747Y175217D01*
X100253Y175217D01*
G37*
%LPD*%
%LPC*%
G36*
X137253Y182217D02*
X137253Y182217D01*
X134025Y183554D01*
X131554Y186025D01*
X130217Y189253D01*
X130217Y192747D01*
X131554Y195975D01*
X134025Y198446D01*
X137253Y199783D01*
X140747Y199783D01*
X143975Y198446D01*
X146446Y195975D01*
X147783Y192747D01*
X147783Y189253D01*
X146446Y186025D01*
X143975Y183554D01*
X140747Y182217D01*
X137253Y182217D01*
G37*
%LPD*%
%LPC*%
G36*
X157253Y151217D02*
X157253Y151217D01*
X154025Y152554D01*
X151554Y155025D01*
X150217Y158253D01*
X150217Y161747D01*
X151554Y164975D01*
X154025Y167446D01*
X157253Y168783D01*
X160747Y168783D01*
X163975Y167446D01*
X166446Y164975D01*
X167783Y161747D01*
X167783Y158253D01*
X166446Y155025D01*
X163975Y152554D01*
X160747Y151217D01*
X157253Y151217D01*
G37*
%LPD*%
%LPC*%
G36*
X121253Y243717D02*
X121253Y243717D01*
X118025Y245054D01*
X115554Y247525D01*
X114217Y250753D01*
X114217Y254247D01*
X115554Y257475D01*
X118025Y259946D01*
X121253Y261283D01*
X124747Y261283D01*
X127975Y259946D01*
X130446Y257475D01*
X131783Y254247D01*
X131783Y250753D01*
X130446Y247525D01*
X127975Y245054D01*
X124747Y243717D01*
X121253Y243717D01*
G37*
%LPD*%
%LPC*%
G36*
X286253Y507217D02*
X286253Y507217D01*
X283025Y508554D01*
X280554Y511025D01*
X279217Y514253D01*
X279217Y517747D01*
X280554Y520975D01*
X283025Y523446D01*
X286253Y524783D01*
X289747Y524783D01*
X292975Y523446D01*
X295446Y520975D01*
X296783Y517747D01*
X296783Y514253D01*
X295446Y511025D01*
X292975Y508554D01*
X289747Y507217D01*
X286253Y507217D01*
G37*
%LPD*%
%LPC*%
G36*
X154253Y258217D02*
X154253Y258217D01*
X151025Y259554D01*
X148554Y262025D01*
X147217Y265253D01*
X147217Y268747D01*
X148554Y271975D01*
X151025Y274446D01*
X154253Y275783D01*
X157747Y275783D01*
X160975Y274446D01*
X163446Y271975D01*
X164783Y268747D01*
X164783Y265253D01*
X163446Y262025D01*
X160975Y259554D01*
X157747Y258217D01*
X154253Y258217D01*
G37*
%LPD*%
%LPC*%
G36*
X198253Y112217D02*
X198253Y112217D01*
X195025Y113554D01*
X192554Y116025D01*
X191217Y119253D01*
X191217Y122747D01*
X192554Y125975D01*
X195025Y128446D01*
X198253Y129783D01*
X201747Y129783D01*
X204975Y128446D01*
X207446Y125975D01*
X208783Y122747D01*
X208783Y119253D01*
X207446Y116025D01*
X204975Y113554D01*
X201747Y112217D01*
X198253Y112217D01*
G37*
%LPD*%
%LPC*%
G36*
X23253Y258217D02*
X23253Y258217D01*
X20025Y259554D01*
X17554Y262025D01*
X16217Y265253D01*
X16217Y268747D01*
X17554Y271975D01*
X20025Y274446D01*
X23253Y275783D01*
X26747Y275783D01*
X29975Y274446D01*
X32446Y271975D01*
X33783Y268747D01*
X33783Y265253D01*
X32446Y262025D01*
X29975Y259554D01*
X26747Y258217D01*
X23253Y258217D01*
G37*
%LPD*%
%LPC*%
G36*
X371651Y128217D02*
X371651Y128217D01*
X369158Y129250D01*
X367250Y131158D01*
X366217Y133651D01*
X366217Y136349D01*
X367250Y138842D01*
X369158Y140750D01*
X371651Y141783D01*
X374349Y141783D01*
X376842Y140750D01*
X378750Y138842D01*
X379783Y136349D01*
X379783Y133651D01*
X378750Y131158D01*
X376842Y129250D01*
X374349Y128217D01*
X371651Y128217D01*
G37*
%LPD*%
D10*
X347000Y84540D02*
X347000Y69460D01*
X321600Y69460D02*
X321600Y84540D01*
X372400Y84540D02*
X372400Y69460D01*
D11*
X390000Y20000D03*
X300000Y170000D03*
X299500Y487000D03*
X400000Y630000D03*
X280000Y750000D03*
X330000Y750000D03*
D12*
X237400Y565900D03*
X186600Y565900D03*
D13*
X212000Y451600D03*
D12*
X186600Y239100D03*
X237400Y239100D03*
D13*
X212000Y353400D03*
D12*
X54600Y239100D03*
X105400Y239100D03*
D13*
X80000Y353400D03*
D12*
X105400Y565900D03*
X54600Y565900D03*
D13*
X80000Y451600D03*
D11*
X129000Y109000D03*
X300000Y270000D03*
X28000Y565000D03*
X395000Y484000D03*
X400000Y680000D03*
X300000Y110000D03*
X340000Y20000D03*
X280000Y20000D03*
D14*
X384000Y155000D03*
X384000Y179892D03*
X384000Y205038D03*
D15*
X110000Y720000D03*
X110000Y745400D03*
X135400Y720000D03*
X135400Y745400D03*
X160800Y720000D03*
X160800Y745400D03*
X186200Y720000D03*
X186200Y745400D03*
X211600Y720000D03*
X211600Y745400D03*
X237000Y720000D03*
X237000Y745400D03*
X110000Y20000D03*
X110000Y45400D03*
X135400Y20000D03*
X135400Y45400D03*
X160800Y20000D03*
X160800Y45400D03*
X186200Y20000D03*
X186200Y45400D03*
X211600Y20000D03*
X211600Y45400D03*
X237000Y20000D03*
X237000Y45400D03*
D16*
X395000Y248500D03*
X395000Y311500D03*
D17*
X260000Y175000D03*
X266000Y169000D03*
X259000Y185000D03*
X265000Y145000D03*
X273000Y145000D03*
X281000Y145000D03*
X325000Y528000D03*
X345000Y568000D03*
X288000Y516000D03*
X327000Y678000D03*
X238000Y679000D03*
X270000Y50000D03*
D18*
X325000Y480000D02*
X325000Y528000D01*
X325000Y480000D02*
X300000Y455000D01*
X300000Y300000D01*
D17*
X300000Y300000D03*
X350000Y300000D03*
D18*
X370000Y280000D01*
X370000Y235000D01*
X380000Y225000D01*
X390000Y225000D01*
X403014Y211986D01*
X403014Y45000D01*
X370000Y45000D01*
X270000Y45000D01*
X270000Y50000D01*
X372400Y47400D02*
X372400Y77000D01*
X372400Y47400D02*
X370000Y45000D01*
X325000Y528000D02*
X325000Y548000D01*
X345000Y568000D01*
X345000Y590000D01*
X327000Y608000D02*
X327000Y678000D01*
X327000Y608000D02*
X345000Y590000D01*
X238000Y678000D02*
X238000Y679000D01*
X238000Y678000D02*
X327000Y678000D01*
D17*
X383000Y602000D03*
X281000Y627000D03*
X296748Y593748D03*
X285000Y534662D03*
X347000Y650000D03*
X341000Y513000D03*
X139000Y191000D03*
X16000Y197000D03*
X123000Y252500D03*
D19*
X392000Y248000D02*
X392500Y248500D01*
X395000Y248500D01*
D17*
X392000Y248000D03*
X392000Y337000D03*
X200000Y121000D03*
X290000Y414000D03*
X349189Y463811D03*
X373000Y135000D03*
X284000Y506000D03*
X276000Y514000D03*
X50000Y600000D03*
X50000Y610000D03*
X70000Y610000D03*
X70000Y600000D03*
X90000Y600000D03*
X90000Y610000D03*
X110000Y600000D03*
X110000Y610000D03*
X130000Y610000D03*
X130000Y600000D03*
X150000Y600000D03*
X150000Y610000D03*
X170000Y610000D03*
X170000Y600000D03*
X190000Y600000D03*
X190000Y610000D03*
X210000Y610000D03*
X210000Y600000D03*
X230000Y600000D03*
X230000Y610000D03*
X250000Y600000D03*
X250000Y610000D03*
D20*
X291000Y610000D01*
X291500Y610500D01*
D17*
X291500Y610500D03*
X325000Y572000D03*
D20*
X315000Y562000D01*
X315000Y502500D02*
X299500Y487000D01*
X315000Y502500D02*
X315000Y562000D01*
D17*
X271000Y659000D03*
X337000Y488000D03*
X314000Y315000D03*
D21*
X337000Y473903D02*
X337000Y488000D01*
X337000Y473903D02*
X316412Y453315D01*
X316412Y317412D02*
X314000Y315000D01*
X316412Y317412D02*
X316412Y453315D01*
D17*
X315000Y603000D03*
X159000Y160000D03*
X265000Y730000D03*
X353500Y615000D03*
D20*
X358500Y610000D01*
X380000Y610000D02*
X380000Y695000D01*
X290000Y695000D01*
X290000Y730000D01*
X265000Y730000D01*
X358500Y610000D02*
X380000Y610000D01*
D21*
X324000Y194000D02*
X300000Y170000D01*
X391000Y518000D02*
X391000Y575000D01*
D17*
X391000Y575000D03*
D21*
X324000Y451000D02*
X324000Y194000D01*
X324000Y451000D02*
X391000Y518000D01*
D17*
X187000Y189000D03*
X195000Y189000D03*
X203000Y189000D03*
D18*
X337000Y426000D02*
X395000Y484000D01*
X291000Y137000D02*
X236000Y82000D01*
X236000Y46400D01*
X237000Y45400D01*
X337000Y412000D02*
X337000Y426000D01*
X337000Y412000D02*
X337000Y176000D01*
X298000Y137000D01*
X291000Y137000D01*
D17*
X337000Y412000D03*
X337000Y403000D03*
X337000Y395000D03*
X290630Y448000D03*
X280630Y448000D03*
X352000Y560000D03*
X261000Y626000D03*
D22*
X40000Y490000D03*
X60000Y490000D03*
X60000Y470000D03*
X40000Y470000D03*
X40000Y450000D03*
X60000Y450000D03*
X80000Y450000D03*
X80000Y470000D03*
X80000Y490000D03*
X100000Y490000D03*
X100000Y470000D03*
X100000Y450000D03*
X120000Y450000D03*
X120000Y470000D03*
X120000Y490000D03*
X140000Y490000D03*
X140000Y470000D03*
X140000Y450000D03*
X160000Y450000D03*
X160000Y470000D03*
X160000Y490000D03*
X180000Y490000D03*
X200000Y490000D03*
X200000Y470000D03*
X180000Y470000D03*
X180000Y450000D03*
X200000Y450000D03*
X200000Y430000D03*
X180000Y430000D03*
X160000Y430000D03*
X140000Y430000D03*
X120000Y430000D03*
X100000Y430000D03*
X80000Y430000D03*
X60000Y430000D03*
X40000Y430000D03*
X40000Y410000D03*
X60000Y410000D03*
X80000Y410000D03*
X100000Y410000D03*
X120000Y410000D03*
X140000Y410000D03*
X160000Y410000D03*
X180000Y410000D03*
X200000Y410000D03*
X200000Y390000D03*
X180000Y390000D03*
X160000Y390000D03*
X140000Y390000D03*
X120000Y390000D03*
X100000Y390000D03*
X80000Y390000D03*
X60000Y390000D03*
X40000Y390000D03*
X20000Y390000D03*
X20000Y410000D03*
X20000Y430000D03*
X20000Y450000D03*
X20000Y470000D03*
X20000Y490000D03*
X200000Y370000D03*
X180000Y370000D03*
X160000Y370000D03*
X140000Y370000D03*
X120000Y370000D03*
X100000Y370000D03*
X80000Y370000D03*
X60000Y370000D03*
X40000Y370000D03*
X20000Y370000D03*
X20000Y350000D03*
X20000Y330000D03*
X20000Y310000D03*
X40000Y310000D03*
X60000Y310000D03*
X80000Y310000D03*
X100000Y310000D03*
X120000Y310000D03*
X140000Y310000D03*
X160000Y310000D03*
X180000Y310000D03*
X200000Y310000D03*
X200000Y330000D03*
X200000Y350000D03*
X180000Y350000D03*
X180000Y330000D03*
X160000Y330000D03*
X160000Y350000D03*
X140000Y350000D03*
X140000Y330000D03*
X120000Y330000D03*
X120000Y350000D03*
X100000Y350000D03*
X100000Y330000D03*
X80000Y330000D03*
X80000Y350000D03*
X60000Y350000D03*
X60000Y330000D03*
X40000Y330000D03*
X40000Y350000D03*
X220000Y490000D03*
X240000Y490000D03*
X240000Y470000D03*
X220000Y470000D03*
X220000Y450000D03*
X240000Y450000D03*
X240000Y430000D03*
X220000Y430000D03*
X220000Y410000D03*
X220000Y390000D03*
X220000Y370000D03*
X220000Y350000D03*
X220000Y330000D03*
X220000Y310000D03*
D17*
X156000Y267000D03*
X25000Y267000D03*
D18*
X239080Y564220D02*
X237400Y565900D01*
D17*
X240000Y570000D03*
X240000Y560000D03*
D18*
X237400Y562600D01*
X237400Y565900D01*
D17*
X35000Y225000D03*
D18*
X40500Y225000D01*
X54600Y239100D01*
D17*
X35000Y235000D03*
D18*
X35000Y230000D01*
X45500Y230000D02*
X54600Y239100D01*
X45500Y230000D02*
X35000Y230000D01*
X40500Y225000D02*
X50000Y225000D01*
D17*
X236000Y230000D03*
D18*
X236000Y237700D01*
X237400Y239100D01*
X107080Y564220D02*
X105400Y565900D01*
D17*
X110000Y560000D03*
D18*
X110000Y561300D01*
X105400Y565900D01*
D17*
X110000Y570000D03*
D18*
X186600Y239100D02*
X176280Y228780D01*
D17*
X190000Y255000D03*
D18*
X180000Y255000D01*
D17*
X180000Y255000D03*
D18*
X190000Y242500D02*
X186600Y239100D01*
X190000Y242500D02*
X190000Y255000D01*
D17*
X102000Y184000D03*
X271000Y206000D03*
X70000Y755296D03*
D20*
X70000Y700000D01*
X80000Y690000D01*
X370000Y690000D01*
X371306Y688694D01*
X371306Y620000D01*
D17*
X371306Y620000D03*
X347000Y385000D03*
D21*
X379000Y385000D01*
D17*
X379000Y385000D03*
X361000Y652000D03*
X392000Y311000D03*
D19*
X394500Y311000D01*
X395000Y311500D01*
M02*
