G04 EAGLE Gerber RS-274X export*
G75*
%MOMM*%
%FSLAX34Y34*%
%LPD*%
%INSoldermask Bottom*%
%IPPOS*%
%AMOC8*
5,1,8,0,0,1.08239X$1,22.5*%
G01*
%ADD10R,1.803200X2.003200*%
%ADD11C,1.711200*%
%ADD12R,1.303200X1.203200*%
%ADD13R,0.771200X1.462000*%
%ADD14R,1.603200X1.203200*%
%ADD15R,3.403200X2.003200*%
%ADD16C,2.963200*%
%ADD17R,2.006200X1.803200*%
%ADD18R,1.803200X2.006200*%
%ADD19R,1.203200X1.603200*%
%ADD20R,1.203200X1.303200*%
%ADD21R,1.403200X1.603200*%
%ADD22C,1.524000*%
%ADD23C,2.082800*%
%ADD24R,1.803200X2.503200*%
%ADD25R,2.743200X2.743200*%
%ADD26R,1.317800X1.564400*%
%ADD27R,1.803400X1.371600*%
%ADD28C,3.903200*%
%ADD29C,6.203200*%
%ADD30C,0.959600*%
%ADD31C,0.859600*%


D10*
X358000Y110000D03*
X330000Y110000D03*
D11*
X347000Y84540D02*
X347000Y69460D01*
X321600Y69460D02*
X321600Y84540D01*
X372400Y84540D02*
X372400Y69460D01*
D10*
X358000Y135000D03*
X330000Y135000D03*
X352000Y45000D03*
X380000Y45000D03*
D12*
X322500Y650000D03*
X339500Y650000D03*
X306000Y602500D03*
X306000Y619500D03*
X306000Y634500D03*
X306000Y651500D03*
D13*
X287475Y585192D03*
X297000Y585192D03*
X306525Y585192D03*
X306525Y560808D03*
X287475Y560808D03*
D12*
X325000Y543500D03*
X325000Y560500D03*
X261000Y682500D03*
X261000Y665500D03*
X281000Y665500D03*
X281000Y682500D03*
D14*
X356000Y593000D03*
X334000Y583500D03*
X334000Y602500D03*
D12*
X391000Y584500D03*
X391000Y601500D03*
D14*
X372000Y504000D03*
X350000Y494500D03*
X350000Y513500D03*
X350000Y552000D03*
X372000Y561500D03*
X372000Y542500D03*
D12*
X391000Y560500D03*
X391000Y543500D03*
X325000Y513500D03*
X325000Y496500D03*
D15*
X216000Y643000D03*
X216000Y587000D03*
D16*
X390000Y20000D03*
X300000Y170000D03*
X299500Y487000D03*
X400000Y630000D03*
X280000Y750000D03*
X330000Y750000D03*
D12*
X261000Y651500D03*
X261000Y634500D03*
D17*
X252000Y535780D03*
X252000Y564220D03*
D18*
X152220Y284000D03*
X123780Y284000D03*
D17*
X25000Y257220D03*
X25000Y228780D03*
X130000Y535780D03*
X130000Y564220D03*
D14*
X43000Y207000D03*
X65000Y216500D03*
X65000Y197500D03*
D12*
X82000Y215500D03*
X82000Y198500D03*
D16*
X129000Y109000D03*
X300000Y270000D03*
X28000Y565000D03*
D14*
X152000Y243000D03*
X130000Y233500D03*
X130000Y252500D03*
D19*
X364000Y424000D03*
X373500Y402000D03*
X354500Y402000D03*
D14*
X107000Y207000D03*
X129000Y216500D03*
X129000Y197500D03*
D12*
X148000Y215500D03*
X148000Y198500D03*
D20*
X316500Y344000D03*
X333500Y344000D03*
D12*
X109000Y234500D03*
X109000Y251500D03*
D16*
X395000Y484000D03*
D17*
X176000Y231220D03*
X176000Y202780D03*
D19*
X325000Y385000D03*
X334500Y363000D03*
X315500Y363000D03*
D20*
X374500Y344000D03*
X391500Y344000D03*
D21*
X230000Y106000D03*
X200000Y106000D03*
X61000Y753000D03*
X31000Y753000D03*
X230000Y135000D03*
X200000Y135000D03*
D20*
X268500Y106000D03*
X251500Y106000D03*
X353500Y628000D03*
X370500Y628000D03*
X268500Y135000D03*
X251500Y135000D03*
D16*
X400000Y680000D03*
X300000Y110000D03*
X340000Y20000D03*
X280000Y20000D03*
D12*
X305500Y544000D03*
X288500Y544000D03*
D19*
X326500Y464000D03*
X336000Y442000D03*
X317000Y442000D03*
D20*
X334000Y423000D03*
X317000Y423000D03*
X268000Y362000D03*
X285000Y362000D03*
D19*
X276500Y404000D03*
X286000Y382000D03*
X267000Y382000D03*
D20*
X277500Y423000D03*
X294500Y423000D03*
D19*
X364000Y464000D03*
X373500Y442000D03*
X354500Y442000D03*
X364000Y385000D03*
X373500Y363000D03*
X354500Y363000D03*
D22*
X384000Y155000D03*
X384000Y179892D03*
X384000Y205038D03*
D17*
X57000Y237780D03*
X57000Y266220D03*
D12*
X322500Y628000D03*
X339500Y628000D03*
D23*
X110000Y720000D03*
X110000Y745400D03*
X135400Y720000D03*
X135400Y745400D03*
X160800Y720000D03*
X160800Y745400D03*
X186200Y720000D03*
X186200Y745400D03*
X211600Y720000D03*
X211600Y745400D03*
X237000Y720000D03*
X237000Y745400D03*
X110000Y20000D03*
X110000Y45400D03*
X135400Y20000D03*
X135400Y45400D03*
X160800Y20000D03*
X160800Y45400D03*
X186200Y20000D03*
X186200Y45400D03*
X211600Y20000D03*
X211600Y45400D03*
X237000Y20000D03*
X237000Y45400D03*
D12*
X353000Y342500D03*
X353000Y325500D03*
D24*
X395000Y248500D03*
X395000Y311500D03*
D20*
X281000Y651500D03*
X281000Y634500D03*
D25*
X236000Y262495D03*
X236000Y215505D03*
D26*
X199004Y267000D03*
X166996Y267000D03*
D15*
X175000Y643000D03*
X175000Y587000D03*
D27*
X362000Y165760D03*
X362000Y181000D03*
X362000Y196240D03*
D15*
X134000Y643000D03*
X134000Y587000D03*
X93000Y643000D03*
X93000Y587000D03*
D17*
X198000Y231220D03*
X198000Y202780D03*
X79000Y237780D03*
X79000Y266220D03*
D20*
X353500Y679000D03*
X336500Y679000D03*
D28*
X380000Y730000D03*
D29*
X380000Y730000D03*
D28*
X40000Y40000D03*
D29*
X40000Y40000D03*
D30*
X260000Y175000D03*
X266000Y169000D03*
X259000Y185000D03*
X265000Y145000D03*
X273000Y145000D03*
X281000Y145000D03*
X325000Y528000D03*
X345000Y568000D03*
X288000Y516000D03*
X327000Y678000D03*
X238000Y679000D03*
X270000Y50000D03*
X300000Y300000D03*
X350000Y300000D03*
X383000Y602000D03*
X281000Y627000D03*
X296748Y593748D03*
X285000Y534662D03*
X347000Y650000D03*
X341000Y513000D03*
X139000Y191000D03*
X16000Y197000D03*
X123000Y252500D03*
X392000Y248000D03*
X392000Y337000D03*
X200000Y121000D03*
X290000Y414000D03*
X349189Y463811D03*
X373000Y135000D03*
X284000Y506000D03*
X276000Y514000D03*
X50000Y600000D03*
X50000Y610000D03*
X70000Y610000D03*
X70000Y600000D03*
X90000Y600000D03*
X90000Y610000D03*
X110000Y600000D03*
X110000Y610000D03*
X130000Y610000D03*
X130000Y600000D03*
X150000Y600000D03*
X150000Y610000D03*
X170000Y610000D03*
X170000Y600000D03*
X190000Y600000D03*
X190000Y610000D03*
X210000Y610000D03*
X210000Y600000D03*
X230000Y600000D03*
X230000Y610000D03*
X250000Y600000D03*
X250000Y610000D03*
X291500Y610500D03*
X325000Y572000D03*
X271000Y659000D03*
X337000Y488000D03*
X314000Y315000D03*
X315000Y603000D03*
X159000Y160000D03*
X265000Y730000D03*
X353500Y615000D03*
X391000Y575000D03*
X187000Y189000D03*
X195000Y189000D03*
X203000Y189000D03*
X337000Y412000D03*
X337000Y403000D03*
X337000Y395000D03*
X290630Y448000D03*
X280630Y448000D03*
X352000Y560000D03*
X261000Y626000D03*
D31*
X40000Y490000D03*
X60000Y490000D03*
X60000Y470000D03*
X40000Y470000D03*
X40000Y450000D03*
X60000Y450000D03*
X80000Y450000D03*
X80000Y470000D03*
X80000Y490000D03*
X100000Y490000D03*
X100000Y470000D03*
X100000Y450000D03*
X120000Y450000D03*
X120000Y470000D03*
X120000Y490000D03*
X140000Y490000D03*
X140000Y470000D03*
X140000Y450000D03*
X160000Y450000D03*
X160000Y470000D03*
X160000Y490000D03*
X180000Y490000D03*
X200000Y490000D03*
X200000Y470000D03*
X180000Y470000D03*
X180000Y450000D03*
X200000Y450000D03*
X200000Y430000D03*
X180000Y430000D03*
X160000Y430000D03*
X140000Y430000D03*
X120000Y430000D03*
X100000Y430000D03*
X80000Y430000D03*
X60000Y430000D03*
X40000Y430000D03*
X40000Y410000D03*
X60000Y410000D03*
X80000Y410000D03*
X100000Y410000D03*
X120000Y410000D03*
X140000Y410000D03*
X160000Y410000D03*
X180000Y410000D03*
X200000Y410000D03*
X200000Y390000D03*
X180000Y390000D03*
X160000Y390000D03*
X140000Y390000D03*
X120000Y390000D03*
X100000Y390000D03*
X80000Y390000D03*
X60000Y390000D03*
X40000Y390000D03*
X20000Y390000D03*
X20000Y410000D03*
X20000Y430000D03*
X20000Y450000D03*
X20000Y470000D03*
X20000Y490000D03*
X200000Y370000D03*
X180000Y370000D03*
X160000Y370000D03*
X140000Y370000D03*
X120000Y370000D03*
X100000Y370000D03*
X80000Y370000D03*
X60000Y370000D03*
X40000Y370000D03*
X20000Y370000D03*
X20000Y350000D03*
X20000Y330000D03*
X20000Y310000D03*
X40000Y310000D03*
X60000Y310000D03*
X80000Y310000D03*
X100000Y310000D03*
X120000Y310000D03*
X140000Y310000D03*
X160000Y310000D03*
X180000Y310000D03*
X200000Y310000D03*
X200000Y330000D03*
X200000Y350000D03*
X180000Y350000D03*
X180000Y330000D03*
X160000Y330000D03*
X160000Y350000D03*
X140000Y350000D03*
X140000Y330000D03*
X120000Y330000D03*
X120000Y350000D03*
X100000Y350000D03*
X100000Y330000D03*
X80000Y330000D03*
X80000Y350000D03*
X60000Y350000D03*
X60000Y330000D03*
X40000Y330000D03*
X40000Y350000D03*
X220000Y490000D03*
X240000Y490000D03*
X240000Y470000D03*
X220000Y470000D03*
X220000Y450000D03*
X240000Y450000D03*
X240000Y430000D03*
X220000Y430000D03*
X220000Y410000D03*
X220000Y390000D03*
X220000Y370000D03*
X220000Y350000D03*
X220000Y330000D03*
X220000Y310000D03*
D30*
X156000Y267000D03*
X25000Y267000D03*
X240000Y570000D03*
X240000Y560000D03*
X35000Y225000D03*
X35000Y235000D03*
X236000Y230000D03*
X110000Y560000D03*
X110000Y570000D03*
X190000Y255000D03*
X180000Y255000D03*
X102000Y184000D03*
X271000Y206000D03*
X70000Y755296D03*
X371306Y620000D03*
X347000Y385000D03*
X379000Y385000D03*
X361000Y652000D03*
X392000Y311000D03*
M02*
