G04 EAGLE Gerber RS-274X export*
G75*
%MOMM*%
%FSLAX34Y34*%
%LPD*%
%INSoldermask Top*%
%IPPOS*%
%AMOC8*
5,1,8,0,0,1.08239X$1,22.5*%
G01*
%ADD10C,1.711200*%
%ADD11C,2.963200*%
%ADD12R,2.286000X4.013200*%
%ADD13R,11.633200X9.093200*%
%ADD14C,1.524000*%
%ADD15C,2.082800*%
%ADD16R,1.803200X2.503200*%
%ADD17C,3.903200*%
%ADD18C,0.959600*%
%ADD19C,0.859600*%


D10*
X347000Y84540D02*
X347000Y69460D01*
X321600Y69460D02*
X321600Y84540D01*
X372400Y84540D02*
X372400Y69460D01*
D11*
X390000Y20000D03*
X300000Y170000D03*
X299500Y487000D03*
X400000Y630000D03*
X280000Y750000D03*
X330000Y750000D03*
D12*
X237400Y565900D03*
X186600Y565900D03*
D13*
X212000Y451600D03*
D12*
X186600Y239100D03*
X237400Y239100D03*
D13*
X212000Y353400D03*
D12*
X54600Y239100D03*
X105400Y239100D03*
D13*
X80000Y353400D03*
D12*
X105400Y565900D03*
X54600Y565900D03*
D13*
X80000Y451600D03*
D11*
X129000Y109000D03*
X300000Y270000D03*
X28000Y565000D03*
X395000Y484000D03*
X400000Y680000D03*
X300000Y110000D03*
X340000Y20000D03*
X280000Y20000D03*
D14*
X384000Y155000D03*
X384000Y179892D03*
X384000Y205038D03*
D15*
X110000Y720000D03*
X110000Y745400D03*
X135400Y720000D03*
X135400Y745400D03*
X160800Y720000D03*
X160800Y745400D03*
X186200Y720000D03*
X186200Y745400D03*
X211600Y720000D03*
X211600Y745400D03*
X237000Y720000D03*
X237000Y745400D03*
X110000Y20000D03*
X110000Y45400D03*
X135400Y20000D03*
X135400Y45400D03*
X160800Y20000D03*
X160800Y45400D03*
X186200Y20000D03*
X186200Y45400D03*
X211600Y20000D03*
X211600Y45400D03*
X237000Y20000D03*
X237000Y45400D03*
D16*
X395000Y248500D03*
X395000Y311500D03*
D17*
X380000Y730000D03*
X40000Y40000D03*
D18*
X260000Y175000D03*
X266000Y169000D03*
X259000Y185000D03*
X265000Y145000D03*
X273000Y145000D03*
X281000Y145000D03*
X325000Y528000D03*
X345000Y568000D03*
X288000Y516000D03*
X327000Y678000D03*
X238000Y679000D03*
X270000Y50000D03*
X300000Y300000D03*
X350000Y300000D03*
X383000Y602000D03*
X281000Y627000D03*
X296748Y593748D03*
X285000Y534662D03*
X347000Y650000D03*
X341000Y513000D03*
X139000Y191000D03*
X16000Y197000D03*
X123000Y252500D03*
X392000Y248000D03*
X392000Y337000D03*
X200000Y121000D03*
X290000Y414000D03*
X349189Y463811D03*
X373000Y135000D03*
X284000Y506000D03*
X276000Y514000D03*
X50000Y600000D03*
X50000Y610000D03*
X70000Y610000D03*
X70000Y600000D03*
X90000Y600000D03*
X90000Y610000D03*
X110000Y600000D03*
X110000Y610000D03*
X130000Y610000D03*
X130000Y600000D03*
X150000Y600000D03*
X150000Y610000D03*
X170000Y610000D03*
X170000Y600000D03*
X190000Y600000D03*
X190000Y610000D03*
X210000Y610000D03*
X210000Y600000D03*
X230000Y600000D03*
X230000Y610000D03*
X250000Y600000D03*
X250000Y610000D03*
X291500Y610500D03*
X325000Y572000D03*
X271000Y659000D03*
X337000Y488000D03*
X314000Y315000D03*
X315000Y603000D03*
X159000Y160000D03*
X265000Y730000D03*
X353500Y615000D03*
X391000Y575000D03*
X187000Y189000D03*
X195000Y189000D03*
X203000Y189000D03*
X337000Y412000D03*
X337000Y403000D03*
X337000Y395000D03*
X290630Y448000D03*
X280630Y448000D03*
X352000Y560000D03*
X261000Y626000D03*
D19*
X40000Y490000D03*
X60000Y490000D03*
X60000Y470000D03*
X40000Y470000D03*
X40000Y450000D03*
X60000Y450000D03*
X80000Y450000D03*
X80000Y470000D03*
X80000Y490000D03*
X100000Y490000D03*
X100000Y470000D03*
X100000Y450000D03*
X120000Y450000D03*
X120000Y470000D03*
X120000Y490000D03*
X140000Y490000D03*
X140000Y470000D03*
X140000Y450000D03*
X160000Y450000D03*
X160000Y470000D03*
X160000Y490000D03*
X180000Y490000D03*
X200000Y490000D03*
X200000Y470000D03*
X180000Y470000D03*
X180000Y450000D03*
X200000Y450000D03*
X200000Y430000D03*
X180000Y430000D03*
X160000Y430000D03*
X140000Y430000D03*
X120000Y430000D03*
X100000Y430000D03*
X80000Y430000D03*
X60000Y430000D03*
X40000Y430000D03*
X40000Y410000D03*
X60000Y410000D03*
X80000Y410000D03*
X100000Y410000D03*
X120000Y410000D03*
X140000Y410000D03*
X160000Y410000D03*
X180000Y410000D03*
X200000Y410000D03*
X200000Y390000D03*
X180000Y390000D03*
X160000Y390000D03*
X140000Y390000D03*
X120000Y390000D03*
X100000Y390000D03*
X80000Y390000D03*
X60000Y390000D03*
X40000Y390000D03*
X20000Y390000D03*
X20000Y410000D03*
X20000Y430000D03*
X20000Y450000D03*
X20000Y470000D03*
X20000Y490000D03*
X200000Y370000D03*
X180000Y370000D03*
X160000Y370000D03*
X140000Y370000D03*
X120000Y370000D03*
X100000Y370000D03*
X80000Y370000D03*
X60000Y370000D03*
X40000Y370000D03*
X20000Y370000D03*
X20000Y350000D03*
X20000Y330000D03*
X20000Y310000D03*
X40000Y310000D03*
X60000Y310000D03*
X80000Y310000D03*
X100000Y310000D03*
X120000Y310000D03*
X140000Y310000D03*
X160000Y310000D03*
X180000Y310000D03*
X200000Y310000D03*
X200000Y330000D03*
X200000Y350000D03*
X180000Y350000D03*
X180000Y330000D03*
X160000Y330000D03*
X160000Y350000D03*
X140000Y350000D03*
X140000Y330000D03*
X120000Y330000D03*
X120000Y350000D03*
X100000Y350000D03*
X100000Y330000D03*
X80000Y330000D03*
X80000Y350000D03*
X60000Y350000D03*
X60000Y330000D03*
X40000Y330000D03*
X40000Y350000D03*
X220000Y490000D03*
X240000Y490000D03*
X240000Y470000D03*
X220000Y470000D03*
X220000Y450000D03*
X240000Y450000D03*
X240000Y430000D03*
X220000Y430000D03*
X220000Y410000D03*
X220000Y390000D03*
X220000Y370000D03*
X220000Y350000D03*
X220000Y330000D03*
X220000Y310000D03*
D18*
X156000Y267000D03*
X25000Y267000D03*
X240000Y570000D03*
X240000Y560000D03*
X35000Y225000D03*
X35000Y235000D03*
X236000Y230000D03*
X110000Y560000D03*
X110000Y570000D03*
X190000Y255000D03*
X180000Y255000D03*
X102000Y184000D03*
X271000Y206000D03*
X70000Y755296D03*
X371306Y620000D03*
X347000Y385000D03*
X379000Y385000D03*
X361000Y652000D03*
X392000Y311000D03*
M02*
